<svg width="1024" height="350" viewBox="0 315 1024 350" fill="none" xmlns="http://www.w3.org/2000/svg">
<g clip-path="url(#clip0_93_6227)">
<rect width="1024" height="1024" fill="none"/>
<path d="M1024 657V1023.55C1023.77 1023.6 1023.61 1023.75 1023.54 1024H926.04C925.16 1023.7 924.42 1023.5 923.68 1022.89C891.247 996.31 858.867 969.667 826.54 942.96C825.647 942.22 824.713 941.723 823.74 941.47C801.3 935.72 779.93 920.13 762.75 903.82C753.87 895.387 746.88 887.074 741.78 878.88C731.88 862.99 725.12 842.57 726.37 823.5C726.897 815.44 729.397 807.557 733.87 799.85C733.892 799.813 733.9 799.77 733.893 799.73C733.885 799.689 733.863 799.653 733.83 799.63C723.003 791.357 712.26 782.98 701.6 774.5C697.687 771.393 692.97 769.057 687.45 767.49C685.19 766.85 682.877 766.587 680.51 766.7C634.99 768.927 601.453 770.363 579.9 771.01C559.907 771.61 539.063 770.777 517.37 768.51C503.817 767.097 485.05 763.993 461.07 759.2C455.743 758.14 449.29 756.553 441.71 754.44C403.83 743.87 363.13 735.12 328.34 716.54C313.71 708.74 302.85 698.23 299.97 681.06C297.53 666.54 298.77 647.65 306.39 634.72C306.603 634.347 306.497 634.154 306.07 634.14C298.99 633.91 290.29 631.86 284.9 627.29C277.44 620.98 273.28 611.47 271.65 601.85C269.65 590 268.75 575.61 276.69 566.26C276.93 565.973 276.917 565.703 276.65 565.45C271.077 560.157 265.407 555.697 259.64 552.07C257.127 550.49 255.013 548.684 253.3 546.65C233.37 523.03 244.77 491.71 270.5 478.95C270.561 478.921 270.612 478.874 270.648 478.816C270.683 478.758 270.701 478.691 270.698 478.624C270.696 478.556 270.675 478.49 270.636 478.434C270.597 478.379 270.543 478.336 270.48 478.31C252.37 470.3 232.75 458.77 223.27 441.43C217.65 431.16 217.37 418.2 225.08 408.98C232.6 400 246.82 396.45 258.29 396.09C258.737 396.077 258.873 395.864 258.7 395.45C256.587 390.444 254.4 385.224 252.14 379.79C250.28 375.33 249.27 371.6 249.11 368.6C248.49 356.933 253.24 348.463 263.36 343.19C265.71 341.97 266.43 339.47 268.25 337.68C271.21 334.767 274.587 332.837 278.38 331.89C314.473 322.857 350.81 313.597 387.39 304.11C392.117 302.883 395.817 302.327 398.49 302.44C408.01 302.84 416.45 308.51 421.01 316.78C431.53 335.86 442.11 354.59 452.75 372.97C452.866 373.166 453.036 373.323 453.241 373.423C453.445 373.523 453.674 373.56 453.9 373.53C458.353 372.937 462.597 372.63 466.63 372.61C476.297 372.557 486.373 372.504 496.86 372.45C512.52 372.37 529.033 372.937 546.4 374.15C559.86 375.09 571.09 378.95 584.98 384.45C595.133 388.464 604.11 392.18 611.91 395.6C643.01 409.25 671.86 431.22 697 455.56C723.68 481.39 747.83 510.95 769.53 540.74C776.357 550.107 783.12 559.377 789.82 568.55C790.819 569.92 792.047 571.104 793.45 572.05L830.38 596.88C830.773 597.147 831.14 597.117 831.48 596.79C845.72 583.31 864.02 577.51 884.09 579.14C892.81 579.854 901.2 581.52 909.26 584.14C932.68 591.754 954.093 604.13 973.5 621.27C977.26 624.59 980.35 628.34 983.84 631.79C985.71 633.64 988.29 634.8 990.5 636.21C1001.58 643.284 1012.75 650.213 1024 657ZM359.04 566.97C369.31 577.17 371.06 594.25 369.51 608.46C369.457 608.954 369.673 609.16 370.16 609.08C394.93 605.14 412.75 626.02 411.75 649.32C411.423 656.813 409.023 663.093 404.55 668.16C404.361 668.372 404.241 668.635 404.206 668.916C404.17 669.196 404.22 669.48 404.35 669.73C409.697 680.23 414.897 690.46 419.95 700.42C426.03 712.41 439.36 718.49 452.15 712.99C492.07 695.823 531.93 678.733 571.73 661.72C577.56 659.23 583.02 657.29 585.63 650.84C587.617 645.934 587.233 641.063 584.48 636.23C550.77 577.15 517.96 517.49 484.75 457.76C484.32 456.99 483.61 456.417 482.77 456.16C464.48 450.49 446.06 442.66 430.75 432.14C423.68 427.29 416.8 420.93 413.3 412.91C410.4 406.31 411.33 398.27 415.47 392.49C422.1 383.24 434.9 377.83 446.08 375.18C446.487 375.087 446.587 374.857 446.38 374.49C436.24 356.67 425.993 338.473 415.64 319.9C411.29 312.09 402.51 306.88 393.49 309.2C355.503 318.987 317.8 328.57 280.38 337.95C269.6 340.65 265.9 352.52 269.74 362.03C283.067 395.13 302.257 441.21 327.31 500.27C335.91 520.52 344.4 541.28 352.8 560.77C353.174 561.63 353.755 562.383 354.49 562.96C356.123 564.247 357.64 565.583 359.04 566.97ZM472.44 379.41C481.9 387.34 491.71 392.88 504.28 393.41C505.433 393.463 506.073 392.914 506.2 391.76L507.59 379.07C507.597 379.018 507.593 378.966 507.577 378.916C507.562 378.866 507.536 378.819 507.501 378.78C507.466 378.74 507.423 378.708 507.375 378.686C507.326 378.663 507.273 378.651 507.22 378.65L472.74 378.59C471.887 378.583 471.787 378.857 472.44 379.41ZM626.57 619.36C625.948 619.778 625.216 620.002 624.466 620.003C623.717 620.005 622.984 619.785 622.36 619.37C607.15 609.24 597.16 593.72 589.26 576.92C575.86 548.42 567.92 515.82 564.08 484.76C564.046 484.482 563.945 484.217 563.787 483.987C563.628 483.757 563.417 483.569 563.17 483.44C550.617 476.893 537.733 470.547 524.52 464.4C522.64 463.527 520.707 462.973 518.72 462.74C510.267 461.767 501.683 460.47 492.97 458.85C492.57 458.777 492.47 458.92 492.67 459.28L513.83 497.21C513.858 497.256 513.899 497.292 513.949 497.314C513.998 497.335 514.053 497.341 514.105 497.33C514.158 497.319 514.206 497.292 514.243 497.253C514.279 497.213 514.303 497.163 514.31 497.11C514.583 493.997 515.1 491.037 515.86 488.23C516.273 486.723 517.253 486.057 518.8 486.23C519.027 486.257 519.247 486.317 519.46 486.41C521.307 487.263 522.077 488.693 521.77 490.7C521.05 495.353 520.37 500.21 519.73 505.27C519.43 507.69 520.62 509.32 521.72 511.31C543.433 550.717 565.62 590.407 588.28 630.38C590.72 634.687 592.143 638.053 592.55 640.48C594.143 649.907 591.097 657.567 583.41 663.46C583.149 663.662 582.951 663.94 582.84 664.26C579.953 672.44 575.07 678.003 568.19 680.95C528.637 697.89 488.387 715.12 447.44 732.64C442.287 734.847 438.153 736.204 435.04 736.71C420.03 739.16 408.99 731.87 402.38 718.61C397.233 708.29 391.847 697.337 386.22 685.75C386.188 685.683 386.141 685.624 386.082 685.578C386.023 685.533 385.954 685.502 385.881 685.488C385.808 685.474 385.732 685.478 385.661 685.5C385.589 685.521 385.524 685.559 385.47 685.61C378.78 691.69 370.67 695.56 362.36 699.49C361.82 699.75 361.216 699.837 360.63 699.74C357.577 699.247 356.507 697.823 357.42 695.47C357.645 694.898 358.073 694.431 358.62 694.16C362.747 692.12 366.923 689.977 371.15 687.73C374.783 685.797 378.693 682.99 382.88 679.31C387.067 675.623 391.297 671.993 395.57 668.42C406.86 658.99 408.09 644.27 401.81 631.54C397.277 622.347 390.09 616.913 380.25 615.24C376.417 614.587 369.927 615.057 360.78 616.65C351.64 618.244 343.133 619.82 335.26 621.38C331.493 622.133 327.943 623.297 324.61 624.87C306.5 633.46 303.54 660.17 305.83 677.72C307.297 688.94 312.087 697.637 320.2 703.81C326.3 708.46 332.96 712.26 339.97 715.44C360.22 724.64 381.68 731.67 403.33 737.69C420.463 742.45 436.46 746.777 451.32 750.67C458.133 752.45 468.04 754.484 481.04 756.77C497.94 759.73 511.703 761.76 522.33 762.86C540.957 764.787 560.69 765.413 581.53 764.74C607.337 763.907 633.16 762.883 659 761.67C665.167 761.377 671.723 761.017 678.67 760.59C682.083 760.377 685.06 760.58 687.6 761.2C695.35 763.09 701.4 766.47 708 771.71C721.7 782.57 735.043 792.957 748.03 802.87C752.84 806.55 759.12 811.63 765.24 812.45C765.58 812.497 765.887 812.413 766.16 812.2C785.12 797.39 800.59 776.94 812.95 756.08C832.503 723.074 845.793 689.147 852.82 654.3C855.14 642.793 856.26 631.9 856.18 621.62C856.177 621.482 856.139 621.347 856.071 621.226C856.003 621.106 855.907 621.004 855.79 620.93C853.603 619.63 851.367 618.22 849.08 616.7C829.787 603.927 809.773 590.57 789.04 576.63C787.51 575.61 786.07 574.31 785.02 572.81C773.94 556.95 761.923 540.617 748.97 523.81C722.15 489 693.68 457.69 659.9 431.79C646.027 421.157 632.45 412.557 619.17 405.99C604.283 398.637 586.497 391.39 565.81 384.25C562.5 383.11 558.45 382.07 554.89 381.6C541.637 379.847 528.12 378.903 514.34 378.77C514 378.77 513.83 378.937 513.83 379.27C513.79 384.42 513.66 391.32 511.35 396.08C509.14 400.63 504.05 399.75 500.04 399.3C485.73 397.68 472.73 389.65 463.39 379.34C463.281 379.222 463.147 379.129 462.998 379.071C462.849 379.012 462.689 378.988 462.53 379C452.89 379.753 443.877 381.87 435.49 385.35C429.977 387.63 425.587 390.583 422.32 394.21C410.9 406.89 424.57 420.26 434.62 427.14C446.69 435.39 459.99 441.4 473.85 446.57C482.057 449.637 489.157 451.733 495.15 452.86C502.637 454.267 511.29 455.547 521.11 456.7C523.25 456.95 525.52 457.83 527.49 458.76C543 466.1 558.1 473.33 572.88 481.73C579.2 485.323 585.2 488.327 590.88 490.74C599.74 494.5 609.29 496.04 618.93 497.51C619.732 497.635 620.473 498.01 621.048 498.581C621.623 499.153 622.002 499.891 622.13 500.69C622.17 500.95 622.133 501.203 622.02 501.45C621.147 503.223 619.783 503.97 617.93 503.69C609.743 502.463 604.09 501.447 600.97 500.64C590.79 498.02 580.933 493.797 571.4 487.97C571.345 487.935 571.28 487.916 571.215 487.916C571.149 487.916 571.085 487.935 571.029 487.971C570.974 488.007 570.931 488.058 570.905 488.119C570.878 488.179 570.869 488.245 570.88 488.31C576.26 524.62 585.64 562.24 605.66 593.36C611.353 602.207 618.143 609.13 626.03 614.13C628.12 615.45 628.81 617.86 626.57 619.36ZM280.12 474.84C283.18 473.73 286.89 472.54 290.19 472.94C290.255 472.949 290.32 472.94 290.38 472.915C290.441 472.89 290.493 472.85 290.533 472.798C290.572 472.746 290.597 472.685 290.606 472.621C290.614 472.556 290.605 472.49 290.58 472.43L261.69 402.41C261.629 402.263 261.524 402.138 261.39 402.053C261.256 401.967 261.099 401.924 260.94 401.93C253.327 402.117 246.347 403.453 240 405.94C223.66 412.35 221.89 428.68 230.89 442.07C234.737 447.797 239.95 452.99 246.53 457.65C256.237 464.53 266.813 470.25 278.26 474.81C278.852 475.049 279.515 475.059 280.12 474.84ZM295.35 483.25C294.01 482.72 293.75 481.25 293.79 479.97C293.797 479.806 293.77 479.643 293.711 479.489C293.652 479.336 293.562 479.196 293.447 479.079C293.332 478.961 293.194 478.867 293.042 478.804C292.889 478.741 292.725 478.709 292.56 478.71C282.37 478.77 271.36 484.58 263.81 490.94C251.74 501.11 244.97 519.54 253.2 534.3C253.84 535.447 254.11 535.363 254.01 534.05C253.543 527.85 253.96 522.123 255.26 516.87C255.627 515.39 256.56 514.52 258.06 514.26C258.307 514.22 258.547 514.237 258.78 514.31C260.82 514.923 261.667 516.28 261.32 518.38C260.307 524.533 259.95 531.19 260.25 538.35C260.27 538.738 260.157 539.123 259.93 539.44C259.51 540.047 258.923 540.523 258.17 540.87C257.763 541.063 257.647 541.367 257.82 541.78C258.307 542.934 258.99 543.813 259.87 544.42C266.783 549.193 272.187 553.394 276.08 557.02C284.57 564.93 292.89 569.03 304.44 564.95C317.87 560.21 325.21 544.63 325.32 531.6C325.49 511.09 314.92 491.08 295.35 483.25ZM325.99 553.6C325.637 553.853 325.573 554.173 325.8 554.56C325.933 554.78 326.13 554.86 326.39 554.8C326.59 554.753 326.71 554.627 326.75 554.42C326.803 554.1 326.707 553.833 326.46 553.62C326.393 553.565 326.311 553.534 326.226 553.53C326.141 553.526 326.058 553.551 325.99 553.6ZM335.36 567.09C338.55 566.71 340.18 571.26 340.94 574C344.487 586.9 346.663 599.717 347.47 612.45C347.472 612.486 347.482 612.521 347.499 612.553C347.516 612.586 347.539 612.614 347.567 612.636C347.595 612.659 347.628 612.675 347.663 612.685C347.698 612.694 347.734 612.696 347.77 612.69L362.3 610.18C362.491 610.148 362.666 610.055 362.801 609.914C362.936 609.774 363.023 609.594 363.05 609.4C363.77 604.04 363.963 598.934 363.63 594.08C362.84 582.78 357.67 569.46 345.98 566.09C339.24 564.15 330.56 562.66 323.47 559.53C323.123 559.377 322.823 559.44 322.57 559.72C311.55 571.78 298.36 576.05 282.59 569.85C282.367 569.764 282.122 569.754 281.892 569.823C281.662 569.892 281.461 570.035 281.32 570.23C278.733 573.823 277.267 577.987 276.92 582.72C276.23 592.3 277.24 603.73 281.64 612.67C285.05 619.61 289.87 625.31 297.78 626.74C300.44 627.22 303.173 627.657 305.98 628.05C308.07 628.35 310.44 627.41 311.97 626.01C317.397 621.043 323.803 617.66 331.19 615.86C332.003 615.667 332.023 615.403 331.25 615.07C320.49 610.45 317.07 597.91 319.75 586.82C321.53 579.46 326.223 573.08 333.83 567.68C334.283 567.359 334.809 567.156 335.36 567.09ZM341.46 609.6C340.127 597.98 337.943 586.23 334.91 574.35C334.896 574.292 334.866 574.238 334.824 574.195C334.782 574.152 334.73 574.12 334.672 574.104C334.614 574.088 334.552 574.087 334.494 574.102C334.436 574.117 334.383 574.148 334.34 574.19C328.31 580.03 323.58 588.74 324.99 597.33C326.31 605.297 331.713 610.157 341.2 611.91C341.613 611.99 341.787 611.82 341.72 611.4C341.613 610.78 341.527 610.18 341.46 609.6Z" fill="#0055CC"/>
<path d="M360.441 325.317L328.836 333.785C327.14 334.24 326.133 335.984 326.588 337.68L326.624 337.815C327.078 339.512 328.822 340.518 330.519 340.064L362.124 331.595C363.82 331.141 364.827 329.397 364.372 327.701L364.336 327.565C363.882 325.869 362.138 324.862 360.441 325.317Z" fill="#0055CC"/>
<path d="M537.275 387.35L536.68 387.175C535.07 386.701 533.38 387.622 532.906 389.233L528.767 403.296C528.293 404.907 529.214 406.597 530.825 407.071L531.419 407.246C533.03 407.72 534.72 406.799 535.194 405.188L539.333 391.124C539.807 389.514 538.886 387.824 537.275 387.35Z" fill="#0055CC"/>
<path d="M560.302 388.75L559.513 388.527C557.993 388.097 556.413 388.98 555.983 390.5L549.344 413.959C548.914 415.479 549.798 417.059 551.318 417.49L552.107 417.713C553.626 418.143 555.207 417.259 555.637 415.74L562.275 392.281C562.705 390.761 561.822 389.18 560.302 388.75Z" fill="#0055CC"/>
<path d="M459.61 480.73C440.51 465.13 415.26 462.51 394.39 475.94C392.63 477.073 391.133 476.79 389.9 475.09C389.78 474.923 389.667 474.753 389.56 474.58C388.74 473.24 388.927 472.06 390.12 471.04C392.46 469.027 395.17 467.357 398.25 466.03C429.84 452.42 461.89 465.89 479.73 493.97C480.677 495.457 480.51 496.81 479.23 498.03C478.61 498.623 477.79 498.953 476.77 499.02C476.247 499.05 475.725 498.939 475.26 498.698C474.795 498.457 474.405 498.095 474.13 497.65C469.87 490.797 465.03 485.157 459.61 480.73Z" fill="#0055CC"/>
<path d="M444.12 487.25C433.79 481.52 421.36 480.37 410.92 486.53C409.15 487.57 407.48 487.44 406.2 485.64C404.2 482.84 406.55 480.85 408.83 479.68C421.88 472.92 437.47 474.59 449.63 482.49C463.097 491.23 471.11 504.197 473.67 521.39C473.963 523.39 473.12 524.577 471.14 524.95L470.3 525.1C468.507 525.44 467.45 524.71 467.13 522.91C466.183 517.596 465.373 513.983 464.7 512.07C460.82 500.983 453.96 492.71 444.12 487.25Z" fill="#0055CC"/>
<path d="M401.31 537.42C408.48 548.98 421.8 557.32 435.51 557.94C447.14 558.46 457.51 552.33 462.83 542.32C464.55 539.07 465.42 535.38 466.68 531.93C467.34 530.13 468.523 529.663 470.23 530.53L470.94 530.9C472.686 531.786 473.296 533.173 472.77 535.06C468.35 550.9 458.81 561.99 442.11 564.4C423.07 567.14 403.28 554.96 394.41 538.96C386.25 524.25 386.82 506.51 395.79 492.51C396.212 491.849 396.873 491.377 397.635 491.191C398.396 491.005 399.2 491.119 399.88 491.51C401.96 492.69 402.47 494.53 401.21 496.53C393.24 509.23 393.39 524.66 401.31 537.42Z" fill="#0055CC"/>
<path d="M445.24 538.86C446.887 537.493 448.297 535.85 449.47 533.93C450.65 532.01 452.193 531.65 454.1 532.85L454.46 533.08C456.3 534.24 456.663 535.757 455.55 537.63C450.243 546.61 442.187 550.357 431.38 548.87C423.967 547.85 417.657 544.51 412.45 538.85C404.823 530.563 402.433 520.757 405.28 509.43C406.78 503.48 411.29 497.57 416.67 494.43C424.037 490.143 432.037 490.143 440.67 494.43C451.23 499.677 457.353 509.053 459.04 522.56C459.327 524.827 458.343 526.167 456.09 526.58C456.063 526.587 455.973 526.603 455.82 526.63C453.42 527.07 452.143 526.073 451.99 523.64C451.557 516.767 449.447 511.187 445.66 506.9C439.09 499.46 428.23 495.33 419.5 500.98C408.98 507.79 408.86 522.79 415.53 532.04C421.74 540.66 436.02 546.54 445.24 538.86Z" fill="#0055CC"/>
<path d="M438.291 532.415C435.406 533.975 431.932 534.166 428.634 532.945C425.337 531.724 422.486 529.191 420.709 525.904C419.829 524.276 419.239 522.513 418.972 520.713C418.706 518.914 418.769 517.114 419.157 515.417C419.545 513.72 420.251 512.158 421.234 510.821C422.218 509.485 423.459 508.399 424.888 507.626C427.774 506.066 431.248 505.875 434.545 507.096C437.843 508.317 440.694 510.85 442.471 514.137C443.351 515.765 443.941 517.529 444.207 519.328C444.474 521.127 444.411 522.927 444.023 524.624C443.635 526.322 442.929 527.883 441.945 529.22C440.962 530.556 439.72 531.642 438.291 532.415ZM434.522 526.108C435.197 525.783 435.787 525.301 436.26 524.689C436.733 524.076 437.078 523.346 437.278 522.539C437.477 521.732 437.525 520.865 437.42 519.986C437.315 519.108 437.059 518.235 436.666 517.419C435.872 515.77 434.57 514.449 433.046 513.746C431.522 513.044 429.9 513.018 428.538 513.673C427.863 513.998 427.273 514.48 426.8 515.092C426.327 515.705 425.981 516.435 425.782 517.242C425.583 518.049 425.535 518.916 425.64 519.795C425.745 520.674 426.001 521.546 426.394 522.362C427.187 524.011 428.49 525.332 430.014 526.035C431.538 526.737 433.16 526.764 434.522 526.108Z" fill="#0055CC"/>
<path d="M283.47 551.39C275.31 541.66 267.92 530.39 275.51 517.97C281.18 508.7 292.17 506.38 302.71 507.73C304.82 508 306.28 509.99 305.83 512.16C302.237 529.253 298.253 543.47 293.88 554.81C293.313 556.27 292.363 557.14 291.03 557.42C287.02 558.26 285.41 553.71 283.47 551.39ZM289.66 548.09C293.4 536.737 296.52 525.41 299.02 514.11C299.087 513.783 298.953 513.61 298.62 513.59C295.68 513.444 293.02 513.687 290.64 514.32C281.38 516.78 275.68 526.67 280.38 535.68C282.347 539.447 285.2 543.627 288.94 548.22C288.987 548.277 289.049 548.321 289.119 548.347C289.189 548.372 289.265 548.379 289.338 548.365C289.411 548.352 289.48 548.32 289.536 548.271C289.593 548.223 289.635 548.161 289.66 548.09Z" fill="#0055CC"/>
<path d="M486.16 546.16C481.58 559.17 473.2 570.02 461.15 575.88C441.27 585.56 418.54 581.95 401.27 568.35C387.876 557.797 379.136 544.067 375.05 527.16C374.563 525.133 375.25 523.653 377.11 522.72C377.41 522.573 377.73 522.504 378.07 522.51C379.877 522.544 380.987 523.44 381.4 525.2C387.41 550.93 407.68 572.82 434.85 574.72C450.68 575.83 466.05 568.25 474.31 555.23C476.19 552.264 478.223 548.237 480.41 543.15C481.043 541.69 482.133 541.147 483.68 541.52C483.86 541.567 484.04 541.62 484.22 541.68C484.631 541.821 485.007 542.049 485.327 542.351C485.648 542.652 485.905 543.022 486.086 543.439C486.266 543.855 486.366 544.31 486.378 544.777C486.391 545.244 486.317 545.714 486.16 546.16Z" fill="#0055CC"/>
<path d="M294.04 606.63C294.62 610.05 296.98 613.11 298.73 616.08C300.82 619.61 295.54 621.07 293.5 619.27C288.9 615.22 286.85 606.71 286.89 601.11C286.903 599.157 287.863 597.82 289.77 597.1C290.11 596.974 290.45 596.977 290.79 597.11C292.45 597.77 293.32 598.99 293.4 600.77C293.487 602.657 293.7 604.61 294.04 606.63Z" fill="#0055CC"/>
<path d="M368.8 658.64C363.32 653.78 361.003 647.71 361.85 640.43C362.843 631.877 367.373 625.85 375.44 622.35C378.34 621.09 380.49 623.15 381.62 625.52C386.767 636.287 388.963 648.024 388.21 660.73C387.98 664.55 385.47 665.84 382.05 664.88C375.983 663.174 371.567 661.094 368.8 658.64ZM382 659.02C382.098 659.048 382.201 659.053 382.301 659.035C382.401 659.017 382.496 658.977 382.577 658.917C382.658 658.856 382.725 658.779 382.77 658.689C382.816 658.599 382.84 658.501 382.84 658.4C382.993 648.06 380.887 638.034 376.52 628.32C376.48 628.229 376.42 628.148 376.344 628.083C376.268 628.019 376.178 627.973 376.081 627.949C375.985 627.925 375.884 627.923 375.787 627.944C375.689 627.965 375.598 628.008 375.52 628.07C362.19 638.67 366.08 654.5 382 659.02Z" fill="#0055CC"/>
<path d="M334.283 646.191L323.407 648.602C321.746 648.97 320.699 650.615 321.067 652.276L321.123 652.529C321.491 654.19 323.136 655.238 324.797 654.87L335.673 652.459C337.333 652.09 338.381 650.446 338.013 648.785L337.957 648.531C337.589 646.87 335.944 645.823 334.283 646.191Z" fill="#0055CC"/>
</g>
<defs>
<clipPath id="clip0_93_6227">
<rect width="1024" height="1024" fill="none"/>
</clipPath>
</defs>
</svg>
