<svg width="1024" height="640" viewBox="0 166 1024 640" fill="none" xmlns="http://www.w3.org/2000/svg">
<g clip-path="url(#clip0_93_1359)">
<rect width="1024" height="1024" fill="none"/>
<path d="M535.32 176.34C537.69 174.59 539.74 177.24 540.89 179.07C547.11 189.36 553.54 199.55 560.75 209.19C573.15 225.87 585.42 242.67 596.91 259.99C604.09 270.94 611.92 281.45 619.1 292.39C628.72 287.13 638.02 281.25 647.17 275.19C654.21 270.58 659.98 263.49 668.55 261.66C676.42 260 685.96 262.43 690.39 269.6C695.65 278.39 693.25 290.99 685.01 297.13C677.3 303.17 669.01 308.39 660.94 313.91C654.65 318.24 648.66 322.98 642.18 327.01C651.83 340.51 662.12 353.58 671.27 367.43C669.08 367.31 666.88 367.46 664.7 367.69C655.83 355.12 646.72 342.7 638.6 329.62C631.01 334.65 624.06 340.59 616.28 345.33C622.52 354.02 628.57 362.84 634.3 371.87C633.65 372.16 633.01 372.45 632.38 372.74C631.89 374.13 631.4 375.52 630.93 376.92C624.62 367.04 617.76 357.52 610.73 348.14C602.61 353.84 594.6 359.7 586.77 365.8C581.65 369.81 575.63 373.31 568.95 373.44C563.41 373.4 557.43 371.59 553.93 367.04C549.13 360.96 546.1 352.9 547.59 345.12C548.52 340.32 552.31 336.78 556.29 334.28C566.7 327.2 577.16 320.19 587.92 313.65C581.17 304.26 573.46 295.61 566.79 286.15C547.27 256.91 527.44 227.84 509.34 197.68C507.32 195.08 508.82 191.73 511.73 190.75C520.06 186.74 527.48 181.18 535.32 176.34ZM515.08 195.73C520.17 203.48 524.45 211.72 529.56 219.46C541.34 237.92 553.63 256.05 565.63 274.38C572.68 285.32 580.74 295.55 589.05 305.56C591.72 303.92 594.62 302.35 597.88 303.08C598.02 303.9 598.32 305.53 598.47 306.34C603.83 302.67 609.36 299.23 614.64 295.44C610.06 289.34 605.56 283.18 601.08 277.01C589.6 259.91 576.84 243.71 565.46 226.54C558.61 216.22 551.31 206.21 544.54 195.84C542.53 197.18 540.43 198.48 537.91 198.27C536.68 195.14 538.66 192.33 541.73 191.44C541.06 190.13 540.22 188.93 539.04 188.05C537.89 189.01 536.79 190.01 535.73 191.06C534.06 191.02 531.64 191.3 531.73 188.92C532.68 185.98 536.37 185.41 537.45 182.57C536.88 182.67 535.75 182.88 535.18 182.98C528.21 186.8 522.3 192.3 515.08 195.73ZM669.2 266.45C669.2 266.72 669.2 267.25 669.2 267.52C671.74 269.43 674.52 271.05 676.84 273.26C681.53 277.47 684.53 283.18 686.57 289.06C688.98 283.98 690.56 277.58 687.34 272.49C683.94 266.23 675.63 264.2 669.2 266.45ZM661.12 270.14C657.97 272.87 655.03 275.91 651.37 278C652.62 280.16 653.95 282.28 655.37 284.35C654.44 285.06 653.47 286.85 652.08 286.03C650.51 284.41 649.57 282.3 647.97 280.73C644.98 281.88 642.61 284.16 639.86 285.75C640.92 287.53 642.09 289.27 642.85 291.21C642.74 292.75 641.19 293.18 639.91 293.19C638.49 291.53 637.36 289.66 636.08 287.9C633.05 289.94 629.79 291.6 626.62 293.42C627.81 295.28 629.13 297.08 630.07 299.1C630.12 300.53 628.38 301.8 627.12 300.92C625.44 299.48 624.38 297.47 623.04 295.74C617.71 298.77 612.75 302.4 607.46 305.47C609.28 307.41 611.25 309.39 612.09 312C612.28 313.67 611.54 314.53 609.85 314.58C607.65 312.74 606.56 309.91 604.77 307.71C601.76 309.98 598.38 311.67 595.3 313.83C596.02 316.33 600.23 319.3 597.73 321.75C594.6 322.9 593.52 318.59 591.63 316.96C588.4 318.85 585.13 320.69 581.68 322.14C583.47 324.45 585.38 326.77 586.48 329.51C587.3 331.28 584.91 332.92 583.42 331.78C581.4 329.75 580.13 327.15 578.76 324.69C575.46 326.67 572.3 328.85 568.98 330.8C570.31 332.86 573.99 335.32 571.81 337.88C568.82 338.88 567.46 335.19 566.22 333.22C562.77 335.3 559.59 337.79 556.23 339.99C556.79 341.79 557.41 343.59 558.06 345.37C560.44 343.19 564.84 338.96 567.62 342.75C564.92 345.59 561.69 347.83 558.55 350.15C559.84 358.07 565.54 366.11 574.02 367.02C578.04 366.45 581.07 363.44 584.26 361.19C592.54 355.14 600.7 348.89 609.31 343.29C625.1 332.93 640.54 322.05 655.97 311.16C664.72 305.02 674.07 299.77 682.45 293.11C681.86 284.62 676.07 277.17 668.61 273.41C666.16 272.32 663.82 270.08 661.12 270.14ZM593.99 307.21C597.32 307.31 592.47 310.21 593.99 307.21ZM551.42 346C550.87 355.05 554.65 366.1 564.26 368.79C560.31 364.5 556.86 359.67 554.85 354.15C553.62 351.47 553.44 348.26 551.42 346Z" fill="#000000"/>
<path d="M551.18 227.13C556.1 225.77 562.34 228.78 563.77 233.81C563.11 237.9 558.35 239.15 554.86 239.5C550.98 240.2 546.9 237.01 547.01 233.01C546.69 230.34 548.77 227.97 551.18 227.13ZM551.89 231.75C551.96 232.57 552.1 234.21 552.18 235.03C554.1 235.08 556.13 235.16 557.8 234.02C557.55 233.5 557.04 232.45 556.79 231.93C555.17 231.55 553.51 231.44 551.89 231.75Z" fill="#000000"/>
<path d="M565.38 253.43C570.24 251.23 576.69 254.25 578.93 258.89C578.98 265.97 567.93 268.39 563.93 263.04C561.11 260.27 561.46 255.01 565.38 253.43ZM566.64 259.18C567.9 261.22 570.54 262.31 572.53 260.49C573.61 256.76 567.92 256.1 566.64 259.18Z" fill="#000000"/>
<path d="M581.36 276.6C586.47 275.03 593.67 278.48 594.64 284C594.04 289.28 587.4 291.3 583.01 289.58C580.01 288.22 577.36 285.42 577.13 282.02C577.31 279.59 579.1 277.45 581.36 276.6ZM583.31 281.33C580.65 285 588.2 286.76 588.86 283.18C588.1 280.94 585.24 280.44 583.31 281.33Z" fill="#000000"/>
<path d="M526.96 209.77C528.25 206.93 530.58 204.02 533.98 203.97C537.82 203.92 541.88 204.78 545.08 207C547.14 208.49 547.18 211.62 545.41 213.36C542.88 215.74 539.28 216.55 535.93 216.91C531.65 217 528.43 213.47 526.96 209.77ZM532.46 209.29C531.15 210.9 533.08 212.01 534.01 213.11C536.51 213.24 538.98 212.87 540.75 210.92C539 208.39 534.95 207.11 532.46 209.29Z" fill="#000000"/>
<path d="M793.17 224.25C811.11 219.5 830.63 220.22 847.9 227.2C867.56 234.75 883.79 250.43 892.44 269.59C906.45 299.69 901 337.96 878.31 362.39C862 380.97 837.26 391.29 812.64 390.84C810.09 409.92 807.75 429.04 805.04 448.1C803.31 463.41 800.5 478.6 798.96 493.93C804.92 486.45 810.28 478.52 816.14 470.97C818.15 468.09 820.73 465.48 821.89 462.1C822.81 456.41 822.9 450.58 824.42 444.99C829.56 421.75 852.49 404.71 875.99 404.81C886.06 405.15 894.05 412.59 899.39 420.51C905.23 429.33 904.57 440.65 902.46 450.56C899.4 464.77 889.18 476.09 878.05 484.82C872.74 488.86 866.94 492.28 860.74 494.76C857.67 496.07 854.33 497.29 852.3 500.11C847.26 506.68 841.99 513.07 837.19 519.81C842.82 520.06 848.47 519.61 854.1 519.95C857.62 520.74 859.52 524.59 859.3 527.99C859.73 602.67 858.84 677.35 859.23 752.03C859.11 768.08 859.91 784.17 858.8 800.2C869.87 799.97 880.94 799.87 892.02 799.91C913.05 800.1 934.05 798.56 955.07 798.57C957.67 798.14 957.29 803.04 955.14 803.04C932.43 802.15 909.76 804.53 887.06 804.24C860.7 804.71 834.33 804.43 807.97 805.04C775.99 806.17 743.99 806.93 711.99 807.32C674.96 807.52 637.93 806.92 600.91 806.81C570.97 805.3 540.9 804.01 510.97 806.54C485.39 809.16 459.68 804.76 434.09 807.14C417.11 808.13 400.09 808.48 383.08 808.33C374.67 808.34 366.41 806.46 358.02 806.05C339.02 804.99 320.03 806.62 301.03 806.84C278.33 807.93 255.61 806.7 232.9 806.4C206.58 806.03 180.25 803.97 153.93 805.34C143.95 805.52 133.97 806.75 123.99 805.83C109.03 804.61 94.0099 805.52 79.0299 804.67C79.0899 803.47 78.2199 801.06 80.0799 800.94C84.9899 800.18 89.9899 801.31 94.9499 801.06C105.29 800.74 115.64 800.84 125.96 801.67C141.24 802.13 156.51 800.78 171.78 800.43C173.06 798.79 172.43 796.01 172.72 793.94C172.6 706.62 172.65 619.29 172.46 531.97C172.63 528.02 171.91 523.9 173.2 520.1C174.6 516.62 178.6 515.77 181.96 515.93C197.28 515.85 212.61 515.42 227.92 515.82C218.08 497.02 208.81 477.9 200.88 458.21C197.42 449.27 194.11 440.23 191.83 430.92C190.71 428.53 193.02 427.05 194.57 425.74C192.27 419.57 189.89 413.35 186.6 407.63C178.9 405.03 169.68 404.54 163.97 398.07C159.55 393.4 154.49 388.92 152.17 382.75C148.68 373.56 149.02 363.33 151.23 353.88C154.26 341.61 163.64 330.58 176.05 327.21C189.39 323.07 205.78 329.43 211.62 342.41C215.7 351.45 213.58 361.58 214.58 371.13C216.26 385.61 223.88 398.33 229.16 411.66C231.25 411.88 233.26 412.73 234.39 414.61C242.13 425.32 245.57 438.32 249.28 450.81C255.12 472.33 260.13 494.07 265.22 515.78C272.07 515.85 278.92 515.74 285.76 515.84C285.36 490.88 284.06 465.95 283.64 440.99C283.19 434.27 283.75 426.91 280 420.98C276.54 416.21 270.44 414.69 266.21 410.8C253.15 399.8 247.79 381.52 250.25 364.91C251.2 355.98 255.21 347.03 262.74 341.78C271.48 335.32 282.71 334.93 293.03 333.23C295.29 332.57 296.84 334.89 296.88 336.89C297.5 343.61 297.29 350.38 297.84 357.11C297.78 358.63 298.42 360.67 296.78 361.58C292.52 364.65 287.75 367.38 284.89 371.96C280.88 378.69 281.3 388.29 287.12 393.89C294.28 401.21 306.47 400.87 314.87 395.96C320.79 392.26 324.62 385.75 325.81 378.95C326.95 372.15 324.36 364.35 318.26 360.69C316.63 359.33 313.94 358.44 313.77 356.01C313.37 350.66 313.46 345.26 314 339.92C314.25 337.83 315.33 334.73 317.99 335.08C326.57 335.69 335.22 337.04 343.12 340.61C338.25 330.18 335.9 318.54 336.46 307.04C336.37 304.55 338.24 301.73 341.02 302.3C353.07 304.1 365.06 306.37 377.09 308.34C379.63 308.83 383.05 309.05 383.82 312.1C386.15 318.53 388.76 325.32 394.31 329.71C407.13 340.52 429.25 333.71 435.27 318.46C439.26 309.05 440 297.46 434.66 288.42C431.68 283.2 425.77 280.46 419.99 279.8C411.24 278.9 402.27 281.96 395.63 287.66C393.04 289.74 391.01 292.4 388.44 294.48C386.4 296.23 382.81 295.6 381.99 292.88C376.45 281.22 371.59 269.26 366.6 257.37C365.49 254.4 363.73 250.28 366.76 247.83C372.77 242.73 380 239.11 387.44 236.6C390.19 235.39 393.17 236.89 395.98 236.06C408.95 232.5 422.75 231.14 436.01 233.9C452.05 236.97 466.61 246.54 476.26 259.67C489.01 276.73 493.72 299.06 490.9 320C488.87 335.15 480.55 348.91 469.25 359.01C467.34 360.89 464.64 362.94 465.06 365.97C465.26 371.52 467.55 376.68 469.28 381.88C474.6 396.21 479.86 410.57 484.62 425.1C490.51 443.93 494.98 463.18 501.29 481.88C505.25 493.76 509.05 505.73 513.75 517.34C567.47 517.52 621.2 518.09 674.92 518.3C702.53 518.7 730.16 518.52 757.77 519.09C760.43 496.45 764.82 474.06 768.76 451.62C772.5 429.11 776.03 406.57 779.87 384.08C763.02 377.06 748.89 364.01 740.16 348.03C723.68 318.67 727.19 279.52 748.44 253.44C759.8 239.33 775.73 229.04 793.17 224.25ZM802.58 226.75C775.38 231.12 751.01 250.07 740.33 275.5C733.46 291.59 732.24 309.92 736.22 326.9C740.65 344.75 751.56 360.87 766.42 371.68C781.84 382.55 801.11 387.72 819.91 386.32C851.55 384.38 880.85 362.17 891.29 332.25C897.96 313.34 897.45 291.92 889.56 273.46C883 257.66 870.99 244.14 855.97 235.92C840.02 226.62 820.7 223.75 802.58 226.75ZM398.76 243.34C399.78 245.89 401.04 248.34 401.81 250.99C401.68 253.32 398.47 255.18 396.82 253.1C394.51 250.25 392.97 246.85 390.63 244.01C384.3 245.78 378.55 249.06 372.93 252.39C376.88 262.77 381.37 272.95 385.99 283.04C386.26 283.69 387.22 285.71 388.06 284.17C395.58 276.49 406.1 271.66 416.93 271.86C426.44 271.84 436.6 276 441.42 284.58C447.08 294.61 447.19 307.02 443.83 317.83C441.13 326.92 434.61 334.89 425.98 338.92C417.38 342.95 407.15 344.08 398.13 340.79C390.55 338.1 384.55 332.05 380.86 325.02C379.33 322.21 378.4 319.11 376.73 316.39C365.78 314.22 354.74 312.48 343.75 310.51C344.08 316.61 344.82 322.73 346.65 328.58C351.45 344.87 363.02 358.73 377.31 367.66C389.34 375.29 404.11 377.02 418.04 375.78C420.58 375.31 423.08 376.5 424.29 378.79C428.86 386.77 431.81 395.53 435.49 403.93C445.68 401.25 456.01 398.4 464.99 392.7C462.4 383.52 457.52 374.76 457.56 365.02C457.52 359.35 461.92 355.35 465.73 351.79C475.8 342.12 482.76 329.02 483.75 314.98C481.74 314.8 479.57 315.19 477.7 314.29C476.05 313.89 475.52 311.24 477.01 310.39C479.25 309.36 481.76 309.3 484.17 309.05C484.17 296.45 481.34 283.77 475.36 272.64C469.55 261.62 460.45 252.3 449.26 246.73C433.8 238.63 415.26 238.69 398.76 243.34ZM175.9 332.57C167.35 335.03 160.55 341.69 156.4 349.4C152.15 358.27 152.45 368.75 154.93 378.09C156.37 383.89 160.75 388.12 164.54 392.47C166.9 395.09 169.54 397.6 172.81 399.03C177.37 400.89 182.3 401.46 186.99 402.85C189.32 403.3 190.2 405.71 191.26 407.53C193.87 412.71 196.51 417.9 198.54 423.35C206.84 418.99 215.45 415.15 224.61 412.99C219.72 400.15 212.44 387.91 211.06 373.98C209.99 366.8 212.31 359.48 210.5 352.37C208.59 344.59 203.54 337.37 196.29 333.75C189.98 330.72 182.54 330.44 175.9 332.57ZM264.5 348.62C257.02 355.05 255.64 365.65 255.82 374.95C256.5 388.11 262.7 401.83 274.36 408.71C278.47 411.42 283.67 413.32 285.84 418.11C289.79 426.71 289.74 436.39 290.1 445.66C299.51 442.69 309.51 443.91 319.05 445.51C318.71 437.29 319.07 428.72 322.45 421.08C324.08 417.35 327.62 415.1 330.72 412.7C342 404.47 350.17 392.1 353.36 378.51C355.26 369.16 354.12 358.05 346.79 351.21C339.5 344.32 329.25 342.04 319.55 341.23C319.39 345.2 318.84 349.27 319.7 353.19C322.35 355.91 325.93 357.71 328 361.02C335.82 372.3 332.69 388.78 322.9 397.89C312.21 408.43 292.46 409.37 282.18 397.8C274.75 390.11 274.64 377.62 279.73 368.65C282.41 363.76 287.37 360.94 291.69 357.72C291.82 351.73 291.55 345.72 291.39 339.73C282.09 341.13 271.8 341.95 264.5 348.62ZM358.79 382.74C355.14 396.76 346.31 409.31 334.55 417.72C331.13 420.2 327.57 423.13 326.64 427.49C324.35 436.79 325.81 446.47 325.2 455.93C324.11 475.99 325.22 496.06 325.6 516.13C372.33 516.4 419.05 516.61 465.78 516.84C458.97 497.39 453.09 477.63 446.58 458.07C439.11 436.53 431.81 414.91 423.08 393.84C421.54 390.35 420.25 386.68 417.99 383.59C410.26 383.75 402.49 383.82 394.85 382.46C381.29 380.4 368.89 373.09 359.49 363.26C361.16 369.66 360.39 376.4 358.79 382.74ZM784.21 385.83C783.43 389.75 782.51 393.63 781.91 397.58C790.24 398.52 798.44 400.34 806.71 401.67C807.15 398.03 807.6 394.39 808.1 390.76C799.95 390.2 791.99 388.22 784.21 385.83ZM781.34 401.99C780.57 406.67 779.66 411.32 778.89 416C787.33 417.44 795.84 418.44 804.27 419.94C805.09 415.37 805.71 410.77 805.98 406.15C797.79 404.63 789.59 403.13 781.34 401.99ZM853.72 416.82C841.46 423.02 832.31 434.99 829.72 448.5C828.4 453.52 828.79 458.76 827.8 463.82C826.49 467.75 823.45 470.77 821.11 474.1C809.66 489.16 798.39 504.36 786.83 519.35C800.6 519.55 814.37 519.63 828.15 519.71C829.49 520.03 830.19 518.77 830.9 517.92C836.5 510.53 842.18 503.19 847.91 495.9C851.62 490.59 858.49 489.8 863.75 486.7C878.43 478.75 892.08 466.28 896.39 449.61C898.46 440.93 899.29 430.8 893.81 423.16C889.59 417.18 883.7 411.23 875.96 410.78C868.15 410.5 860.58 413.33 853.72 416.82ZM778.17 420.69C777.36 425.92 776.47 431.14 775.57 436.36C784.23 437.78 792.95 438.8 801.66 439.87C802.49 434.67 803.32 429.45 803.65 424.2C795.22 422.66 786.71 421.45 778.17 420.69ZM775.03 441.15C774 446.73 773.11 452.35 772.24 457.97C781.05 459.54 789.91 460.98 798.83 461.73C799.53 455.92 800.5 450.15 801.01 444.32C792.37 443.12 783.72 441.85 775.03 441.15ZM771.27 462.63C770.5 467.83 769.54 473 768.57 478.17C777.68 479.83 786.85 481.5 796.11 481.97C796.89 476.77 797.73 471.57 798.02 466.33C789.11 465.02 780.21 463.63 771.27 462.63ZM767.84 482.97C766.86 487.63 766.14 492.34 765.2 497.02C774.4 499.14 783.66 501.36 793.07 502.28C794.11 497.23 794.7 492.11 795.39 487.01C786.24 485.47 777.03 484.23 767.84 482.97ZM761.98 519.16C767.94 518.96 773.93 519.47 779.87 519.17C783.39 515.23 786.43 510.89 789.55 506.64C781.23 505 772.92 503.29 764.58 501.75C763.56 507.53 762.66 513.33 761.98 519.16ZM176.66 525.03C176.54 550.41 176.5 575.8 176.6 601.18C186.73 600.58 196.85 599.59 207.01 599.87C222.73 599.76 238.39 601.37 254.09 601.66C254.31 591.65 254.11 581.61 254.76 571.63C254.83 569 257.58 567.64 259.92 568.04C277.96 568.29 296 568.46 314.03 568.07C316.17 567.78 318.72 568.6 319.33 570.92C319.72 573.29 319.22 575.69 318.98 578.06C317.94 585.55 318.9 593.1 319.35 600.59C372.24 601 425.14 599.79 478.03 598.94C503.68 598.94 529.33 598.31 554.99 598.18C607.09 597.98 659.19 596.65 711.29 596.37C711.51 589.3 711.01 582.19 711.65 575.14C711.81 572.29 713.54 569.32 716.49 568.69C725.61 567.14 734.84 569.13 744 568.65C753.29 567.13 762.72 565.18 772.18 566.23C775 566.58 777.03 569.21 777.11 571.99C777.63 579.96 777.36 587.96 777.45 595.95C803.27 596.23 829.1 596.3 854.93 596.46C854.9 573.95 854.85 551.45 854.68 528.95C854.75 527.21 854.42 524.96 852.14 525.38C834.45 525 816.75 524.81 799.05 524.73C746.7 524.23 694.37 523.61 642.02 523.36C590.36 522.85 538.7 522.85 487.03 522.27C433 521.84 378.97 521.82 324.93 521.41C276.94 521.3 228.94 520.42 180.96 521.2C178.6 520.86 176.3 522.47 176.66 525.03ZM259.28 573.13C258.69 575.38 258.91 577.72 258.86 580.02C258.78 594.33 258.97 608.64 258.26 622.93C257.85 635.14 256.98 647.37 257.53 659.59C260.42 659.65 263.32 659.63 266.22 659.52C269.85 652.23 276.41 645.29 285.03 644.93C292.74 645.39 299.63 651.29 301.54 658.75C306 658.87 310.47 658.77 314.94 658.74C315.5 639.48 315.91 620.15 314.14 600.94C313.63 591.73 312.5 582.44 314.08 573.26C298.06 573.24 282.03 573.6 266.02 572.82C263.77 572.82 261.47 572.54 259.28 573.13ZM751.12 573.64C740.58 576.37 729.73 572.94 719.1 574.47C717.19 574.4 717.29 576.59 717.23 577.94C717.22 591.62 717.44 605.32 716.91 619C716.77 629.65 716.13 640.31 716.82 650.95C720.45 651.28 724.17 651.34 727.76 650.56C729.57 648.18 729.44 644.8 731.22 642.34C735.61 635.66 745.76 632.54 752.64 637.25C756.82 639.95 759.06 644.66 760.46 649.28C764.43 649.78 768.44 649.53 772.42 649.25C772.44 642.82 772.14 636.4 772.08 629.97C771.32 610.69 772.1 591.37 771.21 572.1C764.49 571.52 757.64 571.85 751.12 573.64ZM777.42 601C777.51 616.34 777.39 631.7 778.14 647.03C778.27 649.82 778.14 653.74 774.89 654.73C770.66 655.57 766.3 655.22 762.02 655.29C759.86 655.11 756.91 655.56 755.71 653.28C753.68 649.67 752.66 645.31 749.21 642.68C745.87 639.92 740.92 641.46 737.89 643.96C733.96 646.84 735.71 653.71 731.05 655.8C725.56 656.38 719.86 656.82 714.43 655.68C711.01 654.82 710.74 650.82 710.75 647.93C710.56 632.43 711.19 616.94 711.29 601.44C687.88 601.05 664.46 601.77 641.04 601.85C613.39 602.37 585.74 602.37 558.09 602.71C506.38 603.19 454.67 604.16 402.97 605.12C375.24 605.38 347.51 605.21 319.78 605.2C320.91 623.5 320.19 641.84 319.33 660.14C319.56 662.48 316.9 663.07 315.08 662.88C309.49 662.69 303.83 663.35 298.29 662.63C296.12 660.52 295.76 657.2 293.81 654.9C290.19 649.98 282.51 648.96 277.73 652.77C273.87 655.43 272.1 659.93 269.45 663.61C264.39 663.86 259.09 664.28 254.13 663.02C252.85 659.13 253.15 655 253.12 650.98C253.17 635.96 254.01 620.96 254.14 605.95C243.43 605.74 232.75 604.82 222.05 604.44C206.86 604.17 191.58 603 176.47 605.21C176.49 664.79 176.36 724.37 176.42 783.95C176.4 789.5 176.5 795.08 175.76 800.6C198.85 800.99 221.93 802.06 245.02 802.05C273.01 801.99 301.01 802.9 328.99 801.81C342.33 801.45 355.75 801.14 368.99 803.16C379.58 804.82 390.33 804.35 401.01 804.17C413.99 803.94 426.97 803.47 439.95 802.82C453.98 801.92 468.01 803.34 482.04 803.62C503.55 804.82 524.95 801.47 546.45 801.7C546.75 798.89 545.8 795.21 548.3 793.21C551.78 792.14 555.45 792.69 559.03 792.72C562.12 792.8 564.93 791.1 568.02 791.17C570.87 791.28 573.69 791.7 576.52 792.02C573.75 785.58 574.79 776.94 581.02 772.91C587.67 768.14 598.1 773.03 599.22 781C599.98 784.62 598.18 787.98 596.27 790.9C607.17 791.04 618.06 790.22 628.97 790.22C639.98 790.22 650.99 790.36 662 790.16C665.73 790.19 669.76 787.39 673.26 789.66C675.96 793.39 674.27 798.45 674.97 802.76C681.81 803.54 688.72 802.88 695.59 803.19C696.77 786.45 698.92 769.78 699.68 753C699.82 743.34 699.9 733.67 700.51 724.02C701.7 703.05 700.75 682.05 700.67 661.06C700.44 657.71 703.66 654.83 706.97 655.42C723.19 658.01 739.68 656.37 756.03 656.87C772.71 656.72 789.37 658.07 806.06 657.92C813.36 658.35 820.65 657.75 827.96 657.86C830.37 657.7 832.75 659.54 832.71 662.08C833.33 674.48 833.28 686.91 833.49 699.33C833.72 732.88 834.3 766.43 834.32 799.98C841.14 799.56 847.97 798.78 854.74 797.79C855.34 792.21 854.97 786.59 855.07 780.99C854.42 721.08 854.82 661.17 854.84 601.25C829.04 600.76 803.22 600.62 777.42 601ZM705.19 660.4C704.73 664.59 704.82 668.82 704.86 673.04C704.79 674.42 705.16 675.69 705.98 676.84C709.08 672.07 707.31 665.95 707.72 660.59C707.09 660.54 705.82 660.45 705.19 660.4ZM712.52 661.11C712.83 664.78 712.8 668.47 712.84 672.15C713.27 672.24 714.12 672.41 714.55 672.49C715.03 668.62 715.02 664.72 714.87 660.84C714.28 660.91 713.11 661.05 712.52 661.11ZM748.33 661.13C748.87 671.08 748.26 681.1 749.06 691.03C750.32 693.1 751.6 690.26 751.64 689.17C751.89 680.4 752.05 671.62 752.06 662.85C752.45 660.62 749.57 661.51 748.33 661.13ZM720.19 661.79C718.93 672.17 718.89 682.66 719.3 693.09C718.93 694.39 720.64 696.53 721.84 694.96C722.32 691.32 722.02 687.64 722.12 683.99C722.07 676.5 723.07 669.05 722.84 661.57C722.18 661.62 720.85 661.73 720.19 661.79ZM737.67 661.56C737.97 665.92 737.45 670.36 738.45 674.66C739.32 674.58 741.07 674.41 741.94 674.33C742.23 670.14 742.16 665.94 742.1 661.75C740.61 661.69 739.14 661.63 737.67 661.56ZM757.91 661.48C757.79 665.61 757.67 669.75 757.9 673.88C759.56 673.88 761.23 673.87 762.91 673.84C763.18 669.82 763.19 665.79 762.95 661.77C761.26 661.69 759.58 661.59 757.91 661.48ZM769.67 661.62C769.63 665.69 769.49 669.78 770.08 673.82C771.31 673.85 772.56 673.88 773.82 673.9C773.66 670.02 773.47 666.14 773.41 662.26C772.15 662.03 770.91 661.82 769.67 661.62ZM778.65 661.91C778.69 671.59 778.24 681.32 779.11 690.97C781.8 692.28 781.87 688.84 781.92 687.07C781.96 678.66 782.04 670.25 782.13 661.84C781.26 661.86 779.52 661.89 778.65 661.91ZM804.75 662.15C804.64 672.76 804.74 683.38 804.93 693.98C804.61 696.47 808.17 694.63 807.76 693.01C808.4 682.8 807.81 672.57 807.85 662.36C807.08 662.31 805.53 662.2 804.75 662.15ZM812.25 662.48C811.68 666.26 811.79 670.11 811.61 673.93C812.56 673.81 813.52 673.69 814.49 673.58C814.72 669.97 814.79 666.36 814.7 662.76C813.87 662.66 813.06 662.56 812.25 662.48ZM727.65 662.26C727.27 666.34 726.68 670.44 727.15 674.55C728.35 674.55 729.56 674.55 730.78 674.55C731.32 670.43 731.15 666.27 731.11 662.14C730.25 662.17 728.51 662.23 727.65 662.26ZM787.66 662.19C787.62 665.87 787.61 669.54 787.6 673.23C788.41 673.18 790.02 673.08 790.83 673.04C791.01 669.49 791.13 665.95 790.89 662.41C790.08 662.36 788.47 662.25 787.66 662.19ZM796.88 662.39C797 665.84 796.62 669.32 797.18 672.75C797.92 672.83 799.4 672.99 800.14 673.07C800.15 669.5 800.15 665.94 800.12 662.38C799.31 662.38 797.69 662.39 796.88 662.39ZM820.87 662.47C820.86 666.49 820.83 670.51 820.97 674.53C822.33 674.51 823.7 674.47 825.08 674.41C825.18 670.48 825.27 666.55 825.39 662.63C823.88 662.58 822.37 662.52 820.87 662.47ZM799.78 775.06C799.06 781.02 799.73 787.14 800 793.14C799.61 794.95 802.3 795.57 802.55 793.66C802.97 788.15 802.64 782.6 802.3 777.1C802.25 775.84 801.51 773.32 799.78 775.06ZM732.96 778.93C733.27 785.66 733.07 792.45 734 799.14C734.53 799.16 735.6 799.21 736.13 799.24C736.62 794.86 736.21 790.45 736.22 786.06C736.07 782.47 736.52 778.75 735.22 775.32C733.65 775.9 732.64 777.21 732.96 778.93ZM764.54 776.45C763.51 781.82 764.33 787.48 764.12 792.96C764.03 794.41 764.21 798.18 766.58 796.66C767.44 789.86 767.33 782.86 766.86 776.02C766.37 775.97 765.38 775.87 764.89 775.83L764.54 776.45ZM700.96 779.81C700.84 785.35 700.62 791.02 701.68 796.48C701.97 798.17 704.35 798.05 704.02 796.16C704.23 790.16 704.23 784.11 703.49 778.15C702.45 778.4 700.99 778.33 700.96 779.81ZM628.19 794.62C627.93 797.37 627.91 800.14 628.11 802.9C629.94 802.93 631.77 802.93 633.61 802.89C633.71 800.15 633.79 797.42 633.76 794.7C631.9 794.66 630.04 794.63 628.19 794.62ZM665.68 794.66C665.08 797.34 665.21 800.12 665.16 802.85C666.71 802.87 668.27 802.88 669.84 802.89C669.9 799.76 669.94 796.62 669.5 793.52C668.2 793.83 666.93 794.21 665.68 794.66ZM565.17 795.86C565.21 797.93 565.26 800.01 565.3 802.1C566.72 802.03 568.14 801.96 569.57 801.88C569.62 799.74 569.7 797.61 569.73 795.49C568.2 795.59 566.69 795.71 565.17 795.86ZM582.86 795.68C582.63 797.89 582.51 800.11 582.59 802.35C584.6 802.46 586.62 802.52 588.65 802.58C588.53 800.11 588.28 797.66 587.86 795.25C586.18 795.35 584.52 795.49 582.86 795.68ZM591.88 795.12C591.6 797.7 591.49 800.3 591.61 802.9C593.61 802.9 595.63 802.92 597.64 802.91C597.55 800.47 597.63 798.03 597.88 795.62C595.88 795.4 593.88 795.24 591.88 795.12ZM601.13 795.24C600.94 797.85 600.92 800.47 601.08 803.1C603.19 803.17 605.31 803.22 607.44 803.27C607.63 800.57 607.68 797.86 607.63 795.17C605.46 795.15 603.29 795.19 601.13 795.24ZM611.22 794.85C611.08 797.65 611.1 800.47 611.24 803.28C612.91 803.27 614.58 803.25 616.26 803.22C616.37 800.44 616.33 797.67 616.18 794.9C614.52 794.88 612.87 794.86 611.22 794.85ZM619.88 794.55C619.88 797.42 619.91 800.3 620.11 803.19C621.66 803.12 623.22 803.05 624.79 802.97C624.83 800.37 625.02 797.76 624.66 795.19C623.19 794.49 621.45 794.77 619.88 794.55ZM637.12 802.97C639.45 803.03 641.79 802.99 644.13 802.86C644.26 800.15 644.24 797.43 644.11 794.73C641.98 794.7 639.85 794.75 637.73 794.86C637.19 797.52 637.05 800.25 637.12 802.97ZM647.72 794.81C647.67 797.52 647.72 800.24 647.91 802.96C649.21 802.93 650.52 802.9 651.83 802.87C651.95 800.2 651.98 797.55 651.89 794.9C650.49 794.86 649.1 794.83 647.72 794.81ZM655.86 794.79C655.84 797.46 655.87 800.13 656 802.81C657.71 802.87 659.43 802.92 661.16 802.98C661.35 800.21 661.54 797.45 661.72 794.69C659.75 794.68 657.81 794.73 655.86 794.79ZM550.63 798.47C550.64 799.65 549.85 802.14 551.91 801.84C555.15 802.4 554.17 798.45 554.29 796.5C553 796.8 550.58 796.51 550.63 798.47ZM558.32 796.53C558.24 798.31 558.24 800.1 558.27 801.9C559.25 801.84 560.24 801.79 561.23 801.74C561.15 799.96 561.07 798.19 560.92 796.42C560.27 796.45 558.97 796.51 558.32 796.53ZM573.3 795.76C573.35 797.9 573.46 800.05 573.62 802.2C575.52 802.21 577.42 802.23 579.34 802.23C579.31 800.05 579.26 797.88 579.19 795.72C577.22 795.74 575.25 795.75 573.3 795.76Z" fill="#000000"/>
<path d="M811.62 241.84C825.22 239.75 839.59 241.53 851.85 247.96C865.35 254.61 876.47 266.4 881.22 280.79C886.47 296.1 885.17 313.23 878.95 328.06C872.63 342.62 861.13 354.48 847.75 362.77C832.91 372.01 814.85 376.28 797.48 373.68C780.82 370.84 766.15 359.75 757.78 345.22C744.57 322.84 745.5 292.85 760.69 271.66C767.21 262.3 776.95 255.86 786.88 250.59C794.67 246.59 802.94 243.26 811.62 241.84Z" fill="#000000"/>
<path d="M181.99 351.92C186.99 349.46 187.78 342.49 192.77 340.06C195.41 340.53 195.93 343.9 196.94 345.98C198.5 350.64 200.46 355.18 201.75 359.93C202.87 362.29 200.11 363.82 198.12 363.78C194.22 363.67 190.31 363.38 186.42 363.9C186.66 367.03 188.03 369.89 188.64 372.94C189.28 375.85 185 378.27 182.92 376.01C180.95 373.69 179.84 370.78 178.16 368.26C174.87 370.55 172.18 373.54 169.28 376.29C168.17 377.42 165.79 377.56 165.08 375.9C163.43 372.66 162.67 369.04 161.23 365.7C160.23 362.8 158.54 360.02 158.45 356.89C162.07 352.61 168.33 355.16 173.14 354.15C172.71 351.77 171.66 349.43 171.85 346.99C172.88 345.03 175.48 343.6 177.63 344.49C179.88 346.41 179.41 350.46 181.99 351.92Z" fill="#000000"/>
<path d="M672.58 367.5C676.43 365.34 680.42 359.9 685.24 362.7C692.12 367.19 695.97 375.04 698.66 382.56C701.15 388.69 696.7 394.95 698.78 401.16C700.84 408.07 704.05 415.5 710.4 419.49C715.75 422.93 722.53 420.67 728.09 423.46C738.89 428.09 746.11 438.83 748.45 450.11C750.18 459.35 748.94 469.22 744.54 477.58C738.87 488.86 727.61 496.99 715.3 499.39C707.18 503.25 697.82 503.83 689.05 502.36C676.27 500 665.3 491.13 658.93 479.99C654.92 473.03 651.79 465.19 652.17 457.02C652.32 450.65 654.81 444.22 652.95 437.9C651.58 433.18 648.07 428.45 642.94 427.64C640.58 427.02 637.32 427.59 636.05 424.98C631.85 418.22 627.57 411.51 623.08 404.93C622.27 403.48 620.98 401.99 621.21 400.23C626.64 396.14 632.04 391.92 638.05 388.67C635.98 384.6 633.42 380.81 630.9 377.01L630.93 376.92C631.4 375.52 631.89 374.13 632.38 372.74C633.01 372.45 633.65 372.16 634.3 371.87C637.3 376.39 640.13 381.01 643.24 385.45C651.09 380.61 659.04 375.92 666.83 370.99C666.13 369.88 665.42 368.78 664.7 367.69C666.88 367.46 669.08 367.31 671.27 367.43C671.6 367.45 672.25 367.49 672.58 367.5ZM699.51 447.73C696.94 448.84 694.49 450.65 693.42 453.32C689.77 460.77 694.63 471.43 703.11 472.55C709.74 472.63 715.57 466.56 715.67 460.01C716.01 452.01 706.94 445.46 699.51 447.73Z" fill="#000000"/>
<path d="M268.11 578.19C268.96 578.14 270.66 578.03 271.51 577.97C271.86 580.49 271.83 583.03 271.75 585.58C281.81 586.59 291.96 584.34 301.97 585.88C304.91 588.31 304.67 592.59 305.04 596.04C305.13 604.54 305.64 613.2 303.78 621.56C303.15 624.37 299.81 623.38 297.87 622.84C289.47 620.4 280.67 621.63 272.08 621.31C269.53 621.48 267.72 619.3 267.5 616.94C265.74 604.04 268.14 591.1 268.11 578.19Z" fill="#000000"/>
<path d="M300.37 578.27C301.24 577.33 303.82 577.25 303.81 579C304.25 581.21 303.84 583.47 303.24 585.61C302.4 585.51 300.72 585.31 299.88 585.2C299.89 582.89 299.53 580.47 300.37 578.27Z" fill="#000000"/>
<path d="M724.45 578.48C725.56 578.38 726.67 578.32 727.81 578.33C728.87 580.78 728.23 583.58 728.26 586.18C738.58 587.39 748.95 586.66 759.3 586.34C759.68 583.35 757.52 576.19 762.95 577.75C763.55 583.83 763.03 589.94 763.26 596.03C763.26 603.01 763.69 610.02 763.29 616.99C763.16 619.61 759.9 619.23 758.07 619.09C750.37 618.16 742.58 618.31 734.88 619.25C731.73 619.46 728.32 620.23 725.37 618.74C724.08 616.03 724.51 612.91 724.36 610C724.44 599.5 724.31 588.99 724.45 578.48Z" fill="#000000"/>
<path d="M468.54 683.56C474.3 678.22 483.61 677.59 490.17 681.82C494.89 684.59 498.05 689.38 499.43 694.61C505.64 694.87 511.86 694.28 518.06 694.57C521.51 695.43 520.84 700.96 517.38 701.27C511.53 701.78 505.64 701.96 499.83 702.86C498.19 707.45 496.26 712.22 492.25 715.27C484.83 721.48 472.63 719.81 466.8 712.2C459.97 704.06 460.78 690.79 468.54 683.56Z" fill="#000000"/>
<path d="M491.4 773.42C497.7 770.75 504.62 777.6 502.65 783.97C501.29 790.15 492.51 792.29 488.32 787.68C483.84 783.63 485.79 775.36 491.4 773.42Z" fill="#000000"/>
<path d="M150.14 285.88C152.29 285.07 153.06 287.6 153.92 288.98C158.68 298.91 163.14 309.04 166.45 319.55C167.25 321.01 165.61 322.54 164.13 322.16C162.3 318.93 161.44 315.28 160.11 311.84C157.41 304.76 154.29 297.83 150.92 291.04C150.2 289.42 149.06 287.63 150.14 285.88Z" fill="#000000"/>
<path d="M199.37 297.53C200.48 295.87 203.49 298.24 201.97 299.88C199.74 303.99 197.75 308.27 195.18 312.18C194.49 313.9 191.28 313.1 192.22 311.18C194.27 306.49 196.46 301.75 199.37 297.53Z" fill="#000000"/>
<path d="M235.24 327.14C237.08 326.76 238.38 329.55 236.45 330.43C234.16 331.66 231.68 333.12 228.98 332.8C227.05 329.25 232.82 328.12 235.24 327.14Z" fill="#000000"/>
<path d="M112.31 343.22C113.5 342.13 115.1 343.25 116.38 343.55C122.32 345.89 128.51 347.77 134.14 350.8C135.81 351.31 135.84 354.36 133.85 354.41C129.13 353.07 124.82 350.58 120.14 349.1C117.28 347.9 113.88 347.41 111.7 345.06C111.85 344.6 112.16 343.68 112.31 343.22Z" fill="#000000"/>
<path d="M108.51 390.45C115.15 387.19 122.06 384.48 129.04 382.04C130.99 380.77 132.72 382.13 133.18 384.15C127.05 387.74 120.1 389.57 113.64 392.48C111.61 393.03 109.43 394.87 107.31 393.73C106.31 392.39 106.95 390.88 108.51 390.45Z" fill="#000000"/>
<path d="M148.23 404.39C149.03 402.71 151.41 404.47 151.24 405.89C150.09 409.66 148.23 413.17 146.92 416.88C145.86 419.27 145.27 422.1 143.09 423.77C139.57 423.51 141.52 420.07 142.21 418.1C144.24 413.55 145.46 408.56 148.23 404.39Z" fill="#000000"/>
<path d="M864.5 420.62C871.34 418.39 879.71 420.05 884.21 425.94C887.5 430.16 887.69 435.87 886.83 440.95C884.67 451.85 878.97 462.25 870.13 469.14C865.08 472.93 858.48 475.29 852.18 473.76C846.11 472.45 841.3 467.49 839.28 461.75C837.76 457.17 838.28 452.19 839.5 447.61C842.98 435.42 852.39 424.72 864.5 420.62ZM865.53 426.71C854.85 431.2 846.13 441.31 844.44 452.91C843.22 459.13 846.97 466 853.11 467.86C859.24 469.29 865.13 465.72 869.33 461.56C875.78 454.98 880.28 446.25 881.06 437C881.38 433.6 880.3 429.75 877.36 427.76C873.93 425.37 869.36 425.43 865.53 426.71Z" fill="#000000"/>
<path d="M932.41 452.55C933.91 450.7 937.28 452.7 936.32 454.92C933.06 466.1 925.72 475.54 918.06 484.08C914.85 487.34 911.83 490.95 907.82 493.25C906.55 494 905.3 493.96 904.05 493.13C902.77 489.95 906.44 488.16 908.26 486.24C917.62 477.36 925.65 466.84 930.95 455.03C931.33 454.14 931.82 453.31 932.41 452.55Z" fill="#000000"/>
<path d="M876.85 519.07C891.21 520.05 905.58 521.65 920 521.54C922.46 521.82 925.97 519.9 927.64 522.42C928.03 525.49 924.11 525.36 922.03 525.61C907.62 526.16 893.18 524.72 878.87 523.21C876.23 523.39 875.91 520.91 876.85 519.07Z" fill="#000000"/>
<path d="M449.95 636.71C501.97 635.88 553.99 636.17 606 635.19C615.33 635.03 624.69 634.21 634.02 634.87C638.26 635.12 641.02 639.18 641.59 643.08C642.09 647.7 641.74 652.36 641.76 657.01C641.38 658.67 642.33 659.92 643.32 661.16C643.85 662.66 642.36 663.4 641.4 664.12C641.29 664.85 641.07 666.3 640.97 667.03C641.52 667.25 642.62 667.7 643.17 667.93C643.22 668.72 643.32 670.31 643.37 671.11C642.7 671.37 641.37 671.87 640.7 672.13C640.71 673.44 640.73 674.76 640.78 676.09C642.41 676.77 644.97 676.71 645.23 678.97C644.59 681.08 642.07 681.06 640.4 681.9C640.43 682.69 640.51 684.28 640.54 685.07C642.22 686.3 644.81 687.06 644.39 689.7C643.15 690.12 641.94 690.58 640.74 691.09C639.63 692.74 641.8 694.04 642.67 695.16C642.03 696.4 641.31 697.61 640.75 698.9C640.45 711.97 640.32 725.05 640.1 738.12C643.84 738.03 647.57 737.62 651.31 737.77C651.95 742.33 651.89 747 651.55 751.58C650.76 754.92 646.71 754.14 644.19 754.01C627.13 753.49 610.06 753.3 593 753.3C576.29 753.31 559.62 754.33 542.93 754.88C542.61 761.94 542.85 769.01 542.53 776.07C543.07 778.45 545.16 780.38 544.96 782.97C545 788.22 538.84 792.91 534.02 789.87C528.92 787.14 529.43 779.83 533.19 776.16C533.11 769.18 533.09 762.2 532.83 755.23C507.21 755.08 481.59 753.95 455.98 755.17C449.57 754.88 442.45 756.56 436.56 753.41C435.31 750.24 436.06 746.72 436.09 743.42C430.8 743.38 425.19 744.17 420.17 742.12C416.99 740.83 416.15 737.12 416.29 734.04C416.72 703.7 416.75 673.35 416.93 643C417.04 640.65 417.18 637.25 420.01 636.57C429.97 637.3 439.97 636.69 449.95 636.71ZM617.06 640.31C618.47 640.21 619.71 639.54 620.78 638.66C619.34 638.73 618.06 639.29 617.06 640.31ZM623.02 639.1C623.68 640.21 624.05 641.57 625.18 642.35C627 641.83 626.43 639.42 626.9 638.04C625.59 638.35 624.3 638.69 623.02 639.1ZM579 639.58C526.28 639.5 473.6 641.66 420.88 641.6C420.66 645.48 420.58 649.37 420.64 653.27C425.62 651.95 430.85 652.44 435.95 652.19C465.32 651.45 494.71 651.47 524.08 650.58C550.05 649.72 576.02 651.68 601.99 651.2C605.24 651.1 608.55 651.01 611.66 649.95C611.81 649.56 612.1 648.79 612.24 648.41C610.39 647.5 607.36 646.6 607.89 643.92C608.04 640.91 612.09 642.79 614.06 642.13C613.96 641.41 613.77 639.95 613.68 639.23C602.12 639.3 590.56 639.65 579 639.58ZM630.8 639.02C631.19 641.76 630.56 644.43 629.88 647.07C631.33 649.91 634.87 650.88 637.46 652.47C638.11 647.22 637.22 639.99 630.8 639.02ZM617.02 644.47C615.45 654.71 617.4 664.98 618.37 675.17C619.45 683.95 620.51 693.64 626.83 700.4C627.21 701.9 628.67 700.47 628.2 699.69C627.72 696.73 626.57 693.94 626.09 690.99C623.55 677.75 625.7 664.2 624.12 650.89C623.26 647.72 620.4 644.74 617.02 644.47ZM518.51 654.89C489.07 656.8 459.55 656.49 430.06 656.83C426.73 656.72 423.72 658.28 420.55 659.01C420.65 682.99 420.27 706.98 420.78 730.96C420.94 733.27 420.62 735.91 422.14 737.88C423.6 739.47 425.96 739.5 427.97 739.55C448.65 739.61 469.3 738.05 489.98 738.84C515 740.03 540.02 738.16 565.04 738.36C588.72 738.57 612.37 736.83 636.04 737.2C636.32 725.93 636.53 714.65 636.62 703.38C634.19 704.37 631.66 705.25 629 704.94C628.44 707.04 627.08 708.3 624.81 708.21C624.4 706.41 624.07 704.59 623.78 702.79C621.12 702.06 618.07 705.93 616.18 702.93C616.39 700.5 619.44 698.24 618.18 695.87C616.5 696.32 614.86 697.52 613.06 696.98C610.27 694.07 614.94 692.01 616.41 689.84C614.6 689.18 612.26 689.45 610.9 687.89C610.74 685.36 613.36 683.64 613.21 681.05C611.18 681.05 609.15 681.1 607.13 681.04C607.13 680.35 607.13 678.98 607.13 678.3C609.11 676.94 612.63 676.33 611.97 673.22C610.28 673.18 608.61 673.15 606.93 673.12C606.46 672.1 606.2 671.04 606.14 669.95C607.8 668.17 611.16 667.96 611.3 665C609.15 664.69 606.64 664.76 605.03 663.08C604.29 661.26 606.24 660.19 607.26 659.09C608.04 659.18 609.6 659.36 610.37 659.45C610.56 656.42 607.69 654.98 605.05 655.1C576.2 656.06 547.35 653.16 518.51 654.89ZM636.4 655.53C635.17 656.36 635.7 658.57 637.19 658.73C639.32 658.61 638.41 654.32 636.4 655.53ZM629.23 655.13C628.07 669.9 628.69 684.98 632.4 699.38C633.07 698.05 633.62 696.63 633.63 695.13C634.02 688.39 633.7 681.63 633.2 674.91C632.95 668.18 632.05 661.3 629.23 655.13ZM637.07 664.17C640.39 664.42 635.42 667.09 637.07 664.17ZM628.42 742.44C628.01 744.37 627.86 746.35 627.87 748.34C628.41 749.58 629.87 749.03 630.91 749.25C636.22 749.35 641.53 749.55 646.85 749.74C646.83 747.35 646.8 744.96 646.74 742.58C640.63 742.52 634.52 742.05 628.42 742.44ZM441.43 744.67C440.74 746.5 440.44 748.43 440.31 750.38C447.21 750.81 454.13 750.37 461.03 750.28C482.35 749.75 503.66 750.46 524.98 750.53C557.88 750.2 590.76 747.67 623.67 748.8C623.9 746.72 624.13 744.65 624.35 742.59C593.58 742.84 562.79 742.21 532.02 742.84C503.66 744.29 475.23 741.42 446.89 743.76C445.05 743.97 443.24 744.36 441.43 744.67ZM536.73 754.78C536.73 761.65 536.73 768.57 537.35 775.41C537.68 775.57 538.33 775.88 538.66 776.03C539.06 769.16 539.03 762.25 538.82 755.38C538.3 755.23 537.25 754.93 536.73 754.78Z" fill="#000000"/>
<path d="M213.07 720.02C214.06 710.99 214.08 701.78 215.82 692.9C216.48 692.89 217.8 692.89 218.46 692.88C218.95 696.59 218.27 700.3 218.05 704.01C217.4 710.46 217.48 717.03 215.97 723.37C214.09 723.17 212.43 722.17 213.07 720.02Z" fill="#000000"/>
<path d="M232.36 707.94C233.5 707.84 234.6 707.98 235.68 708.35C235.59 711.32 234.18 714.05 233.89 717C232.39 727.75 232.27 738.63 231.02 749.41C230.24 749.5 228.68 749.69 227.9 749.79C227.8 743.19 228.57 736.63 228.98 730.06C229.56 722.63 229.89 715.05 232.36 707.94Z" fill="#000000"/>
<path d="M253.27 716.5C254.08 715.29 256.45 716.55 256.05 717.95C256.04 727.02 256.16 736.11 255.76 745.18C255.78 746.81 254.43 747.32 253.03 746.84C252.12 745.78 252.34 744.32 252.29 743.06C252.4 735.7 252.4 728.35 252.53 721C252.65 719.48 252.5 717.86 253.27 716.5Z" fill="#000000"/>
<path d="M270.21 753.67C270.03 746.02 270.2 738.36 270.81 730.74C271.62 730.73 273.24 730.7 274.05 730.69C273.91 738.45 274.39 746.33 273.03 754C272.32 753.91 270.91 753.75 270.21 753.67Z" fill="#000000"/>
</g>
<defs>
<clipPath id="clip0_93_1359">
<rect width="1024" height="1024" fill="none"/>
</clipPath>
</defs>
</svg>
