<svg width="1024" height="674" viewBox="0 227 1024 674" fill="none" xmlns="http://www.w3.org/2000/svg">
<g clip-path="url(#clip0_93_2556)">
<rect width="1024" height="1024" fill="none"/>
<path d="M1024 775.45V779.44L959.97 779.6L731.19 779.46C730.817 779.46 730.63 779.647 730.63 780.02L730.66 804.57C730.661 804.642 730.677 804.712 730.707 804.776C730.737 804.841 730.78 804.898 730.834 804.944C730.888 804.991 730.951 805.025 731.02 805.045C731.088 805.065 731.16 805.07 731.23 805.06C737.79 804.154 744.683 803.087 751.91 801.86C762.937 799.98 773.233 795.707 782.8 789.04C783.447 788.587 784.043 788.644 784.59 789.21L784.92 789.56C785.82 790.5 785.74 791.344 784.68 792.09C768.93 803.26 749.96 806.35 731.06 808.37C730.94 808.383 730.829 808.439 730.749 808.528C730.67 808.617 730.627 808.732 730.63 808.85C730.73 812.837 730.733 816.684 730.64 820.39C730.33 832.6 712.36 832.78 712.54 820.5C712.587 817.134 712.627 813.93 712.66 810.89C712.667 810.444 712.45 810.25 712.01 810.31C695.13 812.61 678.82 812.95 663.08 811.33C647.74 809.76 632.79 805.1 617.87 800.85C611.53 799.037 605.243 797.82 599.01 797.2C598.961 797.195 598.911 797.2 598.864 797.215C598.817 797.23 598.773 797.255 598.736 797.288C598.699 797.321 598.67 797.361 598.65 797.406C598.63 797.452 598.62 797.501 598.62 797.55C598.587 804.064 598.557 811.284 598.53 819.21C598.51 824.15 596.66 828.51 591.36 829.42C587.287 830.114 583.99 829.02 581.47 826.14C581.403 826.064 581.321 826.002 581.23 825.959C581.138 825.916 581.039 825.892 580.938 825.889C580.838 825.887 580.738 825.905 580.645 825.943C580.552 825.981 580.469 826.038 580.4 826.11C577.24 829.31 573.47 830.247 569.09 828.92C562.91 827.04 563.67 821.71 563.73 816.72C563.803 810.92 563.883 805.1 563.97 799.26C563.977 798.74 563.74 798.58 563.26 798.78L555.28 802.11C555.096 802.187 554.896 802.215 554.698 802.192C554.5 802.169 554.312 802.096 554.15 801.98C553.423 801.447 553.27 800.677 553.69 799.67C553.8 799.409 553.963 799.173 554.168 798.978C554.373 798.784 554.615 798.635 554.88 798.54L563.05 795.61C563.299 795.519 563.515 795.353 563.669 795.136C563.822 794.918 563.907 794.658 563.91 794.39L564.04 779.95C564.041 779.871 564.027 779.793 563.998 779.719C563.969 779.646 563.925 779.579 563.87 779.523C563.815 779.467 563.749 779.423 563.677 779.393C563.605 779.364 563.528 779.349 563.45 779.35L551.74 779.39C551.676 779.39 551.612 779.403 551.553 779.429C551.494 779.455 551.441 779.493 551.397 779.541C551.353 779.589 551.319 779.645 551.297 779.707C551.275 779.769 551.266 779.835 551.27 779.9C551.443 782.474 551.443 785.01 551.27 787.51C550.46 798.99 533.04 799.76 533.34 787.31C533.4 784.784 533.417 782.334 533.39 779.96C533.387 779.808 533.325 779.663 533.217 779.557C533.108 779.45 532.962 779.39 532.81 779.39C531.05 779.41 529.28 779.424 527.5 779.43C505.013 779.53 478.853 779.52 449.02 779.4C448.887 779.4 448.76 779.453 448.666 779.547C448.573 779.641 448.52 779.768 448.52 779.9V799.5C448.519 799.584 448.539 799.667 448.578 799.742C448.617 799.816 448.673 799.88 448.743 799.929C448.813 799.977 448.894 800.008 448.979 800.018C449.063 800.029 449.15 800.019 449.23 799.99C454.083 798.15 459.103 796.43 464.29 794.83C476.93 790.91 484.56 796.6 494.99 802.16C498.04 803.78 501.23 804.82 504.41 806.07C504.79 806.219 505.097 806.501 505.27 806.86C505.543 807.427 505.59 807.95 505.41 808.43C505.288 808.758 505.052 809.03 504.745 809.197C504.438 809.365 504.081 809.415 503.74 809.34C501.54 808.867 499.51 808.17 497.65 807.25C492.85 804.857 488.067 802.367 483.3 799.78C477.573 796.667 471.807 796.017 466 797.83C460.613 799.51 454.977 801.404 449.09 803.51C448.723 803.644 448.543 803.907 448.55 804.3C448.603 809.007 448.64 813.5 448.66 817.78C448.69 823.84 447 829.34 440.04 829.56C435.967 829.687 433.12 828.26 431.5 825.28C430.747 823.887 430.377 821.644 430.39 818.55C430.463 805.177 430.62 792.314 430.86 779.96C430.861 779.906 430.852 779.851 430.832 779.8C430.812 779.75 430.782 779.703 430.743 779.664C430.705 779.625 430.66 779.594 430.609 779.573C430.559 779.551 430.505 779.54 430.45 779.54L422.57 779.45C422.522 779.449 422.474 779.457 422.429 779.475C422.384 779.492 422.343 779.519 422.309 779.552C422.274 779.586 422.247 779.626 422.228 779.67C422.21 779.715 422.2 779.762 422.2 779.81C422.193 793.33 422.177 806.667 422.15 819.82C422.14 826.57 417.39 830.4 410.85 829.22C401.73 827.58 404.09 817.11 404.08 810.22C404.08 809.787 403.87 809.6 403.45 809.66C399.077 810.22 394.557 810.434 389.89 810.3C389.103 810.274 388.747 809.87 388.82 809.09L388.9 808.18C388.929 807.875 389.07 807.591 389.295 807.383C389.52 807.175 389.813 807.056 390.12 807.05L403 806.83C403.283 806.825 403.553 806.709 403.751 806.507C403.949 806.305 404.06 806.033 404.06 805.75L404.11 779.95C404.11 779.773 404.04 779.602 403.917 779.477C403.793 779.351 403.625 779.28 403.45 779.28L396.22 779.18C395.873 779.18 395.7 779.35 395.7 779.69C395.65 786.85 396.97 796.08 387.22 796.69C384.01 796.88 381.04 795.74 379.14 793.04C377.04 790.04 377.84 783.71 378.09 779.88C378.094 779.817 378.085 779.754 378.064 779.695C378.043 779.636 378.009 779.581 377.966 779.536C377.923 779.49 377.871 779.453 377.813 779.428C377.755 779.403 377.693 779.39 377.63 779.39L288.02 779.56C286.213 779.567 286.193 779.757 287.96 780.13C300.26 782.76 309.42 786.49 323.31 792.36C341.51 800.047 360.397 804.654 379.97 806.18C380.18 806.197 380.385 806.258 380.569 806.36C380.754 806.463 380.914 806.604 381.039 806.773C381.165 806.943 381.252 807.138 381.295 807.345C381.338 807.551 381.337 807.765 381.29 807.97C381.043 809.037 380.43 809.53 379.45 809.45C364.71 808.324 350.627 805.594 337.2 801.26C329.11 798.65 321.1 795.2 313.2 791.81C302.76 787.33 293.14 784.49 282.2 782.87C282.127 782.86 282.053 782.866 281.982 782.887C281.911 782.908 281.846 782.944 281.79 782.992C281.734 783.04 281.689 783.1 281.658 783.167C281.627 783.234 281.611 783.307 281.61 783.38L281.63 802.61C281.63 802.662 281.64 802.714 281.661 802.762C281.681 802.81 281.71 802.853 281.748 802.89C281.785 802.926 281.829 802.955 281.878 802.974C281.926 802.993 281.978 803.002 282.03 803L289.99 802.75C290.737 802.724 291.123 803.084 291.15 803.83L291.19 805.05C291.217 805.73 290.893 806.087 290.22 806.12L282.42 806.48C282.013 806.5 281.807 806.714 281.8 807.12C281.71 811.83 282.29 818.82 280.8 824.65C278.58 828.677 275.15 830.364 270.51 829.71C264.65 828.88 262.82 824.66 263.01 819.01C263.15 815.077 263.173 811.414 263.08 808.02C263.077 807.932 263.057 807.846 263.021 807.765C262.984 807.685 262.932 807.613 262.867 807.552C262.802 807.492 262.725 807.445 262.642 807.414C262.558 807.382 262.469 807.368 262.38 807.37C238.087 807.95 213.813 807.767 189.56 806.82C187.487 806.74 185.393 806.554 183.28 806.26C182.5 806.154 182.193 805.714 182.36 804.94L182.56 804.04C182.713 803.347 183.147 803.017 183.86 803.05C206.893 804.197 230.163 804.49 253.67 803.93L262.58 803.8C262.92 803.794 263.093 803.617 263.1 803.27L263.37 780.34C263.377 779.847 263.13 779.6 262.63 779.6L254.7 779.68C254.193 779.687 253.933 779.944 253.92 780.45C253.873 782.81 253.87 785.28 253.91 787.86C254 793.35 249.35 796.84 244.25 796.51C240.81 795.87 236.46 793.57 236.13 789.75C235.99 788.09 235.93 786.37 235.95 784.59C235.95 784.11 235.74 783.98 235.32 784.2C233.647 785.047 232.25 786.55 231.13 788.71C231.032 788.898 230.889 789.058 230.715 789.177C230.54 789.296 230.339 789.369 230.13 789.39C229.363 789.477 228.887 789.314 228.7 788.9C228.233 787.894 228.27 786.854 228.81 785.78C230.437 782.554 232.693 780.814 235.58 780.56C235.687 780.554 235.777 780.51 235.85 780.43C235.877 780.404 235.893 780.374 235.9 780.34C235.907 780.194 235.833 780.114 235.68 780.1C233.527 779.967 231.467 779.897 229.5 779.89C153 779.857 76.5 779.847 0 779.86V775.87L235.26 775.75C235.475 775.75 235.681 775.665 235.833 775.513C235.985 775.361 236.07 775.155 236.07 774.94V712.57C236.07 712.407 236.036 712.246 235.97 712.098C235.905 711.949 235.809 711.818 235.69 711.71L225.68 702.52C225.346 702.215 225.079 701.843 224.897 701.428C224.714 701.013 224.62 700.564 224.62 700.11C224.647 572.91 224.647 446 224.62 319.38C224.62 317.827 224.927 316.314 225.54 314.84C236.473 288.534 247.387 261.704 258.28 234.35C258.967 232.617 260.243 231.717 262.11 231.65C264.87 231.55 267.63 231.51 270.39 231.53C319.997 231.87 369.197 231.91 417.99 231.65C419.517 231.644 420.407 232.397 420.66 233.91C421.13 236.73 420.79 239.64 420.81 242.55C420.823 243.964 421.107 244.02 421.66 242.72L425.58 233.65C426.12 232.397 427.077 231.77 428.45 231.77L731.28 231.81C732.023 231.81 732.735 232.106 733.26 232.633C733.785 233.16 734.08 233.875 734.08 234.62C734.107 399.96 734.12 565.457 734.12 731.11C734.12 731.477 733.993 731.784 733.74 732.03C733.42 732.344 733.033 732.547 732.58 732.64C731.44 732.867 731.313 733.354 732.2 734.1C733.9 735.534 734.74 737.864 734.72 741.09C734.7 743.39 734.61 745.97 731.67 746.19C731.408 746.213 731.163 746.332 730.985 746.525C730.808 746.718 730.709 746.969 730.71 747.23L730.67 775.03C730.663 775.344 730.817 775.5 731.13 775.5L1024 775.45ZM416.59 236.58C416.59 236.448 416.537 236.321 416.444 236.227C416.35 236.133 416.223 236.08 416.09 236.08H262.69C262.557 236.08 262.43 236.133 262.336 236.227C262.243 236.321 262.19 236.448 262.19 236.58V729.36C262.19 729.493 262.243 729.62 262.336 729.714C262.43 729.808 262.557 729.86 262.69 729.86H416.09C416.223 729.86 416.35 729.808 416.444 729.714C416.537 729.62 416.59 729.493 416.59 729.36V236.58ZM429.35 729.18C429.35 729.35 429.417 729.513 429.537 729.633C429.657 729.753 429.82 729.82 429.99 729.82L728.9 729.78C729.07 729.78 729.233 729.713 729.353 729.593C729.473 729.473 729.54 729.31 729.54 729.14L729.46 236.67C729.46 236.501 729.393 236.338 729.273 236.218C729.152 236.098 728.99 236.03 728.82 236.03L429.92 236.07C429.75 236.07 429.587 236.138 429.467 236.258C429.347 236.378 429.28 236.541 429.28 236.71L429.35 729.18ZM263.18 740.06C260.08 738.95 257.04 735.27 255.04 732.51C254.447 731.69 254.15 731.784 254.15 732.79L254.11 775.34C254.11 775.66 254.27 775.82 254.59 775.82L262.78 775.87C263.113 775.87 263.28 775.704 263.28 775.37C263.38 764.51 263.397 754.187 263.33 744.4C263.323 743.214 263.427 742.03 263.64 740.85C263.707 740.457 263.553 740.194 263.18 740.06ZM423.12 744.92C422.66 745.85 422.18 746.47 422.19 747.58C422.263 756.967 422.24 766.114 422.12 775.02C422.113 775.414 422.307 775.614 422.7 775.62L430.18 775.68C430.587 775.687 430.79 775.484 430.79 775.07L430.81 740.8C430.81 740.494 430.667 740.29 430.38 740.19C427.56 739.184 425.27 737.54 423.51 735.26C421.85 733.114 421.463 733.324 422.35 735.89C423.1 738.07 424.2 742.77 423.12 744.92ZM418.69 742.18C419.11 742.174 419.293 741.96 419.24 741.54L418.63 737.12C418.598 736.903 418.495 736.702 418.338 736.55C418.18 736.398 417.977 736.303 417.76 736.28C415.533 736.054 413.947 735.94 413 735.94C367.007 735.96 319.203 736 269.59 736.06C268.677 736.06 268.217 736.517 268.21 737.43L268.17 740.51C268.163 741.45 268.627 741.964 269.56 742.05C276.3 742.68 283.04 742.36 289.67 742.4C331.62 742.63 375.43 742.36 418.69 742.18ZM435.17 740.73C435.168 741.029 435.273 741.319 435.465 741.548C435.658 741.777 435.925 741.931 436.22 741.98C437.887 742.26 439.563 742.404 441.25 742.41C470.317 742.51 498.897 742.494 526.99 742.36C544.41 742.29 561.44 742.58 578.96 742.25C579.6 742.237 579.88 741.914 579.8 741.28L579.28 737.01C579.207 736.41 578.867 736.11 578.26 736.11L436.39 736.04C435.637 736.04 435.253 736.417 435.24 737.17L435.17 740.73ZM584.89 736.03C584.678 736.03 584.469 736.075 584.275 736.162C584.082 736.249 583.91 736.376 583.77 736.535C583.63 736.694 583.525 736.882 583.463 737.084C583.401 737.287 583.383 737.5 583.41 737.71L583.85 741.15C583.896 741.51 584.072 741.841 584.345 742.08C584.617 742.319 584.967 742.451 585.33 742.45L728.64 742.32C728.876 742.319 729.108 742.261 729.318 742.152C729.527 742.043 729.707 741.886 729.844 741.694C729.981 741.501 730.07 741.279 730.104 741.046C730.138 740.812 730.116 740.574 730.04 740.35L728.94 737.12C728.84 736.826 728.65 736.57 728.397 736.389C728.144 736.208 727.841 736.111 727.53 736.11L584.89 736.03ZM404.14 747.02C404.14 746.888 404.087 746.761 403.994 746.667C403.9 746.573 403.773 746.52 403.64 746.52H396.16C396.027 746.52 395.9 746.573 395.806 746.667C395.713 746.761 395.66 746.888 395.66 747.02V775.1C395.66 775.233 395.713 775.36 395.806 775.454C395.9 775.548 396.027 775.6 396.16 775.6H403.64C403.773 775.6 403.9 775.548 403.994 775.454C404.087 775.36 404.14 775.233 404.14 775.1V747.02ZM377.791 746.932C377.791 746.861 377.777 746.791 377.749 746.726C377.722 746.66 377.682 746.601 377.632 746.551C377.581 746.501 377.522 746.462 377.456 746.435C377.39 746.408 377.32 746.394 377.249 746.394L282.03 746.727C281.959 746.727 281.889 746.741 281.823 746.768C281.758 746.796 281.698 746.836 281.649 746.886C281.599 746.936 281.559 746.996 281.532 747.062C281.505 747.127 281.491 747.198 281.492 747.269L281.589 775.128C281.589 775.199 281.603 775.269 281.631 775.335C281.658 775.4 281.698 775.46 281.748 775.51C281.799 775.56 281.858 775.599 281.924 775.626C281.99 775.653 282.06 775.667 282.131 775.666L377.35 775.334C377.421 775.334 377.491 775.32 377.557 775.292C377.622 775.265 377.682 775.225 377.731 775.175C377.781 775.124 377.821 775.065 377.848 774.999C377.875 774.933 377.889 774.863 377.888 774.792L377.791 746.932ZM533.326 747.226C533.326 747.035 533.249 746.852 533.114 746.718C532.979 746.583 532.796 746.507 532.605 746.508L449.225 746.653C449.034 746.653 448.851 746.73 448.716 746.865C448.581 747 448.506 747.183 448.506 747.374L448.554 774.874C448.554 775.065 448.631 775.248 448.766 775.383C448.901 775.518 449.084 775.593 449.275 775.593L532.655 775.448C532.846 775.447 533.029 775.371 533.164 775.236C533.299 775.101 533.374 774.917 533.374 774.726L533.326 747.226ZM563.975 746.921C563.975 746.873 563.965 746.824 563.947 746.779C563.928 746.735 563.901 746.694 563.867 746.659C563.832 746.625 563.792 746.598 563.747 746.579C563.702 746.56 563.654 746.551 563.605 746.55L552.025 746.53C551.977 746.53 551.929 746.54 551.884 746.558C551.839 746.577 551.798 746.604 551.764 746.638C551.729 746.672 551.702 746.713 551.683 746.758C551.664 746.803 551.655 746.851 551.655 746.9L551.605 775.2C551.605 775.248 551.615 775.296 551.633 775.341C551.652 775.386 551.679 775.427 551.713 775.461C551.747 775.496 551.788 775.523 551.833 775.542C551.878 775.561 551.926 775.57 551.975 775.57L563.555 775.59C563.603 775.591 563.651 775.581 563.696 775.563C563.741 775.544 563.782 775.517 563.816 775.483C563.851 775.448 563.878 775.407 563.897 775.363C563.916 775.318 563.925 775.27 563.925 775.221L563.975 746.921ZM599.28 747.19C598.807 747.21 598.57 747.457 598.57 747.93L598.6 774.92C598.6 775.3 598.79 775.49 599.17 775.49L679.99 775.54C680.35 775.54 680.53 775.364 680.53 775.01L680.51 747.19C680.51 747.026 680.445 746.868 680.328 746.752C680.212 746.636 680.054 746.57 679.89 746.57C664.59 746.53 647.783 746.48 629.47 746.42C620.297 746.394 610.233 746.65 599.28 747.19ZM712.775 747.033C712.775 746.976 712.764 746.92 712.742 746.868C712.721 746.816 712.689 746.768 712.649 746.728C712.609 746.688 712.562 746.657 712.51 746.635C712.458 746.613 712.402 746.602 712.345 746.602L699.025 746.579C698.911 746.579 698.802 746.624 698.721 746.704C698.64 746.785 698.595 746.894 698.595 747.008L698.545 775.168C698.545 775.224 698.556 775.28 698.578 775.333C698.599 775.385 698.631 775.432 698.671 775.472C698.711 775.512 698.758 775.544 698.81 775.566C698.862 775.587 698.918 775.599 698.975 775.599L712.295 775.622C712.409 775.622 712.518 775.577 712.599 775.497C712.68 775.416 712.725 775.307 712.725 775.193L712.775 747.033ZM712.55 806.01L712.9 780.47C712.913 779.837 712.603 779.517 711.97 779.51L698.99 779.36C698.483 779.354 698.257 779.6 698.31 780.1C698.81 785.26 698.607 789.04 697.7 791.44C694.67 799.45 680.79 798.09 680.62 788.64C680.573 785.687 680.643 782.887 680.83 780.24C680.877 779.654 680.607 779.36 680.02 779.36L599.25 779.47C598.737 779.47 598.48 779.73 598.48 780.25L598.44 793.45C598.44 793.606 598.499 793.757 598.606 793.873C598.713 793.989 598.86 794.063 599.02 794.08C606.02 794.73 613.02 795.93 619.96 797.86C629.98 800.66 640.16 803.81 650.56 805.92C670.49 809.97 691 809.22 711.51 807.15C712.197 807.084 712.543 806.704 712.55 806.01Z" fill="#0055CC"/>
<path d="M269.04 720.851L268.99 243.651C268.99 243.428 269.079 243.214 269.236 243.057C269.394 242.899 269.607 242.811 269.83 242.811L408.97 242.801C409.193 242.801 409.407 242.889 409.564 243.047C409.722 243.204 409.81 243.418 409.81 243.641L409.86 720.841C409.86 721.064 409.772 721.277 409.614 721.435C409.457 721.592 409.243 721.681 409.02 721.681L269.88 721.691C269.657 721.691 269.444 721.602 269.286 721.445C269.129 721.287 269.04 721.074 269.04 720.851ZM405.558 247.275C405.558 247.209 405.544 247.142 405.519 247.08C405.493 247.019 405.455 246.962 405.408 246.915C405.36 246.868 405.304 246.83 405.242 246.805C405.18 246.779 405.114 246.766 405.047 246.766L273.867 246.995C273.8 246.995 273.734 247.009 273.672 247.034C273.61 247.06 273.554 247.098 273.507 247.145C273.459 247.193 273.422 247.249 273.396 247.311C273.371 247.373 273.358 247.439 273.358 247.506L273.443 296.126C273.443 296.193 273.456 296.259 273.482 296.321C273.508 296.383 273.545 296.439 273.593 296.486C273.64 296.534 273.696 296.571 273.758 296.597C273.82 296.622 273.887 296.635 273.954 296.635L405.133 296.406C405.2 296.406 405.267 296.393 405.329 296.367C405.39 296.341 405.447 296.304 405.494 296.256C405.541 296.209 405.579 296.153 405.604 296.091C405.63 296.029 405.643 295.962 405.643 295.895L405.558 247.275ZM405.54 301.311C405.54 301.136 405.471 300.968 405.347 300.844C405.223 300.72 405.055 300.651 404.88 300.651H274.1C273.925 300.651 273.757 300.72 273.634 300.844C273.51 300.968 273.44 301.136 273.44 301.311V423.511C273.44 423.597 273.457 423.683 273.49 423.763C273.524 423.843 273.572 423.916 273.634 423.977C273.695 424.039 273.768 424.087 273.848 424.121C273.928 424.154 274.014 424.171 274.1 424.171H404.88C404.967 424.171 405.053 424.154 405.133 424.121C405.213 424.087 405.286 424.039 405.347 423.977C405.408 423.916 405.457 423.843 405.49 423.763C405.523 423.683 405.54 423.597 405.54 423.511V301.311ZM405.54 428.591C405.54 428.49 405.5 428.393 405.429 428.322C405.358 428.251 405.261 428.211 405.16 428.211H273.64C273.539 428.211 273.443 428.251 273.372 428.322C273.3 428.393 273.26 428.49 273.26 428.591V480.711C273.26 480.812 273.3 480.908 273.372 480.979C273.443 481.051 273.539 481.091 273.64 481.091H405.16C405.261 481.091 405.358 481.051 405.429 480.979C405.5 480.908 405.54 480.812 405.54 480.711V428.591ZM405.582 485.456C405.582 485.413 405.573 485.37 405.557 485.33C405.54 485.29 405.516 485.253 405.486 485.223C405.455 485.192 405.419 485.168 405.379 485.151C405.339 485.134 405.296 485.126 405.252 485.126L273.853 484.896C273.765 484.896 273.681 484.931 273.619 484.993C273.557 485.054 273.522 485.138 273.522 485.226L273.199 670.465C273.199 670.509 273.207 670.552 273.224 670.592C273.24 670.632 273.264 670.668 273.295 670.699C273.326 670.73 273.362 670.754 273.402 670.771C273.442 670.787 273.485 670.796 273.528 670.796L404.928 671.025C405.015 671.025 405.099 670.991 405.161 670.929C405.223 670.867 405.258 670.783 405.258 670.696L405.582 485.456ZM360.75 675.011C332.1 674.591 304.21 675.051 273.92 675.231C273.434 675.237 273.17 675.484 273.13 675.971C273.117 676.144 273.137 676.311 273.19 676.471C273.384 677.037 273.78 677.321 274.38 677.321C298.327 677.301 323.867 677.241 351 677.141C368.33 677.071 386.71 678.081 404.81 677.881C405.47 677.874 405.787 677.541 405.76 676.881L405.74 676.571C405.733 676.366 405.646 676.171 405.499 676.028C405.352 675.884 405.156 675.803 404.95 675.801C390.19 675.487 375.457 675.224 360.75 675.011ZM319.7 683.011L273.85 682.701C273.377 682.701 273.137 682.937 273.13 683.411L273.12 683.671C273.119 683.745 273.132 683.819 273.16 683.888C273.188 683.957 273.229 684.02 273.281 684.073C273.333 684.126 273.395 684.168 273.464 684.197C273.532 684.226 273.606 684.241 273.68 684.241L314.69 684.041C322.397 684.514 330.067 684.371 337.7 683.611C340.48 683.337 343.264 683.317 346.05 683.551C351.25 684.004 356.48 684.167 361.74 684.041C361.76 684.067 361.784 684.097 361.81 684.131C361.85 684.197 361.914 684.231 362 684.231C376.52 684.837 390.997 684.931 405.43 684.511C405.857 684.497 406.03 684.281 405.95 683.861L405.84 683.261C405.76 682.854 405.514 682.651 405.1 682.651L361.96 682.571L333.91 681.611C333.65 681.604 333.41 681.671 333.19 681.811L332.34 682.371C332.08 682.537 331.797 682.627 331.49 682.641L319.7 683.011ZM312.25 691.161L337.56 691.051L404.78 691.191C404.915 691.191 405.049 691.162 405.171 691.106C405.294 691.049 405.403 690.967 405.49 690.864C405.578 690.761 405.642 690.64 405.678 690.51C405.715 690.38 405.722 690.244 405.7 690.111L405.65 689.811C405.622 689.637 405.533 689.478 405.4 689.363C405.266 689.248 405.097 689.183 404.92 689.181L354.26 688.661L313.41 688.981L273.97 688.691C273.524 688.691 273.24 688.904 273.12 689.331C273.06 689.551 273.05 689.767 273.09 689.981C273.13 690.197 273.244 690.394 273.414 690.536C273.583 690.678 273.798 690.758 274.02 690.761L312.25 691.161ZM340.91 697.191C362.33 697.437 383.68 697.604 404.96 697.691C405.52 697.697 405.78 697.424 405.74 696.871L405.71 696.501C405.703 696.367 405.645 696.241 405.548 696.149C405.452 696.056 405.324 696.003 405.19 696.001C368.17 694.931 329.9 695.921 289.67 695.361C285.304 695.307 280.064 695.374 273.95 695.561C273.397 695.574 273.12 695.857 273.12 696.411V696.861C273.12 697.434 273.407 697.714 273.98 697.701C293 697.381 311.807 697.277 330.4 697.391C333.89 697.411 337.37 697.151 340.91 697.191ZM312.85 702.171L274.38 702.271C273.787 702.271 273.48 702.571 273.46 703.171L273.45 703.441C273.43 703.921 273.66 704.161 274.14 704.161L312.05 703.981L355.56 703.831L405.02 704.401C405.218 704.404 405.41 704.332 405.559 704.199C405.707 704.065 405.8 703.88 405.82 703.681L405.86 703.281C405.9 702.814 405.687 702.577 405.22 702.571L354.22 701.901L312.85 702.171ZM322.86 708.781L274.35 708.811C273.844 708.811 273.57 709.061 273.53 709.561L273.5 709.971C273.447 710.597 273.737 710.914 274.37 710.921L322.78 710.961L359.04 710.911L404.73 710.971C404.944 710.971 405.149 710.896 405.31 710.761C405.69 710.441 405.834 710.111 405.74 709.771C405.554 709.097 405.114 708.761 404.42 708.761L352.96 708.851L322.86 708.781ZM311.94 715.851L274.25 715.741C273.797 715.734 273.577 715.957 273.59 716.411V716.781C273.604 717.234 273.834 717.461 274.28 717.461L311.54 717.291C325.46 717.817 339.384 717.754 353.31 717.101L405.06 717.011C405.209 717.011 405.351 716.952 405.456 716.847C405.561 716.742 405.62 716.599 405.62 716.451V716.181C405.62 715.947 405.504 715.831 405.27 715.831L345.05 715.651C334.037 715.197 323 715.264 311.94 715.851Z" fill="#0055CC"/>
<path d="M576.3 243.431L576.43 721.051C576.43 721.218 576.364 721.378 576.246 721.496C576.128 721.614 575.967 721.681 575.8 721.681L436.97 721.721C436.803 721.721 436.643 721.654 436.525 721.536C436.407 721.418 436.34 721.258 436.34 721.091L436.2 243.471C436.2 243.304 436.267 243.143 436.385 243.025C436.503 242.907 436.663 242.841 436.83 242.841L575.67 242.801C575.837 242.801 575.998 242.867 576.116 242.985C576.234 243.103 576.3 243.264 576.3 243.431ZM571.887 247.106C571.887 247.062 571.878 247.017 571.861 246.976C571.844 246.935 571.819 246.897 571.787 246.866C571.756 246.834 571.718 246.809 571.677 246.792C571.636 246.775 571.591 246.767 571.547 246.767L440.807 246.995C440.762 246.995 440.718 247.004 440.677 247.021C440.636 247.038 440.598 247.063 440.567 247.095C440.535 247.127 440.51 247.164 440.493 247.205C440.476 247.247 440.468 247.291 440.468 247.335L440.553 296.275C440.553 296.32 440.562 296.364 440.579 296.405C440.596 296.447 440.621 296.484 440.653 296.516C440.685 296.547 440.722 296.572 440.763 296.589C440.805 296.606 440.849 296.615 440.894 296.615L571.633 296.387C571.678 296.387 571.722 296.378 571.763 296.361C571.805 296.343 571.842 296.318 571.874 296.287C571.905 296.255 571.93 296.218 571.947 296.176C571.964 296.135 571.973 296.091 571.973 296.046L571.887 247.106ZM571.977 301.455C571.977 301.362 571.959 301.27 571.923 301.184C571.888 301.097 571.835 301.019 571.77 300.953C571.704 300.887 571.626 300.835 571.539 300.799C571.453 300.763 571.361 300.744 571.268 300.744L441.428 300.518C441.24 300.517 441.059 300.592 440.926 300.725C440.792 300.858 440.717 301.038 440.717 301.226L440.504 423.346C440.504 423.439 440.522 423.532 440.557 423.618C440.593 423.704 440.645 423.783 440.711 423.849C440.777 423.915 440.855 423.967 440.941 424.003C441.027 424.039 441.119 424.057 441.212 424.057L571.052 424.284C571.241 424.284 571.421 424.21 571.555 424.077C571.688 423.944 571.763 423.764 571.763 423.575L571.977 301.455ZM571.88 428.831C571.88 428.666 571.815 428.509 571.699 428.392C571.582 428.276 571.425 428.211 571.26 428.211H441C440.836 428.211 440.678 428.276 440.562 428.392C440.445 428.509 440.38 428.666 440.38 428.831V480.431C440.38 480.595 440.445 480.753 440.562 480.869C440.678 480.985 440.836 481.051 441 481.051H571.26C571.425 481.051 571.582 480.985 571.699 480.869C571.815 480.753 571.88 480.595 571.88 480.431V428.831ZM571.88 485.651C571.88 485.468 571.808 485.292 571.678 485.163C571.549 485.033 571.373 484.961 571.19 484.961H441.13C440.947 484.961 440.772 485.033 440.642 485.163C440.513 485.292 440.44 485.468 440.44 485.651V670.191C440.44 670.374 440.513 670.549 440.642 670.679C440.772 670.808 440.947 670.881 441.13 670.881H571.19C571.373 670.881 571.549 670.808 571.678 670.679C571.808 670.549 571.88 670.374 571.88 670.191V485.651ZM544.31 677.621C554.404 677.807 563.32 677.917 571.06 677.951C571.281 677.95 571.493 677.868 571.657 677.72C571.821 677.573 571.926 677.37 571.95 677.151L571.99 676.781C572.057 676.207 571.8 675.914 571.22 675.901C527.447 674.714 484.004 674.517 440.89 675.311C440.144 675.324 439.824 675.701 439.93 676.441C439.964 676.654 440.07 676.841 440.25 677.001C440.604 677.314 441.02 677.471 441.5 677.471C481.72 677.051 515.99 677.101 544.31 677.621ZM481.96 682.451L440.82 682.591C440.32 682.591 440.084 682.837 440.11 683.331L440.12 683.611C440.128 683.762 440.193 683.904 440.303 684.009C440.413 684.113 440.559 684.171 440.71 684.171L482.11 683.791L524.31 683.931C534.6 684.131 545.14 684.881 555.12 684.841C560.354 684.814 565.694 684.741 571.14 684.621C571.376 684.616 571.6 684.521 571.768 684.355C571.935 684.19 572.033 683.966 572.04 683.731L572.05 683.201C572.064 682.727 571.837 682.491 571.37 682.491L523.48 682.571C514.647 682.031 505.824 681.961 497.01 682.361C494.657 682.474 492.15 682.501 489.49 682.441C486.99 682.381 484.48 682.384 481.96 682.451ZM475.65 688.561C464.817 688.587 453.434 688.677 441.5 688.831C440.814 688.844 440.364 689.174 440.15 689.821C440.117 689.921 440.104 690.017 440.11 690.111C440.123 690.332 440.221 690.539 440.383 690.69C440.545 690.841 440.759 690.924 440.98 690.921C452.15 690.831 463.28 690.651 474.69 690.871C493.517 691.244 511.957 691.214 530.01 690.781C537.017 690.614 550.604 690.757 570.77 691.211C571.039 691.217 571.301 691.127 571.508 690.956C571.716 690.785 571.855 690.546 571.9 690.281L571.95 690.001C572.037 689.501 571.83 689.244 571.33 689.231C549.497 688.671 528.214 688.524 507.48 688.791C496.99 688.931 486.16 688.531 475.65 688.561ZM504.59 695.671L475.7 695.511L441.58 695.451C440.987 695.451 440.554 695.714 440.28 696.241C440.094 696.614 440.234 697.017 440.7 697.451C440.887 697.618 441.13 697.707 441.38 697.701L477.13 696.981L508.82 696.921L571.39 697.551C571.575 697.551 571.754 697.483 571.889 697.358C572.025 697.234 572.107 697.063 572.12 696.881L572.14 696.511C572.174 696.031 571.95 695.791 571.47 695.791L504.59 695.671ZM482.95 702.641L441.18 702.291C440.975 702.288 440.776 702.365 440.625 702.507C440.474 702.648 440.383 702.843 440.37 703.051L440.34 703.491C440.336 703.567 440.348 703.644 440.375 703.716C440.401 703.788 440.442 703.854 440.496 703.91C440.549 703.966 440.613 704.01 440.684 704.042C440.755 704.073 440.832 704.09 440.91 704.091L483.29 704.191L525.55 703.651L571.11 704.211C571.684 704.217 572.03 703.941 572.15 703.381L572.21 703.091C572.227 703.008 572.225 702.923 572.204 702.841C572.184 702.759 572.147 702.683 572.094 702.618C572.041 702.553 571.975 702.5 571.9 702.464C571.825 702.429 571.743 702.41 571.66 702.411L524.46 701.891C518.16 701.701 510.71 702.541 503.32 702.201C500.82 702.091 498.5 702.691 495.99 702.111C494.26 701.711 492.61 702.131 490.84 702.361C490.034 702.461 488.734 702.444 486.94 702.311C485.614 702.211 484.284 702.321 482.95 702.641ZM499.96 708.871L480.96 708.801L441.6 708.711C441.429 708.71 441.262 708.758 441.117 708.848C440.972 708.938 440.855 709.067 440.78 709.221C440.587 709.621 440.587 709.974 440.78 710.281C440.987 710.614 441.287 710.781 441.68 710.781L482.03 710.881L496.54 710.771L571.13 711.081C571.287 711.081 571.441 711.045 571.583 710.978C571.725 710.911 571.85 710.812 571.95 710.691C572.317 710.237 572.397 709.771 572.19 709.291C572.106 709.097 571.969 708.933 571.795 708.817C571.621 708.702 571.417 708.64 571.21 708.641L499.96 708.871ZM572.58 716.481C572.58 716.279 572.5 716.086 572.358 715.943C572.215 715.801 572.022 715.721 571.82 715.721H441.4C441.199 715.721 441.005 715.801 440.863 715.943C440.72 716.086 440.64 716.279 440.64 716.481V716.521C440.64 716.722 440.72 716.916 440.863 717.058C441.005 717.201 441.199 717.281 441.4 717.281H571.82C572.022 717.281 572.215 717.201 572.358 717.058C572.5 716.916 572.58 716.722 572.58 716.521V716.481Z" fill="#0055CC"/>
<path d="M582.76 720.74L582.67 243.87C582.67 243.602 582.776 243.345 582.966 243.156C583.155 242.966 583.412 242.86 583.68 242.86L721.67 242.83C721.938 242.83 722.195 242.936 722.384 243.126C722.574 243.315 722.68 243.572 722.68 243.84L722.77 720.72C722.77 720.988 722.664 721.245 722.474 721.434C722.285 721.624 722.028 721.73 721.76 721.73L583.77 721.75C583.502 721.75 583.245 721.644 583.056 721.454C582.866 721.265 582.76 721.008 582.76 720.74ZM717.79 296.64C717.897 296.637 717.999 296.593 718.073 296.517C718.148 296.44 718.19 296.337 718.19 296.23L718.21 247.55C718.21 247.383 718.127 247.297 717.96 247.29C691.347 246.483 665.3 246.373 639.82 246.96C622.43 247.36 604.47 246.91 587.67 246.99C587.343 246.99 587.18 247.157 587.18 247.49L587.33 296.27C587.33 296.369 587.369 296.464 587.438 296.535C587.507 296.606 587.601 296.647 587.7 296.65C598.64 296.77 609.06 296.74 618.96 296.56C642.45 296.14 666.42 296.18 690.74 296.58C699.4 296.72 708.417 296.74 717.79 296.64ZM718.247 301.344C718.247 301.267 718.232 301.19 718.202 301.119C718.173 301.047 718.129 300.982 718.075 300.927C718.02 300.872 717.955 300.828 717.883 300.799C717.812 300.769 717.735 300.754 717.658 300.753L587.898 300.527C587.741 300.527 587.591 300.589 587.48 300.699C587.37 300.809 587.307 300.959 587.307 301.116L587.093 423.456C587.093 423.533 587.108 423.61 587.138 423.682C587.167 423.753 587.211 423.818 587.265 423.873C587.32 423.928 587.385 423.972 587.456 424.001C587.528 424.031 587.605 424.047 587.682 424.047L717.442 424.273C717.598 424.273 717.749 424.212 717.859 424.101C717.97 423.991 718.033 423.841 718.033 423.684L718.247 301.344ZM718.15 428.71C718.15 428.58 718.098 428.455 718.006 428.364C717.915 428.272 717.79 428.22 717.66 428.22H587.44C587.31 428.22 587.185 428.272 587.093 428.364C587.002 428.455 586.95 428.58 586.95 428.71V480.59C586.95 480.72 587.002 480.845 587.093 480.937C587.185 481.028 587.31 481.08 587.44 481.08H717.66C717.79 481.08 717.915 481.028 718.006 480.937C718.098 480.845 718.15 480.72 718.15 480.59V428.71ZM718.13 485.62C718.13 485.453 718.064 485.293 717.945 485.175C717.827 485.056 717.667 484.99 717.5 484.99H587.7C587.533 484.99 587.373 485.056 587.254 485.175C587.136 485.293 587.07 485.453 587.07 485.62V670.24C587.07 670.407 587.136 670.567 587.254 670.686C587.373 670.804 587.533 670.87 587.7 670.87H717.5C717.667 670.87 717.827 670.804 717.945 670.686C718.064 670.567 718.13 670.407 718.13 670.24V485.62ZM717.68 675.89C674.27 674.82 630.83 674.49 587.41 675.31C586.957 675.317 586.757 675.543 586.81 675.99L586.89 676.76C586.93 677.12 587.133 677.3 587.5 677.3C616.813 677.4 645.277 677.373 672.89 677.22C678.757 677.187 685.42 677.323 692.88 677.63C701.233 677.97 709.517 678.05 717.73 677.87C717.882 677.867 718.027 677.805 718.134 677.697C718.24 677.588 718.3 677.442 718.3 677.29V676.53C718.3 676.11 718.093 675.897 717.68 675.89ZM627.7 682.72L587.34 682.62C587.06 682.62 586.927 682.76 586.94 683.04L586.97 683.72C586.983 683.967 587.117 684.09 587.37 684.09L627.29 684L673.81 684.08C687.51 684.88 702.107 685.077 717.6 684.67C717.789 684.665 717.969 684.585 718.1 684.449C718.231 684.312 718.303 684.129 718.3 683.94V683.04C718.297 682.914 718.246 682.795 718.156 682.707C718.066 682.619 717.946 682.57 717.82 682.57L667.55 682.39L627.7 682.72ZM625.94 688.71L587.71 688.81C587.223 688.81 586.97 689.053 586.95 689.54L586.94 689.98C586.935 690.091 586.952 690.202 586.991 690.306C587.031 690.41 587.091 690.505 587.168 690.586C587.246 690.666 587.339 690.73 587.443 690.774C587.546 690.818 587.658 690.84 587.77 690.84L622.04 690.81L660.3 691.14L717.16 691.25C717.8 691.25 718.167 690.933 718.26 690.3C718.273 690.2 718.287 690.1 718.3 690C718.38 689.487 718.16 689.227 717.64 689.22L664.3 688.72L625.94 688.71ZM627.53 697.51C635.157 697.903 643.897 697.963 653.75 697.69C656.697 697.603 658.797 697.477 660.05 697.31L717.34 697.71C717.867 697.717 718.17 697.46 718.25 696.94L718.3 696.66C718.367 696.24 718.187 696.023 717.76 696.01C698.967 695.39 680.147 695.267 661.3 695.64L630.45 695.9L587.36 695.51C587.06 695.503 586.913 695.65 586.92 695.95L586.95 697.25C586.957 697.53 587.1 697.67 587.38 697.67L627.53 697.51ZM624.04 703.9C624.107 703.953 624.173 704.003 624.24 704.05C624.26 704.07 624.283 704.08 624.31 704.08L665.6 703.78L717.58 704.34C718.087 704.347 718.323 704.093 718.29 703.58L718.27 703.21C718.257 703.004 718.166 702.811 718.016 702.669C717.865 702.528 717.666 702.45 717.46 702.45L661.46 702.03L622.46 702.21L587.6 702.22C587.448 702.22 587.302 702.28 587.193 702.386C587.085 702.493 587.023 702.638 587.02 702.79L587 703.31C586.999 703.394 587.014 703.477 587.045 703.554C587.076 703.632 587.122 703.702 587.181 703.762C587.24 703.822 587.309 703.869 587.387 703.901C587.464 703.933 587.546 703.95 587.63 703.95L624.04 703.9ZM622.74 708.79L587.7 708.68C587.287 708.68 587.08 708.887 587.08 709.3L587.07 710.18C587.069 710.264 587.084 710.347 587.115 710.424C587.146 710.502 587.192 710.572 587.251 710.632C587.31 710.692 587.379 710.739 587.457 710.771C587.534 710.803 587.616 710.82 587.7 710.82L619.19 710.77L669.3 710.98L717.52 711.05C717.649 711.05 717.776 711.022 717.894 710.969C718.011 710.916 718.115 710.837 718.2 710.74C718.46 710.427 718.557 710.11 718.49 709.79C718.363 709.163 717.98 708.85 717.34 708.85L671.3 708.77L622.74 708.79ZM718.37 716.49C718.37 716.291 718.291 716.1 718.15 715.96C718.01 715.819 717.819 715.74 717.62 715.74H587.8C587.601 715.74 587.41 715.819 587.27 715.96C587.129 716.1 587.05 716.291 587.05 716.49V716.57C587.05 716.769 587.129 716.96 587.27 717.1C587.41 717.241 587.601 717.32 587.8 717.32H717.62C717.819 717.32 718.01 717.241 718.15 717.1C718.291 716.96 718.37 716.769 718.37 716.57V716.49Z" fill="#0055CC"/>
<path d="M370.675 256.292L311.635 256.188C307.001 256.18 303.239 259.93 303.23 264.564L303.23 264.984C303.222 269.617 306.971 273.38 311.605 273.388L370.645 273.491C375.279 273.5 379.042 269.75 379.05 265.116L379.05 264.696C379.058 260.062 375.309 256.3 370.675 256.292Z" fill="#0055CC"/>
<path d="M534.87 256.23H475.23C470.608 256.23 466.86 259.978 466.86 264.6V265.02C466.86 269.643 470.608 273.39 475.23 273.39H534.87C539.493 273.39 543.24 269.643 543.24 265.02V264.6C543.24 259.978 539.493 256.23 534.87 256.23Z" fill="#0055CC"/>
<path d="M682.435 256.242L623.315 256.139C618.693 256.131 614.939 259.871 614.931 264.494L614.93 264.914C614.922 269.537 618.663 273.291 623.285 273.299L682.405 273.402C687.028 273.41 690.782 269.669 690.79 265.046L690.791 264.626C690.799 260.004 687.058 256.25 682.435 256.242Z" fill="#0055CC"/>
<path d="M283.393 441.769L282.813 441.772C279.549 441.789 276.917 444.449 276.934 447.713L277.067 472.972C277.084 476.236 279.743 478.868 283.007 478.851L283.587 478.848C286.851 478.831 289.483 476.171 289.466 472.907L289.334 447.648C289.317 444.384 286.657 441.752 283.393 441.769Z" fill="#0055CC"/>
<path d="M450.56 441.641H449.94C446.643 441.641 443.97 444.313 443.97 447.611V472.891C443.97 476.188 446.643 478.861 449.94 478.861H450.56C453.857 478.861 456.53 476.188 456.53 472.891V447.611C456.53 444.313 453.857 441.641 450.56 441.641Z" fill="#0055CC"/>
<path d="M597.37 441.601H596.87C593.529 441.601 590.82 444.309 590.82 447.651V472.851C590.82 476.192 593.529 478.901 596.87 478.901H597.37C600.712 478.901 603.42 476.192 603.42 472.851V447.651C603.42 444.309 600.712 441.601 597.37 441.601Z" fill="#0055CC"/>
<path d="M656.16 786.181C656.146 786.251 656.118 786.317 656.078 786.376C656.038 786.434 655.987 786.485 655.927 786.524C655.868 786.563 655.801 786.59 655.731 786.603C655.661 786.616 655.59 786.615 655.52 786.601L655.18 786.521C654.645 786.406 654.168 786.122 653.855 785.73C653.542 785.338 653.418 784.871 653.51 784.431L653.55 784.251C653.647 783.812 653.951 783.436 654.397 783.208C654.843 782.979 655.395 782.915 655.93 783.031L656.28 783.101C656.419 783.132 656.54 783.217 656.617 783.337C656.693 783.456 656.72 783.602 656.69 783.741L656.16 786.181Z" fill="#0055CC"/>
<path d="M661.57 785.34C662.171 786.076 663.168 786.256 663.797 785.743C664.426 785.23 664.449 784.217 663.849 783.481C663.248 782.745 662.252 782.564 661.623 783.078C660.993 783.591 660.97 784.603 661.57 785.34Z" fill="#0055CC"/>
<path d="M171.577 801.318L165.71 799.378C164.913 799.114 164.053 799.547 163.789 800.344L163.657 800.742C163.394 801.539 163.826 802.399 164.623 802.663L170.491 804.603C171.288 804.867 172.148 804.434 172.411 803.637L172.543 803.239C172.807 802.442 172.374 801.582 171.577 801.318Z" fill="#0055CC"/>
<path d="M811.49 805.91C812.479 805.91 813.28 805.109 813.28 804.12C813.28 803.131 812.479 802.33 811.49 802.33C810.502 802.33 809.7 803.131 809.7 804.12C809.7 805.109 810.502 805.91 811.49 805.91Z" fill="#0055CC"/>
<path d="M817.64 806.27C818.65 806.27 819.47 805.451 819.47 804.44C819.47 803.43 818.65 802.61 817.64 802.61C816.629 802.61 815.81 803.43 815.81 804.44C815.81 805.451 816.629 806.27 817.64 806.27Z" fill="#0055CC"/>
<path d="M424.643 805.479C424.514 806.42 425.004 807.265 425.737 807.365C426.47 807.465 427.169 806.784 427.298 805.843C427.427 804.902 426.937 804.057 426.204 803.957C425.47 803.856 424.772 804.538 424.643 805.479Z" fill="#0055CC"/>
<path d="M535.8 809.591C540.5 809.811 545.63 809.861 549.39 807.481C550.183 806.981 550.846 807.114 551.38 807.881C551.693 808.327 551.766 808.881 551.6 809.541C551.49 809.971 551.217 810.341 550.84 810.571C548.353 812.097 545.773 812.894 543.1 812.961C533.833 813.214 524.076 812.567 513.83 811.021C513.11 810.914 512.786 810.497 512.86 809.771L512.96 808.751C513.02 808.197 513.326 807.901 513.88 807.861C514.673 807.807 515.466 807.831 516.26 807.931C522.493 808.724 529.006 809.277 535.8 809.591Z" fill="#0055CC"/>
<path d="M119.666 811.83L113.926 811.911C113.286 811.92 112.774 812.446 112.783 813.087L112.797 814.107C112.806 814.747 113.333 815.259 113.973 815.25L119.713 815.17C120.353 815.161 120.865 814.635 120.856 813.994L120.842 812.974C120.833 812.334 120.307 811.821 119.666 811.83Z" fill="#0055CC"/>
<path d="M211.944 815.415L207.773 815.153C206.869 815.096 206.09 815.783 206.033 816.687L206.021 816.866C205.965 817.77 206.651 818.549 207.555 818.606L211.727 818.868C212.631 818.925 213.41 818.239 213.467 817.335L213.478 817.155C213.535 816.251 212.848 815.472 211.944 815.415Z" fill="#0055CC"/>
<path d="M240.03 822.92C240.032 822.821 240.053 822.723 240.092 822.631C240.132 822.54 240.189 822.458 240.261 822.389C240.332 822.32 240.417 822.266 240.509 822.23C240.602 822.194 240.701 822.177 240.8 822.18L243.37 822.24C244.119 822.256 244.835 822.404 245.361 822.651C245.888 822.898 246.182 823.225 246.18 823.56L246.16 824.56C246.157 824.727 246.08 824.891 245.933 825.042C245.787 825.193 245.575 825.329 245.308 825.441C245.042 825.553 244.726 825.64 244.38 825.697C244.034 825.753 243.663 825.778 243.29 825.77L240.72 825.72C240.523 825.715 240.336 825.632 240.199 825.49C240.063 825.348 239.988 825.157 239.99 824.96L240.03 822.92Z" fill="#0055CC"/>
<path d="M675.067 822.566L641.489 822.214C640.787 822.207 640.213 822.77 640.205 823.471L640.197 824.271C640.19 824.972 640.752 825.547 641.454 825.554L675.032 825.906C675.733 825.913 676.308 825.351 676.315 824.649L676.323 823.849C676.331 823.148 675.768 822.573 675.067 822.566Z" fill="#0055CC"/>
<path d="M684.092 825.946C685.271 826.028 686.284 825.278 686.355 824.27C686.425 823.261 685.527 822.377 684.348 822.295C683.169 822.212 682.156 822.963 682.085 823.971C682.015 824.979 682.913 825.863 684.092 825.946Z" fill="#0055CC"/>
<path d="M253.6 838.39C254.594 838.39 255.4 837.584 255.4 836.59C255.4 835.596 254.594 834.79 253.6 834.79C252.606 834.79 251.8 835.596 251.8 836.59C251.8 837.584 252.606 838.39 253.6 838.39Z" fill="#0055CC"/>
<path d="M245.414 835.47L187.954 835.671C187.291 835.673 186.756 836.212 186.758 836.875L186.762 837.935C186.764 838.598 187.303 839.133 187.966 839.131L245.426 838.93C246.088 838.928 246.624 838.389 246.621 837.726L246.618 836.666C246.615 836.003 246.076 835.468 245.414 835.47Z" fill="#0055CC"/>
<path d="M143.504 838.947L136.166 838.793C135.354 838.776 134.683 839.421 134.666 840.232L134.657 840.632C134.64 841.444 135.284 842.116 136.096 842.133L143.434 842.286C144.246 842.303 144.918 841.659 144.935 840.848L144.943 840.448C144.96 839.636 144.316 838.964 143.504 838.947Z" fill="#0055CC"/>
<path d="M844.97 843.461C846.156 843.607 846.636 844.267 846.41 845.441L846.36 845.721C846.193 846.587 845.67 846.964 844.79 846.851C839.256 846.124 833.64 845.931 827.94 846.271C826.82 846.337 826.273 845.811 826.3 844.691L826.31 844.391C826.323 843.557 826.746 843.091 827.58 842.991C832.24 842.444 838.036 842.601 844.97 843.461Z" fill="#0055CC"/>
<path d="M422.359 858.746L386.119 858.556C385.263 858.551 384.566 859.242 384.561 860.098L384.559 860.478C384.555 861.334 385.245 862.031 386.101 862.036L422.341 862.226C423.197 862.23 423.894 861.54 423.899 860.684L423.901 860.304C423.905 859.448 423.215 858.75 422.359 858.746Z" fill="#0055CC"/>
<path d="M648.452 881.781L642.853 881.84C642.068 881.848 641.439 882.49 641.447 883.274L641.453 883.834C641.462 884.619 642.104 885.248 642.888 885.239L648.488 885.181C649.272 885.173 649.901 884.53 649.893 883.746L649.887 883.186C649.879 882.402 649.236 881.773 648.452 881.781Z" fill="#0055CC"/>
<path d="M228.76 885.491C228.922 885.471 229.087 885.486 229.243 885.532C229.4 885.579 229.546 885.657 229.671 885.762C229.797 885.867 229.899 885.996 229.973 886.142C230.047 886.288 230.09 886.448 230.1 886.611L230.13 887.001C230.196 888.041 229.713 888.631 228.68 888.771C218.786 890.098 209.176 890.481 199.85 889.921C199.691 889.912 199.536 889.872 199.394 889.801C199.252 889.73 199.126 889.631 199.023 889.509C198.92 889.388 198.843 889.246 198.796 889.093C198.749 888.941 198.733 888.78 198.75 888.621C198.77 888.481 198.786 888.341 198.8 888.201C198.906 887.188 199.47 886.698 200.49 886.731C209.756 887.011 219.18 886.598 228.76 885.491Z" fill="#0055CC"/>
<path d="M755.58 897.9C755.76 897.48 755.823 897.03 755.77 896.55C755.756 896.417 755.77 896.282 755.811 896.155C755.853 896.027 755.92 895.909 756.01 895.81C756.099 895.71 756.209 895.63 756.331 895.575C756.453 895.52 756.586 895.491 756.72 895.49L801.98 894.94C802.243 894.937 802.501 895.005 802.726 895.135C802.952 895.265 803.136 895.454 803.26 895.68C803.493 896.1 803.593 896.53 803.56 896.97C803.493 897.817 803.037 898.25 802.19 898.27C787.33 898.564 773.34 898.724 760.22 898.75C759.027 898.757 757.75 898.71 756.39 898.61C755.35 898.53 754.28 898.51 753.18 898.55C735.84 899.157 718.877 898.084 702.29 895.33C702.075 895.294 701.876 895.196 701.716 895.049C701.557 894.902 701.443 894.711 701.39 894.5C701.277 894.067 701.31 893.67 701.49 893.31C701.983 892.324 702.777 891.92 703.87 892.1C714.93 893.914 725.807 894.9 736.5 895.06C742.187 895.147 747.797 895.23 753.33 895.31C753.596 895.312 753.853 895.404 754.062 895.571C754.27 895.738 754.417 895.97 754.48 896.23L754.88 897.84C755.053 898.554 755.287 898.574 755.58 897.9Z" fill="#0055CC"/>
<path d="M531.768 896.346C531.869 897.435 532.704 898.248 533.633 898.162C534.563 898.075 535.234 897.123 535.133 896.034C535.032 894.945 534.197 894.132 533.267 894.219C532.338 894.305 531.667 895.257 531.768 896.346Z" fill="#0055CC"/>
<path d="M541.05 898.111C542.056 898.111 542.87 897.296 542.87 896.291C542.87 895.286 542.056 894.471 541.05 894.471C540.045 894.471 539.23 895.286 539.23 896.291C539.23 897.296 540.045 898.111 541.05 898.111Z" fill="#0055CC"/>
</g>
<defs>
<clipPath id="clip0_93_2556">
<rect width="1024" height="1024" fill="none"/>
</clipPath>
</defs>
</svg>
