<svg width="1024" height="764" viewBox="0 216 1024 764" fill="none" xmlns="http://www.w3.org/2000/svg">
<g clip-path="url(#clip0_93_2903)">
<rect width="1024" height="1024" fill="none"/>
<path d="M105.86 976.51C105.007 976.097 104.38 975.793 103.98 975.6C99.98 973.64 97.17 968.13 95.91 963.82C93.47 955.48 93.2233 947.253 95.17 939.14C95.6033 937.333 98.25 926.447 103.11 906.48C103.19 906.133 103.053 905.96 102.7 905.96C99.4467 905.96 97.2967 906.003 96.25 906.09C92.3233 906.397 90.2033 904.817 89.89 901.35C81.6833 812.043 73.4433 722.863 65.17 633.81C64.3833 625.397 63.9933 620.317 64 618.57C64 616.49 64.7367 615.047 66.21 614.24C66.9167 613.853 68.3167 613.66 70.41 613.66C160.49 613.627 241.85 613.63 314.49 613.67C319.77 613.67 329.27 615.9 331.35 621.4C331.65 622.18 331.873 623.43 332.02 625.15C336.667 677.437 344.377 762.69 355.15 880.91C355.597 885.817 354.537 889.75 351.97 892.71C347.77 897.55 342.673 901.3 336.68 903.96C333.19 905.5 330.3 905.96 326.27 905.96C249.177 905.907 193.607 905.903 159.56 905.95C159.087 905.957 158.8 906.19 158.7 906.65C155.867 919.277 154.093 927.36 153.38 930.9C152.03 937.64 154.43 945.93 162.41 946.86C166.063 947.287 170.343 947.51 175.25 947.53C208.71 947.65 235.967 947.59 257.02 947.35C264.27 947.27 271.86 948.89 276.45 954.19C281.58 960.11 283.01 970.28 276.35 975.8C275.61 976.42 275.713 976.71 276.66 976.67L283.52 976.4C283.893 976.38 284.003 976.203 283.85 975.87C282.67 973.23 282.85 970.47 282.92 967.04C283.08 959.56 286.89 952.37 294.01 949.61C295.677 948.963 298.38 948.63 302.12 948.61C318.647 948.543 332.137 948.54 342.59 948.6C343.53 948.6 343.647 948.29 342.94 947.67C338.33 943.59 335.4 938.08 334.62 931.75C333.24 920.6 337.14 910.21 345.7 902.85C347.74 901.097 349.2 899.68 350.08 898.6C351.68 896.64 353.603 893.313 355.85 888.62C380.617 837.093 408.91 780.377 440.73 718.47C449.41 701.577 456.97 687.307 463.41 675.66C472.33 659.507 482.747 644.34 494.66 630.16C508.813 613.313 526.407 598.373 547.44 585.34C550.02 583.733 551.303 582.567 551.29 581.84C551.29 581.84 552.33 580.197 554.41 576.91C559.057 569.563 564.143 562.74 569.67 556.44C570.092 555.958 570.326 555.355 570.33 554.74L570.47 542.57C570.47 542.21 570.3 542.083 569.96 542.19C560.327 545.177 550.777 547.27 541.31 548.47C528.197 550.13 515.583 548.597 503.47 543.87C470.723 531.103 448.483 508.093 436.75 474.84C434.11 467.373 432.677 459.18 432.45 450.26C432.383 447.733 432.61 441.053 433.13 430.22C434.103 409.7 435.363 385.15 436.91 356.57C437.737 341.237 439.85 327.62 443.25 315.72C443.299 315.549 443.287 315.367 443.218 315.203C443.149 315.039 443.026 314.904 442.87 314.82C426.64 306.08 413.77 291.58 410.83 273.21C410.183 269.17 410.063 264.227 410.47 258.38C411.13 248.753 414.58 239.9 420.82 231.82C430.99 218.62 445.79 213.56 462.26 213.71C466.633 213.75 469.71 213.86 471.49 214.04C471.81 214.073 471.887 213.953 471.72 213.68C471.54 213.393 470.86 212.35 469.68 210.55C462.17 199.11 463.03 183.14 471.97 173.04C477.9 166.34 487.49 162.1 496.52 160.55C502.65 159.49 509.04 158.69 515.21 159.08C527.757 159.867 539.867 163.163 551.54 168.97C554.127 170.263 560.233 173.567 569.86 178.88C575.973 182.26 583.147 185.083 591.38 187.35C598.633 189.35 607.017 190.853 616.53 191.86C626.55 192.927 635.32 193.76 642.84 194.36C648.053 194.773 652.093 195.553 654.96 196.7C666.56 201.34 676.15 210.28 678.88 222.59C678.953 222.937 679.167 223.097 679.52 223.07C683.22 222.817 687.36 223.163 691.94 224.11C701.793 226.143 711.177 229.243 720.09 233.41C735.36 240.54 746.1 251.9 746.87 269.64C747.157 276.293 746.753 282.733 745.66 288.96C744.08 297.907 742.07 307.297 739.63 317.13C727.63 365.41 719.7 395.27 712.35 436.3C711.53 440.867 709.813 446.183 707.2 452.25C700.56 467.683 689.53 479.05 674.11 486.35C667.543 489.463 660.79 491.46 653.85 492.34C653.617 492.373 653.5 492.507 653.5 492.74L653.48 508C653.48 508.139 653.509 508.277 653.566 508.403C653.623 508.529 653.706 508.64 653.81 508.73C668.863 521.903 682.31 536.707 694.15 553.14C695.48 554.98 695.95 556.43 695.63 558.51C695.606 558.653 695.639 558.799 695.721 558.919C695.803 559.038 695.928 559.121 696.07 559.15C716.583 563.203 735.797 570.277 753.71 580.37C777.757 593.923 797.56 612.047 813.12 634.74C823.273 649.547 832.377 665.593 840.43 682.88C840.544 683.123 840.725 683.328 840.952 683.471C841.179 683.615 841.442 683.691 841.71 683.69C892.21 683.723 931.57 683.707 959.79 683.64C962.303 683.633 965.853 684.953 970.44 687.6C979.64 692.9 986.83 701.91 989.58 712.21C990.267 714.77 990.61 718.337 990.61 722.91C990.623 871.303 990.65 951.417 990.69 963.25C990.703 967.07 990.357 971.377 989.65 976.17C989.59 976.577 989.773 976.783 990.2 976.79L1001.22 976.91C1001.52 976.914 1001.81 976.987 1002.07 977.124C1002.34 977.26 1002.58 977.458 1002.77 977.703C1002.97 977.949 1003.11 978.237 1003.2 978.55C1003.29 978.862 1003.31 979.193 1003.28 979.52C1003.28 979.52 1003.28 979.55 1003.28 979.61C1003.27 980.188 1002.97 980.738 1002.46 981.14C1001.95 981.543 1001.26 981.765 1000.55 981.76C970.89 981.567 925.957 981.443 865.75 981.39C860.177 981.383 853.513 981.457 845.76 981.61C831.72 981.88 817.93 981.78 804.27 982.23C770.243 983.33 731.327 983.757 687.52 983.51C685.7 983.497 682.03 983.633 676.51 983.92C672.483 984.127 668.813 984.25 665.5 984.29C664.033 984.303 657.7 984.363 646.5 984.47C644.333 984.49 643.073 983.81 642.72 982.43C642.633 982.097 642.423 981.897 642.09 981.83C641.083 981.61 639.887 981.497 638.5 981.49C629.68 981.43 603.937 981.4 561.27 981.4C559.59 981.4 559.38 981.83 558.14 982.43C557.807 982.597 557.373 982.677 556.84 982.67C540.127 982.577 520.04 982.557 496.58 982.61C495.547 982.61 494.23 982.343 492.63 981.81C490.797 981.19 488.67 980.883 486.25 980.89C445.063 981.07 339.067 981.19 168.26 981.25C163.647 981.25 156.987 981.277 148.28 981.33C123.967 981.47 81.6567 981.607 21.35 981.74C19.7233 981.74 18.96 980.973 19.06 979.44C19.06 979.427 19.0567 979.387 19.05 979.32C18.9633 977.853 19.7067 977.12 21.28 977.12L105.73 977.07C106.59 977.07 106.633 976.883 105.86 976.51ZM676.7 226.37C676.16 226.717 675.897 226.943 675.91 227.05C676.017 227.95 676.367 228.047 676.96 227.34C677.127 227.14 677.187 226.883 677.14 226.57C677.093 226.283 676.947 226.217 676.7 226.37ZM596.53 531.58C595.797 532.4 595.443 533.377 595.47 534.51C595.77 546.85 594.86 558.33 587.67 568.1C584.717 572.12 580.997 574.497 576.51 575.23C576.137 575.29 575.953 575.507 575.96 575.88C575.98 581.267 576.45 585.613 577.37 588.92C579 594.78 583.95 597.88 590 597.04C598.3 595.89 606.2 590.45 612.73 584.71C622.663 575.997 631.873 565.793 640.36 554.1C643.84 549.3 646.29 545.89 647.71 543.87C648.102 543.31 648.311 542.643 648.31 541.96C648.303 502.793 648.36 476.14 648.48 462C648.493 461.027 647.933 460.773 646.8 461.24C646.556 461.341 646.34 461.499 646.17 461.7C643.91 464.35 642.1 466.49 639.5 468.65C634.367 472.89 627.91 476.72 620.13 480.14C610.023 484.58 599.73 488.35 589.25 491.45C588.954 491.536 588.692 491.713 588.5 491.955C588.308 492.196 588.197 492.492 588.18 492.8C587.65 501.53 579.62 508.67 570.84 506.67C563.413 504.977 559.367 500.363 558.7 492.83C558.487 490.497 558.893 488.157 559.92 485.81C562.81 479.2 569.94 475.9 576.85 477.63C581.777 478.857 585.09 481.68 586.79 486.1C586.937 486.473 587.203 486.607 587.59 486.5C600.517 482.933 612.743 478.277 624.27 472.53C630.877 469.23 636.587 464.85 641.4 459.39C641.476 459.306 641.529 459.204 641.554 459.094C641.579 458.983 641.575 458.869 641.543 458.76C641.511 458.652 641.451 458.553 641.37 458.475C641.289 458.396 641.189 458.339 641.08 458.31C638.893 457.71 636.567 456.58 634.1 454.92C622.22 446.92 615.483 435.92 613.89 421.92C612.92 413.38 614.27 405.36 617.55 397.54C618.057 396.333 618.307 394.763 618.3 392.83C618.253 382.93 618.453 371.717 618.9 359.19C618.907 358.863 618.787 358.6 618.54 358.4C617.8 357.793 616.533 356.867 614.74 355.62C606.12 349.62 600.623 341.813 598.25 332.2C596.37 324.58 597.02 313.94 599.31 306.32C600.017 303.973 600.863 301.347 601.85 298.44C602.103 297.693 601.907 297.547 601.26 298C575.48 316.17 546.39 327.42 514.75 328.81C506.977 329.157 499.733 329.123 493.02 328.71C477.4 327.75 462.51 324.127 448.35 317.84C448.03 317.693 447.823 317.79 447.73 318.13C445.683 325.383 444.227 332.967 443.36 340.88C442.3 350.54 441.37 363.273 440.57 379.08C439.263 404.8 438.41 421.78 438.01 430.02C437.26 445.7 436.42 457.41 440.36 470.11C443.253 479.417 447.763 488.89 453.89 498.53C465.9 517.4 484.48 531.63 505.74 539.55C518.667 544.37 532.333 545.407 546.74 542.66C563.26 539.507 578.677 534.743 592.99 528.37C594.397 527.743 595.573 527.943 596.52 528.97C596.846 529.326 597.028 529.79 597.03 530.273C597.031 530.756 596.853 531.222 596.53 531.58ZM649.52 456.39C649.498 456.426 649.485 456.466 649.482 456.508C649.479 456.549 649.485 456.591 649.5 456.63C649.516 456.668 649.54 456.703 649.571 456.731C649.603 456.759 649.64 456.779 649.68 456.79C652.513 457.517 655.367 457.79 658.24 457.61C673.68 456.657 684.987 449.7 692.16 436.74C698.267 425.7 699.427 414.43 695.64 402.93C691.847 391.443 684.887 383.257 674.76 378.37C666.073 374.177 657.207 373.343 648.16 375.87C631.3 380.58 620.08 394.7 618.44 412.02C617.107 426.173 621.597 438.003 631.91 447.51C635.157 450.503 639.28 452.943 644.28 454.83C644.338 454.853 644.402 454.855 644.463 454.835C644.523 454.815 644.575 454.774 644.61 454.72C648.403 448.52 651.347 441.77 653.44 434.47C653.467 434.378 653.474 434.281 653.461 434.186C653.449 434.091 653.417 434 653.367 433.918C653.317 433.836 653.251 433.766 653.172 433.711C653.093 433.656 653.004 433.618 652.91 433.6C650.057 433.007 647.527 431.63 645.32 429.47C639.2 423.48 637.7 414.95 641.51 407.27C644.26 401.72 650.35 397.96 656.29 397.44C672.18 396.06 681.86 414.17 672.52 426.81C670 430.22 665.66 433.55 661.18 434.18C660.533 434.273 659.993 434.387 659.56 434.52C659.409 434.565 659.271 434.644 659.157 434.752C659.042 434.859 658.954 434.992 658.9 435.14C657.44 439.093 656.083 442.657 654.83 445.83C653.437 449.377 651.667 452.897 649.52 456.39ZM652.63 546.64C651.98 547.63 650.48 548.66 649.61 549.93C638.71 565.76 626.29 580.85 611.15 592.39C605.33 596.82 597.92 601.29 590.45 601.98C576.71 603.27 571.49 592.72 570.93 580.77C570.683 575.523 570.543 570.013 570.51 564.24C570.503 563.42 570.247 563.33 569.74 563.97C563.32 572.057 557.617 580.657 552.63 589.77C550.51 593.643 550.137 598.027 551.51 602.92C555.41 616.807 560.027 631.093 565.36 645.78C565.473 646.093 565.59 646.093 565.71 645.78C569.123 636.52 573.433 627.643 578.64 619.15C582.62 612.67 590.37 604.19 599.13 606.12C605.67 607.56 611.14 612.89 614.97 618.59C617.163 621.85 619.907 626.09 623.2 631.31C625.353 634.717 627.177 636.977 628.67 638.09C633.84 641.93 642 634.63 645.48 631.22C650.107 626.707 654.03 622.383 657.25 618.25C665.837 607.223 673.7 595.34 680.84 582.6C683.89 577.16 693.46 560.97 689.74 555.8C679.113 541.06 667.28 527.77 654.24 515.93C653.673 515.417 653.393 515.543 653.4 516.31C653.473 523.163 653.48 531.63 653.42 541.71C653.41 543.44 653.59 545.19 652.63 546.64ZM364.51 893.23C364.714 893.168 364.898 893.055 365.042 892.902C365.186 892.749 365.286 892.562 365.33 892.36C365.563 891.333 365.683 890.733 365.69 890.56C366.083 883.04 369.457 877.553 375.81 874.1C392.28 865.16 402.1 881.08 406.9 893.77C407.187 894.53 407.727 895.017 408.52 895.23C414.4 896.81 419.633 899.66 424.22 903.78C427.213 906.467 428.357 909.933 427.65 914.18C426.89 918.76 425.577 922.607 423.71 925.72C423.523 926.033 423.513 926.353 423.68 926.68C423.84 927 424.687 928.407 426.22 930.9C429.433 936.133 431.303 941.813 431.83 947.94C431.863 948.34 432.073 948.537 432.46 948.53L447.67 948.43C448.117 948.423 448.457 948.243 448.69 947.89C460.157 930.423 471.977 912.747 484.15 894.86C485.4 893.02 486.45 892.17 487.57 890.73C487.753 890.491 487.858 890.201 487.87 889.9L496.67 667.25C496.737 665.457 497.54 664.707 499.08 665C499.14 665.013 499.177 665.017 499.19 665.01C500.71 664.97 501.443 665.763 501.39 667.39C501.077 677.057 500.31 696.85 499.09 726.77C495.797 807.523 493.537 865.35 492.31 900.25C491.997 909.103 491.89 917.343 491.99 924.97C491.997 925.317 492.17 925.463 492.51 925.41C498.117 924.59 501.7 923.723 503.26 922.81C511.373 918.063 519.623 914.877 528.01 913.25C531.79 912.517 535.277 912.29 538.47 912.57C546.277 913.263 553.667 915.363 560.64 918.87C574.04 925.61 587 934.22 599.52 944.7C599.82 944.947 600.17 945.15 600.57 945.31C600.983 945.477 601.38 945.55 601.76 945.53C616.48 944.63 627.83 943.68 638.24 942.06C638.384 942.037 638.52 941.978 638.635 941.889C638.75 941.8 638.842 941.683 638.9 941.55C640.94 936.93 643.06 933.57 647.94 931.67C649.63 931.02 651.65 931.33 653.43 930.67C689.477 917.217 725.653 903.593 761.96 889.8C762.157 889.725 762.322 889.586 762.429 889.406C762.536 889.226 762.579 889.016 762.55 888.81L742.48 736.15C742.421 735.696 742.516 735.236 742.75 734.843C742.984 734.451 743.344 734.15 743.77 733.99C745.643 733.29 746.843 733.887 747.37 735.78C749.263 742.56 751.23 748.97 753.27 755.01C773.85 816.07 785.76 851.247 789 860.54C790.493 864.827 792.06 869.033 793.7 873.16C793.735 873.253 793.793 873.336 793.868 873.402C793.943 873.467 794.033 873.513 794.13 873.535C794.228 873.557 794.329 873.554 794.425 873.527C794.521 873.5 794.608 873.449 794.68 873.38C797.613 870.647 801.007 869.087 804.86 868.7C805.018 868.684 805.166 868.617 805.282 868.509C805.398 868.4 805.474 868.256 805.5 868.1C806.46 861.913 809.49 856.81 814.59 852.79C817.463 850.53 820.473 848.717 823.62 847.35C830.38 844.41 837.813 841.633 845.92 839.02C847.22 838.607 848.233 839.01 848.96 840.23L849.32 840.83C849.452 841.051 849.517 841.304 849.511 841.571C849.505 841.838 849.427 842.112 849.284 842.375C849.141 842.637 848.936 842.881 848.683 843.089C848.43 843.298 848.135 843.465 847.82 843.58C846.513 844.06 840.693 846.157 830.36 849.87C822.31 852.76 814.15 857.95 811.18 866.26C811.147 866.361 811.143 866.47 811.168 866.574C811.193 866.678 811.246 866.772 811.322 866.848C811.397 866.923 811.492 866.977 811.596 867.002C811.7 867.027 811.808 867.023 811.91 866.99C824.85 862.55 833.7 859.02 845.25 856.86C846.837 856.56 847.887 857.253 848.4 858.94C848.413 858.987 848.423 859.02 848.43 859.04C848.703 860.593 848.043 861.54 846.45 861.88C837.403 863.833 828.883 866.42 820.89 869.64C819.89 870.04 819.897 870.42 820.91 870.78C830.137 874.08 838.63 878.797 846.39 884.93C848.657 886.723 851.39 889.507 854.59 893.28C856.35 895.353 857.627 897.193 858.42 898.8C859.04 900.06 858.68 901.087 857.34 901.88C857.34 901.88 857.31 901.893 857.25 901.92C856.687 902.235 856.024 902.32 855.399 902.158C854.773 901.996 854.233 901.599 853.89 901.05C849.157 893.43 842.29 887.07 833.29 881.97C825.13 877.35 818.013 874.49 811.94 873.39C806.24 872.35 801.083 873.98 796.47 878.28C795.49 879.19 795.23 880.29 794.48 881.71C793.36 883.83 791.42 884.05 788.82 885.04C744.273 901.98 698.23 919.267 650.69 936.9C648.503 937.707 647.067 938.623 646.38 939.65C643.947 943.29 643.127 947.683 643.92 952.83C645.14 960.79 646.837 969.29 649.01 978.33C649.137 978.85 649.467 979.117 650 979.13C658.693 979.33 666.55 979.41 673.57 979.37C725.317 979.063 777.603 978.343 830.43 977.21C839.357 977.017 845.907 976.533 850.08 975.76C856.36 974.607 862.687 972.703 869.06 970.05C884.287 963.717 895.42 953.2 902.46 938.5C905.787 931.567 908.163 923.713 909.59 914.94C912.25 898.66 912.26 881.44 907.44 865.96C903.267 852.58 897.86 836.943 891.22 819.05C877.887 783.123 862.04 744.307 843.68 702.6C836.133 685.46 828.32 669.803 820.24 655.63C812.213 641.537 804.147 629.963 796.04 620.91C773.953 596.237 746.9 578.89 714.88 568.87C707.927 566.697 701.617 565.177 695.95 564.31C695.662 564.265 695.367 564.326 695.119 564.48C694.872 564.634 694.687 564.872 694.6 565.15C693.693 568.003 692.6 570.72 691.32 573.3C682.893 590.267 673.283 605.747 662.49 619.74C658.283 625.193 653.933 630.087 649.44 634.42C643.12 640.53 633.22 648.23 625.56 641.91C623.2 639.963 621.27 637.773 619.77 635.34C616.563 630.16 613.677 625.64 611.11 621.78C608.19 617.38 604.947 614.17 601.38 612.15C596.14 609.17 590.25 612.3 586.92 616.46C578.84 626.56 573.71 638.06 569.27 650.51C568.44 652.84 566.69 654.56 564.18 652.8C562.993 651.967 562.1 650.82 561.5 649.36C557.16 638.787 552.12 623.303 546.38 602.91C545.307 599.117 545.35 595.68 546.51 592.6C546.757 591.94 546.583 591.803 545.99 592.19C521.017 608.383 500.083 628.797 483.19 653.43C476.63 662.99 470.847 672.377 465.84 681.59C454.293 702.823 441.077 728.2 426.19 757.72C402.85 803.98 388.757 832.12 383.91 842.14C370.13 870.613 362.92 885.507 362.28 886.82C361.133 889.173 359.827 891.757 358.36 894.57C358.153 894.97 358.263 895.107 358.69 894.98L364.51 893.23ZM334.14 898.8C334.143 898.827 334.152 898.853 334.166 898.876C334.181 898.899 334.2 898.919 334.224 898.933C334.247 898.948 334.273 898.957 334.3 898.96C334.327 898.962 334.354 898.959 334.38 898.95C339.667 896.73 344.083 893.487 347.63 889.22C349.17 887.36 349.887 885.797 349.78 884.53C345.807 839.397 341.573 792.387 337.08 743.5C333.92 709.047 330.417 669.793 326.57 625.74C326.49 624.82 326.29 623.89 325.97 622.95C325.866 622.64 325.658 622.375 325.38 622.2C320.24 618.98 315.89 618.68 309.19 618.67C308.823 618.67 308.657 618.853 308.69 619.22L334.14 898.8ZM228.57 735.57C228.897 736.01 229.07 736.503 229.09 737.05C229.203 739.703 230.237 755.303 232.19 783.85C232.403 786.997 230.983 788.56 227.93 788.54C214.85 788.447 201.01 788.443 186.41 788.53C186.206 788.53 186.007 788.6 185.847 788.729C185.687 788.858 185.575 789.038 185.53 789.24L160.07 900.76C160.064 900.786 160.064 900.813 160.07 900.839C160.075 900.865 160.087 900.889 160.103 900.91C160.119 900.931 160.14 900.948 160.164 900.96C160.187 900.972 160.213 900.979 160.24 900.98L328.21 900.9C328.843 900.9 329.133 900.587 329.08 899.96L303.37 619.31C303.337 618.97 303.147 618.8 302.8 618.8H70.04C69.6533 618.8 69.4767 618.993 69.51 619.38L95.47 900.45C95.4822 900.569 95.5379 900.68 95.6263 900.761C95.7148 900.842 95.83 900.888 95.95 900.89L103.97 900.86C104.323 900.86 104.543 900.683 104.63 900.33C127.877 803.137 139.77 753.307 140.31 750.84C142.24 742.04 145.85 735.61 155.33 734.09C156.85 733.85 160.833 733.72 167.28 733.7C204.153 733.587 223.147 733.503 224.26 733.45C226.02 733.363 227.457 734.07 228.57 735.57ZM845.06 691.69C845.153 692.07 845.26 692.277 845.38 692.31C845.353 692.003 845.247 691.797 845.06 691.69ZM846.18 693.97C846.193 693.997 846.24 694.107 846.32 694.3C846.387 694.46 846.427 694.453 846.44 694.28C846.453 694.12 846.407 693.993 846.3 693.9C846.113 693.753 846.073 693.777 846.18 693.97ZM848.417 698.849C848.449 698.834 848.415 698.68 848.323 698.418C848.231 698.157 848.089 697.811 847.928 697.456C847.849 697.28 847.767 697.108 847.687 696.948C847.607 696.788 847.532 696.644 847.464 696.525C847.397 696.406 847.339 696.313 847.294 696.252C847.249 696.192 847.218 696.164 847.203 696.171C847.171 696.186 847.205 696.34 847.297 696.601C847.389 696.862 847.531 697.209 847.692 697.564C847.771 697.739 847.853 697.912 847.933 698.072C848.013 698.232 848.088 698.375 848.156 698.495C848.223 698.614 848.281 698.707 848.326 698.767C848.371 698.828 848.402 698.856 848.417 698.849ZM850.39 703.23C850.397 703.41 850.453 703.533 850.56 703.6C850.577 703.608 850.596 703.611 850.614 703.607C850.632 703.604 850.649 703.595 850.662 703.582C850.676 703.569 850.684 703.552 850.688 703.534C850.691 703.516 850.688 703.497 850.68 703.48C850.48 703.107 850.383 703.023 850.39 703.23ZM855.87 715.76C855.817 716.007 855.883 716.16 856.07 716.22C856.183 716.253 856.227 716.213 856.2 716.1C856.053 715.513 855.943 715.4 855.87 715.76ZM856.79 717.7C856.79 718.033 856.88 718.27 857.06 718.41C857.153 718.49 857.197 718.47 857.19 718.35C857.163 717.79 857.03 717.573 856.79 717.7ZM858 719.98C857.56 719.26 857.537 719.413 857.93 720.44C857.935 720.469 857.952 720.495 857.976 720.512C858.001 720.529 858.031 720.535 858.06 720.53C858.089 720.525 858.115 720.508 858.132 720.484C858.149 720.459 858.155 720.429 858.15 720.4C858.15 720.28 858.1 720.14 858 719.98ZM858.39 721.37C858.43 721.47 858.483 721.547 858.55 721.6C858.637 721.667 858.667 721.647 858.64 721.54C858.547 721.167 858.467 721.02 858.4 721.1C858.347 721.18 858.343 721.27 858.39 721.37ZM859.9 724.89C859.92 724.97 859.943 725.037 859.97 725.09C860.277 725.703 860.35 725.66 860.19 724.96C860.163 724.847 860.127 724.763 860.08 724.71C859.9 724.517 859.84 724.577 859.9 724.89ZM862.726 731.197C862.757 731.184 862.688 730.936 862.533 730.509C862.378 730.082 862.15 729.51 861.9 728.919C861.776 728.626 861.649 728.338 861.529 728.07C861.408 727.802 861.295 727.561 861.196 727.358C861.097 727.156 861.014 726.998 860.952 726.892C860.89 726.786 860.85 726.735 860.834 726.742C860.803 726.756 860.872 727.003 861.027 727.431C861.182 727.858 861.41 728.43 861.66 729.021C861.784 729.313 861.911 729.602 862.031 729.87C862.152 730.137 862.265 730.379 862.364 730.581C862.463 730.784 862.546 730.942 862.608 731.048C862.67 731.153 862.71 731.204 862.726 731.197ZM864.157 734.52C864.176 734.511 864.178 734.464 864.162 734.38C864.147 734.295 864.114 734.176 864.065 734.029C864.017 733.882 863.954 733.71 863.881 733.522C863.807 733.335 863.724 733.135 863.636 732.936C863.46 732.533 863.274 732.153 863.122 731.88C862.969 731.607 862.862 731.463 862.823 731.48C862.804 731.488 862.802 731.536 862.818 731.62C862.833 731.704 862.866 731.823 862.915 731.97C862.963 732.118 863.026 732.29 863.099 732.478C863.173 732.665 863.256 732.865 863.344 733.064C863.52 733.467 863.706 733.847 863.858 734.12C864.011 734.393 864.118 734.537 864.157 734.52ZM864.43 735.24C864.39 735.44 864.43 735.58 864.55 735.66C864.65 735.72 864.69 735.693 864.67 735.58C864.57 735.04 864.49 734.927 864.43 735.24ZM865.664 738.018C865.682 738.011 865.689 737.977 865.685 737.92C865.681 737.862 865.666 737.782 865.641 737.683C865.615 737.584 865.58 737.468 865.536 737.343C865.493 737.218 865.443 737.085 865.389 736.953C865.334 736.821 865.277 736.691 865.22 736.571C865.163 736.452 865.107 736.345 865.056 736.257C865.004 736.168 864.959 736.1 864.921 736.056C864.883 736.013 864.855 735.994 864.836 736.001C864.818 736.009 864.811 736.042 864.815 736.1C864.819 736.157 864.834 736.238 864.859 736.337C864.885 736.436 864.92 736.551 864.964 736.676C865.007 736.802 865.057 736.934 865.111 737.067C865.166 737.199 865.223 737.329 865.28 737.448C865.337 737.568 865.393 737.675 865.444 737.763C865.496 737.852 865.541 737.92 865.579 737.963C865.617 738.007 865.645 738.026 865.664 738.018ZM870.818 750.176C870.839 750.167 870.794 750.005 870.686 749.697C870.578 749.39 870.409 748.944 870.188 748.385C869.968 747.826 869.701 747.164 869.402 746.438C869.103 745.712 868.779 744.936 868.446 744.154C867.776 742.574 867.117 741.067 866.613 739.962C866.11 738.858 865.804 738.247 865.762 738.264C865.741 738.273 865.786 738.435 865.894 738.742C866.002 739.05 866.171 739.496 866.392 740.055C866.612 740.614 866.879 741.276 867.178 742.002C867.477 742.728 867.801 743.504 868.133 744.286C868.804 745.866 869.463 747.373 869.967 748.478C870.47 749.582 870.776 750.193 870.818 750.176ZM193.71 740.12C193.753 740.059 193.779 739.988 193.784 739.914C193.79 739.84 193.776 739.766 193.742 739.701C193.709 739.636 193.659 739.581 193.596 739.544C193.534 739.507 193.463 739.488 193.39 739.49C185.723 739.623 174.12 739.687 158.58 739.68C155.533 739.673 153.507 739.88 152.5 740.3C148.09 742.15 146.36 746.96 145.27 751.52C135.31 793.407 123.44 843.113 109.66 900.64C109.649 900.683 109.649 900.727 109.658 900.77C109.667 900.813 109.686 900.853 109.713 900.888C109.739 900.923 109.774 900.951 109.813 900.97C109.853 900.989 109.896 901 109.94 901L154.45 900.89C154.75 900.89 154.933 900.743 155 900.45C158.367 886.097 169.763 836.297 189.19 751.05C190.263 746.337 191.77 742.693 193.71 740.12ZM227.11 783.45C227.142 783.45 227.172 783.437 227.195 783.415C227.217 783.392 227.23 783.362 227.23 783.33L224.14 740.44C224.13 740.282 224.061 740.133 223.946 740.023C223.831 739.914 223.679 739.852 223.52 739.85C220.747 739.817 215.27 739.763 207.09 739.69C201.137 739.637 197.24 742.217 195.4 747.43C194.687 749.457 194.15 751.253 193.79 752.82C192.243 759.54 189.983 769.573 187.01 782.92C186.93 783.28 187.077 783.46 187.45 783.46L227.11 783.45ZM912.58 862.56C912.587 862.567 912.597 862.57 912.61 862.57L912.86 862.49C912.947 862.463 912.977 862.407 912.95 862.32C907.323 844.033 901.123 826.08 894.35 808.46C886.23 787.32 878.45 767.973 871.01 750.42C870.923 750.207 870.843 750.17 870.77 750.31L870.76 750.32C870.707 750.427 870.693 750.517 870.72 750.59C874.44 759.45 879.647 772.32 886.34 789.2C896.267 814.247 905.013 838.7 912.58 862.56ZM913.656 866.741C913.676 866.736 913.685 866.686 913.683 866.595C913.681 866.503 913.668 866.372 913.644 866.208C913.62 866.043 913.585 865.85 913.543 865.638C913.5 865.426 913.45 865.2 913.396 864.972C913.285 864.513 913.163 864.077 913.056 863.76C912.949 863.442 912.866 863.269 912.825 863.279C912.804 863.284 912.795 863.333 912.797 863.425C912.799 863.516 912.812 863.648 912.836 863.812C912.86 863.976 912.895 864.17 912.937 864.382C912.98 864.594 913.03 864.82 913.084 865.047C913.195 865.506 913.317 865.943 913.424 866.26C913.531 866.578 913.614 866.751 913.656 866.741ZM914.137 869.231C914.179 869.225 914.205 869.114 914.209 868.922C914.213 868.73 914.195 868.474 914.159 868.208C914.141 868.077 914.119 867.947 914.094 867.827C914.069 867.707 914.043 867.598 914.015 867.507C913.988 867.416 913.96 867.345 913.934 867.297C913.908 867.249 913.884 867.226 913.863 867.229C913.821 867.235 913.795 867.346 913.791 867.538C913.787 867.729 913.805 867.986 913.841 868.252C913.859 868.383 913.881 868.513 913.906 868.633C913.931 868.753 913.957 868.862 913.985 868.953C914.012 869.044 914.04 869.115 914.066 869.163C914.092 869.21 914.116 869.233 914.137 869.231ZM392.9 910.47C395.753 913.863 400.697 920.52 407.73 930.44C408.27 931.2 409.037 931.813 410.03 932.28C410.317 932.42 410.613 932.443 410.92 932.35C412.407 931.91 412.95 930.81 412.55 929.05C409.483 915.67 405.397 903.127 400.29 891.42C397.06 884.03 391.18 873.73 381.22 877.1C377.5 878.353 374.5 880.747 372.22 884.28C372.007 884.609 371.899 884.996 371.912 885.389C371.924 885.782 372.056 886.163 372.29 886.48C374.037 888.833 375.723 890.91 377.35 892.71C383.123 899.103 388.307 905.023 392.9 910.47ZM915.94 878.51C916.033 878.81 916.113 878.81 916.18 878.51C916.233 878.277 916.22 878.07 916.14 877.89C915.853 877.203 915.76 877.233 915.86 877.98C915.9 878.28 915.927 878.457 915.94 878.51ZM357.97 927.21C359.343 926.13 360.773 926.4 362.26 928.02L381.11 948.48C381.163 948.54 381.223 948.57 381.29 948.57C386.41 948.483 390.697 948.48 394.15 948.56C394.17 948.559 394.189 948.554 394.205 948.544C394.222 948.533 394.236 948.519 394.245 948.501C394.254 948.484 394.259 948.465 394.258 948.445C394.257 948.425 394.251 948.406 394.24 948.39C388.313 940.15 383.433 933.74 379.6 929.16C377.113 926.193 373.99 923.237 370.23 920.29C369.023 919.343 368.887 918.323 369.82 917.23L370.34 916.63C371.367 915.43 372.467 915.3 373.64 916.24C383.93 924.46 392.26 936.32 400.06 947.36C400.283 947.677 400.578 947.935 400.921 948.114C401.264 948.294 401.644 948.388 402.03 948.39L412.78 948.43C412.819 948.429 412.858 948.418 412.891 948.397C412.924 948.377 412.952 948.348 412.97 948.313C412.988 948.278 412.997 948.239 412.995 948.2C412.994 948.161 412.981 948.123 412.96 948.09C401.02 928.823 387.573 911.113 372.62 894.96C372.37 894.69 372.04 894.18 371.81 893.77C371.57 893.343 371.343 893.35 371.13 893.79C368.64 898.96 361.05 898.69 356.52 901.07C344.99 907.12 337.21 919.08 339.66 932.08C340.88 938.52 344.667 943.79 351.02 947.89C351.96 948.497 353.367 948.747 355.24 948.64C361.387 948.3 367.303 948.33 372.99 948.73C373.029 948.731 373.068 948.72 373.101 948.7C373.135 948.68 373.162 948.652 373.179 948.617C373.196 948.583 373.202 948.545 373.197 948.509C373.192 948.472 373.176 948.437 373.15 948.41C367.857 941.77 362.643 935.85 357.51 930.65C356.363 929.49 356.44 928.403 357.74 927.39L357.97 927.21ZM474.84 938.53C474.67 931.73 480.58 928.21 486.54 926.93C486.685 926.898 486.815 926.819 486.909 926.705C487.004 926.591 487.057 926.448 487.06 926.3L487.38 899.76C487.387 899.153 487.22 899.103 486.88 899.61L454.33 948.05C454.3 948.097 454.283 948.152 454.281 948.208C454.279 948.265 454.292 948.32 454.318 948.37C454.345 948.42 454.384 948.462 454.431 948.491C454.479 948.521 454.534 948.538 454.59 948.54L470.42 948.42C470.753 948.42 471.027 948.287 471.24 948.02C472.793 946.12 474.62 944.507 476.72 943.18C476.781 943.141 476.834 943.09 476.874 943.029C476.914 942.969 476.941 942.9 476.954 942.829C476.966 942.757 476.963 942.684 476.945 942.613C476.927 942.543 476.895 942.477 476.85 942.42C475.77 941.04 474.88 940.26 474.84 938.53ZM417.58 925.61C420.18 921.777 421.897 917.543 422.73 912.91C422.91 911.903 422.897 910.987 422.69 910.16C421.67 906.09 414.44 902.51 410.5 900.98C409.88 900.74 409.68 900.933 409.9 901.56C412.227 908.113 414.473 915.71 416.64 924.35C416.76 924.843 417.01 925.273 417.39 925.64C417.404 925.651 417.42 925.659 417.438 925.664C417.455 925.669 417.474 925.67 417.492 925.667C417.51 925.664 417.527 925.658 417.542 925.648C417.557 925.638 417.57 925.625 417.58 925.61ZM150.68 944.6C147.76 939.49 147.71 933.72 148.93 927.94C150.39 920.98 152.037 913.787 153.87 906.36C153.882 906.305 153.881 906.247 153.868 906.192C153.855 906.137 153.83 906.086 153.795 906.042C153.759 905.998 153.714 905.962 153.663 905.938C153.612 905.913 153.557 905.9 153.5 905.9L108.81 905.95C108.671 905.951 108.536 905.999 108.427 906.086C108.318 906.173 108.241 906.294 108.21 906.43C105.717 916.83 102.96 928.09 99.94 940.21C98.02 947.93 98.5 956.38 101.2 963.69C102.4 966.943 103.933 969.357 105.8 970.93C110.86 975.21 115.04 974.85 122.62 974.84C128.68 974.84 175.903 974.807 264.29 974.74C267.25 974.74 269.19 974.54 270.11 974.14C274.27 972.34 276.65 967.76 275.67 963.23C274.13 956.12 266.82 952.38 259.9 952.36C237.48 952.313 210.923 952.33 180.23 952.41C174.957 952.423 169.887 952.303 165.02 952.05C158.85 951.74 153.7 949.88 150.68 944.6ZM916.32 908.23C916.347 908.17 916.337 907.947 916.29 907.56C916.223 906.96 916.123 906.95 915.99 907.53C915.977 907.57 915.953 907.727 915.92 908C915.827 908.847 915.96 908.923 916.32 908.23ZM915.83 910.83L915.94 910.14C915.993 909.793 915.93 909.767 915.75 910.06C915.563 910.373 915.483 910.59 915.51 910.71C915.643 911.343 915.75 911.383 915.83 910.83ZM538.85 927.15C539.237 928.71 538.55 929.667 536.79 930.02C519.237 933.533 502.957 938.683 487.95 945.47C487.51 945.663 487.53 945.733 488.01 945.68C490.67 945.367 493.147 944.93 495.44 944.37C502.76 942.577 513.437 939.853 527.47 936.2C529.48 935.68 534.42 934.17 533.89 938.48C533.856 938.766 533.746 939.038 533.572 939.269C533.398 939.499 533.166 939.679 532.9 939.79C531.92 940.203 530.507 940.647 528.66 941.12C512.7 945.233 503.423 947.647 500.83 948.36C500.77 948.38 500.743 948.467 500.75 948.62C500.757 948.753 500.823 948.817 500.95 948.81C515.177 948.617 528.113 949.09 539.76 950.23C546.82 950.92 552.12 953.08 557.26 957.18C558.073 957.833 559.507 958.593 561.56 959.46C580.89 967.59 591.42 972.02 602.81 975.32C604.837 975.9 607.673 976.19 611.32 976.19C624.3 976.183 634.763 976.163 642.71 976.13C642.787 976.129 642.862 976.111 642.93 976.077C642.999 976.043 643.059 975.994 643.105 975.933C643.151 975.872 643.183 975.801 643.198 975.726C643.213 975.651 643.21 975.574 643.19 975.5C640.943 966.227 639.36 956.897 638.44 947.51C638.407 947.197 638.23 947.06 637.91 947.1C627.243 948.467 616.48 949.433 605.62 950C601.44 950.22 599.06 950.65 596.36 948.43C585.833 939.77 575.143 932.373 564.29 926.24C560.39 924.04 556.067 922.037 551.32 920.23C541.747 916.59 532.12 916.387 522.44 919.62C509 924.11 497.95 931.54 486.74 939.74C486.12 940.193 486.163 940.27 486.87 939.97C495.597 936.257 504.123 933.15 512.45 930.65C516.443 929.45 524.187 927.56 535.68 924.98C537.107 924.653 538.153 925.343 538.82 927.05C538.827 927.063 538.837 927.097 538.85 927.15ZM487.1 933.36C488.76 932.02 489.633 931.31 489.72 931.23C490.073 930.903 490.023 930.79 489.57 930.89C488.21 931.183 486.837 931.65 485.45 932.29C482.54 933.64 480.08 934.55 479.77 937.71C479.763 937.8 479.782 937.891 479.824 937.971C479.866 938.052 479.929 938.119 480.007 938.166C480.084 938.212 480.173 938.236 480.264 938.235C480.355 938.234 480.443 938.208 480.52 938.16C483.253 936.287 485.447 934.687 487.1 933.36ZM419.01 931.31C417.343 934.077 415.293 936.01 412.86 937.11C412.527 937.257 412.447 937.473 412.62 937.76L418.58 947.66C418.719 947.889 418.912 948.079 419.141 948.209C419.369 948.338 419.624 948.404 419.88 948.4L426.52 948.29C426.92 948.29 427.087 948.09 427.02 947.69C426.053 941.943 424.077 936.807 421.09 932.28C420.837 931.9 420.393 931.517 419.76 931.13C419.453 930.937 419.203 930.997 419.01 931.31ZM293.42 955.66C290.107 958.44 288.34 962.213 288.12 966.98C287.987 969.793 288.047 972.26 288.3 974.38C288.38 975.06 288.763 975.4 289.45 975.4L557.76 975.29C557.81 975.29 557.859 975.28 557.905 975.26C557.951 975.24 557.992 975.211 558.026 975.174C558.06 975.137 558.085 975.094 558.102 975.047C558.118 975 558.124 974.95 558.12 974.9C557.9 971.927 557.273 968.96 556.24 966C553.54 958.28 546.62 956.08 539.25 955.28C530.963 954.387 522.963 953.873 515.25 953.74C498.93 953.467 488.777 953.33 484.79 953.33C406.043 953.337 344.793 953.317 301.04 953.27C297.88 953.263 295.34 954.06 293.42 955.66ZM890.38 963.38C890.71 963.04 891.12 962.89 891.47 962.5C891.89 962.027 891.837 961.98 891.31 962.36C891.09 962.52 890.78 962.86 890.38 963.38C890.373 963.38 890.373 963.38 890.38 963.38ZM561.91 964.84C561.869 964.824 561.825 964.82 561.782 964.827C561.738 964.835 561.698 964.854 561.665 964.883C561.632 964.912 561.608 964.949 561.595 964.991C561.581 965.033 561.58 965.077 561.59 965.12C562.53 968.547 563.1 972.053 563.3 975.64C563.32 975.96 563.49 976.123 563.81 976.13L590.76 976.66C591.12 976.667 591.133 976.59 590.8 976.43C589.987 976.037 588.367 975.483 585.94 974.77C584.373 974.31 582.793 973.747 581.2 973.08C574.4 970.247 567.97 967.5 561.91 964.84Z" fill="#000000"/>
<path d="M466.729 353.629L449.458 356.799C445.226 357.575 442.425 361.635 443.202 365.867L443.343 366.634C444.119 370.866 448.179 373.667 452.411 372.89L469.682 369.72C473.914 368.944 476.715 364.883 475.938 360.652L475.797 359.885C475.021 355.653 470.961 352.852 466.729 353.629Z" fill="#000000"/>
<path d="M562.122 357.941L545.556 354.6C541.371 353.756 537.294 356.465 536.45 360.65L536.288 361.454C535.444 365.639 538.153 369.715 542.338 370.559L558.904 373.899C563.089 374.743 567.166 372.035 568.01 367.85L568.172 367.046C569.016 362.861 566.307 358.784 562.122 357.941Z" fill="#000000"/>
<path d="M460.771 392.542L460.052 392.516C456.1 392.378 452.784 395.47 452.646 399.422L452.063 416.132C451.925 420.084 455.017 423.4 458.969 423.538L459.688 423.563C463.64 423.701 466.956 420.609 467.094 416.657L467.677 399.947C467.815 395.995 464.723 392.68 460.771 392.542Z" fill="#000000"/>
<path d="M544.6 394.387L543.9 394.359C540.026 394.203 536.76 397.218 536.604 401.091L535.908 418.418C535.753 422.291 538.767 425.558 542.641 425.714L543.34 425.742C547.214 425.897 550.481 422.883 550.636 419.009L551.332 401.683C551.488 397.809 548.473 394.543 544.6 394.387Z" fill="#000000"/>
<path d="M487.43 450.63C488.077 452.95 489.687 454.777 492.26 456.11C496.753 458.437 501.473 458.87 506.42 457.41C506.76 457.309 507.119 457.289 507.468 457.351C507.817 457.414 508.146 457.557 508.43 457.77C509.997 458.957 510.103 460.234 508.75 461.6C507.963 462.4 506.547 462.884 504.5 463.05C496.54 463.71 487.45 461.65 483.47 454.4C482.283 452.254 481.857 449.907 482.19 447.36C482.94 441.47 487.05 438.59 491.6 434.56C497.93 428.96 500.72 421.14 501.02 412.56C501.207 407.107 501.077 402.244 500.63 397.97C500.47 396.39 501.163 395.54 502.71 395.42C502.75 395.42 502.78 395.42 502.8 395.42C504.367 395.34 505.233 396.04 505.4 397.52C506.42 406.467 506.157 414.577 504.61 421.85C503.18 428.54 499.6 434.44 494.29 438.94C490.56 442.1 485.99 445.44 487.43 450.63Z" fill="#000000"/>
<path d="M518.15 485.89C519.85 484.89 521.4 483.4 523.68 481.28C524.86 480.187 526.013 480.26 527.14 481.5C527.153 481.52 527.177 481.544 527.21 481.57C528.343 482.737 528.28 483.954 527.02 485.22C516.32 496.01 501.71 497.23 487.73 492.25C484.95 491.257 483.11 490.19 482.21 489.05C481.957 488.73 481.84 488.367 481.86 487.96C481.927 486.714 482.577 485.807 483.81 485.24C484.123 485.1 484.437 485.107 484.75 485.26C487.143 486.427 489.047 487.28 490.46 487.82C500.347 491.594 509.577 490.95 518.15 485.89Z" fill="#000000"/>
<path d="M242.234 701.105C244.227 720.726 258.336 735.363 273.749 733.797C289.161 732.232 300.04 715.057 298.046 695.435C296.053 675.814 281.944 661.177 266.531 662.743C251.119 664.308 240.241 681.484 242.234 701.105Z" fill="#000000"/>
<path d="M260.75 882.27C260.677 884.377 260.49 886.37 260.19 888.25C259.49 892.6 255.68 893.03 253.57 889.45C251.857 886.55 250.563 884.253 249.69 882.56C249.263 881.746 249.03 881.797 248.99 882.71L248.68 890.17C248.607 891.93 247.673 892.66 245.88 892.36C245.82 892.353 245.783 892.35 245.77 892.35C244.083 892.236 243.283 891.21 243.37 889.27C243.697 882.31 243.9 876.9 243.98 873.04C243.987 872.733 244.143 872.323 244.45 871.81C245.99 869.21 248.73 869.78 250.32 872.13C251.987 874.596 253.457 877.326 254.73 880.32C255.15 881.313 255.393 881.237 255.46 880.09C255.467 879.97 255.577 878.106 255.79 874.5C255.93 872.033 257.087 870.937 259.26 871.21C260.76 871.403 261.983 872.476 262.93 874.43C265.083 878.863 266.487 881.667 267.14 882.84C267.34 883.207 267.46 883.183 267.5 882.77C267.74 879.943 267.85 877.467 267.83 875.34C267.823 874.547 268.12 873.666 268.72 872.7C270.047 870.553 271.813 870.42 274.02 872.3C274.8 872.973 276.747 875.983 279.86 881.33C280.04 881.637 280.133 881.613 280.14 881.26C280.16 880.686 280.127 878.953 280.04 876.06C279.987 874.233 280.097 873.04 280.37 872.48C281.077 871.08 282.38 870.546 284.28 870.88C284.607 870.94 284.883 871.093 285.11 871.34C287.39 873.85 288.4 877.05 290.29 880.62C290.557 881.126 290.71 881.093 290.75 880.52C290.89 878.5 290.33 870.31 292.98 869.35C295.34 868.49 297.13 870.4 298.2 872.3C299.98 875.46 301.59 878.516 303.03 881.47C303.383 882.203 303.627 882.17 303.76 881.37C304.3 878.13 305.157 875.093 306.33 872.26C306.93 870.813 307.963 870.456 309.43 871.19C309.477 871.21 309.507 871.223 309.52 871.23C310.927 871.97 311.43 873.13 311.03 874.71C310.797 875.623 309.643 880.14 307.57 888.26C306.91 890.833 305.257 891.567 302.61 890.46C301.71 890.087 300.8 888.993 299.88 887.18C298.013 883.526 296.8 881.183 296.24 880.15C295.6 878.977 295.283 879.06 295.29 880.4C295.31 884.15 295.18 888.53 294.06 890.6C293.867 890.953 293.64 891.177 293.38 891.27C292.4 891.63 291.387 891.71 290.34 891.51C289.687 891.376 289.043 890.753 288.41 889.64C287.21 887.513 286.243 885.366 285.51 883.2C285.29 882.553 285.15 882.57 285.09 883.25C284.877 885.723 284.44 887.826 283.78 889.56C282.91 891.87 281.36 892.09 279.34 891.12C278.82 890.866 278.357 890.38 277.95 889.66C276.097 886.373 274.413 883.486 272.9 881C272.367 880.126 272.13 880.2 272.19 881.22C272.343 883.86 272.107 886.466 271.48 889.04C270.68 892.29 269.21 894.02 265.76 892.01C264.82 891.47 263.85 889.876 262.85 887.23C262.45 886.17 261.887 884.5 261.16 882.22C260.913 881.433 260.777 881.45 260.75 882.27Z" fill="#000000"/>
</g>
<defs>
<clipPath id="clip0_93_2903">
<rect width="1024" height="1024" fill="none"/>
</clipPath>
</defs>
</svg>
