<svg width="1024" height="676" viewBox="0 216 1024 676" fill="none" xmlns="http://www.w3.org/2000/svg">
<g clip-path="url(#clip0_93_4501)">
<rect width="1024" height="1024" fill="none"/>
<path d="M1024 845.41V849.66C965.833 849.747 907.667 849.807 849.5 849.84C827.88 849.853 804.797 850.057 780.25 850.45C779.17 850.47 777.213 850.663 774.38 851.03C774.314 851.037 774.252 851.062 774.199 851.102C774.146 851.141 774.104 851.195 774.078 851.256C774.052 851.318 774.042 851.386 774.049 851.453C774.056 851.52 774.081 851.585 774.12 851.64L774.28 851.86C774.587 852.287 775 852.483 775.52 852.45C781.073 852.137 786.057 852.2 790.47 852.64C791.75 852.767 792.297 853.467 792.11 854.74C791.977 855.667 791.64 856.503 791.1 857.25C790.788 857.689 790.352 858.024 789.847 858.211C789.342 858.399 788.793 858.43 788.27 858.3L786.09 857.76C785.766 857.681 785.43 857.664 785.1 857.71C780.57 858.33 776.45 857.97 772.01 858.04C758.83 858.247 746.407 858.377 734.74 858.43C731.65 858.44 728.38 858.29 725.44 858.51C720.38 858.89 715.057 858.957 709.47 858.71C708.157 858.65 707.817 858.047 708.45 856.9L709.26 855.42C709.753 854.533 710.507 854.057 711.52 853.99L734.04 852.55C734.887 852.497 735.05 852.137 734.53 851.47C734.097 850.923 733.19 850.647 731.81 850.64C671.53 850.16 609.35 850.047 545.27 850.3C545.103 850.3 545.017 850.38 545.01 850.54V850.55C545.003 850.71 545.08 850.8 545.24 850.82C557.02 851.873 569.82 852.223 583.64 851.87C585.213 851.83 585.747 852.557 585.24 854.05C585.033 854.643 584.623 855.21 584.01 855.75C582.783 856.843 581.35 857.383 579.71 857.37C547.89 857.19 515.29 857.463 481.91 858.19C480.563 858.217 479.9 857.557 479.92 856.21C479.927 855.99 479.93 855.783 479.93 855.59C479.963 853.923 480.813 853.073 482.48 853.04C489.14 852.907 495.487 852.597 501.52 852.11C503.147 851.977 503.22 851.567 501.74 850.88C500.76 850.433 499.623 850.243 498.33 850.31C487.33 850.88 476.44 850.36 465.64 850.42C456.033 850.48 446.067 850.507 435.74 850.5C428.807 850.5 422.143 850.53 415.75 850.59C388.417 850.843 361.087 850.853 333.76 850.62C332.313 850.607 330.733 850.737 329.02 851.01C328.433 851.103 328.083 851.363 327.97 851.79C327.877 852.15 328.013 852.337 328.38 852.35C336.58 852.69 345.237 852.887 354.35 852.94C355.917 852.947 356.39 853.67 355.77 855.11L355.3 856.21C354.767 857.47 353.817 858.137 352.45 858.21C347.38 858.5 342.06 858.19 337.04 858.22C313.273 858.393 289.313 858.757 265.16 859.31C263.447 859.35 262.743 858.523 263.05 856.83C263.097 856.563 263.127 856.4 263.14 856.34C263.44 854.693 264.423 853.9 266.09 853.96C269.917 854.093 274.073 853.95 278.56 853.53C282.69 853.14 286.58 853.09 290.72 853.02C291.147 853.013 291.293 852.81 291.16 852.41C291.053 852.097 290.837 851.897 290.51 851.81C288.203 851.223 285.977 850.927 283.83 850.92C270.543 850.9 257.69 850.903 245.27 850.93C243.23 850.93 241.33 850.56 239.3 850.72C238.02 850.82 236.717 850.87 235.39 850.87C208.763 850.917 182.133 851 155.5 851.12C115.667 851.307 75.8333 851.387 36 851.36C24 851.353 12 851.353 0 851.36V846.29L280.25 845.95C280.83 845.95 280.907 845.753 280.48 845.36C274.07 839.48 270.15 832.48 269.13 823.92C268.817 821.253 268.47 818.71 268.09 816.29C267.697 813.763 267.53 811.23 267.59 808.69C267.67 805.577 267.8 802.337 267.98 798.97C268.207 794.79 268.837 790.07 269.87 784.81C269.943 784.43 269.88 784.073 269.68 783.74C269.19 782.89 268.49 782.32 268.1 781.38C265.24 774.44 264.53 769.18 264.6 762.22C264.607 761.713 264.357 761.47 263.85 761.49C260.977 761.57 257.977 761.693 254.85 761.86C246.78 762.28 239.68 758.83 239.2 749.86C238.747 741.387 238.673 732.643 238.98 723.63C238.986 723.43 239.058 723.237 239.185 723.083C239.312 722.929 239.486 722.822 239.68 722.78C240.407 722.607 241.273 722.677 242.28 722.99C242.927 723.67 243.283 724.403 243.35 725.19C243.557 727.65 243.81 730.07 244.11 732.45C244.119 732.509 244.145 732.564 244.186 732.608C244.226 732.652 244.278 732.683 244.336 732.696C244.394 732.71 244.455 732.707 244.511 732.686C244.567 732.665 244.615 732.628 244.65 732.58C245.98 730.66 248.6 728.46 251.07 729.69C254.11 731.217 255.12 733.64 254.1 736.96C252.91 740.85 248.31 741.9 245.48 739.02C245.213 738.746 245.035 738.398 244.97 738.02C244.897 737.627 244.73 737.277 244.47 736.97C244.07 736.49 243.89 736.563 243.93 737.19C244.2 741.64 244.02 746.07 244.95 750.45C245.77 754.33 248.703 756.297 253.75 756.35C255.443 756.37 257.163 756.41 258.91 756.47C260.4 756.52 261.8 756.06 263.26 755.89C263.652 755.845 264.011 755.647 264.26 755.339C264.508 755.03 264.627 754.636 264.59 754.24C264.3 751.13 263.95 748.27 264.26 744.98C264.907 738.12 265.063 731.117 264.73 723.97C264.717 723.63 264.543 723.45 264.21 723.43L242.74 721.94C237.99 722.09 232.31 721.69 229.6 717.62C225.87 712.02 230.35 704.87 236.7 705.11C242.053 705.323 247.017 705.573 251.59 705.86C251.943 705.887 252.097 705.723 252.05 705.37C251.11 697.47 250.27 689.223 249.53 680.63C248.11 664.263 246.87 649.687 245.81 636.9C245.803 636.785 245.752 636.677 245.669 636.597C245.585 636.518 245.475 636.472 245.36 636.47C239.76 636.363 234.623 636.4 229.95 636.58C226.97 636.69 223.63 634.7 222.71 631.8C221.77 628.85 223.48 624.08 227.05 623.73C232.45 623.217 238.047 623.06 243.84 623.26C243.939 623.264 244.038 623.246 244.13 623.207C244.222 623.169 244.305 623.111 244.372 623.038C244.439 622.965 244.49 622.878 244.521 622.784C244.552 622.689 244.562 622.589 244.55 622.49C243.97 617.19 243.81 612.01 243.17 606.54C242.07 597.17 241.31 587.85 240.49 578.6C239.203 563.947 238.023 549.91 236.95 536.49C236.803 534.663 236.6 532.89 236.34 531.17C235.35 524.62 235.12 517.97 234.02 511.69C233.28 507.47 235.43 504.64 239.6 504.44C246.66 504.087 253.073 503.927 258.84 503.96C258.919 503.962 258.997 503.947 259.07 503.917C259.143 503.887 259.209 503.843 259.264 503.787C259.319 503.731 259.362 503.664 259.391 503.591C259.419 503.517 259.433 503.439 259.43 503.36C259.277 499.013 259.233 494.533 259.3 489.92C259.32 488.67 258.83 487.47 258.92 486.29C259.087 484.103 259.11 481.86 258.99 479.56C258.81 476.293 260.24 474.617 263.28 474.53C263.372 474.528 263.461 474.502 263.54 474.455C263.618 474.409 263.683 474.342 263.729 474.263C263.774 474.183 263.798 474.093 263.798 474.002C263.798 473.91 263.775 473.82 263.73 473.74C261.883 470.407 262.68 467.903 266.12 466.23C266.8 465.897 267.287 465.36 267.58 464.62C267.697 464.326 267.895 464.072 268.152 463.886C268.408 463.7 268.713 463.591 269.03 463.57C276.823 463.037 284.67 462.483 292.57 461.91C300.05 461.36 307.44 460.09 315.22 459.79C315.59 459.777 315.941 459.619 316.195 459.349C316.45 459.08 316.588 458.721 316.58 458.35C316.44 452.78 317.02 447.08 316.74 441.47C316.62 439.18 317.17 437.06 317.2 434.76C317.327 424.213 317.687 414.807 318.28 406.54C318.367 405.34 319.247 404.73 320.92 404.71C321.327 404.71 321.66 404.87 321.92 405.19C322.027 405.33 322.15 405.453 322.29 405.56C322.563 405.767 322.87 405.88 323.21 405.9C327.43 406.227 332.533 406.47 338.52 406.63C346.38 406.83 355.127 407.133 364.76 407.54C376.64 408.04 387.693 408.407 397.92 408.64C399.967 408.687 402.17 408.837 404.53 409.09C407.53 409.42 410.46 409.07 413.48 409.44C415.7 409.713 417.863 409.817 419.97 409.75C422.223 409.69 424.367 409.77 426.4 409.99C428.76 410.243 431.19 410.257 433.69 410.03C436.79 409.74 440.19 411.38 439.7 414.97C439.56 415.977 439.503 416.973 439.53 417.96C439.737 425.613 439.74 433.733 439.54 442.32C439.533 442.7 439.72 442.9 440.1 442.92C451.8 443.387 463.397 443.563 474.89 443.45C475.403 443.45 475.66 443.19 475.66 442.67C475.693 427.723 475.66 412.083 475.56 395.75C475.49 384.87 477.1 374.23 480.91 363.96C485.277 352.22 491.523 341.907 499.65 333.02C502.01 330.447 505.247 327.483 509.36 324.13C512.773 321.343 516.083 319.07 519.29 317.31C528.59 312.183 537.303 308.45 545.43 306.11C550.743 304.577 557.453 303.17 565.56 301.89C571.347 300.983 577.913 300.257 585.26 299.71C597.073 298.837 607.78 298.343 617.38 298.23C623.22 298.163 629.25 297.973 635.47 297.66C636.677 297.593 637.847 297.69 638.98 297.95C639.084 297.974 639.193 297.974 639.297 297.951C639.402 297.927 639.5 297.881 639.584 297.815C639.669 297.749 639.737 297.665 639.785 297.569C639.833 297.473 639.858 297.367 639.86 297.26C640.007 287.827 640.327 277.147 640.82 265.22C640.94 262.3 641.4 259.46 641.49 256.58C641.757 247.787 642.217 239.5 642.87 231.72C642.885 231.526 642.837 231.332 642.733 231.166C642.628 231.001 642.473 230.872 642.29 230.8C637.41 228.84 634.033 224.93 632.16 219.07C631.687 217.59 631.523 216.12 631.67 214.66C631.88 212.51 631.63 210.45 632.33 208.3C637.47 192.57 660.31 192.92 664.17 209.22C665.103 213.16 664.807 217.15 663.28 221.19C662.26 223.89 658.78 229.21 655.65 229.93C655.417 229.983 655.223 230.113 655.07 230.32C654.93 230.507 654.853 230.73 654.84 230.99C653.713 253.763 652.803 275.98 652.11 297.64C652.097 297.993 652.27 298.167 652.63 298.16C676.43 297.68 698.61 306.02 717.78 320.22C719.573 321.547 722.55 324.337 726.71 328.59C730.77 332.74 734.27 337.59 737.71 342.18C742.34 348.37 746.94 356.19 749.72 363.39C751.693 368.49 753.177 373.063 754.17 377.11C755.67 383.223 756.59 388.947 756.93 394.28C757.103 396.967 757.29 399.627 757.49 402.26C758.09 410.07 757.81 417.97 757.91 425.82C757.94 428.41 757.34 430.6 757.5 433.33C757.8 438.77 757.763 445.187 757.39 452.58C757.11 458.107 756.933 467.837 756.86 481.77C756.827 487.503 756.71 493.943 756.51 501.09C756.33 507.583 756.253 513.99 756.28 520.31C756.307 526.39 756.217 532.667 756.01 539.14C755.817 545.107 755.73 551.407 755.75 558.04C755.75 558.493 755.973 558.74 756.42 558.78C760.81 559.2 764.66 559.61 768.35 562.18C781.96 571.66 783.74 589.85 780.28 604.98C777.56 616.91 768.5 627.49 756.2 630.04C755.553 630.173 755.233 630.57 755.24 631.23C755.4 642.337 755.413 653.297 755.28 664.11C755.13 676.36 751 686.82 745.3 696.44C741.66 702.59 737.38 706.68 732.39 711.27C731.703 711.903 731.827 712.207 732.76 712.18C741.053 711.913 750.503 711.787 761.11 711.8C761.877 711.8 762.55 712 763.13 712.4C767.117 715.207 768.137 718.787 766.19 723.14C765.84 723.93 765.3 724.79 765.78 725.69C766.693 727.363 767.21 728.993 767.33 730.58C767.597 734.033 767.68 738.057 767.58 742.65C767.5 746.5 766.02 749.21 765.09 752.78C763.89 757.35 758.58 761 753.9 760.64C752 760.487 750.037 760.63 748.01 761.07C747.904 761.097 747.803 761.141 747.71 761.2C747.077 761.6 746.907 762.073 747.2 762.62C747.262 762.733 747.356 762.825 747.471 762.885C747.587 762.946 747.718 762.972 747.85 762.96C753.57 762.44 760.46 762.377 768.52 762.77C773.693 763.017 778.687 764.007 783.5 765.74C789.3 767.84 793.05 771.39 795.33 776.92C799.52 787.07 800.21 797.65 799.87 808.92C799.46 822.67 796.21 835.62 785.54 844.74C784.647 845.5 784.787 845.88 785.96 845.88L1024 845.41ZM648.398 226.488C651.461 226.429 654.373 225.067 656.494 222.703C658.615 220.338 659.771 217.164 659.708 213.878C659.677 212.252 659.347 210.647 658.738 209.155C658.129 207.663 657.252 206.314 656.157 205.184C655.063 204.054 653.772 203.166 652.359 202.57C650.946 201.975 649.439 201.683 647.922 201.712C644.859 201.771 641.947 203.133 639.826 205.497C637.705 207.862 636.549 211.036 636.612 214.322C636.643 215.949 636.973 217.554 637.582 219.046C638.191 220.537 639.068 221.887 640.163 223.016C641.257 224.146 642.548 225.034 643.961 225.63C645.374 226.225 646.881 226.517 648.398 226.488ZM648.764 232.43C648.771 232.234 648.701 232.043 648.568 231.899C648.435 231.755 648.25 231.669 648.054 231.661L647.834 231.653C647.638 231.645 647.447 231.715 647.303 231.848C647.158 231.981 647.073 232.166 647.065 232.362L644.456 297.31C644.449 297.506 644.519 297.697 644.652 297.841C644.785 297.986 644.97 298.071 645.166 298.079L645.386 298.088C645.582 298.096 645.773 298.025 645.917 297.892C646.062 297.759 646.147 297.574 646.155 297.378L648.764 232.43ZM743.22 437.59C737.57 437 737 428.27 743.08 427.81C746.033 427.59 748.99 427.47 751.95 427.45C752.033 427.45 752.113 427.417 752.173 427.357C752.233 427.297 752.267 427.216 752.27 427.13C753.02 401.97 751.1 373.85 737.27 352.5C729.25 340.11 720.18 328.8 708.13 320.69C698.42 314.15 687.74 308.53 676.24 305.94C668.58 304.21 661.45 303.44 653.23 303.32C628.87 302.967 604.537 303.623 580.23 305.29C572.977 305.79 565.043 306.917 556.43 308.67C540.243 311.957 525.897 318.5 513.39 328.3C507.697 332.767 502.987 337.573 499.26 342.72C488.52 357.55 481.83 375.02 481.72 393.26C481.66 402.01 481.53 410.76 481.55 419.5C481.617 443.027 481.59 467.193 481.47 492C481.43 500.24 481.327 508.193 481.16 515.86C481.153 516.2 481.317 516.367 481.65 516.36C490.117 516.147 500.9 516.127 514 516.3C522.013 516.413 535.783 516.383 555.31 516.21C574.62 516.04 594.64 515.45 613.5 515.32C627.06 515.23 640.91 514.51 653.79 514.47C659.67 514.46 665.03 514.18 670.66 514.19C678.047 514.21 685.657 514.13 693.49 513.95C694.21 513.93 694.913 513.933 695.6 513.96C701.98 514.227 708.03 514.213 713.75 513.92C714.99 513.86 716.053 513.823 716.94 513.81C726.207 513.69 735.393 513.457 744.5 513.11C746.527 513.037 748.343 513.037 749.95 513.11C750.059 513.116 750.168 513.099 750.27 513.062C750.372 513.025 750.466 512.968 750.545 512.894C750.625 512.82 750.688 512.731 750.732 512.633C750.776 512.534 750.799 512.428 750.8 512.32L752.41 438.01C752.413 437.914 752.395 437.818 752.355 437.73C752.316 437.642 752.258 437.563 752.184 437.5C752.111 437.437 752.024 437.391 751.929 437.365C751.835 437.339 751.736 437.334 751.64 437.35C748.893 437.81 746.087 437.89 743.22 437.59ZM321.13 499.84C321.129 499.899 321.143 499.957 321.172 500.009C321.201 500.06 321.243 500.103 321.294 500.133C321.345 500.162 321.404 500.178 321.463 500.177C321.522 500.177 321.579 500.161 321.63 500.13L321.92 499.97C322.333 499.73 322.56 499.373 322.6 498.9C323.42 488.85 322.9 478.99 323.35 469.06C323.85 457.74 324.02 446.75 324.64 435.44C325.067 427.627 325.403 419.86 325.65 412.14C325.656 411.934 325.592 411.733 325.471 411.568C325.35 411.403 325.177 411.284 324.98 411.23C324.82 411.183 324.657 411.177 324.49 411.21C324.181 411.269 323.901 411.433 323.697 411.673C323.494 411.913 323.378 412.215 323.37 412.53C322.99 425.82 322.26 439.94 322 452.99C321.7 467.83 321.16 483.77 321.13 499.84ZM363.46 448.12C364.67 443.19 369.9 433.75 376.46 438.64C376.753 438.86 377.08 438.957 377.44 438.93C379.45 438.79 381.05 438.3 383.17 438.63C387.497 439.303 391.7 439.653 395.78 439.68C397.287 439.693 398.927 439.853 400.7 440.16C404.21 440.78 407.79 440.6 411.41 441.1C416.14 441.75 421.04 441.62 425.78 441.86C425.909 441.867 426.038 441.847 426.159 441.803C426.28 441.758 426.391 441.689 426.484 441.6C426.578 441.511 426.652 441.404 426.703 441.286C426.754 441.167 426.78 441.039 426.78 440.91L426.79 417.99C426.79 417.057 426.323 416.577 425.39 416.55C419.103 416.403 412.89 416.107 406.75 415.66C401.017 415.247 394.973 414.937 388.62 414.73C377.673 414.377 366.853 413.893 356.16 413.28C354.01 413.16 351.94 413.35 349.9 413.06C348.313 412.84 346.687 412.717 345.02 412.69C339.933 412.617 335.027 412.29 330.3 411.71C330.212 411.699 330.124 411.706 330.039 411.731C329.954 411.757 329.876 411.8 329.809 411.857C329.742 411.915 329.688 411.986 329.65 412.065C329.613 412.145 329.592 412.232 329.59 412.32L328.19 458.8C328.187 458.897 328.204 458.993 328.239 459.083C328.274 459.174 328.326 459.256 328.393 459.326C328.46 459.396 328.54 459.451 328.629 459.49C328.718 459.528 328.813 459.549 328.91 459.55C336.53 459.69 344.16 460.7 351.78 460.69C354.593 460.683 357.47 460.7 360.41 460.74C361.43 460.753 361.96 460.253 362 459.24C362.147 455.193 362.633 451.487 363.46 448.12ZM433.575 417.578C433.575 417.487 433.556 417.398 433.52 417.314C433.485 417.231 433.434 417.155 433.369 417.092C433.304 417.028 433.228 416.978 433.144 416.944C433.06 416.91 432.97 416.893 432.879 416.894L431.379 416.907C431.289 416.908 431.199 416.927 431.116 416.962C431.032 416.997 430.957 417.049 430.893 417.113C430.83 417.178 430.78 417.255 430.746 417.339C430.712 417.423 430.695 417.512 430.695 417.603L430.905 441.582C430.905 441.673 430.924 441.762 430.96 441.846C430.995 441.929 431.046 442.005 431.111 442.068C431.176 442.132 431.252 442.182 431.336 442.216C431.42 442.25 431.51 442.267 431.601 442.266L433.101 442.253C433.191 442.252 433.281 442.234 433.364 442.198C433.448 442.163 433.523 442.111 433.587 442.047C433.65 441.982 433.7 441.906 433.734 441.822C433.768 441.738 433.785 441.648 433.785 441.557L433.575 417.578ZM383.56 444.93C382.833 444.897 382.57 445.23 382.77 445.93L383.63 448.95C383.72 449.277 383.911 449.568 384.176 449.783C384.442 449.998 384.768 450.126 385.11 450.15C405.877 451.55 425.86 452.783 445.06 453.85C449.753 454.11 454.713 454.28 459.94 454.36C464.88 454.433 469.85 454.687 474.85 455.12C475.323 455.16 475.56 454.943 475.56 454.47L475.55 450.46C475.55 449.973 475.307 449.723 474.82 449.71C457.407 449.383 446.13 449.057 440.99 448.73C431.837 448.143 422.687 447.613 413.54 447.14C404.58 446.68 393.89 445.33 383.56 444.93ZM372.7 452.81C374.26 452.5 375.33 453.53 375.73 454.93C376.983 459.297 377.6 463.57 377.58 467.75C377.56 474.63 377.43 481.19 376.81 487.84C376.63 489.847 376.607 492.033 376.74 494.4C376.767 494.847 377.007 495.07 377.46 495.07L379.75 495.04C380.237 495.04 380.48 494.793 380.48 494.3C380.487 488.72 380.553 483.7 380.68 479.24C381 467.86 380.94 455.72 374.99 445.75C374.877 445.56 374.72 445.398 374.533 445.279C374.346 445.16 374.134 445.086 373.913 445.064C373.692 445.041 373.469 445.071 373.262 445.15C373.055 445.229 372.869 445.356 372.72 445.52C370.89 447.5 369.21 449.68 369.01 452.51C368.91 453.93 368.753 455.353 368.54 456.78C368.54 456.793 368.547 456.8 368.56 456.8L368.82 456.84C368.86 456.847 368.887 456.83 368.9 456.79C369.613 454.497 370.88 453.17 372.7 452.81ZM472.56 460.1C445.407 459.2 416.863 457.83 386.93 455.99C385.517 455.903 384.99 456.547 385.35 457.92L385.62 458.97C385.762 459.516 386.071 460.003 386.504 460.363C386.936 460.724 387.47 460.939 388.03 460.98C398.77 461.773 409.25 462.48 419.47 463.1C436.58 464.13 453.48 464.46 471.27 464.96C472.41 464.993 473.54 465.103 474.66 465.29C475.253 465.39 475.553 465.137 475.56 464.53L475.6 460.47C475.607 459.897 475.333 459.677 474.78 459.81C473.9 460.023 473.16 460.12 472.56 460.1ZM368.25 458.24C368.11 458.627 368.117 459.02 368.27 459.42C368.39 459.733 368.52 459.74 368.66 459.44C368.86 459.013 368.853 458.603 368.64 458.21C368.493 457.937 368.363 457.947 368.25 458.24ZM368.31 495.48L370.63 495.43C370.731 495.428 370.831 495.405 370.923 495.364C371.016 495.323 371.099 495.264 371.169 495.191C371.238 495.117 371.293 495.031 371.329 494.936C371.365 494.842 371.383 494.741 371.38 494.64L371.37 494.49C371.155 485.687 370.785 477.248 370.343 471.028C369.9 464.808 369.421 461.316 369.01 461.32L368.25 461.33C367.841 461.385 367.535 464.913 367.399 471.144C367.262 477.375 367.305 485.801 367.52 494.58V494.73C367.523 494.831 367.545 494.931 367.586 495.023C367.627 495.116 367.686 495.199 367.76 495.269C367.833 495.338 367.919 495.393 368.014 495.429C368.108 495.465 368.209 495.483 368.31 495.48ZM361.447 467.097C361.451 467.028 361.427 466.96 361.381 466.909C361.335 466.858 361.271 466.827 361.202 466.823L328.37 465.045C328.336 465.043 328.302 465.048 328.269 465.059C328.237 465.07 328.207 465.088 328.182 465.111C328.157 465.134 328.136 465.161 328.121 465.192C328.106 465.223 328.098 465.256 328.096 465.29L327.853 469.784C327.849 469.853 327.873 469.92 327.919 469.971C327.965 470.023 328.029 470.054 328.098 470.057L360.93 471.836C360.964 471.837 360.998 471.832 361.031 471.821C361.063 471.81 361.093 471.792 361.118 471.769C361.143 471.747 361.164 471.719 361.179 471.688C361.194 471.657 361.202 471.624 361.204 471.59L361.447 467.097ZM316.13 470.05L316.4 466.22C316.404 466.139 316.392 466.058 316.362 465.983C316.333 465.907 316.288 465.839 316.231 465.782C316.173 465.726 316.104 465.682 316.028 465.654C315.952 465.626 315.871 465.614 315.79 465.62C302.257 466.787 287.657 468.02 271.99 469.32C270.997 469.4 270.03 469.62 269.09 469.98C268.637 470.153 268.41 470.48 268.41 470.96L268.42 473.25C268.42 473.777 268.68 474.05 269.2 474.07C276.053 474.33 282.4 474.103 288.24 473.39C297.2 472.29 305.95 470.75 315.34 470.78C315.833 470.78 316.097 470.537 316.13 470.05ZM467.63 474.48C470.063 474.393 472.473 474.4 474.86 474.5C475.227 474.513 475.403 474.337 475.39 473.97L475.25 470.54C475.249 470.489 475.237 470.439 475.216 470.393C475.195 470.347 475.165 470.305 475.128 470.271C475.091 470.236 475.047 470.209 474.999 470.192C474.951 470.175 474.901 470.167 474.85 470.17C470.71 470.343 465.67 470.303 459.73 470.05C432.19 468.897 408.277 467.767 387.99 466.66C386.817 466.6 386.21 467.157 386.17 468.33L386.1 470.23C386.053 471.543 386.687 472.217 388 472.25C397.567 472.49 406.79 472.943 415.67 473.61C417.95 473.783 420.477 473.837 423.25 473.77C429.67 473.63 435.8 473.5 442.43 473.98C451.09 474.607 459.49 474.773 467.63 474.48ZM328.55 474.98C328.336 474.969 328.126 475.043 327.965 475.185C327.804 475.327 327.705 475.526 327.69 475.74L327.51 478.52C327.496 478.734 327.567 478.946 327.707 479.108C327.847 479.271 328.046 479.372 328.26 479.39L359.82 481.91C359.928 481.918 360.036 481.905 360.139 481.871C360.241 481.837 360.336 481.784 360.418 481.713C360.5 481.642 360.567 481.556 360.615 481.46C360.664 481.363 360.692 481.258 360.7 481.15L360.96 477.34C360.967 477.232 360.952 477.123 360.916 477.02C360.88 476.917 360.825 476.823 360.752 476.742C360.68 476.661 360.592 476.595 360.493 476.549C360.395 476.502 360.289 476.475 360.18 476.47L328.55 474.98ZM264.64 484.77L313.62 479.83C314.033 479.79 314.27 479.563 314.33 479.15L314.68 476.97C314.703 476.822 314.692 476.672 314.649 476.529C314.606 476.386 314.531 476.254 314.43 476.144C314.329 476.034 314.205 475.947 314.067 475.891C313.928 475.835 313.779 475.811 313.63 475.82C306.703 476.187 299.51 476.963 292.05 478.15C285.623 479.17 276.557 479.63 264.85 479.53C264.762 479.53 264.677 479.565 264.613 479.626C264.55 479.688 264.513 479.772 264.51 479.86L264.36 484.5C264.358 484.538 264.365 484.575 264.379 484.61C264.392 484.645 264.413 484.677 264.44 484.702C264.467 484.728 264.498 484.747 264.533 484.759C264.567 484.771 264.604 484.775 264.64 484.77ZM411.21 483.29C412.363 483.67 413.56 483.953 414.8 484.14C415.54 484.247 416 483.937 416.18 483.21L417.02 479.76C417.18 479.093 416.923 478.743 416.25 478.71L387.55 477.18C387.01 477.147 386.733 477.403 386.72 477.95L386.62 481.49C386.607 482.123 386.913 482.463 387.54 482.51C391.133 482.77 394.853 482.903 398.7 482.91C401.05 482.91 402.89 483.61 405.06 484.18C405.333 484.253 405.607 484.257 405.88 484.19C407.65 483.75 409.38 482.68 411.21 483.29ZM473.18 479.41C462.613 479.617 450.537 479.117 436.95 477.91C433.41 477.6 429.64 477.72 426.08 477.78C425.577 477.789 425.083 477.923 424.643 478.171C424.203 478.419 423.831 478.773 423.56 479.2L422.53 480.84C421.957 481.747 422.207 482.223 423.28 482.27C433.62 482.697 443.937 483.21 454.23 483.81C459.51 484.117 464.933 484.293 470.5 484.34C471.88 484.353 473.27 484.537 474.67 484.89C474.74 484.907 474.813 484.907 474.883 484.892C474.953 484.876 475.019 484.846 475.075 484.801C475.132 484.757 475.178 484.701 475.21 484.637C475.242 484.573 475.259 484.502 475.26 484.43L475.37 479.78C475.377 479.407 475.197 479.243 474.83 479.29C474.25 479.357 473.7 479.397 473.18 479.41ZM331.73 486.81C331.92 486.751 332.09 486.64 332.22 486.49L332.84 485.75C332.97 485.597 333.053 485.41 333.082 485.211C333.11 485.012 333.082 484.81 333.001 484.626C332.92 484.442 332.788 484.285 332.622 484.173C332.455 484.06 332.261 483.997 332.06 483.99L328.8 483.89C328.659 483.886 328.52 483.91 328.388 483.96C328.257 484.01 328.137 484.086 328.034 484.182C327.932 484.279 327.85 484.395 327.793 484.523C327.735 484.651 327.704 484.79 327.7 484.93L327.65 486.62C327.645 486.792 327.681 486.962 327.755 487.116C327.83 487.271 327.94 487.406 328.078 487.508C328.215 487.611 328.375 487.68 328.544 487.708C328.713 487.736 328.887 487.723 329.05 487.67L331.73 486.81ZM270.33 493.49C270.538 493.535 270.73 493.636 270.886 493.783C271.041 493.929 271.153 494.115 271.21 494.32L273.21 501.67C273.377 502.277 273.773 502.553 274.4 502.5L314.9 499.05C315.307 499.017 315.503 498.797 315.49 498.39C315.323 493.883 315.483 489.57 315.97 485.45C315.99 485.274 315.971 485.095 315.913 484.927C315.855 484.759 315.76 484.606 315.636 484.479C315.511 484.353 315.36 484.256 315.192 484.195C315.025 484.135 314.847 484.113 314.67 484.13L264.9 489.11C264.818 489.118 264.741 489.157 264.686 489.22C264.63 489.283 264.599 489.365 264.6 489.45L264.7 493.53C264.703 493.62 264.728 493.708 264.772 493.787C264.816 493.865 264.879 493.932 264.955 493.981C265.03 494.03 265.117 494.06 265.206 494.069C265.296 494.077 265.386 494.064 265.47 494.03C267.177 493.343 268.797 493.163 270.33 493.49ZM346.09 488.68C347.337 488.813 348.577 488.89 349.81 488.91C352.103 488.937 355.713 489.18 360.64 489.64C361.26 489.7 361.613 489.42 361.7 488.8L361.78 488.17C361.798 488.038 361.788 487.904 361.751 487.776C361.713 487.648 361.649 487.53 361.562 487.428C361.476 487.326 361.368 487.243 361.247 487.185C361.126 487.127 360.994 487.095 360.86 487.09C354.84 486.923 348.67 486.19 342.35 484.89C339.963 484.403 338.133 485.093 336.86 486.96C336.804 487.044 336.769 487.141 336.76 487.242C336.75 487.343 336.766 487.445 336.806 487.538C336.845 487.632 336.908 487.714 336.987 487.777C337.066 487.84 337.16 487.882 337.26 487.9C338.893 488.213 340.527 488.387 342.16 488.42C343.42 488.447 344.73 488.533 346.09 488.68ZM401.87 492.28C402.082 492.271 402.284 492.185 402.437 492.037C402.589 491.89 402.683 491.692 402.7 491.48L402.88 488.96C402.888 488.844 402.873 488.728 402.835 488.618C402.798 488.508 402.739 488.407 402.661 488.32C402.584 488.233 402.49 488.163 402.385 488.113C402.28 488.063 402.166 488.035 402.05 488.03L387.87 487.43C387.752 487.425 387.635 487.443 387.525 487.484C387.415 487.526 387.314 487.589 387.229 487.67C387.144 487.752 387.076 487.849 387.03 487.958C386.984 488.066 386.96 488.182 386.96 488.3V492.04C386.96 492.158 386.984 492.274 387.03 492.383C387.076 492.491 387.144 492.589 387.229 492.67C387.314 492.751 387.415 492.814 387.525 492.856C387.635 492.897 387.752 492.916 387.87 492.91L401.87 492.28ZM417.68 489.05L418.41 491.69C418.514 492.078 418.748 492.42 419.073 492.658C419.399 492.896 419.796 493.017 420.2 493C427.92 492.69 435.74 492.17 443.58 492.09C453.653 491.997 463.79 491.753 473.99 491.36C474.39 491.347 474.603 491.137 474.63 490.73L474.65 490.45C474.654 490.388 474.646 490.326 474.625 490.267C474.604 490.209 474.572 490.155 474.53 490.109C474.488 490.063 474.437 490.026 474.38 490.001C474.323 489.975 474.262 489.961 474.2 489.96C468.327 489.893 462.013 489.723 455.26 489.45C453.86 489.39 452.35 489.307 450.73 489.2C440.543 488.507 432.217 488.07 425.75 487.89C423.423 487.823 421.037 487.81 418.59 487.85C417.77 487.863 417.467 488.263 417.68 489.05ZM409.1 491.22L408.77 493.41C408.76 493.472 408.763 493.535 408.777 493.596C408.792 493.657 408.819 493.714 408.856 493.764C408.894 493.815 408.941 493.857 408.994 493.889C409.048 493.921 409.108 493.942 409.17 493.95L409.48 493.99C409.705 494.024 409.933 494.021 410.151 493.983C410.369 493.944 410.574 493.87 410.752 493.765C410.93 493.66 411.079 493.526 411.19 493.371C411.302 493.216 411.373 493.042 411.4 492.86L411.45 492.51C411.505 492.143 411.378 491.765 411.097 491.457C410.816 491.15 410.403 490.938 409.95 490.87L409.63 490.82C409.507 490.803 409.382 490.836 409.282 490.911C409.183 490.986 409.117 491.097 409.1 491.22ZM360.55 494.12C350.597 493.293 342.347 492.947 335.8 493.08C334.567 493.107 333.943 493.737 333.93 494.97L333.92 495.46C333.907 496.873 334.603 497.497 336.01 497.33C343.71 496.403 351.66 495.953 359.86 495.98C360.473 495.987 360.837 495.687 360.95 495.08L361.02 494.73C361.033 494.659 361.03 494.585 361.013 494.515C360.996 494.445 360.964 494.378 360.92 494.321C360.876 494.264 360.82 494.216 360.756 494.181C360.693 494.147 360.622 494.126 360.55 494.12ZM328.58 497.63C328.58 497.482 328.521 497.339 328.416 497.234C328.311 497.129 328.169 497.07 328.02 497.07C327.871 497.07 327.729 497.129 327.624 497.234C327.519 497.339 327.46 497.482 327.46 497.63C327.46 497.779 327.519 497.921 327.624 498.026C327.729 498.131 327.871 498.19 328.02 498.19C328.169 498.19 328.311 498.131 328.416 498.026C328.521 497.921 328.58 497.779 328.58 497.63ZM475.09 507.27L475.1 498.9C475.1 498.433 474.867 498.2 474.4 498.2L435.43 498.38C434.57 498.387 433.933 498.767 433.52 499.52C432.387 501.56 431.703 503.72 431.47 506C431.37 506.987 431.817 507.483 432.81 507.49C446.87 507.617 460.017 507.65 472.25 507.59C472.97 507.59 473.683 507.67 474.39 507.83C474.474 507.85 474.561 507.85 474.646 507.831C474.73 507.812 474.809 507.774 474.876 507.72C474.944 507.666 474.998 507.598 475.035 507.52C475.072 507.442 475.091 507.356 475.09 507.27ZM403.99 522.58C404.077 522.847 404.23 523.06 404.45 523.22C404.783 523.46 405.14 523.5 405.52 523.34C406.747 522.813 407.977 522.68 409.21 522.94C409.566 523.015 409.895 523.183 410.165 523.427C410.435 523.671 410.635 523.982 410.746 524.328C410.857 524.675 410.874 525.044 410.795 525.399C410.717 525.754 410.546 526.082 410.3 526.35C408.28 528.53 409.3 530.77 409.23 533.36C408.817 547.64 408.683 562.627 408.83 578.32C408.93 589.29 408.33 600.02 408.41 610.98C408.43 613.553 408.277 616.327 407.95 619.3C407.903 619.733 408.097 619.953 408.53 619.96L413.2 620.1C413.707 620.113 413.813 619.91 413.52 619.49C409.65 613.92 409.02 608.18 409.04 601.2C409.053 595.787 409.447 590.567 410.22 585.54C411.46 577.42 416.53 570.59 423.18 565.69C423.348 565.566 423.486 565.404 423.583 565.216C423.68 565.029 423.734 564.822 423.74 564.61C423.947 552.97 424.267 541.443 424.7 530.03C424.98 522.623 425.17 515.363 425.27 508.25C425.323 504.937 426.097 501.867 427.59 499.04C427.777 498.68 427.67 498.51 427.27 498.53L346.97 502.73C346.457 502.757 346.19 503.023 346.17 503.53L345.38 525.6C345.367 526.033 345.573 526.217 346 526.15C351.313 525.363 357.983 524.72 366.01 524.22C378.383 523.46 390.73 522.697 403.05 521.93C403.257 521.917 403.463 521.973 403.633 522.091C403.804 522.209 403.93 522.382 403.99 522.58ZM267.052 503.128C267.142 503.114 267.226 503.073 267.301 503.007C267.375 502.942 267.439 502.853 267.487 502.746C267.535 502.639 267.567 502.516 267.582 502.383C267.597 502.251 267.593 502.112 267.572 501.975C267.551 501.837 267.512 501.703 267.458 501.582C267.404 501.46 267.336 501.352 267.257 501.265C267.179 501.177 267.092 501.112 267.001 501.072C266.91 501.032 266.817 501.019 266.728 501.033C266.638 501.046 266.554 501.087 266.479 501.153C266.405 501.218 266.341 501.307 266.293 501.414C266.245 501.521 266.213 501.644 266.198 501.777C266.183 501.909 266.187 502.048 266.208 502.186C266.229 502.323 266.268 502.457 266.322 502.579C266.376 502.7 266.444 502.808 266.523 502.896C266.601 502.983 266.688 503.048 266.779 503.088C266.87 503.128 266.963 503.142 267.052 503.128ZM318.55 622.2C318.65 622.2 318.75 622.193 318.85 622.18C319.18 622.155 319.489 622.007 319.717 621.765C319.944 621.523 320.074 621.204 320.08 620.87C320.427 589.15 321.077 556.753 322.03 523.68C322.13 520.22 322.18 516.74 322.18 513.24C322.187 509.987 322.247 506.49 322.36 502.75C322.361 502.702 322.351 502.653 322.331 502.609C322.311 502.565 322.281 502.526 322.243 502.495C322.205 502.464 322.161 502.442 322.114 502.431C322.067 502.42 322.017 502.419 321.97 502.43L321.69 502.5C321.503 502.544 321.335 502.647 321.212 502.796C321.089 502.944 321.018 503.128 321.01 503.32C319.423 541.16 318.307 576.743 317.66 610.07C317.587 613.923 317.59 617.69 317.67 621.37C317.683 621.943 317.977 622.22 318.55 622.2ZM324.35 621.47C324.349 621.553 324.364 621.636 324.395 621.713C324.426 621.79 324.473 621.86 324.532 621.919C324.59 621.977 324.66 622.024 324.737 622.055C324.814 622.086 324.897 622.101 324.98 622.1L337.25 621.87C337.44 621.868 337.622 621.791 337.756 621.656C337.891 621.522 337.967 621.34 337.97 621.15C338.303 587.397 338.78 556.517 339.4 528.51C339.587 520.037 339.8 511.583 340.04 503.15C340.053 502.87 339.917 502.743 339.63 502.77L327.82 503.87C327.313 503.917 327.053 504.193 327.04 504.7L324.35 621.47ZM269.11 508.9C268.937 508.193 268.487 507.87 267.76 507.93C259.593 508.617 250.573 508.873 240.7 508.7C240.26 508.693 240.07 508.907 240.13 509.34C242.423 526.127 244.13 543.003 245.25 559.97C245.33 561.15 245.427 562.323 245.54 563.49C246.407 572.35 247.213 581.527 247.96 591.02C248.77 601.33 250.15 612.09 250.89 622.82C250.898 622.947 250.954 623.067 251.047 623.154C251.14 623.242 251.262 623.29 251.39 623.29C271.377 623.323 291.16 623.043 310.74 622.45C310.954 622.445 311.158 622.357 311.311 622.205C311.463 622.052 311.552 621.847 311.56 621.63C312.013 605.843 312.4 590.497 312.72 575.59C312.76 573.77 313.03 572.16 313.05 570.25C313.157 562.103 313.503 552.34 314.09 540.96C314.21 538.59 313.74 536.37 314.01 534.04C314.17 532.7 314.27 531.33 314.31 529.93C314.563 522.03 314.83 514.003 315.11 505.85C315.13 505.177 314.803 504.853 314.13 504.88C311.057 505.013 307.88 505.217 304.6 505.49C294.207 506.357 283.86 507.08 273.56 507.66C272.77 507.71 272.28 508.12 271.95 508.81C271.817 509.103 271.593 509.293 271.28 509.38C270.76 509.533 270.23 509.557 269.69 509.45C269.377 509.39 269.183 509.207 269.11 508.9ZM474.979 513.616C474.979 513.52 474.961 513.425 474.924 513.336C474.888 513.248 474.834 513.167 474.767 513.099C474.699 513.031 474.619 512.977 474.531 512.94C474.442 512.903 474.347 512.884 474.251 512.883L432.372 512.737C432.276 512.737 432.181 512.755 432.092 512.792C432.003 512.828 431.923 512.881 431.855 512.949C431.787 513.017 431.733 513.097 431.696 513.185C431.659 513.274 431.639 513.369 431.639 513.465L431.621 518.604C431.621 518.7 431.639 518.795 431.676 518.884C431.712 518.973 431.766 519.053 431.833 519.121C431.901 519.189 431.981 519.243 432.069 519.28C432.158 519.317 432.253 519.337 432.349 519.337L474.228 519.483C474.324 519.484 474.419 519.465 474.508 519.429C474.597 519.392 474.677 519.339 474.745 519.271C474.813 519.204 474.867 519.123 474.904 519.035C474.941 518.946 474.961 518.852 474.961 518.756L474.979 513.616ZM536.87 646.53L537.18 642.01C537.213 641.557 537.01 641.38 536.57 641.48C531.93 642.487 527.257 643.017 522.55 643.07C513.857 643.157 504.823 643.21 495.45 643.23C490.81 643.237 486.107 643.037 481.34 642.63C481.201 642.619 481.062 642.637 480.93 642.683C480.799 642.729 480.679 642.801 480.577 642.897C480.475 642.992 480.395 643.107 480.34 643.235C480.285 643.363 480.258 643.501 480.26 643.64C480.327 648.253 480.313 653.527 480.22 659.46C479.993 674.293 482.697 688.65 488.33 702.53C488.452 702.821 488.648 703.075 488.9 703.265C489.151 703.454 489.448 703.574 489.76 703.61C494.57 704.14 498.98 703.55 503.88 703.71C507.18 703.817 510.303 703.88 513.25 703.9C513.83 703.9 514.413 703.903 515 703.91C525.06 704.043 535.78 704.18 547.16 704.32C551.593 704.38 555.72 704.307 559.54 704.1C559.593 704.093 562.997 704.127 569.75 704.2C571.87 704.227 573.817 704.333 575.59 704.52C577.663 704.733 579.57 704.81 581.31 704.75C584.79 704.623 588.243 704.663 591.67 704.87C591.783 704.877 591.883 704.85 591.97 704.79C592.117 704.697 592.273 704.653 592.44 704.66L597.96 704.96C599.047 705.02 599.553 705.593 599.48 706.68C599.467 706.887 599.41 707.083 599.31 707.27C598.65 708.477 597.663 709.07 596.35 709.05C588.83 708.97 581.227 708.8 573.54 708.54C571.14 708.46 568.82 708.78 566.42 708.72C566.296 708.717 566.173 708.749 566.065 708.812C565.958 708.875 565.87 708.967 565.812 709.077C565.754 709.187 565.728 709.311 565.736 709.435C565.745 709.56 565.787 709.679 565.86 709.78C566.887 711.267 568.117 712.58 569.55 713.72C569.843 713.953 570.211 714.071 570.586 714.052C570.961 714.034 571.318 713.88 571.59 713.62C574.26 711.07 576.48 712.55 579.52 712.52C586.64 712.453 593.82 712.47 601.06 712.57C604.99 712.62 608.92 712.26 612.84 712.44C615.787 712.573 618.73 712.617 621.67 712.57C628.39 712.47 635.15 712.64 641.77 712.48C653.963 712.187 666.42 712.103 679.14 712.23C687.14 712.303 694.843 712.237 702.25 712.03C703.15 712.003 704.02 711.98 704.86 711.96C710.927 711.78 716.483 711.787 721.53 711.98C721.89 712 722.163 711.853 722.35 711.54C722.85 710.72 723.38 710.05 724.15 709.45C735.843 700.457 743.623 688.71 747.49 674.21C748.563 670.177 749.183 664.82 749.35 658.14C749.51 651.707 749.557 645.49 749.49 639.49C749.363 628.83 749.413 617.593 749.64 605.78C749.7 602.58 749.697 599.56 749.63 596.72C749.55 593.32 749.607 590.167 749.8 587.26C749.867 586.16 749.847 585.043 749.74 583.91C749.653 583.023 749.62 581.907 749.64 580.56C749.92 565.293 750.22 550.023 750.54 534.75C750.647 529.523 750.7 524.65 750.7 520.13C750.703 519.941 750.633 519.757 750.505 519.617C750.376 519.478 750.199 519.393 750.01 519.38C744.74 518.95 738.08 519.44 734.44 519.47C724.74 519.557 714.93 519.747 705.01 520.04C701.8 520.14 698.67 519.79 695.49 520.02C693.08 520.19 690.87 519.52 688.52 519.79C686.84 519.977 685.173 520.047 683.52 520C680.367 519.9 677.167 519.95 673.92 520.15C671.89 520.28 669.91 519.82 667.9 520C666.64 520.113 665.383 520.18 664.13 520.2C639.277 520.58 616.233 520.833 595 520.96C592.987 520.967 590.86 520.943 588.62 520.89C587.41 520.87 586.31 521.46 585.16 521.24C584.34 521.087 583.537 521.027 582.75 521.06C576.557 521.32 570.807 521.477 565.5 521.53C537.46 521.783 509.57 521.607 481.83 521C481.47 520.993 481.29 521.17 481.29 521.53C481.33 532.677 481.373 543.897 481.42 555.19C481.43 557.03 481.9 558.81 481.32 560.61C481.298 560.679 481.292 560.752 481.303 560.823C481.315 560.894 481.344 560.961 481.387 561.019C481.43 561.077 481.486 561.124 481.551 561.155C481.616 561.187 481.688 561.202 481.76 561.2C485.76 561.14 489.59 560.45 493.56 560.24C504.66 559.667 516.127 558.763 527.96 557.53C531.17 557.19 534.23 557.46 537.41 557.32C544.17 557.03 547.62 560.53 551.99 564.94C557.5 570.49 560.58 578.87 561.64 586.6C563.37 599.2 562.07 613.2 555.23 623.28C552.95 626.63 549.75 630.79 549.45 634.9C549.183 638.513 548.693 642.07 547.98 645.57C547.89 645.998 547.678 646.39 547.369 646.699C547.06 647.008 546.668 647.22 546.24 647.31C545.133 647.543 544.607 647.18 544.66 646.22C544.86 642.987 545.287 639.67 545.94 636.27C546.047 635.717 545.877 635.613 545.43 635.96L541.28 639.16C541.067 639.327 540.897 639.542 540.784 639.787C540.671 640.033 540.618 640.301 540.63 640.57C540.73 643.12 541.02 645.95 538.64 647.56C538.463 647.679 538.255 647.745 538.042 647.751C537.829 647.758 537.618 647.705 537.434 647.597C537.249 647.49 537.099 647.333 536.999 647.144C536.899 646.956 536.855 646.743 536.87 646.53ZM474.992 524.152C474.992 524.085 474.979 524.019 474.953 523.957C474.928 523.895 474.89 523.839 474.842 523.792C474.795 523.744 474.739 523.707 474.677 523.681C474.615 523.656 474.549 523.643 474.482 523.643L431.842 523.717C431.775 523.717 431.708 523.731 431.647 523.756C431.585 523.782 431.529 523.82 431.481 523.867C431.434 523.915 431.397 523.971 431.371 524.033C431.346 524.095 431.332 524.161 431.333 524.228L431.348 532.788C431.348 532.855 431.361 532.922 431.387 532.983C431.412 533.045 431.45 533.101 431.497 533.149C431.545 533.196 431.601 533.233 431.663 533.259C431.725 533.284 431.791 533.297 431.858 533.297L474.498 533.223C474.565 533.223 474.632 533.21 474.693 533.184C474.755 533.158 474.811 533.12 474.859 533.073C474.906 533.025 474.943 532.969 474.969 532.907C474.994 532.845 475.008 532.779 475.007 532.712L474.992 524.152ZM403.59 527.7C401.863 528.4 400.12 528.813 398.36 528.94C394.38 529.24 390.273 529.52 386.04 529.78C385.925 529.787 385.814 529.823 385.719 529.887C385.624 529.95 385.549 530.038 385.5 530.14L385.34 530.49C385.18 530.843 385.293 531.013 385.68 531C389.713 530.893 393.713 530.59 397.68 530.09C399.33 529.89 401 530.27 402.65 530.37C402.944 530.388 403.236 530.303 403.474 530.132C403.713 529.961 403.885 529.713 403.96 529.43L404.27 528.31C404.443 527.65 404.217 527.447 403.59 527.7ZM345.17 532.05L345.24 533.35C345.241 533.379 345.248 533.407 345.261 533.434C345.273 533.46 345.29 533.483 345.311 533.503C345.333 533.522 345.358 533.537 345.385 533.547C345.412 533.557 345.441 533.561 345.47 533.56L345.61 533.55C350.367 533.292 355.077 533.016 359.469 532.735C363.861 532.455 367.85 532.177 371.207 531.917C374.563 531.657 377.222 531.42 379.031 531.22C380.841 531.02 381.764 530.86 381.75 530.75V530.69C381.749 530.58 380.811 530.521 378.99 530.517C377.168 530.514 374.498 530.566 371.134 530.67C367.769 530.774 363.775 530.928 359.38 531.124C354.985 531.319 350.275 531.553 345.52 531.81L345.38 531.82C345.351 531.821 345.323 531.828 345.297 531.841C345.27 531.853 345.247 531.87 345.227 531.892C345.208 531.913 345.193 531.938 345.183 531.965C345.173 531.992 345.169 532.021 345.17 532.05ZM398.94 537.55C397.667 537.443 396.353 537.437 395 537.53C382.76 538.35 370.67 539.063 358.73 539.67C355.557 539.83 351.217 540.29 345.71 541.05C345.487 541.081 345.283 541.191 345.134 541.36C344.986 541.529 344.903 541.745 344.9 541.97L344.88 543.22C344.873 543.72 345.117 543.93 345.61 543.85C351.17 543.017 356.807 542.483 362.52 542.25C373.49 541.81 384.33 540.96 395.37 540.29C397.96 540.13 400.61 539.61 403.03 538.82C403.577 538.64 403.803 538.253 403.71 537.66C403.657 537.273 403.433 537.07 403.04 537.05C401.58 536.98 400.5 537.68 398.94 537.55ZM474.16 549.12C474.269 549.121 474.376 549.101 474.477 549.061C474.578 549.02 474.669 548.96 474.746 548.883C474.824 548.807 474.885 548.716 474.927 548.616C474.968 548.516 474.99 548.409 474.99 548.3L475.05 538.16C475.051 538.051 475.031 537.942 474.99 537.841C474.948 537.74 474.887 537.648 474.81 537.57C474.733 537.493 474.641 537.432 474.539 537.391C474.438 537.349 474.329 537.329 474.22 537.33L431.6 537.56C431.386 537.563 431.181 537.649 431.03 537.8C430.879 537.952 430.793 538.156 430.79 538.37L430.73 547.64C430.73 547.856 430.815 548.063 430.967 548.216C431.118 548.37 431.324 548.458 431.54 548.46L474.16 549.12ZM394.7 546.71C393.087 546.823 391.44 546.937 389.76 547.05C383.013 547.49 376.84 547.847 371.24 548.12C362.353 548.56 353.767 549.237 345.48 550.15C345.326 550.167 345.183 550.24 345.078 550.356C344.973 550.472 344.914 550.623 344.91 550.78L343.87 620.87C343.869 620.968 343.887 621.065 343.923 621.155C343.959 621.245 344.013 621.327 344.081 621.396C344.149 621.465 344.23 621.52 344.319 621.557C344.408 621.593 344.504 621.611 344.6 621.61C347.59 621.58 350.37 621.2 353.38 621.16C358.867 621.093 364.53 620.94 370.37 620.7C375.31 620.493 380.573 620.387 386.16 620.38C391.367 620.38 396.633 620.3 401.96 620.14C402.172 620.133 402.374 620.045 402.524 619.895C402.675 619.744 402.763 619.543 402.77 619.33C403.23 607.697 403.46 596.273 403.46 585.06C403.46 582.56 403.84 580.17 403.69 577.67C403.597 576.09 403.553 574.403 403.56 572.61C403.593 563.63 403.687 554.8 403.84 546.12C403.847 545.747 403.667 545.59 403.3 545.65C400.347 546.157 397.48 546.51 394.7 546.71ZM475.31 561.63C474.69 559.41 474.72 556.81 475.12 554.58C475.15 554.423 475.146 554.262 475.109 554.107C475.071 553.952 475.001 553.806 474.903 553.679C474.805 553.553 474.68 553.448 474.539 553.372C474.397 553.297 474.241 553.252 474.08 553.24C467.127 552.807 460.36 552.583 453.78 552.57C446.06 552.55 438.38 552.31 430.65 552.55C430.569 552.553 430.493 552.588 430.437 552.647C430.381 552.707 430.35 552.787 430.35 552.87L430.32 562.17C430.32 562.357 430.413 562.447 430.6 562.44C447.033 561.88 461.703 561.903 474.61 562.51C474.72 562.516 474.83 562.496 474.93 562.45C475.03 562.405 475.118 562.337 475.187 562.251C475.255 562.165 475.302 562.063 475.324 561.955C475.345 561.847 475.34 561.736 475.31 561.63ZM516.12 633.91C502.467 634.05 489.7 634.133 477.82 634.16C477.729 634.161 477.64 634.188 477.562 634.236C477.485 634.284 477.422 634.353 477.381 634.434C477.34 634.516 477.322 634.607 477.329 634.698C477.336 634.789 477.367 634.876 477.42 634.95C478.94 637.06 484.24 637.33 487 637.49C497.04 638.06 508.14 637.72 519.28 637.75C529.47 637.78 538.62 636.13 545.31 627.61C549.237 622.61 551.99 617.683 553.57 612.83C555.85 605.803 556.47 597.803 555.43 588.83C554.39 579.843 550.453 572.37 543.62 566.41C539.97 563.23 534.07 563.4 529.39 563.37C528.937 563.37 528.603 563.547 528.39 563.9C528.183 564.247 528.277 564.477 528.67 564.59C533.14 565.83 535.56 569.22 538.15 572.76C543.91 580.62 544.33 592.42 543.82 602C543.21 613.52 538.95 622.54 529.31 629.42C525.183 632.367 520.787 633.863 516.12 633.91ZM755.7 564.47L755.15 624.68C755.143 625.08 755.337 625.24 755.73 625.16C762.16 623.9 767.57 618.93 771.17 613.58C773.05 610.787 774.417 607.397 775.27 603.41C777.76 591.78 776.78 578.56 768.68 569.64C765.893 566.573 761.78 564.667 756.34 563.92C755.92 563.86 755.707 564.043 755.7 564.47ZM501.75 567.86C493.197 568.047 483.947 568.193 474 568.3C472.573 568.32 471.16 568.293 469.76 568.22C459 567.647 446.243 567.52 431.49 567.84C430.33 567.867 429.3 568.143 428.4 568.67C420.48 573.35 415.927 579.867 414.74 588.22C413.47 597.17 413.37 607.63 417.27 615.55C420.96 623.05 428.38 629.39 436.99 629.61C443.94 629.79 451.26 629.36 458.92 629.58C461.773 629.66 464.55 629.597 467.25 629.39C469.63 629.2 471.89 629.62 474.25 629.41C477.497 629.13 480.62 628.997 483.62 629.01C491.9 629.043 501.957 628.88 513.79 628.52C522.61 628.26 525.41 625.66 531.42 619.96C534.88 616.67 536.61 611.63 537.67 607C538.25 604.42 538.01 601.61 538.32 598.92C538.92 593.63 537.55 586.99 536.02 582.15C534.49 577.32 531.67 572.86 527.06 570.49C524.18 569.02 521.05 567.29 517.75 567.41C512.177 567.603 506.843 567.753 501.75 567.86ZM270.33 630.88C274.85 631.02 279.397 631.01 283.97 630.85C289.077 630.677 293.62 630.58 297.6 630.56C301.78 630.547 306.313 630.467 311.2 630.32C330.42 629.74 352.593 629.1 377.72 628.4C388.767 628.1 400.86 627.683 414 627.15C414.261 627.14 414.508 627.032 414.692 626.849C414.876 626.665 414.982 626.419 414.99 626.16L415.01 625.78C415.013 625.699 414.999 625.618 414.971 625.543C414.943 625.467 414.9 625.398 414.845 625.339C414.79 625.281 414.724 625.234 414.651 625.201C414.578 625.169 414.5 625.151 414.42 625.15C400.067 624.917 387.09 624.96 375.49 625.28C348.73 626.02 330.15 626.55 319.75 626.87C296.077 627.61 274.477 627.927 254.95 627.82C251.11 627.8 247.34 628.06 243.42 627.95C239.033 627.823 234.203 627.87 228.93 628.09C227.87 628.137 227.25 628.68 227.07 629.72C226.897 630.687 228.297 631.33 231.27 631.65C232.243 631.757 233.22 631.807 234.2 631.8C245.6 631.72 257.12 631.42 268.76 630.9C269.313 630.873 269.837 630.867 270.33 630.88ZM418.52 631.6C418.233 631.822 417.884 631.951 417.52 631.97C398.66 632.877 379.837 633.563 361.05 634.03C358.32 634.09 355.59 633.75 352.91 634.17C350.1 634.6 347.33 634.33 344.52 634.47C344.073 634.49 343.85 634.727 343.85 635.18L343.8 701.89C343.8 702.457 344.08 702.74 344.64 702.74L422 702.98C422.226 702.98 422.443 702.893 422.605 702.736C422.767 702.579 422.862 702.366 422.87 702.14C423.55 681.673 424.063 658.503 424.41 632.63C424.43 630.91 422.4 629.76 421.05 629.05C420.643 628.83 420.35 628.933 420.17 629.36C419.763 630.313 419.213 631.06 418.52 631.6ZM431.06 633.81C430.893 633.783 430.807 633.853 430.8 634.02L430.45 643.49C430.449 643.526 430.454 643.561 430.467 643.594C430.479 643.628 430.498 643.658 430.522 643.684C430.546 643.71 430.575 643.731 430.607 643.746C430.64 643.761 430.675 643.769 430.71 643.77C444.23 644.19 457.58 644.32 470.76 644.16C471.747 644.147 472.617 643.97 473.37 643.63C473.632 643.512 473.861 643.332 474.038 643.106C474.214 642.88 474.333 642.614 474.385 642.332C474.436 642.049 474.418 641.759 474.331 641.485C474.245 641.211 474.094 640.962 473.89 640.76L467.72 634.63C467.48 634.39 467.193 634.293 466.86 634.34C465.79 634.47 465.01 634.78 463.86 634.76C455.187 634.573 446.733 634.477 438.5 634.47C435.953 634.47 433.473 634.25 431.06 633.81ZM308.56 708.38C308.813 707.4 309.447 706.88 310.46 706.82C314.04 706.593 317.853 706.66 321.9 707.02C323.54 707.17 325.19 707.21 326.64 706.28C329.72 704.3 332.75 702.29 336.37 701.77C336.664 701.728 336.933 701.583 337.129 701.363C337.325 701.144 337.435 700.862 337.44 700.57C337.773 685.05 337.907 669.877 337.84 655.05C337.8 648.64 338.08 642.24 337.76 635.65C337.733 635.017 337.4 634.707 336.76 634.72L252.42 636.32C252.379 636.32 252.338 636.329 252.3 636.345C252.263 636.362 252.229 636.387 252.2 636.418C252.172 636.449 252.151 636.485 252.137 636.525C252.123 636.565 252.117 636.608 252.12 636.65C253.747 658.837 255.773 681.86 258.2 705.72C258.233 706.087 258.437 706.273 258.81 706.28C262.77 706.36 266.657 706.467 270.47 706.6C274.54 706.74 276.5 709.02 277.76 712.54C277.98 713.173 278.387 713.333 278.98 713.02C281.65 711.62 284.41 711.08 287.37 711.07C292.377 711.05 297.95 710.98 304.09 710.86C305.323 710.833 306.093 711.37 306.4 712.47C306.493 712.817 306.717 713.023 307.07 713.09C308.003 713.277 308.957 713.36 309.93 713.34C313.843 713.287 317.73 713.233 321.59 713.18C321.926 713.177 322.257 713.098 322.559 712.947C322.86 712.796 323.124 712.578 323.33 712.31L323.65 711.89C324.07 711.343 323.933 711.063 323.24 711.05L309.97 710.72C308.623 710.693 308.123 710.027 308.47 708.72L308.56 708.38ZM473.814 649.56C473.816 649.277 473.706 649.004 473.507 648.801C473.308 648.599 473.037 648.484 472.753 648.481L431.315 648.119C431.174 648.118 431.035 648.145 430.904 648.197C430.774 648.25 430.655 648.328 430.555 648.426C430.455 648.525 430.375 648.642 430.32 648.771C430.265 648.901 430.236 649.04 430.235 649.18L430.186 654.76C430.184 655.044 430.294 655.317 430.493 655.519C430.692 655.722 430.963 655.837 431.247 655.839L472.685 656.201C472.826 656.202 472.965 656.176 473.096 656.123C473.226 656.07 473.345 655.993 473.445 655.894C473.545 655.796 473.625 655.678 473.68 655.549C473.735 655.42 473.764 655.281 473.765 655.14L473.814 649.56ZM436.96 666.52C448.773 667 461.03 667.267 473.73 667.32C473.943 667.32 474.05 667.213 474.05 667L474.03 661.11C474.03 660.83 473.89 660.69 473.61 660.69L430.86 660.32C430.353 660.32 430.087 660.573 430.06 661.08L429.7 667.99C429.694 668.082 429.716 668.173 429.761 668.253C429.807 668.332 429.875 668.397 429.957 668.438C430.039 668.48 430.131 668.496 430.222 668.486C430.313 668.476 430.399 668.439 430.47 668.38C432.47 666.77 434.23 666.41 436.96 666.52ZM430.24 669.96C430.191 669.945 430.14 669.941 430.089 669.948C430.039 669.955 429.99 669.973 429.948 670C429.905 670.028 429.868 670.065 429.841 670.108C429.814 670.151 429.796 670.2 429.79 670.25C429.377 674.037 429.293 677.917 429.54 681.89C429.548 682.032 429.612 682.165 429.718 682.26C429.825 682.355 429.966 682.406 430.11 682.4C435.597 682.173 441.243 682.083 447.05 682.13C456.537 682.217 465.99 682.207 475.41 682.1C475.937 682.1 476.077 681.863 475.83 681.39C474.42 678.71 474.85 675.47 474.5 672.57C474.44 672.057 474.153 671.797 473.64 671.79C462.507 671.557 451.157 671.397 439.59 671.31C436.03 671.283 432.913 670.833 430.24 669.96ZM429.03 692.58C429.026 692.722 429.052 692.863 429.108 692.993C429.164 693.123 429.248 693.24 429.354 693.334C429.46 693.429 429.585 693.499 429.721 693.539C429.857 693.58 430 693.591 430.14 693.57C433.027 693.157 435.757 692.973 438.33 693.02C441.15 693.06 443.767 693.027 446.18 692.92C450.22 692.73 454.5 692.27 458.6 692.38C459.94 692.413 461.277 692.347 462.61 692.18C466.897 691.653 471.78 691.543 477.26 691.85C477.873 691.883 478.103 691.6 477.95 691L477.21 688.18C477.141 687.918 476.988 687.686 476.775 687.518C476.562 687.35 476.301 687.256 476.03 687.25C473.29 687.19 470.36 686.84 467.68 686.89C455.5 687.11 443.027 687.193 430.26 687.14C429.507 687.14 429.123 687.517 429.11 688.27L429.03 692.58ZM429.44 697.85C429.26 697.855 429.09 697.93 428.965 698.059C428.84 698.188 428.77 698.361 428.77 698.54L428.76 702.64C428.76 702.823 428.833 702.999 428.962 703.128C429.091 703.257 429.267 703.33 429.45 703.33L481.03 703.55C481.143 703.551 481.254 703.525 481.354 703.473C481.454 703.421 481.54 703.345 481.604 703.253C481.669 703.16 481.709 703.053 481.722 702.941C481.735 702.829 481.721 702.715 481.68 702.61L479.38 696.61C479.328 696.476 479.236 696.362 479.115 696.283C478.995 696.204 478.854 696.165 478.71 696.17L429.44 697.85ZM332.77 719.06C334.84 716.95 336.99 716.47 339.92 716.59C355.627 717.257 369.07 717.623 380.25 717.69C417.29 717.903 453.96 717.833 490.26 717.48C492.27 717.46 494.25 717.11 496.19 717.23C497.657 717.317 499.117 717.337 500.57 717.29C515.21 716.83 529.77 716.373 544.25 715.92C549.92 715.74 556.97 717.14 558.11 723.82C559.217 730.327 559.62 736.747 559.32 743.08C559.173 746.24 559.23 749.123 559.49 751.73C559.79 754.737 559.887 757.79 559.78 760.89C559.72 762.79 560.5 764.57 560.7 766.52C561.1 770.38 562.5 774.21 563.58 777.91C565.3 783.8 566 789.79 566.59 795.74C566.743 797.28 567.08 797.32 567.6 795.86C571.55 784.71 570.38 771.8 569.94 760.34C569.453 747.487 568.3 735.627 566.48 724.76C565.82 720.847 563.893 716.587 560.7 711.98C559.8 710.68 558.4 710.63 556.99 710.59C518.85 709.597 483.863 709.047 452.03 708.94C449.86 708.93 447.81 709.13 445.63 708.97C438.6 708.47 431.36 708.87 424.25 708.77C396.503 708.363 367.787 708.35 338.1 708.73C337.19 708.74 336.62 708.46 335.77 708.3C335.436 708.236 335.089 708.304 334.8 708.49C332.5 709.95 329.9 710.78 328.41 713.26C326.65 716.207 325.64 719.863 325.38 724.23C324.987 730.87 324.693 737.447 324.5 743.96C324.313 750.02 324.227 756.327 324.24 762.88C324.24 763.033 324.317 763.113 324.47 763.12L332.82 763.46C333.04 763.473 333.143 763.37 333.13 763.15C332.557 751.757 332 739.893 331.46 727.56C331.347 725.133 331.503 722.83 331.93 720.65C332.047 720.05 332.339 719.497 332.77 719.06ZM271.8 720.48C272.06 718.11 272.16 712.35 268.63 712.19C258.303 711.723 247.79 711.197 237.09 710.61C236.043 710.557 235.013 710.63 234 710.83C233.831 710.865 233.672 710.937 233.534 711.04C233.395 711.144 233.282 711.277 233.2 711.43C230.41 716.75 238.46 716.93 242.01 716.96C246.183 717 249.02 717.073 250.52 717.18C255.447 717.533 260.417 717.803 265.43 717.99C266.623 718.037 267.99 718.89 269.53 720.55C269.783 720.823 269.903 721.147 269.89 721.52C269.3 737.02 268.24 752.25 269.49 767.47C269.737 770.463 270.52 773.227 271.84 775.76C271.872 775.82 271.917 775.872 271.972 775.912C272.028 775.951 272.092 775.977 272.159 775.987C272.227 775.996 272.296 775.99 272.36 775.968C272.424 775.946 272.483 775.909 272.53 775.86L276.22 771.98C276.409 771.781 276.555 771.546 276.648 771.29C276.741 771.033 276.779 770.761 276.76 770.49C275.69 754.45 275.29 739.5 273.8 722.53C273.76 722.037 273.51 721.703 273.05 721.53L272.27 721.24C271.917 721.107 271.76 720.853 271.8 720.48ZM574.34 718.91C573.333 719.03 572.29 719.25 571.21 719.57C571.114 719.598 571.025 719.647 570.95 719.712C570.874 719.778 570.813 719.859 570.771 719.95C570.73 720.041 570.708 720.14 570.708 720.24C570.708 720.34 570.729 720.439 570.77 720.53C570.897 720.81 571.143 720.95 571.51 720.95C581.45 721.09 591.64 720.86 601.42 721.11C617.647 721.53 634.337 721.727 651.49 721.7C658.39 721.687 665.06 721.747 671.5 721.88C684.587 722.147 696.57 722.307 707.45 722.36C709.983 722.373 712.513 722.367 715.04 722.34C721.76 722.273 729 722.413 736.76 722.76C738.92 722.86 740.95 722.63 743.05 722.78C748.077 723.147 753.293 723.247 758.7 723.08C759.269 723.063 759.818 722.865 760.267 722.515C760.716 722.164 761.043 721.679 761.2 721.13C761.387 720.477 761.463 719.803 761.43 719.11C761.397 718.297 760.97 717.89 760.15 717.89C748.297 717.937 736.583 717.93 725.01 717.87C709.4 717.79 693.55 718.27 677.76 718.13C654.81 717.92 631.81 718.47 608.74 717.92C598.113 717.667 588.19 717.58 578.97 717.66C577.19 717.67 576.01 718.7 574.34 718.91ZM318.86 756.34C318.946 756.34 319.028 756.307 319.09 756.247C319.151 756.187 319.187 756.106 319.19 756.02L320.34 720.49C320.343 720.444 320.336 720.398 320.32 720.355C320.304 720.312 320.279 720.273 320.247 720.24C320.215 720.207 320.177 720.181 320.134 720.164C320.092 720.147 320.046 720.139 320 720.14L278.57 720.74C278.527 720.741 278.484 720.751 278.444 720.769C278.405 720.787 278.369 720.812 278.34 720.844C278.31 720.875 278.287 720.913 278.271 720.953C278.256 720.994 278.249 721.037 278.25 721.08L279.99 755.5C279.995 755.584 280.032 755.663 280.093 755.721C280.155 755.778 280.236 755.81 280.32 755.81L318.86 756.34ZM337.06 749.5C337.167 751.347 337.373 753.113 337.68 754.8C337.747 755.18 337.973 755.363 338.36 755.35C357.447 754.917 376.913 754.693 396.76 754.68C403.413 754.673 410.077 754.63 416.75 754.55C432.883 754.35 449.803 754.317 467.51 754.45C469.18 754.46 470.83 754.03 472.44 754.19C473.573 754.297 474.687 754.34 475.78 754.32C502.08 753.82 527.737 753.713 552.75 754C553.13 754.007 553.33 753.82 553.35 753.44C553.763 745.22 553.537 736.86 552.67 728.36C552.48 726.5 552.36 724.5 550.59 723.38C548.023 721.753 545.647 720.977 543.46 721.05C539.973 721.157 536.483 721.23 532.99 721.27C529.497 721.303 526 721.377 522.5 721.49C474.72 722.99 428 722.62 379.5 722.25C365.94 722.15 351.87 721.723 337.29 720.97C337.23 720.967 337.169 720.976 337.112 720.996C337.055 721.017 337.003 721.048 336.959 721.088C336.914 721.127 336.878 721.176 336.852 721.229C336.827 721.283 336.813 721.341 336.81 721.4C336.403 730.48 336.487 739.847 337.06 749.5ZM581.06 736.36C580.54 734.793 581.1 733.913 582.74 733.72C587.39 733.18 591.61 734.03 596.14 733.91C602.36 733.743 608.273 733.727 613.88 733.86C630.79 734.27 647.53 733.97 664.34 733.78C667.9 733.74 671.48 733.98 674.99 734.15C677.503 734.263 680.17 734.303 682.99 734.27C691.83 734.17 700.93 734.52 709.71 734.43C726.423 734.263 743.463 734.427 760.83 734.92C761.517 734.94 761.83 734.607 761.77 733.92L761.44 730.27C761.387 729.65 761.05 729.333 760.43 729.32C742.957 728.807 727.233 728.56 713.26 728.58C698.59 728.6 684.33 728.48 669.28 728.25C648.27 727.92 627.25 728.31 606.22 728.09C605.327 728.083 604.483 727.99 603.69 727.81C601.65 727.34 599.64 728.32 597.47 728.13C594.93 727.903 592.587 727.85 590.44 727.97C584.21 728.33 577.95 727.63 571.74 727.97C571.65 727.976 571.562 728 571.483 728.042C571.403 728.084 571.333 728.142 571.277 728.213C571.222 728.284 571.181 728.366 571.159 728.453C571.138 728.54 571.134 728.631 571.15 728.72C572.083 733.84 572.583 738.907 572.65 743.92C572.663 744.873 573.147 745.34 574.1 745.32C581.153 745.18 587.927 744.937 594.42 744.59C598.24 744.39 601.97 744.75 605.78 744.58C611.44 744.34 617.11 744.75 622.89 744.76C642.177 744.793 667.193 745.003 697.94 745.39C718.43 745.65 738.91 745.18 759.47 745.22C760.237 745.22 760.693 744.843 760.84 744.09L761.63 740.1C761.653 739.982 761.648 739.861 761.615 739.745C761.582 739.63 761.522 739.524 761.44 739.436C761.358 739.348 761.256 739.281 761.143 739.24C761.03 739.199 760.909 739.185 760.79 739.2C759.443 739.367 758.097 739.443 756.75 739.43C735.53 739.27 714.56 739.64 693.49 739.56C666.903 739.467 639.817 739.343 612.23 739.19C603.863 739.143 597.023 739.187 591.71 739.32C589.3 739.38 587.08 740.12 584.73 740.04C583.077 739.98 581.99 739.167 581.47 737.6L581.06 736.36ZM250.441 736.951C250.818 736.681 251.053 736.244 251.092 735.736C251.132 735.227 250.974 734.69 250.653 734.241C250.332 733.793 249.874 733.47 249.38 733.344C248.886 733.218 248.397 733.299 248.019 733.569C247.642 733.839 247.407 734.276 247.368 734.785C247.328 735.293 247.486 735.83 247.807 736.279C248.128 736.727 248.586 737.05 249.08 737.176C249.574 737.302 250.063 737.221 250.441 736.951ZM733.32 754.37L733.74 754.71C733.927 754.87 734.147 754.95 734.4 754.95L754.27 754.85C754.769 754.847 755.261 754.726 755.705 754.499C756.15 754.271 756.535 753.943 756.83 753.54L758.61 751.08C759.137 750.36 758.957 750.007 758.07 750.02C746.377 750.207 734.527 750.38 722.52 750.54C715.527 750.627 708.8 750.643 702.34 750.59C673.633 750.337 645.06 750.09 616.62 749.85C602.68 749.74 588.01 750.08 573.72 750.03C573.613 750.03 573.56 750.087 573.56 750.2L573.6 755.23C573.6 755.377 573.677 755.45 573.83 755.45C582.577 755.37 590.053 755.347 596.26 755.38C619.45 755.5 640.46 755.76 662.24 755.42C669.75 755.3 678.03 755.71 686.43 755.17C687.477 755.097 688.527 755.097 689.58 755.17C697.57 755.7 705.35 755.12 713.47 755.13C719.19 755.13 724.827 755.123 730.38 755.11C731.24 755.11 731.92 754.85 732.59 754.35C732.695 754.27 732.824 754.229 732.956 754.232C733.089 754.236 733.217 754.284 733.32 754.37ZM338.23 760.77C338.155 760.772 338.082 760.802 338.026 760.856C337.969 760.909 337.932 760.981 337.92 761.06C337.73 762.54 338.1 764.16 339.63 764.78C343.55 766.38 346.25 768.56 347.77 772.78C349.51 777.6 350.97 782.48 351.6 787.66C352.6 795.987 352.83 804.337 352.29 812.71C352.284 812.801 352.299 812.891 352.333 812.975C352.367 813.059 352.42 813.134 352.487 813.195C352.555 813.255 352.635 813.3 352.722 813.325C352.809 813.35 352.901 813.355 352.99 813.34C357.97 812.46 361.137 814.437 362.49 819.27C363.4 822.53 361.49 825.67 359.18 827.75C356.78 829.9 352.62 829.17 349.66 828.96C349.313 828.933 349.073 829.08 348.94 829.4C347.99 831.63 347.41 833.9 346.24 836.03C344.447 839.297 342.187 842.173 339.46 844.66C338.533 845.507 338.7 845.93 339.96 845.93L495.61 845.88C495.666 845.878 495.72 845.86 495.766 845.828C495.812 845.796 495.848 845.752 495.869 845.7C495.89 845.648 495.896 845.591 495.885 845.536C495.875 845.481 495.849 845.431 495.81 845.39C489.063 838.463 485.163 830.07 484.11 820.21C483.883 818.057 483.523 815.867 483.03 813.64C482.48 811.18 483 808.93 482.91 806.5C482.63 798.407 483.173 790.397 484.54 782.47C484.933 780.203 485.653 777.727 486.7 775.04C488.393 770.707 488.93 765.873 488.31 760.54C488.27 760.213 488.083 760.05 487.75 760.05C438.397 760.077 392.48 760.21 350 760.45C346.167 760.47 342.243 760.577 338.23 760.77ZM493.09 766.44C493.089 766.518 493.109 766.594 493.147 766.661C493.186 766.728 493.242 766.784 493.31 766.822C493.377 766.86 493.454 766.879 493.531 766.877C493.609 766.875 493.684 766.852 493.75 766.81L496.68 764.89C496.728 764.86 496.769 764.82 496.802 764.774C496.835 764.728 496.858 764.675 496.87 764.62L497.71 760.76C497.725 760.698 497.726 760.634 497.713 760.572C497.7 760.51 497.673 760.451 497.635 760.401C497.597 760.35 497.548 760.308 497.492 760.279C497.435 760.249 497.373 760.233 497.31 760.23L493.65 760.05C493.593 760.047 493.535 760.056 493.482 760.076C493.428 760.096 493.378 760.126 493.336 760.165C493.295 760.204 493.261 760.252 493.237 760.304C493.214 760.356 493.201 760.413 493.2 760.47L493.09 766.44ZM517.75 760.99C518.43 761.383 519.133 761.467 519.86 761.24C520.427 761.067 521.027 760.99 521.66 761.01C526.393 761.197 531.057 761.12 535.65 760.78C535.743 760.767 535.79 760.713 535.79 760.62V760.61C535.79 760.483 535.727 760.42 535.6 760.42C525.287 760.22 514.967 760.153 504.64 760.22C504.373 760.223 504.118 760.33 503.929 760.519C503.74 760.708 503.633 760.963 503.63 761.23V762.26C503.628 762.36 503.65 762.459 503.695 762.548C503.739 762.638 503.805 762.715 503.886 762.775C503.967 762.835 504.061 762.874 504.161 762.891C504.261 762.907 504.363 762.9 504.46 762.87C507.46 761.943 510.783 761.56 514.43 761.72C514.743 761.733 515.043 761.683 515.33 761.57L516.94 760.93C517.071 760.877 517.212 760.856 517.352 760.866C517.492 760.876 517.629 760.919 517.75 760.99ZM543.638 760.724C543.641 760.663 543.45 760.596 543.109 760.54C542.768 760.483 542.304 760.44 541.819 760.42C541.579 760.411 541.341 760.407 541.119 760.41C540.896 760.412 540.694 760.421 540.523 760.436C540.353 760.45 540.217 760.47 540.124 760.494C540.031 760.519 539.983 760.547 539.982 760.577C539.979 760.638 540.17 760.704 540.511 760.761C540.852 760.818 541.316 760.86 541.801 760.88C542.041 760.89 542.279 760.893 542.501 760.891C542.724 760.888 542.926 760.879 543.096 760.865C543.267 760.85 543.403 760.83 543.496 760.806C543.589 760.782 543.637 760.754 543.638 760.724ZM546.01 760.69C546.011 760.654 545.995 760.619 545.963 760.585C545.93 760.551 545.883 760.52 545.822 760.493C545.762 760.466 545.69 760.444 545.61 760.428C545.53 760.412 545.445 760.403 545.358 760.4C545.183 760.395 545.014 760.419 544.889 760.465C544.764 760.512 544.692 760.579 544.69 760.651C544.689 760.686 544.705 760.722 544.737 760.755C544.77 760.789 544.817 760.82 544.878 760.847C544.938 760.874 545.011 760.896 545.09 760.912C545.17 760.928 545.255 760.937 545.342 760.94C545.517 760.945 545.686 760.922 545.811 760.875C545.936 760.828 546.008 760.761 546.01 760.69ZM551.859 760.544C551.858 760.512 551.821 760.482 551.75 760.455C551.678 760.429 551.575 760.406 551.444 760.388C551.313 760.37 551.158 760.357 550.988 760.351C550.818 760.344 550.636 760.344 550.452 760.35C550.268 760.356 550.086 760.369 549.917 760.386C549.748 760.404 549.594 760.427 549.465 760.453C549.336 760.48 549.234 760.51 549.164 760.541C549.095 760.573 549.06 760.605 549.061 760.637C549.062 760.668 549.099 760.698 549.17 760.725C549.242 760.752 549.345 760.775 549.476 760.793C549.607 760.811 549.762 760.823 549.932 760.83C550.102 760.836 550.284 760.836 550.468 760.83C550.652 760.824 550.834 760.812 551.003 760.794C551.172 760.776 551.326 760.754 551.455 760.727C551.584 760.7 551.686 760.67 551.756 760.639C551.825 760.608 551.86 760.575 551.859 760.544ZM547.9 760.78C547.894 760.782 547.888 760.782 547.882 760.781C547.876 760.779 547.87 760.777 547.865 760.773C547.86 760.769 547.856 760.764 547.854 760.758C547.851 760.752 547.85 760.746 547.85 760.74C547.883 760.48 547.69 760.443 547.27 760.63C546.937 760.783 546.953 760.837 547.32 760.79C548.227 760.657 548.42 760.653 547.9 760.78ZM715.87 798.58C715.89 793.047 716.617 786.997 718.05 780.43C718.283 779.377 718.593 778.393 718.98 777.48C720.02 775.05 720.63 772.46 722.2 770.41C723.693 768.457 725.66 766.947 728.1 765.88C728.282 765.8 728.441 765.676 728.563 765.521C728.685 765.366 728.767 765.183 728.8 764.99C728.987 763.85 728.94 762.723 728.66 761.61C728.567 761.243 728.33 761.057 727.95 761.05C724.61 761.03 721.377 761.147 718.25 761.4C716.46 761.54 715.06 760.85 713.28 761.08C712.273 761.22 711.253 761.287 710.22 761.28C698.807 761.2 687.4 761.17 676 761.19C650.8 761.23 624.883 761.087 598.25 760.76C596.063 760.727 592.75 760.773 588.31 760.9C587.257 760.927 586.22 760.877 585.2 760.75C582.93 760.46 580.67 761.03 578.32 760.88C577.113 760.8 575.947 760.75 574.82 760.73C574.413 760.723 574.193 760.923 574.16 761.33C573.92 764.023 574.107 765.843 574.72 766.79C583.13 779.78 585.5 792.15 583.76 806.64C583.613 807.873 583.283 809.12 582.77 810.38C582.722 810.496 582.705 810.623 582.721 810.747C582.737 810.872 582.786 810.99 582.862 811.09C582.937 811.19 583.038 811.268 583.154 811.318C583.269 811.367 583.395 811.385 583.52 811.37C591.97 810.43 594.69 820.85 589.65 825.81C586.21 829.19 581.92 828.4 577.52 827.97C577.02 827.923 576.66 828.123 576.44 828.57C574.41 832.68 572.13 835.47 568.11 838.18C564.143 840.847 560.807 842.77 558.1 843.95C555.227 845.197 555.353 845.823 558.48 845.83L727.45 845.96C727.803 845.96 727.863 845.827 727.63 845.56C721.277 838.32 717.77 831.187 717.11 824.16C716.837 821.24 716.483 818.547 716.05 816.08C715.61 813.54 715.47 810.68 715.63 807.5C715.777 804.547 715.857 801.573 715.87 798.58ZM303.77 763.15C308.89 763.103 313.96 763.09 318.98 763.11C319.34 763.11 319.477 762.937 319.39 762.59L319.33 762.32C319.23 761.893 318.96 761.673 318.52 761.66C314.593 761.547 310.907 761.41 307.46 761.25C305.487 761.157 303.36 761.127 301.08 761.16C299.067 761.187 296.957 761.12 294.75 760.96C291.57 760.727 286.837 760.887 280.55 761.44C280.19 761.467 280.03 761.66 280.07 762.02L280.55 766.46C280.59 766.8 280.777 766.937 281.11 766.87C284.823 766.083 288.49 765.24 292.11 764.34C294.37 763.77 296.49 763.94 298.75 763.57C300.43 763.303 302.103 763.163 303.77 763.15ZM738.81 763.59C738.899 763.577 738.984 763.544 739.057 763.491C739.13 763.439 739.189 763.37 739.23 763.29L739.9 761.96C739.942 761.876 739.962 761.782 739.958 761.687C739.955 761.593 739.927 761.501 739.878 761.42C739.829 761.339 739.761 761.272 739.679 761.225C739.597 761.178 739.504 761.152 739.41 761.15L735.06 761.04C734.927 761.035 734.797 761.078 734.692 761.16C734.588 761.243 734.516 761.36 734.49 761.49L734.07 763.49C734.051 763.579 734.054 763.67 734.079 763.757C734.103 763.844 734.148 763.924 734.21 763.99C734.272 764.056 734.349 764.105 734.434 764.135C734.519 764.165 734.611 764.173 734.7 764.16L738.81 763.59ZM494.92 787.48C494.587 789.5 494 791.493 493.16 793.46C492.927 794 493.103 794.263 493.69 794.25C496.423 794.177 498.83 793.423 500.91 791.99C511.27 784.86 522.6 790.54 526.35 801.78C527.783 806.073 527.843 810.727 526.53 815.74C525.203 820.793 522.073 824.8 517.14 827.76C514.04 829.62 509.54 829.89 506.09 829.58C501.4 829.15 499.93 824.26 495.53 824.34C494.05 824.373 493.56 825.087 494.06 826.48C495.087 829.373 496.953 831.783 499.66 833.71C505.78 838.07 516.01 835.79 521.6 832.11C536.33 822.4 536.21 802.67 526.42 789.7C522.927 785.067 518.753 782.32 513.9 781.46C508.127 780.44 502.11 781.97 495.85 786.05C495.33 786.39 495.02 786.867 494.92 787.48ZM726.18 823.95C726.105 823.955 726.034 823.987 725.98 824.04C725.927 824.094 725.895 824.165 725.89 824.24C725.783 825.453 726.003 826.603 726.55 827.69C729.683 833.923 734.78 836.697 741.84 836.01C750.987 835.117 757.62 830.823 761.74 823.13C764.853 817.323 765.727 810.773 764.36 803.48C762.54 793.81 757.05 784.58 747.18 781.81C744 780.91 740.923 780.873 737.95 781.7C735.51 782.37 728.2 784.95 727.37 787.79C726.83 789.637 726.27 791.493 725.69 793.36C725.537 793.867 725.723 794.097 726.25 794.05C728.7 793.85 730.81 793.79 733 792.09C735.813 789.91 738.963 788.887 742.45 789.02C756.71 789.56 761.71 805.82 757.74 816.92C754.493 826.02 748.113 830.22 738.6 829.52C735.747 829.307 733.153 827.753 730.82 824.86C730.598 824.592 730.307 824.391 729.98 824.28C728.873 823.92 727.607 823.81 726.18 823.95ZM288.7 828.96C286.74 828.653 284.89 827.37 283.15 825.11C282.937 824.83 282.667 824.623 282.34 824.49C281.18 824.017 279.863 823.887 278.39 824.1C278.282 824.117 278.183 824.172 278.113 824.255C278.043 824.338 278.007 824.443 278.01 824.55C278.043 825.723 278.31 826.833 278.81 827.88C282.28 835.09 288.11 836.75 295.35 834.92C299.92 833.77 305.22 831.98 308.61 828.58C311.817 825.36 314.183 821.04 315.71 815.62C316.49 812.82 316.13 810.31 316.26 807.57C316.34 805.777 316.07 803.883 315.45 801.89C313.603 796.003 310.373 790.937 305.76 786.69C299.02 780.49 287.62 781.4 281.18 787.18C280.213 788.047 279.153 790.133 278 793.44C277.86 793.847 278.003 794.04 278.43 794.02C280.817 793.927 282.67 793.44 283.99 792.56C290.02 788.52 295.81 787.15 302.11 791.67C310.94 798 312.6 808.83 307.59 818.08C304.44 823.89 295.84 830.06 288.7 828.96ZM304.81 804.46C303.43 798.87 296.66 790.24 289.93 794.08C288.197 795.067 288.31 795.743 290.27 796.11C296.65 797.3 301.98 797.16 304.4 804.53C304.407 804.563 304.43 804.58 304.47 804.58H304.72C304.8 804.58 304.83 804.54 304.81 804.46ZM505.46 796.83C512.34 797.09 516.77 797.56 520.93 803.61C521.377 804.263 521.487 804.21 521.26 803.45C519.33 796.98 512.04 790.58 505.12 794.86C504.207 795.427 504.13 796.013 504.89 796.62C505.052 796.75 505.252 796.824 505.46 796.83ZM751.32 801.51C751.99 802.24 752.22 802.98 752.76 803.74C753.14 804.267 753.25 804.213 753.09 803.58C751.59 797.72 744.62 790.82 738.2 794.46C736.08 795.66 736.23 796.41 738.65 796.71C743.64 797.33 747.67 797.53 751.32 801.51ZM275.79 809.96C275.843 809.887 275.88 809.807 275.9 809.72C275.973 809.413 275.903 809.143 275.69 808.91C274.31 807.43 275.74 805.33 276.5 803.89C277.007 802.917 277.687 802.193 278.54 801.72C280.993 800.367 283.267 800.743 285.36 802.85C285.893 803.39 286.057 803.297 285.85 802.57C285 799.45 282.5 797.26 279.01 797.72C276.62 798.03 274.26 800.68 272.48 802.28C272.213 802.52 272.043 802.817 271.97 803.17C271.263 806.55 271.1 809.51 271.48 812.05C272.14 816.56 276.02 822.08 281.29 818.95C283.403 817.69 284.85 815.96 285.63 813.76C286.043 812.587 285.78 812.41 284.84 813.23C283.18 814.67 281.77 816.62 279.22 815.83C276.667 815.037 275.463 813.23 275.61 810.41C275.623 810.243 275.683 810.093 275.79 809.96ZM492.57 804.46C493.11 804.32 493.353 803.953 493.3 803.36C493.285 803.207 493.303 803.052 493.355 802.906C493.407 802.761 493.491 802.629 493.6 802.52C496.14 800.01 499.47 800.77 501.7 803.16C502.027 803.507 502.183 803.44 502.17 802.96C502.15 802.26 501.89 801.6 501.39 800.98C499.763 798.947 498.087 797.887 496.36 797.8C493.63 797.67 489.14 801.17 488.34 803.72C486.813 808.58 487.027 812.737 488.98 816.19C493.18 823.66 501.45 819.33 502.45 812.65C502.53 812.123 502.397 812.06 502.05 812.46C501.563 813.007 501.1 813.573 500.66 814.16C497.04 818.95 492.29 815.37 491.34 810.98C491.26 810.613 491.34 810.287 491.58 810L492.15 809.32C492.383 809.04 492.397 808.75 492.19 808.45C491.517 807.477 491.473 806.293 492.06 804.9C492.153 804.667 492.323 804.52 492.57 804.46ZM724.39 804.26C724.87 804.04 725.123 803.653 725.15 803.1C725.17 802.693 725.353 802.383 725.7 802.17C728.587 800.343 731.187 800.62 733.5 803C733.88 803.38 734.06 803.303 734.04 802.77C734.027 802.25 733.883 801.777 733.61 801.35C732.31 799.31 730.81 798.167 729.11 797.92C725.75 797.44 720.23 801.05 719.98 804.6C719.78 807.51 718.66 809.72 719.68 812.67C721.08 816.74 723.59 821.62 728.86 819.38C732.14 817.987 733.947 815.667 734.28 812.42C734.347 811.733 734.18 811.67 733.78 812.23C732.89 813.46 732.25 814.86 730.9 815.64C728.06 817.28 726.52 815.45 724.59 813.69C723.48 812.67 723.09 810.71 724.09 809.57C724.323 809.31 724.337 809.04 724.13 808.76L723.54 807.96C723.32 807.653 723.287 807.33 723.44 806.99C723.733 806.37 723.88 805.723 723.88 805.05C723.88 804.677 724.05 804.413 724.39 804.26ZM303.65 813.47C300.35 820.01 294.36 819.65 288.22 821.1C287.944 821.166 287.694 821.314 287.502 821.523C287.311 821.733 287.187 821.995 287.146 822.276C287.105 822.557 287.149 822.844 287.273 823.1C287.397 823.355 287.594 823.568 287.84 823.71C288.427 824.05 289.103 824.177 289.87 824.09C297.183 823.257 301.897 819.73 304.01 813.51C304.03 813.443 304.01 813.397 303.95 813.37H303.94C303.813 813.303 303.717 813.337 303.65 813.47ZM515.73 819.08C511.5 820.5 507.53 820.16 503.53 822.38C503.405 822.448 503.302 822.549 503.232 822.673C503.161 822.796 503.127 822.937 503.132 823.08C503.137 823.223 503.182 823.362 503.261 823.482C503.34 823.602 503.45 823.698 503.58 823.76C505 824.433 506.487 824.687 508.04 824.52C514.46 823.82 519.32 821.62 520.81 814.75C520.957 814.07 520.837 814.02 520.45 814.6C519.19 816.46 518 818.31 515.73 819.08ZM752.44 815.78C752.94 814.173 752.72 814.07 751.78 815.47C748.97 819.66 743.87 820.74 739.2 820.76C737.873 820.767 736.82 821.27 736.04 822.27C735.912 822.436 735.83 822.633 735.802 822.841C735.773 823.048 735.8 823.26 735.879 823.454C735.958 823.648 736.086 823.818 736.251 823.948C736.416 824.077 736.613 824.16 736.82 824.19C743.57 825.17 750.25 822.84 752.44 815.78ZM565.66 822.22C565.593 822.527 565.717 822.68 566.03 822.68L583.25 822.81C584.757 822.817 585.74 822.103 586.2 820.67L586.44 819.92C587.067 817.98 586.36 816.967 584.32 816.88C579.393 816.673 574.593 816.657 569.92 816.83C569.11 816.86 568.19 816.58 567.38 816.46C567.007 816.4 566.783 816.557 566.71 816.93L565.66 822.22ZM354.53 823.75C354.888 823.667 355.2 823.448 355.4 823.14L356.72 821.11C356.86 820.898 356.94 820.652 356.952 820.398C356.964 820.145 356.908 819.892 356.79 819.668C356.671 819.443 356.495 819.254 356.278 819.121C356.062 818.988 355.814 818.915 355.56 818.91L352.75 818.85C352.447 818.843 352.149 818.933 351.9 819.108C351.652 819.283 351.466 819.532 351.37 819.82L350.48 822.48C350.4 822.721 350.385 822.978 350.438 823.226C350.491 823.474 350.609 823.703 350.781 823.89C350.952 824.077 351.171 824.214 351.413 824.288C351.656 824.362 351.914 824.37 352.16 824.31L354.53 823.75Z" fill="#0055CC"/>
<path d="M528.985 391.029C526.177 391.196 523.361 390.754 520.697 389.727C518.032 388.701 515.572 387.111 513.457 385.048C511.342 382.985 509.613 380.489 508.369 377.703C507.125 374.917 506.391 371.895 506.208 368.811C505.838 362.581 507.735 356.473 511.484 351.83C515.232 347.187 520.524 344.389 526.194 344.052C529.002 343.885 531.819 344.327 534.483 345.354C537.148 346.38 539.608 347.97 541.723 350.033C543.838 352.096 545.567 354.592 546.811 357.378C548.054 360.164 548.789 363.186 548.972 366.27C549.342 372.5 547.445 378.608 543.696 383.251C539.948 387.894 534.656 390.692 528.985 391.029ZM528.232 385.341C530.292 385.272 532.316 384.743 534.188 383.782C536.061 382.821 537.746 381.449 539.147 379.742C540.548 378.035 541.638 376.028 542.354 373.835C543.071 371.642 543.399 369.306 543.321 366.96C543.244 364.615 542.761 362.306 541.901 360.165C541.041 358.024 539.821 356.094 538.309 354.484C536.798 352.873 535.026 351.615 533.094 350.781C531.161 349.946 529.107 349.552 527.047 349.62C524.988 349.689 522.964 350.218 521.092 351.179C519.219 352.14 517.534 353.513 516.133 355.219C514.731 356.926 513.642 358.933 512.925 361.126C512.209 363.319 511.881 365.655 511.959 368.001C512.036 370.346 512.519 372.655 513.379 374.796C514.239 376.937 515.459 378.867 516.97 380.477C518.482 382.088 520.254 383.346 522.186 384.18C524.119 385.015 526.173 385.409 528.232 385.341Z" fill="#0055CC"/>
<path d="M695.23 483.61C675.4 483.75 655.63 483.02 635.68 481.6C629.29 481.15 622.95 480.21 617.06 477.41C604.794 471.59 595.97 462.99 590.59 451.61C584.94 439.66 583.86 423.74 591.95 412.62C594.624 408.953 597.42 406.043 600.34 403.89C608.027 398.236 616.867 395.376 626.86 395.31C653.127 395.143 678.294 395.15 702.36 395.33C704.607 395.35 706.95 395.433 709.39 395.58C724.14 396.47 738.55 404.2 745.74 417.82C745.812 417.953 745.846 418.103 745.84 418.254C745.835 418.405 745.788 418.552 745.707 418.679C745.625 418.807 745.511 418.91 745.377 418.979C745.242 419.047 745.091 419.079 744.94 419.07C736.67 418.57 728.23 424.18 729.56 433.46C730.287 438.52 733.05 442.17 737.85 444.41C740.4 445.6 743.73 445.42 746.53 445.45C747.044 445.456 747.25 445.713 747.15 446.22C745.72 453.43 741.42 459.98 736.51 465.92C734.99 467.76 733.284 469.43 731.39 470.93C728.8 472.98 726.53 475.32 723.69 477.1C715.46 482.25 704.85 483.55 695.23 483.61ZM617.03 428.5C620.23 422.76 624.53 424.66 629.7 423.93C630.207 423.863 630.334 423.606 630.08 423.16C626.1 416.21 616.5 416.47 611.32 421.18C608.787 423.486 607.47 425.953 607.37 428.58C607.084 436.266 610.297 441.076 617.01 443.01C622.92 444.71 629.05 441.59 630.78 435.74C630.831 435.566 630.834 435.382 630.786 435.207C630.739 435.033 630.645 434.874 630.513 434.75C630.382 434.626 630.219 434.54 630.041 434.503C629.864 434.466 629.681 434.479 629.51 434.54C625.55 435.96 620.78 437.7 617.6 433.88C616.42 432.46 616.12 430.15 617.03 428.5Z" fill="#0055CC"/>
<path d="M254.409 524.778L254.351 524.795C253.559 525.016 253.095 525.838 253.317 526.63L257.135 540.307C257.357 541.1 258.179 541.563 258.971 541.342L259.029 541.326C259.822 541.104 260.285 540.282 260.063 539.49L256.245 525.813C256.023 525.02 255.202 524.557 254.409 524.778Z" fill="#0055CC"/>
<path d="M549.58 545.24C548.34 547.91 548.23 550.66 547.9 553.48C547.845 553.94 547.674 554.377 547.405 554.751C547.136 555.126 546.776 555.425 546.36 555.62L545.72 555.92C544.507 556.494 543.923 556.107 543.97 554.76C544.097 550.96 544.973 547.157 546.6 543.35C546.694 543.13 546.842 542.937 547.03 542.788C547.217 542.639 547.439 542.538 547.674 542.496C547.91 542.453 548.153 542.47 548.381 542.544C548.608 542.618 548.814 542.747 548.98 542.92L549.25 543.2C549.823 543.8 549.933 544.48 549.58 545.24Z" fill="#0055CC"/>
<path d="M552.31 560.12L556.79 549.78C556.888 549.549 557.056 549.355 557.272 549.227C557.487 549.098 557.737 549.041 557.987 549.065C558.237 549.088 558.472 549.19 558.66 549.357C558.847 549.523 558.977 549.745 559.03 549.99L559.47 551.99C559.528 552.249 559.496 552.521 559.38 552.76L555.69 560.35C555.592 560.557 555.435 560.73 555.24 560.85L554 561.6C553.786 561.728 553.537 561.785 553.288 561.763C553.039 561.741 552.804 561.64 552.616 561.475C552.428 561.311 552.297 561.091 552.242 560.847C552.187 560.604 552.211 560.349 552.31 560.12Z" fill="#0055CC"/>
<path d="M263.082 555.949C263.496 556.07 263.897 555.939 263.979 555.658C264.061 555.377 263.792 555.052 263.378 554.931C262.964 554.811 262.563 554.942 262.481 555.223C262.399 555.504 262.669 555.829 263.082 555.949Z" fill="#0055CC"/>
<path d="M269.638 684.307C269.275 684.759 269.295 685.377 269.682 685.689C270.069 686 270.678 685.886 271.041 685.435C271.405 684.983 271.385 684.364 270.998 684.052C270.61 683.741 270.002 683.855 269.638 684.307Z" fill="#0055CC"/>
<path d="M611.98 705.16C612.174 705.187 612.36 705.261 612.519 705.374C612.679 705.488 612.809 705.638 612.898 705.813C612.986 705.987 613.031 706.18 613.028 706.374C613.025 706.569 612.974 706.76 612.88 706.93C611.73 709.03 608.33 709.78 606.99 707.48C606.902 707.332 606.847 707.166 606.829 706.995C606.81 706.823 606.829 706.65 606.883 706.486C606.936 706.322 607.025 706.172 607.142 706.045C607.259 705.918 607.401 705.818 607.56 705.75C608.993 705.15 610.467 704.954 611.98 705.16Z" fill="#0055CC"/>
<path d="M437.04 730.1C444.21 725.64 449.63 736.5 444.81 741.14C442.99 742.893 440.48 743.203 437.28 742.07C431.26 739.94 432.45 732.96 437.04 730.1ZM442.78 736.29C442.78 735.537 442.481 734.815 441.948 734.282C441.416 733.749 440.693 733.45 439.94 733.45C439.187 733.45 438.464 733.749 437.932 734.282C437.399 734.815 437.1 735.537 437.1 736.29C437.1 737.043 437.399 737.766 437.932 738.298C438.464 738.831 439.187 739.13 439.94 739.13C440.693 739.13 441.416 738.831 441.948 738.298C442.481 737.766 442.78 737.043 442.78 736.29Z" fill="#0055CC"/>
<path d="M27.8352 856.397L25.7389 855.967C25.1925 855.855 24.6586 856.207 24.5464 856.753L24.5183 856.89C24.4061 857.437 24.7581 857.97 25.3046 858.083L27.4008 858.513C27.9473 858.625 28.4811 858.273 28.5933 857.727L28.6215 857.59C28.7336 857.043 28.3816 856.509 27.8352 856.397Z" fill="#0055CC"/>
<path d="M190.916 857.92L186.016 857.861C185.387 857.853 184.87 858.357 184.863 858.987L184.858 859.327C184.851 859.956 185.355 860.473 185.984 860.48L190.884 860.54C191.514 860.548 192.03 860.044 192.038 859.414L192.042 859.074C192.05 858.445 191.546 857.928 190.916 857.92Z" fill="#0055CC"/>
<path d="M70.7101 859.44C87.8501 858.96 105.4 859.35 122.77 859.05C126.423 858.99 129.943 859.123 133.33 859.45C133.93 859.503 134.177 859.83 134.07 860.43C134.017 860.763 133.887 861.06 133.68 861.32C133.053 862.127 132.23 862.53 131.21 862.53C129.537 862.53 127.927 862.533 126.38 862.54C109.093 862.587 93.7168 862.573 80.2501 862.5C76.7901 862.48 73.2768 862.567 69.7101 862.76C68.6834 862.82 68.2768 862.347 68.4901 861.34C68.5168 861.213 68.5534 861.093 68.6001 860.98C68.7565 860.541 69.0414 860.16 69.4178 859.885C69.7941 859.61 70.2444 859.455 70.7101 859.44Z" fill="#0055CC"/>
<path d="M665.396 862.81C666.826 862.859 668.004 862.341 668.028 861.651C668.052 860.961 666.913 860.361 665.483 860.311C664.054 860.261 662.875 860.78 662.851 861.47C662.827 862.16 663.967 862.76 665.396 862.81Z" fill="#0055CC"/>
<path d="M897.53 863.46C897.51 863.461 897.491 863.459 897.472 863.453C897.453 863.446 897.436 863.436 897.421 863.423C897.406 863.41 897.394 863.395 897.385 863.377C897.377 863.359 897.371 863.34 897.37 863.32L897.34 863C897.292 862.363 897.607 861.724 898.215 861.226C898.822 860.727 899.673 860.408 900.58 860.34L900.82 860.33C901.726 860.262 902.613 860.449 903.288 860.85C903.963 861.252 904.37 861.834 904.42 862.47L904.45 862.79C904.452 862.81 904.449 862.83 904.443 862.848C904.436 862.867 904.426 862.884 904.413 862.899C904.4 862.914 904.385 862.926 904.367 862.935C904.349 862.944 904.33 862.949 904.31 862.95L897.53 863.46Z" fill="#0055CC"/>
<path d="M274.5 869.92C275.167 869.9 275.813 869.883 276.44 869.87C305.56 869.336 339.247 869.123 377.5 869.23C380.627 869.236 383.9 869.353 387.32 869.58C387.467 869.589 387.61 869.635 387.735 869.712C387.86 869.79 387.964 869.898 388.038 870.027C388.112 870.155 388.154 870.3 388.16 870.449C388.165 870.597 388.134 870.745 388.07 870.88C387.623 871.8 386.763 872.416 385.49 872.73C385.047 872.836 384.589 872.859 384.14 872.8C382.847 872.62 380.633 872.526 377.5 872.52C345.367 872.473 311.783 872.623 276.75 872.97C274.52 872.99 271.83 873.79 270.08 872.08C269.945 871.947 269.849 871.78 269.802 871.597C269.756 871.414 269.761 871.221 269.816 871.04C269.872 870.859 269.977 870.697 270.118 870.572C270.26 870.447 270.434 870.363 270.62 870.33C271.887 870.103 273.18 869.966 274.5 869.92Z" fill="#0055CC"/>
<path d="M667.77 870.55C667.796 870.55 667.822 870.555 667.847 870.565C667.871 870.575 667.893 870.59 667.912 870.608C667.93 870.627 667.945 870.649 667.955 870.673C667.965 870.698 667.97 870.724 667.97 870.75L667.98 870.83C667.993 871.439 667.747 872.029 667.297 872.47C666.847 872.91 666.229 873.166 665.58 873.18L665.14 873.19C664.491 873.204 663.864 872.976 663.395 872.556C662.927 872.137 662.655 871.559 662.64 870.95V870.87C662.64 870.818 662.66 870.769 662.695 870.732C662.731 870.695 662.779 870.672 662.83 870.67L667.77 870.55Z" fill="#0055CC"/>
<path d="M725.817 873.94C726.642 873.76 727.188 873.045 727.035 872.344C726.882 871.642 726.089 871.22 725.263 871.4C724.437 871.58 723.892 872.294 724.045 872.996C724.198 873.697 724.991 874.12 725.817 873.94Z" fill="#0055CC"/>
<path d="M221.396 874.887C222.385 874.57 223.036 873.844 222.85 873.265C222.664 872.687 221.712 872.475 220.724 872.792C219.735 873.11 219.084 873.836 219.27 874.415C219.456 874.993 220.408 875.205 221.396 874.887Z" fill="#0055CC"/>
<path d="M212.302 875.407C212.739 875.009 212.846 874.415 212.541 874.08C212.237 873.745 211.635 873.796 211.198 874.194C210.761 874.592 210.654 875.186 210.959 875.521C211.263 875.856 211.865 875.805 212.302 875.407Z" fill="#0055CC"/>
<path d="M200.69 873.824L198.917 873.985C198.378 874.034 197.981 874.511 198.03 875.05L198.046 875.229C198.095 875.768 198.572 876.166 199.111 876.117L200.884 875.955C201.423 875.906 201.82 875.429 201.771 874.89L201.754 874.711C201.705 874.172 201.229 873.775 200.69 873.824Z" fill="#0055CC"/>
<path d="M786.037 879.903C787.02 880.003 787.877 879.496 787.951 878.771C788.024 878.045 787.287 877.376 786.303 877.277C785.32 877.177 784.463 877.684 784.389 878.409C784.315 879.134 785.053 879.803 786.037 879.903Z" fill="#0055CC"/>
<path d="M466.95 882.9C468.73 883.047 470.707 883.03 472.88 882.85C474.72 882.697 476.623 882.614 478.59 882.6C481.737 882.58 484.88 882.51 488.02 882.39C491.26 882.264 494.413 882.194 497.48 882.18C524.48 882.1 550.57 881.81 576.73 882.19C590.37 882.397 605.366 882.534 621.72 882.6C621.874 882.6 622.027 882.631 622.17 882.691C622.312 882.751 622.442 882.839 622.551 882.949C622.659 883.06 622.745 883.191 622.804 883.336C622.862 883.48 622.891 883.634 622.89 883.79V884.35C622.89 884.964 622.583 885.277 621.97 885.29C612.73 885.52 603.57 885.91 594.42 885.85C562.086 885.644 529.187 885.624 495.72 885.79C487.073 885.83 476.11 886.084 462.83 886.55C460.99 886.617 460.693 885.974 461.94 884.62C463.13 883.34 465.23 882.77 466.95 882.9Z" fill="#0055CC"/>
<path d="M632.419 884.845C634.003 884.54 635.17 883.691 635.027 882.948C634.884 882.205 633.485 881.85 631.901 882.155C630.317 882.46 629.15 883.309 629.293 884.052C629.436 884.795 630.836 885.15 632.419 884.845Z" fill="#0055CC"/>
<path d="M447.415 887.123C448.453 886.535 448.993 885.525 448.62 884.867C448.248 884.208 447.104 884.151 446.066 884.738C445.027 885.326 444.488 886.336 444.86 886.994C445.233 887.653 446.376 887.71 447.415 887.123Z" fill="#0055CC"/>
<path d="M987.471 886.434L984.129 886.78C983.525 886.842 983.085 887.382 983.148 887.987L983.162 888.126C983.225 888.73 983.765 889.17 984.369 889.107L987.712 888.762C988.316 888.699 988.755 888.159 988.693 887.554L988.678 887.415C988.616 886.811 988.075 886.372 987.471 886.434Z" fill="#0055CC"/>
<path d="M950.09 886.93L977.84 887.05C978.014 887.051 978.185 887.096 978.337 887.181C978.488 887.266 978.616 887.388 978.708 887.536C978.8 887.684 978.853 887.852 978.862 888.026C978.871 888.2 978.836 888.373 978.76 888.53L978.34 889.41C978.255 889.584 978.123 889.731 977.958 889.834C977.794 889.936 977.604 889.99 977.41 889.99L948.86 890.08C948.651 890.079 948.448 890.015 948.277 889.896C948.105 889.777 947.974 889.609 947.9 889.414C947.827 889.219 947.814 889.006 947.864 888.803C947.914 888.601 948.024 888.418 948.18 888.28L949.41 887.19C949.597 887.023 949.839 886.931 950.09 886.93Z" fill="#0055CC"/>
<path d="M875.12 888.27C878.24 888.33 881.34 888.26 884.38 888.21C885.227 888.197 885.774 888.593 886.02 889.4C886.094 889.62 886.1 889.843 886.04 890.07C885.907 890.623 885.557 890.923 884.99 890.97C881.93 891.24 878.73 891.59 875.58 891.55C865.814 891.43 856.017 891.55 846.19 891.91C845.977 891.916 845.765 891.87 845.571 891.776C845.378 891.682 845.21 891.543 845.08 891.37C844.574 890.683 844.583 890.127 845.11 889.7C845.515 889.366 846.076 889.124 846.73 889C848.41 888.693 850.083 888.513 851.75 888.46C859.71 888.2 867.5 888.137 875.12 888.27Z" fill="#0055CC"/>
</g>
<defs>
<clipPath id="clip0_93_4501">
<rect width="1024" height="1024" fill="none"/>
</clipPath>
</defs>
</svg>
