<svg width="1024" height="889" viewBox="0 83 1024 889" fill="none" xmlns="http://www.w3.org/2000/svg">
<g clip-path="url(#clip0_93_2851)">
<rect width="1024" height="1024" fill="none"/>
<path d="M1024 957.56V960.15C941.82 960.176 859.643 960.16 777.47 960.1C771.597 960.1 765.283 960.153 758.53 960.26C752.217 960.36 745.903 960.443 739.59 960.51C739.55 960.51 737.99 960.586 734.91 960.74C733.25 960.813 731.59 960.763 729.93 960.59C729.377 960.536 728.317 960.816 726.75 961.43C725.657 961.856 724.61 962.1 723.61 962.16C719.197 962.44 715.243 962.536 711.75 962.45C694.317 962.043 664.567 961.526 622.5 960.9C614.073 960.773 608.547 960.716 605.92 960.73C600.887 960.756 596.357 960.7 592.33 960.56C586.557 960.366 581.973 960.283 578.58 960.31C574.667 960.343 565.307 960.343 550.5 960.31C520.467 960.236 485.637 960.09 446.01 959.87C440.023 959.836 433.357 959.7 426.01 959.46C398.863 958.566 371.803 958.256 344.83 958.53C342.577 958.55 340.313 958.5 338.04 958.38C336.427 958.293 334.163 958.25 331.25 958.25C318.763 958.263 310.1 958.323 305.26 958.43C294.92 958.67 286.413 958.706 279.74 958.54C265.27 958.19 252.99 958.36 238.27 958.45C237.89 958.45 237.267 958.39 236.4 958.27C235.647 958.163 235.04 958.11 234.58 958.11C219.16 958.043 205.95 957.93 194.95 957.77C193.617 957.75 192.007 957.92 190.12 958.28C188.72 958.54 187.097 958.706 185.25 958.78C173.257 959.26 163.53 959.406 156.07 959.22C142.59 958.893 134.94 958.723 133.12 958.71C125.753 958.676 119.067 958.57 113.06 958.39C105.56 958.163 97.04 958.046 87.5 958.04C80.1867 958.04 73.52 957.963 67.5 957.81C57.3333 957.55 50.15 957.41 45.95 957.39C30.63 957.316 15.3133 957.106 0 956.76V952.99C19.5067 952.176 39.2333 951.98 59.18 952.4C59.4469 952.406 59.708 952.321 59.9205 952.159C60.133 951.997 60.2844 951.768 60.35 951.51C60.7567 949.903 61.85 948.933 63.63 948.6C63.86 948.554 64.0748 948.451 64.2547 948.301C64.4347 948.151 64.5741 947.958 64.66 947.74C65.42 945.75 66.06 943.96 66.17 941.69C66.4367 936.423 66.79 929.923 67.23 922.19C67.43 918.69 68.27 915.49 69.29 912.39C69.5018 911.75 69.8951 911.186 70.4223 910.765C70.9495 910.345 71.5879 910.086 72.26 910.02C75.6067 909.713 79.1033 909.616 82.75 909.73C85.5233 909.81 93.1067 910.086 105.5 910.56C109.393 910.706 115.987 910.633 125.28 910.34C129.533 910.206 135.377 909.783 142.81 909.07C148.243 908.55 154.087 908.123 160.34 907.79C162.16 907.696 163.92 907.856 165.62 908.27C172.16 909.84 178.67 912.28 189.5 915.91C191.753 916.663 193.5 917.393 194.74 918.1C196.387 919.033 198.073 919.96 199.8 920.88C199.966 920.966 200.108 921.092 200.212 921.247C200.317 921.403 200.382 921.582 200.4 921.77L200.64 924.25C200.653 924.356 200.713 924.406 200.82 924.4L201.11 924.38C201.12 924.379 201.13 924.375 201.139 924.37C201.148 924.365 201.156 924.357 201.161 924.349C201.167 924.34 201.171 924.33 201.172 924.32C201.174 924.31 201.173 924.3 201.17 924.29C200.863 923.476 200.933 922.653 201.38 921.82C201.54 921.52 201.78 921.323 202.1 921.23C203.24 920.896 204.06 920.64 204.56 920.46C205.287 920.2 206.047 919.84 206.84 919.38C219.38 912.19 232.25 906.18 246.02 901.88C248.107 901.226 250.437 900.81 253.01 900.63C256.377 900.383 258.763 900.28 260.17 900.32C282.083 900.933 295.277 901.323 299.75 901.49C301.037 901.536 302.267 901.62 303.44 901.74C304.82 901.88 306.05 901.94 307.13 901.92C309.883 901.866 314.157 902.05 319.95 902.47C323.57 902.73 326.32 903.19 327.68 906.83C328.547 909.13 328.037 910.933 326.15 912.24C325.877 912.426 325.737 912.686 325.73 913.02C325.563 918.313 325.29 922.3 324.91 924.98C324.323 929.1 324.053 932.79 324.1 936.05C324.12 937.683 323.953 941.393 323.6 947.18C323.575 947.583 323.688 947.983 323.921 948.314C324.153 948.645 324.492 948.887 324.88 949C327.72 949.81 329.96 949.8 330.04 953.48C330.043 953.592 330.089 953.699 330.169 953.777C330.25 953.856 330.358 953.9 330.47 953.9L422.51 955.01C422.85 955.016 423.053 954.85 423.12 954.51C424.63 946.84 426.9 936.6 428.75 929.49C431.617 918.523 433.537 910.84 434.51 906.44C434.577 906.133 434.453 905.983 434.14 905.99C430.1 906.07 426.733 906.036 424.04 905.89C419.82 905.66 419.27 903.62 419.77 899.73C421.21 888.523 422.277 877.443 422.97 866.49C423.59 856.59 424.097 849.94 424.49 846.54C425.983 833.546 426.883 826.026 427.19 823.98C427.71 820.47 428.12 817.05 430.71 814.79C430.977 814.563 431.06 814.28 430.96 813.94L419.92 777.35C419.693 776.59 419.217 776.37 418.49 776.69C413.217 779.056 407.773 781.043 402.16 782.65C386.953 787.003 371.16 789.273 354.78 789.46C341.96 789.606 329.487 787.836 317.36 784.15C310.493 782.063 303.533 778.523 296.48 773.53C288.327 767.75 280.993 760.896 274.48 752.97C263.12 739.15 254.26 724.006 247.9 707.54C243.673 696.593 239.24 683.236 234.6 667.47C231.06 655.46 229.72 643.47 228.57 631.23C228.283 628.156 227.863 624.686 227.31 620.82C223.89 597.013 221.447 571.906 219.98 545.5C219.553 537.8 219.897 530.323 221.01 523.07C222.157 515.603 224.037 509.25 226.65 504.01C232.71 491.856 242.23 483.24 255.21 478.16C255.47 478.058 255.692 477.878 255.845 477.644C255.997 477.411 256.072 477.137 256.06 476.86L253.9 425.83C253.867 425.115 253.643 424.412 253.25 423.79C249.363 417.596 245.423 411.76 241.43 406.28C241.403 406.24 240.987 405.546 240.18 404.2C239.54 403.11 239.09 402.46 237.74 402.19C213.84 397.46 191.53 386.21 174.09 369.23C148.943 344.756 136.34 314.453 136.28 278.32C136.247 260.86 140.033 243.706 147.64 226.86C165.12 188.13 200.78 160.06 243.09 153.17C274.98 147.97 307.67 156.24 333.38 174.58C351.867 187.773 365.957 204.356 375.65 224.33C384.437 242.43 388.64 261.92 388.26 282.8C387.933 300.52 384.01 317.16 376.49 332.72C360.137 366.553 334.17 389.073 298.59 400.28C298.069 400.447 297.63 400.804 297.36 401.28C291.433 411.806 287.87 418.113 286.67 420.2C285.377 422.453 284.83 425.166 285.03 428.34C285.437 434.826 285.723 441.836 285.89 449.37C285.937 451.663 286.183 457.443 286.63 466.71C286.937 472.943 287.097 478.75 287.11 484.13C287.11 486.343 287.433 486.39 288.08 484.27C288.747 482.096 289.55 478.74 290.49 474.2C291.27 470.42 293.017 467.74 295.73 466.16C300.34 463.47 304.45 466.94 305.6 471.41C306.687 475.65 307.433 479.496 307.84 482.95C308.173 485.803 308.303 489.703 308.23 494.65C308.07 504.963 308.017 512.333 308.07 516.76C308.13 521.213 308.363 525.126 308.77 528.5C309.81 537.16 310.64 546.58 311.26 556.76C312.54 578.08 315.38 597.55 318.29 618.78C319.537 627.913 322.047 636.426 325.82 644.32C326.807 646.373 328.247 648.42 330.14 650.46C334.38 655.033 339.433 656.063 345.3 653.55C358.507 647.89 370.863 642.09 382.37 636.15C382.618 636.017 382.816 635.807 382.932 635.552C383.048 635.297 383.075 635.011 383.01 634.74C382.31 631.86 381.723 629.663 381.25 628.15C378.083 618.036 375.853 609.82 374.56 603.5C374.233 601.88 374.893 601.003 376.54 600.87C382.553 600.403 387.873 600.266 392.5 600.46C412.853 601.313 425.06 601.743 429.12 601.75C431.953 601.756 434.783 601.696 437.61 601.57C439.177 601.496 441.973 601.486 446 601.54C449.9 601.586 453.42 601.486 456.56 601.24C457.067 601.2 457.097 601.056 456.65 600.81C455.3 600.07 453.71 599.85 452.43 599.17C447.3 596.47 441.95 594.42 437.25 591.29C427.97 585.083 419.783 577.673 412.69 569.06C408.877 564.426 404.863 558.373 400.65 550.9C400.15 550.013 399.89 549.3 399.87 548.76C399.864 548.602 399.891 548.444 399.949 548.296C400.008 548.148 400.097 548.013 400.21 547.9C403.697 544.393 407.46 539.93 411.5 534.51C424.107 517.616 434.153 499.323 441.64 479.63C444.633 471.776 446.637 463.463 447.65 454.69C447.763 453.71 448.277 453.103 449.19 452.87C449.53 452.783 449.68 452.566 449.64 452.22C449.53 451.38 449.23 450.44 449.22 449.55C449.167 446.13 449.007 433.863 448.74 412.75C448.707 410.043 448.897 407.36 449.31 404.7C449.977 400.433 450.36 397.79 450.46 396.77C451.24 388.936 452.547 380.4 454.38 371.16C455.767 364.18 457.573 357.576 459.8 351.35C459.825 351.285 459.833 351.214 459.822 351.145C459.812 351.076 459.783 351.011 459.74 350.956C459.696 350.902 459.639 350.86 459.574 350.834C459.51 350.808 459.439 350.8 459.37 350.81C455.437 351.33 453.36 349.633 453.14 345.72C452.953 342.313 452.923 339.743 453.05 338.01C454.51 317.55 461.26 298.973 473.3 282.28C477.167 276.92 481.377 271.836 485.93 267.03C487.75 265.11 489.597 263.39 491.47 261.87C493.423 260.29 495.38 258.703 497.34 257.11C508.093 248.37 520.187 241.54 533.62 236.62C544.72 232.553 556.55 229.743 569.11 228.19C601.483 224.176 632.61 228.37 662.49 240.77C674.363 245.703 686.75 252.336 699.65 260.67C704.57 263.843 708.77 266.9 712.25 269.84C712.276 269.862 712.308 269.875 712.342 269.878C712.376 269.881 712.41 269.873 712.439 269.855C712.468 269.837 712.49 269.811 712.503 269.779C712.516 269.747 712.518 269.713 712.51 269.68C710.3 259.41 714.59 247.79 721.69 240.19C725.683 235.923 730.863 233.58 737.23 233.16C741.497 232.88 745.35 233.226 748.79 234.2C756.38 236.35 761.86 241.48 764.36 248.97C765.28 251.7 764.87 254.51 764.96 257.62C764.987 258.44 764.847 259.583 764.54 261.05C762.94 268.65 759.667 275.463 754.72 281.49C752.67 283.98 748.84 287.12 745.66 288.17C741.78 289.463 737.907 289.47 734.04 288.19C733.187 287.91 733.063 288.096 733.67 288.75C738.65 294.14 743.33 299.24 747.23 304.38C759.083 320 768.933 337.05 776.78 355.53C781.573 366.83 785.27 376.713 787.87 385.18C795.083 408.673 799.803 423.98 802.03 431.1C808.143 450.626 816.743 469.656 827.83 488.19C836.877 503.323 848.25 516.846 861.95 528.76C863.017 529.686 863.833 530.776 864.4 532.03C864.527 532.31 864.51 532.576 864.35 532.83C842.797 566.583 813.923 592.296 777.73 609.97C759.323 618.963 740.137 625.24 720.17 628.8C720.113 628.811 720.059 628.835 720.014 628.871C719.969 628.907 719.933 628.954 719.909 629.007C719.885 629.06 719.875 629.118 719.879 629.176C719.882 629.234 719.9 629.29 719.93 629.34C731.06 647.77 739.42 666.8 747.25 687.27C754.55 706.37 759.217 718.71 761.25 724.29C764.69 733.743 768.187 745.066 771.74 758.26C775.28 771.406 777.02 784.09 776.96 796.31C776.913 804.77 776.857 810.363 776.79 813.09C776.52 824.38 772.73 836.66 766.5 845.81C754.7 863.11 731.27 862.28 712.64 859.53C712.575 859.52 712.509 859.526 712.446 859.547C712.384 859.569 712.329 859.606 712.284 859.654C712.239 859.703 712.208 859.761 712.191 859.825C712.175 859.889 712.174 859.956 712.19 860.02C713.22 864.3 714.23 868.54 714.86 872.96C715.56 877.78 716.417 882.763 717.43 887.91C718.083 891.256 718.28 893.526 718.02 894.72C717.07 899.04 712.12 898.97 708.01 898.61C707.517 898.57 707.37 898.776 707.57 899.23C711.61 908.556 715.56 918.17 719.42 928.07C720.76 931.496 723.727 939.556 728.32 952.25C728.707 953.316 728.87 954.69 728.81 956.37C728.797 956.71 728.957 956.903 729.29 956.95C730.437 957.11 731.427 957.186 732.26 957.18C758.687 956.953 785.87 956.893 813.81 957C814.117 957 814.267 956.846 814.26 956.54C813.953 943.346 813.9 929.71 814.1 915.63C814.107 915.01 813.803 914.733 813.19 914.8C810.1 915.1 804.67 915.77 802.49 913.66C802.043 913.22 801.757 912.333 801.63 911C801.23 906.606 801.23 902.46 801.63 898.56C801.883 896.126 803.347 894.743 806.02 894.41C809.367 893.99 811.98 893.803 813.86 893.85C813.924 893.853 813.988 893.842 814.048 893.818C814.108 893.794 814.162 893.758 814.207 893.712C814.251 893.665 814.285 893.61 814.307 893.549C814.328 893.488 814.336 893.424 814.33 893.36C814.217 891.813 814.007 890.026 813.7 888C813.373 885.893 813.387 884.403 813.74 883.53C814.76 880.99 817.02 880.72 819.67 880.85C822.643 880.996 825.56 881.08 828.42 881.1C828.506 881.1 828.592 881.079 828.669 881.039C828.745 881 828.812 880.942 828.862 880.872C828.911 880.801 828.944 880.72 828.956 880.634C828.968 880.548 828.959 880.461 828.93 880.38C826.21 872.74 823.67 865.016 821.31 857.21C819.823 852.303 818.67 847.496 817.85 842.79C817.703 841.91 817.71 840.266 817.87 837.86C818.43 829.68 826.92 829.15 831.22 834.77C832.747 836.763 833.85 838.98 834.53 841.42C838.59 855.953 842.427 868.763 846.04 879.85C846.16 880.21 846.41 880.406 846.79 880.44C850.83 880.793 854.943 880.793 859.13 880.44C859.443 880.413 859.647 880.246 859.74 879.94C866.073 858.246 872.087 839.926 877.78 824.98C879.1 821.506 881.363 817.29 884.57 812.33C885.26 811.28 885.47 809.99 887.12 809.53C887.249 809.494 887.386 809.489 887.517 809.515C887.649 809.541 887.773 809.597 887.879 809.68C887.985 809.763 888.07 809.869 888.128 809.991C888.185 810.112 888.213 810.245 888.21 810.38C888.09 815.166 888.067 817.776 888.14 818.21C888.227 818.75 888.363 818.793 888.55 818.34C889.05 817.1 889.8 815.69 890.8 814.11C891.62 812.81 892.707 812.003 894.06 811.69C894.219 811.653 894.384 811.655 894.542 811.695C894.699 811.736 894.845 811.813 894.966 811.921C895.086 812.029 895.179 812.165 895.236 812.316C895.292 812.467 895.311 812.63 895.29 812.79C894.917 815.83 894.727 818.556 894.72 820.97C894.713 824.036 894.363 826.74 893.67 829.08C892.19 834.046 891.347 836.856 891.14 837.51C885.78 854.69 881.21 868.766 877.43 879.74C877.403 879.823 877.396 879.912 877.409 879.998C877.422 880.085 877.456 880.167 877.507 880.237C877.558 880.308 877.625 880.365 877.702 880.403C877.779 880.442 877.864 880.461 877.95 880.46L899.49 880C899.931 879.991 900.36 880.136 900.704 880.41C901.048 880.684 901.283 881.07 901.37 881.5C901.703 883.086 901.727 884.583 901.44 885.99C901.376 886.303 901.441 886.634 901.62 886.91C901.913 887.376 901.963 887.773 901.77 888.1C901.637 888.333 901.61 888.58 901.69 888.84C902.163 890.293 902.063 891.53 901.39 892.55C901.348 892.615 901.323 892.69 901.319 892.767C901.315 892.845 901.332 892.922 901.367 892.991C901.403 893.06 901.456 893.119 901.522 893.161C901.587 893.203 901.662 893.226 901.74 893.23C905.64 893.403 908.57 893.563 910.53 893.71C912.53 893.856 913.817 894.996 914.39 897.13C914.69 898.25 914.71 899.41 914.45 900.61C914.17 901.903 914.03 903.03 914.03 903.99C914.04 907.75 914.75 911.55 912.04 913.37C910.02 914.74 905.52 914.21 902.47 914.14C902.4 914.137 902.33 914.148 902.265 914.173C902.199 914.197 902.14 914.234 902.089 914.282C902.039 914.329 901.999 914.386 901.971 914.45C901.944 914.513 901.93 914.581 901.93 914.65L901.56 956.6C901.559 956.684 901.574 956.767 901.605 956.845C901.636 956.923 901.682 956.995 901.74 957.055C901.799 957.115 901.869 957.164 901.946 957.197C902.023 957.23 902.106 957.248 902.19 957.25L1024 957.56ZM298.63 375.34C338.64 359.84 365.54 320.09 363.98 276.79C363.28 257.323 357.777 239.573 347.47 223.54C334.123 202.773 315.833 188.316 292.6 180.17C282.607 176.67 271.92 175.01 260.54 175.19C239.433 175.536 220.473 181.496 203.66 193.07C185.78 205.376 172.727 222.12 164.5 243.3C160.76 252.92 158.65 263.676 158.17 275.57C157.25 298.4 163.8 321.26 177.45 339.46C195.403 363.413 219.673 377.266 250.26 381.02C267.327 383.12 283.45 381.226 298.63 375.34ZM681.92 485.29C688.007 488.696 694.317 490.38 700.85 490.34C714.843 490.24 726.437 484.836 735.63 474.13C740.883 468.003 743.997 459.786 744.97 449.48C745.16 447.48 744.72 445.08 744.61 442.59C743.96 428.56 734.01 415.27 721.1 410.1C718.247 408.953 716.2 408.293 714.96 408.12C702.793 406.406 692.643 410.04 684.51 419.02C683.543 420.08 682.783 421.253 682.23 422.54C682.188 422.635 682.126 422.72 682.049 422.79C681.971 422.86 681.88 422.913 681.781 422.945C681.682 422.977 681.577 422.987 681.474 422.976C681.37 422.965 681.27 422.932 681.18 422.88C678.45 421.28 676.16 418.18 674.05 416.35C673.825 416.144 673.528 416.033 673.22 416.04C670.467 416.113 665.993 416.27 659.8 416.51C644.413 417.11 628.8 416.806 612.96 415.6C608.667 415.273 605.027 415.07 602.04 414.99C599.353 414.916 595.71 414.736 591.11 414.45C591.06 414.447 591.01 414.454 590.962 414.472C590.915 414.489 590.872 414.516 590.835 414.551C590.799 414.585 590.77 414.627 590.75 414.673C590.73 414.72 590.72 414.769 590.72 414.82C590.73 418.24 590.54 422.59 588.86 425.44C588.267 426.446 587.633 427.913 586.96 429.84C586.58 430.92 585.867 432.33 584.82 434.07C581.6 439.41 576.64 444.85 570.66 447.08C567.82 448.146 565.413 448.823 563.44 449.11C560.907 449.483 557.707 449.793 553.84 450.04C547.74 450.43 542.79 449.18 537.74 446.08C535.52 444.72 533.72 443.186 532.34 441.48C524.953 432.36 521.5 421.87 521.98 410.01C522.26 403.043 524.477 396.366 528.63 389.98C530.11 387.7 532.19 385.79 534.51 383.29C535.777 381.923 537.027 380.836 538.26 380.03C542.81 377.03 547.95 375.77 554.04 374.53C554.807 374.37 555.8 374.343 557.02 374.45C559.55 374.68 562.23 374.41 564.57 374.8C568.47 375.433 571.75 376.683 574.41 378.55C579.33 382.01 583.237 386.793 586.13 392.9C588.11 397.086 589.6 402.973 590.6 410.56C590.608 410.63 590.632 410.697 590.67 410.757C590.708 410.817 590.758 410.869 590.818 410.908C590.878 410.947 590.945 410.972 591.017 410.983C591.088 410.994 591.161 410.989 591.23 410.97C591.99 410.75 592.63 410.56 593.51 410.55C604.49 410.54 619.9 411.96 630.79 412.16C645.75 412.433 654.44 412.53 656.86 412.45C663.447 412.23 667.797 412.08 669.91 412C670.217 411.986 670.273 411.86 670.08 411.62C659.88 398.713 652.27 386.513 647.25 375.02C643.803 367.126 641.323 359.653 639.81 352.6C638.857 348.16 638.217 345.273 637.89 343.94C636.96 340.15 636.74 337.08 636.16 332.28C636.153 332.228 636.135 332.178 636.106 332.134C636.076 332.09 636.038 332.054 635.992 332.028C635.947 332.002 635.896 331.986 635.843 331.983C635.791 331.98 635.738 331.989 635.69 332.01C620.063 338.383 604.08 343.01 587.74 345.89C571.113 348.823 553.173 350.46 533.92 350.8C512.2 351.193 489.287 351.306 465.18 351.14C465.023 351.137 464.87 351.188 464.745 351.284C464.62 351.38 464.53 351.516 464.49 351.67C464.09 353.283 463.3 355.956 462.12 359.69C461.313 362.256 460.613 364.953 460.02 367.78C458.713 373.973 457.337 380.876 455.89 388.49C455.78 389.05 455.37 389.77 455.16 390.38C454.96 390.953 455.063 391.016 455.47 390.57C458.397 387.376 460.067 385.593 460.48 385.22C465.247 380.973 471.093 378.52 478.02 377.86C483.08 377.38 488.25 377.42 493.53 377.98C497.277 378.386 500.47 379.256 503.11 380.59C507.64 382.89 511.26 385.97 513.77 390.27C515.3 392.9 517.56 396.86 518.35 400.08C519.563 405.026 519.533 410.18 518.26 415.54C516.167 424.346 513.613 431.973 510.6 438.42C510.06 439.573 507.983 443.646 504.37 450.64C502.763 453.76 503.457 455.95 506.45 457.21C507.943 457.836 509.587 458.106 511.38 458.02C517.427 457.713 521.717 457.58 524.25 457.62C526.33 457.646 528.07 457.883 529.47 458.33C529.676 458.395 529.863 458.51 530.014 458.665C530.164 458.821 530.274 459.011 530.334 459.219C530.393 459.426 530.4 459.646 530.354 459.857C530.308 460.069 530.211 460.265 530.07 460.43C529.637 460.93 529.01 461.176 528.19 461.17C526.35 461.163 521.643 461.403 514.07 461.89C507 462.34 498.21 461.35 498.96 451.97C498.987 451.63 498.837 451.5 498.51 451.58C496.203 452.126 492.267 452.713 486.7 453.34C484.44 453.593 481.31 453.416 477.31 452.81C473.677 452.263 470.573 451.213 468 449.66C461.61 445.79 457.53 440.84 453.69 434.54C453.31 433.913 453.153 433.966 453.22 434.7C453.507 437.906 453.687 441.256 453.76 444.75C453.8 446.816 454.347 452.17 455.4 460.81C456.167 467.096 457.133 472.363 458.3 476.61C460.533 484.75 463.393 492.35 466.88 499.41C476.62 519.13 491.107 534.4 510.34 545.22C521.167 551.3 532.04 555.506 542.96 557.84C562.447 561.993 581.94 561.816 601.44 557.31C613.3 554.563 624.867 549.676 636.14 542.65C656.327 530.07 671.89 513.16 682.83 491.92C682.88 491.821 682.893 491.707 682.868 491.599C682.842 491.491 682.779 491.396 682.69 491.33L679.4 488.88C679.11 488.664 678.92 488.337 678.87 487.966C678.819 487.595 678.913 487.21 679.13 486.89L679.95 485.69C680.443 484.97 681.1 484.836 681.92 485.29ZM580.6 435.12C584.08 427.63 586.39 422.74 586.18 415.31C585.98 408.236 584.543 401.446 581.87 394.94C579.3 388.67 573.81 381.52 567.18 379.61C558.86 377.22 549.37 377.73 542 382.26C527.02 391.47 523.79 411.12 529.47 426.78C535.93 444.58 551.1 449.42 568.25 444.49C569.85 444.03 571.503 443.233 573.21 442.1C575.57 440.546 577.13 439.543 577.89 439.09C579.6 438.07 579.62 437.23 580.6 435.12ZM492.53 448.76C494.497 448.606 496.413 448.31 498.28 447.87C499.9 447.49 501.143 446.706 502.01 445.52C502.33 445.08 503.01 443.683 504.05 441.33C505.93 437.083 507.757 432.81 509.53 428.51C509.943 427.51 511.073 423.356 512.92 416.05C514.06 411.55 514.5 408.003 514.24 405.41C513.8 400.996 512.877 397.46 511.47 394.8C506.997 386.38 499.79 381.843 489.85 381.19C488.823 381.123 487.82 381.23 486.84 381.51C486.253 381.676 485.23 381.753 483.77 381.74C482.623 381.733 481.117 381.87 479.25 382.15C470.09 383.53 463.3 387.79 458.88 394.93C451.95 406.13 452.85 421.2 458.76 432.7C461.487 438.006 465.833 442.37 471.8 445.79C477.87 449.28 485.68 449.3 492.53 448.76ZM345.49 677.5C345.363 671.953 344.223 666.44 342.07 660.96C341.93 660.604 341.69 660.29 341.374 660.049C341.058 659.809 340.677 659.65 340.27 659.59L336.61 659.05C335.803 658.93 335.493 659.293 335.68 660.14C336.707 664.726 337.167 669.183 337.06 673.51C337.027 674.81 336.73 676.006 336.17 677.1C335.99 677.446 335.723 677.63 335.37 677.65L332.64 677.79C332.253 677.81 332.03 677.63 331.97 677.25C331.783 676.003 331.88 674.64 332.26 673.16C332.68 671.53 331.88 670.17 331.93 668.48C332.07 664.32 331.653 661.113 330.68 658.86C330.18 657.693 328.36 655.48 325.22 652.22C324.433 651.4 323.32 649.793 321.88 647.4C320.787 645.573 319.893 643.766 319.2 641.98C316.187 634.286 314.08 626.186 312.88 617.68C310.36 599.77 307.9 580.88 306.6 562.37C305.873 551.943 305.437 545.85 305.29 544.09C305.057 541.27 304.637 537.046 304.03 531.42C302.7 519.18 302.83 509.12 303.2 495.16C303.327 490.446 303.263 486.873 303.01 484.44C302.763 482.1 302.19 478.543 301.29 473.77C301.123 472.896 300.73 471.81 300.11 470.51C300.016 470.312 299.878 470.138 299.707 470.001C299.535 469.864 299.335 469.768 299.12 469.72C298.905 469.672 298.682 469.673 298.467 469.723C298.253 469.773 298.052 469.871 297.88 470.01C296.533 471.11 295.647 472.596 295.22 474.47C294.453 477.85 293.957 480.04 293.73 481.04C292.657 485.74 290.593 489.903 287.54 493.53C287.347 493.763 287.253 494.036 287.26 494.35C287.693 505.483 288.233 517.043 288.88 529.03C289.353 537.89 289.67 544.546 289.83 549C290.443 565.78 291.223 589.98 292.17 621.6C292.183 622.1 292.267 622.703 292.42 623.41C292.75 625.01 293.04 626.1 293.02 627.86C292.96 633.54 292.943 637.083 292.97 638.49C293.037 642.236 292.297 646.493 290.75 651.26C289.37 655.533 286.95 658.396 283.49 659.85C277.87 662.21 272.057 662.233 266.05 659.92C264.177 659.2 262.847 658.34 262.06 657.34C259.647 654.286 257.913 650.443 256.86 645.81C256.447 643.97 255.727 638.366 254.7 629C254.56 627.7 254.623 625.486 254.89 622.36C255.097 619.906 255.183 617.696 255.15 615.73C255.023 607.37 254.717 597.876 254.23 587.25C254.217 586.91 254.08 586.766 253.82 586.82L253.07 586.97C252.803 587.023 252.553 586.926 252.32 586.68C251.407 585.706 250.913 584.693 250.84 583.64C250.827 583.47 250.851 583.3 250.91 583.142C250.968 582.983 251.061 582.839 251.18 582.72C256.18 577.65 262.36 573.59 268.69 569.58C270.703 568.306 272.08 567.23 272.82 566.35C274.27 564.62 277.09 559.89 275.88 557.55C274.353 554.616 271.84 552.906 268.34 552.42C267.52 552.3 266.033 552.303 263.88 552.43C262.58 552.51 261.937 551.893 261.95 550.58C261.95 550.54 261.95 550.48 261.95 550.4C261.963 549.1 262.61 548.333 263.89 548.1C270.1 546.96 282.69 544.37 280.65 535.15C279.99 532.176 277.773 530.416 274 529.87C270.92 529.423 265.833 529.716 258.74 530.75C257.21 530.97 256.21 530.93 255.22 529.76C255.091 529.604 254.999 529.421 254.95 529.225C254.902 529.028 254.898 528.824 254.939 528.627C254.981 528.43 255.066 528.245 255.189 528.086C255.312 527.927 255.47 527.798 255.65 527.71C261.63 524.73 267.457 521.453 273.13 517.88C278.06 514.77 282.6 510.92 278.49 504.84C274.88 499.49 270.18 500.73 264.92 503.44C262.727 504.566 258.187 507.023 251.3 510.81C250.207 511.41 248.957 511.443 247.55 510.91C247.203 510.776 247.1 510.536 247.24 510.19C248.11 508.06 248.03 507.39 250.24 506.37C252.227 505.443 254.097 504.333 255.85 503.04C260.66 499.48 266.94 495.3 269.82 493.33C272.5 491.496 273.16 489.24 271.8 486.56C269.21 481.49 260.74 481.55 256.21 482.96C240.62 487.77 229.95 503.05 226.73 518.48C224.763 527.886 224.273 538.826 225.26 551.3C225.793 557.993 226.123 562.473 226.25 564.74C226.543 569.9 226.88 574.366 227.26 578.14C228.607 591.613 230.29 605.703 232.31 620.41C233.79 631.12 234.55 643.95 236.64 654.22C237.707 659.46 239.267 665.486 241.32 672.3C244.08 681.48 247.793 692.44 252.46 705.18C257.18 718.08 264.48 731.243 274.36 744.67C285.75 760.16 301.98 774.6 320.58 779.93C329.693 782.55 339.34 783.996 349.52 784.27C372.96 784.92 395.95 781.06 417.5 771.6C417.747 771.486 417.833 771.303 417.76 771.05C413.847 756.79 410.07 744.236 406.43 733.39C403.917 725.876 402.063 719.5 400.87 714.26C398.99 705.98 397.57 699.313 396.61 694.26C394.003 680.64 392.103 670.923 390.91 665.11C389.57 658.563 387.547 650.48 384.84 640.86C384.815 640.769 384.77 640.684 384.71 640.612C384.649 640.54 384.574 640.482 384.489 640.442C384.404 640.402 384.312 640.381 384.219 640.381C384.126 640.38 384.034 640.4 383.95 640.44L346.34 658C346.267 658.034 346.202 658.083 346.149 658.145C346.097 658.206 346.058 658.278 346.035 658.356C346.012 658.433 346.006 658.515 346.018 658.595C346.029 658.675 346.057 658.751 346.1 658.82C347.89 661.64 348.25 664.52 349.3 669.19C349.6 670.51 349.737 671.9 349.71 673.36C349.677 675.506 349.657 676.916 349.65 677.59C349.643 677.843 349.51 677.97 349.25 677.97L345.98 677.98C345.667 677.98 345.503 677.82 345.49 677.5ZM607.06 707.44C607.147 708.266 607.123 708.95 606.99 709.49C606.91 709.823 606.697 709.993 606.35 710C603.67 710.06 601.54 709.913 599.96 709.56C595.147 708.473 591.097 707.676 587.81 707.17C584.123 706.61 580.383 706.56 576.59 707.02C573.097 707.44 571.15 709.026 570.75 711.78C570.343 714.546 571.37 716.423 573.83 717.41C575.757 718.19 577.06 718.653 577.74 718.8C585.967 720.613 591.327 721.81 593.82 722.39C596.947 723.13 599.51 724.193 601.51 725.58C601.615 725.651 601.703 725.744 601.769 725.851C601.836 725.959 601.878 726.08 601.895 726.204C601.911 726.329 601.9 726.456 601.863 726.576C601.826 726.696 601.763 726.806 601.68 726.9L600.47 728.26C600.295 728.454 600.062 728.585 599.809 728.632C599.555 728.679 599.295 728.64 599.07 728.52C597.99 727.946 597.287 727.623 596.96 727.55C589.86 726.036 582.723 725.576 575.55 726.17C572.1 726.46 567.69 727.51 567.69 731.82C567.69 737.55 573.11 740.06 578.01 740.81C580.763 741.223 585.433 741.773 592.02 742.46C595.087 742.773 598.063 743.476 600.95 744.57C602.537 745.17 603.477 745.823 603.77 746.53C604.423 748.103 603.97 749.16 602.41 749.7C596.677 751.68 590.943 753.84 585.21 756.18C580.51 758.1 573.57 760.99 574.68 766.91C575.78 772.78 581.52 774.67 587.03 774.47C593.957 774.223 600.29 773.573 606.03 772.52C608.243 772.113 609.687 771.653 610.36 771.14C611.227 770.48 611.923 770.57 612.45 771.41L612.64 771.71C613.1 772.45 612.963 773.036 612.23 773.47L609.58 775.04C609.267 775.226 609.227 775.483 609.46 775.81C613.893 782.036 620.947 790.893 630.62 802.38C638.58 811.846 646.563 820.13 654.57 827.23C676.883 847.016 703.207 856.696 733.54 856.27C738.173 856.21 741.703 855.856 744.13 855.21C746.937 854.47 750.277 853.106 754.15 851.12C756.697 849.813 758.817 848.01 760.51 845.71C767.61 836.043 771.297 825.053 771.57 812.74C771.857 799.84 771.863 791.76 771.59 788.5C770.63 776.826 768.253 764.51 764.46 751.55C757.47 727.64 752.07 714.72 740.16 683.57C734.207 668.003 727.247 652.903 719.28 638.27C717.77 635.49 715.99 632.87 714.19 630.1C713.437 628.94 712.187 626.886 710.44 623.94C705.087 614.933 698.603 606.643 690.99 599.07C684.317 592.423 676.607 587.263 667.86 583.59C664.007 581.97 659.81 581.003 655.27 580.69C651.177 580.41 646.843 580.466 642.27 580.86C635.78 581.42 630.74 581.9 625.55 584.31C625.387 584.385 625.247 584.504 625.147 584.654C625.046 584.803 624.989 584.979 624.98 585.16C624.74 590.05 625.5 596.05 625.59 600.28C625.697 605.353 625.8 610.426 625.9 615.5C625.933 617.426 626.387 620.98 627.26 626.16C627.507 627.646 626.833 628.573 625.24 628.94C625.16 628.953 625.087 628.96 625.02 628.96C623.213 628.886 622.197 628.04 621.97 626.42C621.103 620.253 620.66 615.493 620.64 612.14C620.593 602.113 620.24 592.263 619.58 582.59C619.47 581.01 619.83 579.09 619.87 577.3C619.91 575.686 619.897 569.04 619.83 557.36C619.828 557.286 619.809 557.215 619.774 557.15C619.739 557.086 619.69 557.031 619.63 556.991C619.57 556.951 619.501 556.926 619.429 556.919C619.358 556.911 619.286 556.922 619.22 556.95C597.32 565.316 574.423 567.716 550.53 564.15C550.442 564.136 550.351 564.143 550.266 564.169C550.18 564.195 550.101 564.241 550.035 564.302C549.969 564.364 549.917 564.439 549.883 564.524C549.849 564.608 549.835 564.699 549.84 564.79C550.213 570.25 550.227 576.596 549.88 583.83C549.82 585.023 549.32 586.386 548.38 587.92C548.247 588.14 548.307 588.24 548.56 588.22C561.48 587.26 574.053 586.906 586.28 587.16C587.28 587.18 590.587 587.363 596.2 587.71C599.007 587.883 602.313 587.926 606.12 587.84C606.763 587.825 607.387 588.059 607.862 588.493C608.337 588.927 608.626 589.528 608.67 590.17C609.09 596.236 609.383 601.263 609.55 605.25C609.71 608.983 610.083 613.983 610.67 620.25C612.303 637.763 613.91 654.346 615.49 670C615.77 672.833 616.12 679.806 616.54 690.92C616.56 691.32 616.767 691.53 617.16 691.55C617.467 691.57 618.61 691.603 620.59 691.65C624.01 691.73 627.737 692.69 631.77 694.53C636.537 696.703 640.187 698.72 642.72 700.58C650.753 706.493 658.38 712.77 665.6 719.41C665.628 719.433 665.661 719.448 665.697 719.454C665.733 719.46 665.769 719.455 665.802 719.442C665.835 719.428 665.862 719.406 665.881 719.377C665.9 719.348 665.91 719.314 665.91 719.28C665.91 718.906 665.91 718.656 665.91 718.53C665.917 718.283 665.88 718.043 665.8 717.81C658.24 695.596 652.387 678.103 648.24 665.33C647.1 661.823 645.53 658.946 643.53 656.7C643.283 656.433 643.24 656.133 643.4 655.8C644.247 653.973 645.393 653.49 646.84 654.35C649.473 655.91 651.37 658.383 652.53 661.77C660.177 684.036 665.447 699.34 668.34 707.68C670.633 714.3 672.24 720.186 673.16 725.34C673.218 725.67 673.383 725.972 673.63 726.2C684.823 736.246 691.377 742.086 693.29 743.72C706.31 754.78 720.19 764.636 734.93 773.29C735.397 773.563 736.62 774.696 738.6 776.69C738.847 776.936 738.877 777.21 738.69 777.51C737.47 779.42 735.63 779.84 733.66 778.39C731.673 776.923 726.673 773.696 718.66 768.71C713.693 765.616 707.347 761.08 699.62 755.1C694.473 751.113 689.313 746.79 684.14 742.13C670.16 729.55 655.07 715.76 640.51 704.88C635.857 701.4 630.387 698.7 624.1 696.78C622.13 696.18 619.77 696.05 618 696.19C609.613 696.856 602.09 698.026 595.43 699.7C593.69 700.14 591.247 700.956 588.1 702.15C587.327 702.443 587.343 702.676 588.15 702.85L606.51 706.82C606.837 706.893 607.02 707.1 607.06 707.44ZM550.16 592.27C545.727 592.456 541.507 592.77 537.5 593.21C533.367 593.67 525.667 594.59 514.4 595.97C507.78 596.783 502.71 597.633 499.19 598.52C494.19 599.773 489.207 601.086 484.24 602.46C476.073 604.726 470.16 605.843 466.5 605.81C458.507 605.736 450.51 605.743 442.51 605.83C441.25 605.84 439.78 606.16 438.75 606.18C431.163 606.28 416.933 605.973 396.06 605.26C388.78 605.013 383.767 604.926 381.02 605C380.68 605.013 380.537 605.183 380.59 605.51C380.92 607.4 381.23 609.67 381.78 611.41C384.1 618.783 385.793 624.443 386.86 628.39C389.18 637.043 390.71 642.743 391.45 645.49C394.27 655.93 395.88 662.27 396.28 664.51C398.953 679.496 401.917 694.43 405.17 709.31C406.523 715.523 408.283 721.946 410.45 728.58C413.717 738.58 415.813 745.136 416.74 748.25C417.407 750.49 423.267 770.013 434.32 806.82C438.667 821.306 442.147 834.596 444.76 846.69C444.824 846.983 444.989 847.245 445.227 847.428C445.465 847.611 445.76 847.704 446.06 847.69C449.733 847.543 455.647 847.41 463.8 847.29C469.553 847.21 474.667 846.963 479.14 846.55C487.46 845.79 492.563 845.25 494.45 844.93C498.55 844.25 505.377 843.32 514.93 842.14C525.477 840.826 539.85 838.75 558.05 835.91C564.997 834.83 571.603 833.983 577.87 833.37C581.423 833.016 590.047 832.213 603.74 830.96C609.14 830.466 613.31 829.866 616.25 829.16C620.297 828.193 624.417 827.293 628.61 826.46C628.715 826.439 628.813 826.395 628.898 826.33C628.982 826.264 629.05 826.18 629.096 826.084C629.141 825.987 629.164 825.881 629.161 825.775C629.158 825.668 629.131 825.564 629.08 825.47C624.71 817.17 623.13 809.91 620.56 799.04C620.3 797.95 619.52 796.42 618.65 795.43C613.43 789.503 608.817 783.516 604.81 777.47C604.669 777.261 604.472 777.097 604.241 776.997C604.01 776.898 603.757 776.868 603.51 776.91C598.663 777.77 593.207 778.323 587.14 778.57C583.753 778.71 581.18 778.46 579.42 777.82C571.96 775.14 567.29 768.38 571.36 760.68C572.88 757.81 576.29 755.6 579.3 754.28C584.92 751.82 590.587 749.69 596.3 747.89C597.027 747.656 597.033 747.403 596.32 747.13C596.047 747.023 595.6 746.933 594.98 746.86C591.133 746.406 585.583 745.81 578.33 745.07C571.89 744.41 564.03 741.68 563.17 734.15C562.41 727.47 565.82 723.36 572.29 722.94C573.61 722.853 574.48 722.776 574.9 722.71C576.013 722.543 576.013 722.37 574.9 722.19C573.287 721.93 571.567 721.27 569.74 720.21C566.9 718.556 565.663 715.906 566.03 712.26C566.71 705.59 572.24 702.67 578.54 702.48C579.853 702.446 581.01 702.393 582.01 702.32C582.343 702.293 582.613 702.146 582.82 701.88C583.933 700.42 585.203 699.33 586.63 698.61C593.92 694.93 602.31 693.55 610.58 692.73C610.953 692.69 611.143 692.486 611.15 692.12C611.157 691.846 611.117 691.576 611.03 691.31C610.923 691.003 610.873 690.69 610.88 690.37C611.013 684.816 611.007 681.11 610.86 679.25C610.033 668.763 609.057 658.286 607.93 647.82C607.277 641.76 606.767 636.376 606.4 631.67C605.68 622.436 605.257 617.043 605.13 615.49C604.543 607.916 604.103 600.36 603.81 592.82C603.79 592.433 603.587 592.226 603.2 592.2C589.7 591.213 576.247 591.053 562.84 591.72C561.047 591.806 556.82 591.99 550.16 592.27ZM283.056 623.833C282.97 622.831 282.644 621.859 282.098 620.973C281.551 620.087 280.795 619.304 279.871 618.669C278.947 618.035 277.874 617.56 276.713 617.274C275.552 616.987 274.326 616.893 273.106 616.998C270.64 617.209 268.345 618.216 266.724 619.797C265.104 621.377 264.291 623.402 264.464 625.427C264.55 626.429 264.876 627.401 265.422 628.286C265.969 629.172 266.725 629.955 267.649 630.59C268.573 631.224 269.646 631.699 270.807 631.986C271.968 632.273 273.194 632.366 274.414 632.262C276.88 632.05 279.175 631.043 280.796 629.463C282.416 627.882 283.229 625.857 283.056 623.833ZM333.66 676.62C333.607 676.726 333.637 676.806 333.75 676.86C333.957 676.953 334.137 676.963 334.29 676.89C334.322 676.874 334.349 676.85 334.368 676.82C334.386 676.789 334.395 676.754 334.394 676.717C334.393 676.681 334.382 676.645 334.362 676.613C334.342 676.582 334.313 676.556 334.28 676.54C333.947 676.386 333.74 676.413 333.66 676.62ZM634.57 827.79C633.637 829.136 632.273 830.056 630.48 830.55C629.487 830.823 625.717 831.643 619.17 833.01C614.943 833.89 611.127 834.51 607.72 834.87C596.907 836.01 586.007 837.07 575.02 838.05C572.78 838.25 564.647 839.44 550.62 841.62C543.28 842.766 536.68 843.73 530.82 844.51C523.2 845.53 509.277 847.363 489.05 850.01C485.343 850.496 482.047 850.83 479.16 851.01C475.86 851.223 472.553 851.38 469.24 851.48C455.02 851.906 447.45 852.113 446.53 852.1C446.177 852.093 445.88 852.213 445.64 852.46C444.82 853.286 443.933 853.59 442.98 853.37C440.92 852.9 439.98 849.97 439.6 848.13C437.587 838.523 435.833 831.07 434.34 825.77C433.96 824.43 433.96 822.85 433.56 821.42C433.287 820.446 433.06 820.456 432.88 821.45C432.833 821.696 432.663 823.053 432.37 825.52C430.943 837.26 430.133 844.02 429.94 845.8C429.133 853.173 428.597 859.823 428.33 865.75C427.863 876.076 426.82 887.913 425.2 901.26C425.192 901.333 425.199 901.407 425.221 901.477C425.243 901.547 425.28 901.612 425.329 901.667C425.379 901.722 425.439 901.765 425.506 901.795C425.573 901.825 425.646 901.84 425.72 901.84C444.76 901.766 463.04 901.52 480.56 901.1C487.44 900.94 494.073 900.606 500.46 900.1C501.88 899.986 508.493 899.46 520.3 898.52C526.987 897.98 539.103 897.876 556.65 898.21C559.45 898.26 562.65 898.88 565 898.96C589.007 899.846 606.843 900.15 618.51 899.87C629.283 899.61 638.343 898.846 645.69 897.58C655.717 895.86 665.487 894.933 675 894.8C681.207 894.713 690.717 894.72 703.53 894.82C706.34 894.85 709.33 895.75 712.56 894.28C712.797 894.173 712.989 893.987 713.104 893.756C713.219 893.524 713.249 893.26 713.19 893.01C711.903 887.523 710.607 880.38 709.3 871.58C708.587 866.753 707.9 862.69 707.24 859.39C707.192 859.163 707.08 858.954 706.917 858.79C706.753 858.625 706.546 858.51 706.32 858.46C692.753 855.566 680.47 850.853 669.47 844.32C664.323 841.26 658.96 837.356 653.38 832.61C644.78 825.29 636.713 817.226 629.18 808.42C628.213 807.293 627.913 807.446 628.28 808.88C629.293 812.866 630.94 817.366 633.22 822.38C633.933 823.946 634.443 825.45 634.75 826.89C634.817 827.216 634.757 827.516 634.57 827.79ZM888.17 820.27L886.26 817.17C886.12 816.943 885.933 816.97 885.7 817.25C883.68 819.73 882.36 822.413 881.74 825.3C881.58 826.04 881.857 826.533 882.57 826.78L887.91 828.61C888.677 828.876 889.197 828.633 889.47 827.88C890.437 825.166 890.987 822.62 891.12 820.24C891.147 819.72 890.93 819.57 890.47 819.79L888.97 820.5C888.83 820.566 888.671 820.579 888.524 820.536C888.376 820.494 888.25 820.399 888.17 820.27ZM864.69 879.83C864.668 879.902 864.663 879.979 864.677 880.054C864.69 880.129 864.721 880.199 864.767 880.26C864.812 880.32 864.872 880.369 864.94 880.402C865.009 880.435 865.084 880.451 865.16 880.45L871.52 880.28C871.62 880.278 871.717 880.246 871.798 880.187C871.879 880.128 871.939 880.045 871.97 879.95L887.65 833.11C887.671 833.045 887.678 832.977 887.671 832.91C887.664 832.843 887.643 832.777 887.609 832.719C887.575 832.66 887.529 832.61 887.474 832.57C887.419 832.531 887.356 832.503 887.29 832.49L880.63 831.25C880.515 831.227 880.396 831.246 880.294 831.305C880.193 831.364 880.117 831.458 880.08 831.57L864.69 879.83ZM828.22 841.35C828.493 841.202 828.712 840.971 828.845 840.691C828.978 840.41 829.019 840.095 828.96 839.79C828.367 836.623 826.69 835.233 823.93 835.62C823.581 835.666 823.256 835.825 823.006 836.072C822.755 836.319 822.591 836.641 822.54 836.99C822.233 839.083 822.32 840.973 822.8 842.66C822.84 842.802 822.933 842.924 823.061 843C823.189 843.076 823.343 843.101 823.49 843.07C825.363 842.643 826.94 842.07 828.22 841.35ZM830.95 848.35C831.029 848.326 831.098 848.277 831.147 848.21C831.196 848.143 831.221 848.062 831.22 847.98L831.16 845.85C831.158 845.79 831.143 845.732 831.115 845.68C831.087 845.628 831.047 845.583 830.998 845.549C830.949 845.515 830.894 845.493 830.835 845.484C830.776 845.476 830.716 845.481 830.66 845.5L823.75 847.96C823.657 847.992 823.58 848.059 823.535 848.146C823.49 848.234 823.481 848.335 823.51 848.43L824.04 850.07C824.055 850.118 824.079 850.162 824.111 850.201C824.143 850.24 824.183 850.272 824.228 850.295C824.272 850.318 824.321 850.332 824.371 850.337C824.422 850.341 824.472 850.335 824.52 850.32L830.95 848.35ZM833.99 856.93C834.029 856.919 834.066 856.901 834.099 856.876C834.131 856.852 834.158 856.821 834.179 856.785C834.199 856.75 834.213 856.711 834.218 856.671C834.223 856.63 834.221 856.589 834.21 856.55L832.69 851.21C832.677 851.167 832.655 851.127 832.625 851.094C832.596 851.061 832.559 851.034 832.519 851.016C832.478 850.998 832.434 850.989 832.389 850.99C832.344 850.99 832.3 851 832.26 851.02L825.77 853.92C825.706 853.95 825.654 854.001 825.623 854.065C825.592 854.128 825.584 854.201 825.6 854.27L826.61 858.55C826.619 858.59 826.637 858.628 826.661 858.662C826.685 858.695 826.716 858.723 826.751 858.745C826.787 858.766 826.826 858.78 826.867 858.786C826.908 858.792 826.95 858.79 826.99 858.78L833.99 856.93ZM833.8 880.21C833.821 880.269 833.86 880.321 833.913 880.357C833.965 880.393 834.027 880.411 834.09 880.41L840.79 880.42C840.837 880.419 840.882 880.407 840.924 880.385C840.965 880.364 841 880.333 841.028 880.295C841.055 880.257 841.073 880.213 841.08 880.167C841.087 880.121 841.084 880.074 841.07 880.03L835.42 862.5C835.395 862.426 835.342 862.366 835.273 862.33C835.204 862.295 835.124 862.287 835.05 862.31L828.75 864.07C828.712 864.081 828.676 864.1 828.645 864.125C828.614 864.151 828.589 864.182 828.57 864.217C828.551 864.253 828.54 864.292 828.536 864.332C828.533 864.371 828.538 864.412 828.55 864.45L833.8 880.21ZM818.07 885.23C817.955 885.232 817.841 885.258 817.736 885.306C817.632 885.355 817.538 885.424 817.462 885.511C817.386 885.598 817.329 885.699 817.294 885.809C817.259 885.919 817.247 886.035 817.26 886.15L818.02 892.58C818.045 892.782 818.143 892.968 818.296 893.103C818.449 893.238 818.646 893.311 818.85 893.31L896.59 893.35C896.807 893.35 897.015 893.265 897.17 893.114C897.325 892.962 897.415 892.756 897.42 892.54L897.64 884.96C897.644 884.847 897.625 884.735 897.585 884.63C897.544 884.526 897.483 884.43 897.404 884.35C897.326 884.269 897.232 884.206 897.128 884.163C897.024 884.12 896.912 884.098 896.8 884.1L818.07 885.23ZM908.19 909.86C908.837 909.953 909.17 909.67 909.19 909.01L909.55 898.16C909.553 898.045 909.532 897.93 909.489 897.823C909.447 897.717 909.383 897.62 909.301 897.538C909.22 897.457 909.123 897.393 909.016 897.35C908.909 897.308 908.795 897.287 908.68 897.29C893.907 897.583 879.347 897.79 865 897.91C848.58 898.05 826.66 897.43 813.49 897.94C810.31 898.066 808.08 898.176 806.8 898.27C806.56 898.287 806.337 898.401 806.179 898.587C806.022 898.772 805.943 899.014 805.96 899.26L806.57 909.49C806.58 909.678 806.663 909.855 806.801 909.984C806.939 910.112 807.121 910.182 807.31 910.18C840.07 909.493 865.233 909.216 882.8 909.35C882.853 909.35 886.173 909.276 892.76 909.13C898.593 908.996 903.737 909.24 908.19 909.86ZM303.08 921.51C303.3 922.583 302.837 923.12 301.69 923.12C291.443 923.093 281.547 923.933 272 925.64C271.32 925.76 270.497 925.826 269.53 925.84C267.47 925.86 265.22 926.07 263.41 926.06C248.317 925.953 233.21 926.563 218.09 927.89C214.17 928.23 210.87 928.92 207.28 929.39C207.164 929.402 207.057 929.46 206.983 929.552C206.908 929.643 206.871 929.761 206.88 929.88L207.04 932.83C207.06 933.143 207.24 933.3 207.58 933.3C218.227 933.326 228.29 932.96 237.77 932.2C240.097 932.013 246.58 932.236 257.22 932.87C262.46 933.183 266.81 933.16 270.27 932.8C279.78 931.81 289.03 929.9 299.28 929.82C310.38 929.733 316.01 929.686 316.17 929.68C316.51 929.68 316.687 929.643 316.7 929.57L318.34 914.73C318.38 914.35 317.983 914.15 317.15 914.13C310.083 913.97 301.117 913.956 290.25 914.09C284.323 914.17 277.667 914.433 270.28 914.88C258.22 915.606 249.633 916.166 244.52 916.56C231.553 917.56 218.823 920.39 206.33 925.05C206.157 925.11 206.047 925.19 206 925.29C205.947 925.376 205.91 925.466 205.89 925.56C205.81 925.953 205.97 926.14 206.37 926.12C209.92 925.94 213.83 925.04 216.83 924.73C230.737 923.283 244.82 922.61 259.08 922.71C260.5 922.723 261.95 922.693 263.43 922.62C267.15 922.43 270.78 922.44 274.27 921.84C282.717 920.386 291.583 919.66 300.87 919.66C302.11 919.66 302.833 920.22 303.04 921.34C303.06 921.433 303.073 921.49 303.08 921.51ZM818.43 956.95L895.83 957.29C896.617 957.296 897 956.91 896.98 956.13C896.733 946.456 896.863 935 897.37 921.76C897.423 920.24 897.327 917.783 897.08 914.39C897.053 914.056 896.87 913.896 896.53 913.91C869.15 914.916 843.077 915.196 818.31 914.75C817.95 914.743 817.773 914.92 817.78 915.28L818.17 956.68C818.17 956.715 818.177 956.75 818.19 956.783C818.203 956.816 818.222 956.845 818.246 956.871C818.27 956.896 818.299 956.916 818.331 956.929C818.362 956.943 818.396 956.95 818.43 956.95ZM103.58 927.48C103.46 927.86 103.23 928.053 102.89 928.06C92.3767 928.32 82.5467 928.033 73.4 927.2C73.3578 927.196 73.3152 927.201 73.2749 927.215C73.2345 927.229 73.1973 927.252 73.1654 927.282C73.1335 927.312 73.1078 927.348 73.0896 927.389C73.0715 927.43 73.0614 927.475 73.06 927.52L72.92 932.27C72.9067 932.596 73.0733 932.783 73.42 932.83C80.3133 933.836 84.7133 934.353 86.62 934.38C94.6667 934.52 100.257 934.66 103.39 934.8C103.917 934.826 104.183 935.123 104.19 935.69L104.21 937.12C104.217 937.673 103.967 937.956 103.46 937.97C93.2267 938.243 83.2167 937.62 73.43 936.1C73.1567 936.06 73.0133 936.176 73 936.45L72.78 940.53C72.7667 940.77 72.88 940.903 73.12 940.93C78.9267 941.596 84.4633 941.943 89.73 941.97C90.3033 941.976 90.49 942.223 90.29 942.71L89.37 944.99C89.2627 945.255 89.0771 945.48 88.841 945.63C88.6049 945.779 88.3309 945.846 88.06 945.82L72.54 944.2C72.3533 944.18 72.2367 944.26 72.19 944.44L71.01 948.77C70.97 948.916 71.0233 948.993 71.17 949C97.8167 950.273 127.177 951.02 159.25 951.24C172.41 951.333 181.577 951.386 186.75 951.4C187.857 951.406 188.747 951.316 189.42 951.13C189.565 951.091 189.694 951.014 189.792 950.909C189.89 950.804 189.952 950.675 189.97 950.54L190.27 947.84C190.287 947.685 190.252 947.531 190.173 947.408C190.093 947.284 189.975 947.199 189.84 947.17C187.587 946.656 185.867 946.383 184.68 946.35C174.327 946.003 165.36 945.893 157.78 946.02C145.41 946.23 135.48 945.5 121.75 945.07C120.263 945.023 118.92 945.143 117.72 945.43C116.067 945.83 114.897 946.023 114.21 946.01C112.703 945.983 111.51 945.91 110.63 945.79C109.57 945.643 109.19 945.063 109.49 944.05L109.57 943.77C109.863 942.796 110.463 942.286 111.37 942.24C119.883 941.813 127.627 941.793 134.6 942.18C141.167 942.54 147.63 942.71 153.99 942.69C160.45 942.676 166.937 942.643 173.45 942.59C175.237 942.57 177.267 942.653 179.54 942.84C182.61 943.09 186.65 942.73 189.98 944.19C190.807 944.55 191.28 944.276 191.4 943.37L192.08 938.32C192.193 937.46 191.827 937.023 190.98 937.01C181.15 936.8 169.62 937.88 160.05 937.62C146.3 937.24 135.94 936.57 124.25 936.13C122.023 936.05 117.187 936.59 109.74 937.75C109.567 937.776 109.256 937.734 108.84 937.627C108.425 937.519 107.92 937.351 107.38 937.14C107.24 937.08 107.123 936.99 107.03 936.87C106.263 935.896 106.323 935.303 107.21 935.09C114.63 933.323 121.403 932.59 127.53 932.89C140.21 933.523 146.877 933.853 147.53 933.88C158.083 934.28 172.89 934.14 191.95 933.46C192.297 933.446 192.547 933.29 192.7 932.99C193.067 932.263 193.283 931.43 193.35 930.49C193.377 930.136 193.217 929.933 192.87 929.88C186.277 928.873 181.387 928.373 178.2 928.38C166.66 928.42 154.027 928.046 140.3 927.26C130.047 926.68 119.013 926.986 107.2 928.18C107.07 928.192 106.938 928.178 106.813 928.14C106.688 928.101 106.572 928.038 106.473 927.954C106.373 927.87 106.291 927.767 106.232 927.651C106.173 927.535 106.139 927.409 106.13 927.28C106.09 926.74 105.96 926.206 105.74 925.68C105.513 925.146 105.687 924.85 106.26 924.79C110.6 924.31 115.85 923.986 122.01 923.82C133.237 923.526 143.72 923.783 153.46 924.59C156.533 924.843 159.523 924.983 162.43 925.01C168.083 925.056 171.077 925.073 171.41 925.06C174.923 924.946 178.653 925.126 182.6 925.6C184.56 925.833 188.36 926.156 194 926.57C194.076 926.575 194.153 926.564 194.224 926.536C194.296 926.508 194.362 926.465 194.418 926.408C194.473 926.352 194.517 926.284 194.547 926.208C194.576 926.133 194.591 926.051 194.59 925.97V925.68C194.59 925.406 194.48 925.243 194.26 925.19C186.713 923.363 181.387 922.336 178.28 922.11C169.42 921.463 161.04 920.496 153.14 919.21C147.433 918.27 142.47 917.75 138.25 917.65C127.637 917.39 120.387 917.33 116.5 917.47C100.88 918.03 86.7 918.15 73.96 917.83C73.787 917.825 73.6188 917.898 73.4917 918.033C73.3645 918.168 73.2885 918.353 73.28 918.55L73.13 923.14C73.1167 923.593 73.3267 923.843 73.76 923.89C84.57 924.97 91.16 924.89 103.98 924.74C104.3 924.74 104.417 924.873 104.33 925.14L103.58 927.48ZM208.23 941.8C208.25 942.026 208.377 942.14 208.61 942.14C226.437 941.76 243.567 941.873 260 942.48C261.553 942.533 266.06 942.216 273.52 941.53C278.567 941.056 283.067 940.873 287.02 940.98C290.133 941.06 295.243 941.323 302.35 941.77C303.577 941.843 305.827 941.873 309.1 941.86C311.293 941.846 313.547 941.986 315.86 942.28C316.047 942.3 316.147 942.216 316.16 942.03C316.48 936.296 316.64 933.403 316.64 933.35C316.653 933.15 316.567 933.05 316.38 933.05C311.107 933.156 306.13 933.256 301.45 933.35C291.2 933.54 283.68 934.64 270.4 936.18C267.07 936.56 263.02 936.64 259.2 936.41C247.88 935.736 241.477 935.44 239.99 935.52C229.33 936.126 218.687 936.523 208.06 936.71C208.025 936.709 207.991 936.717 207.959 936.731C207.928 936.745 207.899 936.766 207.876 936.792C207.852 936.819 207.834 936.85 207.823 936.884C207.812 936.918 207.807 936.954 207.81 936.99L208.23 941.8ZM203.54 953.04C203.587 953.042 203.634 953.032 203.677 953.011C203.719 952.99 203.756 952.958 203.783 952.919C203.81 952.88 203.826 952.835 203.831 952.788C203.836 952.741 203.829 952.693 203.81 952.65C202.177 948.543 201.27 943.756 201.09 938.29C201.063 937.603 200.867 937.133 200.5 936.88C200.405 936.814 200.297 936.771 200.184 936.753C200.07 936.734 199.954 936.742 199.844 936.774C199.733 936.807 199.632 936.864 199.546 936.941C199.461 937.018 199.394 937.113 199.35 937.22C197.25 942.146 196.533 947.273 197.2 952.6C197.227 952.806 197.347 952.913 197.56 952.92L203.54 953.04ZM209.62 946.25L210.08 948.09C210.147 948.348 210.296 948.576 210.504 948.739C210.712 948.902 210.968 948.99 211.23 948.99C228.463 949.11 238.72 949.226 242 949.34C263.5 950.093 279.417 950.52 289.75 950.62C292.763 950.646 301.54 950.503 316.08 950.19C316.253 950.183 316.34 950.093 316.34 949.92L316.32 945.28C316.313 945.12 316.233 945.046 316.08 945.06C308.42 945.5 300.587 945.373 292.58 944.68C283.55 943.9 278.04 944.89 265.14 945.61C261.413 945.823 258.483 945.89 256.35 945.81C248.83 945.53 241.12 945.09 234.41 945.24C225.33 945.446 217.313 945.473 210.36 945.32C209.713 945.306 209.467 945.616 209.62 946.25Z" fill="#000000"/>
<path d="M225.86 193.55C225.586 193.419 225.357 193.211 225.2 192.95C224.72 192.183 224.743 191.453 225.27 190.76C225.543 190.406 225.913 190.13 226.38 189.93C229.607 188.556 232.973 187.85 236.48 187.81C237.767 187.796 238.79 188.32 239.55 189.38C239.631 189.492 239.684 189.622 239.706 189.759C239.728 189.896 239.718 190.036 239.676 190.168C239.634 190.3 239.562 190.42 239.466 190.52C239.369 190.619 239.251 190.694 239.12 190.74C237.493 191.306 234.963 192.223 231.53 193.49C229.357 194.296 227.467 194.316 225.86 193.55Z" fill="#000000"/>
<path d="M205.3 210.04C193.92 219.233 184.957 230.17 178.41 242.85C174.54 250.35 172.18 259.16 170.13 268.14C169.743 269.82 168.833 270.286 167.4 269.54C167.014 269.337 166.691 269.034 166.465 268.662C166.24 268.29 166.12 267.864 166.12 267.43C166.133 265.676 166.44 263.543 167.04 261.03C171.56 242.09 181.087 225.873 195.62 212.38C202.78 205.733 209.753 199.983 216.54 195.13C217.84 194.196 219.15 194.053 220.47 194.7C220.483 194.706 220.593 194.766 220.8 194.88C222.047 195.58 222.12 196.386 221.02 197.3C219.353 198.673 214.113 202.92 205.3 210.04Z" fill="#000000"/>
<path d="M169.3 291.74C169.133 292.167 169.01 292.47 168.93 292.65C168.841 292.859 168.698 293.04 168.516 293.175C168.334 293.309 168.118 293.393 167.893 293.416C167.667 293.44 167.44 293.402 167.233 293.308C167.027 293.214 166.85 293.066 166.72 292.88C165.78 291.52 165.68 289.95 165.37 288.6C164.717 285.7 164.547 282.853 164.86 280.06C165.053 278.34 166.023 277.64 167.77 277.96C168.076 278.016 168.357 278.164 168.577 278.383C168.797 278.603 168.944 278.884 169 279.19C169.4 281.317 169.437 283.317 169.11 285.19C169.05 285.517 169.083 285.833 169.21 286.14C169.983 288.02 170.013 289.887 169.3 291.74Z" fill="#000000"/>
<path d="M562.473 360.114C567.505 362.281 572.183 362.648 572.921 360.933C573.659 359.219 570.179 356.072 565.147 353.905C560.115 351.738 555.437 351.371 554.699 353.086C553.961 354.8 557.441 357.947 562.473 360.114Z" fill="#000000"/>
<path d="M468.18 364.69C468.02 364.314 468.015 363.891 468.167 363.512C468.319 363.133 468.615 362.83 468.99 362.67L479.21 358.31C480.307 357.842 481.422 357.445 482.491 357.143C483.56 356.841 484.562 356.639 485.44 356.549C486.318 356.459 487.054 356.482 487.607 356.618C488.159 356.754 488.517 356.999 488.66 357.34L489.16 358.52C489.45 359.206 488.85 360.238 487.493 361.389C486.135 362.54 484.131 363.717 481.92 364.66L471.7 369.02C471.325 369.18 470.901 369.184 470.522 369.033C470.144 368.881 469.841 368.585 469.68 368.21L468.18 364.69Z" fill="#000000"/>
<path d="M546.78 396.03C555.8 395.86 557.02 411.96 556.15 418.01C555.47 422.75 552.26 426.46 547.35 426.55C542.45 426.65 539.1 423.06 538.24 418.35C537.14 412.34 537.75 396.2 546.78 396.03Z" fill="#000000"/>
<path d="M469.23 408.049C469.757 405.476 470.577 403.296 471.69 401.509C476.09 394.379 484.01 400.079 485.69 405.749C487.71 412.596 486.917 418.843 483.31 424.489C479.42 430.579 470.89 430.549 468.26 423.589C467.293 421.016 467.147 418.103 467.82 414.849C468.68 410.709 469.15 408.443 469.23 408.049Z" fill="#000000"/>
<path d="M716.55 434.34C715.543 434.547 714.517 435.173 713.47 436.22C709.283 440.4 706.647 443.013 705.56 444.06C703.433 446.113 701.477 447.563 699.69 448.41C698.577 448.937 697.68 448.6 697 447.4C696.487 446.487 696.633 445.693 697.44 445.02C700.767 442.273 704.167 439.063 707.64 435.39C709.44 433.483 711.347 431.993 713.36 430.92C720.33 427.22 724.93 434.49 724.96 440.5C724.96 440.82 724.817 441.047 724.53 441.18C721.66 442.5 720.55 438.28 719.52 435.89C719.28 435.33 718.853 434.871 718.312 434.588C717.772 434.306 717.149 434.218 716.55 434.34Z" fill="#000000"/>
<path d="M702.85 466.98C703.062 467.117 703.307 467.196 703.56 467.209C703.813 467.221 704.064 467.167 704.289 467.052C704.514 466.936 704.705 466.763 704.842 466.55C704.979 466.338 705.058 466.093 705.07 465.84C705.25 462.347 703.857 459.607 700.89 457.62C699.11 456.433 697.857 455.653 697.13 455.28C696.01 454.707 695.647 453.83 696.04 452.65C696.067 452.563 696.083 452.517 696.09 452.51C696.503 451.363 697.277 451.007 698.41 451.44C704.017 453.567 707.543 456.987 708.99 461.7C710.11 465.32 709.03 470.4 705.02 471.55C703.087 472.097 701.23 471.523 699.45 469.83C698.003 468.457 695.937 466.397 693.25 463.65C693.045 463.438 692.92 463.162 692.896 462.868C692.872 462.575 692.951 462.282 693.12 462.04C693.74 461.147 694.483 460.857 695.35 461.17C697.75 462.03 699.283 462.947 699.95 463.92C700.93 465.347 701.897 466.367 702.85 466.98Z" fill="#000000"/>
<path d="M445.22 666.389C443.12 666.543 441.043 666.059 438.99 664.939C437.49 664.126 437.587 663.613 439.28 663.399C443.33 662.889 445.91 662.439 449.59 662.369C459.39 662.169 469.063 662.173 478.61 662.379C479.503 662.399 479.79 662.876 479.47 663.809L479.14 664.739C479.026 665.071 478.795 665.36 478.478 665.567C478.161 665.775 477.774 665.891 477.37 665.899C470.343 666.059 464.883 666.069 460.99 665.929C457.04 665.789 453.33 666.099 449.05 666.129C448.983 666.129 447.707 666.216 445.22 666.389Z" fill="#000000"/>
<path d="M447.44 680.839C449.433 680.533 451.42 680.483 453.4 680.689C456.68 681.039 460.63 680.799 463.86 680.579C466.053 680.433 467.977 680.476 469.63 680.709C471.23 680.936 473.173 681.009 475.46 680.929C475.887 680.916 476.093 681.106 476.08 681.499L476.02 683.399C476.007 683.819 475.82 684.032 475.46 684.039C468.98 684.139 461.827 684.229 454 684.309C451.74 684.336 449.043 684.039 445.91 683.419C444.757 683.192 444.04 682.939 443.76 682.659C441.873 680.759 442.227 679.999 444.82 680.379C445.5 680.479 446.59 680.969 447.44 680.839Z" fill="#000000"/>
<path d="M463.07 700.62C463.977 700.133 465.073 699.98 466.36 700.16C468.193 700.426 469.14 700.56 469.2 700.56C471.093 700.586 474.317 700.853 478.87 701.36C479.53 701.433 479.78 701.833 479.62 702.56L479.25 704.25C479.123 704.836 478.73 705.086 478.07 705C473.923 704.46 469.96 704.14 466.18 704.04C465.18 704.02 464.17 703.753 463.15 703.24C462.217 702.78 461.187 702.373 460.06 702.02C459.473 701.84 459.123 701.64 459.01 701.42C458.87 701.173 458.847 700.866 458.94 700.5C458.981 700.349 459.071 700.217 459.196 700.124C459.321 700.032 459.474 699.984 459.63 699.99C460.61 700.016 461.46 700.223 462.18 700.61C462.48 700.77 462.777 700.773 463.07 700.62Z" fill="#000000"/>
<path d="M511.84 758.149C511.213 758.316 510.767 758.389 510.5 758.369C507.26 758.123 503.26 758.063 498.5 758.189C494.787 758.289 489.447 757.743 482.48 756.549C482.317 756.521 482.165 756.421 482.047 756.263C481.93 756.106 481.853 755.901 481.83 755.679L481.79 755.339C481.782 755.249 481.795 755.157 481.828 755.073C481.861 754.988 481.914 754.912 481.981 754.852C482.048 754.791 482.128 754.748 482.215 754.725C482.302 754.702 482.392 754.7 482.48 754.719C483.927 755.073 485.217 755.063 486.35 754.689C487.31 754.376 488.6 754.256 490.22 754.329C495.073 754.556 502.733 754.596 513.2 754.449C514.96 754.429 516.11 754.469 516.65 754.569C518.103 754.863 519.26 754.989 520.12 754.949C520.487 754.936 520.657 755.129 520.63 755.529L520.51 757.489C520.49 757.883 520.283 758.076 519.89 758.069C517.743 758.029 515.51 758.023 513.19 758.049C512.51 758.063 512.06 758.096 511.84 758.149Z" fill="#000000"/>
<path d="M481.54 776.34L513.08 776.53C513.174 776.53 513.267 776.555 513.35 776.602C513.434 776.649 513.507 776.718 513.565 776.803C513.622 776.888 513.662 776.987 513.682 777.094C513.702 777.2 513.701 777.312 513.68 777.42L513.27 779.43C513.21 779.73 513.02 779.883 512.7 779.89C503.9 780.003 496.48 780.02 490.44 779.94C488.607 779.92 487.197 779.753 486.21 779.44C485.07 779.073 483.673 778.696 482.02 778.31C481.467 778.183 481.123 777.97 480.99 777.67C480.917 777.503 480.927 777.2 481.02 776.76C481.08 776.48 481.253 776.34 481.54 776.34Z" fill="#000000"/>
<path d="M744.35 788.77C744.93 785.276 745.137 782.186 744.97 779.5C744.938 778.968 745.096 778.437 745.418 777.99C745.74 777.543 746.209 777.205 746.75 777.03L747.14 776.91C748.347 776.523 748.927 776.96 748.88 778.22C748.807 780.04 749.013 781.766 749.5 783.4C749.592 783.714 749.602 784.048 749.53 784.37C748.897 787.196 748.62 789.42 748.7 791.04C748.76 792.146 748.26 792.45 747.2 791.95L745.62 791.2C744.587 790.713 744.163 789.903 744.35 788.77ZM745.48 789.14C745.56 789.373 745.69 789.52 745.87 789.58C746.05 789.646 746.103 789.583 746.03 789.39L745.86 788.95C745.84 788.897 745.8 788.857 745.75 788.838C745.7 788.818 745.644 788.822 745.594 788.847C745.543 788.872 745.503 788.917 745.482 788.972C745.46 789.027 745.46 789.087 745.48 789.14Z" fill="#000000"/>
<path d="M483.82 796.12C484.053 795.986 484.613 795.92 485.5 795.92C496.16 795.946 503.287 796.113 506.88 796.42C507.011 796.431 507.138 796.47 507.253 796.534C507.368 796.599 507.467 796.687 507.545 796.793C507.623 796.899 507.677 797.021 507.703 797.15C507.73 797.278 507.729 797.411 507.7 797.54C507.673 797.633 507.65 797.72 507.63 797.8C507.43 798.64 506.9 799.086 506.04 799.14C498.82 799.606 492.02 799.56 485.64 799C484.967 798.94 484.537 798.823 484.35 798.65C484.083 798.416 483.83 798.15 483.59 797.85C483.317 797.51 482.967 797.346 482.54 797.36C481.673 797.393 481.14 797.36 480.94 797.26C479.767 796.66 479.82 796.183 481.1 795.83C481.727 795.663 482.37 795.79 483.03 796.21C483.223 796.336 483.487 796.306 483.82 796.12Z" fill="#000000"/>
<path d="M903.275 901.035L888.406 901.607C887.987 901.623 887.66 901.976 887.676 902.395L887.736 903.954C887.752 904.373 888.105 904.7 888.525 904.684L903.394 904.113C903.813 904.097 904.14 903.744 904.124 903.324L904.064 901.766C904.048 901.346 903.695 901.019 903.275 901.035Z" fill="#000000"/>
<path d="M882.527 901.759L836.147 901.84C835.346 901.842 834.698 902.492 834.7 903.293L834.7 903.413C834.701 904.214 835.352 904.862 836.153 904.86L882.532 904.779C883.333 904.778 883.981 904.128 883.98 903.327L883.98 903.207C883.978 902.406 883.328 901.758 882.527 901.759Z" fill="#000000"/>
<path d="M314.86 922.44L306.87 923.27C306.643 923.295 306.415 923.25 306.214 923.142C306.013 923.035 305.85 922.869 305.745 922.667C305.64 922.465 305.599 922.236 305.627 922.01C305.654 921.783 305.749 921.571 305.9 921.4L307.65 919.4C307.76 919.276 307.896 919.178 308.048 919.112C308.2 919.046 308.364 919.015 308.53 919.02L313.35 919.12C313.585 919.127 313.813 919.207 314 919.35L315.42 920.42C315.599 920.557 315.733 920.744 315.804 920.958C315.876 921.172 315.882 921.402 315.822 921.619C315.762 921.836 315.638 922.03 315.466 922.177C315.295 922.323 315.084 922.415 314.86 922.44Z" fill="#000000"/>
<path d="M105.442 942.594L95.6868 942.287C94.776 942.259 94.0144 942.974 93.9858 943.885L93.9807 944.044C93.9521 944.955 94.6673 945.717 95.5781 945.745L105.333 946.052C106.244 946.081 107.006 945.366 107.034 944.455L107.039 944.295C107.068 943.384 106.353 942.622 105.442 942.594Z" fill="#000000"/>
</g>
<defs>
<clipPath id="clip0_93_2851">
<rect width="1024" height="1024" fill="none"/>
</clipPath>
</defs>
</svg>
