<svg width="1024" height="920" viewBox="0 108 1024 920" fill="none" xmlns="http://www.w3.org/2000/svg">
<g clip-path="url(#clip0_93_128)">
<rect width="1024" height="1024" fill="none"/>
<path d="M310.429 117.894C309.036 121.209 310.49 124.982 313.677 126.321C316.864 127.661 320.578 126.06 321.971 122.746C323.364 119.432 321.91 115.659 318.723 114.319C315.536 112.979 311.822 114.58 310.429 117.894Z" fill="#0055CC" style="cursor: pointer;"/>
<path d="M606.43 409.27C606.103 410.164 605.42 410.627 604.38 410.66C596.22 410.92 588.793 411.024 582.1 410.97C579.573 410.95 577.197 411.03 574.97 411.21C570.25 411.6 565.65 411.23 560.95 411.69C558 411.98 555.04 411.78 552.04 411.93C518.693 413.557 495.457 415.05 482.33 416.41C471.85 417.504 461.453 418.524 451.14 419.47C441.69 420.34 431.47 422.03 421.59 423.09C421.507 423.1 421.422 423.087 421.345 423.053C421.269 423.018 421.202 422.964 421.153 422.895C421.103 422.826 421.072 422.745 421.063 422.66C421.054 422.575 421.067 422.489 421.1 422.41C422.3 419.637 423.273 416.787 424.02 413.86C428.28 397.23 428.73 379.41 427.46 362.16C426.76 352.66 425.153 343.52 422.64 334.74C420.16 326.05 416.16 317.26 408.7 312.07C408.625 312.018 408.566 311.945 408.529 311.861C408.493 311.777 408.48 311.685 408.492 311.594C408.505 311.503 408.542 311.417 408.6 311.346C408.658 311.275 408.734 311.221 408.82 311.19C410.207 310.684 411.69 310.297 413.27 310.03C427.997 307.564 442.407 305.517 456.5 303.89C461.34 303.33 466.31 302.39 470.93 301.97C483.85 300.79 497.24 299.19 509.86 298.3C526.64 297.114 543.417 295.934 560.19 294.76C565.03 294.427 570.24 294.15 575.82 293.93C581.16 293.717 586.38 293.49 591.48 293.25C593.027 293.177 594.557 293.137 596.07 293.13C599.5 293.13 602.7 292.53 606.07 292.61C608.56 292.67 610.87 292.13 613.36 292.09C620.627 291.95 627.817 291.804 634.93 291.65C636.69 291.62 638.47 291.04 640.2 291.07C646.593 291.164 652.63 291.11 658.31 290.91C679.19 290.17 697.857 289.747 714.31 289.64C716.48 289.62 718.42 290.51 720.67 290.36C725.54 290.02 731.6 293.29 733.92 297.88C734.627 299.287 735.01 301.47 735.07 304.43C735.223 311.59 735.303 318.447 735.31 325C735.357 352.4 735.367 380.017 735.34 407.85C735.34 408.007 735.309 408.162 735.248 408.307C735.188 408.451 735.099 408.582 734.987 408.692C734.876 408.802 734.743 408.888 734.598 408.946C734.452 409.005 734.297 409.033 734.14 409.03C707.693 408.63 680.963 408.637 653.95 409.05C653.733 409.056 653.523 408.975 653.364 408.826C653.205 408.676 653.111 408.47 653.1 408.25C652.97 405.03 653.1 401.65 651.96 398.62C647.53 386.82 635.58 386.36 624.77 387.39C615.82 388.25 612.65 395.72 613.44 403.84C613.613 405.667 613.78 407.434 613.94 409.14C613.95 409.236 613.94 409.333 613.911 409.424C613.882 409.516 613.835 409.601 613.772 409.674C613.71 409.747 613.633 409.806 613.547 409.849C613.46 409.891 613.366 409.916 613.27 409.92L609.31 410.11C609.18 410.116 609.051 410.091 608.933 410.037C608.815 409.984 608.711 409.902 608.63 409.8C608.243 409.307 607.767 408.99 607.2 408.85C606.82 408.764 606.563 408.904 606.43 409.27ZM525.19 304.55C517.177 304.53 509.333 305.197 501.66 306.55C495.54 307.63 496.66 315.65 502.79 314.77C509.677 313.777 517.193 313.13 525.34 312.83C525.925 312.808 526.5 312.674 527.028 312.435C527.557 312.197 528.026 311.86 528.407 311.447C528.787 311.033 529.071 310.552 529.238 310.034C529.406 309.516 529.454 308.973 529.38 308.44C529.36 308.3 529.34 308.16 529.32 308.02C529.149 307.051 528.642 306.172 527.887 305.537C527.132 304.903 526.177 304.554 525.19 304.55ZM478.59 314.37C478.59 313.042 478.062 311.767 477.123 310.828C476.183 309.888 474.909 309.36 473.58 309.36C472.251 309.36 470.977 309.888 470.038 310.828C469.098 311.767 468.57 313.042 468.57 314.37C468.57 315.699 469.098 316.973 470.038 317.913C470.977 318.853 472.251 319.38 473.58 319.38C474.909 319.38 476.183 318.853 477.123 317.913C478.062 316.973 478.59 315.699 478.59 314.37ZM685.93 361.76C691.023 358.5 693.91 354.75 694.59 350.51C695.883 342.504 692.837 336.647 685.45 332.94C685.323 330.387 684.267 329.147 682.28 329.22C672.59 329.58 662.97 338.28 664.01 348.74C664.27 351.407 665.547 354.14 667.84 356.94C672.713 362.9 678.743 364.507 685.93 361.76ZM555.96 362.88C578.18 366.64 578.94 334.92 558.12 336.28L554.84 332.87C554.588 332.608 554.252 332.443 553.891 332.405C553.531 332.366 553.169 332.457 552.87 332.66C546.09 337.287 542.803 343.09 543.01 350.07C543.18 356.03 545.84 361.79 550.31 365.68C551.197 366.447 552.24 366.654 553.44 366.3C553.767 366.2 554.017 366.007 554.19 365.72L555.96 362.88Z" fill="#0055CC" style="cursor: pointer;"/>
<path d="M368.4 327.95C376.9 322.27 386.023 317.74 395.77 314.36C396.677 314.113 397.617 313.89 398.59 313.69C401.66 313.07 405.51 314.99 407.76 316.86C416.9 324.45 420 340.81 421.39 351.81C422.664 361.89 423.16 373.13 422.88 385.53C422.747 391.463 422.3 397.117 421.54 402.49C420.527 409.683 418.52 416.607 415.52 423.26C415.416 423.496 415.245 423.698 415.029 423.842C414.813 423.985 414.56 424.064 414.3 424.07C409.4 424.177 404.43 424.89 399.39 426.21C399.169 426.269 398.936 426.27 398.714 426.213C398.492 426.155 398.289 426.042 398.124 425.883C397.959 425.724 397.838 425.525 397.773 425.306C397.707 425.086 397.699 424.853 397.75 424.63C400.27 413.34 401.62 401.13 400.48 389.65C400.12 386.057 399.803 382.537 399.53 379.09C399.35 376.95 398.38 374.95 398.09 373C395.81 357.41 387.63 339.77 373.82 331.3C372.02 330.2 370.213 329.083 368.4 327.95Z" fill="#0055CC" style="cursor: pointer;"/>
<path d="M316.64 362.75C316.053 365.83 315.413 368.887 314.72 371.92C313.84 375.75 315.22 380.03 315.17 383.54C315.103 387.433 315.303 391.157 315.77 394.71C317.303 406.343 320.55 418.04 325.51 429.8C329.35 438.91 334.42 446.03 342.09 451.88C342.299 452.041 342.473 452.242 342.601 452.471C342.73 452.699 342.811 452.951 342.84 453.21L344.93 473.28C341.383 472.207 339.12 471.32 338.14 470.62C332.567 466.633 328.39 461.823 325.61 456.19C314.24 433.17 307.95 403.61 311.49 377.5C312.177 372.447 313.893 367.53 316.64 362.75Z" fill="#0055CC" style="cursor: pointer;"/>
<path d="M403.13 431.12C399.19 440.647 393.91 449.2 387.29 456.78C377.523 467.967 365.16 473.793 350.2 474.26L348.12 456.84C348.112 456.769 348.122 456.697 348.15 456.632C348.177 456.566 348.22 456.508 348.276 456.465C348.332 456.421 348.397 456.393 348.466 456.384C348.535 456.374 348.606 456.383 348.67 456.41C353.73 458.46 359.65 460.2 365.02 460.01C375.753 459.617 384.11 455.233 390.09 446.86C393.1 442.63 394.99 437.51 397.06 432.77C397.15 432.573 397.286 432.4 397.457 432.268C397.627 432.135 397.828 432.047 398.04 432.01L403.13 431.12Z" fill="#0055CC" style="cursor: pointer;"/>
<path d="M454.35 622.82L454.45 591.27C454.897 591.65 455.69 591.407 456.83 590.54C456.888 590.497 456.957 590.47 457.029 590.461C457.1 590.452 457.173 590.462 457.24 590.49C461.24 592.177 465.437 593.977 469.83 595.89C479.843 600.263 490.747 604.167 502.54 607.6C519.8 612.627 534.643 616.427 547.07 619C553.45 620.313 560.867 621.283 569.32 621.91C569.707 621.94 570.069 622.115 570.332 622.398C570.595 622.682 570.741 623.054 570.74 623.44C570.747 624.567 570.193 625.3 569.08 625.64C566.533 626.42 563.99 627.027 561.45 627.46C541.22 630.92 522.74 631.08 500.25 630.49C484.27 630.07 468.97 627.513 454.35 622.82Z" fill="#0055CC" style="cursor: pointer;"/>
<path d="M506.146 593.455L480.772 591.369C480.623 591.357 480.493 591.467 480.48 591.616L480.448 592.014C480.435 592.163 480.546 592.293 480.695 592.306L506.069 594.392C506.218 594.404 506.348 594.293 506.36 594.145L506.393 593.746C506.405 593.598 506.295 593.467 506.146 593.455Z" fill="#0055CC" style="cursor: pointer;"/>
<path d="M511.164 594.618C512.673 594.737 513.916 594.575 513.942 594.255C513.967 593.936 512.764 593.581 511.255 593.462C509.747 593.343 508.504 593.506 508.478 593.825C508.453 594.145 509.656 594.5 511.164 594.618Z" fill="#0055CC" style="cursor: pointer;"/>
<path d="M549.539 595.73C551.345 595.737 552.809 595.59 552.81 595.402C552.811 595.214 551.347 595.057 549.541 595.05C547.735 595.044 546.271 595.191 546.27 595.379C546.269 595.567 547.733 595.724 549.539 595.73Z" fill="#0055CC" style="cursor: pointer;"/>
<path d="M558.904 595.75C561.737 595.72 564.032 595.508 564.03 595.276C564.027 595.044 561.729 594.88 558.896 594.91C556.063 594.94 553.768 595.152 553.77 595.384C553.773 595.616 556.071 595.78 558.904 595.75Z" fill="#0055CC" style="cursor: pointer;"/>
<path d="M454.89 678.97L454.64 629.05C455.2 629.37 455.917 629.444 456.79 629.27C457.117 629.204 457.443 629.214 457.77 629.3C470.943 632.914 484.423 635.01 498.21 635.59C521.78 636.57 546.06 635.52 569.57 631.22C569.661 631.203 569.755 631.206 569.845 631.229C569.935 631.253 570.019 631.296 570.091 631.356C570.162 631.416 570.22 631.492 570.26 631.577C570.299 631.663 570.32 631.756 570.32 631.85L570.24 678.29C570.24 679.444 569.687 680.177 568.58 680.49C563.707 681.884 558.743 682.91 553.69 683.57C537.55 685.684 521.05 686.554 504.19 686.18C499.883 686.087 495.68 685.864 491.58 685.51C487.32 685.144 483.08 684.73 478.86 684.27C472.733 683.61 466.203 682.42 459.27 680.7C457.483 680.26 456.023 679.684 454.89 678.97Z" fill="#0055CC" style="cursor: pointer;"/>
<path d="M455.16 752.8L455.09 685.34C468.223 688.174 476.863 689.71 481.01 689.95C489.02 690.41 497.17 691.21 505.07 691.23C517.5 691.26 529.77 691.43 542.47 690.03C543.59 689.904 544.753 689.867 545.96 689.92C547.64 689.98 549.07 689.29 550.73 689.15C556.643 688.67 562.763 687.554 569.09 685.8C569.185 685.774 569.285 685.77 569.382 685.789C569.479 685.808 569.571 685.849 569.649 685.909C569.728 685.969 569.791 686.047 569.835 686.135C569.878 686.224 569.901 686.321 569.9 686.42L569.96 751.87C569.96 752.018 569.99 752.165 570.048 752.3C570.106 752.436 570.191 752.559 570.298 752.66C570.405 752.761 570.531 752.839 570.669 752.889C570.807 752.939 570.954 752.96 571.1 752.95L576.4 752.63C576.807 752.604 577.157 752.734 577.45 753.02C579.29 754.834 581.837 756.004 585.09 756.53C585.244 756.556 585.39 756.619 585.514 756.714C585.638 756.81 585.736 756.934 585.799 757.076C585.863 757.218 585.89 757.373 585.878 757.528C585.866 757.682 585.815 757.831 585.73 757.96C584.1 760.5 582.47 763.03 581.39 765.86C579.79 770.06 578.937 774.51 578.83 779.21C578.823 779.624 578.733 779.644 578.56 779.27C578.27 778.65 578.36 777.72 578.17 777.07C576.59 771.724 574.063 766.814 570.59 762.34C568.77 759.99 565.88 758.11 563.51 756.29C562.53 755.54 561.39 755.1 560.13 755.32C556.75 755.9 553.287 756.187 549.74 756.18C540.307 756.154 530.773 756.137 521.14 756.13C515.64 756.124 509.073 755.957 501.44 755.63C494.873 755.344 488.3 755.157 481.72 755.07C476.107 754.99 467.253 754.234 455.16 752.8Z" fill="#0055CC" style="cursor: pointer;"/>
<path d="M582.2 706.01C582.202 706.065 582.192 706.119 582.171 706.169C582.15 706.219 582.119 706.264 582.079 706.301C582.039 706.338 581.992 706.366 581.94 706.383C581.889 706.4 581.834 706.406 581.78 706.4L581.52 706.37C581.476 706.367 581.434 706.354 581.395 706.333C581.357 706.312 581.323 706.282 581.296 706.246C581.27 706.21 581.251 706.169 581.242 706.125C581.232 706.08 581.231 706.035 581.24 705.99C581.74 703.797 581.623 701.644 580.89 699.53C580.857 699.435 580.844 699.334 580.85 699.234C580.856 699.133 580.883 699.035 580.927 698.945C580.972 698.855 581.034 698.774 581.11 698.708C581.186 698.642 581.274 698.592 581.37 698.56C581.463 698.527 581.56 698.514 581.66 698.52C581.973 698.547 582.133 698.72 582.14 699.04L582.2 706.01Z" fill="#0055CC" style="cursor: pointer;"/>
<path d="M414.25 749.57C421.15 748.824 429.377 748.094 438.93 747.38C440.07 747.3 440.883 747.774 441.37 748.8C441.43 748.92 441.95 750.02 442.93 752.1C443.417 753.14 443.09 753.607 441.95 753.5C438.51 753.18 435.087 752.724 431.68 752.13C425.93 751.14 420.03 750.62 414.25 750.04C412.77 749.887 412.77 749.73 414.25 749.57Z" fill="#0055CC" style="cursor: pointer;"/>
<path d="M618.46 809.71C622.74 818.8 612.54 823.36 605.65 825.36C599.137 827.247 593.857 828.454 589.81 828.98C585.697 822.474 580.347 816.904 573.76 812.27C573.24 811.897 573.15 811.44 573.49 810.9C575.917 807.047 577.874 802.647 579.36 797.7C579.5 797.247 579.624 797.254 579.73 797.72C580.41 800.66 581.457 803.634 582.87 806.64C583.964 808.967 585.377 811.04 587.11 812.86C596.32 822.52 607.02 815.14 616.08 810.02C616.367 809.854 616.67 809.81 616.99 809.89C617.584 810.037 618.074 809.977 618.46 809.71Z" fill="#0055CC" style="cursor: pointer;"/>
<path d="M583.61 829.7C582.563 830.053 581.853 830.233 581.48 830.24C567.633 830.467 553.803 830.067 539.99 829.04C511.557 826.913 482.147 823.293 451.76 818.18C448 817.547 445.427 817.047 444.04 816.68C448.46 816.48 451.773 816.48 453.98 816.68C466.85 817.83 480.03 819.08 492.62 819.61C512.44 820.443 533.723 820.7 556.47 820.38C563.24 820.28 565.9 819.8 570.48 815.06C570.608 814.93 570.778 814.851 570.96 814.836C571.142 814.821 571.323 814.872 571.47 814.98C574.59 817.273 577.487 819.727 580.16 822.34C582.707 824.827 583.857 827.28 583.61 829.7Z" fill="#0055CC" style="cursor: pointer;"/>
<path d="M283.73 819.25C282.717 821.87 283.587 823.81 286.34 825.07C271.367 830.65 257.207 837.74 243.86 846.34C225.707 858.04 211.68 873.403 201.78 892.43C200.387 890.943 198.687 889.8 196.68 889C208.37 865.92 226.24 848.84 248.45 835.95C260.244 829.103 272.004 823.537 283.73 819.25Z" fill="#0055CC" style="cursor: pointer;"/>
<path d="M299.91 1024H194.74C195.667 1018.63 196.123 1013.7 196.11 1009.21C196.07 996.404 195.663 981.02 194.89 963.06C194.777 960.447 194.537 958.074 194.17 955.94C194.03 955.134 193.953 955.14 193.94 955.96L193.79 967.28C192.957 951.254 195.223 935.174 200.59 919.04C204.69 906.707 209.357 896.32 214.59 887.88C222.123 875.74 231.96 865.394 244.1 856.84C271.647 837.42 302.273 825.89 335.98 822.25C337.247 822.11 338.02 821.53 338.3 820.51C338.873 820.47 339.46 820.324 340.06 820.07C340.367 819.937 340.683 819.91 341.01 819.99C351.47 822.55 361.53 825.86 370.43 831.89C377.56 836.72 382.29 847.46 384.63 855.62C385.96 860.26 378.98 866.59 375.68 869.28C373.727 870.874 371.587 871.794 369.26 872.04C362.967 872.714 356.827 873.427 350.84 874.18C344.113 875.034 338.213 877.53 333.14 881.67C315.467 896.09 304.77 914.29 301.05 936.27C300.257 940.957 299.873 947.597 299.9 956.19C299.96 978.79 299.963 1001.39 299.91 1024ZM296.72 837.07C286.733 839.944 279.693 842.624 275.6 845.11C273.867 846.164 273.393 847.624 274.18 849.49L274.3 849.77C275.347 852.264 277.09 852.924 279.53 851.75C285.723 848.757 292.3 846.37 299.26 844.59C305.04 843.1 302.88 835.3 296.72 837.07Z" fill="#0055CC" style="cursor: pointer;"/>
<path d="M403.13 431.12L398.04 432.01C397.828 432.047 397.627 432.135 397.457 432.268C397.286 432.4 397.15 432.573 397.06 432.77C394.99 437.51 393.1 442.63 390.09 446.86C384.11 455.233 375.753 459.617 365.02 460.01C359.65 460.2 353.73 458.46 348.67 456.41C348.606 456.383 348.535 456.374 348.466 456.384C348.397 456.393 348.332 456.421 348.276 456.465C348.221 456.508 348.177 456.566 348.15 456.631C348.122 456.697 348.112 456.769 348.12 456.84L350.2 474.26L358.73 566.06C358.75 566.267 358.836 566.462 358.974 566.618C359.112 566.774 359.296 566.883 359.5 566.93C422.68 581.21 487.01 588.06 551.87 589.01C588.18 589.55 624.64 586.36 659.91 579.86C667.27 578.507 675.217 576.753 683.75 574.6C684.077 574.52 684.343 574.347 684.55 574.08C685.077 573.4 685.55 572.53 685.97 571.47C695.083 548.423 703.257 522.76 710.49 494.48C717.05 468.82 721.64 443.733 724.26 419.22C724.44 417.567 725.347 416.897 726.98 417.21L727.48 417.3C729.587 417.707 730.523 418.973 730.29 421.1C727.71 444.453 723.313 468.643 717.1 493.67C711.46 516.397 704.813 538.32 697.16 559.44C695.28 564.627 693.464 569.677 691.71 574.59C691.24 575.9 691.38 577.03 691.33 578.4C691.31 578.793 691.11 579.047 690.73 579.16C683.683 581.24 677.26 582.88 671.46 584.08C645.6 589.413 617.83 593.09 588.15 595.11C587.985 595.12 587.824 595.167 587.679 595.245C587.533 595.324 587.406 595.434 587.306 595.567C587.207 595.7 587.137 595.853 587.101 596.015C587.066 596.178 587.065 596.347 587.1 596.51C587.447 598.077 586.907 599.09 585.48 599.55C582.767 600.43 579.673 600.73 576.2 600.45C575.787 600.417 575.59 600.607 575.61 601.02C575.75 604.88 575.824 608.8 575.83 612.78C575.897 651.593 575.794 689.72 575.52 727.16C575.52 727.264 575.56 727.365 575.631 727.439C575.702 727.514 575.798 727.557 575.9 727.56C592.63 728.17 610.12 729.42 625.07 736.65C628.9 738.49 628.19 743.39 629.76 746.67C632.327 752.05 633.883 758.373 634.43 765.64C635.163 775.273 634.783 784.46 633.29 793.2C633.25 793.42 633.34 793.53 633.56 793.53C652.073 793.41 671.22 793.243 691 793.03C700.433 792.923 707.097 793.01 710.99 793.29C725.217 794.323 739.863 797.977 754.93 804.25C772.52 811.57 788.72 820.13 803.87 830.9C834.93 852.98 854.32 886.55 858.14 924.29C858.987 932.65 859.367 941.513 859.28 950.88C859.06 975.25 859.26 999.63 859.24 1024H852.94C853.174 977.96 853.157 948.51 852.89 935.65C852.15 900.24 836.22 864.76 807.61 842.11C788.82 827.23 766.53 815.34 744.69 807.36C733.2 803.17 720.57 800.11 708.22 799.62C702.347 799.387 696.03 799.307 689.27 799.38C687.99 799.393 687.927 799.683 689.08 800.25C704.12 807.69 713.89 820.61 721.5 835.56C724.247 840.94 728.4 845.77 733.96 850.05C734.8 850.7 736.1 851.23 737.16 851.19C745.58 850.837 753.943 850.57 762.25 850.39C786.2 849.88 802.39 872.12 812.65 890.95C814.93 895.13 817 900.27 817.56 904.98C818.827 915.653 819.474 926.743 819.5 938.25C819.567 966.837 819.58 995.42 819.54 1024H812.52C812.474 1008.41 812.5 992.827 812.6 977.24C812.61 975.37 813.21 973.49 813.21 971.56C813.19 951.4 813.82 930.97 812.29 910.63C811.777 903.85 809.614 897.31 805.8 891.01C796.22 875.19 783.03 856.11 761.96 856.74C754.294 856.973 746.25 857.21 737.83 857.45C735.604 857.51 733.733 857.06 732.22 856.1C725.22 851.64 719.19 844.68 715.34 836.99C711.49 829.33 706.76 822.41 700.8 816.14C693.8 808.78 682.28 802.87 672.53 800.33C669.004 799.41 664.977 799.28 660.45 799.94C659.843 800.027 659.817 800.2 660.37 800.46C676.317 807.733 689.267 818.547 699.22 832.9C700.9 835.32 702.387 837.887 703.68 840.6C710.18 854.25 719.7 867.91 735.11 871.78C737.67 872.42 740.55 872.613 743.75 872.36C752.79 871.63 766.54 871.22 773.45 878.18C777.49 882.26 781.94 887.387 786.8 893.56C792.64 900.97 792.75 908.35 792.91 918.84C793.017 925.72 793.137 932.703 793.27 939.79C793.273 939.944 793.245 940.096 793.188 940.239C793.13 940.381 793.045 940.511 792.937 940.62C792.829 940.729 792.7 940.815 792.558 940.874C792.416 940.932 792.264 940.961 792.11 940.96L790.24 940.94C790.086 940.939 789.935 940.907 789.793 940.847C789.652 940.787 789.523 940.7 789.416 940.59C789.308 940.481 789.223 940.351 789.165 940.209C789.108 940.066 789.079 939.914 789.08 939.76C789.167 931.38 789.087 923.097 788.84 914.91C788.66 908.9 788.06 902.3 784.36 897.48C780.333 892.22 776.147 887.24 771.8 882.54C765.56 875.79 755.23 876.01 746.72 876.35C745.13 876.42 743.96 877.24 742.31 877.16C720.91 876.19 708.67 860.23 699.95 842.58C692.09 826.66 677.64 813.77 661.5 805.77C651.98 801.057 641.6 799.12 630.36 799.96C629.96 799.987 629.627 800.15 629.36 800.45C626.447 803.73 622.983 806.567 618.97 808.96C618.794 809.071 618.658 809.232 618.58 809.42L618.46 809.71C618.074 809.977 617.583 810.037 616.99 809.89C616.67 809.81 616.367 809.853 616.08 810.02C607.02 815.14 596.32 822.52 587.11 812.86C585.377 811.04 583.963 808.967 582.87 806.64C581.457 803.633 580.41 800.66 579.73 797.72C579.623 797.253 579.5 797.247 579.36 797.7C577.873 802.647 575.917 807.047 573.49 810.9C573.15 811.44 573.24 811.897 573.76 812.27C580.347 816.903 585.697 822.473 589.81 828.98C592.94 833.02 596.23 836.8 599.03 840.91C603.53 847.537 607.287 855.287 610.3 864.16C614.78 877.333 617.874 891.317 619.58 906.11C621.954 926.67 623.293 947.167 623.6 967.6C623.62 969.09 623.98 970.49 623.99 972C624.11 989.34 624.07 1006.67 623.87 1024H620.22C620.34 1006.5 620.243 989.003 619.93 971.51C619.51 948.37 618.003 926.217 615.41 905.05C613.31 887.93 609.744 873.227 604.71 860.94C601.13 852.213 597.763 845.83 594.61 841.79C591.71 838.077 588.62 834.197 585.34 830.15C584.98 829.71 584.403 829.56 583.61 829.7C583.857 827.28 582.707 824.827 580.16 822.34C577.487 819.727 574.59 817.273 571.47 814.98C571.323 814.872 571.142 814.821 570.96 814.836C570.779 814.851 570.608 814.93 570.48 815.06C565.9 819.8 563.24 820.28 556.47 820.38C533.723 820.7 512.44 820.443 492.62 819.61C480.03 819.08 466.85 817.83 453.98 816.68C451.773 816.48 448.46 816.48 444.04 816.68C432.167 814.54 420.54 812.043 409.16 809.19C405.94 808.383 405.767 808.813 408.64 810.48C413.214 813.12 417.843 816.933 422.53 821.92C430.54 830.42 434.32 841.64 435.23 853.05C435.45 855.77 435.71 858.383 436.01 860.89C436.263 863.037 436.123 865.037 435.59 866.89C432.95 875.99 427.87 884.98 422.41 893.41C415.83 903.55 406.94 907.01 395.26 907.91C386.56 908.58 377.37 913.27 370.27 918.36C362.457 923.967 358.25 931.653 357.65 941.42C357.19 948.773 356.983 956.127 357.03 963.48C357.05 966.34 356.7 969.14 356.71 972C356.743 989.333 356.78 1006.67 356.82 1024H353.03C352.583 997.493 352.773 970.993 353.6 944.5C353.733 940.227 354.27 936.263 355.21 932.61C358.88 918.33 373.43 909.4 386.88 905.1C391.27 903.7 395.86 903.63 400.33 902.96C408.457 901.753 414.737 897.717 419.17 890.85C422.183 886.19 424.997 881.293 427.61 876.16C430.35 870.793 431.767 866.603 431.86 863.59C432.22 852.08 429.83 838.91 423.32 829.63C419.033 823.53 413.327 818.227 406.2 813.72C393.587 805.74 380.044 801.177 365.57 800.03C364.63 799.957 363.727 800.06 362.86 800.34C360.033 801.253 357.04 802.27 353.88 803.39C352.807 803.77 352.827 804.09 353.94 804.35C361.1 806.023 367.717 808.103 373.79 810.59C390.01 817.23 398.75 829.57 404.02 846.26C408.47 860.35 401.24 871.48 387.74 875.62C382.453 877.247 377.43 878.12 372.67 878.24C364.61 878.44 356.24 879.31 348.52 880.6C345.28 881.14 342.507 882.19 340.2 883.75C319.23 897.97 308.36 919.3 305.56 944.94C305.38 946.51 306.15 947.79 306.15 949.27C306.15 974.183 306.147 999.093 306.14 1024H299.91C299.963 1001.39 299.96 978.79 299.9 956.19C299.873 947.597 300.257 940.957 301.05 936.27C304.77 914.29 315.467 896.09 333.14 881.67C338.214 877.53 344.113 875.033 350.84 874.18C356.827 873.427 362.967 872.713 369.26 872.04C371.587 871.793 373.727 870.873 375.68 869.28C378.98 866.59 385.96 860.26 384.63 855.62C382.29 847.46 377.56 836.72 370.43 831.89C361.53 825.86 351.47 822.55 341.01 819.99C340.683 819.91 340.367 819.937 340.06 820.07C339.46 820.323 338.873 820.47 338.3 820.51C337.933 819.717 337.157 819.233 335.97 819.06C329.843 818.193 324.717 817.54 320.59 817.1C317.26 816.75 314.38 817.34 311.17 817.67C309.084 817.883 306.78 818.36 304.26 819.1C298.187 820.887 292.213 822.877 286.34 825.07C283.587 823.81 282.717 821.87 283.73 819.25C289.73 817.03 295.814 814.98 301.98 813.1C303.47 812.65 304.73 811.95 306.02 811.11C306.293 810.937 306.59 810.847 306.91 810.84C309.023 810.78 311.4 810.377 314.04 809.63C334.247 803.897 352.28 797.72 368.14 791.1C369.334 790.6 370.41 789.987 371.37 789.26C371.65 789.053 371.707 788.797 371.54 788.49C368.9 783.57 367.8 777.223 368.24 769.45C368.76 760.14 369.66 749.87 372.26 740.84C374.58 732.75 388.69 729.08 395.62 727.58C408.187 724.853 421.31 723.187 434.99 722.58C435.877 722.54 436.36 722.963 436.44 723.85L436.79 727.73C436.863 728.603 436.463 729.06 435.59 729.1C420.48 729.86 404.04 731.36 390.31 735.51C386.517 736.657 382.814 738.5 379.2 741.04C379.087 741.12 378.995 741.228 378.935 741.353C378.876 741.478 378.849 741.617 378.858 741.755C378.867 741.894 378.911 742.028 378.987 742.144C379.063 742.261 379.167 742.356 379.29 742.42C381.217 743.433 383.297 744.107 385.53 744.44C386.21 744.54 386.567 744.247 386.6 743.56L386.7 741.36C386.727 740.84 387.003 740.553 387.53 740.5C396.83 739.67 406.29 737.21 415.96 736.04C424.3 735.033 432.523 734.503 440.63 734.45C440.763 734.45 440.89 734.397 440.984 734.304C441.077 734.21 441.13 734.083 441.13 733.95L439.92 588.02C439.917 587.901 439.871 587.787 439.792 587.699C439.713 587.611 439.606 587.554 439.49 587.54C395.36 581.74 352.05 573.27 309.93 559.7C308.83 559.347 308.177 558.583 307.97 557.41C299.657 509.39 293.383 460.227 289.15 409.92C289.097 409.36 288.817 408.967 288.31 408.74C288.008 408.604 287.748 408.388 287.558 408.115C287.367 407.842 287.254 407.523 287.23 407.19C286.237 393.883 285.27 381.403 284.33 369.75C282.537 347.577 282.08 325.913 282.96 304.76C284.43 269.49 295.35 234.03 316.03 205.04C316.309 204.651 316.446 204.179 316.42 203.7L312.39 132.8C312.378 132.586 312.307 132.38 312.185 132.203C312.063 132.027 311.896 131.888 311.7 131.8C300.82 127.03 301.63 111.28 313.06 108.29C322.8 105.75 331.56 115.04 327.86 124.64C326.34 128.573 323.597 131.043 319.63 132.05C318.83 132.25 318.457 132.763 318.51 133.59L322.07 195.48C322.123 196.353 322.417 196.443 322.95 195.75C343.99 168.56 371.19 146.75 403.31 135.8C407.24 134.47 411.3 133.48 415.3 132.46C416.7 132.107 417.977 131.527 419.13 130.72C441.12 115.39 468.88 109.31 496.9 107.82C542.43 105.39 589.09 112.24 628.86 133.86C664.993 153.493 690.757 182.613 706.15 221.22C711.664 235.04 715.827 249.207 718.64 263.72C719.367 267.447 720.527 274.213 722.12 284.02C722.18 284.407 722.407 284.613 722.8 284.64C723.753 284.707 724.69 284.86 725.61 285.1C736.69 287.98 741.34 295.84 741.37 306.68C741.49 342.68 741.54 376.557 741.52 408.31C741.51 416.1 732.5 415.22 727.27 415.13C702.47 414.683 677.883 414.773 653.51 415.4C653.355 415.405 653.207 415.47 653.099 415.58C652.991 415.69 652.93 415.837 652.93 415.99C652.917 441.803 652.877 468.06 652.81 494.76C652.8 502.3 648.85 507.51 641.68 509.43C634.63 511.32 627.31 510.22 626.2 501.69C622.74 475.023 619.04 446.953 615.1 417.48C615.02 416.867 614.67 416.56 614.05 416.56C557.137 416.593 500.213 419.867 443.28 426.38C429.967 427.9 416.583 429.48 403.13 431.12ZM313.677 126.321C314.435 126.64 315.251 126.8 316.078 126.793C316.905 126.786 317.727 126.611 318.497 126.279C319.267 125.947 319.97 125.464 320.566 124.858C321.162 124.252 321.64 123.534 321.971 122.746C322.64 121.154 322.674 119.372 322.065 117.792C321.455 116.211 320.253 114.962 318.723 114.319C317.965 114 317.149 113.84 316.322 113.847C315.495 113.855 314.673 114.029 313.903 114.361C313.133 114.693 312.43 115.176 311.834 115.782C311.238 116.389 310.761 117.106 310.429 117.894C309.76 119.486 309.727 121.268 310.336 122.848C310.945 124.429 312.147 125.678 313.677 126.321ZM684.68 195.67L685.11 194.64C685.23 194.347 685.204 194.063 685.03 193.79C674.204 177.357 661.067 163.57 645.62 152.43C622.293 135.617 596.114 124.457 567.08 118.95C541.034 114.017 514.023 112.783 486.05 115.25C466.73 116.95 448.74 121.77 430.99 130.59C430.023 131.07 430.08 131.33 431.16 131.37C445.57 131.84 458.89 135.42 471.54 141.92C500.58 156.87 521.2 181.75 535.09 211.31C541.337 224.597 546.93 238.64 551.87 253.44C551.925 253.607 552.033 253.751 552.177 253.85C552.322 253.95 552.495 253.999 552.67 253.99C591.95 252.163 631.29 250.397 670.69 248.69C677.41 248.4 685.86 247.7 686.54 239.22C686.78 236.26 686.787 232.763 686.56 228.73C685.993 218.457 685.277 208.013 684.41 197.4C684.364 196.808 684.456 196.216 684.68 195.67ZM549.47 260.51C549.012 260.528 548.56 260.399 548.18 260.141C547.801 259.884 547.513 259.512 547.36 259.08C545.113 252.793 542.86 246.547 540.6 240.34C525.18 197.97 501.11 159.81 458.48 143.25C447.187 138.863 435.113 137.11 422.26 137.99C420.39 138.12 418.6 138.66 417.19 139.92C416.847 140.231 416.414 140.426 415.952 140.476C415.491 140.526 415.025 140.43 414.62 140.2C413.773 139.72 412.887 139.617 411.96 139.89C375.18 150.47 344.79 175.38 322.36 206.77C322.073 207.17 322.097 207.55 322.43 207.91C323.12 208.65 323.45 209.52 323.54 210.53C325.553 233.203 327.563 256.007 329.57 278.94C329.637 279.673 329.757 280.367 329.93 281.02C329.976 281.187 330.077 281.333 330.216 281.434C330.354 281.534 330.522 281.582 330.69 281.57C337.637 281.17 344.577 280.777 351.51 280.39C455.124 274.643 546.557 270.093 625.81 266.74C632.41 266.467 639.064 266.313 645.77 266.28C663.277 266.193 680.793 265.79 698.32 265.07C702.653 264.897 707.224 264.48 712.03 263.82C712.377 263.773 712.517 263.577 712.45 263.23C708.277 242.583 701.287 223.07 691.48 204.69C691.293 204.35 691.22 204.373 691.26 204.76C692.16 214.327 692.773 224.03 693.1 233.87C693.253 238.61 692.87 242.113 691.95 244.38C688.97 251.73 681.92 254.56 674.05 254.94C632.503 256.933 590.977 258.79 549.47 260.51ZM291.73 283.71L324.15 281.95C324.224 281.946 324.297 281.928 324.363 281.895C324.43 281.863 324.49 281.817 324.538 281.761C324.587 281.705 324.623 281.64 324.646 281.569C324.669 281.498 324.677 281.424 324.67 281.35L318.8 212.83C318.733 212.077 318.497 212.017 318.09 212.65C304.13 234.083 295.193 257.603 291.28 283.21C291.271 283.275 291.276 283.34 291.295 283.402C291.314 283.464 291.346 283.521 291.389 283.569C291.432 283.617 291.485 283.655 291.544 283.679C291.603 283.703 291.667 283.714 291.73 283.71ZM339.03 291.43C339.117 304.043 339.217 316.547 339.33 328.94C339.331 328.994 339.347 329.047 339.376 329.093C339.405 329.138 339.445 329.176 339.494 329.2C339.542 329.225 339.596 329.236 339.65 329.232C339.704 329.229 339.756 329.211 339.8 329.18C358.29 316.59 379.57 310.29 401.79 306.18C413.897 303.947 426.29 301.953 438.97 300.2C473.74 295.39 508.74 291.71 543.72 289.63C600.873 286.23 658.043 284.263 715.23 283.73C715.743 283.723 715.964 283.463 715.89 282.95L713.88 269.71C713.855 269.547 713.768 269.399 713.639 269.3C713.51 269.201 713.349 269.158 713.19 269.18C708.963 269.687 704.99 270.013 701.27 270.16C680.817 270.967 660.57 271.473 640.53 271.68C634.584 271.74 628.073 271.923 621 272.23C547.053 275.403 469.31 279.263 387.77 283.81C371.83 284.697 355.343 285.533 338.31 286.32C337.75 286.347 337.633 286.59 337.96 287.05C338.8 288.22 339.02 290.08 339.03 291.43ZM344.93 473.28L342.84 453.21C342.812 452.951 342.73 452.699 342.602 452.471C342.473 452.242 342.299 452.041 342.09 451.88C334.42 446.03 329.35 438.91 325.51 429.8C320.55 418.04 317.303 406.343 315.77 394.71C315.303 391.157 315.104 387.433 315.17 383.54C315.22 380.03 313.84 375.75 314.72 371.92C315.413 368.887 316.054 365.83 316.64 362.75C317.64 360.557 318.52 358.273 319.28 355.9C322.093 347.113 326.893 339.817 333.68 334.01C333.868 333.85 334.02 333.651 334.123 333.429C334.227 333.206 334.28 332.964 334.28 332.72C334.447 317.96 334.353 303.79 334 290.21C333.992 289.877 333.866 289.558 333.645 289.307C333.424 289.057 333.121 288.891 332.79 288.84C331.123 288.573 329.567 288.16 328.12 287.6C327.1 287.207 326.067 287.043 325.02 287.11C313.193 287.85 301.817 288.41 290.89 288.79C290.701 288.798 290.521 288.874 290.383 289.002C290.246 289.131 290.159 289.304 290.14 289.49C288.474 305.25 287.99 321.457 288.69 338.11C288.87 342.49 289.223 346.96 289.75 351.52C292.72 377.53 294.48 402.32 297.06 429.73C300.96 471.177 306.25 511.343 312.93 550.23C313.103 551.257 313.347 552.33 313.66 553.45C313.753 553.783 313.954 554.027 314.26 554.18C314.84 554.48 315.437 554.73 316.05 554.93C328.15 558.817 340.613 562.347 353.44 565.52C353.64 565.573 353.73 565.497 353.71 565.29L344.93 473.28ZM607.2 408.85C607.767 408.99 608.243 409.307 608.63 409.8C608.711 409.902 608.815 409.983 608.933 410.037C609.051 410.091 609.18 410.116 609.31 410.11L613.27 409.92C613.366 409.915 613.46 409.891 613.547 409.848C613.633 409.806 613.71 409.747 613.772 409.674C613.835 409.601 613.882 409.516 613.911 409.424C613.94 409.332 613.95 409.236 613.94 409.14C613.78 407.433 613.613 405.667 613.44 403.84C612.65 395.72 615.82 388.25 624.77 387.39C635.58 386.36 647.53 386.82 651.96 398.62C653.1 401.65 652.97 405.03 653.1 408.25C653.111 408.469 653.205 408.676 653.364 408.825C653.523 408.975 653.733 409.055 653.95 409.05C680.963 408.637 707.694 408.63 734.14 409.03C734.297 409.033 734.452 409.004 734.598 408.946C734.743 408.888 734.876 408.801 734.988 408.692C735.099 408.582 735.188 408.451 735.248 408.306C735.309 408.162 735.34 408.007 735.34 407.85C735.367 380.017 735.357 352.4 735.31 325C735.303 318.447 735.223 311.59 735.07 304.43C735.01 301.47 734.627 299.287 733.92 297.88C731.6 293.29 725.54 290.02 720.67 290.36C718.42 290.51 716.48 289.62 714.31 289.64C697.857 289.747 679.19 290.17 658.31 290.91C652.63 291.11 646.593 291.163 640.2 291.07C638.47 291.04 636.69 291.62 634.93 291.65C627.817 291.803 620.627 291.95 613.36 292.09C610.87 292.13 608.56 292.67 606.07 292.61C602.7 292.53 599.5 293.13 596.07 293.13C594.557 293.137 593.027 293.177 591.48 293.25C586.38 293.49 581.16 293.717 575.82 293.93C570.24 294.15 565.03 294.427 560.19 294.76C543.417 295.933 526.64 297.113 509.86 298.3C497.24 299.19 483.85 300.79 470.93 301.97C466.31 302.39 461.34 303.33 456.5 303.89C442.407 305.517 427.997 307.563 413.27 310.03C411.69 310.297 410.207 310.683 408.82 311.19C408.734 311.221 408.658 311.275 408.6 311.346C408.542 311.417 408.505 311.503 408.492 311.594C408.48 311.684 408.493 311.777 408.529 311.861C408.566 311.945 408.625 312.017 408.7 312.07C416.16 317.26 420.16 326.05 422.64 334.74C425.154 343.52 426.76 352.66 427.46 362.16C428.73 379.41 428.28 397.23 424.02 413.86C423.273 416.787 422.3 419.637 421.1 422.41C421.067 422.489 421.054 422.575 421.063 422.66C421.072 422.745 421.103 422.826 421.153 422.895C421.202 422.964 421.269 423.018 421.346 423.052C421.422 423.086 421.507 423.099 421.59 423.09C431.47 422.03 441.69 420.34 451.14 419.47C461.454 418.523 471.85 417.503 482.33 416.41C495.457 415.05 518.693 413.557 552.04 411.93C555.04 411.78 558 411.98 560.95 411.69C565.65 411.23 570.25 411.6 574.97 411.21C577.197 411.03 579.573 410.95 582.1 410.97C588.793 411.023 596.22 410.92 604.38 410.66C605.42 410.627 606.103 410.163 606.43 409.27C606.563 408.903 606.82 408.763 607.2 408.85ZM395.77 314.36C385.137 316.227 374.837 319.18 364.87 323.22C362.21 324.3 359.587 325.35 357 326.37C356.527 326.557 356.543 326.677 357.05 326.73L368.4 327.95C370.213 329.083 372.02 330.2 373.82 331.3C387.63 339.77 395.81 357.41 398.09 373C398.38 374.95 399.35 376.95 399.53 379.09C399.803 382.537 400.12 386.057 400.48 389.65C401.62 401.13 400.27 413.34 397.75 424.63C397.699 424.853 397.707 425.086 397.773 425.306C397.838 425.525 397.959 425.724 398.124 425.883C398.289 426.042 398.492 426.155 398.714 426.213C398.936 426.27 399.169 426.269 399.39 426.21C404.43 424.89 409.4 424.177 414.3 424.07C414.56 424.064 414.813 423.985 415.029 423.842C415.245 423.698 415.416 423.496 415.52 423.26C418.52 416.607 420.527 409.683 421.54 402.49C422.3 397.117 422.747 391.463 422.88 385.53C423.16 373.13 422.664 361.89 421.39 351.81C420 340.81 416.9 324.45 407.76 316.86C405.51 314.99 401.66 313.07 398.59 313.69C397.617 313.89 396.677 314.113 395.77 314.36ZM389.8 430.28C390.553 429.733 391.067 429.05 391.34 428.23C394.193 419.45 395.597 409.087 395.55 397.14C395.48 379 391.91 358.66 380.85 344.39C372.07 333.07 360.693 329.317 346.72 333.13C335.21 336.27 326.85 347.8 323.36 359.05C323.213 359.53 323.287 359.57 323.58 359.17C330.48 349.95 343.11 349.91 351.19 357.58C355.377 361.56 358.543 367.007 360.69 373.92C364.503 386.2 365.727 399.637 364.36 414.23C363.05 428.23 356.49 446.9 337.72 439.94C337.067 439.693 336.96 439.843 337.4 440.39C346.83 452.08 363.06 458.92 376.91 451.32C383.15 447.89 387.91 441.3 390.02 434.47C390.127 434.13 390.124 433.793 390.01 433.46L389.37 431.59C389.183 431.05 389.327 430.613 389.8 430.28ZM348.45 436.42C357.08 433.34 359.9 421.09 360.52 413.08C361.68 397.98 360.01 362.04 341.87 356.81C337.497 355.55 333.467 356.34 329.78 359.18C317.66 368.49 320.75 393.8 323.45 406.7C325.34 415.69 328.01 424.14 333.66 431.33C337.28 435.93 342.85 438.42 348.45 436.42ZM628.29 394.22C623.92 392.88 619.62 394.26 619.4 399.43C619.334 401.123 619.407 402.797 619.62 404.45C623.607 435.243 627.83 467.183 632.29 500.27C632.737 503.59 634.883 504.817 638.73 503.95C644.07 502.743 646.737 499.483 646.73 494.17C646.71 466.383 646.807 437.94 647.02 408.84C647.054 404.293 646.787 401.373 646.22 400.08C643.31 393.41 635.8 391.95 629.54 394.19C629.127 394.337 628.71 394.347 628.29 394.22ZM454.35 622.82C468.97 627.513 484.27 630.07 500.25 630.49C522.74 631.08 541.22 630.92 561.45 627.46C563.99 627.027 566.534 626.42 569.08 625.64C570.194 625.3 570.747 624.567 570.74 623.44C570.741 623.054 570.595 622.682 570.332 622.398C570.069 622.115 569.707 621.94 569.32 621.91C560.867 621.283 553.45 620.313 547.07 619C534.643 616.427 519.8 612.627 502.54 607.6C490.747 604.167 479.843 600.263 469.83 595.89C465.437 593.977 461.24 592.177 457.24 590.49C457.173 590.462 457.1 590.452 457.029 590.461C456.957 590.47 456.888 590.497 456.83 590.54C455.69 591.407 454.897 591.65 454.45 591.27C454.543 590.677 454.49 590.157 454.29 589.71C454.157 589.397 453.917 589.223 453.57 589.19L446.44 588.54C446.067 588.507 445.884 588.677 445.89 589.05L446.08 618.24C446.08 618.593 446.237 618.847 446.55 619L454.35 622.82ZM506.393 593.746C506.396 593.711 506.392 593.675 506.381 593.641C506.37 593.608 506.353 593.576 506.33 593.549C506.307 593.522 506.279 593.5 506.247 593.484C506.216 593.467 506.181 593.458 506.146 593.455L480.771 591.369C480.736 591.366 480.701 591.37 480.667 591.381C480.633 591.391 480.602 591.409 480.575 591.432C480.548 591.455 480.525 591.483 480.509 591.514C480.493 591.546 480.483 591.58 480.48 591.616L480.447 592.014C480.445 592.049 480.449 592.085 480.459 592.119C480.47 592.153 480.488 592.184 480.511 592.211C480.534 592.238 480.562 592.26 480.593 592.276C480.625 592.293 480.659 592.302 480.694 592.305L506.069 594.392C506.104 594.394 506.14 594.39 506.174 594.38C506.207 594.369 506.239 594.351 506.266 594.328C506.293 594.305 506.315 594.277 506.331 594.246C506.347 594.214 506.357 594.18 506.36 594.145L506.393 593.746ZM513.942 594.255C513.948 594.179 513.883 594.098 513.751 594.017C513.619 593.936 513.423 593.857 513.174 593.783C512.924 593.71 512.627 593.643 512.298 593.588C511.968 593.533 511.614 593.49 511.256 593.462C510.531 593.405 509.832 593.411 509.311 593.479C508.79 593.547 508.491 593.672 508.479 593.825C508.473 593.901 508.537 593.982 508.669 594.063C508.801 594.144 508.997 594.223 509.246 594.297C509.496 594.371 509.794 594.437 510.123 594.492C510.452 594.547 510.806 594.59 511.165 594.618C511.889 594.675 512.589 594.669 513.109 594.601C513.63 594.533 513.93 594.408 513.942 594.255ZM552.81 595.401C552.81 595.311 552.466 595.224 551.853 595.158C551.24 595.092 550.409 595.053 549.541 595.05C549.112 595.049 548.687 595.056 548.29 595.072C547.893 595.087 547.532 595.111 547.229 595.142C546.925 595.172 546.684 595.209 546.52 595.249C546.355 595.29 546.27 595.334 546.27 595.379C546.27 595.469 546.614 595.557 547.227 595.622C547.84 595.688 548.672 595.727 549.539 595.73C549.968 595.732 550.394 595.724 550.79 595.709C551.187 595.693 551.548 595.669 551.852 595.639C552.155 595.608 552.396 595.571 552.561 595.531C552.725 595.49 552.81 595.446 552.81 595.401ZM564.03 595.276C564.029 595.221 563.896 595.168 563.638 595.12C563.38 595.071 563.001 595.029 562.524 594.995C562.048 594.961 561.482 594.936 560.859 594.921C560.237 594.907 559.569 594.903 558.896 594.91C558.222 594.917 557.555 594.935 556.933 594.963C556.311 594.99 555.746 595.027 555.27 595.071C554.794 595.115 554.416 595.165 554.159 595.219C553.902 595.273 553.77 595.329 553.77 595.384C553.771 595.439 553.904 595.492 554.162 595.54C554.421 595.589 554.799 595.631 555.276 595.665C555.753 595.699 556.318 595.724 556.941 595.739C557.564 595.753 558.231 595.757 558.905 595.75C559.578 595.743 560.245 595.725 560.867 595.698C561.489 595.67 562.055 595.633 562.531 595.589C563.006 595.545 563.384 595.495 563.641 595.441C563.898 595.388 564.03 595.332 564.03 595.276ZM454.89 678.97C456.024 679.683 457.483 680.26 459.27 680.7C466.203 682.42 472.733 683.61 478.86 684.27C483.08 684.73 487.32 685.143 491.58 685.51C495.68 685.863 499.883 686.087 504.19 686.18C521.05 686.553 537.55 685.683 553.69 683.57C558.743 682.91 563.707 681.883 568.58 680.49C569.687 680.177 570.24 679.443 570.24 678.29L570.32 631.85C570.32 631.756 570.3 631.663 570.26 631.577C570.22 631.492 570.163 631.416 570.091 631.356C570.019 631.296 569.935 631.252 569.845 631.229C569.755 631.205 569.661 631.202 569.57 631.22C546.06 635.52 521.78 636.57 498.21 635.59C484.423 635.01 470.943 632.913 457.77 629.3C457.443 629.213 457.117 629.203 456.79 629.27C455.917 629.443 455.2 629.37 454.64 629.05C452.554 627.603 449.93 626.44 446.77 625.56C446.443 625.473 446.28 625.597 446.28 625.93L446.55 675.32C446.55 675.499 446.606 675.673 446.71 675.82C446.814 675.967 446.96 676.079 447.13 676.14L454.89 678.97ZM455.16 752.8C467.253 754.233 476.107 754.99 481.72 755.07C488.3 755.157 494.873 755.343 501.44 755.63C509.073 755.957 515.64 756.123 521.14 756.13C530.774 756.137 540.307 756.153 549.74 756.18C553.287 756.187 556.75 755.9 560.13 755.32C561.39 755.1 562.53 755.54 563.51 756.29C565.88 758.11 568.77 759.99 570.59 762.34C574.064 766.813 576.59 771.723 578.17 777.07C578.36 777.72 578.27 778.65 578.56 779.27C578.733 779.643 578.824 779.623 578.83 779.21C578.937 774.51 579.79 770.06 581.39 765.86C582.47 763.03 584.1 760.5 585.73 757.96C585.815 757.831 585.866 757.682 585.878 757.527C585.89 757.373 585.863 757.218 585.8 757.076C585.736 756.934 585.638 756.809 585.514 756.714C585.39 756.619 585.244 756.556 585.09 756.53C581.837 756.003 579.29 754.833 577.45 753.02C577.157 752.733 576.807 752.603 576.4 752.63L571.1 752.95C570.954 752.96 570.807 752.939 570.669 752.889C570.531 752.839 570.405 752.761 570.298 752.66C570.191 752.558 570.106 752.436 570.048 752.3C569.99 752.164 569.96 752.018 569.96 751.87L569.9 686.42C569.901 686.321 569.878 686.224 569.835 686.135C569.791 686.046 569.728 685.969 569.649 685.909C569.571 685.849 569.479 685.808 569.382 685.789C569.285 685.77 569.185 685.774 569.09 685.8C562.764 687.553 556.643 688.67 550.73 689.15C549.07 689.29 547.64 689.98 545.96 689.92C544.754 689.867 543.59 689.903 542.47 690.03C529.77 691.43 517.5 691.26 505.07 691.23C497.17 691.21 489.02 690.41 481.01 689.95C476.863 689.71 468.223 688.173 455.09 685.34L447.21 682.24C446.903 682.12 446.75 682.223 446.75 682.55L447.26 749.55C447.262 750.085 447.454 750.602 447.802 751.01C448.15 751.418 448.631 751.691 449.16 751.78L455.16 752.8ZM613.38 748.11C613.813 748.59 614.323 748.7 614.91 748.44C617.217 747.427 619.31 746.177 621.19 744.69C622.243 743.857 622.227 743.05 621.14 742.27C618.64 740.47 615.997 739.247 613.21 738.6C600.93 735.747 588.663 734.2 576.41 733.96C575.85 733.947 575.557 734.217 575.53 734.77L575.36 738.48C575.333 739.06 575.607 739.357 576.18 739.37C586.72 739.65 597.04 740.76 606.84 744.04C609.58 744.96 611.76 746.317 613.38 748.11ZM414.25 750.04C420.03 750.62 425.93 751.14 431.68 752.13C435.087 752.723 438.51 753.18 441.95 753.5C443.09 753.607 443.417 753.14 442.93 752.1C441.95 750.02 441.43 748.92 441.37 748.8C440.883 747.773 440.07 747.3 438.93 747.38C429.377 748.093 421.15 748.823 414.25 749.57C412.77 749.73 412.77 749.887 414.25 750.04ZM386.41 796.54C410.15 804.4 436.55 808.66 461.5 810.84C493.393 813.627 526.35 814.737 560.37 814.17C561.723 814.15 562.917 813.693 563.95 812.8C570.39 807.247 573.673 799.823 573.8 790.53C573.94 780.02 570.85 768.42 562.11 762.33C561.463 761.883 560.733 761.663 559.92 761.67C538.907 761.877 518.157 761.957 497.67 761.91C468.684 761.857 441.883 760.077 417.27 756.57C402.87 754.523 389.567 751.66 377.36 747.98C377.013 747.873 376.807 748 376.74 748.36C375.327 756.28 374.507 764.183 374.28 772.07C374.173 775.73 374.47 778.4 375.17 780.08C376.85 784.12 382.15 795.13 386.41 796.54ZM624.77 751.08C624.524 750.453 624.14 750.353 623.62 750.78C619.313 754.347 614.317 756.51 608.63 757.27C604.59 757.81 600.62 758.42 596.47 758.91C584.08 760.36 584.88 780.5 585.21 789.26C585.52 797.55 588.76 815.1 600.64 810.76C605.534 808.973 611.113 806.143 617.38 802.27C622.21 799.28 626.61 794.59 627.57 788.89C629.56 777.18 629.38 762.76 624.77 751.08ZM376.384 796.248C376.411 796.188 376.408 796.116 376.377 796.036C376.346 795.955 376.287 795.868 376.202 795.78C376.118 795.691 376.01 795.602 375.885 795.519C375.76 795.436 375.621 795.359 375.474 795.294C375.328 795.228 375.178 795.175 375.033 795.138C374.887 795.1 374.749 795.079 374.627 795.075C374.505 795.071 374.4 795.085 374.319 795.115C374.239 795.145 374.183 795.192 374.156 795.252C374.13 795.312 374.132 795.384 374.163 795.464C374.194 795.545 374.254 795.632 374.338 795.721C374.423 795.809 374.53 795.898 374.655 795.981C374.78 796.064 374.92 796.141 375.066 796.206C375.212 796.272 375.362 796.325 375.508 796.362C375.653 796.4 375.791 796.421 375.913 796.425C376.036 796.429 376.14 796.415 376.221 796.385C376.302 796.355 376.357 796.308 376.384 796.248ZM389.29 851.56C391.78 859.07 389.07 864.12 384.07 869.42C383.337 870.2 383.487 870.447 384.52 870.16C395.97 866.98 402.22 858.56 397.74 846.67C392.68 833.27 386.54 823.24 373.44 817.35C363.25 812.77 353.15 810.77 342.43 808.12C342.083 808.033 341.74 808.04 341.4 808.14L329.54 811.57C328.487 811.877 328.503 812.113 329.59 812.28C345.14 814.65 360.83 818.21 373.82 827.27C381.66 832.73 386.28 842.51 389.29 851.56Z" fill="#0055CC" style="cursor: pointer;"/>
<path d="M685.45 332.94C684.89 333.647 684.197 334.037 683.37 334.11C678.81 334.51 675.227 336.293 672.62 339.46C667.68 345.46 669.11 354.12 676.34 357.13C678.66 358.09 681.47 357.88 684 357.92C684.793 357.933 685.347 358.283 685.66 358.97C685.973 359.643 686.063 360.573 685.93 361.76C678.743 364.507 672.713 362.9 667.84 356.94C665.547 354.14 664.27 351.407 664.01 348.74C662.97 338.28 672.59 329.58 682.28 329.22C684.267 329.147 685.323 330.387 685.45 332.94Z" fill="#0055CC" style="cursor: pointer;"/>
<path d="M558.12 336.28C546.15 341.82 545.23 355.4 555.96 362.88L554.19 365.72C554.017 366.007 553.767 366.2 553.44 366.3C552.24 366.654 551.197 366.447 550.31 365.68C545.84 361.79 543.18 356.03 543.01 350.07C542.803 343.09 546.09 337.287 552.87 332.66C553.169 332.457 553.531 332.366 553.891 332.405C554.252 332.443 554.588 332.608 554.84 332.87L558.12 336.28Z" fill="#0055CC" style="cursor: pointer;"/>
<path d="M652.313 541.722L598.119 542.479C596.721 542.498 595.605 543.647 595.624 545.044L595.642 546.304C595.661 547.701 596.81 548.818 598.207 548.798L652.402 548.041C653.799 548.022 654.916 546.874 654.896 545.476L654.878 544.217C654.859 542.819 653.71 541.703 652.313 541.722Z" fill="#0055CC" style="cursor: pointer;"/>
<path d="M201.78 892.43C196.82 902.303 192.857 912.537 189.89 923.13C186.657 934.683 185.11 946.473 185.25 958.5C185.503 980.333 185.597 1002.17 185.53 1024H179.41C179.277 1003.59 179.233 983.17 179.28 962.75C179.3 953.563 179.53 946.903 179.97 942.77C181.96 924.17 188.29 905.29 196.68 889C198.687 889.8 200.387 890.943 201.78 892.43Z" fill="#0055CC" style="cursor: pointer;"/>
<path d="M683.15 932.62C684.68 932.62 685.92 931.38 685.92 929.85C685.92 928.32 684.68 927.08 683.15 927.08C681.62 927.08 680.38 928.32 680.38 929.85C680.38 931.38 681.62 932.62 683.15 932.62Z" fill="#0055CC" style="cursor: pointer;"/>
<path d="M728.07 933.11C729.65 933.11 730.93 931.83 730.93 930.25C730.93 928.671 729.65 927.39 728.07 927.39C726.491 927.39 725.21 928.671 725.21 930.25C725.21 931.83 726.491 933.11 728.07 933.11Z" fill="#0055CC" style="cursor: pointer;"/>
<path d="M714.1 930.04L712.18 930.06C711.423 930.068 710.816 930.688 710.824 931.445L710.876 936.424C710.884 937.181 711.504 937.788 712.261 937.78L714.18 937.76C714.937 937.752 715.544 937.132 715.536 936.376L715.484 931.396C715.476 930.639 714.856 930.032 714.1 930.04Z" fill="#0055CC" style="cursor: pointer;"/>
<path d="M719.19 942.54C719.006 942.308 718.922 942.012 718.956 941.718C718.99 941.424 719.139 941.155 719.37 940.97L727.03 934.85C727.844 934.2 728.783 933.773 729.64 933.664C730.497 933.555 731.202 933.773 731.6 934.27L731.69 934.38C731.888 934.626 732.004 934.933 732.032 935.284C732.06 935.635 731.999 936.022 731.853 936.425C731.708 936.827 731.479 937.236 731.182 937.628C730.885 938.02 730.524 938.388 730.12 938.71L722.45 944.83C722.218 945.014 721.922 945.098 721.628 945.064C721.334 945.031 721.065 944.882 720.88 944.65L719.19 942.54Z" fill="#0055CC" style="cursor: pointer;"/>
<path d="M681.503 935.689C680.318 936.925 680.3 938.831 681.464 939.948C682.628 941.064 684.533 940.967 685.718 939.731C686.903 938.495 686.92 936.589 685.756 935.473C684.592 934.356 682.688 934.453 681.503 935.689Z" fill="#0055CC" style="cursor: pointer;"/>
<path d="M785.547 953.904L674.445 958.561C673.082 958.618 672.023 959.769 672.08 961.132L672.082 961.172C672.139 962.535 673.29 963.593 674.653 963.536L785.756 958.88C787.119 958.823 788.177 957.671 788.12 956.308L788.118 956.268C788.061 954.906 786.91 953.847 785.547 953.904Z" fill="#0055CC" style="cursor: pointer;"/>
<path d="M194.74 1024H193.59L193.79 967.28L193.94 955.96C193.953 955.14 194.03 955.133 194.17 955.94C194.537 958.073 194.777 960.447 194.89 963.06C195.663 981.02 196.07 996.403 196.11 1009.21C196.123 1013.7 195.667 1018.63 194.74 1024Z" fill="#0055CC" style="cursor: pointer;"/>
</g>
<defs>
<clipPath id="clip0_93_128">
<rect width="1024" height="1024" fill="none"/>
</clipPath>
</defs>
</svg>