<svg width="1024" height="764" viewBox="0 260 1024 764" fill="none" xmlns="http://www.w3.org/2000/svg">
<g clip-path="url(#clip0_93_3935)">
<rect width="1024" height="1024" fill="none"/>
<path d="M766.34 270.56C764.607 274.787 764.114 278.974 764.86 283.12C764.98 283.774 764.73 284.224 764.11 284.47C763.884 284.557 763.654 284.584 763.42 284.55C762.567 284.417 762.08 283.924 761.96 283.07C761.294 278.37 761.854 273.887 763.64 269.62C763.92 268.96 764.42 268.66 765.14 268.72C765.247 268.727 765.354 268.747 765.46 268.78C766.427 269.04 766.72 269.634 766.34 270.56Z" fill="#0055CC"/>
<path d="M811.85 288.97C812.137 289.87 811.814 290.29 810.88 290.23C810.74 290.224 810.597 290.24 810.45 290.28C810.206 290.347 809.946 290.32 809.721 290.205C809.495 290.091 809.321 289.897 809.23 289.66C806.89 283.53 812.74 275.11 817.09 270.79C817.291 270.59 817.556 270.466 817.84 270.44C819.1 270.32 819.4 271.127 818.74 272.86C818.674 273.032 818.576 273.192 818.45 273.33C814.96 277.14 810.15 283.73 811.85 288.97Z" fill="#0055CC"/>
<path d="M798.42 398.59C798.367 398.588 798.314 398.596 798.265 398.614C798.215 398.632 798.17 398.661 798.131 398.697C798.093 398.734 798.063 398.778 798.042 398.826C798.021 398.875 798.01 398.927 798.01 398.98L798.19 413.53C798.197 413.944 798.044 414.287 797.73 414.56C796.424 415.707 794.857 416.407 793.03 416.66C789.67 417.13 767.86 419 767.9 413.11C767.934 408.257 767.954 403.66 767.96 399.32C767.967 398.914 767.763 398.714 767.35 398.72C751.69 399.07 733.18 397.88 733.47 377.06C733.82 351.82 733.79 313.93 761.42 301.91C775.72 295.69 789.84 295.627 803.78 301.72C818.22 308.04 827.07 324.14 829.87 339.7C831.604 349.354 832.474 362.04 832.48 377.76C832.5 398.07 813.58 399.43 798.42 398.59ZM754.95 355.52L755.2 342.94C755.203 342.794 755.248 342.651 755.332 342.529C755.415 342.406 755.533 342.31 755.67 342.25C756.677 341.81 757.437 342.08 757.95 343.06C759.15 345.334 760.497 347.494 761.99 349.54C762.042 349.613 762.11 349.672 762.189 349.714C762.268 349.756 762.356 349.778 762.446 349.78C762.536 349.782 762.626 349.763 762.708 349.725C762.79 349.687 762.863 349.631 762.92 349.56C764.587 347.447 766.02 345.114 767.22 342.56C767.727 341.487 768.55 341.117 769.69 341.45C769.878 341.505 770.043 341.62 770.16 341.778C770.277 341.937 770.34 342.131 770.34 342.33L770.47 394.82C770.47 395.747 770.934 396.21 771.86 396.21L780.92 396.17C781.307 396.17 781.5 395.974 781.5 395.58L781.44 341.95C781.44 341.35 781.737 341.014 782.33 340.94C782.67 340.894 783.02 340.967 783.38 341.16C783.577 341.267 783.741 341.424 783.855 341.616C783.97 341.808 784.03 342.027 784.03 342.25L784.16 395.51C784.16 395.89 784.35 396.084 784.73 396.09L794.56 396.24C794.666 396.242 794.771 396.222 794.869 396.183C794.968 396.144 795.057 396.086 795.132 396.012C795.208 395.939 795.268 395.851 795.308 395.755C795.349 395.658 795.37 395.555 795.37 395.45L795.44 342.57C795.441 342.254 795.559 341.949 795.771 341.714C795.984 341.48 796.275 341.332 796.59 341.3C797.597 341.194 798.284 341.624 798.65 342.59C799.544 344.977 800.814 347.24 802.46 349.38C802.528 349.47 802.615 349.543 802.715 349.594C802.815 349.645 802.926 349.673 803.038 349.676C803.15 349.679 803.262 349.657 803.364 349.611C803.467 349.565 803.558 349.496 803.63 349.41C805.157 347.577 806.537 345.53 807.77 343.27C808.21 342.46 808.97 341.75 809.97 341.94C810.57 342.047 810.87 342.404 810.87 343.01L810.97 355.95C810.972 356.066 810.948 356.18 810.9 356.286C810.853 356.391 810.783 356.485 810.695 356.56C810.607 356.636 810.504 356.691 810.393 356.722C810.281 356.753 810.164 356.759 810.05 356.74L809.7 356.69C808.687 356.53 808.177 355.934 808.17 354.9V349.6C808.17 348.887 807.944 348.807 807.49 349.36C806.83 350.18 806.32 351.4 805.38 351.92C802.767 353.354 800.604 352.384 798.89 349.01C798.317 347.87 798.03 347.937 798.03 349.21L798.11 395.71C798.117 396.044 798.284 396.214 798.61 396.22C809.24 396.52 826.34 396.49 829.37 383.18C829.884 380.914 830.097 377.86 830.01 374.02C829.804 364.78 829.28 356.017 828.44 347.73C826.44 328.1 817.71 309.16 798.64 302.42C780.32 295.95 756.17 301.53 746.14 319.1C737.26 334.65 736.54 353.61 736.01 371.4C735.72 381.52 736.04 389.46 745.66 393.56C752.17 396.33 759.95 396.32 767.04 396.16C767.275 396.155 767.499 396.059 767.664 395.893C767.828 395.726 767.92 395.503 767.92 395.27L767.77 349.21C767.77 348.484 767.547 348.407 767.1 348.98C765.46 351.07 762.91 354.67 760.05 351.57C759.37 350.83 759.1 349.84 758.55 349.05C758.217 348.577 758.03 348.63 757.99 349.21L757.61 355.45C757.584 355.964 757.314 356.234 756.8 356.26L755.78 356.32C755.672 356.327 755.563 356.312 755.462 356.274C755.36 356.237 755.267 356.179 755.189 356.103C755.11 356.028 755.049 355.937 755.008 355.837C754.967 355.737 754.947 355.629 754.95 355.52ZM795.302 399.203C795.301 399.128 795.286 399.054 795.257 398.985C795.228 398.916 795.185 398.853 795.132 398.801C795.079 398.748 795.015 398.707 794.946 398.679C794.877 398.65 794.802 398.636 794.728 398.637L770.808 398.804C770.733 398.804 770.659 398.82 770.59 398.849C770.521 398.878 770.459 398.92 770.406 398.974C770.354 399.027 770.312 399.09 770.284 399.159C770.256 399.229 770.242 399.303 770.242 399.378L770.259 401.758C770.259 401.832 770.275 401.907 770.304 401.976C770.333 402.044 770.375 402.107 770.429 402.16C770.482 402.212 770.545 402.254 770.614 402.282C770.684 402.31 770.758 402.324 770.833 402.324L794.752 402.157C794.827 402.156 794.901 402.141 794.97 402.112C795.039 402.083 795.102 402.04 795.154 401.987C795.207 401.934 795.248 401.871 795.276 401.801C795.304 401.732 795.319 401.658 795.318 401.583L795.302 399.203ZM795.209 405.759C795.209 405.63 795.183 405.503 795.134 405.384C795.084 405.265 795.012 405.157 794.921 405.066C794.829 404.975 794.721 404.903 794.602 404.854C794.483 404.805 794.356 404.78 794.227 404.78L771.427 404.82C771.298 404.82 771.171 404.846 771.052 404.895C770.933 404.945 770.825 405.017 770.735 405.108C770.644 405.2 770.572 405.308 770.523 405.427C770.474 405.546 770.449 405.673 770.449 405.802L770.452 407.382C770.452 407.511 770.477 407.638 770.527 407.757C770.576 407.876 770.649 407.983 770.74 408.074C770.831 408.165 770.939 408.237 771.058 408.286C771.177 408.335 771.305 408.36 771.433 408.36L794.233 408.32C794.362 408.32 794.489 408.295 794.608 408.245C794.727 408.196 794.835 408.123 794.926 408.032C795.017 407.941 795.089 407.833 795.138 407.714C795.187 407.595 795.212 407.467 795.212 407.339L795.209 405.759ZM795.24 410.8L770.58 410.76C770.527 410.76 770.476 410.781 770.439 410.819C770.401 410.856 770.38 410.907 770.38 410.96V412.23C770.384 412.885 771.29 413.513 772.901 413.978C774.511 414.443 776.694 414.707 778.97 414.71L786.85 414.73C787.979 414.732 789.097 414.67 790.14 414.547C791.183 414.424 792.131 414.244 792.929 414.015C793.727 413.787 794.359 413.515 794.79 413.216C795.221 412.916 795.442 412.595 795.44 412.27V411C795.44 410.947 795.419 410.896 795.382 410.859C795.344 410.821 795.293 410.8 795.24 410.8Z" fill="#0055CC"/>
<path d="M712.14 312.371C713.97 316.231 716.68 318.541 720.98 320.411C721.131 320.476 721.263 320.576 721.366 320.703C721.469 320.831 721.539 320.981 721.57 321.141C721.643 321.521 721.593 321.857 721.42 322.151C720.98 322.871 720.37 323.071 719.59 322.751C715.96 321.281 711.19 317.801 709.85 313.961C709.583 313.194 709.48 312.724 709.54 312.55C710.233 310.25 711.1 310.191 712.14 312.371Z" fill="#0055CC"/>
<path d="M898.84 434.98C896.79 441.23 893 451.54 885.26 451.74C884.654 451.753 884.274 451.467 884.12 450.88C883.44 448.267 883.48 445.587 884.24 442.84C887.447 431.213 889.077 420.477 889.13 410.63C889.22 394.09 887.27 376.05 887.54 358.47C887.67 349.95 888.35 326.15 896.18 321.26C897.227 320.607 898.157 319.837 898.97 318.95C911.99 304.78 934.25 314.92 934.26 333.51C934.314 417.777 934.377 501.683 934.45 585.23C934.457 589.303 934.797 592.977 935.47 596.25C935.597 596.89 935.54 597.587 935.3 598.34C932.66 606.58 930.137 614.487 927.73 622.06C927.662 622.275 927.542 622.469 927.38 622.626C927.219 622.783 927.021 622.898 926.804 622.961C926.587 623.024 926.358 623.034 926.136 622.988C925.914 622.942 925.706 622.844 925.53 622.7C917.65 616.193 909.947 609.133 902.42 601.52C901.868 600.962 901.55 600.218 901.53 599.44C900.764 564.06 900.104 529.163 899.55 494.75C899.45 488.663 899.43 481.997 899.49 474.75C899.59 461.963 899.55 448.733 899.37 435.06C899.372 434.994 899.35 434.93 899.308 434.879C899.265 434.829 899.206 434.795 899.141 434.785C899.076 434.776 899.009 434.79 898.954 434.826C898.898 434.862 898.858 434.916 898.84 434.98ZM909.52 586.99C917.17 584.33 924.69 585.12 931.41 589.41C931.737 589.623 931.907 589.533 931.92 589.14C931.994 587.487 932.03 585.847 932.03 584.22C932.044 550.807 932.06 516.957 932.08 482.67C932.08 481.143 931.66 480.01 930.82 479.27C924.06 473.35 908.54 472.22 901.97 479.87C901.751 480.128 901.634 480.458 901.64 480.8L903.75 589.93C903.75 589.981 903.764 590.031 903.792 590.074C903.82 590.117 903.86 590.151 903.907 590.171C903.954 590.191 904.006 590.197 904.056 590.188C904.107 590.179 904.153 590.155 904.19 590.12C905.717 588.733 907.494 587.69 909.52 586.99ZM918.82 612.62C919.94 607.76 926.02 607.03 927.26 612.14C927.427 612.807 927.63 612.817 927.87 612.17C929.377 608.097 930.937 603.373 932.55 598C933.47 594.94 931.65 592.16 928.97 590.79C924.404 588.457 919.7 587.633 914.86 588.32C909.9 589.03 903.97 591.83 903.65 597.07C903.52 599.23 905.39 600.99 906.84 602.33C910.574 605.803 914.287 609.317 917.98 612.87C918.046 612.931 918.127 612.974 918.214 612.994C918.302 613.015 918.392 613.012 918.478 612.987C918.563 612.962 918.64 612.914 918.7 612.85C918.76 612.786 918.801 612.706 918.82 612.62Z" fill="#0055CC"/>
<path d="M840.9 318.63C845.834 316.644 850.647 315.314 855.34 314.64C855.682 314.589 856.028 314.668 856.31 314.86C856.844 315.22 857.124 315.644 857.15 316.13C857.17 316.717 856.894 317.057 856.32 317.15C851.22 318.01 846.244 319.394 841.39 321.3C840.657 321.594 840.167 321.364 839.92 320.61C839.847 320.397 839.827 320.177 839.86 319.95C839.903 319.658 840.021 319.383 840.203 319.151C840.386 318.919 840.626 318.74 840.9 318.63Z" fill="#0055CC"/>
<path d="M1024 777.87V795.14C1023.71 795.414 1023.46 795.44 1023.25 795.22C970.39 738.587 915.99 680.21 860.05 620.09C855.557 615.264 851 610.394 846.38 605.48C776.28 530.927 707.047 456.89 638.68 383.37C638.522 383.2 638.321 383.075 638.098 383.006C637.875 382.938 637.638 382.929 637.41 382.98C635.27 383.467 633.133 384.114 631 384.92C483.613 440.434 331.917 497.764 175.91 556.91C173.72 557.74 170.72 558.99 170.76 561.65C170.767 562.41 171.367 563.457 172.56 564.79C238.147 638.25 303.733 711.707 369.32 785.16C440.28 864.64 511.347 944.254 582.52 1024H513.7C446.713 948.634 379.68 873.347 312.6 798.14C307.02 791.887 301.393 785.574 295.72 779.2C240.88 717.667 186.067 656.09 131.28 594.47C129.453 592.424 128.517 589.77 128.47 586.51C128.397 581.65 128.373 576.8 128.4 571.96C128.12 555.727 128.097 545.127 128.33 540.16C128.583 534.934 130.503 530.077 134.09 525.59C139.14 519.29 146.18 517.05 153.7 514.24C201.56 496.354 249.423 478.484 297.29 460.63C297.65 460.497 297.797 460.24 297.73 459.86C296 449.97 298.85 442.49 304.31 434.14C304.361 434.061 304.392 433.969 304.399 433.875C304.405 433.78 304.388 433.686 304.348 433.6C304.308 433.514 304.247 433.439 304.17 433.383C304.094 433.328 304.004 433.292 303.91 433.28C282.81 430.75 273.68 408.33 291.78 394.49C298.313 389.497 306.68 385.067 316.88 381.2C330.65 375.98 345.07 374.32 354.85 387.67C358.5 392.65 358.91 399.03 356.65 404.72C354.25 410.75 350.16 414.98 345.58 419.44C344.74 420.254 344.857 420.427 345.93 419.96C348.71 418.747 351.363 417.63 353.89 416.61C377.05 407.244 401.147 397.644 426.18 387.81C427.18 387.417 427.157 387.097 426.11 386.85C419.163 385.23 413.443 381.717 408.95 376.31C398.57 363.85 405.52 352.02 416.59 343.83C426.123 336.79 436.217 330.804 446.87 325.87C456.47 321.42 466.22 320.22 474.43 328.29C482.19 335.93 485.41 347.3 481.25 357.52C478.07 365.32 472.21 370.95 464.82 375.83C456.87 381.08 458.58 390.15 463.43 396.7C463.503 396.799 463.606 396.87 463.723 396.905C463.84 396.939 463.966 396.934 464.08 396.89C505.693 381.377 547.287 365.827 588.86 350.24C596.48 347.387 601.727 345.917 604.6 345.83C611.88 345.624 618.1 347.284 623.26 350.81C627.01 353.37 630.12 357.08 633.26 360.45C669.833 399.744 704.51 436.904 737.29 471.93C752.583 488.27 768.873 505.657 786.16 524.09C865.5 608.69 944.78 693.284 1024 777.87ZM459.75 355.38C464.237 350.507 464.203 345.664 459.65 340.85C459.43 340.61 459.16 340.517 458.84 340.57C456.793 340.89 454.893 341.48 453.14 342.34C446.233 345.727 439.8 349.267 433.84 352.96C429.42 355.7 423.7 359.34 420.96 363.49C420.749 363.808 420.655 364.19 420.695 364.57C420.736 364.95 420.907 365.303 421.18 365.57C424.227 368.564 427.823 369.817 431.97 369.33C443.123 368.037 452.383 363.387 459.75 355.38ZM339.63 396.13C333.66 391.35 308.13 405.11 302.38 409.67C301.58 410.31 301.01 411.117 300.67 412.09C300.619 412.236 300.597 412.391 300.606 412.545C300.615 412.699 300.654 412.849 300.721 412.988C300.788 413.127 300.881 413.25 300.996 413.352C301.111 413.453 301.245 413.531 301.39 413.58C303.683 414.36 305.893 414.687 308.02 414.56C321.52 413.754 332.143 408.327 339.89 398.28C340.503 397.48 340.417 396.764 339.63 396.13Z" fill="#0055CC"/>
<path d="M717.846 350.903L703.209 351.158C702.524 351.17 701.978 351.735 701.99 352.419L701.994 352.619C702.006 353.304 702.571 353.85 703.255 353.838L717.893 353.582C718.578 353.57 719.123 353.005 719.111 352.321L719.108 352.121C719.096 351.436 718.531 350.891 717.846 350.903Z" fill="#0055CC"/>
<path d="M864.273 357.935L847.713 357.906C847.166 357.905 846.722 358.348 846.721 358.894L846.72 359.474C846.719 360.021 847.161 360.465 847.708 360.466L864.268 360.495C864.815 360.496 865.259 360.053 865.26 359.507L865.261 358.927C865.262 358.38 864.819 357.936 864.273 357.935Z" fill="#0055CC"/>
<path d="M1024 419.9V521.03C1022.27 520.877 1020.52 520.707 1018.75 520.52C1013.26 519.927 1008.45 521.117 1004.3 524.09C1001.46 526.12 998.671 528.38 997.801 531.96C988.781 568.747 979.734 605.597 970.661 642.51C970.527 643.043 970.704 643.183 971.191 642.93C979.161 638.79 995.231 641.5 1000.31 650.1C1000.58 650.56 1000.78 650.533 1000.92 650.02L1024 562.5V570.48C1017.17 596.94 1010.38 623.473 1003.61 650.08C1002.62 653.973 1001.74 657.86 1000.96 661.74C1000.39 664.573 998.907 666.763 996.501 668.31C992.121 671.13 987.771 674.2 983.451 677.52C982.811 678.013 982.121 678.41 981.381 678.71C981.293 678.748 981.197 678.764 981.101 678.758C981.006 678.751 980.913 678.722 980.83 678.672C980.747 678.623 980.677 678.554 980.625 678.472C980.573 678.39 980.541 678.297 980.531 678.2L980.211 675.19C980.175 674.865 980.043 674.558 979.83 674.31C979.617 674.061 979.334 673.883 979.018 673.799C978.702 673.714 978.368 673.728 978.06 673.837C977.751 673.946 977.483 674.146 977.291 674.41L976.081 676.09C975.998 676.204 975.886 676.294 975.757 676.351C975.629 676.408 975.487 676.43 975.347 676.415C975.207 676.4 975.074 676.348 974.96 676.264C974.847 676.181 974.757 676.069 974.701 675.94C971.521 668.607 968.744 661.427 966.371 654.4C965.231 651.02 966.571 648.41 967.361 645.15C985.747 569.803 1004.43 494.497 1023.4 419.23C1023.49 418.883 1023.6 418.877 1023.73 419.21L1024 419.9ZM986.161 670.9C986.141 671.7 986.454 671.86 987.101 671.38C989.614 669.533 992.181 667.76 994.801 666.06C996.587 664.9 997.731 663.52 998.231 661.92C999.111 659.09 1000.15 654.67 998.341 651.92C993.771 644.98 984.231 642.94 976.321 644.05C970.451 644.87 966.941 649.4 969.371 655.47C971.557 660.95 973.551 666.03 975.351 670.71C975.717 671.657 976.071 671.653 976.411 670.7C977.411 667.9 979.337 666.523 982.191 666.57C984.661 666.61 986.221 668.5 986.161 670.9Z" fill="#0055CC"/>
<path d="M633.724 437.02L633.615 436.969C632.938 436.658 632.136 436.954 631.825 437.632L625.515 451.35C625.203 452.028 625.5 452.829 626.177 453.141L626.286 453.191C626.964 453.503 627.765 453.206 628.077 452.529L634.387 438.81C634.698 438.133 634.402 437.331 633.724 437.02Z" fill="#0055CC"/>
<path d="M594.261 502.84L583.741 500.85C583.007 500.71 582.641 500.263 582.641 499.51V498.95C582.64 498.843 582.662 498.737 582.705 498.638C582.748 498.54 582.811 498.452 582.89 498.379C582.969 498.307 583.063 498.252 583.164 498.217C583.266 498.183 583.374 498.17 583.481 498.18C588.507 498.707 593.061 499.873 597.141 501.68C597.681 501.913 597.951 501.74 597.951 501.16C597.951 500.2 597.831 499.27 597.031 498.67C592.911 495.61 589.341 491.53 589.381 486.28C589.407 483.02 590.814 480.753 593.601 479.48C593.987 479.3 594.081 479.023 593.881 478.65C589.351 469.99 581.451 451.4 594.141 445.53C607.221 439.49 619.641 455.84 624.331 466.18C624.491 466.527 624.764 466.697 625.151 466.69C626.491 466.66 627.871 466.26 629.191 466.32C637.241 466.66 641.441 471.9 642.761 479.52C642.901 480.29 643.601 480.73 644.311 480.93C644.395 480.954 644.484 480.96 644.571 480.948C644.658 480.935 644.742 480.906 644.818 480.86C644.893 480.814 644.959 480.753 645.011 480.681C645.063 480.609 645.101 480.527 645.121 480.44C645.821 477.247 646.177 474.233 646.191 471.4C646.191 471.324 646.206 471.249 646.235 471.18C646.264 471.11 646.307 471.047 646.361 470.994C646.415 470.94 646.479 470.899 646.549 470.871C646.62 470.843 646.695 470.829 646.771 470.83L648.351 470.87C648.452 470.873 648.551 470.895 648.644 470.936C648.736 470.977 648.82 471.036 648.889 471.11C648.959 471.183 649.013 471.269 649.05 471.364C649.086 471.458 649.103 471.559 649.101 471.66C649.001 475.327 648.501 479.037 647.601 482.79C647.565 482.938 647.568 483.094 647.611 483.24C647.654 483.387 647.735 483.519 647.846 483.625C647.956 483.73 648.092 483.804 648.241 483.841C648.389 483.877 648.544 483.873 648.691 483.83C652.951 482.603 656.701 482.993 659.941 485C666.691 489.19 665.581 497.77 659.351 501.76C659.219 501.845 659.117 501.968 659.057 502.113C658.998 502.258 658.986 502.418 659.021 502.57L659.691 505.46C659.729 505.628 659.83 505.776 659.973 505.872C660.116 505.969 660.29 506.007 660.461 505.98L666.041 505.06C666.934 504.913 667.471 505.283 667.651 506.17L667.741 506.61C667.961 507.703 667.511 508.267 666.391 508.3L660.431 508.48C660.084 508.487 659.877 508.66 659.811 509L658.961 513.01C658.867 513.47 659.051 513.733 659.511 513.8L665.041 514.63C665.701 514.723 666.021 515.103 666.001 515.77C665.981 516.297 665.581 516.717 664.801 517.03C664.655 517.09 664.496 517.123 664.331 517.13C662.097 517.17 660.207 516.733 658.661 515.82C658.307 515.607 658.034 515.687 657.841 516.06C655.894 519.887 653.381 522.86 650.301 524.98C640.974 531.38 630.971 532.613 620.291 528.68C619.111 528.25 617.991 527.55 616.821 527.1C616.481 526.967 616.264 527.077 616.171 527.43C615.524 529.817 614.627 532.123 613.481 534.35C613.341 534.624 613.101 534.834 612.81 534.937C612.52 535.039 612.202 535.026 611.921 534.9L611.441 534.68C611.173 534.56 610.957 534.35 610.832 534.087C610.707 533.825 610.682 533.528 610.761 533.25C611.474 530.577 612.684 528.333 614.391 526.52C614.637 526.26 614.617 526.023 614.331 525.81L608.501 521.54C608.221 521.34 607.911 521.24 607.571 521.24C607.171 521.247 606.801 521.387 606.461 521.66C606.26 521.836 606.007 521.941 605.741 521.96C599.447 522.527 594.991 520.333 592.371 515.38C589.851 510.6 591.671 507.34 594.521 503.51C594.787 503.143 594.701 502.92 594.261 502.84ZM620.621 491.5C620.543 491.472 620.46 491.461 620.377 491.467C620.295 491.473 620.214 491.496 620.141 491.535C620.068 491.573 620.003 491.626 619.951 491.691C619.9 491.756 619.862 491.83 619.841 491.91C617.421 500.83 608.561 501.68 600.981 499.77C600.601 499.677 600.441 499.823 600.501 500.21C604.161 522.7 631.921 538.56 650.771 520.87C661.131 511.15 656.231 498.37 648.631 488.84C646.691 486.41 644.211 484.69 642.191 482.4C641.931 482.1 641.777 482.147 641.731 482.54C641.331 485.78 639.931 488.81 636.921 490.43C631.774 493.21 626.341 493.567 620.621 491.5ZM659.011 498.9L661.051 495.79C661.623 494.915 661.848 493.853 661.681 492.81C660.661 486.65 655.981 485.2 650.411 486C649.897 486.073 649.827 486.287 650.201 486.64C653.321 489.607 655.741 493.627 657.461 498.7C657.841 499.82 658.357 499.887 659.011 498.9ZM605.911 518.48C602.664 514.4 600.017 509.77 597.971 504.59C597.943 504.524 597.899 504.466 597.844 504.42C597.788 504.375 597.722 504.345 597.651 504.332C597.58 504.319 597.508 504.324 597.44 504.347C597.371 504.369 597.31 504.408 597.261 504.46C593.407 508.547 593.101 512.57 596.341 516.53C597.061 517.419 598.056 518.044 599.171 518.31C601.111 518.763 603.094 519.23 605.121 519.71C606.567 520.057 606.831 519.647 605.911 518.48Z" fill="#0055CC"/>
<path d="M655.009 448.473L654.631 448.115C654.17 447.679 653.442 447.699 653.006 448.161L642.507 459.263C642.071 459.724 642.091 460.452 642.552 460.889L642.93 461.246C643.392 461.682 644.12 461.662 644.556 461.2L655.055 450.098C655.491 449.637 655.471 448.909 655.009 448.473Z" fill="#0055CC"/>
<path d="M577.323 464.613L562.074 457.01C561.431 456.689 560.65 456.951 560.33 457.593L560.294 457.665C559.974 458.307 560.235 459.088 560.878 459.408L576.127 467.011C576.77 467.332 577.551 467.071 577.871 466.428L577.907 466.356C578.227 465.714 577.966 464.933 577.323 464.613Z" fill="#0055CC"/>
<path d="M516.331 517.531C525.881 536.521 508.701 552.171 492.031 556.461C477.071 560.311 455.511 557.911 443.241 548.121C442.934 547.874 442.591 547.814 442.211 547.941C437.457 549.521 433.124 548.474 429.211 544.801C425.431 541.261 425.031 535.261 429.981 532.501C430.168 532.397 430.31 532.225 430.377 532.021C430.443 531.817 430.431 531.596 430.341 531.401C425.861 521.601 424.901 508.181 434.011 501.261C434.176 501.134 434.301 500.96 434.368 500.761C434.436 500.562 434.444 500.346 434.391 500.141C432.291 492.271 434.101 486.321 442.081 483.291C446.501 481.611 450.291 481.561 452.451 486.461C453.701 489.281 456.521 489.591 458.621 487.511C459.567 486.571 460.251 485.364 460.671 483.891C463.171 475.131 473.601 478.751 479.311 481.301C488.817 485.534 497.307 491.617 504.781 499.551C505.054 499.837 505.387 499.967 505.781 499.941C511.421 499.527 515.277 501.604 517.351 506.171C518.777 509.304 518.454 512.611 516.381 516.091C516.101 516.564 516.084 517.044 516.331 517.531ZM436.971 502.901C435.761 504.201 434.091 504.421 432.991 505.991C422.401 521.071 438.761 545.041 453.491 550.941C471.411 558.121 494.861 558.181 509.011 543.981C517.064 535.901 518.261 526.477 512.601 515.711C504.587 500.484 492.254 489.467 475.601 482.661C473.171 481.661 465.501 479.201 464.201 482.991C462.711 487.311 461.001 491.041 456.031 491.551C451.581 492.011 450.361 488.811 448.561 485.651C448.367 485.304 448.074 485.111 447.681 485.071C444.261 484.701 440.581 486.661 438.291 489.041C435.371 492.081 436.411 497.561 437.391 501.201C437.564 501.841 437.424 502.407 436.971 502.901ZM507.741 503.151C510.121 505.981 512.181 508.501 513.831 511.911C514.531 513.351 514.957 513.277 515.111 511.691C515.597 506.591 513.311 503.471 508.251 502.331C507.257 502.104 507.087 502.377 507.741 503.151ZM440.041 545.311C437.381 542.001 435.011 539.651 432.491 535.521C431.631 534.101 430.847 534.141 430.141 535.641L429.751 536.471C428.991 538.104 429.097 539.681 430.071 541.201C432.344 544.741 435.581 546.321 439.781 545.941C440.261 545.901 440.347 545.691 440.041 545.311Z" fill="#0055CC"/>
<path d="M575.681 482.809L558.39 480.869C557.698 480.791 557.075 481.289 556.997 481.981L556.988 482.06C556.911 482.752 557.408 483.375 558.1 483.453L575.392 485.392C576.083 485.47 576.707 484.972 576.784 484.281L576.793 484.201C576.871 483.51 576.373 482.886 575.681 482.809Z" fill="#0055CC"/>
<path d="M635.562 495.562C635.619 497.362 636.971 498.779 638.583 498.729C640.195 498.678 641.456 497.178 641.399 495.379C641.343 493.579 639.99 492.161 638.378 492.212C636.766 492.262 635.506 493.762 635.562 495.562Z" fill="#0055CC"/>
<path d="M459.681 504.761C459.727 504.78 459.776 504.788 459.825 504.785C459.875 504.782 459.923 504.768 459.966 504.744C460.009 504.72 460.046 504.686 460.075 504.646C460.103 504.606 460.123 504.56 460.131 504.511C460.491 502.491 460.191 499.361 461.421 497.821C462.508 496.474 463.931 496.234 465.691 497.101C468.618 498.541 471.008 501.334 472.861 505.481C473.128 506.081 472.951 506.491 472.331 506.711C472.118 506.784 471.901 506.807 471.681 506.781C471.233 506.719 470.804 506.558 470.424 506.311C470.044 506.064 469.722 505.736 469.481 505.351C468.454 503.691 467.261 502.078 465.901 500.511C464.561 498.978 463.744 499.218 463.451 501.231C463.061 503.821 463.711 507.951 459.451 507.601C455.541 507.281 452.871 501.951 452.521 498.711C452.504 498.529 452.553 498.346 452.66 498.198C452.766 498.049 452.923 497.943 453.101 497.901C453.874 497.721 454.481 497.981 454.921 498.681C455.941 500.311 457.941 504.061 459.681 504.761Z" fill="#0055CC"/>
<path d="M636.711 507.75C636.657 508.144 636.807 508.25 637.161 508.07C640.187 506.484 642.881 506.164 645.241 507.11C645.934 507.39 646.191 507.887 646.011 508.6C645.924 508.947 645.701 509.124 645.341 509.13C641.951 509.14 637.531 509.87 635.631 512.87C634.924 513.997 634.124 515.074 633.231 516.1C633.082 516.271 632.877 516.382 632.654 516.415C632.43 516.448 632.202 516.4 632.011 516.28C631.391 515.887 631.234 515.337 631.541 514.63C632.361 512.744 633.251 510.88 634.211 509.04C634.831 507.854 634.754 506.74 633.981 505.7C633.001 504.374 632.077 502.93 631.211 501.37C631.135 501.233 631.096 501.077 631.1 500.92C631.103 500.762 631.149 500.609 631.231 500.474C631.313 500.34 631.43 500.23 631.569 500.156C631.707 500.081 631.863 500.045 632.021 500.05C635.391 500.19 637.031 505.24 636.711 507.75Z" fill="#0055CC"/>
<path d="M622.34 500.28L621.824 500.34C620.463 500.497 619.488 501.728 619.645 503.089L619.751 504.002C619.909 505.363 621.139 506.338 622.5 506.181L623.016 506.121C624.377 505.964 625.352 504.733 625.195 503.373L625.089 502.459C624.932 501.098 623.701 500.123 622.34 500.28Z" fill="#0055CC"/>
<path d="M490.478 511.416C492.574 512.508 495.014 511.971 495.927 510.217C496.84 508.463 495.88 506.157 493.784 505.065C491.687 503.974 489.247 504.511 488.334 506.264C487.421 508.018 488.381 510.325 490.478 511.416Z" fill="#0055CC"/>
<path d="M476.05 516.5C476.724 515.767 477.544 515.54 478.51 515.82C478.81 515.913 479.017 516.107 479.13 516.4C479.704 517.94 479.344 519.213 478.05 520.22C477.916 520.326 477.759 520.399 477.592 520.435C477.425 520.47 477.252 520.466 477.086 520.424C476.921 520.381 476.767 520.301 476.638 520.189C476.509 520.078 476.407 519.938 476.34 519.78C475.954 518.854 475.317 518.59 474.43 518.99C473.57 519.383 472.657 519.47 471.69 519.25C471.144 519.123 471.027 518.637 471.34 517.79C471.439 517.518 471.621 517.283 471.859 517.119C472.097 516.954 472.381 516.867 472.67 516.87L475.12 516.9C475.487 516.907 475.797 516.773 476.05 516.5Z" fill="#0055CC"/>
<path d="M701.481 528.311C698.811 525.191 693.471 521.801 697.501 517.201C698.141 516.467 698.931 516.217 699.871 516.451C704.331 517.544 708.151 519.377 711.331 521.951C714.561 524.571 718.421 525.201 721.931 527.271C728.057 530.871 732.967 535.457 736.661 541.031C736.861 541.331 737.141 541.464 737.501 541.431C743.261 540.911 749.441 543.281 749.561 549.911C749.641 554.051 747.901 557.361 744.341 559.841C744.074 560.021 743.941 560.274 743.941 560.601C743.907 568.414 741.027 574.577 735.301 579.091C735.241 579.137 735.191 579.195 735.156 579.262C735.12 579.329 735.098 579.402 735.093 579.477C735.087 579.553 735.097 579.629 735.123 579.7C735.148 579.771 735.188 579.836 735.241 579.891C738.131 582.901 741.011 588.081 734.811 589.991C728.564 591.911 723.924 590.021 720.891 584.321C720.812 584.166 720.693 584.035 720.545 583.94C720.398 583.845 720.227 583.79 720.051 583.781C710.071 583.321 701.237 579.157 693.551 571.291C693.385 571.118 693.173 570.999 692.94 570.947C692.706 570.896 692.463 570.914 692.241 571.001C686.101 573.351 678.761 568.921 678.601 562.131C678.541 559.624 679.671 557.761 681.991 556.541C682.551 556.247 682.751 555.797 682.591 555.191L680.661 547.981C680.615 547.801 680.523 547.636 680.393 547.503C680.263 547.37 680.1 547.272 679.921 547.221C678.707 546.867 677.581 546.321 676.541 545.581C676.325 545.425 676.143 545.229 676.004 545.005C675.865 544.78 675.772 544.53 675.731 544.271C675.377 542.137 675.864 539.991 677.191 537.831C677.404 537.491 677.707 537.277 678.101 537.191C678.841 537.031 679.571 537.031 680.291 537.191C683.437 537.877 686.651 538.217 689.931 538.211C690.764 538.211 690.881 537.924 690.281 537.351C688.787 535.931 687.217 534.531 685.571 533.151C683.201 531.171 683.501 528.631 684.831 526.211C685.837 524.377 687.364 523.867 689.411 524.681C693.404 526.261 697.294 527.671 701.081 528.911C701.934 529.191 702.067 528.991 701.481 528.311ZM704.741 543.781C702.371 546.011 697.721 547.461 694.921 547.751C691.614 548.091 687.987 548.117 684.041 547.831C683.976 547.825 683.91 547.836 683.85 547.861C683.79 547.886 683.737 547.925 683.694 547.975C683.652 548.025 683.623 548.084 683.608 548.148C683.594 548.211 683.594 548.277 683.611 548.341C686.351 559.581 692.521 568.491 702.121 575.071C710.961 581.121 723.321 584.001 732.511 577.511C739.861 572.321 742.411 563.851 740.131 555.321C736.937 543.367 729.747 534.407 718.561 528.441C718.261 528.281 718.157 528.361 718.251 528.681C718.611 529.867 718.977 531.047 719.351 532.221C720.381 535.481 718.331 538.951 715.431 540.271C712.857 541.444 709.854 541.854 706.421 541.501C705.541 541.407 705.127 541.801 705.181 542.681C705.201 543.114 705.054 543.481 704.741 543.781ZM738.761 544.451C740.801 548.141 742.191 551.871 743.341 556.271C743.521 556.957 743.811 557.007 744.211 556.421C744.804 555.541 745.344 554.601 745.831 553.601C748.891 547.321 744.711 544.101 739.081 543.931C738.667 543.917 738.561 544.091 738.761 544.451ZM690.591 568.741L683.411 558.291C683.406 558.284 683.4 558.28 683.393 558.278C683.385 558.276 683.377 558.277 683.371 558.281C682.848 558.64 682.422 559.13 682.117 559.722C681.812 560.313 681.635 560.996 681.595 561.729C681.555 562.463 681.653 563.234 681.884 563.998C682.115 564.761 682.474 565.503 682.941 566.181L683.061 566.361C683.527 567.039 684.091 567.639 684.722 568.127C685.352 568.616 686.037 568.983 686.736 569.208C687.436 569.433 688.136 569.511 688.797 569.437C689.459 569.364 690.068 569.141 690.591 568.781C690.596 568.775 690.598 568.768 690.598 568.761C690.598 568.753 690.596 568.746 690.591 568.741ZM731.531 581.481L724.591 584.021C723.917 584.274 723.844 584.644 724.371 585.131C727.497 588.031 730.787 588.714 734.241 587.181C735.227 586.747 735.544 586.021 735.191 585.001C734.864 584.054 734.357 583.101 733.671 582.141C733.124 581.374 732.411 581.154 731.531 581.481Z" fill="#0055CC"/>
<path d="M560.38 520.351C557.74 519.751 555.79 521.541 555.93 524.221C556.37 532.161 560.31 537.821 565.91 543.221C566.134 543.436 566.268 543.727 566.287 544.038C566.305 544.349 566.207 544.657 566.01 544.901C565.943 544.981 565.87 545.054 565.79 545.121C565.083 545.687 564.403 545.661 563.75 545.041C558.05 539.601 553.77 532.931 553.26 525.011C552.73 516.961 560.49 516.141 565.74 519.431C572.63 523.741 577.65 530.861 581.92 538.101C582.373 538.867 582.197 539.451 581.39 539.851L580.94 540.081C580.26 540.414 579.753 540.241 579.42 539.561C575.9 532.381 568.79 522.241 560.38 520.351Z" fill="#0055CC"/>
<path d="M451.181 528.196C453.388 528.701 455.553 527.47 456.017 525.446C456.481 523.422 455.067 521.371 452.86 520.866C450.653 520.36 448.487 521.591 448.024 523.615C447.56 525.639 448.974 527.69 451.181 528.196Z" fill="#0055CC"/>
<path d="M483.871 525.88C481.171 529.44 478.751 531.69 473.851 533.33C471.644 534.07 470.217 533.323 469.571 531.09C469.504 530.863 469.477 530.633 469.491 530.4C469.604 528.267 470.507 526.82 472.201 526.06C475.391 524.64 480.441 522.1 483.961 522.71C484.098 522.734 484.229 522.785 484.346 522.861C484.462 522.937 484.562 523.037 484.639 523.153C484.716 523.269 484.768 523.4 484.792 523.537C484.817 523.674 484.813 523.815 484.781 523.95C484.621 524.643 484.317 525.287 483.871 525.88ZM479.581 526.1C477.821 527.31 476.071 527.83 474.151 528.42C473.517 528.613 473.127 529.03 472.981 529.67C472.921 529.937 472.921 530.21 472.981 530.49C473.101 531.063 473.401 531.18 473.881 530.84L479.861 526.58C479.994 526.48 479.994 526.38 479.861 526.28L479.611 526.1C479.604 526.087 479.594 526.087 479.581 526.1Z" fill="#0055CC"/>
<path d="M607.451 525.47L602.021 530.81C601.924 530.905 601.808 530.978 601.679 531.021C601.551 531.065 601.414 531.08 601.28 531.063C601.145 531.047 601.016 531 600.902 530.927C600.788 530.854 600.692 530.756 600.621 530.64L599.981 529.62C599.865 529.439 599.817 529.223 599.846 529.01C599.876 528.798 599.98 528.602 600.141 528.46L606.391 522.9C606.528 522.778 606.699 522.701 606.881 522.679C607.063 522.657 607.248 522.692 607.41 522.778C607.572 522.864 607.704 522.997 607.788 523.16C607.872 523.323 607.905 523.508 607.881 523.69L607.711 524.94C607.686 525.141 607.595 525.327 607.451 525.47Z" fill="#0055CC"/>
<path d="M302.091 539.581C301.941 538.231 301.271 536.591 301.641 535.281C302.771 531.251 307.721 533.141 309.731 535.241C310.031 535.554 310.391 535.651 310.811 535.531L319.301 533.141C319.519 533.078 319.716 532.955 319.868 532.785C320.02 532.615 320.121 532.406 320.161 532.181C320.791 528.411 325.251 528.981 327.531 530.641C330.978 533.141 333.151 536.414 334.051 540.461C334.077 540.58 334.133 540.691 334.212 540.784C334.291 540.877 334.391 540.949 334.504 540.994C334.618 541.04 334.74 541.056 334.862 541.044C334.983 541.031 335.1 540.989 335.201 540.921C336.168 540.274 337.191 539.754 338.271 539.361C348.351 535.714 358.504 532.124 368.731 528.591C371.798 527.537 374.541 528.227 376.961 530.661C408.581 562.447 439.374 593.847 469.341 624.861C471.961 627.581 473.441 634.291 468.921 636.121C423.761 654.487 385.508 669.964 354.161 682.551C352.814 683.091 351.438 683.644 350.031 684.211C346.561 685.601 343.501 685.511 340.901 682.811C309.668 650.484 278.881 618.714 248.541 587.501C246.754 585.667 245.604 584.071 245.091 582.711C243.091 577.511 247.171 575.361 251.421 573.661C259.854 570.301 268.274 566.914 276.681 563.501C277.128 563.321 277.244 563.014 277.031 562.581C276.261 560.981 275.261 559.291 275.111 557.451C274.351 547.931 283.901 543.841 292.091 541.841C292.498 541.741 292.684 541.481 292.651 541.061C292.511 538.991 292.451 536.111 294.861 535.321C297.291 534.531 300.461 538.021 301.691 539.731C302.024 540.191 302.158 540.141 302.091 539.581ZM347.101 550.861C346.401 551.894 345.511 552.591 344.431 552.951C329.318 557.984 314.224 563.647 299.151 569.941C294.451 571.911 290.151 576.351 285.421 570.881C284.021 569.261 282.761 567.604 281.641 565.911C281.431 565.596 281.12 565.363 280.761 565.25C280.403 565.137 280.018 565.152 279.671 565.291L251.801 576.421C251.214 576.654 251.141 576.997 251.581 577.451L344.581 673.451C344.769 673.645 345.013 673.779 345.28 673.834C345.547 673.889 345.826 673.864 346.081 673.761L465.041 625.441C465.654 625.187 465.731 624.824 465.271 624.351C435.871 594.204 406.511 564.271 377.191 534.551C374.441 531.761 373.261 529.891 369.651 531.081C359.844 534.327 350.538 537.654 341.731 541.061C341.546 541.126 341.348 541.15 341.151 541.131C340.744 541.084 340.394 541.177 340.101 541.411C339.741 541.704 339.764 541.967 340.171 542.201C342.281 543.391 349.301 547.581 347.101 550.861ZM323.991 534.511C324.491 535.043 324.864 535.683 325.081 536.381C326.174 539.861 327.634 543.237 329.461 546.511C329.571 546.707 329.731 546.87 329.924 546.984C330.118 547.098 330.338 547.159 330.563 547.16C330.788 547.161 331.009 547.102 331.203 546.99C331.398 546.877 331.559 546.716 331.671 546.521C332.078 545.801 332.191 545.027 332.011 544.201C331.101 539.881 328.771 533.151 323.671 532.541C322.518 532.401 322.338 532.754 323.131 533.601L323.991 534.511ZM308.601 549.361C309.231 550.891 310.291 553.841 312.411 553.911C312.56 553.915 312.708 553.887 312.845 553.828C312.982 553.77 313.104 553.682 313.202 553.571C313.3 553.46 313.373 553.329 313.414 553.187C313.455 553.045 313.465 552.896 313.441 552.751C312.821 548.681 310.041 537.911 306.001 536.001C305.241 535.641 304.918 535.877 305.031 536.711C305.584 540.711 306.774 544.927 308.601 549.361ZM321.811 536.531C321.7 536.285 321.509 536.085 321.269 535.963C321.029 535.841 320.754 535.805 320.491 535.861L313.281 537.351C313.112 537.385 312.953 537.456 312.815 537.559C312.676 537.662 312.562 537.794 312.48 537.945C312.398 538.097 312.35 538.264 312.34 538.436C312.33 538.608 312.358 538.78 312.421 538.941L315.241 546.041C315.346 546.306 315.544 546.524 315.798 546.654C316.051 546.785 316.344 546.819 316.621 546.751L324.031 544.871C324.197 544.828 324.352 544.751 324.485 544.642C324.619 544.534 324.727 544.398 324.802 544.244C324.877 544.09 324.918 543.921 324.921 543.749C324.924 543.578 324.89 543.408 324.821 543.251L321.811 536.531ZM305.32 557.508C305.694 557.33 305.562 556.132 304.954 554.178C304.346 552.224 303.312 549.674 302.079 547.089C300.846 544.504 299.515 542.095 298.379 540.393C297.243 538.691 296.395 537.835 296.021 538.013C295.648 538.191 295.78 539.389 296.388 541.343C296.995 543.297 298.03 545.847 299.263 548.432C300.496 551.017 301.827 553.426 302.963 555.128C304.099 556.83 304.947 557.687 305.32 557.508ZM315.721 555.121C313.141 558.091 310.471 557.101 308.391 554.331C307.704 553.411 307.494 553.511 307.761 554.631C308.034 555.744 308.114 556.874 308.001 558.021C307.961 558.454 307.764 558.801 307.411 559.061C303.831 561.751 300.541 558.051 299.071 554.881C297.444 551.367 295.784 547.911 294.091 544.511C294.016 544.36 293.89 544.242 293.734 544.176C293.578 544.11 293.404 544.101 293.241 544.151C286.481 546.211 272.911 551.031 279.401 561.121C279.528 561.325 279.725 561.477 279.956 561.55C280.186 561.623 280.436 561.613 280.661 561.521C286.354 559.221 291.034 560.557 294.701 565.531C295.141 566.131 295.231 566.841 295.601 567.451C295.761 567.731 295.994 567.817 296.301 567.711C301.541 565.897 306.468 564.014 311.081 562.061C319.281 558.581 327.881 555.551 336.251 552.541C337.398 552.127 337.538 551.491 336.671 550.631L334.681 548.661C334.068 548.054 333.508 548.097 333.001 548.791C329.881 553.011 327.601 548.581 325.791 546.361C325.678 546.221 325.521 546.124 325.347 546.084C325.173 546.044 324.991 546.064 324.831 546.141C322.078 547.487 319.244 548.481 316.331 549.121C316.038 549.187 315.888 549.374 315.881 549.681L315.871 554.701C315.871 554.856 315.818 555.005 315.721 555.121ZM342.811 550.442C342.942 550.518 343.152 550.444 343.397 550.237C343.641 550.03 343.899 549.706 344.113 549.337C344.328 548.968 344.482 548.584 344.542 548.269C344.601 547.955 344.561 547.735 344.431 547.659C344.3 547.583 344.089 547.657 343.845 547.864C343.601 548.071 343.343 548.395 343.128 548.764C342.914 549.133 342.759 549.517 342.7 549.832C342.64 550.146 342.68 550.366 342.811 550.442ZM283.901 564.411C285.651 566.821 287.971 571.341 291.501 570.541C292.648 570.281 293.021 569.597 292.621 568.491C291.248 564.697 288.508 562.977 284.401 563.331C283.601 563.397 283.434 563.757 283.901 564.411ZM308.661 645.491C319.821 656.991 331.631 669.197 344.091 682.111C344.227 682.249 344.395 682.352 344.579 682.411C344.764 682.471 344.96 682.484 345.15 682.451C345.34 682.417 345.519 682.338 345.671 682.219C345.823 682.101 345.943 681.947 346.021 681.771C346.234 681.297 346.151 680.627 345.771 679.761C345.191 678.414 344.404 677.231 343.411 676.211C312.824 644.637 281.714 612.511 250.081 579.831C249.688 579.424 249.224 579.131 248.691 578.951C248.557 578.906 248.415 578.895 248.276 578.919C248.137 578.942 248.006 578.999 247.895 579.085C247.783 579.171 247.694 579.283 247.636 579.411C247.578 579.539 247.552 579.68 247.561 579.821C247.688 581.627 248.284 583.084 249.351 584.191C269.524 605.091 289.294 625.524 308.661 645.491ZM347.461 676.051C347.274 676.131 347.211 676.267 347.271 676.461L349.031 681.761C349.078 681.894 349.168 681.934 349.301 681.881C388.128 666.161 426.314 650.657 463.861 635.371C465.028 634.897 466.168 634.371 467.281 633.791C467.813 633.516 468.246 633.082 468.521 632.55C468.795 632.018 468.896 631.413 468.811 630.821L468.571 629.131C468.371 627.711 467.608 627.271 466.281 627.811L347.461 676.051Z" fill="#0055CC"/>
<path d="M722.28 549.538C723.776 550.182 725.428 549.685 725.97 548.427C726.512 547.169 725.738 545.627 724.242 544.982C722.745 544.338 721.093 544.835 720.551 546.093C720.01 547.351 720.783 548.893 722.28 549.538Z" fill="#0055CC"/>
<path d="M703.753 554.639C705.491 555.015 707.159 554.125 707.477 552.651C707.796 551.178 706.645 549.678 704.907 549.303C703.169 548.927 701.501 549.817 701.183 551.29C700.864 552.764 702.015 554.263 703.753 554.639Z" fill="#0055CC"/>
<path d="M721.5 559.4L725.15 559.77C725.67 559.823 725.967 560.11 726.04 560.63C726.067 560.803 726.06 560.97 726.02 561.13C725.847 561.817 725.407 562.127 724.7 562.06C722.633 561.847 720.687 562.37 718.86 563.63C718.731 563.718 718.584 563.779 718.429 563.808C718.275 563.838 718.115 563.835 717.96 563.8C717.213 563.633 716.837 563.33 716.83 562.89C716.81 561.957 717.21 561.193 718.03 560.6C718.437 560.307 718.833 560.017 719.22 559.73C719.368 559.621 719.479 559.471 719.54 559.3C719.601 559.128 719.608 558.944 719.56 558.77C718.94 556.37 716.6 554.41 714.74 552.81C714.596 552.687 714.503 552.516 714.477 552.329C714.451 552.143 714.495 551.955 714.6 551.8C714.867 551.393 715.25 551.24 715.75 551.34C719.603 552.093 721.327 554.543 720.92 558.69C720.873 559.123 721.067 559.36 721.5 559.4Z" fill="#0055CC"/>
<path d="M362.621 586.54C358.871 583.17 355.261 580.21 354.791 574.93C354.344 569.883 356.271 566.013 360.571 563.32C365.084 560.493 369.304 559.847 373.231 561.38C375.111 562.113 378.064 564.4 382.091 568.24C392.937 578.587 404.291 589.284 416.151 600.33C419.691 603.62 423.411 606.87 427.111 610.06C432.001 614.28 435.131 619.95 428.151 624.41C423.401 627.45 415.081 632.02 410.091 628.84C408.711 627.967 407.061 626.657 405.141 624.91C391.994 612.97 377.821 600.18 362.621 586.54ZM398.781 587.74C391.321 580.68 383.574 573.413 375.541 565.94C371.291 561.99 366.041 562.7 361.511 566.07C356.891 569.5 355.861 576.09 360.121 580.35C364.107 584.323 368.481 588.267 373.241 592.18C374.901 593.54 376.391 595.21 378.011 596.66C378.204 596.834 378.447 596.944 378.706 596.976C378.965 597.008 379.228 596.961 379.461 596.84C385.601 593.674 392.007 590.813 398.681 588.26C398.987 588.14 399.021 587.967 398.781 587.74ZM401.451 590.75C401.231 590.583 400.991 590.55 400.731 590.65C394.111 593.044 387.944 595.733 382.231 598.72C381.157 599.28 381.114 599.91 382.101 600.61L383.591 601.68C384.504 602.333 385.454 602.397 386.441 601.87C392.247 598.81 398.301 596.097 404.601 593.73C405.041 593.563 405.067 593.343 404.681 593.07L401.451 590.75ZM387.711 605.33C394.821 611.83 402.051 618.38 409.121 624.84C413.181 628.54 416.811 627.13 421.481 624.91C423.971 623.73 427.451 622.01 429.041 619.69C429.234 619.403 429.317 619.09 429.291 618.75C429.151 616.83 428.347 615.19 426.881 613.83C420.854 608.244 414.921 602.883 409.081 597.75C407.901 596.71 407.181 595.83 405.471 596.49C399.584 598.757 393.714 601.337 387.861 604.23C387.762 604.279 387.677 604.351 387.613 604.44C387.549 604.528 387.508 604.632 387.493 604.74C387.479 604.849 387.491 604.959 387.529 605.062C387.566 605.165 387.629 605.257 387.711 605.33Z" fill="#0055CC"/>
<path d="M498.86 585.241C497.66 588.831 496.39 594.801 498.44 598.011C498.53 598.153 498.591 598.312 498.618 598.478C498.645 598.644 498.639 598.813 498.598 598.976C498.558 599.139 498.485 599.292 498.384 599.425C498.283 599.558 498.156 599.669 498.01 599.751L497.68 599.951C496.993 600.337 496.457 600.191 496.07 599.511C492.95 594.111 496.06 583.801 498.79 578.341C501.55 572.831 505.6 569.211 511.52 567.431C524.52 563.521 539.18 564.001 550.93 570.281C551.091 570.365 551.231 570.484 551.344 570.629C551.456 570.774 551.536 570.941 551.58 571.121C551.747 571.807 551.577 572.344 551.07 572.731C550.677 573.024 550.27 573.047 549.85 572.801C538.84 566.451 523.39 566.091 511.57 570.221C504.75 572.611 501.06 578.641 498.86 585.241Z" fill="#0055CC"/>
<path d="M676.41 624.691C683.15 626.461 687.15 631.101 687.98 638.171C688.68 644.181 686.49 649.221 681.33 651.931C681.023 652.091 680.76 652.304 680.54 652.571C680.353 652.791 680.237 653.094 680.19 653.481C678.577 666.874 672.17 677.281 660.97 684.701C660.88 684.757 660.815 684.845 660.789 684.948C660.763 685.05 660.778 685.159 660.83 685.251C664.55 691.821 668.92 700.051 660.5 705.171C658.307 706.504 655.813 707.264 653.02 707.451C644.12 708.041 640.87 701.341 638.27 694.131C638.143 693.784 637.897 693.627 637.53 693.661C636.73 693.727 635.95 693.804 635.19 693.891C620.083 695.584 606.76 692.371 595.22 684.251C594.953 684.064 594.67 684.041 594.37 684.181C588.917 686.681 583.597 687.114 578.41 685.481C568.923 682.494 564.027 675.894 563.72 665.681C563.713 665.261 563.5 665.051 563.08 665.051C551.66 664.911 541.42 658.391 535.89 648.861C529.49 637.801 529.36 621.371 537.97 611.631C545.77 602.791 559.58 598.101 571.02 594.131C586.973 588.591 602.51 583.197 617.63 577.951C622.25 576.344 627.423 575.604 633.15 575.731C649.11 576.077 662.113 581.417 672.16 591.751C679.33 599.121 684.38 610.821 679.7 620.561C678.953 622.114 677.833 623.281 676.34 624.061C675.82 624.334 675.843 624.544 676.41 624.691ZM584.37 661.081C583.657 661.381 582.923 661.607 582.17 661.761C582.118 661.771 582.069 661.793 582.027 661.825C581.985 661.857 581.95 661.898 581.926 661.945C581.902 661.992 581.889 662.044 581.888 662.097C581.887 662.15 581.898 662.203 581.92 662.251C587.27 673.741 595.98 683.621 607.92 688.111C624.42 694.311 641.1 692.271 656.63 683.861C662.757 680.541 667.61 676.097 671.19 670.531C680.02 656.791 678.89 642.011 671.15 627.551C670.983 627.244 670.73 627.134 670.39 627.221C664.923 628.594 659.973 627.591 655.54 624.211C650.933 620.691 646.687 616.244 642.8 610.871C641.607 609.217 641.007 609.411 641 611.451C640.97 620.341 642.46 632.111 633.37 637.431C629.34 639.781 624.23 639.711 619.67 639.691C617.1 639.681 614.39 640.651 612.44 642.281C603.65 649.661 594.79 656.691 584.37 661.081ZM674.42 626.911C674.368 626.897 674.313 626.899 674.263 626.917C674.212 626.935 674.168 626.967 674.135 627.01C674.103 627.053 674.085 627.104 674.082 627.158C674.079 627.212 674.092 627.265 674.12 627.311C677.847 633.784 679.837 640.567 680.09 647.661C680.157 649.394 680.75 649.597 681.87 648.271L683.24 646.661C684.673 644.967 685.363 643.011 685.31 640.791C685.117 633.184 681.487 628.557 674.42 626.911ZM592.2 681.221C586.76 676.091 582.27 670.411 579.39 663.501C579.237 663.141 578.967 662.971 578.58 662.991C577.45 663.061 576.27 663.671 575.12 663.911C572.6 664.431 570.123 664.827 567.69 665.101C567.474 665.126 567.274 665.226 567.125 665.383C566.975 665.54 566.885 665.744 566.87 665.961C566.57 671.281 568.91 676.611 573.12 679.811C578.613 683.991 584.897 684.824 591.97 682.311C592.076 682.274 592.171 682.21 592.245 682.126C592.319 682.042 592.37 681.94 592.393 681.831C592.416 681.721 592.411 681.607 592.377 681.5C592.343 681.393 592.282 681.297 592.2 681.221ZM657.67 686.331C652.75 689.181 646.99 691.641 641.34 692.711C640.92 692.797 640.783 693.041 640.93 693.441C642.95 698.851 646 705.561 652.89 704.851C656.19 704.511 661.43 702.541 662.23 698.931C662.97 695.571 660.23 689.961 658.44 686.561C658.405 686.493 658.357 686.434 658.299 686.386C658.24 686.337 658.173 686.301 658.101 686.28C658.029 686.258 657.954 686.252 657.88 686.261C657.806 686.269 657.734 686.293 657.67 686.331Z" fill="#0055CC"/>
<path d="M307.411 599.071C306.331 597.651 305.151 596.321 304.271 594.761C304.091 594.441 304.074 594.111 304.221 593.771C304.781 592.531 305.961 592.631 306.961 593.341C325.041 606.181 343.408 618.831 362.061 631.291C362.806 631.784 363.369 632.508 363.661 633.351C365.141 637.631 368.611 643.021 363.371 646.591C356.641 651.171 348.271 650.961 343.031 644.521C330.871 629.588 318.998 614.438 307.411 599.071ZM313.221 600.891C312.814 600.711 312.691 600.824 312.851 601.231C313.381 602.631 315.721 605.271 317.591 604.431C317.978 604.258 318.008 604.034 317.681 603.761C316.208 602.514 314.721 601.558 313.221 600.891ZM324.641 609.351C323.071 607.821 320.741 606.201 318.481 607.401C318.168 607.568 318.084 607.811 318.231 608.131C319.418 610.624 321.511 611.258 324.511 610.031C324.898 609.871 324.941 609.644 324.641 609.351ZM331.351 614.851C331.479 614.826 331.595 614.76 331.683 614.663C331.771 614.567 331.826 614.445 331.839 614.315C331.853 614.185 331.824 614.055 331.758 613.942C331.692 613.83 331.591 613.742 331.471 613.691L327.861 612.101C327.782 612.066 327.697 612.047 327.611 612.047C327.525 612.047 327.439 612.066 327.361 612.101L323.131 614.031C323.046 614.07 322.971 614.127 322.912 614.199C322.853 614.271 322.811 614.356 322.79 614.447C322.769 614.538 322.769 614.632 322.79 614.723C322.811 614.814 322.852 614.899 322.911 614.971L323.821 616.071C323.891 616.156 323.983 616.22 324.087 616.257C324.191 616.294 324.303 616.302 324.411 616.281L331.351 614.851ZM327.741 620.441L328.331 621.091C329.278 622.118 330.408 622.391 331.721 621.911C334.674 620.831 337.498 620.227 340.191 620.101C340.798 620.074 340.821 619.941 340.261 619.701L334.331 617.171C333.998 617.031 333.661 617.011 333.321 617.111L328.241 618.631C327.101 618.964 326.934 619.568 327.741 620.441ZM338.501 631.741C340.481 628.841 344.501 626.671 347.981 625.691C348.468 625.551 348.501 625.338 348.081 625.051C345.394 623.258 343.108 622.484 341.221 622.731C338.331 623.111 334.851 624.891 331.761 624.901C331.121 624.901 331.018 625.138 331.451 625.611L337.161 631.831C337.248 631.926 337.355 632 337.475 632.048C337.595 632.096 337.724 632.116 337.852 632.108C337.981 632.099 338.106 632.062 338.218 631.998C338.331 631.935 338.427 631.847 338.501 631.741ZM347.741 644.721C351.301 647.941 356.131 647.031 360.101 644.811C362.191 643.641 363.961 642.881 362.771 640.001C362.078 638.328 361.471 636.628 360.951 634.901C360.827 634.484 360.584 634.112 360.251 633.831C358.224 632.131 355.708 630.458 352.701 628.811C348.501 626.501 342.311 631.761 339.321 634.251C339.034 634.484 339.001 634.751 339.221 635.051C342.001 638.878 344.841 642.101 347.741 644.721Z" fill="#0055CC"/>
<path d="M753.19 635.271C753.226 635.218 753.249 635.157 753.257 635.093C753.266 635.03 753.26 634.965 753.24 634.904C753.219 634.844 753.185 634.788 753.14 634.742C753.095 634.697 753.041 634.662 752.98 634.641L729.67 626.721C728.47 626.314 728.227 625.587 728.94 624.541L745.9 599.721C746.081 599.456 746.342 599.258 746.644 599.157C746.946 599.056 747.271 599.057 747.57 599.161C762.023 604.087 776.62 608.901 791.36 613.601C792.127 613.841 792.36 614.464 792.06 615.471C792.047 615.497 792.033 615.524 792.02 615.551L775.07 641.011C774.483 641.898 773.687 642.164 772.68 641.811L757.17 636.291C756.876 636.185 756.554 636.18 756.257 636.278C755.96 636.376 755.704 636.57 755.53 636.831L731.64 672.011C731.24 672.604 730.77 673.137 730.23 673.611C729.457 674.284 728.923 674.484 728.63 674.211C728.337 673.932 728.154 673.554 728.116 673.143C728.078 672.733 728.185 672.318 728.42 671.971C736.947 659.337 745.203 647.104 753.19 635.271ZM748.24 602.321C748.174 602.299 748.102 602.299 748.036 602.321C747.969 602.342 747.911 602.384 747.87 602.441L732.38 624.191C732.349 624.233 732.328 624.281 732.319 624.333C732.311 624.384 732.314 624.437 732.33 624.487C732.346 624.536 732.373 624.582 732.409 624.619C732.446 624.656 732.491 624.684 732.54 624.701L772.93 638.931C772.999 638.954 773.073 638.954 773.142 638.93C773.211 638.907 773.27 638.861 773.31 638.801L788.43 615.901C788.457 615.859 788.474 615.811 788.48 615.762C788.486 615.712 788.48 615.662 788.464 615.615C788.448 615.567 788.421 615.525 788.385 615.489C788.35 615.454 788.307 615.427 788.26 615.411L748.24 602.321Z" fill="#0055CC"/>
<path d="M418.661 614.131C414.371 611.461 408.321 614.021 409.521 619.711C409.834 621.197 409.354 621.527 408.081 620.701C405.467 618.994 405.164 616.864 407.171 614.311C410.724 609.791 415.031 608.961 420.091 611.821C420.957 612.314 421.627 613.007 422.101 613.901C422.321 614.321 422.354 614.751 422.201 615.191C422.164 615.298 422.105 615.396 422.026 615.478C421.946 615.559 421.85 615.622 421.744 615.661C421.637 615.701 421.523 615.715 421.41 615.705C421.297 615.695 421.188 615.659 421.091 615.601C420.271 615.121 419.461 614.631 418.661 614.131Z" fill="#0055CC"/>
<path d="M751.72 616.271C751.778 616.482 751.885 616.676 752.033 616.838C752.181 616.999 752.365 617.123 752.571 617.2C752.776 617.277 752.998 617.305 753.216 617.281C753.435 617.256 753.646 617.181 753.83 617.061L757.66 614.571C758.5 614.024 759.39 613.918 760.33 614.251C760.484 614.304 760.627 614.378 760.76 614.471C761.494 614.984 761.514 615.521 760.82 616.081C756.394 619.648 752.37 622.294 748.75 624.021C747.584 624.574 746.437 624.631 745.31 624.191C745.234 624.162 745.166 624.115 745.111 624.054C745.056 623.993 745.016 623.921 744.995 623.842C744.973 623.763 744.971 623.68 744.987 623.6C745.004 623.52 745.039 623.445 745.09 623.381C745.99 622.248 747.03 621.311 748.21 620.571C748.584 620.338 748.84 620.011 748.98 619.591C749.234 618.818 749.04 618.171 748.4 617.651C748.291 617.563 748.204 617.452 748.145 617.326C748.086 617.199 748.057 617.06 748.06 616.921L748.15 612.541C748.184 611.001 748.667 610.841 749.6 612.061C750.587 613.348 751.294 614.751 751.72 616.271ZM753.25 619.241C752.37 619.308 751.744 619.618 751.37 620.171C751.13 620.518 751.217 620.651 751.63 620.571C752.31 620.431 752.85 619.988 753.25 619.241C753.51 619.174 753.747 619.071 753.96 618.931C754.814 618.391 754.784 618.331 753.87 618.751C753.644 618.851 753.437 619.014 753.25 619.241Z" fill="#0055CC"/>
<path d="M759.961 627.92C765.641 626.52 770.841 623.83 776.161 621.16C777.754 620.36 779.471 619.733 781.311 619.28C781.428 619.251 781.552 619.253 781.668 619.286C781.785 619.318 781.892 619.38 781.978 619.465C782.064 619.55 782.127 619.656 782.161 619.772C782.195 619.889 782.198 620.012 782.171 620.13C781.891 621.33 781.177 622.187 780.031 622.7C775.397 624.76 770.731 626.887 766.031 629.08C763.717 630.167 761.351 630.973 758.931 631.5C757.931 631.72 757.561 631.337 757.821 630.35L757.941 629.9C758.067 629.419 758.322 628.982 758.677 628.633C759.033 628.285 759.476 628.038 759.961 627.92Z" fill="#0055CC"/>
<path d="M758.62 624.05L752.98 627.65C752.869 627.722 752.739 627.76 752.607 627.762C752.474 627.764 752.344 627.728 752.23 627.66L751.06 626.96C750.953 626.896 750.865 626.805 750.804 626.696C750.744 626.587 750.713 626.464 750.715 626.339C750.717 626.215 750.752 626.093 750.816 625.986C750.88 625.879 750.971 625.791 751.08 625.73L758.09 621.87C758.209 621.804 758.343 621.774 758.479 621.783C758.614 621.791 758.744 621.838 758.853 621.918C758.962 621.998 759.046 622.107 759.095 622.234C759.145 622.36 759.157 622.497 759.13 622.63L758.94 623.59C758.921 623.684 758.882 623.774 758.827 623.853C758.772 623.932 758.702 623.999 758.62 624.05Z" fill="#0055CC"/>
<path d="M352.876 643.394C354.739 642.137 355.742 640.364 355.115 639.435C354.488 638.505 352.469 638.771 350.606 640.028C348.742 641.285 347.74 643.057 348.367 643.987C348.994 644.916 351.012 644.651 352.876 643.394Z" fill="#0055CC"/>
<path d="M647.821 649.481C650.692 650.717 653.758 650.005 654.669 647.89C655.58 645.774 653.991 643.057 651.12 641.821C648.249 640.584 645.183 641.297 644.272 643.412C643.361 645.527 644.95 648.244 647.821 649.481Z" fill="#0055CC"/>
<path d="M620.341 659.266C623.15 658.638 624.96 656.045 624.385 653.474C623.811 650.903 621.068 649.328 618.26 649.955C615.452 650.583 613.642 653.176 614.216 655.747C614.791 658.318 617.533 659.893 620.341 659.266Z" fill="#0055CC"/>
<path d="M636.881 656.24C636.667 656.252 636.454 656.204 636.265 656.101C636.076 655.999 635.919 655.846 635.811 655.66C635.177 654.553 635.647 653.807 637.221 653.42C637.446 653.36 637.676 653.34 637.901 653.36C641.727 653.687 645.121 655.22 648.081 657.96C648.376 658.229 648.552 658.603 648.571 659C648.604 659.833 648.374 660.36 647.881 660.58C647.214 660.873 646.644 660.74 646.171 660.18C643.751 657.307 640.654 655.993 636.881 656.24Z" fill="#0055CC"/>
<path d="M513.12 659.711C510.7 657.801 503.2 653.221 501.4 658.311C498.64 666.131 510.68 682.141 515.78 687.481C516.36 688.087 516.38 688.711 515.84 689.351L515.56 689.681C515.495 689.758 515.414 689.822 515.323 689.867C515.232 689.912 515.133 689.937 515.033 689.942C514.932 689.947 514.832 689.93 514.738 689.894C514.645 689.858 514.56 689.802 514.49 689.731C508.77 684.101 493.86 664.351 499.76 655.901C503.52 650.501 512.04 655.321 516.05 658.661C521.117 662.894 525.623 667.007 529.57 671.001C530.023 671.467 529.983 671.884 529.45 672.251L528.91 672.631C528.397 672.991 527.917 672.947 527.47 672.501C522.87 667.907 518.087 663.644 513.12 659.711Z" fill="#0055CC"/>
<path d="M645.36 665.771C643.85 665.941 642.88 667.091 641.83 668.061C641.117 668.727 640.337 668.817 639.49 668.331L639.19 668.161C639.041 668.075 638.913 667.955 638.818 667.812C638.723 667.668 638.663 667.505 638.643 667.335C638.622 667.164 638.642 666.992 638.701 666.831C638.759 666.671 638.855 666.527 638.98 666.411C640.633 664.864 642.293 663.664 643.96 662.811C646.37 661.591 652.34 663.021 654.77 664.051C655.523 664.371 655.813 664.934 655.64 665.741L655.55 666.131C655.383 666.924 654.923 667.177 654.17 666.891C651.33 665.811 648.393 665.437 645.36 665.771Z" fill="#0055CC"/>
<path d="M897.231 719.24C931.417 755.267 966.761 792.81 1003.26 831.87C1009.15 838.17 1015.38 844.15 1020.9 850.74C1021.01 850.876 1021.1 851.036 1021.14 851.208C1021.18 851.38 1021.18 851.559 1021.15 851.733C1021.11 851.906 1021.04 852.069 1020.93 852.209C1020.82 852.349 1020.68 852.462 1020.52 852.54C1018.63 853.467 1016.79 854.387 1015.01 855.3C961.217 882.734 911.554 907.6 866.021 929.9C858.747 933.46 852.581 936.304 847.521 938.43C829.487 946.024 810.514 951.54 790.601 954.98C784.171 956.09 768.381 956.94 763.581 951.63C761.321 949.13 759.011 946.624 756.651 944.11C738.624 924.93 720.697 905.714 702.871 886.46C685.464 867.66 667.037 851.927 647.591 839.26C633.731 830.23 625.521 824.54 616.371 815.14C609.981 808.57 603.061 798.52 602.721 789.22C602.601 785.94 602.584 782.597 602.671 779.19C602.674 778.99 602.731 778.795 602.837 778.624C602.942 778.453 603.092 778.314 603.271 778.22C614.851 772.214 626.464 766.77 638.111 761.89C657.244 753.87 685.317 742.594 722.331 728.06C728.591 725.6 734.784 723.137 740.911 720.67C778.944 705.357 816.811 691.23 854.511 678.29C854.893 678.159 855.303 678.132 855.698 678.211C856.093 678.29 856.46 678.473 856.761 678.74C870.911 691.21 883.471 704.74 897.231 719.24ZM605.941 779.66C605.414 779.927 605.354 780.27 605.761 780.69L614.731 789.99C614.987 790.255 615.31 790.445 615.667 790.538C616.023 790.632 616.398 790.626 616.751 790.52C618.171 790.08 619.624 789.564 621.111 788.97C702.471 756.49 781.001 725.754 856.701 696.76C860.201 695.42 863.744 694.134 867.331 692.9C867.671 692.787 867.711 692.607 867.451 692.36L856.041 681.36C855.858 681.183 855.629 681.059 855.381 681.003C855.132 680.946 854.873 680.959 854.631 681.04C822.624 692.007 788.871 704.49 753.371 718.49C707.917 736.424 669.954 751.65 639.481 764.17C629.461 768.284 618.281 773.447 605.941 779.66ZM744.301 927.15C751.374 934.664 758.037 941.827 764.291 948.64C764.525 948.895 764.832 949.07 765.169 949.142C765.506 949.213 765.856 949.178 766.171 949.04L1011.13 844.36C1011.16 844.348 1011.19 844.329 1011.21 844.304C1011.23 844.279 1011.24 844.25 1011.25 844.219C1011.26 844.187 1011.26 844.155 1011.25 844.124C1011.24 844.093 1011.22 844.064 1011.2 844.04C975.554 806.16 940.594 769.04 906.321 732.68C893.814 719.414 881.994 707.087 870.861 695.7C870.604 695.438 870.278 695.253 869.922 695.168C869.567 695.083 869.195 695.101 868.851 695.22C864.297 696.767 860.037 698.294 856.071 699.8C826.304 711.087 795.377 723.017 763.291 735.59C720.844 752.217 672.387 771.354 617.921 793C617.896 793.01 617.874 793.025 617.857 793.045C617.839 793.065 617.827 793.089 617.821 793.114C617.815 793.14 617.816 793.167 617.822 793.192C617.829 793.218 617.843 793.241 617.861 793.26C636.921 813.314 656.107 833.287 675.421 853.18C679.881 857.78 684.447 862.63 689.121 867.73C707.421 887.704 725.814 907.51 744.301 927.15ZM671.731 853.06C671.817 852.96 671.811 852.864 671.711 852.77C666.911 848.237 662.504 843.86 658.491 839.64C644.291 824.734 630.411 810.187 616.851 796C613.537 792.534 610.004 788.934 606.251 785.2C605.557 784.507 605.201 784.65 605.181 785.63C604.871 799.1 615.351 811.68 625.581 820.03C628.881 822.72 632.241 825.7 635.651 828C647.581 836.04 660.221 843.93 671.451 853.09C671.551 853.17 671.644 853.16 671.731 853.06ZM769.011 950.97C768.051 951.39 768.081 951.717 769.101 951.95C784.321 955.42 799.521 950.78 814.161 947.03C829.867 943.01 846.361 936.747 863.641 928.24C927.141 896.98 978.157 871.287 1016.69 851.16C1016.8 851.103 1016.9 851.019 1016.98 850.917C1017.05 850.814 1017.1 850.695 1017.12 850.569C1017.15 850.443 1017.14 850.313 1017.1 850.19C1017.06 850.067 1017 849.954 1016.91 849.86L1014.23 847.03C1013.72 846.497 1013.13 846.374 1012.46 846.66C939.501 877.76 869.377 907.734 802.091 936.58C791.197 941.254 780.171 946.05 769.011 950.97Z" fill="#0055CC"/>
<path d="M553.59 703.9C553.93 707.03 558.92 711.1 561.37 712.79C564.477 714.93 568.097 716.88 572.23 718.64C573.03 718.98 573.327 719.574 573.12 720.42C573.094 720.527 573.054 720.624 573 720.71C572.6 721.344 572.057 721.517 571.37 721.23C564.98 718.52 550.48 710.99 550.81 703.03C550.94 699.69 555.12 698.99 557.62 699.73C561.014 700.737 564.757 703.007 568.85 706.54C568.996 706.665 569.107 706.826 569.17 707.007C569.233 707.188 569.247 707.382 569.21 707.57C569.09 708.244 568.684 708.677 567.99 708.87C567.796 708.923 567.592 708.928 567.395 708.887C567.199 708.845 567.015 708.757 566.86 708.63C563.31 705.77 560.21 702.47 555.45 702.01C555.197 701.987 554.943 702.019 554.704 702.106C554.465 702.193 554.249 702.332 554.071 702.513C553.893 702.694 553.757 702.913 553.674 703.153C553.591 703.393 553.562 703.648 553.59 703.9Z" fill="#0055CC"/>
<path d="M147.58 812.68C144.93 814.63 142.41 816.92 141.41 819.95C141.367 820.079 141.289 820.194 141.186 820.281C141.082 820.369 140.956 820.426 140.821 820.446C140.687 820.467 140.55 820.45 140.424 820.398C140.299 820.346 140.19 820.26 140.11 820.15C121.784 794.557 103.074 768.37 83.9804 741.59C81.3071 737.837 79.7871 735.184 79.4204 733.63C75.9904 719.01 94.8104 711.38 103.87 722.26C122.484 744.594 144.65 771.284 170.37 802.33C170.428 802.402 170.465 802.488 170.476 802.579C170.487 802.67 170.472 802.762 170.433 802.844C170.394 802.926 170.333 802.995 170.256 803.042C170.179 803.089 170.091 803.113 170 803.11C162.89 802.97 153.95 808 147.58 812.68ZM90.1379 733.206C90.0685 733.108 89.9806 733.026 89.8793 732.962C89.7779 732.899 89.6651 732.856 89.5473 732.837C89.4294 732.817 89.3088 732.82 89.1924 732.847C89.0759 732.874 88.9659 732.924 88.8686 732.993L88.8361 733.016C88.7388 733.086 88.6562 733.174 88.5928 733.275C88.5295 733.376 88.4868 733.489 88.467 733.607C88.4473 733.725 88.451 733.845 88.4779 733.962C88.5048 734.078 88.5543 734.188 88.6237 734.286L139.203 805.195C139.272 805.292 139.36 805.375 139.462 805.438C139.563 805.502 139.676 805.545 139.794 805.564C139.911 805.584 140.032 805.58 140.148 805.553C140.265 805.527 140.375 805.477 140.472 805.408L140.505 805.384C140.602 805.315 140.685 805.227 140.748 805.126C140.811 805.024 140.854 804.912 140.874 804.794C140.894 804.676 140.89 804.555 140.863 804.439C140.836 804.322 140.787 804.212 140.717 804.115L90.1379 733.206Z" fill="#0055CC"/>
<path d="M507.15 780.751C507.104 780.778 507.065 780.815 507.035 780.86C507.006 780.904 506.987 780.955 506.98 781.009C506.973 781.062 506.979 781.116 506.996 781.166C507.014 781.217 507.042 781.263 507.08 781.301C507.807 782.014 508.48 782.814 509.1 783.701C511.69 787.421 509.44 791.331 505.41 792.261C499.65 793.611 494.12 790.791 491.18 785.291C491.08 785.102 490.932 784.942 490.752 784.826C490.571 784.711 490.364 784.643 490.15 784.631C482.124 784.137 474.517 781.271 467.33 776.031C465.48 774.681 464.05 772.941 462.27 771.521C461.944 771.267 461.584 771.187 461.19 771.281C455.49 772.687 451.184 770.894 448.27 765.901C446.41 762.701 446.83 759.841 449.53 757.321C449.99 756.901 450.82 756.681 451.28 756.271C451.52 756.044 451.607 755.771 451.54 755.451L450.11 748.741C450.024 748.341 449.777 748.141 449.37 748.141C443.75 748.091 439.79 746.691 438.89 740.651C438.35 736.971 438.5 732.641 439.94 729.221C442.23 723.821 452.64 724.891 457.1 724.571C474.68 723.311 492.45 723.231 510.16 722.931C516.24 722.821 519.96 722.501 522.95 727.161C525.27 730.761 528.58 736.011 527.97 740.281C527.66 742.391 525.39 743.281 523.67 743.931C523.574 743.967 523.49 744.031 523.429 744.114C523.369 744.197 523.333 744.296 523.328 744.399C523.323 744.502 523.348 744.605 523.4 744.694C523.451 744.783 523.528 744.855 523.62 744.901C528.547 747.354 531.224 751.157 531.65 756.311C531.83 758.401 532.74 760.421 533.62 762.301C535.34 765.941 530.58 766.561 528.42 766.851C527.914 766.917 527.517 767.164 527.23 767.591C526.68 768.391 526.03 768.981 525 769.051C521.987 769.277 518.9 769.537 515.74 769.831C515.367 769.864 515.097 770.051 514.93 770.391C512.79 774.801 511.48 778.121 507.15 780.751ZM453.1 749.161C456.79 767.841 474.13 782.141 492.91 782.301C497.01 782.334 500.917 781.231 504.63 778.991C517.04 771.521 513.7 754.721 506.91 744.661C506.783 744.47 506.607 744.317 506.399 744.219C506.191 744.12 505.96 744.079 505.73 744.101C491.697 745.441 477.86 746.694 464.22 747.861C460.734 748.161 457.29 748.281 453.89 748.221C453.244 748.214 452.98 748.527 453.1 749.161ZM459.2 768.521C457.3 765.371 454.92 763.421 453.7 759.921C453.22 758.547 452.384 758.277 451.19 759.111C450.237 759.771 449.844 760.927 450.01 762.581C450.03 762.78 450.071 762.978 450.13 763.171C451.384 767.104 454.247 769.157 458.72 769.331C458.816 769.336 458.911 769.315 458.995 769.27C459.08 769.224 459.15 769.157 459.199 769.073C459.249 768.99 459.275 768.895 459.275 768.798C459.275 768.701 459.249 768.605 459.2 768.521ZM494.36 785.141C494.346 785.144 494.333 785.152 494.322 785.161C494.312 785.171 494.303 785.184 494.298 785.197C494.294 785.211 494.292 785.226 494.294 785.241C494.296 785.255 494.302 785.269 494.31 785.281C497.11 788.981 502.3 791.791 506.5 788.561C506.82 788.314 507 787.991 507.04 787.591C507.22 785.777 506.647 784.257 505.32 783.031C505.047 782.777 504.73 782.694 504.37 782.781L494.36 785.141Z" fill="#0055CC"/>
<path d="M831.902 743.366L739.286 783.253C738.759 783.48 738.515 784.092 738.742 784.619L738.972 785.152C739.199 785.679 739.811 785.923 740.338 785.696L832.955 745.809C833.482 745.582 833.726 744.97 833.498 744.442L833.269 743.91C833.042 743.382 832.43 743.139 831.902 743.366Z" fill="#0055CC"/>
<path d="M499.04 748.97L499.171 750.17C499.227 750.683 499.087 751.198 498.779 751.612C498.471 752.025 498.018 752.307 497.51 752.4L495.79 752.72C495.306 752.807 494.807 752.717 494.384 752.465C493.962 752.213 493.644 751.817 493.49 751.35L492.891 749.52C492.781 749.19 492.758 748.837 492.823 748.496C492.889 748.154 493.04 747.835 493.264 747.568C493.487 747.302 493.775 747.097 494.1 746.973C494.425 746.849 494.776 746.81 495.12 746.86L497.3 747.18C497.748 747.244 498.161 747.454 498.476 747.778C498.791 748.102 498.99 748.521 499.04 748.97Z" fill="#0055CC"/>
<path d="M476.33 757.26C478.186 757.267 479.695 755.942 479.701 754.302C479.707 752.662 478.207 751.327 476.351 751.32C474.496 751.314 472.987 752.638 472.981 754.279C472.975 755.919 474.475 757.254 476.33 757.26Z" fill="#0055CC"/>
<path d="M492.461 760.291C492.46 760.315 492.465 760.34 492.475 760.363C492.486 760.385 492.501 760.405 492.521 760.421C492.54 760.436 492.563 760.447 492.587 760.452C492.612 760.457 492.637 760.457 492.661 760.451L498.191 758.951C498.346 758.908 498.508 758.903 498.666 758.935C498.823 758.967 498.971 759.035 499.097 759.134C499.223 759.233 499.325 759.36 499.393 759.506C499.461 759.651 499.495 759.81 499.491 759.971C499.404 763.464 497.994 766.447 495.261 768.921C492.591 771.341 489.121 771.341 487.781 767.311C487.181 765.511 487.857 763.771 489.811 762.091C490.102 761.831 490.296 761.482 490.361 761.101C490.541 760.047 490.468 758.987 490.141 757.921C490.069 757.686 489.926 757.48 489.731 757.331C488.811 756.624 488.411 755.624 488.531 754.331C488.591 753.657 488.957 753.371 489.631 753.471C490.631 753.611 491.491 754.004 492.211 754.651C492.464 754.877 492.584 755.161 492.571 755.501L492.461 760.291ZM495.661 762.831C495.914 762.157 495.734 762.004 495.121 762.371L490.361 765.211C490.206 765.307 490.092 765.46 490.041 765.641C489.868 766.267 489.927 766.714 490.221 766.981C490.881 767.574 491.581 767.624 492.321 767.131C493.861 766.111 494.974 764.677 495.661 762.831Z" fill="#0055CC"/>
<path d="M842.311 761.686L755.125 799.415C754.542 799.668 754.274 800.345 754.526 800.927L754.677 801.276C754.929 801.859 755.606 802.127 756.189 801.875L843.376 764.146C843.959 763.894 844.227 763.217 843.975 762.634L843.824 762.285C843.571 761.702 842.894 761.434 842.311 761.686Z" fill="#0055CC"/>
<path d="M860.456 777.832L768.505 817.242C767.846 817.525 767.54 818.289 767.823 818.949L767.838 818.986C768.121 819.645 768.886 819.951 769.545 819.668L861.496 780.258C862.156 779.976 862.461 779.211 862.178 778.551L862.163 778.515C861.88 777.855 861.116 777.549 860.456 777.832Z" fill="#0055CC"/>
<path d="M477.461 825.221C505.621 815.321 533.091 803.681 561.101 792.151C561.234 792.097 561.371 792.057 561.511 792.031C562.791 791.817 563.581 791.991 563.881 792.551C564.221 793.184 564.058 793.641 563.391 793.921C534.391 806.074 506.154 817.367 478.681 827.801C478.496 827.871 478.297 827.899 478.099 827.882C477.901 827.865 477.71 827.803 477.539 827.701C477.368 827.599 477.222 827.46 477.111 827.294C477.001 827.128 476.929 826.938 476.901 826.741L476.831 826.261C476.8 826.041 476.845 825.818 476.96 825.628C477.075 825.439 477.252 825.295 477.461 825.221Z" fill="#0055CC"/>
<path d="M720.791 821.87L683.081 837.63C682.818 837.741 682.528 837.768 682.249 837.709C681.97 837.65 681.716 837.508 681.521 837.3L658.501 812.6C658.348 812.436 658.237 812.236 658.178 812.02C658.118 811.803 658.112 811.575 658.159 811.356C658.206 811.136 658.305 810.931 658.448 810.758C658.591 810.584 658.774 810.448 658.981 810.36L695.391 794.88C695.648 794.771 695.932 794.741 696.207 794.794C696.481 794.848 696.733 794.982 696.931 795.18L721.241 819.59C721.403 819.753 721.523 819.953 721.589 820.173C721.656 820.392 721.668 820.625 721.623 820.85C721.579 821.075 721.48 821.286 721.334 821.464C721.189 821.642 721.003 821.782 720.791 821.87ZM717.621 820.21C717.67 820.191 717.713 820.16 717.746 820.119C717.78 820.079 717.804 820.031 717.814 819.98C717.825 819.928 717.823 819.875 717.809 819.825C717.794 819.774 717.767 819.728 717.731 819.69L695.911 797.76C695.865 797.717 695.807 797.688 695.745 797.677C695.683 797.667 695.619 797.675 695.561 797.7L661.961 812.02C661.915 812.042 661.874 812.073 661.843 812.113C661.811 812.153 661.79 812.2 661.78 812.25C661.77 812.3 661.773 812.351 661.787 812.4C661.801 812.449 661.826 812.493 661.861 812.53L682.741 834.66C682.786 834.705 682.843 834.736 682.905 834.749C682.967 834.761 683.032 834.755 683.091 834.73L717.621 820.21Z" fill="#0055CC"/>
<path d="M883.596 798.883L791.729 838.637C791.176 838.877 790.922 839.518 791.161 840.071L791.352 840.511C791.591 841.064 792.233 841.318 792.785 841.079L884.653 801.324C885.205 801.085 885.459 800.443 885.22 799.891L885.029 799.45C884.79 798.898 884.149 798.644 883.596 798.883Z" fill="#0055CC"/>
<path d="M567.221 800.071C567.423 799.986 567.645 799.961 567.861 800.001C568.648 800.147 569.064 800.444 569.111 800.891C569.211 801.771 568.854 802.377 568.041 802.711C553.461 808.724 538.951 814.734 524.511 820.741C512.111 825.901 498.901 831.027 484.881 836.121C484.128 836.394 483.494 836.221 482.981 835.601C482.841 835.434 482.741 835.244 482.681 835.031C482.624 834.816 482.65 834.588 482.751 834.392C482.853 834.195 483.024 834.045 483.231 833.971C493.451 830.317 504.151 826.207 515.331 821.641C533.404 814.261 550.701 807.071 567.221 800.071Z" fill="#0055CC"/>
<path d="M342.801 1024H339.511L172.591 808.061C172.364 807.774 172.067 807.647 171.701 807.681C165.521 808.271 159.161 811.521 153.561 814.861C149.994 816.987 147.271 819.547 145.391 822.541C145.197 822.848 145.103 823.207 145.121 823.568C145.138 823.93 145.268 824.276 145.491 824.561L299.601 1024H296.311C245.151 957.947 193.961 891.697 142.741 825.251C141.967 824.244 141.887 823.214 142.501 822.16C148.061 812.59 161.901 806.79 172.121 804.66C173.251 804.42 173.881 805.221 174.491 806.011C237.457 886.824 293.561 959.487 342.801 1024Z" fill="#0055CC"/>
<path d="M689.798 807.329L689.572 807.201C688.881 806.808 688.002 807.05 687.609 807.741L680.822 819.688C680.429 820.38 680.672 821.259 681.363 821.652L681.589 821.78C682.281 822.173 683.16 821.931 683.552 821.239L690.339 809.292C690.732 808.601 690.49 807.722 689.798 807.329Z" fill="#0055CC"/>
<path d="M894.546 816.91L807.334 854.831C806.766 855.077 806.507 855.737 806.753 856.304L806.921 856.69C807.167 857.257 807.827 857.517 808.394 857.27L895.607 819.349C896.174 819.102 896.434 818.443 896.187 817.875L896.02 817.49C895.773 816.923 895.113 816.663 894.546 816.91Z" fill="#0055CC"/>
<path d="M691.182 821.858L680.589 826.486C679.871 826.8 679.543 827.637 679.857 828.356L679.889 828.429C680.203 829.148 681.04 829.476 681.758 829.162L692.351 824.534C693.07 824.22 693.398 823.383 693.084 822.664L693.052 822.591C692.738 821.872 691.901 821.544 691.182 821.858Z" fill="#0055CC"/>
<path d="M590.129 827.708L555.361 841.544C554.745 841.789 554.445 842.486 554.69 843.102L554.793 843.362C555.038 843.978 555.736 844.279 556.352 844.034L591.12 830.198C591.736 829.953 592.036 829.255 591.791 828.639L591.688 828.379C591.443 827.763 590.745 827.463 590.129 827.708Z" fill="#0055CC"/>
<path d="M912.294 832.84L819.843 872.656C819.199 872.933 818.902 873.68 819.179 874.325L819.219 874.416C819.496 875.061 820.243 875.358 820.887 875.081L913.338 835.265C913.982 834.988 914.28 834.24 914.002 833.596L913.963 833.504C913.685 832.86 912.938 832.563 912.294 832.84Z" fill="#0055CC"/>
<path d="M559.401 890.58L544.301 874.09C544.181 873.962 544.024 873.874 543.852 873.838C543.68 873.802 543.502 873.82 543.341 873.89C541.841 874.544 540.301 875.167 538.721 875.76C538.329 875.908 537.906 875.953 537.492 875.891C537.077 875.83 536.684 875.665 536.351 875.41C536.217 875.31 536.107 875.187 536.021 875.04C535.607 874.307 535.797 873.804 536.591 873.53L541.751 871.74C541.824 871.716 541.89 871.673 541.941 871.615C541.993 871.558 542.029 871.489 542.046 871.413C542.064 871.338 542.061 871.259 542.039 871.185C542.017 871.111 541.976 871.044 541.921 870.99C537.021 866.21 532.314 860.967 527.801 855.26C527.661 855.085 527.462 854.967 527.242 854.926C527.021 854.886 526.793 854.926 526.601 855.04C524.814 856.114 522.984 856.914 521.111 857.44C520.431 857.634 519.804 857.52 519.231 857.1C519.037 856.954 518.897 856.764 518.811 856.53C518.544 855.757 518.797 855.244 519.571 854.99L524.841 853.27C524.929 853.241 525.009 853.192 525.076 853.127C525.142 853.061 525.193 852.982 525.224 852.894C525.255 852.806 525.265 852.712 525.254 852.62C525.243 852.527 525.211 852.439 525.161 852.36C523.634 850.054 522.237 847.627 520.971 845.08C520.897 844.941 520.844 844.793 520.811 844.64C520.424 843.094 520.554 842.167 521.201 841.86C521.907 841.527 522.414 841.72 522.721 842.44C524.014 845.494 525.714 848.37 527.821 851.07C527.961 851.251 528.154 851.382 528.373 851.447C528.592 851.511 528.825 851.506 529.041 851.43L534.641 849.45C535.019 849.315 535.433 849.317 535.811 849.456C536.189 849.594 536.507 849.861 536.711 850.21L537.021 850.72C537.454 851.467 537.251 851.94 536.411 852.14L530.851 853.49C530.722 853.521 530.603 853.584 530.506 853.674C530.41 853.764 530.338 853.878 530.298 854.004C530.259 854.13 530.253 854.265 530.282 854.394C530.31 854.523 530.372 854.642 530.461 854.74L543.811 869.52C544.059 869.796 544.378 869.999 544.734 870.108C545.089 870.217 545.468 870.228 545.831 870.14L552.281 868.54C553.114 868.334 553.827 868.54 554.421 869.16C554.621 869.367 554.741 869.61 554.781 869.89C554.825 870.159 554.763 870.434 554.608 870.658C554.453 870.882 554.217 871.037 553.951 871.09L546.991 872.5C546.93 872.512 546.873 872.54 546.826 872.582C546.78 872.623 546.745 872.676 546.726 872.735C546.707 872.794 546.703 872.857 546.716 872.918C546.729 872.978 546.759 873.035 546.801 873.08L561.821 889.25C562.294 889.757 562.861 889.904 563.521 889.69L571.001 887.28C571.329 887.175 571.685 887.198 571.995 887.344C572.306 887.491 572.547 887.751 572.671 888.07L572.881 888.59C572.928 888.711 572.949 888.84 572.944 888.969C572.939 889.098 572.907 889.225 572.851 889.341C572.795 889.458 572.715 889.561 572.617 889.645C572.519 889.729 572.404 889.792 572.281 889.83L565.091 892.08C564.624 892.227 564.567 892.47 564.921 892.81L569.581 897.3C570.167 897.867 570.121 898.374 569.441 898.82L569.091 899.05C568.411 899.497 567.794 899.42 567.241 898.82L562.681 893.88C562.472 893.657 562.204 893.498 561.91 893.423C561.615 893.349 561.306 893.362 561.021 893.46L552.501 896.43C551.694 896.704 551.194 896.43 551.001 895.61L550.881 895.12C550.727 894.46 550.971 894.02 551.611 893.8L559.241 891.18C559.601 891.06 559.654 890.86 559.401 890.58Z" fill="#0055CC"/>
<path d="M608.679 846.823L570.064 862.189C569.422 862.444 569.109 863.171 569.365 863.813L569.438 863.999C569.694 864.64 570.421 864.953 571.062 864.698L609.677 849.331C610.318 849.076 610.631 848.349 610.376 847.708L610.302 847.522C610.047 846.88 609.32 846.567 608.679 846.823Z" fill="#0055CC"/>
<path d="M751.62 852.3L777.24 882.08C777.385 882.248 777.488 882.449 777.541 882.664C777.593 882.88 777.593 883.105 777.542 883.321C777.49 883.537 777.387 883.737 777.243 883.906C777.098 884.074 776.916 884.206 776.71 884.29L742.24 898.59C741.977 898.699 741.686 898.725 741.407 898.664C741.128 898.604 740.875 898.459 740.68 898.25L713.68 869.39C713.527 869.226 713.416 869.028 713.356 868.811C713.296 868.595 713.288 868.368 713.335 868.148C713.381 867.929 713.479 867.723 713.621 867.55C713.763 867.376 713.944 867.239 714.15 867.15L750.01 851.92C750.284 851.804 750.588 851.779 750.878 851.847C751.167 851.915 751.427 852.074 751.62 852.3ZM750.21 854.89C750.166 854.841 750.108 854.807 750.043 854.793C749.979 854.779 749.911 854.785 749.85 854.81L717.18 868.78C717.134 868.801 717.094 868.833 717.062 868.873C717.031 868.913 717.009 868.96 717 869.01C716.99 869.059 716.992 869.111 717.006 869.16C717.02 869.208 717.046 869.253 717.08 869.29L742 895.59C742.044 895.637 742.101 895.67 742.163 895.684C742.226 895.698 742.291 895.693 742.35 895.67L773.87 882.57C773.918 882.551 773.961 882.521 773.994 882.482C774.028 882.443 774.051 882.396 774.063 882.346C774.075 882.296 774.074 882.244 774.062 882.194C774.049 882.145 774.025 882.099 773.99 882.06L750.21 854.89Z" fill="#0055CC"/>
<path d="M625.088 867.598L585.918 883.027C585.25 883.291 584.921 884.045 585.184 884.713L585.206 884.769C585.47 885.437 586.224 885.766 586.892 885.502L626.063 870.073C626.731 869.81 627.059 869.055 626.796 868.387L626.774 868.331C626.511 867.663 625.756 867.335 625.088 867.598Z" fill="#0055CC"/>
<path d="M731.791 871.783C733.452 870.816 734.404 869.356 733.918 868.52C733.432 867.685 731.691 867.792 730.03 868.758C728.369 869.725 727.417 871.186 727.903 872.021C728.389 872.857 730.13 872.75 731.791 871.783Z" fill="#0055CC"/>
<path d="M751.79 870.69L732.94 879.48C732.831 879.531 732.711 879.558 732.59 879.558C732.469 879.558 732.35 879.531 732.24 879.48L730.6 878.7C730.459 878.632 730.34 878.525 730.256 878.392C730.173 878.258 730.13 878.104 730.131 877.947C730.132 877.79 730.178 877.636 730.262 877.504C730.347 877.372 730.468 877.266 730.61 877.2L749.47 868.56C749.572 868.513 749.682 868.487 749.793 868.484C749.905 868.48 750.016 868.499 750.12 868.54L751.73 869.16C751.884 869.217 752.017 869.319 752.113 869.451C752.208 869.584 752.263 869.742 752.269 869.905C752.276 870.069 752.234 870.23 752.149 870.37C752.063 870.51 751.939 870.621 751.79 870.69Z" fill="#0055CC"/>
<path d="M759.81 878.47C753.304 879.977 747.124 882.327 741.27 885.52C740.377 886.007 739.46 886.047 738.52 885.64C738.347 885.56 738.204 885.44 738.09 885.28C737.584 884.567 737.72 884.007 738.5 883.6C744.354 880.58 750.22 878.147 756.1 876.3C757.2 875.954 758.26 875.977 759.28 876.37C759.867 876.597 760.21 877.05 760.31 877.73C760.37 878.13 760.204 878.377 759.81 878.47Z" fill="#0055CC"/>
<path d="M624.44 914.281C626.213 913.641 627.997 912.888 629.79 912.021C629.953 911.941 630.13 911.896 630.312 911.888C630.493 911.88 630.675 911.91 630.845 911.976C631.016 912.041 631.172 912.141 631.303 912.269C631.435 912.398 631.539 912.551 631.61 912.721L631.82 913.231C631.872 913.359 631.899 913.496 631.898 913.634C631.897 913.772 631.869 913.909 631.815 914.036C631.761 914.164 631.682 914.279 631.584 914.376C631.485 914.473 631.368 914.549 631.24 914.601L624.05 917.441C623.617 917.614 623.187 917.594 622.76 917.381C619.44 915.701 617.13 911.781 615.09 908.751C614.94 908.532 614.88 908.264 614.921 908C614.961 907.737 615.101 907.498 615.31 907.331C615.477 907.198 615.657 907.101 615.85 907.041C616.697 906.774 617.36 907.014 617.84 907.761C618.914 909.434 620.014 911.081 621.14 912.701C621.91 913.801 622.96 914.811 624.44 914.281Z" fill="#0055CC"/>
<path d="M691.13 1024H686.85C686.404 1023.71 686.307 1023.51 686.56 1023.4C707.814 1013.95 729.094 1004.47 750.4 994.97C750.78 994.797 750.83 994.56 750.55 994.26L729.03 971.2C728.757 970.907 728.437 970.84 728.07 971L658.84 1000.94C658.809 1000.95 658.782 1000.98 658.761 1001C658.739 1001.03 658.725 1001.06 658.718 1001.09C658.711 1001.12 658.712 1001.16 658.721 1001.19C658.73 1001.22 658.747 1001.25 658.77 1001.27L680.19 1024H677.13L656.98 1002.91C656.734 1002.65 656.44 1002.57 656.1 1002.68C655.874 1002.75 655.674 1002.86 655.5 1003.01C655.333 1003.16 655.137 1003.27 654.924 1003.34C654.711 1003.41 654.486 1003.43 654.263 1003.41C654.041 1003.38 653.825 1003.31 653.63 1003.2C653.434 1003.09 653.264 1002.94 653.13 1002.76C651.177 1000.12 649.287 997.377 647.46 994.53C647.147 994.043 646.917 993.53 646.77 992.99C646.69 992.694 646.718 992.379 646.848 992.102C646.978 991.825 647.202 991.605 647.48 991.48L655.6 987.8C655.974 987.633 656.014 987.403 655.72 987.11C642.034 973.297 627.477 958.493 612.05 942.7C611.31 941.94 610.734 941.253 610.32 940.64C610.234 940.514 610.176 940.371 610.149 940.221C610.123 940.071 610.128 939.917 610.166 939.769C610.204 939.622 610.273 939.484 610.369 939.365C610.464 939.246 610.584 939.149 610.72 939.08C616.92 935.973 622.77 933.41 628.27 931.39C628.416 931.336 628.539 931.232 628.615 931.097C628.692 930.961 628.719 930.803 628.69 930.65C627.96 926.38 627 921.52 632.84 920.38C635.61 919.84 637.88 923.53 638.54 925.7C638.603 925.901 638.741 926.069 638.927 926.168C639.112 926.267 639.329 926.289 639.53 926.23L644.71 924.75C645.444 924.537 645.74 924.053 645.6 923.3C645 920.03 644.24 916.15 646.54 913.49C648.75 910.94 652.69 911.89 653.98 914.85C654.45 915.94 654.42 917.13 654.28 918.28C654.18 919.14 654.544 919.45 655.37 919.21C659.517 917.99 663.277 916.5 666.65 914.74C666.967 914.572 667.332 914.517 667.683 914.585C668.034 914.652 668.351 914.837 668.58 915.11L709.85 963.9C709.967 964.04 710.124 964.138 710.301 964.181C710.477 964.224 710.663 964.21 710.83 964.14L726.26 957.82C726.491 957.727 726.746 957.706 726.989 957.762C727.232 957.817 727.452 957.946 727.62 958.13L735 966.31C735.171 966.497 735.268 966.74 735.276 966.993C735.283 967.246 735.2 967.493 735.04 967.69C734.34 968.563 733.407 969.267 732.24 969.8C732.169 969.833 732.107 969.882 732.058 969.944C732.009 970.005 731.976 970.078 731.96 970.155C731.945 970.231 731.947 970.311 731.968 970.387C731.989 970.462 732.028 970.532 732.08 970.59C739.254 978.45 746.367 986.097 753.42 993.53C753.86 993.983 754.204 994.507 754.45 995.1C754.542 995.325 754.543 995.576 754.454 995.8C754.364 996.025 754.19 996.204 753.97 996.3C737.09 1003.72 719.647 1011.53 701.64 1019.74C698.167 1021.33 694.664 1022.75 691.13 1024ZM651.74 920.31C651.807 919.09 651.79 917.83 651.69 916.53C651.66 916.136 651.479 915.769 651.187 915.504C650.895 915.24 650.513 915.099 650.12 915.11L649.35 915.12C648.257 915.147 647.714 915.707 647.72 916.8C647.727 920.153 648.34 923.65 649.56 927.29C649.632 927.526 649.767 927.74 649.95 927.91C650.91 928.83 651.76 928.857 652.5 927.99C652.621 927.848 652.706 927.678 652.747 927.493C652.789 927.309 652.787 927.116 652.74 926.93C652.19 924.74 651.61 922.61 651.74 920.31ZM653.14 977.72C653.053 977.617 652.99 977.495 652.957 977.364C652.924 977.233 652.922 977.096 652.95 976.965C652.978 976.833 653.036 976.71 653.119 976.605C653.202 976.5 653.309 976.416 653.43 976.36C667.077 969.96 681.054 963.44 695.36 956.8C696.41 956.31 697.49 955.91 698.58 955.57C699.074 955.417 699.154 955.143 698.82 954.75L677.53 929.69C677.415 929.553 677.254 929.463 677.077 929.437C676.9 929.412 676.72 929.452 676.57 929.55C675.597 930.21 674.577 930.75 673.51 931.17C657.71 937.477 642.42 943.993 627.64 950.72C627.307 950.871 626.935 950.913 626.58 950.841C626.224 950.769 625.902 950.587 625.66 950.32C625.58 950.227 625.54 950.117 625.54 949.99C625.547 949.037 625.93 948.393 626.69 948.06C643.824 940.44 659.994 933.633 675.2 927.64C675.268 927.613 675.328 927.57 675.375 927.514C675.422 927.459 675.455 927.392 675.47 927.32C675.484 927.249 675.481 927.175 675.46 927.105C675.44 927.035 675.402 926.972 675.35 926.92C672.57 924.153 670.137 921.327 668.05 918.44C667.862 918.181 667.593 917.994 667.286 917.908C666.978 917.823 666.652 917.845 666.36 917.97L655.05 922.75C654.912 922.807 654.801 922.915 654.738 923.052C654.675 923.189 654.665 923.345 654.71 923.49C655.21 925.157 655.4 926.83 655.28 928.51C655.254 928.923 655.08 929.267 654.76 929.54C653.187 930.887 651.374 931.43 649.32 931.17C648.947 931.123 648.634 930.967 648.38 930.7C647.507 929.773 646.844 928.77 646.39 927.69C645.97 926.703 645.294 926.477 644.36 927.01C642.647 927.977 640.844 928.663 638.95 929.07C637.85 929.303 637.397 929.973 637.59 931.08C637.91 932.86 638.08 934.51 638.1 936.03C638.14 938.74 635.21 939.59 633.02 939.12C630.89 938.67 629.69 935.99 629.16 934.11C629.146 934.058 629.121 934.01 629.087 933.969C629.052 933.928 629.009 933.895 628.961 933.872C628.912 933.849 628.859 933.837 628.806 933.837C628.752 933.837 628.699 933.848 628.65 933.87L614.14 940.4C614.095 940.421 614.055 940.452 614.025 940.492C613.994 940.531 613.974 940.578 613.965 940.627C613.956 940.676 613.959 940.726 613.974 940.774C613.989 940.821 614.015 940.865 614.05 940.9L657.77 985.7C658.024 985.957 658.349 986.131 658.704 986.201C659.058 986.27 659.427 986.232 659.76 986.09L707.1 965.58C707.18 965.545 707.25 965.492 707.305 965.425C707.36 965.358 707.399 965.278 707.417 965.194C707.436 965.109 707.434 965.021 707.412 964.937C707.39 964.852 707.348 964.775 707.29 964.71L701 957.77C700.91 957.671 700.789 957.603 700.656 957.576C700.524 957.549 700.385 957.564 700.26 957.62C684.767 964.527 670.16 971.327 656.44 978.02C655.989 978.241 655.491 978.355 654.985 978.353C654.479 978.352 653.978 978.234 653.52 978.01C653.374 977.937 653.247 977.84 653.14 977.72ZM635.07 928.03C635.557 926.343 635.237 924.823 634.11 923.47C633.991 923.329 633.844 923.214 633.677 923.133C633.511 923.053 633.329 923.007 633.144 923.001C632.959 922.994 632.774 923.026 632.601 923.095C632.428 923.164 632.271 923.268 632.14 923.4C629.5 926.1 631.83 932.78 633.06 935.63C633.191 935.932 633.405 936.191 633.676 936.375C633.947 936.559 634.264 936.662 634.59 936.67L635.01 936.69C635.704 936.71 635.934 936.393 635.7 935.74C634.8 933.28 634.33 930.6 635.07 928.03ZM653.81 999.21C654.337 999.923 654.977 1000.05 655.73 999.58C656.384 999.173 657.087 998.807 657.84 998.48C681.94 987.933 703.847 978.46 723.56 970.06C725.867 969.08 728.314 968.133 730.9 967.22C731.58 966.973 731.66 966.6 731.14 966.1C729.694 964.707 728.434 963.22 727.36 961.64C727.163 961.348 726.871 961.133 726.533 961.029C726.194 960.925 725.83 960.94 725.5 961.07C700.38 971.12 675.69 982.14 650.83 992.96C650.024 993.313 649.88 993.847 650.4 994.56L653.81 999.21Z" fill="#0055CC"/>
<path d="M609.57 921.74L605.77 915.38C605.357 914.674 605.457 914.054 606.07 913.52C606.31 913.307 606.63 913.204 607.03 913.21C607.202 913.21 607.371 913.254 607.521 913.338C607.672 913.422 607.799 913.543 607.89 913.69C609.43 916.18 612.33 919.98 612.91 922.83C612.99 923.21 612.883 923.53 612.59 923.79C610.38 925.7 605.97 926.92 603.27 927.95C602.557 928.217 602.01 928.024 601.63 927.37C601.443 927.05 601.417 926.67 601.55 926.23C601.597 926.068 601.681 925.919 601.795 925.792C601.909 925.666 602.051 925.566 602.21 925.5L609.27 922.64C609.353 922.606 609.427 922.554 609.489 922.488C609.55 922.422 609.596 922.344 609.624 922.258C609.653 922.173 609.663 922.083 609.653 921.993C609.644 921.904 609.616 921.818 609.57 921.74Z" fill="#0055CC"/>
<path d="M1024 942.9V945.51L821.341 1024H816.541C816.254 1023.85 816.074 1023.71 816.001 1023.59C815.914 1023.46 816.004 1023.34 816.271 1023.24C885.491 996.4 954.611 969.27 1024 942.9Z" fill="#0055CC"/>
<path d="M659.659 946.186L641.408 953.708C640.709 953.997 640.375 954.798 640.664 955.497L640.694 955.571C640.982 956.271 641.783 956.604 642.483 956.316L660.733 948.793C661.433 948.505 661.766 947.704 661.478 947.005L661.447 946.931C661.159 946.231 660.358 945.898 659.659 946.186Z" fill="#0055CC"/>
<path d="M663.358 952.47L646.137 959.709C645.47 959.99 645.157 960.757 645.437 961.424L645.507 961.59C645.787 962.257 646.555 962.571 647.222 962.29L664.443 955.052C665.11 954.771 665.423 954.003 665.143 953.336L665.073 953.17C664.793 952.503 664.025 952.19 663.358 952.47Z" fill="#0055CC"/>
<path d="M1024 963.83V966.82L879.04 1024H873C873.973 1023.17 875.727 1022.26 878.26 1021.27C926.82 1002.14 975.4 982.997 1024 963.83Z" fill="#0055CC"/>
<path d="M1024 972.95V1023.55C1023.77 1023.6 1023.62 1023.75 1023.55 1024H897L896.33 1023.66C896.313 1023.65 896.298 1023.64 896.288 1023.62C896.278 1023.61 896.273 1023.59 896.275 1023.57C896.276 1023.55 896.283 1023.53 896.294 1023.52C896.306 1023.51 896.322 1023.5 896.34 1023.49L1024 972.95Z" fill="#0055CC"/>
<path d="M710.527 995.502C710.371 996.183 710.054 996.82 709.593 997.377C709.133 997.934 708.538 998.399 707.843 998.747C707.148 999.095 706.366 999.318 705.543 999.403C704.719 999.489 703.87 999.435 703.043 999.246C701.373 998.864 699.896 997.95 698.938 996.707C697.98 995.464 697.618 993.993 697.933 992.618C698.089 991.937 698.407 991.3 698.867 990.743C699.328 990.187 699.922 989.721 700.618 989.374C701.313 989.026 702.094 988.803 702.918 988.717C703.742 988.632 704.591 988.685 705.418 988.875C707.088 989.257 708.565 990.17 709.523 991.413C710.481 992.656 710.842 994.127 710.527 995.502ZM707.804 994.656C707.864 994.319 707.833 993.968 707.712 993.625C707.59 993.281 707.381 992.951 707.096 992.653C706.81 992.356 706.455 992.096 706.049 991.89C705.644 991.684 705.197 991.535 704.733 991.451C704.268 991.368 703.797 991.352 703.345 991.404C702.893 991.456 702.47 991.575 702.099 991.754C701.728 991.934 701.416 992.17 701.183 992.45C700.949 992.73 700.798 993.047 700.737 993.385C700.676 993.722 700.708 994.072 700.829 994.416C700.951 994.76 701.16 995.09 701.445 995.387C701.73 995.685 702.086 995.944 702.491 996.15C702.897 996.356 703.344 996.506 703.808 996.589C704.272 996.673 704.744 996.689 705.195 996.637C705.647 996.585 706.071 996.466 706.442 996.286C706.813 996.107 707.124 995.87 707.358 995.591C707.591 995.311 707.743 994.993 707.804 994.656Z" fill="#0055CC"/>
</g>
<defs>
<clipPath id="clip0_93_3935">
<rect width="1024" height="1024" fill="none"/>
</clipPath>
</defs>
</svg>
