<svg width="1024" height="904" viewBox="0 61 1024 904" fill="none" xmlns="http://www.w3.org/2000/svg">
<g clip-path="url(#clip0_93_2957)">
<rect width="1024" height="1024" fill="none"/>
<path d="M275.43 71.3703C276.97 70.9103 278.23 72.2103 277.76 73.7503C276.4 76.1203 273.16 72.8703 275.43 71.3703Z" fill="#0055CC" style="cursor: pointer;"/>
<path d="M836.7 74.6206C838.01 71.8706 841.3 75.8305 839.01 76.8905C837.6 78.5105 836.11 75.8606 836.7 74.6206Z" fill="#0055CC" style="cursor: pointer;"/>
<path d="M687.9 78.5704C686.05 77.8304 685.14 74.3904 688.05 74.6804C690.36 75.4904 689.04 77.4404 687.9 78.5704Z" fill="#0055CC" style="cursor: pointer;"/>
<path d="M927.05 83.1099C928.78 82.4899 930.56 84.8199 928.94 86.0399C927.27 87.5999 925.27 84.2699 927.05 83.1099Z" fill="#0055CC" style="cursor: pointer;"/>
<path d="M592.51 93.5704C594.62 93.0504 595.23 97.0204 593.02 96.8704C591.09 97.4904 590.3 93.4704 592.51 93.5704Z" fill="#0055CC" style="cursor: pointer;"/>
<path d="M503.64 110.561C504.97 108.811 507.75 111.531 506.04 112.951C504.78 114.911 502.29 111.871 503.64 110.561Z" fill="#0055CC" style="cursor: pointer;"/>
<path d="M941.86 117.85L943.06 117.58C943.39 117.81 944.04 118.28 944.37 118.51C944.9 123.41 944.62 128.36 944.83 133.28C948.84 133.43 952.85 133.53 956.85 133.95C956.85 134.69 956.85 136.16 956.85 136.9C952.83 136.92 948.81 136.69 944.8 136.56C944.71 140.91 944.94 145.3 944.44 149.63C944.56 151.24 941.9 151.34 941.7 149.89C941.05 145.53 941.81 141.1 941.43 136.71C937.25 136.77 933.07 136.95 928.9 136.84C928.83 136.08 928.71 134.55 928.64 133.79C932.81 133.38 937.02 133.64 941.19 133.23C942.3 128.31 940.67 122.88 941.86 117.85Z" fill="#0055CC" style="cursor: pointer;"/>
<path d="M388.93 152.92C387.98 151.82 386.79 149.33 389.13 149.08C391.82 149.14 390.68 152.22 388.93 152.92Z" fill="#0055CC" style="cursor: pointer;"/>
<path d="M368.21 150.181C370.09 148.641 372.35 151.041 370.69 152.811C368.75 153.381 367.82 151.961 368.21 150.181Z" fill="#0055CC" style="cursor: pointer;"/>
<path d="M629.1 157.03C631.61 156.44 632.18 159.84 630.02 160.68C628.12 160.57 627.69 158.09 629.1 157.03Z" fill="#0055CC" style="cursor: pointer;"/>
<path d="M107.51 158.44C109.88 157.2 110.98 160.99 108.83 162.02C107.44 161.39 105.99 159.79 107.51 158.44Z" fill="#0055CC" style="cursor: pointer;"/>
<path d="M323.67 169.44C325.88 168.85 326.58 171.7 325.01 172.91C323.07 173.05 321.45 170.52 323.67 169.44Z" fill="#0055CC" style="cursor: pointer;"/>
<path d="M760.62 171.671C761.73 169.121 765.15 172.831 762.96 173.851C761.7 175.471 759.69 172.971 760.62 171.671Z" fill="#0055CC" style="cursor: pointer;"/>
<path d="M442.26 186.06C443.12 184.32 444.81 185.87 445.58 186.84C445.31 187.31 444.77 188.26 444.5 188.73C443.16 188.87 440.84 187.47 442.26 186.06Z" fill="#0055CC" style="cursor: pointer;"/>
<path d="M244.2 194.4C245.93 192.82 248.82 195.45 246.76 196.91C245.28 198.36 243.53 195.97 244.2 194.4Z" fill="#0055CC" style="cursor: pointer;"/>
<path d="M225.63 195.58C226.99 193.72 229.98 196.46 228 197.89C226.84 199.78 224.06 196.92 225.63 195.58Z" fill="#0055CC" style="cursor: pointer;"/>
<path d="M599.42 204.341C600.92 203.181 603.68 205.641 601.75 206.771C600.36 208.681 598.51 205.791 599.42 204.341Z" fill="#0055CC" style="cursor: pointer;"/>
<path d="M873 238.31C874.2 238.29 875.41 238.29 876.65 238.31C876.01 239.43 876.06 241.49 874.47 241.57C872.94 241.14 873.17 239.55 873 238.31Z" fill="#0055CC" style="cursor: pointer;"/>
<path d="M818.62 244.591C821.03 243.721 821.96 247.181 819.53 247.811C818.13 247.301 816.87 245.671 818.62 244.591Z" fill="#0055CC" style="cursor: pointer;"/>
<path d="M712.59 250.611C713.85 248.011 717.3 251.801 714.97 252.911C713.53 254.481 711.66 252.051 712.59 250.611Z" fill="#0055CC" style="cursor: pointer;"/>
<path d="M315.38 252.32C317.77 252.51 317.24 255.01 315.78 256.16C314.35 255.45 312.96 252.63 315.38 252.32Z" fill="#0055CC" style="cursor: pointer;"/>
<path d="M414.21 252.17C416.14 251.54 417.59 254.61 415.59 255.47C413.77 256.63 412.21 253.08 414.21 252.17Z" fill="#0055CC" style="cursor: pointer;"/>
<path d="M142.54 266.65C144.51 266.06 145.69 268.95 143.87 269.84C141.89 270.7 140.48 267.45 142.54 266.65Z" fill="#0055CC" style="cursor: pointer;"/>
<path d="M87.83 274.23C86.11 272.89 87.37 270.78 89.01 270.13C89.76 271.07 90.51 272.01 91.26 272.96C90.42 273.81 89.05 275.66 87.83 274.23Z" fill="#0055CC" style="cursor: pointer;"/>
<path d="M197.48 296.51C198.94 295.4 201.7 297.83 199.74 299C198.48 300.81 195.71 297.81 197.48 296.51Z" fill="#0055CC" style="cursor: pointer;"/>
<path d="M814.35 299.43C815.56 297.46 818.64 299.27 817.33 301.19C816.08 302.95 813.99 301.08 814.35 299.43Z" fill="#0055CC" style="cursor: pointer;"/>
<path d="M369.16 315.49C402.08 310.73 436.87 323.1 459.39 347.59C475.55 363.7 486.2 387.19 481.7 410.23C488.04 406.65 495.89 410.3 498.75 416.6C513.36 413.67 528.42 414.2 543.02 416.87C564.68 420.8 586.04 427.73 604.92 439.2C615.67 445.71 625.43 454.47 631.23 465.77C632.44 467.97 631.87 470.55 632.18 472.94C648.34 481.03 663.51 493.18 671.06 510C673.59 514.39 670.33 520.51 665.23 520.66C664.76 524.64 660.35 527.17 656.65 525.76C658.37 528.93 654.75 531.46 651.99 531.93C648.98 532.51 646.47 530.51 643.98 529.21C639.36 526.71 635.05 523.73 630.84 520.62C630.96 526.62 627.65 533.58 621.4 535.04C620.17 530.21 619.76 525.12 617.42 520.65C614.84 515.68 611.86 510.9 608.46 506.46C606.44 503.23 602.11 504.71 599.03 503.55C584.43 499.13 570.02 494.06 555.4 489.7C572.05 513.21 587.59 537.47 603.7 561.35C604.92 563.1 606.47 564.64 608.41 565.59C617.76 570.19 628.04 572.29 638.05 574.94C660.37 580.52 682.85 586.4 703.66 596.42C716.52 602.8 729.25 610.82 737.28 623.05C745.48 635.61 752.27 649.02 760.49 661.57C763.82 666.97 767.38 672.25 770.23 677.93C772.04 681.6 774.9 684.82 775.79 688.9C776.46 692.74 774.49 696.26 772.14 699.11C775.13 705.77 779.18 711.92 782.54 718.41C786.78 725.88 790.66 733.55 794.91 741.01C795.88 743.07 798.41 743.04 800.24 743.9C802.22 744.39 802.88 746.54 804.05 747.97C805.15 749.68 807.34 750.06 809.01 751.03C822 757.28 830.05 772.76 826.5 786.95C824.47 796.43 817.36 803.77 809.33 808.7C807.94 806.97 808.61 803.53 805.64 803.72C805.81 805.86 806.04 808 806.29 810.16C804.62 810.66 802.92 811.04 801.24 811.41C800.75 809.61 800.41 807.73 799.39 806.15C796.59 807.25 798.93 810.61 797.77 812.52C791.93 813.81 786.03 814.99 780.06 815.44C779.46 812.89 781.65 807.8 777.45 808.17C777.56 810.7 777.74 813.26 777.42 815.79C775.14 815.17 772.82 814.71 770.5 814.29C770.2 811.34 771.3 806.75 767.04 806.6C767.1 808.84 767.5 811.07 767.96 813.28C763.38 810.61 759.03 807.51 755.45 803.56C749.99 798.21 747.27 790.93 743.52 784.43C733.8 766.85 724.45 749.04 714.3 731.71C710.08 731.91 705.68 730.27 703.48 726.48C697.93 717.24 691.72 708.4 684.84 700.1C678.66 692.88 671.3 686.49 662.57 682.58C655.25 678.8 647.28 676.6 639.38 674.41C622.73 670.04 606.25 665.02 589.73 660.2C600.26 673.67 610.12 687.68 621.32 700.62C626.9 707.07 634 712.08 639.06 718.99C648.11 731.13 654.54 744.91 661.9 758.08C666.77 766.94 671.61 775.83 676.17 784.85C678.44 788.98 676.43 793.82 673.29 796.85C682.14 813.01 690.35 829.54 699.37 845.59C707.16 848.82 714.96 853.03 719.88 860.15C728.3 871.06 728.15 887.63 719.3 898.25C717.98 899.56 717.11 901.73 715.17 902.2C713.31 901.08 711.5 899.85 709.48 899.04C709.52 901.6 711.86 903.01 713.35 904.76C709.01 907.73 704.09 909.82 698.91 910.76C697.14 908.45 695.24 906.2 692.74 904.65C692.11 907.4 695.04 909.19 696.11 911.47C690.35 912.03 684.58 913.03 678.78 912.66C679.92 912 681.05 911.33 682.23 910.73C680.09 907.21 676.88 911.41 674.09 911.19C667.16 908.12 661.38 903.09 655.54 898.38C652.73 896.16 650.38 893.38 648.82 890.16C637.96 868.58 626.37 847.37 615.15 825.97C611.94 825.25 608.26 824.76 606.08 822.02C603.32 818.28 601.58 813.92 599.09 810.01C590.25 795.32 580.93 780.41 567.53 769.41C552.57 757.28 535.49 748.19 518.33 739.61C498.93 729.76 479.26 718.9 465.16 701.88C456.83 707.16 449.19 713.52 440.51 718.23C433.3 722.19 423.95 723.67 416.55 719.4C412.8 717.51 410.84 713.64 408.72 710.24C403.29 701.05 397.4 692.13 392.06 682.89C390.33 683.77 389.88 686.21 388.77 687.78C382.49 699.58 375.25 711.09 365.73 720.56C363.84 722.99 360.8 723.78 358.36 725.38C352.07 738.44 345.18 751.51 335.06 762.07C326.89 770.66 316.88 777.43 306.06 782.23C303.02 783.74 299.09 783.91 296.73 781.12C293.18 781.75 290.06 780.19 288.08 777.31C284.19 778.03 280.36 775.14 280.33 771.13C280.56 762.33 284.47 754.13 288.99 746.75C283.58 746.56 278.61 744.04 274.63 740.5C276.99 740.37 278.96 739.2 280.45 737.41C294.12 723.43 307.12 708.81 320.35 694.41C318.23 688.95 320.7 683.26 321.77 677.85C328 654.97 334.4 632.1 339.3 608.89C312.8 566.32 286.92 523.36 260.15 480.96C254.4 471.88 258.43 459.72 266.34 453.33C274.43 446.85 283.24 441.31 291.84 435.54C289.47 424.56 287.63 413.31 288.56 402.04C288.6 400.38 288.99 398.69 288.61 397.05C286.36 390.76 283.66 384.53 282.56 377.91C282.3 372.2 285.21 366.91 288.09 362.18C294.01 353.33 302.77 346.41 312.74 342.68C314.31 342.07 315.82 341.26 317.06 340.09C331.27 326.65 350.01 318.68 369.16 315.49ZM372.38 319.57C345.68 332.58 326.57 359.61 322.31 388.91C320.58 404.8 322.08 421.4 329.04 435.97C333.3 445.9 340.43 454.16 347.75 461.96C352.58 467.16 357.63 473.42 357.02 480.98C357.16 484.07 355.16 486.49 353.26 488.68C358.15 489.14 363.02 489.97 367.95 489.86C381.74 489.27 395.53 487.64 408.91 484.13C425.33 480.13 440.73 472.26 454 461.84C465.15 452.84 475.35 440.65 476.81 425.9C471.95 433.23 467.29 440.81 461.09 447.13C455.93 452.37 450.15 456.99 443.97 460.95C428.63 470.75 411.21 477.7 393.05 479.71C381.12 481.22 368.67 477.32 359.74 469.27C354.84 464.84 350.46 459.88 345.84 455.17C336.32 445.51 329.48 433.16 326.73 419.86C323.29 402.56 325.03 384.22 332.2 368.07C340.58 347.77 356.93 331.35 376.37 321.45C377.65 320.5 380.83 319.61 379.36 317.48C376.86 317.14 374.59 318.65 372.38 319.57ZM347.72 324.71C328.11 332.22 311.1 346.69 301.15 365.26C291.68 383.81 289.33 405.54 293.09 425.91C296.62 445.85 306.01 464.57 319.07 479.96C325.15 487.45 335.41 492.03 345 489.54C349.57 488.17 354.62 484.29 353.96 478.98C353.09 471.7 347.26 466.55 342.74 461.3C332.11 450.23 324.01 436.51 320.8 421.42C316.22 400.97 318.38 378.85 328.03 360.14C336.02 343.71 348.76 329.64 364.28 320.03C358.52 320.6 353.05 322.56 347.72 324.71ZM402.43 325.09C404.62 328.16 408.58 328.67 411.88 329.91C416.99 331.39 421.86 333.67 427.04 334.89C429.25 335.16 430.9 331.68 429.02 330.3C425.59 327.85 421.42 326.84 417.49 325.5C413.68 324.34 409.98 322.77 406.04 322.11C404.03 321.44 403.39 323.95 402.43 325.09ZM412.28 336.44C408.86 337.97 407.24 342.44 409.24 345.73C411.57 350.53 419.67 349.96 421.27 344.89C423.29 339.81 417.28 334.04 412.28 336.44ZM297.29 356.24C291.6 361.82 286.55 368.83 285.52 376.92C285.97 381.72 288.2 386.12 289.69 390.65C291.94 374.87 298.95 359.93 309.18 347.76C304.62 349.61 300.82 352.89 297.29 356.24ZM501.66 419.44C512.04 432.58 521.35 447.86 522.27 465.01C522.52 465.9 522.94 466.71 523.54 467.44C537.72 486.32 551.48 505.51 565.68 524.38C567.06 526.43 569.54 528.21 569.19 530.98C568.35 535.24 564.36 537.75 561.11 540.15C555.03 544.17 549.15 548.51 543.02 552.47C546.96 558.84 551.15 565.06 555.06 571.45C562.85 566.59 570.8 561.93 579.14 558.09C584.12 556.16 588.95 553.7 592.95 550.1C590.18 546.24 587.45 542.36 584.88 538.37C582.03 542.58 579.31 547.03 575.45 550.41C573.68 552.29 572.95 549.42 573.82 548.13C576.34 543.79 580.11 540.3 582.43 535.84C582.64 534.39 581.35 533.36 580.76 532.2C564.69 508.3 548.16 484.73 531.89 460.98C530.44 458.91 528.71 457.05 527.39 454.9C526.86 453.5 529.61 451.96 530.36 453.56C537.74 463.67 544.51 474.23 551.82 484.39C556.34 472.86 562.93 461.63 563.16 448.94C563.44 440.92 563.54 432.88 562.99 424.88C543.27 419.06 522.12 415.63 501.66 419.44ZM485.43 423.25C485.78 429.11 486.48 435.13 484.7 440.84C482.27 448.66 477.76 455.67 472.64 461.98C474.03 465.34 476.38 468.2 478.36 471.23C483.13 468.88 487.76 466.24 492.16 463.23C495.74 460.72 500.28 460.81 504.45 461.08C502.07 455.16 500.09 449.1 498.03 443.07C495.32 435.75 492.48 427.51 485.43 423.25ZM478.86 433.85C476.95 438.98 474.46 443.93 471.31 448.42C461.73 461.33 448.41 470.98 434.12 478.09C419.97 485.45 404.2 488.96 388.53 491.29C376.83 492.74 364.92 493.84 353.22 491.82C354.18 495.25 356.46 498.51 360.02 499.57C366.17 501.44 372.68 500.52 378.97 500.17C400.62 498.26 422.42 493.36 441.37 482.35C455.93 473.99 470.33 463.5 478.2 448.24C482.01 441.11 484.48 432.41 481.49 424.54C479.99 427.44 480.05 430.83 478.86 433.85ZM566.24 425.89C566.49 436.42 566.98 447.05 565.37 457.5C563.21 467.46 558.48 476.59 554.66 485.96C563 488.66 571.37 491.24 579.67 494.07C584.68 485.12 588.83 475.69 592.12 465.97C592.62 464.93 592.81 463.35 594.16 463.04C596.71 463.72 595.27 466.67 594.8 468.37C591.53 477.47 587.56 486.35 583.04 494.89C589.9 497.25 596.68 500.32 603.95 501.12C612.69 501.99 620.73 496.17 624.63 488.67C627.7 482.27 629.36 474.97 628.9 467.88C625.93 461.42 621.1 455.95 615.97 451.1C601.76 438.81 584.13 431.13 566.24 425.89ZM441.51 448.71C427.06 460.02 407.87 463.88 389.87 461.91C386.94 461.66 384.39 460.14 381.93 458.66C381.67 459.24 381.16 460.39 380.91 460.97C385.65 464.82 392.18 464.94 398 465.04C408.43 465.35 418.9 463.39 428.52 459.36C442.7 453.5 454.62 442.69 462.29 429.44C463.34 428.28 462.74 426.28 460.94 426.77C455.98 435.26 449.43 442.84 441.51 448.71ZM367.17 446.21C364.5 447.18 362.61 450.89 364.74 453.25C366.77 456.55 372.44 455.73 373.34 451.95C374.61 448.43 370.55 444.87 367.17 446.21ZM285.39 461.51C280.77 462.58 277.63 468.33 280.47 472.54C282.99 477.43 290.46 478.1 293.77 473.69C298.3 468.39 291.85 459.49 285.39 461.51ZM493.26 466.7C496.15 466.99 499.1 467.11 501.91 468C501.5 468.49 500.67 469.48 500.26 469.97C502.21 468.13 504.74 467.12 506.81 465.44C502.39 464.24 496.89 463.04 493.26 466.7ZM511.67 465.88C499 474.74 486.02 483.15 472.33 490.36C464.19 495.36 455.67 499.78 448.13 505.68C452.19 514.27 458.28 521.71 463.16 529.84C473.83 545.16 484.45 560.56 495.73 575.43C517.91 558.55 539.76 540.93 564.36 527.62C560.58 523.36 557.53 518.53 554.03 514.05C542.59 498.48 531.23 482.85 519.64 467.4C518.01 464.74 514.1 463.73 511.67 465.88ZM489.28 468.51C479.78 474.97 469.61 480.43 460.59 487.58C463.73 489.3 467.49 489.47 470.62 487.62C479.55 483.02 488.29 477.95 496.63 472.35C493.86 471.74 491.39 470.36 489.28 468.51ZM419.43 495.57C414.15 497.15 408.84 498.67 403.6 500.4C413.4 502.28 423.07 504.81 432.52 508C432.66 506.11 432.2 503.95 433.55 502.39C436.2 499.02 439.87 496.67 443.39 494.3C449.57 490.22 455.74 486.1 462.3 482.65C460.94 480.12 459.28 477.74 457.2 475.74C445.79 484.32 433.01 491.14 419.43 495.57ZM294.07 480.09C292.11 482.27 294.53 484.92 297.08 484C297.96 481.93 296.76 478.71 294.07 480.09ZM436.29 504.31C439.54 504.03 442.86 503.91 446.02 503.03C451.68 499.47 456.77 494.98 462.82 492.05C460.56 491.3 458.23 490.78 455.93 490.2C449.07 494.37 441.74 498.31 436.29 504.31ZM657.02 504.18C657.39 506.52 660.06 507.66 661.29 509.61C663.36 511.65 664.08 515.05 666.95 516.21C665.95 511.13 662.08 507.26 658.85 503.45C658.4 503.63 657.48 504 657.02 504.18ZM435.71 507.18C438.1 510.88 443.38 511.17 447.25 512.74C446.5 510.73 445.73 508.73 444.86 506.79C441.81 506.91 438.75 506.95 435.71 507.18ZM350.18 522.52C351.57 525.86 355.32 526.59 358.5 527.14C358.37 529.34 358.08 531.53 357.81 533.73C365.5 532.76 373.4 531.74 381.05 533.57C391.7 536.08 400.37 543.51 407.48 551.51C415.16 560.47 421.73 570.42 426.81 581.08C429.04 585.14 426.02 589.5 424.93 593.45C429.58 593.16 434.26 592.77 438.93 592.96C440.61 592.84 441.21 595.68 439.32 595.89C434.27 596.21 429.21 596.4 424.2 597.12C421.66 605.35 419.33 613.65 416.64 621.84C425.78 623.15 435.07 623.69 444.07 625.78C446.34 625.98 445.16 629.77 443.03 628.59C434.31 627.41 425.57 626.4 416.87 625.14C422.25 633.34 427.64 641.54 433.22 649.61C438.11 656.88 449.15 660.8 456.93 655.85C467.2 650.27 475.13 641.5 483.32 633.36C500.68 615.48 517.67 596.95 537.84 582.14C534.36 576.08 530.64 570.16 527.3 564.03C520.77 568.55 514.48 573.41 507.97 577.97C504 580.71 500.23 584.01 495.57 585.47C492.61 586.34 489.66 584.45 488.07 582.05C484.08 576.27 479.96 570.57 475.77 564.93C472.07 567.58 468.21 570 464.37 572.45C462.96 573.76 460.82 571.44 462.1 570.1C465.46 566.76 469.84 564.69 473.92 562.38C470.05 556.13 465.2 550.59 461.21 544.43C457.36 546.86 453.9 549.9 449.92 552.12C448.18 552.38 447.19 549.63 448.83 548.85C452.35 546.47 455.71 543.86 459.19 541.44C455.87 537.58 453.05 533.34 450.04 529.25C445.67 529.21 441.25 529.21 437 528.05C422.71 524.54 408.68 519.53 393.97 518.04C386.09 518.09 378.21 519.35 370.61 521.42C365.96 522.58 361.53 526.12 356.53 524.34C352.42 523.91 350.18 518.77 352.42 515.4C353.92 513.47 356.47 512.96 358.55 511.93C358.29 511.52 357.75 510.7 357.48 510.29C351.57 509.59 346.97 517.59 350.18 522.52ZM649.54 510.83C651.89 515.29 656.22 518.23 659.05 522.37L660 522.02C659.64 518.99 656.98 516.93 655.28 514.59C653.62 513.06 652.26 510.14 649.54 510.83ZM641.81 517.44C644.81 521.28 648.7 524.31 651.64 528.22C651.75 527.66 651.95 526.55 652.05 525.99C649.82 522.38 646.32 519.8 643.64 516.55C643.18 516.77 642.27 517.21 641.81 517.44ZM625.12 525.36C625.15 523.57 624.69 521.88 623.93 520.29C621.79 521.58 623 524.81 625.12 525.36ZM453.4 528.22C466.16 545.63 478.29 563.49 491.13 580.83C491.76 579.71 492.4 578.6 493.04 577.49C487.5 569.87 482.24 562.07 476.73 554.44C470.05 545.55 464.21 536.07 457.61 527.14C456.14 527.13 454.79 527.87 453.4 528.22ZM551.77 538.8C532.79 550.72 515.23 564.7 497.53 578.4C496.18 579.46 494.86 580.66 494.43 582.41C497.64 581.78 500.12 579.48 502.83 577.81C520.43 564.96 538.1 552.2 556 539.77C559.56 537.17 563.85 535.14 566.06 531.14C560.86 532.77 556.41 536.04 551.77 538.8ZM357.09 537.71C351.94 566.1 346.05 594.38 339.29 622.42C350.76 623.95 362.29 625.52 373.46 628.64C385.03 632 394.79 639.34 404.13 646.65C412 626.62 418.91 606.15 423.97 585.22C416.98 585.03 410.02 585.92 403.09 586.73C401.47 586.71 399.05 587.62 398.64 585.36C407.18 583.9 415.84 582.85 424.52 583.07C423.05 580.69 421.87 578.1 420.14 575.89C412.94 573.6 405.22 576.1 397.96 575.06C398.72 574.15 399.66 573.63 400.79 573.5C406.99 572.57 413.3 572.47 419.5 573.48C411.61 561.18 403.11 548.46 390.33 540.75C380.43 534.69 367.99 534.76 357.09 537.71ZM320.37 558.35C318.34 559.49 315.38 560.53 315.76 563.45C319.4 562.61 322.33 560.17 325.72 558.72C327.55 557.72 330.17 557.2 330.3 554.66C326.6 554.43 323.57 556.88 320.37 558.35ZM564.71 587.07C576.22 605.26 587.7 623.48 599.25 641.64C600.46 643.13 600.14 645.12 599.75 646.86C598.7 650.84 597.67 654.84 596.82 658.88C601.84 660.4 606.9 661.8 611.91 663.41C612.27 656.9 612.69 650.38 613.15 643.88C613.14 642.46 613.93 640.49 615.68 641.3C616.67 642.6 616.05 644.37 616.14 645.89C615.71 651.96 615.35 658.03 614.94 664.11C617.63 665.11 620.4 665.89 623.21 666.53C623.87 655.99 624.16 645.44 624.99 634.92C624.43 632.48 628.52 632.32 627.84 634.98C627.66 645.78 626.81 656.56 626.27 667.35C636.74 670.74 647.58 672.94 657.89 676.86C661.35 656.74 665.82 636.14 676.76 618.61C682.55 609.55 691.63 603.15 701.16 598.5C679.05 588.69 655.61 582.38 632.14 576.77C627.52 575.73 623.06 573.98 618.35 573.38C613.98 579.36 608.11 584.16 601.59 587.66L600.56 587.45L600.32 586.24C606.29 582.28 612.21 578.07 616.84 572.52C612.33 571.04 607.91 569.2 604.02 566.47C590.54 572.6 577.33 579.32 564.71 587.07ZM548.96 597.9C559.29 614.3 569.81 630.59 580.08 647.03C581.62 649.01 581.22 651.57 580.86 653.87C585.13 655.37 589.46 656.74 593.72 658.31C594.47 653.8 596.08 649.49 596.9 645C597.01 643.65 596.06 642.58 595.52 641.46C584.38 623.86 573.24 606.26 562 588.73C557.64 591.77 553.31 594.85 548.96 597.9ZM491.8 652.06C499.89 650.24 507.81 647.57 515.99 646.2C518.96 650.86 520.46 656.59 521.02 662.06C516.01 669.52 509.67 676.02 503.92 682.92C502.53 684.33 501.4 686.6 499.1 686.44C491.05 686.98 482.98 686.95 474.94 687.58C472.46 687.58 469.54 688.12 467.45 686.53C464.54 682.63 463.46 677.69 460.57 673.77C457.9 674.89 455.15 675.83 452.61 677.23C457.78 685.07 461.93 693.61 468.23 700.66C482.15 717.28 501.71 727.53 520.66 737.3C533.21 743.57 545.71 750.04 557.36 757.9C558.5 753.53 560.53 749.47 562.48 745.41C566.43 737.37 570.84 729.5 576.41 722.46C585.7 709.99 599.64 701.1 614.72 697.54C610.47 692.33 606.25 687.11 602.27 681.69C600.66 679.75 599.26 677.35 596.84 676.35C590.38 674.23 583.64 673.11 576.87 672.66C575.34 672.72 574.1 671.9 573.61 670.42C581.47 670.51 589.37 671.77 596.8 674.36C594.38 671.51 592.44 667.77 588.87 666.23C579.09 663.65 569 662.42 558.9 661.97C557.79 661.84 555.86 662.07 556.19 660.37C557.7 659.6 559.42 660.01 561.04 660.02C570.35 660.46 579.66 661.52 588.65 664.08C586.61 660.48 583.15 657.84 579.17 656.78C570.03 654.36 560.57 653.3 551.14 653.01C551.15 652.3 551.16 650.87 551.17 650.15C560.28 649.37 569.25 651.59 578.17 653.12C578.1 651.1 577.92 649.01 576.71 647.32C566.61 631.47 556.46 615.66 546.42 599.78C526.49 615.35 510.22 634.85 491.8 652.06ZM676.65 624.66C667.72 641.13 663.83 659.76 660.71 678.07C664.45 680.03 668.26 681.88 671.83 684.18C683.2 691.69 691.36 702.9 699.02 713.95C701.85 718.59 708.12 719.25 713.01 718.45C721.22 716.61 728.32 711.79 735.26 707.25C744.14 701.13 753.37 695.51 762.16 689.26C765.96 686.64 768.99 681.12 766.22 676.77C762.08 669.61 757.63 662.64 753.14 655.7C741.91 661.11 730.37 665.86 719.03 671.07C717.14 671.8 715.33 673.14 713.21 672.89C712.49 671.44 712.88 669.82 714.63 669.54C726.98 664.17 739.11 658.3 751.56 653.16C748.19 647.03 744.42 641.14 741.06 635.01C737.15 628.41 733.27 621.67 727.79 616.23C722.72 611.11 716.65 607.11 710.45 603.52C708.35 602.47 706.32 601.01 703.94 600.8C692.55 605.46 682.4 613.65 676.65 624.66ZM325.91 673.97C324.72 678.96 323.01 683.87 322.46 688.99C323.84 704.59 336.43 718.3 351.9 720.97C355.18 721.53 359.2 722.33 361.92 719.83C369.35 712.99 375.19 704.63 380.43 696.05C374.04 692.97 368.25 688.77 362.84 684.21C360.81 682.34 358.35 680.7 357.25 678.06C358.2 676.46 359.28 676.29 360.48 677.55C366.63 684.11 374.31 689.02 382.11 693.4C386.22 687.07 389.25 680.12 392.49 673.33C396.02 665.57 399.9 657.92 402.67 649.84C397.07 645.23 391.43 640.57 385.03 637.08C376.16 631.95 366.01 629.75 356.01 628.1C350.24 627.28 344.51 626.05 338.68 625.75C334.57 641.86 330.65 658.03 325.91 673.97ZM490.13 655.75C486.5 656.26 484.16 659.24 481.45 661.37C476.06 665.72 470.39 669.93 463.84 672.38C465.88 676.15 467.67 680.05 469.2 684.05C477.48 684.7 485.78 683.6 494.07 683.59C496.34 683.28 499.37 684.02 500.8 681.7C506.53 674.85 512.63 668.27 517.92 661.07C516.74 657.28 515.86 653.4 514.82 649.57C506.57 651.54 498.38 653.76 490.13 655.75ZM435.14 658.23C435.58 663.74 438.71 668.65 442.26 672.73C444.68 675.47 449.05 678.32 452.3 675.06C450.22 673.64 447.46 673.89 445.46 672.4C441.29 668.47 438.71 663.22 436.98 657.84C436.52 657.94 435.6 658.13 435.14 658.23ZM405.47 677.22C402.89 678.73 400.05 679.88 397.79 681.87C396.85 682.66 397.32 685.06 398.84 683.98C401.76 682.63 404.38 680.73 407.25 679.28C409.25 678.06 412.2 677.37 412.3 674.52C409.7 674.39 407.64 676.07 405.47 677.22ZM770.34 684.43C766.1 692.46 757.34 696.15 750.29 701.21C741.1 706.87 732.59 713.65 722.93 718.53C716.95 721.84 709.84 722.76 703.21 721.14C705.71 724.38 708.24 728.78 712.95 728.65C721.77 728.3 730.09 724.44 737.09 719.24C746.76 712.8 756.39 706.31 766.05 699.85C768.69 698.1 771.42 696.07 772.5 692.94C773.81 689.93 771.97 686.87 770.34 684.43ZM573.2 732.39C568.08 741.07 562.7 750.01 560.02 759.72C567.45 765.28 574.76 771.1 580.84 778.17C588.62 787.32 595.19 797.43 601.23 807.8C603.2 811.79 608.07 812.39 612.04 812.57C621.54 812.77 629.73 807.18 637.65 802.64C646.25 797.18 655.37 792.54 663.75 786.72C667.06 784.55 669.63 780.39 668.57 776.39C664.31 768.88 660.28 761.23 655.96 753.76C644.14 758.9 632.53 764.51 620.74 769.71C619.24 770.77 617.57 769.68 617.9 767.91C621.19 765.65 625.04 764.37 628.59 762.57C637.19 758.73 645.68 754.63 654.35 750.97C649.35 740.82 643.82 730.88 637.26 721.65C632.18 714.21 624.52 709.13 618.78 702.27C617.92 701.55 617.21 699.94 615.86 700.39C597.89 704.35 582.53 716.73 573.2 732.39ZM285.54 741.18C287.8 740.74 291.2 740.59 292.27 738.22C291.95 737.89 291.29 737.23 290.96 736.9C288.86 737.88 286.52 738.9 285.54 741.18ZM292.85 759.72C289.54 763.49 284.78 767.18 284.83 772.67L286.11 772.24C288.18 768.13 290.9 764.41 294.27 761.26C295.89 760.18 294 758.14 292.85 759.72ZM295.88 770.93C294.32 772.71 292.01 775.38 294.3 777.54C295.59 774.9 297.13 772.37 299.26 770.33C301.24 767.91 304.55 766.16 305.07 762.83C301.23 764.5 298.7 767.99 295.88 770.93ZM312.39 767.33C308.48 770.19 304.7 773.36 301.64 777.12L301.78 778.08L302.8 778.48C306.48 775.61 309.39 771.81 313.48 769.44C314.88 768.99 313.64 766 312.39 767.33ZM659.38 793.44C651.27 798.35 643.04 803.07 634.91 807.94C629.29 811.05 623.64 814.55 617.17 815.48C613.24 816.21 609.27 815.44 605.39 814.86C606.67 819.08 610.47 822.54 614.99 822.68C621.74 822.58 628.47 820.74 634.27 817.25C644.9 811 655.4 804.54 665.96 798.17C669.09 796.04 673.18 794.08 674.03 790.01C674.78 787.23 672.75 784.94 671.25 782.88C668.71 787.75 663.99 790.76 659.38 793.44ZM814.99 787.73C807.02 794.95 796.72 799.22 786.15 800.81C775.12 802.12 763.59 799.01 754.8 792.2C753.6 791.09 751.99 790.78 750.45 790.65C751.08 792.79 752.9 794.12 754.67 795.31C773.13 808.49 800.45 804.9 816.57 789.62C818.29 788.63 816.07 786.41 814.99 787.73ZM714.09 887C708.99 894.33 699.86 897.01 691.47 898.34C680.75 899.73 668.77 898.15 660.47 890.64C659.49 889.8 657.26 887.73 656.58 890.02C659.1 893.7 663.24 895.96 667.14 897.94C678.86 902.65 692.27 902.02 704.01 897.72C708.81 896.17 713.1 893.09 716.05 889C716.33 887.31 715.68 886.64 714.09 887Z" fill="#0055CC" style="cursor: pointer;"/>
<path d="M534.98 324.57C536.28 324.68 537.1 325.33 537.46 326.5C538.66 326.22 539.87 325.96 541.09 325.72C539.22 327.57 539.8 329.83 540.89 331.91C539.78 331.34 538.7 330.74 537.64 330.11C537.17 330.63 536.22 331.66 535.75 332.18C534.32 331.29 533.3 329.09 535.42 328.28C535.26 327.04 535.09 325.79 534.98 324.57Z" fill="#0055CC" style="cursor: pointer;"/>
<path d="M82.7798 331.581C83.0398 330.121 83.3999 328.661 85.0799 328.271C85.0699 329.021 85.0599 330.521 85.0499 331.271C85.7699 331.121 87.1999 330.811 87.9099 330.661C87.1699 332.401 87.2999 334.131 88.1799 335.811C87.4999 335.641 86.1499 335.281 85.4699 335.111C85.0899 336.421 84.2498 337.261 82.9598 337.641C82.9398 336.841 82.8998 335.241 82.8798 334.431C80.3498 334.211 79.9098 331.331 82.7798 331.581Z" fill="#0055CC" style="cursor: pointer;"/>
<path d="M613.37 345.58C615.46 343.92 617 348.42 614.55 348.58C613.06 349.1 611.86 346.17 613.37 345.58Z" fill="#0055CC" style="cursor: pointer;"/>
<path d="M960.37 360.5C962.18 360.01 963.4 362.57 961.7 363.55C959.81 365.1 958.18 361 960.37 360.5Z" fill="#0055CC" style="cursor: pointer;"/>
<path d="M195.05 379.83C193.6 379.05 192.34 375.88 194.97 376.08C197.52 376.02 196.66 378.97 195.05 379.83Z" fill="#0055CC" style="cursor: pointer;"/>
<path d="M903.62 394.74C904.81 391.84 908.26 395.65 905.96 396.84C904.76 398.3 903.14 395.94 903.62 394.74Z" fill="#0055CC" style="cursor: pointer;"/>
<path d="M661.29 415.34C662.82 414.37 664.35 417 663.14 418.07C661.61 420.12 659.08 416.17 661.29 415.34Z" fill="#0055CC" style="cursor: pointer;"/>
<path d="M641.88 418.02C640.96 415.65 643.39 415.72 644.96 415.91C645.62 418.04 643.3 420.74 641.88 418.02Z" fill="#0055CC" style="cursor: pointer;"/>
<path d="M791.34 429.17C792.83 428.05 793.8 429.5 794.62 430.66C793.39 433.13 790.12 431.8 791.34 429.17Z" fill="#0055CC" style="cursor: pointer;"/>
<path d="M77.0099 440.67C75.2299 439.85 74.2599 437 76.8899 436.65C79.1899 437.13 78.3399 439.67 77.0099 440.67Z" fill="#0055CC" style="cursor: pointer;"/>
<path d="M285.26 464.28C289.43 462.21 293.83 466.86 292.51 470.93C291.03 475.27 283.7 475.24 282.2 470.9C281.1 468.29 282.8 465.31 285.26 464.28Z" fill="#0055CC" style="cursor: pointer;"/>
<path d="M337.95 472.07C342.64 470.39 347.44 475.39 346.02 480.03C344.29 484.62 337.43 485.55 334.53 481.59C332.21 478.19 334.32 473.48 337.95 472.07ZM338.29 475.51C336.82 476.4 336.97 478.17 336.91 479.67C337.45 480.04 338.55 480.77 339.1 481.13C340.36 480.45 342.16 480.24 342.69 478.69C343.97 476.21 340.22 473.65 338.29 475.51Z" fill="#0055CC" style="cursor: pointer;"/>
<path d="M502.61 479.6C505.87 477.37 509.13 474.82 513.11 474.07C514.68 474.6 515.77 475.91 516.79 477.15C519.8 480.95 522.52 484.97 524.93 489.19C519.78 494.01 513.48 497.41 508.01 501.86C506.5 502.69 504.39 505.28 502.85 503.23C499.73 499.58 497.13 495.5 494.24 491.67C493.42 490.24 491.94 488.92 492.05 487.17C495.47 484.52 499.09 482.12 502.61 479.6ZM495.53 488.28C498.5 492.35 501.7 496.25 504.48 500.47C510.09 496.61 515.27 492.14 521.12 488.61C518.91 485.58 516.62 482.61 514.44 479.57C513.61 478.68 512.67 476.45 511.17 477.64C505.63 480.66 501.02 485.15 495.53 488.28Z" fill="#0055CC" style="cursor: pointer;"/>
<path d="M617.25 474.33C618.38 473.19 619.74 474.7 619.69 475.88C620.24 484.36 614.57 492.51 606.9 495.83C604.93 496.61 603.74 493.43 605.84 492.8C610.14 490.4 613.98 486.83 615.51 482.02C616.55 479.57 615.86 476.6 617.25 474.33Z" fill="#0055CC" style="cursor: pointer;"/>
<path d="M719.34 490.63C718.03 489.77 718.15 487.44 719.94 487.34C720.68 487.84 721.4 488.38 722.11 488.95C721.3 489.65 720.67 491.36 719.34 490.63Z" fill="#0055CC" style="cursor: pointer;"/>
<path d="M137.17 504.23C138.83 501.99 141.37 506.15 139.04 507.15C137.39 508.17 135.55 505.3 137.17 504.23Z" fill="#0055CC" style="cursor: pointer;"/>
<path d="M955.43 510.42C957.26 510.43 957.81 512.45 956.86 513.83C954.67 514.88 953.09 511.13 955.43 510.42Z" fill="#0055CC" style="cursor: pointer;"/>
<path d="M73.33 515.161C75.09 513.741 76.33 516.151 75.96 517.741C75.22 517.771 73.73 517.821 72.98 517.851C73.07 517.181 73.24 515.831 73.33 515.161Z" fill="#0055CC" style="cursor: pointer;"/>
<path d="M901.1 515.181C903.26 514.101 904.6 517.711 902.41 518.351C900.52 519.121 899.69 516.181 901.1 515.181Z" fill="#0055CC" style="cursor: pointer;"/>
<path d="M207.92 529.92C209.36 528.82 210.17 525.55 212.02 526C212.15 526.49 212.39 527.47 212.51 527.96L214.05 527.03C214.16 528.32 214.22 529.63 214.27 530.95C212.86 531.7 211.79 532.83 211.06 534.26C210.44 533.21 210.22 531.99 210.06 530.81C209.53 530.59 208.45 530.15 207.92 529.92Z" fill="#0055CC" style="cursor: pointer;"/>
<path d="M486.51 528.69C492.14 527.01 498.59 532.16 497.7 538.11C497.25 543.59 490.84 547.3 485.81 545.31C481.38 543.81 478.69 538.42 480.45 534.03C481.55 531.49 483.77 529.35 486.51 528.69ZM486.29 532.32C482.5 534.08 482.18 540.1 486.04 541.98C490.2 544.56 495.98 539.54 493.98 535.06C492.84 532.04 489.07 530.93 486.29 532.32Z" fill="#0055CC" style="cursor: pointer;"/>
<path d="M927.19 550.11C927.3 547.76 929.98 549.17 930.87 550.22C930.14 552.02 926.91 552.8 927.19 550.11Z" fill="#0055CC" style="cursor: pointer;"/>
<path d="M742.34 568.3C743.69 566.93 745.98 567.9 745.34 569.95C744.3 572.18 741.44 570.19 742.34 568.3Z" fill="#0055CC" style="cursor: pointer;"/>
<path d="M613.69 591.67C619.37 589.02 624.41 585.15 630.18 582.69C630.63 582.88 631.54 583.26 631.99 583.45C628.06 586.56 623.45 588.62 619.14 591.13C617.42 591.88 615.23 593.59 613.69 591.67Z" fill="#0055CC" style="cursor: pointer;"/>
<path d="M285.36 588.451C287.24 587.531 288.77 589.941 287.39 591.451C285.53 593.221 283.6 589.761 285.36 588.451Z" fill="#0055CC" style="cursor: pointer;"/>
<path d="M215.32 603.281C216.74 601.551 219.19 604.771 217.35 605.921C216.13 607.821 214.21 604.521 215.32 603.281Z" fill="#0055CC" style="cursor: pointer;"/>
<path d="M962.03 610.88C960.41 609.95 959.16 607.2 961.81 606.7C964.19 607.39 963.45 609.68 962.03 610.88Z" fill="#0055CC" style="cursor: pointer;"/>
<path d="M112.35 617.51C113.82 615.4 116.71 618.44 114.75 619.75C113.45 621.52 111.38 619.03 112.35 617.51Z" fill="#0055CC" style="cursor: pointer;"/>
<path d="M242.52 617.69C243.78 615.43 247.05 617.7 245.49 619.67C244.27 621.56 242.07 619.38 242.52 617.69Z" fill="#0055CC" style="cursor: pointer;"/>
<path d="M708.45 617.591C710.46 616.901 714.73 615.541 714.03 619.241C710.25 620.721 706.17 621.531 702.7 623.731C695.55 628.111 689.46 634.551 686.41 642.441C685.5 644.211 684.8 648.131 682.16 645.941C681.99 643.771 683.24 641.871 684.02 639.951C688.51 629.501 697.64 621.121 708.45 617.591Z" fill="#0055CC" style="cursor: pointer;"/>
<path d="M794.82 621.82C795.55 620.87 795.04 617.58 797 618.66C797.14 619.15 797.41 620.13 797.54 620.63C798.13 620.69 799.3 620.81 799.89 620.87C799.45 622.3 799.22 623.75 799.49 625.24C797.8 625.24 796.56 626.29 795.28 627.21C795.21 626.43 795.06 624.88 794.99 624.11C794.01 623.48 793.21 622.7 792.57 621.77C793.13 621.78 794.26 621.81 794.82 621.82Z" fill="#0055CC" style="cursor: pointer;"/>
<path d="M246.21 647.17C246.88 647.18 248.22 647.21 248.89 647.22C249.35 652.35 249.06 657.5 249.2 662.64C252.79 662.83 256.41 662.81 259.97 663.32C261.5 663.19 262.39 666.99 260.17 666.32C256.39 666.32 252.63 665.92 248.86 665.82C248.59 670.23 248.96 674.72 248.2 679.09C248.2 680.68 245.15 680.49 245.32 678.79C245.06 674.46 245.55 670.12 245.52 665.8C241.66 665.73 237.79 666.03 233.95 665.69C232.36 665.94 232.07 662 234.06 662.7C237.94 662.38 241.84 662.69 245.73 662.52C245.92 657.4 245.61 652.26 246.21 647.17Z" fill="#0055CC" style="cursor: pointer;"/>
<path d="M185.3 681.141C187.35 679.611 188.35 682.051 187.94 683.841C187.23 683.821 185.83 683.771 185.13 683.741C185.17 683.091 185.26 681.791 185.3 681.141Z" fill="#0055CC" style="cursor: pointer;"/>
<path d="M850.67 690.12C850.83 687.49 853.52 689.05 854.48 690.17C853.75 692.18 850.75 692.96 850.67 690.12Z" fill="#0055CC" style="cursor: pointer;"/>
<path d="M331.83 691.09L333.06 691C335.03 693.19 335.85 696.15 337.49 698.58C342.09 705.66 349.82 710.19 357.93 712.1C359.94 712.19 360.35 714.75 358.29 715.19C347.96 714.18 338.92 707.15 333.67 698.44C332.76 696.19 330.27 693.46 331.83 691.09Z" fill="#0055CC" style="cursor: pointer;"/>
<path d="M71.0498 718.82C71.1198 717.31 70.7898 715.34 72.9698 715.69C73.5898 716.63 74.1198 717.67 74.6598 718.68C73.4598 718.73 72.2498 718.77 71.0498 718.82Z" fill="#0055CC" style="cursor: pointer;"/>
<path d="M589.19 736.02C594.84 726.8 604.34 719.64 615.08 717.81C616.53 717.07 618.64 719.85 616.68 720.47C607.96 722.41 599.71 726.97 594.24 734.14C591.52 737.26 590.09 741.2 587.94 744.67C587.31 744.81 586.06 745.1 585.43 745.24C585.58 741.81 587.51 738.88 589.19 736.02Z" fill="#0055CC" style="cursor: pointer;"/>
<path d="M913.5 721.64C915.56 720.79 916.16 725.13 913.86 724.84C911.86 725.52 911.4 721.58 913.5 721.64Z" fill="#0055CC" style="cursor: pointer;"/>
<path d="M211.9 762.15C218.27 761.42 224.59 760.09 230.99 759.69C233.07 759.25 232.79 762.72 230.99 762.51C189.73 768.24 148.82 776.22 107.96 784.26C77.4596 790.47 47.0796 797.26 16.6396 803.72C16.4496 802.42 15.9496 800.29 17.9796 800.39C82.2896 786.05 146.85 772.69 211.9 762.15Z" fill="#0055CC" style="cursor: pointer;"/>
<path d="M194.92 772.39C202.05 771.33 209.04 769.3 216.23 768.66C216.53 772.26 212.38 771.81 209.99 772.57C183.95 777.64 157.83 782.39 131.78 787.44C131.17 785.59 131.88 783.69 134.05 783.9C154.33 779.99 174.62 776.15 194.92 772.39Z" fill="#0055CC" style="cursor: pointer;"/>
<path d="M196.54 779.43C209.55 776.17 222.28 771.78 235.46 769.2C235.53 769.81 235.66 771.02 235.73 771.63C218.89 776.7 201.74 780.78 184.87 785.77C146.54 796.53 108.26 807.44 70.09 818.76C50.65 824.72 31.18 830.72 12.17 837.95C10.28 837.33 10.93 834.87 12.73 834.77C29.49 828.26 46.7 822.95 63.9 817.72C85.45 811.05 107.16 804.92 128.87 798.81C151.33 792.02 174.01 785.98 196.54 779.43Z" fill="#0055CC" style="cursor: pointer;"/>
<path d="M214.88 787.2C229.39 783.35 243.65 778.56 258.15 774.69C259.66 773.91 260.79 775.38 260.99 776.71C240.8 783.09 220.36 788.62 200.1 794.76C181.36 800.43 162.52 805.8 143.86 811.74C142.2 812.36 141.35 811.75 141.3 809.92C142.8 808.7 144.71 808.24 146.5 807.65C169.27 800.76 192.06 793.95 214.88 787.2Z" fill="#0055CC" style="cursor: pointer;"/>
<path d="M968.79 780.61C969.91 779.2 970.94 777.721 972.01 776.271C972.39 776.761 973.13 777.721 973.51 778.211C974.13 778.791 974.76 779.39 975.38 780.01C974.74 780.16 973.47 780.46 972.83 780.61L975.16 780.85C974.55 781.3 973.31 782.21 972.7 782.67C972.36 783.14 971.68 784.09 971.34 784.56C971.21 782.74 970.63 781.2 968.79 780.61Z" fill="#0055CC" style="cursor: pointer;"/>
<path d="M857.14 785.99C857.48 784.73 859.04 783.83 860.04 785.01C861.67 786.14 859.56 787.35 859.01 788.45C858.35 787.64 857.72 786.82 857.14 785.99Z" fill="#0055CC" style="cursor: pointer;"/>
<path d="M703.24 785.181C705.21 783.751 706.46 785.841 705.8 787.711C703.99 788.861 702.42 786.931 703.24 785.181Z" fill="#0055CC" style="cursor: pointer;"/>
<path d="M242.95 788.581C244.23 788.131 245.58 787.501 246.98 787.881C249.01 789.501 245.98 790.451 244.88 790.981C206.81 805.321 168.95 820.241 131.02 834.951C88.5799 851.761 46.0299 868.341 4.31986 886.891C4.07986 886.281 3.59986 885.061 3.35986 884.451C21.8899 875.531 41.1499 868.171 60.0699 860.101C120.79 835.661 181.81 811.971 242.95 788.581Z" fill="#0055CC" style="cursor: pointer;"/>
<path d="M530.57 798C531.95 797.36 532.89 792.28 534.28 795.26C536.02 795.26 536.19 797 536.39 798.36C535.51 799.79 534.32 801.01 533.26 802.31C533 800.48 532.13 798.97 530.57 798Z" fill="#0055CC" style="cursor: pointer;"/>
<path d="M54.0698 800.76C57.6798 800.02 61.2898 798.95 65.0098 799.21C64.6598 800.3 64.6798 802.04 63.0298 801.95C49.7098 804.98 36.3198 807.7 23.0598 810.96C20.7698 811.4 18.4698 812.28 16.1098 811.92C15.2598 810.32 16.4198 809.15 17.9898 809.01C29.9598 806.01 42.0298 803.45 54.0698 800.76Z" fill="#0055CC" style="cursor: pointer;"/>
<path d="M348.19 807.97C350.65 806.27 352.66 810.24 349.89 811.18C348.15 811.01 348.03 809.34 348.19 807.97Z" fill="#0055CC" style="cursor: pointer;"/>
<path d="M321.7 818.51C324.21 819.03 325.12 821.73 325.32 824.01C323.92 824.64 322.81 825.63 322.07 827C321.56 826.08 321.48 825.01 321.43 824C320.48 823.37 319.54 822.75 318.6 822.12C319.2 821.9 320.4 821.46 321.01 821.24C321.18 820.56 321.52 819.19 321.7 818.51Z" fill="#0055CC" style="cursor: pointer;"/>
<path d="M109.2 824.24C112.8 823.29 116.32 821.81 120.1 821.84C119.94 822.49 119.63 823.81 119.47 824.46C99.2299 830.47 78.9099 836.3 58.9899 843.37C57.8299 843.57 55.8099 844.77 55.4399 842.82C55.9299 840.78 58.2099 840.56 59.8199 839.86C76.1799 834.33 92.6499 829.15 109.2 824.24Z" fill="#0055CC" style="cursor: pointer;"/>
<path d="M982.19 837.24C982.86 837.2 984.19 837.12 984.86 837.07C984.85 837.78 984.84 839.19 984.84 839.89C984.18 839.88 982.88 839.86 982.23 839.85C982.22 839.2 982.2 837.89 982.19 837.24Z" fill="#0055CC" style="cursor: pointer;"/>
<path d="M252.49 847.72C253.98 846.86 255.53 849.87 253.98 850.74C252.28 852.5 250.3 848.37 252.49 847.72Z" fill="#0055CC" style="cursor: pointer;"/>
<path d="M903.34 848.251C903.81 846.751 906.21 847.041 906 848.781C906.03 853.611 905.58 858.441 905.41 863.281C909.03 863.791 912.78 863.641 916.3 864.731C917.68 864.931 918.28 866.791 917.03 867.651C913 867.481 909.02 866.581 905 866.321C904.42 871.001 904.64 875.871 903.19 880.401C902.6 880.351 901.43 880.251 900.84 880.201C900.4 875.431 901.65 870.711 901.61 865.951C897.45 865.651 893.18 865.941 889.13 864.851C889.09 864.271 889.01 863.111 888.97 862.531C893.28 861.781 897.7 862.991 902.07 862.811C902.62 857.961 902.43 853.041 903.34 848.251Z" fill="#0055CC" style="cursor: pointer;"/>
<path d="M581.24 848.35C583.33 847.21 584.34 851.8 582.02 851.65C580.4 851.76 579.25 848.68 581.24 848.35Z" fill="#0055CC" style="cursor: pointer;"/>
<path d="M772.27 848.25C773.66 846.11 776.1 850.45 773.98 850.94C772.61 852.37 770.57 848.89 772.27 848.25Z" fill="#0055CC" style="cursor: pointer;"/>
<path d="M49.8398 855.8C51.1198 855.19 52.5798 853.95 54.0098 854.94C54.3798 856.26 54.0298 857.21 52.9698 857.81C51.3898 858.67 50.6698 856.68 49.8398 855.8Z" fill="#0055CC" style="cursor: pointer;"/>
<path d="M23.0799 864.49C28.1099 862.64 32.9799 860.29 38.1799 858.94C39.8099 858.2 39.5899 860.49 39.8699 861.4C28.6299 865.47 17.4499 869.74 6.79989 875.18C6.57989 874.1 5.44989 872.68 6.92989 872.04C11.9899 868.9 17.6299 866.82 23.0799 864.49Z" fill="#0055CC" style="cursor: pointer;"/>
<path d="M414.25 889.22C415.83 887.83 418.61 890.04 416.65 891.59C415.39 893.53 413.36 890.7 414.25 889.22Z" fill="#0055CC" style="cursor: pointer;"/>
<path d="M65.4197 910.43C67.5197 909.92 68.2297 913.7 65.9297 913.77C64.2297 914.35 63.3997 910.34 65.4197 910.43Z" fill="#0055CC" style="cursor: pointer;"/>
<path d="M284.08 912.171C285.9 911.121 287.71 913.841 286.12 915.101C284.35 916.541 282.75 913.571 284.08 912.171Z" fill="#0055CC" style="cursor: pointer;"/>
<path d="M919.44 919.5C920.95 918.38 922.68 920.44 921.72 921.89C920.47 923.99 917.43 920.82 919.44 919.5Z" fill="#0055CC" style="cursor: pointer;"/>
<path d="M161.97 925.161C162.77 925.151 164.36 925.141 165.16 925.141C165.09 926.341 164.67 927.361 163.91 928.211C162.1 928.181 162.17 926.481 161.97 925.161Z" fill="#0055CC" style="cursor: pointer;"/>
<path d="M199.44 927.641C199.98 926.751 199.5 924.551 201.15 924.971C201.64 925.851 202.07 926.781 202.43 927.751L204.03 926.621C203.6 927.991 203.55 929.391 203.89 930.811C203.36 930.781 202.31 930.731 201.78 930.701C201.77 931.351 201.74 932.641 201.72 933.291C200.1 933.171 199.81 931.841 199.63 930.501C198.01 929.841 196.57 928.101 199.44 927.641Z" fill="#0055CC" style="cursor: pointer;"/>
<path d="M848.19 925.18C850.85 924.75 850.65 927.85 849.09 929.05C847.77 928.23 846.15 926.22 848.19 925.18Z" fill="#0055CC" style="cursor: pointer;"/>
<path d="M582.47 927.301C583.88 926.591 584.68 928.021 585.49 928.911C584.78 929.571 584.08 930.241 583.39 930.911C582.4 929.821 581.04 928.671 582.47 927.301Z" fill="#0055CC" style="cursor: pointer;"/>
<path d="M1024 932.9C1022.22 932.73 1022.12 930.16 1024 930.13V932.9Z" fill="#0055CC" style="cursor: pointer;"/>
<path d="M545.08 932.081C545.73 929.621 548.29 931.061 548.92 932.791C547.81 934.331 544.82 934.561 545.08 932.081Z" fill="#0055CC" style="cursor: pointer;"/>
<path d="M93.4097 935.33C94.8797 932.89 97.4597 937.82 94.9797 938.01C93.3897 938.95 92.2497 936.3 93.4097 935.33Z" fill="#0055CC" style="cursor: pointer;"/>
<path d="M680.44 948.381C681.76 947.501 684.63 949.731 682.76 950.801C681.19 952.861 679.08 950.061 680.44 948.381Z" fill="#0055CC" style="cursor: pointer;"/>
<path d="M763.92 960.99C762.92 959.07 765.47 958.2 766.87 958.9C766.85 959.69 766.81 961.29 766.79 962.08C765.74 962.19 764.17 962.45 763.92 960.99Z" fill="#0055CC" style="cursor: pointer;"/>
<path d="M350.61 959.65C353 958.4 353.82 962.07 352.07 963.38C350.83 962.67 348.53 960.92 350.61 959.65Z" fill="#0055CC" style="cursor: pointer;"/>
<path d="M205.39 960.47C206.63 958.38 209.34 960.63 208.29 962.38C207.25 964.35 204.59 962.08 205.39 960.47Z" fill="#0055CC" style="cursor: pointer;"/>
</g>
<defs>
<clipPath id="clip0_93_2957">
<rect width="1024" height="1024" fill="none"/>
</clipPath>
</defs>
</svg>