<svg width="1024" height="879" viewBox="0 83 1024 879" fill="none" xmlns="http://www.w3.org/2000/svg">
<g clip-path="url(#clip0_93_6534)">
<rect width="1024" height="1024" fill="none"/>
<path d="M566.17 199.47C567.023 204.77 567.233 208.28 566.8 210C566.38 211.64 565.886 213.14 565.32 214.5C565.268 214.624 565.247 214.758 565.258 214.891C565.269 215.024 565.313 215.153 565.384 215.266C565.456 215.379 565.554 215.473 565.67 215.54C565.786 215.607 565.916 215.645 566.05 215.65L572.54 215.9C574.546 223 577.536 229.784 581.51 236.25C583.543 239.564 586.46 243.36 590.26 247.64C593.446 251.234 596.683 254.78 599.97 258.28C602.463 260.94 604.25 263.757 605.33 266.73C603.93 267.304 603.02 267.96 602.6 268.7C602.426 268.994 602.416 269.294 602.57 269.6C604.103 272.694 604.45 275.96 603.61 279.4C602.61 283.514 600.593 286.707 597.56 288.98C597.033 289.374 595.143 290.264 591.89 291.65C585.03 294.577 581.763 300.304 582.09 308.83C580.29 310.617 577.51 310.69 573.75 309.05C571.27 307.97 568.95 306.09 566.86 304.31C566.533 304.032 566.126 303.865 565.699 303.837C565.272 303.808 564.848 303.918 564.49 304.15C560.94 306.44 556.18 307.33 551.98 306.49C546.686 305.437 541.986 303.337 537.88 300.19C537.538 299.929 537.117 299.791 536.686 299.8C536.255 299.81 535.841 299.965 535.51 300.24C532.896 302.42 529.906 303.594 526.54 303.76C521.87 304 516.46 303.47 512.15 301.42C505.47 298.25 502.27 293.55 499.89 286.82C499.61 286.02 499.046 285.737 498.2 285.97L496.96 286.32C496.133 286.547 495.82 287.06 496.02 287.86C497.473 293.654 500.553 298.274 505.26 301.72C505.371 301.804 505.458 301.915 505.512 302.043C505.566 302.172 505.586 302.312 505.569 302.45C505.551 302.588 505.498 302.719 505.414 302.829C505.33 302.94 505.218 303.027 505.09 303.08C497.55 306.16 490.04 306.677 482.56 304.63C474.01 302.29 468.25 296.22 463.32 289.01C463.073 288.652 462.741 288.361 462.353 288.163C461.966 287.966 461.535 287.869 461.1 287.88C460.006 287.907 459.34 288.567 459.1 289.86C458.92 290.854 458.76 292 458.62 293.3C458.586 293.64 458.426 293.907 458.14 294.1C457.353 294.627 456.896 295.31 456.77 296.15C455.636 296.024 454.796 296.567 454.25 297.78C450.45 306.17 448.28 312.4 443.28 317.74C437.4 324.014 430.42 325.76 422.34 322.98C421.113 321.294 420.406 319.874 420.22 318.72C419.24 312.594 418.246 308.364 417.24 306.03C414.573 299.877 410.093 295.58 403.8 293.14C400.686 291.934 397.47 291.194 394.15 290.92C391.403 290.7 387.986 291.62 383.9 293.68C379.413 295.947 376.65 299.314 375.61 303.78C372.496 317.147 375.843 328.46 385.65 337.72C385.87 337.929 386.011 338.208 386.048 338.509C386.084 338.811 386.014 339.115 385.85 339.37C383.71 342.69 382.786 346.504 383.08 350.81C383.513 357.33 386.38 362.17 391.68 365.33C396.58 368.244 401.896 369.59 407.63 369.37C414.436 369.104 419.016 366.104 421.37 360.37C421.75 359.45 422.116 359.457 422.47 360.39C423.1 362.06 424.22 364.08 424.7 365.74C427.28 374.78 423.44 385.33 416.57 391.57C409.636 397.864 401.663 401.61 392.65 402.81C389.943 403.17 386.34 403.05 381.84 402.45C377.753 401.904 374.31 401 371.51 399.74C361.896 395.387 355.983 388.124 353.77 377.95C352.563 372.397 352.843 366.094 354.61 359.04C354.87 357.987 356.146 354.904 358.44 349.79C361.466 343.044 362.85 335.614 362.59 327.5C362.37 320.667 361.923 314.087 361.25 307.76C360.363 299.387 359.956 292.817 360.03 288.05C360.163 279.524 360.726 272.27 361.72 266.29C362.966 258.81 365.286 251.684 368.68 244.91C372.193 237.897 377.513 232.617 384.64 229.07C389.84 226.49 396.33 225.97 402.34 224.83C403.526 224.61 404.67 223.514 405.77 221.54C408.86 215.99 411.22 210.54 414.87 205.76C422.29 196.034 432 189.277 444 185.49C456.693 181.49 469.61 180.19 482.75 181.59C488.316 182.184 494.566 183.487 501.5 185.5C506.913 187.074 515.373 189.97 526.88 194.19C538.38 198.404 550.27 200.047 562.55 199.12C563.096 199.074 563.693 199.13 564.34 199.29C565.026 199.457 565.636 199.517 566.17 199.47Z" fill="black"/>
<path d="M681.789 443.82C680.936 445.747 681.716 447.164 684.13 448.07C679.78 448.57 674.2 450.32 671.44 454.03C670.686 455.037 670.116 456.61 669.729 458.75C667.409 471.537 664.889 484.284 662.169 496.99L657.979 495.26C660.559 482.12 663.103 468.964 665.609 455.79C666.089 453.27 667.293 451.167 669.219 449.48C672.693 446.44 676.883 444.554 681.789 443.82Z" fill="black"/>
<path d="M655.21 619.201C655.07 617.874 654.834 616.647 654.5 615.521C654.04 613.987 653.8 612.787 653.78 611.921C653.667 606.654 654.444 601.134 656.11 595.361C663.237 592.527 670.76 589.881 678.68 587.421C682.75 586.151 685.29 582.171 683.05 578.201C681.76 575.911 678.73 574.701 676.38 574.051C673.827 573.337 673.774 572.691 676.22 572.111C682.67 570.581 689.8 569.241 692.79 563.451C694.96 559.221 693.45 554.251 689.26 552.241C689.04 552.134 687.96 551.737 686.02 551.051C685.907 551.011 685.808 550.939 685.735 550.844C685.661 550.749 685.617 550.635 685.608 550.515C685.598 550.395 685.624 550.275 685.681 550.17C685.738 550.065 685.825 549.978 685.93 549.921C688.784 548.361 691.07 546.497 692.79 544.331C695.55 540.841 695.28 536.171 691.73 533.441C688.63 531.051 684.44 531.741 680.73 532.631C680.591 532.662 680.446 532.653 680.312 532.605C680.178 532.557 680.059 532.473 679.971 532.361C679.882 532.25 679.827 532.116 679.811 531.974C679.795 531.832 679.819 531.689 679.88 531.561C681.47 528.291 682.11 525.601 679.97 522.331C678.404 519.924 676.284 518.047 673.61 516.701C676.437 498.141 679.414 479.664 682.54 461.271C682.86 459.411 683.48 455.461 684.93 453.621C685.284 453.167 685.927 452.701 686.86 452.221C688.934 451.147 691.077 449.861 693.29 448.361C703.424 448.054 713.667 448.164 724.02 448.691C729.374 448.957 734.034 449.094 738 449.101C744.787 449.107 749.46 449.147 752.02 449.221C756.66 449.361 761.68 452.261 762.77 457.081C763.21 459.001 762.28 464.051 761.55 467.001C760.444 471.487 759.57 475.291 758.93 478.411C750.877 517.817 746.174 540.954 744.82 547.821C744.796 547.936 744.729 548.037 744.632 548.104C744.535 548.171 744.417 548.199 744.3 548.181C742.13 547.861 740.26 547.441 738.32 547.811C731.73 549.061 727.45 555.861 730.74 562.131C731.07 562.771 731.72 563.301 732.02 563.891C732.174 564.191 732.087 564.364 731.76 564.411C728.9 564.817 726.54 566.151 724.68 568.411C721.98 571.704 721.527 575.294 723.32 579.181C723.385 579.322 723.421 579.474 723.425 579.629C723.43 579.784 723.404 579.938 723.348 580.082C723.292 580.225 723.207 580.356 723.099 580.466C722.992 580.576 722.863 580.662 722.72 580.721C717.907 582.747 715.064 586.214 714.19 591.121C713.67 594.081 714.88 596.381 716.73 598.691C716.797 598.774 716.844 598.871 716.866 598.976C716.889 599.08 716.886 599.188 716.859 599.292C716.831 599.395 716.78 599.49 716.709 599.57C716.638 599.65 716.55 599.712 716.45 599.751C715.364 600.184 714.434 600.571 713.66 600.911C708.46 603.181 706.25 607.661 708.27 613.181C708.97 615.061 710.45 616.751 711.62 618.371C711.73 618.521 711.807 618.692 711.846 618.873C711.885 619.055 711.886 619.243 711.848 619.424C711.81 619.606 711.735 619.778 711.627 619.929C711.519 620.08 711.38 620.207 711.22 620.301C709.894 621.087 708.497 621.534 707.03 621.641C694.29 622.581 681.384 623.091 668.31 623.171C665.077 623.191 661.77 622.777 658.39 621.931C657.637 621.744 657.017 621.411 656.53 620.931C655.95 620.351 655.51 619.774 655.21 619.201ZM706.6 467.331C708.06 467.457 709.477 467.551 710.85 467.611C712.69 467.697 718.7 468.104 728.88 468.831C732.494 469.084 735.174 469.174 736.92 469.101C738 469.061 738.9 468.481 739.62 467.361C742.15 463.451 739.09 460.521 735.21 460.281C726.97 459.761 718.577 459.207 710.03 458.621C708.517 455.947 706.23 454.871 703.17 455.391C698.73 456.151 695.72 462.391 699.47 466.001C701.704 468.147 704.08 468.591 706.6 467.331Z" fill="black"/>
<path d="M461.29 541.07C461.543 539.923 462.556 539.304 464.33 539.21C467.123 539.064 469.076 539.027 470.19 539.1C470.493 539.121 470.788 539.208 471.053 539.357C471.318 539.506 471.546 539.712 471.72 539.96C472.66 541.28 473.303 542.747 473.65 544.36C475.023 550.72 475.72 553.944 475.74 554.03C475.873 554.637 475.61 555.447 474.95 556.46C473.123 559.26 470.556 560.827 467.25 561.16C464.68 561.42 462.67 556.36 462.27 554.54C460.95 548.573 460.623 544.083 461.29 541.07Z" fill="black"/>
<path d="M500.69 947.791C500.1 943.471 499.91 938.141 499.61 934.781C496.684 902.281 493.31 869.654 489.49 836.901C493.477 836.401 497.487 835.964 501.52 835.591C506.894 835.091 510.9 834.671 513.54 834.331C522.88 833.124 532.224 831.967 541.57 830.861C543.01 830.681 544.44 830.101 545.89 829.911C546.224 829.868 546.562 829.948 546.842 830.135C547.121 830.323 547.323 830.605 547.41 830.931C548.297 834.197 549.077 837.491 549.75 840.811C552.004 851.964 553.864 860.844 555.33 867.451C555.904 870.031 557.027 876.261 558.7 886.141C559.474 890.721 560.284 895.261 561.13 899.761C562.65 907.767 563.484 912.301 563.63 913.361C565.924 929.434 567.714 940.997 569 948.051C569.016 948.144 569.012 948.24 568.987 948.331C568.962 948.422 568.918 948.507 568.857 948.579C568.796 948.652 568.72 948.71 568.634 948.75C568.548 948.79 568.455 948.811 568.36 948.811L502.75 948.891C502.43 948.891 502.17 948.771 501.97 948.531C501.657 948.164 501.23 947.917 500.69 947.791Z" fill="black"/>
<path d="M387.67 840.811C386.503 846.611 384.526 852.094 381.74 857.261C377.66 864.834 371.333 869.004 362.76 869.771C358.793 870.131 354.546 870.047 350.02 869.521C339.006 868.234 328.45 865.484 318.35 861.271C319.89 856.171 320.946 850.897 321.52 845.451C321.85 842.251 322.59 838.741 323.56 835.591C323.613 835.414 323.729 835.263 323.885 835.166C324.041 835.068 324.228 835.031 324.41 835.061C343.836 838.261 363.4 839.911 383.1 840.011C384 840.017 385.523 840.284 387.67 840.811Z" fill="black"/>
<path d="M483.92 837.271C484.173 839.324 484.427 841.417 484.68 843.55C488.84 878.437 492.433 913.387 495.46 948.401C493.42 948.674 491.893 948.814 490.88 948.82C432.92 948.9 374.96 948.874 317 948.74C314.033 948.727 311.137 948.781 308.31 948.901C308.171 948.906 308.033 948.881 307.905 948.828C307.776 948.775 307.661 948.695 307.566 948.593C307.471 948.492 307.399 948.371 307.355 948.24C307.311 948.108 307.296 947.969 307.31 947.831C307.757 943.464 308.13 939.554 308.43 936.1C308.777 932.054 309.21 928.157 309.73 924.41C312.13 907.257 313.82 894.981 314.8 887.581C315.707 880.794 316.827 873.961 318.16 867.081C324.32 869.294 330.41 871.124 336.43 872.57C345.103 874.65 353.873 875.357 362.74 874.69C373.233 873.91 381.07 869.024 386.25 860.031C389.497 854.391 391.633 848.011 392.66 840.891C397.187 840.737 401.76 840.71 406.38 840.81C412.5 840.944 417.083 840.964 420.13 840.87C430.61 840.557 441.087 840.137 451.56 839.61C454.307 839.477 459.69 839.014 467.71 838.22C473.137 837.687 478.54 837.371 483.92 837.271Z" fill="black"/>
<path d="M657.98 495.26L662.17 496.99L657.8 520.69C657.792 520.731 657.794 520.775 657.807 520.815C657.82 520.855 657.843 520.892 657.874 520.921C657.905 520.95 657.943 520.971 657.985 520.981C658.026 520.991 658.069 520.991 658.11 520.98L673.61 516.7C676.283 518.046 678.403 519.923 679.97 522.33C682.11 525.6 681.47 528.29 679.88 531.56C679.818 531.688 679.794 531.831 679.81 531.973C679.826 532.115 679.882 532.249 679.97 532.36C680.059 532.472 680.177 532.556 680.312 532.604C680.446 532.652 680.591 532.661 680.73 532.63C684.44 531.74 688.63 531.05 691.73 533.44C695.28 536.17 695.55 540.84 692.79 544.33C691.07 546.496 688.783 548.36 685.93 549.92C685.824 549.977 685.738 550.064 685.681 550.169C685.623 550.275 685.598 550.394 685.607 550.514C685.617 550.634 685.661 550.748 685.734 550.843C685.807 550.938 685.907 551.01 686.02 551.05C687.96 551.736 689.04 552.133 689.26 552.24C693.45 554.25 694.96 559.22 692.79 563.45C689.8 569.24 682.67 570.58 676.22 572.11C673.773 572.69 673.827 573.336 676.38 574.05C678.73 574.7 681.76 575.91 683.05 578.2C685.29 582.17 682.75 586.15 678.68 587.42C670.76 589.88 663.237 592.526 656.11 595.36L642.81 600.51C642.49 600.63 642.287 600.856 642.2 601.19C641.213 605.163 640.703 607.78 640.67 609.04C640.637 610.606 641.243 612.1 642.49 613.52C646.383 617.96 650.623 619.853 655.21 619.2C655.51 619.773 655.95 620.35 656.53 620.93C657.017 621.41 657.637 621.743 658.39 621.93C661.77 622.776 665.077 623.19 668.31 623.17C681.383 623.09 694.29 622.58 707.03 621.64C708.497 621.533 709.893 621.086 711.22 620.3C711.38 620.206 711.518 620.079 711.627 619.928C711.735 619.777 711.81 619.605 711.848 619.423C711.885 619.242 711.885 619.054 711.845 618.872C711.806 618.691 711.729 618.52 711.62 618.37C710.45 616.75 708.97 615.06 708.27 613.18C706.25 607.66 708.46 603.18 713.66 600.91C714.433 600.57 715.363 600.183 716.45 599.75C716.549 599.711 716.638 599.649 716.709 599.569C716.78 599.489 716.831 599.394 716.858 599.291C716.886 599.187 716.888 599.079 716.866 598.975C716.844 598.87 716.797 598.773 716.73 598.69C714.88 596.38 713.67 594.08 714.19 591.12C715.063 586.213 717.907 582.746 722.72 580.72C722.862 580.662 722.991 580.575 723.099 580.465C723.207 580.355 723.291 580.224 723.347 580.081C723.403 579.937 723.43 579.783 723.425 579.628C723.42 579.473 723.385 579.321 723.32 579.18C721.527 575.293 721.98 571.703 724.68 568.41C726.54 566.15 728.9 564.816 731.76 564.41C732.087 564.363 732.173 564.19 732.02 563.89C731.72 563.3 731.07 562.77 730.74 562.13C727.45 555.86 731.73 549.06 738.32 547.81C740.26 547.44 742.13 547.86 744.3 548.18C744.416 548.198 744.535 548.17 744.632 548.103C744.728 548.036 744.796 547.935 744.82 547.82C746.173 540.953 750.877 517.816 758.93 478.41C759.57 475.29 760.443 471.486 761.55 467C762.28 464.05 763.21 459 762.77 457.08C761.68 452.26 756.66 449.36 752.02 449.22C749.46 449.146 744.787 449.106 738 449.1C734.033 449.093 729.373 448.956 724.02 448.69C713.667 448.163 703.423 448.053 693.29 448.36L684.13 448.07C681.717 447.163 680.937 445.746 681.79 443.82C694.09 443.753 702.077 443.813 705.75 444C711.49 444.286 714.793 444.393 715.66 444.32C716.93 444.21 718.83 444.66 720.09 444.68C726.797 444.813 737.863 445.013 753.29 445.28C757.097 445.346 760.593 447.056 763.78 450.41C766.853 453.65 767.873 457.716 766.84 462.61C759.813 495.716 754.033 523.453 749.5 545.82C749.473 545.94 749.28 546.536 748.92 547.61C748.747 548.136 748.663 548.6 748.67 549C748.675 549.154 748.723 549.303 748.808 549.432C748.892 549.561 749.011 549.664 749.15 549.73C754.9 552.49 759.77 555.28 758.83 562.75C758.17 567.96 755.21 570.45 750.98 572.86C750.233 573.286 748.733 573.666 746.48 574C745.893 574.086 745.783 574.366 746.15 574.84C749.803 579.493 750.03 583.956 746.83 588.23C745.103 590.543 742.57 592.223 739.23 593.27C738.93 593.363 738.813 593.56 738.88 593.86C739.36 596.173 739.563 597.636 739.49 598.25C738.783 604.136 735.8 608.366 730.54 610.94C730.213 611.093 730.103 611.343 730.21 611.69C731.19 614.83 730.65 618.063 728.59 621.39C724.12 628.62 718.52 635.06 709.78 636.46C691.24 639.433 675.133 642.303 661.46 645.07C661.127 645.136 660.967 645.34 660.98 645.68C661.253 652.56 658.443 657.75 652.55 661.25C652.483 661.29 652.097 661.46 651.39 661.76C651.123 661.873 650.9 662 650.72 662.14C650.596 662.232 650.499 662.356 650.439 662.498C650.379 662.641 650.359 662.797 650.38 662.95C650.767 665.663 650.987 667.513 651.04 668.5C651.387 674.82 649.77 680.476 646.19 685.47C641.723 691.71 639.173 695.226 638.54 696.02C634.74 700.79 629.04 704.36 623.64 707.24C622.453 707.88 620.867 709.083 618.88 710.85C608.273 720.33 595.3 730.956 579.96 742.73C579.173 743.33 578.473 743.616 577.86 743.59C576.673 743.543 576.027 742.9 575.92 741.66C573.053 707.753 569.44 674.256 565.08 641.17C565.074 641.138 565.06 641.108 565.039 641.084C565.018 641.059 564.99 641.041 564.96 641.031C564.929 641.02 564.896 641.019 564.864 641.026C564.833 641.032 564.804 641.048 564.78 641.07C563.553 642.33 561.057 644.45 557.29 647.43C557.143 647.543 557.103 647.683 557.17 647.85C558.537 651.503 558.863 654.966 558.15 658.24C556.03 668.02 548.82 674.85 540.85 680.35C536.037 683.683 528.69 688.763 518.81 695.59C518.697 695.666 518.607 695.771 518.549 695.895C518.491 696.018 518.467 696.154 518.48 696.29C519.7 707.896 520.913 718.333 522.12 727.6C522.507 730.586 522.38 733.02 521.74 734.9C520.413 738.773 517.91 741.506 514.23 743.1C512.177 743.993 508.737 744.493 503.91 744.6C500.543 744.666 492.287 745.09 479.14 745.87C478.22 745.923 475.81 746.043 471.91 746.23C469.17 746.363 466.83 746.006 464.89 745.16C461.263 743.586 458.623 740.856 456.97 736.97C456.823 736.623 456.583 736.533 456.25 736.7C439.963 744.613 422.92 751.103 405.12 756.17C396.553 758.603 390.03 759.78 385.55 759.7C377.517 759.56 370.023 757.323 363.07 752.99C359.197 750.583 355.673 747.146 352.5 742.68C350.8 740.293 348.707 735.92 346.22 729.56C334.36 699.206 325.497 668.01 319.63 635.97C316.63 619.58 313.51 603 309.45 580.6C308.87 577.413 308.127 573.836 307.22 569.87C306.88 568.39 306.487 568.33 306.04 569.69C305.987 569.85 305.987 570.203 306.04 570.75C306.073 571.09 306.05 571.43 305.97 571.77C303.11 584.49 300.017 599.723 296.69 617.47C294.283 630.343 292.373 642.773 290.96 654.76C284.613 708.726 280.023 762.73 277.19 816.77C277.137 817.77 277.58 818.443 278.52 818.79C292.927 824.11 307.513 828.036 322.28 830.57C340.827 833.75 360.32 835.666 380.76 836.32C383.12 836.39 386.16 836.87 388.76 836.87C395.76 836.856 404.563 836.853 415.17 836.86C421.963 836.86 427.847 836.68 432.82 836.32C432.867 836.32 438.76 836.026 450.5 835.44C450.593 835.44 451.347 835.396 452.76 835.31C485.313 833.343 517.9 830.003 550.52 825.29C562.107 823.61 572.56 821.803 581.88 819.87C582.247 819.79 582.413 819.563 582.38 819.19L578.06 774.74C577.933 773.4 578.543 772.576 579.89 772.27C579.91 772.263 579.94 772.256 579.98 772.25C581.46 772.003 582.273 772.62 582.42 774.1L587 820.78C587.067 821.458 586.879 822.137 586.471 822.687C586.063 823.237 585.464 823.619 584.79 823.76C572.923 826.233 561.943 828.08 551.85 829.3C551.799 829.305 551.751 829.322 551.707 829.348C551.663 829.374 551.625 829.409 551.596 829.45C551.567 829.492 551.547 829.539 551.537 829.589C551.527 829.639 551.528 829.69 551.54 829.74C552.387 832.893 553.147 836.046 553.82 839.2C561.447 874.666 567.897 910.733 573.17 947.4C573.211 947.699 573.359 947.974 573.587 948.172C573.815 948.371 574.108 948.48 574.41 948.48L909.97 948.61C910.338 948.61 910.696 948.736 910.983 948.967C911.27 949.198 911.47 949.52 911.55 949.88C911.677 950.446 911.683 950.876 911.57 951.17C911.277 951.91 910.81 952.28 910.17 952.28C611.163 952.513 355.94 952.513 144.5 952.28C135.52 952.273 130.133 952.226 128.34 952.14C126.893 952.066 126.403 951.24 126.87 949.66C127.077 948.946 127.553 948.59 128.3 948.59L302.44 948.57C302.507 948.57 302.573 948.557 302.635 948.531C302.697 948.505 302.753 948.468 302.801 948.42C302.848 948.373 302.885 948.317 302.911 948.255C302.937 948.193 302.95 948.127 302.95 948.06C302.943 946.253 303.06 944.33 303.3 942.29C306.347 916.236 309.733 890.916 313.46 866.33C313.513 865.996 313.707 865.846 314.04 865.88C315.527 866.026 316.9 866.426 318.16 867.08C316.827 873.96 315.707 880.793 314.8 887.58C313.82 894.98 312.13 907.256 309.73 924.41C309.21 928.156 308.777 932.053 308.43 936.1C308.13 939.553 307.757 943.463 307.31 947.83C307.296 947.968 307.311 948.107 307.355 948.239C307.399 948.371 307.471 948.491 307.566 948.593C307.661 948.694 307.776 948.774 307.905 948.827C308.033 948.88 308.171 948.905 308.31 948.9C311.137 948.78 314.033 948.726 317 948.74C374.96 948.873 432.92 948.9 490.88 948.82C491.893 948.813 493.42 948.673 495.46 948.4C496.84 948.546 498.187 948.626 499.5 948.64C500.407 948.653 500.803 948.37 500.69 947.79C501.23 947.916 501.657 948.163 501.97 948.53C502.17 948.77 502.43 948.89 502.75 948.89L568.36 948.81C568.455 948.81 568.548 948.789 568.634 948.749C568.72 948.709 568.796 948.651 568.857 948.578C568.917 948.506 568.962 948.421 568.987 948.33C569.011 948.239 569.016 948.143 569 948.05C567.713 940.996 565.923 929.433 563.63 913.36C563.483 912.3 562.65 907.766 561.13 899.76C560.283 895.26 559.473 890.72 558.7 886.14C557.027 876.26 555.903 870.03 555.33 867.45C553.863 860.843 552.003 851.963 549.75 840.81C549.077 837.49 548.297 834.196 547.41 830.93C547.323 830.604 547.121 830.322 546.842 830.134C546.562 829.947 546.224 829.867 545.89 829.91C544.44 830.1 543.01 830.68 541.57 830.86C532.223 831.966 522.88 833.123 513.54 834.33C510.9 834.67 506.893 835.09 501.52 835.59C497.487 835.963 493.477 836.4 489.49 836.9L483.92 837.27C478.54 837.37 473.137 837.686 467.71 838.22C459.69 839.013 454.307 839.476 451.56 839.61C441.087 840.136 430.61 840.556 420.13 840.87C417.083 840.963 412.5 840.943 406.38 840.81C401.76 840.71 397.187 840.736 392.66 840.89L387.67 840.81C385.523 840.283 384 840.016 383.1 840.01C363.4 839.91 343.837 838.26 324.41 835.06C324.228 835.03 324.042 835.067 323.885 835.165C323.729 835.262 323.613 835.413 323.56 835.59C322.59 838.74 321.85 842.25 321.52 845.45C320.947 850.896 319.89 856.17 318.35 861.27C317.037 861.07 315.913 860.663 314.98 860.05C314.673 859.85 314.55 859.576 314.61 859.23L318.68 835.2C318.715 834.985 318.664 834.766 318.539 834.588C318.414 834.41 318.224 834.289 318.01 834.25C302.81 831.37 288.48 827.333 275.02 822.14C274.24 821.84 273.683 821.45 273.35 820.97C272.14 819.27 272.79 815.21 273.13 811.49C273.25 810.156 273.383 807.66 273.53 804C273.697 799.806 273.807 797.32 273.86 796.54C276.793 749.673 280.85 703.466 286.03 657.92C286.917 650.086 287.783 643.476 288.63 638.09C292.657 612.57 297.74 587.003 303.88 561.39C304.58 558.47 305.677 554.513 307.17 549.52C307.27 549.2 307.253 548.886 307.12 548.58C306.693 547.573 306.593 546.733 306.82 546.06C310.553 535.073 312.67 528.856 313.17 527.41C319.16 510.07 327.13 492.71 337.5 477.49C341.667 471.376 345.917 466.253 350.25 462.12C358.703 454.066 368.313 447.713 379.08 443.06C383.94 440.96 387.877 439.65 390.89 439.13C391.203 439.076 391.437 438.91 391.59 438.63C394.697 432.856 399.54 430.76 406.12 432.34C406.172 432.353 406.226 432.355 406.279 432.346C406.332 432.336 406.382 432.316 406.427 432.285C406.471 432.255 406.509 432.216 406.537 432.17C406.565 432.124 406.583 432.073 406.59 432.02L410.31 402.53C410.39 401.85 410.123 401.663 409.51 401.97C401.01 406.21 391.92 407.8 382.24 406.74C357.77 404.05 344.71 383.3 349.94 359.49C351.3 353.28 355.02 347.99 356.63 341.77C357.597 338.023 358.113 334.86 358.18 332.28C358.233 330.013 358.29 328.51 358.35 327.77C358.47 326.29 358.473 324.79 358.36 323.27C357.833 315.97 357.06 306.643 356.04 295.29C355.42 288.436 355.503 280.603 356.29 271.79C357.217 261.43 360.043 251.846 364.77 243.04C367.803 237.4 371.89 232.533 377.03 228.44C378.97 226.9 381.93 225.56 384.3 224.19C384.593 224.023 384.803 223.783 384.93 223.47C385.83 221.25 386.47 218.83 387.99 216.97C392.33 211.65 398.033 208.9 405.1 208.72C406.1 208.693 406.797 208.66 407.19 208.62C407.517 208.593 407.77 208.44 407.95 208.16C417.53 193.366 430.967 183.906 448.26 179.78C454.46 178.3 460.89 177.383 467.55 177.03C473.923 176.683 480.37 177.033 486.89 178.08C494.717 179.333 502.21 181.186 509.37 183.64C520.79 187.56 529.48 191.19 539.57 193.43C547.577 195.21 554.88 195.636 561.48 194.71C564.007 194.356 567.157 193.216 570.93 191.29C571.225 191.14 571.561 191.087 571.89 191.14C573.98 191.47 575.17 193.21 574.61 195.35C574.31 196.51 574.07 197.1 574.26 198.23C575.02 202.65 575.38 207.67 576.23 211.39C578.383 220.843 581.94 229.29 586.9 236.73C593.31 246.35 603.68 253.85 609.22 263.61C614.19 272.4 614.23 281.73 608.92 290.48C606.167 295.02 602.03 298.186 596.51 299.98C596.05 300.133 595.067 300.576 593.56 301.31C593.233 301.463 593.067 301.723 593.06 302.09C592.88 307.163 590.7 310.66 586.52 312.58C583.307 314.06 579.887 314.453 576.26 313.76C572.793 313.106 569.547 311.536 566.52 309.05C566.455 308.994 566.376 308.957 566.291 308.943C566.206 308.93 566.12 308.941 566.041 308.974C565.962 309.007 565.893 309.062 565.844 309.132C565.794 309.202 565.765 309.284 565.76 309.37C565.633 311.036 566.16 312.15 567.34 312.71C567.556 312.813 567.749 312.961 567.904 313.143C568.06 313.326 568.176 313.538 568.245 313.768C568.314 313.998 568.334 314.24 568.304 314.477C568.273 314.715 568.194 314.944 568.07 315.15C567.577 315.963 566.96 316.663 566.22 317.25C566.105 317.342 566.011 317.457 565.943 317.588C565.876 317.719 565.837 317.863 565.83 318.01C565.343 326.363 565.047 332.403 564.94 336.13C564.847 339.463 564.7 341.873 564.5 343.36C564.293 344.946 564.15 346.553 564.07 348.18C563.977 350.02 563.793 351.61 563.52 352.95C561.333 363.683 558.173 372.393 554.04 379.08C544.807 394.033 531.697 403.903 514.71 408.69C502.317 412.183 489.64 412.326 476.68 409.12C476.34 409.033 476.147 409.163 476.1 409.51L472.86 435.21C472.813 435.55 472.96 435.746 473.3 435.8C481.12 437.1 488.227 440.286 494.62 445.36C509.31 457.01 520.78 472.03 530.2 488.86C536.853 500.733 542.253 513.063 546.4 525.85C550.153 537.423 553.557 549.336 556.61 561.59C556.627 561.654 556.658 561.713 556.702 561.762C556.745 561.812 556.8 561.85 556.862 561.875C556.923 561.899 556.989 561.908 557.055 561.902C557.121 561.896 557.184 561.875 557.24 561.84C561.947 558.76 569.627 553.736 580.28 546.77C580.96 546.323 581.363 545.893 581.49 545.48C582.49 542.2 584.063 539.126 586.21 536.26C590.77 530.17 595.96 524.7 602.98 522.21C605.56 521.29 609.07 520.356 613.51 519.41C617.303 518.603 620.3 517.643 622.5 516.53C624.2 515.67 626.913 514.046 630.64 511.66C633.29 509.96 637.29 509.48 639.91 511.98C644.27 516.14 642.43 522 639.44 526.8C639.22 527.153 639.297 527.266 639.67 527.14L651.95 522.87C652.16 522.798 652.347 522.675 652.493 522.512C652.638 522.348 652.737 522.151 652.78 521.94L657.98 495.26ZM422.34 322.98C421.29 328.81 428.27 329.37 432.06 328.78C439.127 327.693 444.75 324.156 448.93 318.17C452.83 312.576 455.793 306.133 457.82 298.84C458.22 297.406 457.87 296.51 456.77 296.15C456.897 295.31 457.353 294.626 458.14 294.1C458.427 293.906 458.587 293.64 458.62 293.3C458.76 292 458.92 290.853 459.1 289.86C459.34 288.566 460.007 287.906 461.1 287.88C461.535 287.868 461.966 287.965 462.353 288.163C462.741 288.36 463.073 288.651 463.32 289.01C468.25 296.22 474.01 302.29 482.56 304.63C490.04 306.676 497.55 306.16 505.09 303.08C505.218 303.026 505.33 302.939 505.414 302.829C505.498 302.718 505.552 302.587 505.569 302.449C505.586 302.311 505.567 302.171 505.512 302.043C505.458 301.915 505.371 301.803 505.26 301.72C500.553 298.273 497.473 293.653 496.02 287.86C495.82 287.06 496.133 286.546 496.96 286.32L498.2 285.97C499.047 285.736 499.61 286.02 499.89 286.82C502.27 293.55 505.47 298.25 512.15 301.42C516.46 303.47 521.87 304 526.54 303.76C529.907 303.593 532.897 302.42 535.51 300.24C535.841 299.964 536.256 299.809 536.686 299.8C537.117 299.791 537.538 299.928 537.88 300.19C541.987 303.336 546.687 305.436 551.98 306.49C556.18 307.33 560.94 306.44 564.49 304.15C564.848 303.917 565.272 303.807 565.7 303.836C566.127 303.865 566.534 304.031 566.86 304.31C568.95 306.09 571.27 307.97 573.75 309.05C577.51 310.69 580.29 310.616 582.09 308.83C584.063 308.996 585.467 308.423 586.3 307.11C586.72 306.443 587.04 305.313 587.26 303.72C587.71 300.35 589.93 297.57 593.42 296.27C599.26 294.1 603.62 291.32 606.34 285.37C609.493 278.443 609.157 272.23 605.33 266.73C604.25 263.756 602.463 260.94 599.97 258.28C596.683 254.78 593.447 251.233 590.26 247.64C586.46 243.36 583.543 239.563 581.51 236.25C577.537 229.783 574.547 223 572.54 215.9C572.04 213.29 571.29 210.47 571.11 208.17C570.83 204.403 570.507 200.633 570.14 196.86C570.1 196.493 569.907 196.36 569.56 196.46C567.353 197.073 566.223 198.076 566.17 199.47C565.637 199.516 565.027 199.456 564.34 199.29C563.693 199.13 563.097 199.073 562.55 199.12C550.27 200.046 538.38 198.403 526.88 194.19C515.373 189.97 506.913 187.073 501.5 185.5C494.567 183.486 488.317 182.183 482.75 181.59C469.61 180.19 456.693 181.49 444 185.49C432 189.276 422.29 196.033 414.87 205.76C411.22 210.54 408.86 215.99 405.77 221.54C404.67 223.513 403.527 224.61 402.34 224.83C396.33 225.97 389.84 226.49 384.64 229.07C377.513 232.616 372.193 237.896 368.68 244.91C365.287 251.683 362.967 258.81 361.72 266.29C360.727 272.27 360.163 279.523 360.03 288.05C359.957 292.816 360.363 299.386 361.25 307.76C361.923 314.086 362.37 320.666 362.59 327.5C362.85 335.613 361.467 343.043 358.44 349.79C356.147 354.903 354.87 357.986 354.61 359.04C352.843 366.093 352.563 372.396 353.77 377.95C355.983 388.123 361.897 395.386 371.51 399.74C374.31 401 377.753 401.903 381.84 402.45C386.34 403.05 389.943 403.17 392.65 402.81C401.663 401.61 409.637 397.863 416.57 391.57C423.44 385.33 427.28 374.78 424.7 365.74C424.22 364.08 423.1 362.06 422.47 360.39C422.117 359.456 421.75 359.45 421.37 360.37C419.017 366.103 414.437 369.103 407.63 369.37C401.897 369.59 396.58 368.243 391.68 365.33C386.38 362.17 383.513 357.33 383.08 350.81C382.787 346.503 383.71 342.69 385.85 339.37C386.015 339.115 386.085 338.81 386.048 338.509C386.012 338.207 385.871 337.928 385.65 337.72C375.843 328.46 372.497 317.146 375.61 303.78C376.65 299.313 379.413 295.946 383.9 293.68C387.987 291.62 391.403 290.7 394.15 290.92C397.47 291.193 400.687 291.933 403.8 293.14C410.093 295.58 414.573 299.876 417.24 306.03C418.247 308.363 419.24 312.593 420.22 318.72C420.407 319.873 421.113 321.293 422.34 322.98ZM390.75 222.51L401.22 220.98C401.427 220.953 401.57 220.846 401.65 220.66L404.76 213.51C404.77 213.485 404.774 213.459 404.771 213.433C404.768 213.406 404.759 213.381 404.744 213.36C404.729 213.338 404.709 213.32 404.686 213.308C404.662 213.296 404.636 213.289 404.61 213.29C400.817 213.23 397.157 214.763 393.63 217.89C391.85 219.463 390.77 220.836 390.39 222.01C390.27 222.396 390.39 222.563 390.75 222.51ZM552.22 316.75L559.31 315.92C560.83 315.74 561.617 314.91 561.67 313.43C561.69 312.936 561.7 312.653 561.7 312.58C561.827 311.08 561.16 310.45 559.7 310.69C552.033 311.956 544.667 310.07 537.6 305.03C537.307 304.83 537 304.803 536.68 304.95C527.6 309.183 518.38 309.08 509.02 304.64C508.72 304.5 508.437 304.53 508.17 304.73C505.19 306.956 502.203 308.426 499.21 309.14C496.63 309.753 493.59 310.11 490.09 310.21C487.557 310.283 484.513 309.72 480.96 308.52C473.88 306.12 468.03 302.053 463.41 296.32C463.117 295.96 462.92 296.006 462.82 296.46C459.18 313.36 448.8 334.83 427.85 333.16C415.72 332.19 415.62 318.09 413.99 309.58C411.63 297.34 390.31 289.76 382.28 300.61C379.64 304.176 378.577 309.03 379.09 315.17C379.723 322.663 382.753 328.916 388.18 333.93C388.273 334.015 388.382 334.08 388.5 334.122C388.618 334.165 388.744 334.183 388.87 334.177C388.995 334.17 389.118 334.139 389.232 334.085C389.345 334.03 389.446 333.954 389.53 333.86C391.71 331.406 394.353 329.646 397.46 328.58C397.657 328.513 397.821 328.373 397.918 328.189C398.015 328.005 398.037 327.79 397.98 327.59C396.45 322.32 396.65 318.21 403.04 316.98C403.56 316.88 403.733 316.58 403.56 316.08C402.28 312.47 397.96 306.72 393.56 306.93C392.08 307 390.86 307.91 389.5 308.28C389.285 308.338 389.061 308.352 388.84 308.321C388.62 308.29 388.408 308.215 388.218 308.1C388.027 307.985 387.862 307.833 387.731 307.652C387.601 307.472 387.509 307.267 387.46 307.05C387.3 306.323 387.57 305.553 388.27 304.74C389.343 303.5 390.887 302.77 392.9 302.55C397.65 302.03 402.97 306.28 405.56 309.95C407.787 313.096 408.56 316.536 407.88 320.27C407.82 320.603 407.637 320.836 407.33 320.97C405.777 321.663 404.17 321.893 402.51 321.66C402.09 321.6 401.887 321.786 401.9 322.22L402.03 326.52C402.043 326.893 402.233 327.103 402.6 327.15C409.97 328.1 416.44 329.52 421.06 335.94C423.507 339.34 424.81 343.84 424.97 349.44C424.97 349.453 424.863 349.91 424.65 350.81C424.523 351.363 424.4 351.816 424.28 352.17C424.18 352.483 424.383 353.22 424.89 354.38C425.903 356.68 426.593 358.24 426.96 359.06C431.887 370.253 430.62 380.953 423.16 391.16C421.62 393.26 419.047 395.703 415.44 398.49C415.316 398.586 415.214 398.707 415.138 398.845C415.062 398.982 415.015 399.134 415 399.29C414.793 401.283 413.627 411.59 411.5 430.21C411.493 430.276 411.323 430.996 410.99 432.37C410.657 433.763 411.16 434.766 412.5 435.38C413.247 435.72 413.643 435.903 413.69 435.93C425.95 442.6 438.37 448.15 452.27 448.29C457.257 448.343 461.907 447.19 466.22 444.83C466.534 444.657 466.802 444.412 467.002 444.114C467.202 443.817 467.328 443.476 467.37 443.12L471.63 408.14C471.677 407.753 471.51 407.503 471.13 407.39C463.09 404.936 454.597 400.546 445.65 394.22C444.33 393.293 444.087 392.276 444.92 391.17L445.16 390.84C445.947 389.806 446.883 389.683 447.97 390.47C461.537 400.223 475.39 405.65 489.53 406.75C507.717 408.163 523.86 403.02 537.96 391.32C545.69 384.9 552.43 374.56 555.52 365.5C557.767 358.94 559.217 352.18 559.87 345.22C559.874 345.159 559.861 345.099 559.834 345.045C559.806 344.991 559.765 344.946 559.714 344.913C559.663 344.88 559.604 344.862 559.544 344.86C559.483 344.857 559.423 344.871 559.37 344.9C552.27 349.04 544.74 340.46 549.99 334.15C552.357 331.31 555.757 330.873 560.19 332.84C560.563 333 560.753 332.88 560.76 332.48L561.04 320.26C561.047 319.86 560.867 319.746 560.5 319.92C558.887 320.686 556.567 321.076 553.54 321.09C551.94 321.096 551.03 320.47 550.81 319.21C550.803 319.17 550.797 319.14 550.79 319.12C550.397 317.693 550.873 316.903 552.22 316.75ZM420.16 350C420.653 346.833 420.16 343.78 418.68 340.84C415.82 335.133 411.193 332.21 404.8 332.07C402.56 332.02 400.96 331.67 398.72 332.71C389.67 336.91 385.27 346.46 389 356.03C391.46 362.32 399.68 365.31 405.81 365.28C411.743 365.246 415.7 363.03 417.68 358.63C418.84 356.05 419.667 353.173 420.16 350ZM470.99 446.68C470.157 448 468.447 449.16 465.86 450.16C451.53 455.69 435.15 451.74 421.46 445.05C416.427 442.583 411.797 440.23 407.57 437.99C405.497 436.89 403.73 436.36 402.27 436.4C399.363 436.48 397.34 437.733 396.2 440.16C396.14 440.284 396.128 440.427 396.167 440.56C396.205 440.693 396.292 440.807 396.41 440.88C404.477 445.993 410.82 449.896 415.44 452.59C424.7 457.98 435.81 462.94 446.35 463.77C452.083 464.223 456.703 464.03 460.21 463.19C471.12 460.57 479.95 454.65 482.4 443.71C482.455 443.451 482.407 443.182 482.266 442.959C482.126 442.737 481.905 442.579 481.65 442.52L473.38 440.59C473.228 440.555 473.07 440.554 472.918 440.589C472.766 440.624 472.625 440.693 472.504 440.79C472.383 440.888 472.287 441.011 472.222 441.152C472.157 441.292 472.126 441.445 472.13 441.6C472.197 443.673 471.817 445.366 470.99 446.68ZM385.52 477.26C386.867 476.766 387.77 477.2 388.23 478.56C391.45 488.073 395.397 499.376 400.07 512.47C401.357 516.09 402.45 518.65 403.35 520.15C404.69 522.39 404.63 524.83 405.47 526.74C416.517 551.926 427.177 577.046 437.45 602.1C437.81 602.98 438.077 603.88 438.25 604.8C438.37 605.466 438.737 605.66 439.35 605.38L443.33 603.57C443.612 603.443 443.844 603.226 443.989 602.952C444.134 602.679 444.184 602.365 444.13 602.06C443.09 596.16 442.423 592.153 442.13 590.04C440.88 581.03 445.67 575.05 454.48 574.79C455.493 574.756 457.343 574.676 460.03 574.55C460.082 574.548 460.133 574.535 460.18 574.511C460.226 574.488 460.267 574.454 460.299 574.413C460.332 574.372 460.355 574.325 460.367 574.274C460.379 574.224 460.38 574.171 460.37 574.12C459.017 566.3 457.667 557.32 456.32 547.18C455.96 544.48 456.05 542.373 456.59 540.86C457.45 538.46 459.71 535.95 462.35 535.13C462.997 534.923 463.457 534.77 463.73 534.67C464.07 534.543 464.203 534.303 464.13 533.95C460.29 514.936 456.47 493.443 452.67 469.47C452.624 469.181 452.475 468.919 452.251 468.731C452.027 468.544 451.742 468.444 451.45 468.45C438.95 468.75 425.65 463.54 414.73 457.41C408.79 454.07 402.093 449.92 394.64 444.96C393.587 444.26 392.663 443.87 391.87 443.79C391.023 443.703 390 443.863 388.8 444.27C374.84 449.01 362.947 456.176 353.12 465.77C342.03 476.6 333.84 490.64 326.76 505.77C321.78 516.403 317.54 527.78 314.04 539.9C314.025 539.949 314.023 540.002 314.033 540.053C314.043 540.103 314.065 540.151 314.098 540.191C314.13 540.232 314.172 540.263 314.219 540.284C314.267 540.305 314.318 540.313 314.37 540.31C319.377 539.903 322.517 539.62 323.79 539.46C329.117 538.8 333.87 537.063 338.05 534.25C347.65 527.8 355.19 523.57 366.79 525.76C368.623 526.106 372.363 526.663 378.01 527.43C385.497 528.443 392.323 526.89 398.49 522.77C398.586 522.704 398.659 522.611 398.697 522.504C398.735 522.398 398.736 522.284 398.7 522.18L384 480.16C383.5 478.746 383.98 477.79 385.44 477.29C385.447 477.283 385.473 477.273 385.52 477.26ZM529.26 574.01C532.02 573.42 533.7 573.8 535.58 576.03C535.67 576.138 535.798 576.207 535.937 576.224C536.077 576.241 536.217 576.203 536.33 576.12C541.35 572.32 546.567 568.78 551.98 565.5C552.4 565.246 552.553 564.883 552.44 564.41C549.433 551.583 545.86 538.886 541.72 526.32C539.533 519.686 537.153 513.463 534.58 507.65C525.61 487.42 513.12 467.74 496.49 452.69C493.537 450.01 490.57 447.873 487.59 446.28C487.493 446.227 487.386 446.197 487.276 446.191C487.166 446.185 487.056 446.203 486.954 446.244C486.852 446.285 486.76 446.348 486.685 446.428C486.61 446.509 486.554 446.605 486.52 446.71C484.84 451.936 481.94 456.31 477.82 459.83C473.127 463.85 466.39 466.616 457.61 468.13C457.257 468.196 457.107 468.406 457.16 468.76C460.227 488.973 464.067 510.626 468.68 533.72C468.76 534.14 469.01 534.386 469.43 534.46C472.69 535.033 475.26 536.52 477.14 538.92C478.153 540.22 478.99 542.93 479.65 547.05C480.743 553.876 481.973 562.22 483.34 572.08C483.387 572.446 483.597 572.62 483.97 572.6C489.537 572.233 492.557 572.02 493.03 571.96C498.47 571.22 502.93 572.75 506.41 576.55C507.777 578.043 508.64 579.64 509 581.34C509.073 581.693 509.287 581.9 509.64 581.96L516.03 583.06C516.323 583.111 516.633 583.047 516.9 582.88C520.887 580.346 524.067 577.996 526.44 575.83C527.6 574.77 528.54 574.163 529.26 574.01ZM617.44 543.53C617.304 543.39 617.205 543.219 617.15 543.031C617.096 542.843 617.088 542.643 617.127 542.448C617.165 542.252 617.25 542.066 617.374 541.905C617.498 541.743 617.658 541.612 617.84 541.52L624.26 538.22C624.275 538.211 624.29 538.201 624.302 538.188C624.314 538.176 624.323 538.162 624.329 538.148C624.335 538.135 624.337 538.121 624.336 538.109C624.334 538.097 624.329 538.087 624.32 538.08V538.07C624.227 538.01 624.167 537.983 624.14 537.99C618.527 540.21 613.44 542.49 608.88 544.83C607.633 545.463 606.6 545.243 605.78 544.17L605.56 543.87C604.467 542.443 604.723 541.373 606.33 540.66C615.123 536.78 621.22 534.256 624.62 533.09C631.833 530.616 636.333 525.67 638.12 518.25C638.38 517.156 638.167 516.316 637.48 515.73C635.44 513.99 633.41 514.81 631.43 516.39C627.783 519.303 624.04 521.24 620.2 522.2C612.587 524.113 607.9 525.34 606.14 525.88C602.007 527.146 598.65 529.116 596.07 531.79C593.37 534.59 590.693 537.886 588.04 541.68C588.007 541.726 587.993 541.78 588 541.84C588.013 541.92 588.073 541.983 588.18 542.03C588.267 542.07 588.347 542.06 588.42 542C590.627 540.086 593.043 538.463 595.67 537.13C596.883 536.516 597.757 536.903 598.29 538.29C598.303 538.316 598.317 538.343 598.33 538.37C598.81 539.503 598.4 540.493 597.1 541.34L538.68 579.35C538.4 579.536 538.31 579.796 538.41 580.13C539.577 583.983 542.4 590.483 546.88 599.63C551.333 608.73 556.993 617.093 563.86 624.72C563.94 624.811 564.047 624.874 564.166 624.901C564.284 624.928 564.408 624.917 564.52 624.87C576.827 619.73 593.333 613.376 614.04 605.81C625.507 601.616 632.02 599.223 633.58 598.63C639.333 596.436 643.35 594.986 645.63 594.28C648.477 593.386 652.51 591.966 657.73 590.02C662.537 588.226 668.52 586.283 675.68 584.19C676.94 583.816 677.94 583.21 678.68 582.37C678.864 582.161 679.001 581.916 679.081 581.65C679.162 581.384 679.184 581.103 679.146 580.828C679.108 580.553 679.011 580.289 678.861 580.054C678.712 579.82 678.514 579.62 678.28 579.47C676.96 578.61 675.447 578.12 673.74 578C666.67 577.5 658.77 578.65 651.28 580.85C649.907 581.256 646.867 582.083 642.16 583.33C640.49 583.77 638.61 583.36 638.19 581.53C638.153 581.372 638.155 581.208 638.195 581.052C638.235 580.895 638.312 580.75 638.42 580.63C639.613 579.276 640.663 578.493 641.57 578.28C645.51 577.333 648.087 576.673 649.3 576.3C659.227 573.226 670.37 569.626 682.73 565.5C685.563 564.553 687.4 563.456 688.24 562.21C689.533 560.283 689.51 558.38 688.17 556.5C688.013 556.281 687.803 556.104 687.56 555.987C687.318 555.87 687.049 555.816 686.78 555.83C683.56 555.983 680.373 556.413 677.22 557.12C672.127 558.26 665.753 559.823 658.1 561.81C650.95 563.67 640.02 568.13 632.82 569.91C631.547 570.223 630.857 569.683 630.75 568.29C630.75 568.25 630.743 568.216 630.73 568.19C630.157 566.803 630.9 565.77 632.96 565.09C641.387 562.31 652.28 558.576 665.64 553.89C673.72 551.063 679.26 548.85 682.26 547.25C685.49 545.53 692.17 541.32 689.7 537.28C688.44 535.23 684.35 535.82 682.6 536.3C664.4 541.36 637.86 550.47 623.55 555.15C622.143 555.616 621.303 555.12 621.03 553.66C620.997 553.46 620.98 553.233 620.98 552.98C620.974 552.496 621.122 552.024 621.403 551.63C621.683 551.237 622.081 550.942 622.54 550.79C640.31 544.89 652.64 540.97 665.63 535.32C668.21 534.19 679.65 528.64 676.45 524.28C674.797 522.04 672.367 521.403 669.16 522.37C656.793 526.09 644.84 530.046 633.3 534.24C631.873 534.76 630.857 535.38 630.25 536.1C629.97 536.42 630.02 536.663 630.4 536.83L631.31 537.23C631.529 537.328 631.715 537.485 631.849 537.684C631.982 537.883 632.057 538.117 632.065 538.359C632.073 538.601 632.014 538.842 631.895 539.056C631.776 539.269 631.601 539.447 631.39 539.57C627.683 541.656 623.64 543.376 619.26 544.73C618.927 544.836 618.62 544.746 618.34 544.46L617.44 543.53ZM397.23 612.82C397.743 611.38 398.637 610.846 399.91 611.22C405.903 612.986 411.647 615.216 417.14 617.91C417.385 618.028 417.657 618.076 417.928 618.048C418.198 618.019 418.455 617.916 418.67 617.75C423.263 614.23 428.42 611.01 434.14 608.09C434.433 607.943 434.52 607.716 434.4 607.41C426.047 586.036 417.517 565.573 408.81 546.02C406.01 539.74 403.427 533.51 401.06 527.33C401.037 527.269 401.001 527.215 400.955 527.17C400.908 527.125 400.853 527.091 400.792 527.07C400.73 527.049 400.665 527.041 400.601 527.048C400.537 527.055 400.475 527.076 400.42 527.11C394.26 530.756 387.45 532.376 379.99 531.97C375.39 531.716 370.687 531.106 365.88 530.14C358.9 528.74 353.19 530.08 347.01 533.97C343.25 536.336 340.783 537.876 339.61 538.59C335.01 541.383 329.997 543.113 324.57 543.78C322.93 543.986 319.587 544.243 314.54 544.55C314.185 544.57 313.845 544.7 313.566 544.922C313.286 545.144 313.082 545.447 312.98 545.79L309.64 557.06C309.508 557.514 309.491 557.992 309.59 558.45C311.757 568.65 313.717 578.583 315.47 588.25C316.737 595.183 319.757 611.533 324.53 637.3C325.997 645.206 327.33 651.736 328.53 656.89C333.81 679.65 340.657 702.186 349.07 724.5C352.437 733.426 355.347 739.37 357.8 742.33C368.11 754.77 384.54 757.65 400.1 753.05C410.74 749.903 420.277 746.776 428.71 743.67C442.67 738.53 456.54 731.926 470.32 723.86C475.093 721.06 480.617 717.336 486.89 712.69C499.29 703.51 516.593 691.376 538.8 676.29C541.873 674.203 544.917 671.51 547.93 668.21C552.43 663.28 554.83 657.21 553.62 650.53C553.593 650.37 553.52 650.236 553.4 650.13C552.107 649.01 551.38 648.36 551.22 648.18C542.593 638.66 537.147 632.27 534.88 629.01C526.8 617.38 521.86 606.01 516.54 591.99C515.873 590.236 515.31 589.043 514.85 588.41C514.243 587.57 513.13 587.006 511.51 586.72C506.877 585.9 503.473 585.566 501.3 585.72C493.087 586.286 485.213 588.606 477.68 592.68C473.35 595.02 465.42 599.16 458.71 601.89C452.603 604.376 447.687 606.476 443.96 608.19C437.147 611.323 431.87 614.136 428.13 616.63C410.53 628.336 396.177 643.146 385.07 661.06C384.27 662.353 383.29 662.703 382.13 662.11C382.103 662.096 382.077 662.086 382.05 662.08C380.683 661.42 380.35 660.48 381.05 659.26C386.697 649.42 393.577 640.59 401.69 632.77C401.745 632.719 401.785 632.653 401.805 632.58C401.825 632.508 401.824 632.431 401.802 632.359C401.78 632.287 401.738 632.222 401.681 632.173C401.624 632.123 401.554 632.091 401.48 632.08C398.6 631.59 396.62 632.18 393.25 633.02C388.283 634.26 383.933 636.56 380.2 639.92C379.053 640.946 378.003 640.91 377.05 639.81C377.037 639.796 376.997 639.76 376.93 639.7C375.85 638.633 375.893 637.593 377.06 636.58C383.38 631.09 390.97 628.17 399.36 627.65C402.02 627.483 404.603 627.266 407.11 627C407.435 626.965 407.742 626.833 407.99 626.62L413.45 621.96C413.71 621.733 413.69 621.536 413.39 621.37C409.11 618.95 404.263 617.033 398.85 615.62C397.317 615.22 396.767 614.316 397.2 612.91C397.22 612.856 397.23 612.826 397.23 612.82ZM461.29 541.07C460.623 544.083 460.95 548.573 462.27 554.54C462.67 556.36 464.68 561.42 467.25 561.16C470.557 560.826 473.123 559.26 474.95 556.46C475.61 555.446 475.873 554.636 475.74 554.03C475.72 553.943 475.023 550.72 473.65 544.36C473.303 542.746 472.66 541.28 471.72 539.96C471.546 539.712 471.318 539.506 471.053 539.357C470.789 539.208 470.494 539.12 470.19 539.1C469.077 539.026 467.123 539.063 464.33 539.21C462.557 539.303 461.543 539.923 461.29 541.07ZM734.56 561.15L744.61 568.94C744.74 569.041 744.868 569.124 744.979 569.182C745.091 569.239 745.184 569.27 745.25 569.27C749.743 569.203 752.72 567.086 754.18 562.92C754.393 562.3 754.417 561.28 754.25 559.86C753.97 557.37 751.56 556.36 749.22 555.28C745.16 553.406 742.707 552.336 741.86 552.07C739.79 551.41 738.15 551.72 736.56 553.06C734.187 555.053 733.4 557.573 734.2 560.62C734.253 560.823 734.38 561.01 734.56 561.15ZM465.23 573.82C465.27 573.993 465.39 574.073 465.59 574.06L478.23 572.91C478.617 572.876 478.783 572.673 478.73 572.3L477.35 562.96C477.343 562.909 477.323 562.861 477.292 562.819C477.261 562.778 477.221 562.744 477.174 562.722C477.126 562.699 477.074 562.688 477.021 562.69C476.969 562.691 476.917 562.705 476.87 562.73C472.763 564.856 468.29 565.483 463.45 564.61C463.427 564.606 463.404 564.607 463.382 564.615C463.361 564.623 463.341 564.636 463.325 564.654C463.309 564.672 463.298 564.693 463.292 564.717C463.286 564.741 463.285 564.766 463.29 564.79L465.23 573.82ZM740.89 575.34C739.203 573.16 738.06 571.736 737.46 571.07C733.29 566.44 725.84 569.66 726.41 575.64C726.577 577.393 727.11 578.6 728.01 579.26C731.11 581.52 733.997 584.256 736.67 587.47C737.563 588.536 738.767 588.65 740.28 587.81C742.12 586.79 743.377 585.65 744.05 584.39C745.66 581.37 742.98 578.04 740.89 575.34ZM495.88 576.3C478.747 577.593 465.417 578.516 455.89 579.07C453.097 579.236 451.243 579.59 450.33 580.13C445.47 582.99 445.75 586.83 447.11 592.53C447.597 594.59 447.99 597.316 448.29 600.71C448.323 601.11 448.53 601.246 448.91 601.12C459.85 597.43 473.16 589.68 480.55 586.3C487.39 583.166 494.65 581.52 502.33 581.36C504.057 581.32 504.48 580.913 503.6 580.14L501.92 578.68C499.94 576.94 497.927 576.146 495.88 576.3ZM521.85 585.61C521.27 585.95 520.4 586.02 519.79 586.17C519.403 586.27 519.287 586.503 519.44 586.87C523.833 597.79 526.057 603.316 526.11 603.45C530.443 614.616 537.037 625.296 545.89 635.49C549.383 639.51 551.807 642.25 553.16 643.71C553.385 643.953 553.697 644.098 554.029 644.113C554.36 644.128 554.684 644.012 554.93 643.79L564.89 634.89C565.017 634.775 565.119 634.636 565.192 634.481C565.265 634.326 565.306 634.159 565.313 633.989C565.321 633.818 565.294 633.648 565.235 633.489C565.176 633.329 565.086 633.184 564.97 633.06C556.59 624.106 549.98 615.14 545.14 606.16C541.627 599.653 537.8 591.323 533.66 581.17C532.993 579.523 531.79 578.856 530.05 579.17C529.303 579.303 528.363 579.98 527.23 581.2C525.51 583.06 523.717 584.53 521.85 585.61ZM723.43 599.63C724.377 601.163 725.71 603.1 727.43 605.44C727.803 605.946 728.273 606.066 728.84 605.8C734.85 602.98 736.39 597.57 733.06 592.11C732.753 591.603 731.717 590.18 729.95 587.84C727.977 585.22 725.613 584.476 722.86 585.61C719.66 586.923 718.313 589.296 718.82 592.73C719.17 595.14 722.24 597.68 723.43 599.63ZM716.58 619.59C715.81 621.37 711.55 624.42 709.91 625.27C708.697 625.91 706.893 626.266 704.5 626.34C690.527 626.773 679.697 627.053 672.01 627.18C669.237 627.226 664.823 627.2 658.77 627.1C658.437 627.1 658.127 627.006 657.84 626.82C656.76 626.12 656.023 625.713 655.63 625.6C644.54 622.44 632.91 617.28 637.15 602.84C637.173 602.757 637.173 602.668 637.15 602.585C637.127 602.502 637.082 602.427 637.02 602.368C636.958 602.309 636.881 602.269 636.798 602.251C636.715 602.234 636.629 602.24 636.55 602.27L625.75 606.38C625.569 606.448 625.415 606.574 625.314 606.739C625.212 606.903 625.169 607.097 625.19 607.29C625.57 610.83 626.013 613.99 626.52 616.77C628.68 628.59 635.57 637.57 646.62 642.18C648.21 642.85 650.52 643.03 652.19 642.67C672.097 638.383 690.533 635.003 707.5 632.53C712.427 631.816 716.537 629.506 719.83 625.6C721.95 623.1 726.84 617.11 726.1 614.46C725.05 610.69 720.44 601.13 714.98 604.79C711.933 606.836 711.097 609.46 712.47 612.66C713.35 614.69 715.99 616.87 716.62 618.65C716.733 618.97 716.72 619.283 716.58 619.59ZM611.18 611.87C611 611.983 610.903 612.143 610.89 612.35C610.603 617.243 610.683 621.843 611.13 626.15C611.79 632.39 613.803 638.306 617.17 643.9C621.77 651.54 628.94 656.9 638.68 659.98C640.74 660.633 642.847 660.556 645 659.75C651.23 657.41 656.04 654.75 656.48 647.28C656.513 646.62 656.21 646.366 655.57 646.52C650.403 647.753 645.613 647.133 641.2 644.66C632.953 640.046 627.273 633.65 624.16 625.47C622.42 620.89 621.197 615.25 620.49 608.55C620.47 608.37 620.373 608.306 620.2 608.36C615.68 609.78 612.673 610.95 611.18 611.87ZM606.45 614.01C606.451 613.989 606.448 613.969 606.442 613.949C606.435 613.93 606.424 613.912 606.41 613.897C606.396 613.882 606.379 613.87 606.36 613.862C606.341 613.854 606.32 613.85 606.3 613.85C605.78 613.83 605.227 613.923 604.64 614.13C592.953 618.33 580.59 623.08 567.55 628.38C567.482 628.406 567.423 628.45 567.377 628.506C567.332 628.562 567.301 628.629 567.289 628.701C567.277 628.772 567.284 628.846 567.308 628.914C567.333 628.982 567.375 629.043 567.43 629.09C570.017 631.376 570.65 634.063 569.33 637.15C569.197 637.465 569.152 637.81 569.2 638.15C571.353 653.41 573.263 668.85 574.93 684.47C574.977 684.89 575.147 685.25 575.44 685.55C575.993 686.116 576.9 686.793 578.16 687.58C582.107 690.04 586.08 692.116 590.08 693.81C597.02 696.74 605.81 696.93 612.76 695.53C614.667 695.15 620.747 693.76 631 691.36C631.073 691.34 631.977 691.216 633.71 690.99C636.01 690.683 637.897 689.476 639.37 687.37C643.58 681.34 646.28 677.76 646.29 672.06C646.297 669 646.203 666.6 646.01 664.86C645.998 664.744 645.961 664.632 645.902 664.532C645.842 664.432 645.761 664.346 645.665 664.28C645.569 664.214 645.46 664.17 645.345 664.151C645.23 664.132 645.112 664.139 645 664.17C642.587 664.823 640.417 664.936 638.49 664.51C636.91 664.163 634.903 663.476 632.47 662.45C620.703 657.496 612.797 648.853 608.75 636.52C606.43 629.433 605.663 621.93 606.45 614.01ZM595.63 700.1C591.39 699.34 588.03 698.283 585.55 696.93C580.73 694.29 577.903 692.753 577.07 692.32C575.79 691.653 575.323 692.023 575.67 693.43C575.71 693.603 575.77 693.94 575.85 694.44C576.07 695.9 576.793 697.04 578.02 697.86C588.187 704.66 599.253 707.593 611.22 706.66C619.21 706.03 625.55 701.68 631.64 696.8C632.847 695.826 632.697 695.52 631.19 695.88C626.163 697.073 620.953 698.29 615.56 699.53C608.813 701.083 602.17 701.273 595.63 700.1ZM513.43 699.2C506.777 703.96 497.153 710.896 484.56 720.01C478.66 724.276 471.303 728.83 462.49 733.67C461.583 734.17 461.25 734.92 461.49 735.92C461.597 736.373 461.863 736.883 462.29 737.45C464.817 740.823 468.31 742.323 472.77 741.95C479.757 741.37 490.87 740.733 506.11 740.04C509.357 739.886 511.56 739.476 512.72 738.81C514.98 737.516 516.583 735.686 517.53 733.32C518.023 732.093 517.93 729.036 517.25 724.15C516.037 715.45 515.24 708.73 514.86 703.99C514.72 702.323 514.467 700.806 514.1 699.44C513.993 699.033 513.77 698.953 513.43 699.2ZM576.97 703.56L580.19 736.79C580.192 736.821 580.202 736.852 580.22 736.878C580.239 736.904 580.264 736.924 580.293 736.937C580.322 736.949 580.354 736.953 580.385 736.948C580.416 736.944 580.446 736.93 580.47 736.91L611.37 711.63C611.87 711.23 611.8 711.053 611.16 711.1C602.587 711.773 594.517 710.566 586.95 707.48C585.683 706.96 582.54 705.53 577.52 703.19C577.107 703.003 576.923 703.126 576.97 703.56Z" fill="black"/>
<path d="M352.51 264.87C352.504 265.485 352.3 266.073 351.941 266.512C351.582 266.951 351.094 267.208 350.58 267.23C350.52 267.23 350.486 267.23 350.48 267.23C349.782 267.079 349.157 266.743 348.709 266.278C348.261 265.814 348.017 265.249 348.02 264.68C348.053 251.74 351.34 239.653 357.88 228.42C361.993 221.353 367.156 215.423 373.37 210.63C378.043 207.03 383.44 204.74 389.56 203.76C391.026 203.526 392.14 204.13 392.9 205.57C392.9 205.57 392.976 205.726 393.13 206.04C393.237 206.26 393.287 206.504 393.276 206.748C393.264 206.993 393.192 207.231 393.064 207.44C392.937 207.649 392.759 207.823 392.546 207.945C392.334 208.067 392.094 208.134 391.85 208.14C384.42 208.31 377.37 212.6 372.34 217.55C359.3 230.363 352.69 246.136 352.51 264.87Z" fill="black"/>
<path d="M483.44 315.58C488.48 316.387 494.033 316.06 500.1 314.6C500.678 314.461 501.283 314.536 501.786 314.809C502.289 315.082 502.649 315.531 502.79 316.06L502.89 316.44C503.001 316.86 502.963 317.301 502.783 317.676C502.603 318.051 502.295 318.331 501.92 318.46C495.77 320.55 489.27 320.67 482.79 319.65C476.32 318.63 470.17 316.52 464.96 312.64C464.644 312.402 464.437 312.04 464.381 311.628C464.326 311.217 464.425 310.785 464.66 310.42L464.87 310.09C465.166 309.628 465.646 309.31 466.209 309.203C466.771 309.097 467.371 309.21 467.88 309.52C473.207 312.78 478.393 314.8 483.44 315.58Z" fill="black"/>
<path d="M530.95 337.27C530.65 339.53 531.547 343.056 533.64 347.85C536.24 353.783 535.137 358.47 530.33 361.91C529.841 362.261 529.265 362.474 528.665 362.525C528.065 362.576 527.462 362.463 526.92 362.2C526.78 362.133 526.707 362.093 526.7 362.08C525.36 361.086 525.18 360.093 526.16 359.1C528.31 356.92 532.08 356.04 530.26 351.44C528.793 347.74 527.817 345.086 527.33 343.48C526.08 339.33 526.49 333.47 530.64 331.06C531.195 330.736 531.832 330.6 532.438 330.675C533.045 330.75 533.583 331.031 533.96 331.47C535.67 333.45 532.91 335.12 531.41 336.41C531.15 336.636 530.997 336.923 530.95 337.27Z" fill="black"/>
<path d="M488.98 345.74C492.907 345.74 496.09 342.556 496.09 338.63C496.09 334.703 492.907 331.52 488.98 331.52C485.053 331.52 481.87 334.703 481.87 338.63C481.87 342.556 485.053 345.74 488.98 345.74Z" fill="black"/>
<path d="M510.26 383.54C512.47 383.96 515.09 381.94 518.01 380.17C518.143 380.089 518.297 380.048 518.453 380.052C518.609 380.056 518.76 380.103 518.89 380.19C519.69 380.723 520.273 381.49 520.64 382.49C520.694 382.639 520.709 382.799 520.683 382.955C520.657 383.111 520.59 383.258 520.49 383.38C519.45 384.633 518.08 385.643 516.38 386.41C511.246 388.73 506.646 388.037 502.58 384.33C501.586 383.423 501.506 382.403 502.34 381.27C502.373 381.23 502.39 381.207 502.39 381.2C503.316 380.147 504.276 380.043 505.27 380.89C506.996 382.35 508.66 383.233 510.26 383.54Z" fill="black"/>
<path d="M706.6 467.33L710 463.58C710.24 463.313 710.446 463.337 710.62 463.65C710.666 463.737 710.733 463.81 710.82 463.87C710.9 463.923 710.986 463.953 711.08 463.96L728.24 464.93C728.31 464.934 728.375 464.932 728.428 464.925C728.482 464.919 728.523 464.906 728.55 464.89L729.35 464.41C729.414 464.367 729.467 464.307 729.501 464.236C729.536 464.165 729.55 464.088 729.542 464.015C729.535 463.941 729.506 463.874 729.459 463.823C729.412 463.773 729.349 463.74 729.28 463.73C722.733 463.21 716.983 462.707 712.03 462.22C711.736 462.187 711.33 462.327 710.81 462.64C710.523 462.813 710.366 462.73 710.34 462.39L710.03 458.62C718.576 459.207 726.97 459.76 735.21 460.28C739.09 460.52 742.15 463.45 739.62 467.36C738.9 468.48 738 469.06 736.92 469.1C735.173 469.173 732.493 469.083 728.88 468.83C718.7 468.103 712.69 467.697 710.85 467.61C709.476 467.55 708.06 467.457 706.6 467.33ZM735.204 464.314C735.195 464.222 735.06 464.145 734.828 464.102C734.595 464.058 734.286 464.051 733.966 464.082C733.808 464.097 733.652 464.121 733.508 464.153C733.363 464.184 733.233 464.223 733.124 464.266C733.016 464.309 732.93 464.356 732.874 464.404C732.818 464.452 732.791 464.5 732.795 464.546C732.804 464.639 732.94 464.715 733.172 464.758C733.404 464.802 733.714 464.809 734.033 464.779C734.191 464.763 734.347 464.739 734.492 464.708C734.636 464.676 734.766 464.638 734.875 464.594C734.984 464.551 735.069 464.504 735.125 464.456C735.182 464.408 735.208 464.36 735.204 464.314Z" fill="black"/>
<path d="M701.481 459.989C700.749 461.094 700.989 462.541 702.016 463.221C703.043 463.901 704.468 463.556 705.2 462.451C705.931 461.345 705.692 459.898 704.665 459.218C703.638 458.539 702.212 458.884 701.481 459.989Z" fill="black"/>
<path d="M401.22 562.61C395.587 559.856 389.037 557.91 381.57 556.77C381.282 556.725 381.007 556.622 380.762 556.468C380.516 556.313 380.307 556.111 380.146 555.873C379.986 555.635 379.878 555.368 379.831 555.088C379.783 554.808 379.796 554.523 379.87 554.25L379.97 553.89C380.105 553.397 380.39 552.967 380.772 552.683C381.155 552.398 381.606 552.28 382.04 552.35C390.72 553.703 398.45 556.186 405.23 559.8C406.783 560.633 407.95 561.646 408.73 562.84C408.91 563.12 408.947 563.416 408.84 563.73C408.547 564.616 407.917 565.256 406.95 565.65C406.67 565.77 406.353 565.756 406 565.61C404.86 565.14 402.7 563.34 401.22 562.61Z" fill="black"/>
<path d="M641.555 553.159L629.286 557.336C628.199 557.706 627.617 558.887 627.988 559.975L628.065 560.202C628.435 561.29 629.617 561.871 630.704 561.501L642.973 557.324C644.06 556.954 644.642 555.772 644.272 554.685L644.194 554.458C643.824 553.37 642.642 552.789 641.555 553.159Z" fill="black"/>
<path d="M743.476 564.309C745.351 564.883 747.231 564.17 747.675 562.717C748.119 561.265 746.959 559.623 745.084 559.05C743.209 558.476 741.329 559.189 740.885 560.642C740.441 562.094 741.601 563.736 743.476 564.309Z" fill="black"/>
<path d="M651.098 568.313L640.402 571.83C639.268 572.203 638.652 573.424 639.024 574.557L639.074 574.709C639.447 575.842 640.668 576.459 641.801 576.086L652.497 572.569C653.631 572.197 654.247 570.976 653.875 569.843L653.825 569.691C653.452 568.557 652.231 567.941 651.098 568.313Z" fill="black"/>
<path d="M736.453 581.263C738.287 580.836 739.473 579.195 739.101 577.597C738.729 575.999 736.941 575.05 735.106 575.477C733.272 575.904 732.087 577.545 732.458 579.143C732.83 580.74 734.618 581.689 736.453 581.263Z" fill="black"/>
<path d="M655.7 586.68L655.95 587.14C656.483 588.166 656.163 588.876 654.989 589.27C652.216 590.216 648.936 591.19 645.15 592.19C643.69 592.57 642.556 592.17 641.75 590.99C641.716 590.943 641.7 590.92 641.7 590.92C640.946 589.64 641.213 588.736 642.5 588.21C645.733 586.883 649.206 585.97 652.919 585.47C653.508 585.39 654.091 585.464 654.589 585.681C655.087 585.897 655.475 586.246 655.7 586.68Z" fill="black"/>
<path d="M726.678 596.216C728.53 595.822 729.801 594.412 729.515 593.067C729.229 591.722 727.495 590.951 725.642 591.344C723.789 591.738 722.519 593.148 722.805 594.493C723.091 595.838 724.825 596.61 726.678 596.216Z" fill="black"/>
<path d="M452.042 682.86L444.582 682.312C443.409 682.226 442.388 683.107 442.302 684.281L442.289 684.46C442.203 685.633 443.084 686.654 444.257 686.74L451.717 687.288C452.89 687.374 453.911 686.493 453.997 685.32L454.01 685.14C454.097 683.967 453.215 682.946 452.042 682.86Z" fill="black"/>
<path d="M452.87 708.86C457.563 710.173 462.293 709.097 467.06 705.63C468.287 704.743 469.313 704.923 470.14 706.17C470.153 706.197 470.193 706.253 470.26 706.34C471.153 707.493 470.96 708.507 469.68 709.38C463.533 713.567 457.54 714.797 451.7 713.07C445.807 711.537 441.31 707.39 438.21 700.63C437.563 699.223 437.92 698.257 439.28 697.73C439.38 697.69 439.443 697.66 439.47 697.64C440.823 697 441.797 697.377 442.39 698.77C444.683 704.197 448.177 707.56 452.87 708.86Z" fill="black"/>
<path d="M507.372 731.301L475.558 733.024C474.538 733.079 473.756 733.951 473.811 734.971L473.841 735.53C473.897 736.551 474.768 737.333 475.789 737.278L507.602 735.555C508.622 735.5 509.404 734.628 509.349 733.607L509.319 733.048C509.264 732.028 508.392 731.246 507.372 731.301Z" fill="black"/>
</g>
<defs>
<clipPath id="clip0_93_6534">
<rect width="1024" height="1024" fill="none"/>
</clipPath>
</defs>
</svg>
