<svg width="1024" height="941" viewBox="0 83 1024 941" fill="none" xmlns="http://www.w3.org/2000/svg">
<g clip-path="url(#clip0_93_2382)">
<rect width="1024" height="1024" fill="none"/>
<path d="M503.57 223.54C535.29 211.65 568.98 203.8 603 204.39C619.02 205.36 635.09 207.51 650.43 212.41C667.83 217.65 684.07 226.19 699.1 236.31C700.88 229.17 702.98 221.06 698.67 214.36C697.33 211.39 693.99 210.84 691.32 209.67C688.82 207.9 691.45 204.43 694 205.13C699.18 206.24 702.56 211.19 704.29 215.89C707.07 223.49 705.28 231.71 702.69 239.08C703.75 239.97 704.82 240.85 705.91 241.72C710.99 235.21 718.78 231.21 726.91 230.24C731.09 229.85 736.66 231.29 737.61 236.05C738.75 238.49 736.81 241.8 733.95 241.17C726.53 241.21 719.32 243.28 712.68 246.47C736.71 267.25 753.35 296.18 759.51 327.34C764.44 349.81 765.96 373.02 764.2 395.96C761.73 437.94 748.55 480 722.73 513.56C712.89 526.07 700.69 536.519 687.85 545.849C679.55 551.979 670.32 556.769 662.4 563.409C662.35 563.719 662.26 564.349 662.21 564.669C679.34 554.519 695.95 543.22 710.01 529.02C737.68 502.81 755.32 467.18 762.73 430.03C763.81 425.96 763.56 421.37 766.15 417.84C769.19 417.98 772.21 418.44 775.15 419.28C793.79 424.46 812.3 432.06 826.9 445.07C836.96 453.74 844.69 464.939 849.46 477.329C849.11 477.879 848.77 478.44 848.45 479C848.79 479.14 849.46 479.409 849.8 479.549C854.22 492.269 853.07 506.289 849.11 518.979C846.21 528.839 841.65 538.47 841.76 548.95C841.55 554.57 843.15 560.2 846.06 564.99C850.64 570.92 857.19 574.889 863.83 578.159C872.13 582.299 880.23 587.739 885.19 595.789C894.21 609.279 894.27 626.6 891.31 642C888.12 659.13 875.96 673.879 860.32 681.289C846.17 688.229 830.08 688.73 815.19 693.32C806.35 695.6 798.89 701.29 792.55 707.65C783.59 716.08 772.3 722.319 760 723.969C751.38 725.849 742.55 724.61 733.86 724.13C749.14 731.89 768.69 732.71 783.58 723.57C789 720.13 794.92 716.96 798.73 711.62C801.51 707.82 803.74 703.4 807.85 700.81C813.66 696.39 821.13 695.59 828.09 694.37C838.41 692.65 849.69 692.859 858.7 686.799C863.13 683.859 868.3 681.949 871.97 677.979C875.51 674.869 879.14 671.8 881.83 667.88C884.75 664.47 886.18 659.77 890.07 657.25C890.53 658.39 891.86 659.45 891.57 660.83C890.3 667.39 886.4 673.149 881.93 677.979C874.45 686.239 864 691 853.57 694.38C842.11 697.4 830.16 697.94 818.61 700.51C813.08 701.66 808.43 705.4 805.25 709.96C810.72 707.43 816.13 704.53 822.19 703.68C832.8 701.73 843.56 700.39 853.97 697.49C866.52 693.76 878.83 687.459 887.05 676.979C895.29 666.409 899.7 653.18 900.95 639.93C902.88 625.51 901.01 610.14 893.56 597.44C889.5 590.33 882.69 585.3 875.63 581.43C868.44 577.74 860.86 574.62 854.48 569.57C849.58 565.31 845.49 559.61 844.76 553.02C845.99 552.7 848.12 551.35 848.93 553.07C850.58 557.18 851.91 561.669 855.36 564.719C863.41 572.329 874.43 575.379 883.47 581.539C891.62 586.869 897.77 594.97 901.15 604.08C907.13 619.8 906.73 637.319 902.74 653.469C899.05 668.239 890.82 682.379 877.91 690.859C865.34 699.659 850.16 703.17 835.25 705.57C834.42 705.46 833.76 705.069 833.27 704.419C833.28 704.839 833.3 705.67 833.31 706.08C831.79 708.26 827.93 703.68 828.03 707C817.64 708.18 808.31 713.31 799.25 718.18C795.84 719.67 794.2 723.32 791.01 725.12C779.18 733.49 763.96 735.119 749.89 733.729C738.16 732.299 728.24 725.51 717.3 721.64C714.26 720.76 712.93 717.37 709.94 716.44C711.52 720.46 713.09 724.49 714.54 728.56C731.68 778.1 744.3 829.04 756.23 880.03C767.4 927.79 777.77 975.75 786.62 1024H782.7C778.52 1004.44 775.2 984.659 770.95 965.099C759.83 912.649 747.96 860.349 734.37 808.479C726.79 779.999 718.56 751.66 708.51 723.95C701.24 703.39 692.92 683.189 682.59 663.979C675.25 664.689 668.26 667.18 661.22 669.2C645.76 674.16 630.54 679.79 615.34 685.45C608.78 704.36 603.66 723.759 598.57 743.109C597.53 746.109 597.61 750.08 595.05 752.24C594.56 752.17 593.58 752.02 593.09 751.94C592.26 747.89 594.26 743.95 594.95 740.01C599.59 722.35 604.59 704.77 609.95 687.31C605.5 689.56 600.77 691.16 596.33 693.4C595.24 694.68 594.9 696.429 593.77 697.669C581 709.919 567.9 721.849 556.27 735.219C534.02 760.109 514.78 789.21 508.21 822.44C504.07 841.88 501.11 861.539 497.62 881.099C492.38 911.959 487.22 942.87 483.94 974.02C482.33 989.34 480.44 1004.69 479.94 1020.09C482.81 1021.15 485.57 1022.47 488.23 1024H355.31C358.83 1021.66 362.17 1019.05 365.46 1016.4C366.5 1015.6 366.6 1014.18 366.68 1013C367.21 999.67 367.88 986.329 369.7 973.109C371.17 961.799 367.48 950.82 364.55 940.07C361.33 927.31 361.35 914.07 361.28 901C360.42 893.46 361.59 885.83 360.92 878.31C358.71 876.17 356.04 874.619 353.47 872.979C350.66 878.589 347.62 884.11 343.66 888.99C348.42 903.57 353.71 917.98 360.03 931.96C359.67 932.41 358.95 933.31 358.59 933.76C356.36 934.67 355.66 931.64 354.69 930.27C347.87 915.39 342.81 899.8 337.36 884.38C324.39 845.94 311.42 807.409 302.23 767.849C299.96 756.819 297.32 745.29 300.2 734.12C301.44 729.62 302.35 725.05 303.06 720.45C303.56 720.48 304.55 720.55 305.05 720.58C304.56 720.51 303.58 720.38 303.1 720.31C304.27 710.19 306.13 700.17 307.43 690.07C308.73 680.61 314.41 672.39 315.48 662.9C315.75 655.33 313.44 647.969 310.96 640.919C306.67 628.509 301.1 616.53 297.98 603.74C296.21 606.12 294.79 608.74 293.21 611.24C290.76 608.71 290.05 612.66 289.29 614.38C285.22 624.84 290.71 635.88 288.75 646.53C287.42 651.26 285.4 656.809 280.49 658.849C279.9 658.489 278.72 657.769 278.13 657.409C279.99 654.149 283.5 651.95 284.33 648.08C286.93 638.53 282.82 628.72 284.09 619.06C284.75 614.05 286.39 608.74 290.71 605.7C293.74 603.41 295.89 597.149 300.55 599.409C303.85 609.059 306.92 618.819 310.62 628.349C314.94 640.069 320.54 652.08 319.34 664.89C317.82 675.46 311.25 684.66 310.88 695.5C310.42 695.49 309.49 695.46 309.03 695.44C309.49 695.5 310.42 695.62 310.88 695.68C308.42 709.06 307.73 722.759 304.1 735.909C302.94 740.489 303 745.31 303.11 750C306.36 770.73 312.29 790.899 318.04 811.039C324.66 832.829 331.72 854.47 339.05 876.03C340 878.71 340.54 881.59 342.01 884.07C343.8 882.08 344.91 879.62 346.3 877.37C347.91 874.5 350.2 871.78 350.17 868.32C354.75 864.55 356.59 858.65 360.19 854.09C362.79 851 361.41 846.66 361.82 843C362.48 836.67 362.1 830.279 363.08 823.979C362.85 816.919 364.61 809.65 362.39 802.77C361.87 802.43 360.82 801.74 360.3 801.4C358.92 796.98 357.9 791.71 360.62 787.59C361.52 785.51 363.82 784.929 365.56 783.799C369.18 776.949 372.08 769.75 374.43 762.38C378.73 748.01 379.32 732.919 380.09 718.049C380.42 710.119 384.22 702.93 388.22 696.27C398.16 679.79 409.61 664.3 420.57 648.5C433.11 630.67 445.05 612.439 456.33 593.789C440.34 580.739 428.17 563.21 420.86 543.95C414.55 527.42 412.55 509.52 412.94 491.92C411.51 488.15 406.81 485.57 407.67 481.07C408.2 477.43 412.04 476.2 414.91 474.84C415.86 460.18 415.1 445.45 413.13 430.9C411.19 416.64 409 402.38 405.7 388.36C398.04 385.71 392.26 379.94 386.43 374.58C379.33 368.16 376.11 358.42 375.31 349.11C374.34 342.06 377.41 335.39 378.98 328.67C376.2 331.36 374.79 335.06 373.51 338.62C372.69 341.24 371.67 344.01 372.39 346.78L371.9 346.34C371.13 353.83 373.82 360.97 376.23 367.91C375.24 369.21 374.26 370.52 373.28 371.82C366.76 366.4 363.85 357.98 361.6 350.08C357.83 334.55 358.96 317.25 367.27 303.32C374.77 290.9 387.13 282.62 399.12 275C395.42 275.81 392.29 278.07 389.04 279.89C384.94 282.18 381.57 285.87 376.79 286.77C376.93 285.23 376.96 283.49 378.22 282.38C383.22 277.08 389.7 273.53 396.06 270.14C406.89 264.47 419.16 262.71 431.13 261.2C435.75 260.75 440.01 258.54 443.57 255.65C445.09 254.56 444.85 252.41 445.91 251.02C464.4 240.44 483.66 231.16 503.57 223.54ZM712.02 242.05C718.27 239.01 725.05 236.12 732.2 237.05C733.64 235 730.27 234.76 729.01 234.83C722.72 234.85 716.44 237.6 712.02 242.05ZM507.2 341.35C507.84 347.88 508.09 354.58 510.28 360.83C512.23 366.14 517 369.61 521.7 372.37C523.98 373.72 527.1 376.3 525.32 379.21C523.64 383.92 517.94 383.06 514 383C510.43 382.61 506.94 384.81 503.44 383.5C492.47 379.22 485.3 369.1 480.25 358.92C479.4 356.82 479.14 354.53 478.65 352.34L477.87 352.81C477.34 358.91 478.56 365.16 481.42 370.6C483.07 374.47 486.01 377.83 486.69 382.08C486.58 385.7 483.31 388.07 480.06 388.77C476.65 388.41 473.54 386.59 470.08 386.52C458.02 385.64 448.06 377.35 441.1 368C439.71 366.39 439.61 363.82 437.78 362.64C437.62 365.45 437.65 368.31 438.38 371.05C440.37 376.19 445.11 379.57 447.58 384.42C449.4 388.1 444.6 392.67 440.97 390.75C435.08 388.26 429.86 384.47 424.04 381.83C418.49 377.45 413.58 372.15 410.22 365.89C409.39 364.38 408.83 362.61 407.31 361.65C406.64 367.79 405.63 374.95 410.25 379.9C412.67 382.27 412.05 385.61 410.08 388.05C410.47 391.69 411.7 395.18 412.41 398.77C415.57 400.38 419.38 395.85 422.71 397.45C425.41 400.51 424.76 406 421.05 408C419.01 409.71 416.31 409.36 413.92 408.83C414.99 414.98 415.8 421.17 416.69 427.35C416.94 429.18 417.2 431.01 417.46 432.85C418.12 432.83 419.44 432.8 420.1 432.78C421.7 434.08 422.64 435.95 423.02 437.96C423.88 442.24 424.44 446.7 423.61 451.02C423.18 452.76 421.7 453.97 419.95 454.26C419.8 452.87 419.65 451.5 419.49 450.12C418.92 457.85 419.79 465.62 418.72 473.31C427.42 469.2 437.07 464.73 441.53 455.62C443.04 451.25 443.03 446.54 442.65 441.99C442.37 437.99 440.87 434.08 441.33 430.04C442.15 428.35 444.4 429.3 444.4 430.93C446.51 441.05 448.75 453.02 442.17 462C434.75 471.53 422.85 475.43 412.3 480.35C410.77 481.13 411.15 482.78 412.13 483.84C416.6 489.97 421.8 495.7 424.96 502.68C424.44 503.15 423.38 504.099 422.86 504.579C420.11 502.969 419.27 499.66 416.96 497.64C417.13 514.58 419.65 531.76 426.6 547.34C433.74 563.7 444.46 578.74 458.39 590.01C462.49 582.46 467.22 574.53 466.41 565.58C462.94 566.29 459.56 567.65 455.97 567.68C447.99 568.26 442.01 559.33 443.48 551.95C444.12 547.43 447.64 543.41 452.11 542.34C456.42 541.29 460.61 539.739 464.98 538.979C469.22 538.169 473.83 540.1 476.3 543.62C477 544.44 477.43 546.46 478.97 545.63C506.89 537.8 534.16 527.43 559.77 513.75C578.36 503.85 596.42 492.819 613.06 479.859C611.15 474.419 612.16 468.22 615.66 463.65C619.43 458.26 626.73 456.01 633.02 457.44C637.81 458.96 642.34 462.29 644.16 467.12C647.55 474.58 644.56 484.34 637.39 488.39C631.53 492.28 623.61 491.42 617.96 487.57C612.08 492.22 605.97 496.58 599.73 500.74C562.93 525.11 522.13 543.559 479.33 554.419C478.34 558.979 474.92 562.43 470.64 564.09C471.98 574.42 467.18 584.18 461.97 592.74C472.92 601.16 486.34 606.099 499.97 607.979C503.01 607.819 505.96 608.429 508.94 608.909C519.99 608.119 531.23 607.62 541.92 604.25C543.65 603.2 544.46 605.5 544.94 606.68C540.36 609.83 534.48 610.12 529.15 611.01C533.97 622.22 536.91 634.17 542.02 645.26C561.62 637.07 581.58 629.62 602 623.71C615.97 619.28 630.15 615.44 644.48 612.39C643.23 607.86 640.94 603.65 640.28 598.95C639.61 592.46 638.81 585.499 641.75 579.409C639.68 579.659 635.6 579.13 637.06 576.06C642.14 574.43 648.34 574.51 651.98 570C652.59 568.95 654.37 567.939 653.57 566.609C650.7 565.879 647.89 564.99 645.06 564.19C639.97 563.4 634.99 561.11 629.78 562.38C626.55 560.49 624.86 557.039 622.75 554.109C618.44 547.539 616.48 539.76 615.93 531.99C615.54 527.81 616.75 523.69 616.55 519.51C614.67 520.28 613.97 522.359 613.16 524.049C607.62 538.069 613.64 555.72 626.71 563.31C630.56 565.58 635.35 563.93 639.23 565.74C640.77 567.67 642.83 568.81 645.31 569.12C644.82 570.49 643.43 571.379 641.97 571.099C640.89 570.289 639.94 569.34 638.75 568.71C634.82 570.67 630 569.16 625.99 568.01C607.87 559.59 600.89 534.25 611.83 517.57C608.49 516.27 604.76 515 602.62 511.94C602.29 510.3 604.27 507.87 606.05 508.94C608.94 510.67 611.49 513.15 614.88 513.9C618.58 514.66 622.28 515.53 626.04 516C637.16 516.47 648.25 511.93 656.19 504.16C663.08 497.15 667.73 487.849 668.8 478.049C670.02 464.619 663.98 450.83 653.53 442.36C646.8 437.25 638.56 433.56 629.95 434.08C618.49 433.49 607.52 439.58 600.42 448.3C598.95 450.59 598.38 454.35 595.03 454.48C592.28 451.91 588.14 452.62 585 450.76C573.74 446.04 564.82 436.43 560.48 425.07C557.54 417.82 557.26 409.88 557.59 402.16C558.2 398.55 563.25 395.96 560.94 391.95C558.31 383.76 548.96 382.25 542 379.48C525.68 373.28 513.44 358.69 508.53 342.12C508.19 341.93 507.53 341.54 507.2 341.35ZM562.04 412.15C562.67 415.6 563.34 419.06 564.48 422.4C568.45 435.19 579.71 444.99 592.47 448.52C593.82 449.11 594.97 447.77 595.64 446.76C587.22 444.59 579.11 440.43 573.63 433.52C568.65 427.26 564.01 420.1 562.7 412.14L562.04 412.15ZM396.77 690.63C391.68 698.75 386.28 706.97 383.89 716.37C383 716.38 382.13 716.439 381.26 716.549C381.85 716.549 383.04 716.549 383.63 716.549C383.86 718.309 383.56 720.1 383.4 721.87C382.16 734.21 382.03 746.719 379.24 758.859C377.12 768.149 373.14 776.859 369.2 785.479C373.68 790.619 369.99 797.889 367.19 802.969C366.95 806.009 367.23 809.04 367.62 812.06C367.4 814.66 367.17 817.279 367.2 819.909C367.26 827.709 365.71 835.46 366.13 843.26C381.69 818.31 396.63 792.979 412.13 767.979C422.13 751.919 431.43 735.21 444.06 721.01C455.42 709.06 469.03 699.15 484 692.21C482.81 683.85 489.79 677.5 495.3 672.27C508 661.4 523.26 654.159 538.17 646.849C533.23 635.369 530.31 623.13 525.05 611.78C518.4 612 511.72 613.03 505.08 612.28C488.94 611.51 472.88 606.14 459.9 596.43C440.7 629.04 417.77 659.2 396.77 690.63ZM652.59 614.68C613.97 623.77 575.77 635.25 539.45 651.32C525.4 657.49 511.99 665.05 499.49 673.93C500.68 675.85 502.03 677.74 502.47 680.02C505.69 693.46 508.3 707.15 510.17 720.77C511.83 722.56 512.83 725.069 514.81 726.479C518.5 725.139 521.79 722.959 525.3 721.229C554.28 706.579 583.96 693.309 614.04 681.099C632.07 674.519 650.03 667.64 668.5 662.39C674.29 660.93 680.32 659.04 686.33 660.09C681.04 643.78 676.19 627.32 670.72 611.06C664.61 611.8 658.63 613.46 652.59 614.68ZM496.44 676.74C494.81 678.69 493.32 680.759 492.22 683.049C494.08 682.019 496.13 680.94 497.27 679.07C497.94 678.09 497.45 677.14 496.44 676.74ZM489.23 692.18C487.89 700.98 487.69 709.9 488.22 718.77C493.12 714.08 497.09 708.229 503.33 705.159C501.95 697.839 500.4 690.55 498.87 683.27C496 686.6 492.13 688.92 489.23 692.18ZM455.47 715.46C440.32 728.59 430.49 746.359 419.95 763.109C401.91 792.779 383.63 822.319 365.81 852.109C364.89 860.079 365.85 868.15 365.18 876.14C373.19 883.25 380.46 891.22 386.61 900C390.23 888.5 394.42 877.07 400.68 866.7C420.46 834.67 442.04 803.78 461.65 771.64C462.33 767.48 461.98 763.22 462.7 759.07C462.64 756.43 461.96 751.93 466.11 752.69C467.39 755.13 467.02 757.93 467.1 760.59C468.76 758.97 469.62 756.76 470.76 754.78C473.76 748.77 477.01 742.88 479.79 736.76C481.85 732.13 484.77 727.91 486.37 723.09C485.34 721.86 484.49 720.46 484.25 718.87C483.31 711.51 483.67 704.07 484.25 696.7C473.93 701.74 464.33 708.18 455.47 715.46ZM355.76 868.979C357.47 870.429 359.26 871.79 361.06 873.15C361.11 869.01 361.22 864.87 361.07 860.75C359.04 863.3 357.59 866.269 355.76 868.979ZM365.06 882.38C364.7 891.27 365.61 900.14 365.21 909.03C364.91 912.39 366.24 915.63 365.81 919C366.04 928.48 368.01 937.869 370.78 946.919C372.52 952.869 373.25 959.04 374.61 965.08C376.22 945.11 380 925.3 385.16 905.95C379.67 897.22 373.33 888.66 365.06 882.38Z" fill="#000000"/>
<path d="M384.13 258.23C394.27 250.09 407 245.4 419.93 244.5C427.35 244.45 435.42 244.26 441.99 248.24C442.22 250.29 439.64 250.79 438.12 250.23C413.9 243.35 386.27 255.04 373.35 276.42C371.07 280.55 368.45 284.8 368.07 289.62C368.56 289.43 369.53 289.04 370.02 288.85C370.94 289.45 371.86 290.06 372.77 290.69C370.64 294.45 367.32 297.32 364.84 300.83C357.44 311.64 352.91 324.76 353.89 337.96C355.13 353.05 362.43 368.52 376.01 376.17C376.71 377.46 376.73 378.86 375.85 380.08C370.61 379.4 366.78 375.08 363.24 371.52C347.03 353.71 345.24 325.6 357.07 304.98C358.84 301.28 362.19 298.19 362.27 293.86C364.81 279.83 372.87 266.93 384.13 258.23Z" fill="#000000"/>
<path d="M422.66 256.98C422.83 253.48 426.99 254.98 429.2 255.15C429.47 258.51 424.75 256.85 422.66 256.98Z" fill="#000000"/>
<path d="M409.91 256.65C412.53 255.88 415.49 256.24 417.88 257.58C412.64 259.62 407.08 260.66 401.81 262.64C391.64 266.13 382.48 272.93 376.77 282.1C375.99 283.82 372.89 283.17 373.63 281.02C375 277.02 378.28 274.15 381.17 271.23C388.96 263.52 399.44 259.28 409.91 256.65Z" fill="#000000"/>
<path d="M381.67 383.02C382.48 381.62 383.08 379.79 385 379.71C384.97 380.51 384.91 382.09 384.88 382.89C383.86 383.44 382.71 383.71 381.67 383.02Z" fill="#000000"/>
<path d="M471.31 391.329C473.42 389.839 476.47 391.549 478.97 391.119C486.22 390.489 491.89 395.589 497.19 399.729C499.01 401.129 500.51 403.769 499.01 405.949C497.33 409.309 492.61 408.969 490.08 406.809C486.82 404.079 484.15 400.379 479.97 398.969C477.16 397.799 473.86 398.339 471.26 396.629C469.57 395.259 469.82 392.739 471.31 391.329Z" fill="#000000"/>
<path d="M477.29 428.1C479.15 426.65 481.68 428.04 482.29 430.1C484.25 435.19 483.89 440.85 483.43 446.19C482.87 449.01 482.61 452.36 480.25 454.33C478.83 455.73 476.52 454.51 475.88 452.93C473.53 448.36 473.77 443.06 473.89 438.07C473.94 434.51 475.15 430.93 477.29 428.1Z" fill="#000000"/>
<path d="M223.8 499.669C227.02 499.209 231.04 498.879 233.42 501.579C236.3 504.629 236.86 508.979 238.13 512.819C250.04 556.499 261.52 600.279 273.03 644.069C279.35 664.519 283.96 685.449 289.68 706.079C290.99 711.349 292.68 716.609 293.09 722.059C292.03 724.489 289.55 725.989 287.16 726.899C284.19 727.889 280.69 728.949 277.88 726.989C276.65 727.819 275.64 729.359 273.99 729.309C266.29 729.679 258.58 729.249 250.88 729.539C246.89 729.629 242.85 729.789 238.89 729.099C234.92 728.359 232.38 724.569 231.41 720.899C230.22 716.099 228.51 711.439 227.74 706.549C224.92 707.429 222.28 708.819 219.45 709.669C214.99 710.709 210.35 710.619 205.84 709.989C205.79 708.049 206.8 706.259 208.89 706.139C213.15 706.149 217.43 705.899 221.56 704.799C220.94 703.749 220.4 702.659 220.02 701.509C223.26 700.569 226.56 699.559 229.25 697.439C220.49 694.749 211.79 691.819 202.91 689.519C199.14 688.809 195.07 689.869 191.93 692.019C189.87 693.629 189.86 696.449 191.48 698.379C197.71 706.489 202.64 715.479 207.77 724.299C210.15 728.039 212.28 732.589 216.66 734.329C221.96 736.269 227.55 737.289 232.9 739.039C234.81 739.829 237.34 741.459 236.8 743.859C235.48 744.149 234.15 744.149 232.79 743.849C236.57 755.219 237.79 767.209 239.94 778.949C245.48 814.579 250.53 850.279 254.95 886.059C257.37 905.569 259.59 925.129 262.74 944.539C266.08 962.459 270.01 980.539 278.1 996.999C283.55 1007.7 291.11 1017.68 301.51 1024H294.43C281.59 1014.31 273.74 999.519 268.5 984.619C260.8 962.689 257.58 939.539 254.59 916.599C252.48 898.729 250.15 880.879 247.97 863.019C245.39 842.479 242.19 822.019 239.36 801.519C236.88 785.599 234.66 769.619 231.28 753.869C229.9 750.079 229.85 745.659 227.88 742.219C221.55 739.889 213.58 739.789 209.12 734.009C203.02 725.189 198.47 715.399 192.41 706.539C190.26 703.399 187.66 700.459 186.33 696.849C185.61 692.439 188.75 688.319 192.77 686.819C189.57 684.249 186.71 680.969 185.28 677.079C184 673.609 187.92 671.149 190.85 670.639C187.93 667.289 183.92 663.749 184.15 658.929C184.85 654.259 189.89 652.119 194.07 651.659C191.14 648.149 189.2 643.979 186.96 640.029C184.54 635.579 181.79 631.129 180.88 626.089C180.48 620.749 185.36 616.699 190.29 615.969C186.81 612.069 183.52 606.399 185.9 601.129C186.97 597.899 189.82 595.929 192.44 594.039C186.3 573.979 181.15 553.619 175.43 533.429C174.08 528.569 172.54 523.259 174.51 518.349C175.55 515.529 178.39 514.099 180.94 512.919C194.61 506.769 209.1 502.549 223.8 499.669ZM185.47 515.469C182.44 516.759 178.6 517.489 177.09 520.819C179.95 519.829 182.22 517.599 185.15 516.719C193.63 513.779 202.06 510.329 211.06 509.359C214.1 508.879 217.44 510.319 218.91 513.089C220.43 515.839 221.18 518.929 221.94 521.959C225.34 534.949 228.34 548.039 232 560.959C235.61 572.549 238.05 584.459 241.36 596.139C251.9 636.279 262.04 676.539 272.54 716.679C273.06 716.919 274.11 717.389 274.63 717.629C270.92 705.819 268.22 693.709 264.76 681.819C255.08 644.369 245.1 606.989 235.31 569.579C230.84 553.369 226.21 537.139 222.94 520.649C221.61 517.419 221.1 513.829 219.15 510.879C217.38 508.219 213.84 507.769 210.92 508.169C202.2 509.669 193.85 512.699 185.47 515.469ZM228.84 513.789C229.59 516.429 229.07 520.709 232.01 521.959C231.7 520.169 230.92 518.499 230.52 516.739C230.07 515.669 230.65 513.789 228.84 513.789ZM188.42 525.349C188.23 525.749 187.86 526.549 187.67 526.939C188.29 531.679 189.88 536.259 191.31 540.809C192.21 543.469 195.64 541.999 197.57 541.529C200.59 539.839 204.72 539.789 207.02 537.099C206.8 531.049 204.48 525.249 202.11 519.739C197.21 520.469 192.57 522.739 188.42 525.349ZM235.68 540.739C236.53 543.249 237.36 545.789 237.58 548.459C237.89 548.569 238.51 548.779 238.83 548.889C238.12 546.199 238.79 541.749 235.68 540.739ZM202.06 549.359C202.47 555.749 204.69 561.819 206.21 567.999C209.61 567.899 213.19 566.699 215.62 564.259C214.05 558.449 212.89 552.539 210.64 546.929C207.72 547.519 204.99 548.779 202.06 549.359ZM239.84 555.659C240.23 557.839 240.71 560.009 241.26 562.159C241.29 563.199 241.81 563.809 242.82 563.989C241.84 561.299 242.26 557.269 239.84 555.659ZM245.07 574.589C256.66 616.939 267.68 659.439 278.84 701.909C279.42 703.159 279.28 705.399 281.26 705.429C280.62 703.959 280.06 702.519 279.75 700.959C268.79 660.509 258.29 619.919 247.39 579.449C246.81 577.739 247.11 575.349 245.07 574.589ZM206.07 588.989L206.21 590.099L205.19 590.009C201.62 595.389 194.51 596.659 190.22 601.269C187.5 604.049 189.8 607.919 191.18 610.799C192.61 613.209 193.72 616.739 197.02 616.999C199.1 617.269 200.97 618.229 202.87 619.059C202.9 617.909 202.57 616.869 201.87 615.959C200.46 616.019 199.05 616.049 197.64 616.069C197.46 612.519 201.24 612.079 203.59 610.679C207.14 607.989 210.37 604.509 211.56 600.109C212.44 597.019 213.21 593.179 211.09 590.429C209.01 592.969 206.77 595.379 204.33 597.589C202.87 597.319 200.81 595.889 202.6 594.479C204.1 592.629 205.74 590.909 207.37 589.189L206.07 588.989ZM184.4 624.919C185.8 630.469 188.99 635.319 191.65 640.319C193.53 643.479 194.96 646.969 197.41 649.749C199.09 650.149 200.82 649.199 202.53 649.549C206.57 650.229 209.89 652.789 213.17 655.069C212.39 651.189 210.98 647.489 210.04 643.649C207.98 643.789 205.93 643.889 203.88 644.109C201.94 644.359 199.77 645.459 198.03 644.039C196.84 642.169 198.62 640.929 199.77 639.749C201.43 641.119 204.6 641.339 205.95 639.459C204.21 639.199 200.05 639.879 202 636.799C206.24 635.689 210.82 637.359 215.02 635.779C210.21 634.249 210.32 628.219 206.33 625.689C202.28 623.179 197.79 621.199 193.11 620.229C189.71 619.809 185.12 621.019 184.4 624.919ZM188.03 658.139C187.87 662.689 192.12 665.789 195.02 668.759C198.97 667.649 203.29 667.309 207.1 669.109C213.76 671.949 220.46 675.439 227.95 674.879C227.49 674.449 226.59 673.569 226.13 673.129C229.55 671.269 233.5 670.529 237.22 669.439C232.67 668.119 229.18 664.739 224.92 662.819C221.89 661.069 218.2 661.389 215.11 659.799C210.52 658.059 206.7 654.649 201.94 653.379C196.96 653.619 192.55 656.299 188.03 658.139ZM188.89 676.429C190.39 680.469 195.91 681.779 196.18 686.309C198.47 685.999 200.5 684.149 202.88 684.859C207.41 685.689 211.67 687.499 216.1 688.699C221.48 690.179 226.43 692.999 231.94 693.999C232.59 692.109 232.73 689.509 235.01 688.839C238.72 687.659 242.48 686.609 246.26 685.619C237.81 682.159 228.96 679.709 219.92 678.439C213.31 677.299 207.72 672.989 201.07 672.069C196.68 671.929 192.32 673.789 188.89 676.429Z" fill="#000000"/>
<path d="M447.89 519.619C453.31 519.439 458.56 517.919 463.95 517.489C467.01 517.239 469.16 521.059 467.58 523.599C465.72 527.829 461.16 529.709 457.11 531.199C450.59 533.519 442.42 531.739 438.17 526.079C437.11 524.929 436.79 523.409 436.82 521.899C439.95 519.309 444.13 520.049 447.89 519.619ZM455.52 522.289C450.69 523.249 445.76 523.089 440.87 523.199C443.35 528.069 450.02 529.899 454.97 528.139C458.67 526.869 463.24 525.439 464.71 521.409C461.61 520.579 458.58 521.919 455.52 522.289Z" fill="#000000"/>
<path d="M194.53 526.359C194.89 526.119 195.61 525.649 195.97 525.409C197.89 527.949 198.97 530.979 200.07 533.939C201.53 536.269 197.39 537.679 196.6 535.419C195.33 532.609 194.23 529.469 194.53 526.359Z" fill="#000000"/>
<path d="M203.61 551.049C205.35 550.599 207.1 550.169 208.86 549.789C210.41 553.779 211.66 557.879 212.82 561.999C213.04 564.609 209.67 565.329 207.95 566.539C206.5 561.369 204.88 556.259 203.61 551.049Z" fill="#000000"/>
<path d="M601.62 555.919C600.73 553.629 604.09 552.079 605.76 553.219C607.67 557.179 609.23 561.429 612.32 564.679C617.75 570.509 624.98 575.279 633.14 575.749C632.88 577.409 632.86 579.279 631.47 580.469C621.95 579.619 613.43 573.719 607.44 566.509C605.14 563.219 602.35 559.969 601.62 555.919Z" fill="#000000"/>
<path d="M266.33 568.859C267.99 568.139 268.5 568.659 267.86 570.419C266.35 570.989 265.84 570.469 266.33 568.859Z" fill="#000000"/>
<path d="M662.54 821.999C662.46 819.109 663.23 814.529 666.97 814.609C671.46 815.099 672.69 820.219 673.7 823.839C676.67 837.659 676.47 851.899 676.92 865.959C675.29 918.679 671.88 971.389 667.3 1024H663.85L663.25 1023.49C666.31 986.059 669.31 948.579 670.81 911.089C671.64 905.779 670.72 900.379 671.68 895.089C672.15 889.749 671.62 884.369 672.29 879.039C671.89 872.269 670.13 865.679 669.09 858.999C667.22 846.609 663.75 834.489 662.54 821.999ZM667.2 819.519C666.27 824.739 667.89 829.889 668.9 834.969C670.3 840.939 671.05 847.039 672.61 852.969C672.46 847.329 671.63 841.709 671.32 836.079C670.41 830.489 670.25 824.469 667.2 819.519Z" fill="#000000"/>
</g>
<defs>
<clipPath id="clip0_93_2382">
<rect width="1024" height="1024" fill="none"/>
</clipPath>
</defs>
</svg>
