<svg width="1024" height="580" viewBox="0 220 1024 580" fill="none" xmlns="http://www.w3.org/2000/svg">
<g clip-path="url(#clip0_93_3575)">
<rect width="1024" height="1024" fill="none"/>
<path d="M131.16 238.37C132.267 237.19 133.28 235.864 134.2 234.39C137.18 229.61 141.49 226.29 147.01 225.43C154.69 224.237 160.91 226.034 165.67 230.82C170.53 235.7 171.95 243.71 179.69 245.28C182.11 245.78 184.39 245.8 186.7 246.79C202.16 253.39 196.36 276.78 180.12 276.18C156.227 275.294 135.817 274.427 118.89 273.58C115.337 273.4 112.137 272.174 109.29 269.9C97.69 260.63 103.79 240.74 119.11 240.66C122.83 240.63 128.42 241.31 131.16 238.37ZM139.56 235.48C135.87 240.51 133.06 245.2 125.99 245.55C122.42 245.73 118.22 245.03 114.91 246.4C109.73 248.54 107.31 254.34 108.51 259.94C109.91 266.43 115.18 268.64 121.26 268.85C140.247 269.504 159.93 270.284 180.31 271.19C188.35 271.55 193.58 262.5 189.75 255.56C186.95 250.49 182.48 251.1 177.75 249.91C171.58 248.36 167.85 242.95 164.8 237.49C159.64 228.28 145.79 226.99 139.56 235.48Z" fill="#000000"/>
<path d="M816.53 297.131C823.15 297.311 825.54 291.421 826.77 286.051C827.63 282.241 830.08 278.541 833.01 276.001C844.91 265.701 864.01 267.981 871.33 282.671C872.87 285.771 873.84 289.321 876.15 291.891C880.24 296.441 886.09 297.261 892.11 296.851C904.92 295.981 913.71 309.251 908.03 320.591C904.64 327.341 898.6 330.491 891.16 330.471C864.893 330.371 838.613 330.344 812.32 330.391C803.86 330.404 798.143 326.994 795.17 320.161C792.83 314.781 793.58 308.161 797.31 303.561C802.37 297.321 809.04 296.921 816.53 297.131ZM830.61 289.461C829.08 295.981 825.05 301.561 817.89 301.931C816.143 302.024 814.373 302.031 812.58 301.951C807.45 301.721 801.94 303.881 799.69 308.751C796.85 314.881 799.71 322.241 806.02 324.571C807.567 325.144 810.68 325.427 815.36 325.421C840.58 325.367 864.85 325.374 888.17 325.441C894.36 325.451 898.05 325.601 901.81 321.321C908.89 313.261 903.49 300.901 892.42 301.581C880.77 302.291 872.22 298.681 868.16 287.251C864.38 276.591 852.82 272.291 843.09 275.621C836.39 277.914 832.23 282.527 830.61 289.461Z" fill="#000000"/>
<path d="M809.77 594.83C807.73 596.99 805.873 596.863 804.2 594.45C804.02 594.19 803.773 594.063 803.46 594.07C771.027 594.517 738.767 595.377 706.68 596.65C702.167 596.83 697.477 597.06 692.61 597.34C687.823 597.613 683.217 597.78 678.79 597.84C678.403 597.847 678.207 598.043 678.2 598.43C677.947 614.643 678.17 630.89 678.87 647.17C679.83 669.67 679.68 691.99 679.8 714.98C679.893 733.067 680.363 753.533 681.21 776.38C681.214 776.513 681.244 776.643 681.299 776.764C681.355 776.885 681.434 776.993 681.532 777.083C681.629 777.172 681.744 777.241 681.87 777.285C681.995 777.329 682.128 777.348 682.26 777.34L699.3 776.26C699.66 776.233 699.843 776.043 699.85 775.69L699.9 772.8C699.903 772.652 699.958 772.51 700.056 772.4C700.153 772.29 700.286 772.219 700.43 772.2L700.77 772.15C700.845 772.139 700.922 772.157 700.985 772.201C701.048 772.246 701.093 772.313 701.11 772.39L701.79 775.23C701.897 775.677 702.18 775.9 702.64 775.9L706.18 775.92C706.315 775.92 706.449 775.893 706.573 775.84C706.697 775.787 706.809 775.709 706.902 775.612C706.995 775.514 707.067 775.399 707.113 775.273C707.159 775.147 707.178 775.014 707.17 774.88C706.67 767.027 705.937 759.697 704.97 752.89C704.46 749.26 704.65 745.8 704.47 742.24C704.466 742.155 704.445 742.071 704.409 741.993C704.373 741.916 704.322 741.847 704.259 741.789C704.195 741.731 704.122 741.687 704.041 741.658C703.961 741.629 703.875 741.616 703.79 741.62C700.643 741.767 697.397 741.513 694.05 740.86C693.949 740.84 693.846 740.842 693.745 740.864C693.645 740.886 693.55 740.929 693.467 740.99C693.383 741.051 693.313 741.129 693.26 741.218C693.207 741.308 693.173 741.407 693.16 741.51L692.68 745.3C692.613 745.833 692.843 746.157 693.37 746.27C695.643 746.75 697.817 746.943 699.89 746.85C700.095 746.841 700.299 746.879 700.487 746.962C700.674 747.046 700.84 747.172 700.97 747.33C702.17 748.763 703.01 750.477 703.49 752.47C703.559 752.764 703.551 753.071 703.467 753.36C703.383 753.65 703.225 753.913 703.009 754.123C702.793 754.333 702.526 754.482 702.236 754.557C701.945 754.632 701.639 754.63 701.35 754.55C698.39 753.757 695.293 753.197 692.06 752.87C690.273 752.683 688.573 752.237 686.96 751.53C686.656 751.398 686.395 751.183 686.206 750.91C686.017 750.636 685.908 750.314 685.89 749.98C685.677 745.553 685.873 741.29 686.48 737.19C686.553 736.693 686.804 736.239 687.187 735.913C687.569 735.588 688.057 735.412 688.56 735.42L703.21 735.66C703.797 735.667 704.08 735.377 704.06 734.79L703.85 728.17C703.83 727.57 703.52 727.23 702.92 727.15L688.67 725.25C687.981 725.159 687.348 724.821 686.887 724.3C686.426 723.778 686.168 723.107 686.16 722.41L685.88 693.02C685.879 692.874 685.906 692.729 685.962 692.594C686.017 692.458 686.099 692.335 686.202 692.232C686.305 692.129 686.428 692.047 686.564 691.992C686.699 691.936 686.844 691.909 686.99 691.91L696.42 691.95C696.521 691.95 696.621 691.975 696.71 692.022C696.799 692.069 696.874 692.137 696.93 692.22C697.277 692.72 697.437 693.24 697.41 693.78C697.397 694.213 697.603 694.393 698.03 694.32L699.28 694.1C699.478 694.068 699.656 693.961 699.777 693.803C699.898 693.645 699.953 693.447 699.93 693.25L698.93 684.29C698.89 683.903 698.673 683.733 698.28 683.78L694.73 684.24C694.397 684.28 694.2 684.467 694.14 684.8C693.887 686.267 694.247 687.39 695.22 688.17C696.02 688.81 695.91 689.143 694.89 689.17C694.257 689.183 693.603 689.173 692.93 689.14C692.537 689.12 692.277 688.923 692.15 688.55C691.843 687.683 691.85 686.69 692.17 685.57C692.41 684.71 692.083 684.263 691.19 684.23C688.97 684.14 685.87 684.29 685.53 681.34C685.1 677.58 684.83 672.7 686.05 669.04C686.177 668.667 686.43 668.443 686.81 668.37C690.29 667.67 693.65 668.32 697.05 669.19C697.837 669.39 698.17 669.087 698.05 668.28L696.89 660.68C696.77 659.893 696.467 659.82 695.98 660.46C695.6 660.96 695.127 661.063 694.56 660.77C692.2 659.543 691.693 660.07 693.04 662.35C693.307 662.803 693.673 663.18 694.14 663.48C694.224 663.537 694.29 663.617 694.33 663.711C694.369 663.805 694.379 663.908 694.36 664.007C694.341 664.106 694.292 664.196 694.221 664.266C694.15 664.336 694.059 664.383 693.96 664.4L690.17 665.1C689.955 665.139 689.735 665.131 689.523 665.077C689.312 665.022 689.115 664.923 688.946 664.785C688.777 664.647 688.639 664.474 688.543 664.279C688.447 664.083 688.395 663.868 688.39 663.65L688.34 661.28C688.327 660.927 688.173 660.647 687.88 660.44C687.54 660.207 687.227 660.063 686.94 660.01C686.583 659.941 686.259 659.756 686.02 659.482C685.781 659.209 685.64 658.863 685.62 658.5C685.307 651.847 685.163 644.437 685.19 636.27C685.197 635.257 685.417 634.35 685.85 633.55C686.017 633.243 686.273 633.053 686.62 632.98L689.29 632.44C689.59 632.38 689.873 632.427 690.14 632.58L694.12 634.83C694.88 635.263 695.187 635.047 695.04 634.18C694.62 631.773 694.323 629.39 694.15 627.03C693.983 624.717 693.757 622.37 693.47 619.99C693.163 617.41 692.993 614.883 692.96 612.41C692.957 612.311 692.928 612.214 692.876 612.13C692.824 612.045 692.751 611.976 692.665 611.93C692.578 611.883 692.481 611.86 692.384 611.864C692.286 611.867 692.192 611.897 692.11 611.95C684.75 616.59 678.88 606.39 685.35 602.63C686.597 601.903 688.047 601.71 689.7 602.05C689.993 602.11 690.217 602.27 690.37 602.53L691.92 605.06C692.173 605.467 692.36 605.437 692.48 604.97L693.11 602.55C693.181 602.269 693.345 602.021 693.575 601.843C693.805 601.666 694.088 601.57 694.38 601.57C729.993 601.71 765.617 600.737 801.25 598.65C805.283 598.417 809.287 598.08 813.26 597.64C818.41 597.93 823.66 597.05 828.94 596.77C832.51 596.59 834.51 598.36 834.73 601.8C838.077 653.467 842.65 708.973 848.45 768.32C848.68 770.66 846.49 771.79 844.55 772.1C803.057 778.773 760.553 784.727 717.04 789.96C713.33 790.41 709.9 791.48 709.52 785.79C709.46 784.817 708.943 784.357 707.97 784.41C706.24 784.5 704.46 784.78 702.85 783.92C701.93 783.44 701.33 783.08 700.23 783.17C695.443 783.577 691.007 783.907 686.92 784.16C684.36 784.32 682.2 782.84 679.63 782.6C677.703 782.427 675.83 782.003 674.01 781.33C672.39 780.73 670.9 780.96 669.26 781.12C669.105 781.134 668.949 781.117 668.801 781.07C668.653 781.024 668.516 780.948 668.399 780.848C668.281 780.748 668.185 780.626 668.117 780.489C668.048 780.352 668.008 780.203 668 780.05L667.71 775.1C667.695 774.884 667.617 774.677 667.485 774.504C667.354 774.332 667.175 774.202 666.97 774.13C664.13 773.137 661.593 771.68 659.36 769.76C659 769.453 658.797 769.537 658.75 770.01L657.94 778.53C657.84 779.617 657.267 779.993 656.22 779.66L655.19 779.33C654.117 778.983 653.55 778.243 653.49 777.11C653.35 774.117 653.393 770.85 653.62 767.31C653.634 767.075 653.558 766.844 653.408 766.664C653.257 766.484 653.043 766.368 652.81 766.34C650.12 766.03 647.2 766.75 646.28 763.31C646.173 762.883 645.93 762.567 645.55 762.36C637.65 757.98 630.527 754.947 624.18 753.26C622.6 752.84 622.13 751.66 622.07 750.18C621.95 747.007 621.903 743.983 621.93 741.11C621.937 740.403 621.583 740.06 620.87 740.08C600.123 740.713 580.763 741.477 562.79 742.37C561.383 742.443 560.65 741.777 560.59 740.37L560.57 740.09C560.49 738.297 561.35 737.363 563.15 737.29L621.26 735C621.416 734.995 621.563 734.929 621.671 734.817C621.78 734.705 621.84 734.556 621.84 734.4C621.827 715.567 621.86 696.117 621.94 676.05C621.95 672.2 624.14 671.95 626.46 669.8C626.78 669.513 626.943 669.153 626.95 668.72L627.58 630.2C627.583 630.084 627.562 629.968 627.519 629.859C627.476 629.751 627.412 629.652 627.33 629.568C627.248 629.485 627.15 629.418 627.042 629.372C626.934 629.326 626.818 629.301 626.7 629.3L617 629.19C615.767 629.177 615.147 628.553 615.14 627.32V626.68C615.133 625.38 615.78 624.717 617.08 624.69L626.57 624.48C626.843 624.475 627.104 624.362 627.296 624.166C627.488 623.97 627.597 623.706 627.6 623.43L628.11 568.2C628.11 567.753 627.89 567.533 627.45 567.54L609.75 567.74C609.665 567.74 609.584 567.775 609.524 567.837C609.464 567.899 609.43 567.983 609.43 568.07C609.583 585.67 610.14 602.313 611.1 618C611.55 625.34 612.01 633.1 611.22 640.53C608.11 669.59 590.87 694.52 568.99 713.15C552.96 726.8 534.84 739.54 516.83 751.58C509.223 756.587 501.41 761.467 493.39 766.22C488.87 768.9 486.84 768.61 482.25 766.74C469.95 761.727 457.933 756.603 446.2 751.37C419.02 738.837 392.693 725.17 367.22 710.37C367.147 710.328 367.067 710.3 366.984 710.289C366.9 710.278 366.815 710.284 366.734 710.306C366.653 710.329 366.577 710.367 366.511 710.419C366.445 710.472 366.391 710.536 366.35 710.61C358.49 725.35 347.91 739.04 335.52 749.77C330.293 754.297 323.853 758.987 316.2 763.84C312.46 765.86 308.57 768 304.53 770.26C301.84 771.77 299.92 770.78 296.89 769.71C295.43 769.197 293.967 768.817 292.5 768.57C282.4 766.89 272.37 765.27 263 761.02C255.713 757.487 249.63 753.56 244.75 749.24C221.68 728.83 209.56 702.27 206.3 671.73C205.78 666.863 205.537 660.41 205.57 652.37C205.637 638.77 205.717 625.773 205.81 613.38C205.837 609.893 207.587 608.197 211.06 608.29C218.893 608.503 226.527 608.03 233.96 606.87C235.013 606.703 235.527 606.087 235.5 605.02L234.84 580.24C234.836 580.101 234.805 579.964 234.748 579.837C234.691 579.709 234.61 579.595 234.508 579.499C234.407 579.404 234.288 579.329 234.158 579.279C234.028 579.23 233.889 579.206 233.75 579.21L214.77 579.76C213.317 579.807 212.54 579.103 212.44 577.65L212.42 577.31C212.313 575.683 213.077 574.853 214.71 574.82L233.86 574.4C234.1 574.395 234.327 574.295 234.494 574.123C234.661 573.951 234.753 573.72 234.75 573.48L233.96 522.94C233.959 522.84 233.938 522.742 233.898 522.65C233.859 522.558 233.802 522.475 233.73 522.406C233.659 522.336 233.574 522.281 233.482 522.244C233.389 522.207 233.29 522.189 233.19 522.19L197.07 522.69C196.475 522.697 195.899 522.479 195.459 522.08C195.019 521.681 194.748 521.131 194.7 520.54L194.64 519.85C194.533 518.53 195.143 517.86 196.47 517.84L232.53 517.28C232.702 517.277 232.872 517.241 233.03 517.173C233.188 517.104 233.331 517.006 233.45 516.882C233.57 516.759 233.665 516.613 233.728 516.453C233.791 516.293 233.823 516.122 233.82 515.95L233.07 465.77C233.069 465.666 233.047 465.564 233.006 465.468C232.965 465.373 232.906 465.287 232.832 465.214C232.757 465.142 232.669 465.085 232.573 465.046C232.477 465.008 232.374 464.989 232.27 464.99L196.96 465.25C196.43 465.256 195.917 465.08 195.51 464.75C193.337 463.03 193.573 461.587 196.22 460.42C196.47 460.308 196.74 460.25 197.01 460.25L232.25 460.03C232.353 460.03 232.456 460.01 232.551 459.97C232.646 459.93 232.733 459.872 232.805 459.798C232.878 459.725 232.935 459.637 232.973 459.542C233.012 459.446 233.031 459.343 233.03 459.24C232.697 442.487 232.46 426.293 232.32 410.66C232.31 409.67 232.57 408.7 232.82 407.76C232.953 407.267 232.767 407.05 232.26 407.11C230.553 407.303 228.923 407.253 227.37 406.96C226.263 406.753 225.71 406.087 225.71 404.96L225.72 404.58C225.72 403.107 226.46 402.363 227.94 402.35C261.627 402.097 295.82 401.933 330.52 401.86C335.47 401.85 339.92 399.74 344.42 397.88C345.772 397.319 347.229 397.044 348.7 397.07C356.867 397.217 364.83 397.13 372.59 396.81C397.06 395.82 418.36 383.37 437.64 369.12C446.94 362.25 456.32 357.66 468.32 359.17C472.29 359.67 475.01 357.91 478.72 357.46C492.3 355.8 499.73 364.83 509.15 372.7C524.17 385.24 541.54 394.36 560.92 394.58C573.56 394.72 586.757 394.703 600.51 394.53C605.36 394.47 606.03 398.03 606.07 401.94C606.073 402.135 606.153 402.32 606.293 402.457C606.433 402.593 606.623 402.67 606.82 402.67L691.59 402.05C692.077 402.05 692.33 401.81 692.35 401.33C692.403 400.437 692.607 399.547 692.96 398.66C693.045 398.447 693.185 398.261 693.366 398.118C693.547 397.976 693.762 397.884 693.99 397.85C695.93 397.563 696.973 398.543 697.12 400.79C697.173 401.543 697.577 401.92 698.33 401.92L720.92 401.83C721.467 401.83 721.843 401.577 722.05 401.07L722.53 399.87C722.645 399.586 722.84 399.341 723.09 399.164C723.341 398.988 723.637 398.887 723.942 398.874C724.248 398.861 724.55 398.937 724.812 399.093C725.074 399.248 725.285 399.476 725.42 399.75L726.18 401.28C726.333 401.593 726.587 401.753 726.94 401.76C741.133 401.88 754.237 401.767 766.25 401.42C768.17 401.36 771.57 401.09 772.39 403.41C772.48 403.664 772.518 403.934 772.502 404.202C772.487 404.471 772.418 404.734 772.299 404.975C772.181 405.217 772.016 405.432 771.813 405.608C771.611 405.784 771.375 405.917 771.12 406C770.373 406.247 769.583 406.373 768.75 406.38C765.397 406.4 762.117 406.393 758.91 406.36C758.774 406.36 758.643 406.412 758.546 406.506C758.449 406.599 758.393 406.726 758.39 406.86L757.58 456.12C757.567 456.813 757.907 457.16 758.6 457.16L766.33 457.14C767.783 457.14 768.747 457.827 769.22 459.2C769.313 459.473 769.32 459.737 769.24 459.99C768.88 461.177 768.087 461.833 766.86 461.96C764.353 462.22 761.677 462.243 758.83 462.03C757.943 461.963 757.497 462.373 757.49 463.26L756.89 508.57C756.889 508.691 756.912 508.811 756.958 508.924C757.004 509.036 757.073 509.138 757.159 509.223C757.246 509.309 757.349 509.377 757.463 509.423C757.576 509.468 757.697 509.491 757.82 509.49L781.26 509.12C781.378 509.113 781.498 509.134 781.61 509.18C785.777 510.787 786.02 512.377 782.34 513.95C781.997 514.095 781.627 514.173 781.25 514.18L757.29 514.49C757.163 514.49 757.041 514.541 756.951 514.631C756.861 514.721 756.81 514.843 756.81 514.97L756.24 558.63C756.237 558.779 756.265 558.926 756.321 559.064C756.378 559.202 756.462 559.327 756.568 559.432C756.675 559.536 756.802 559.619 756.941 559.673C757.081 559.728 757.23 559.754 757.38 559.75L779.35 559.27C781.157 559.23 781.997 560.11 781.87 561.91L781.84 562.29C781.747 563.583 781.053 564.243 779.76 564.27L756.74 564.74C756.6 564.743 756.467 564.799 756.368 564.898C756.269 564.997 756.213 565.13 756.21 565.27L755.98 589.84C755.98 589.889 755.99 589.938 756.01 589.984C756.029 590.03 756.058 590.071 756.095 590.105C756.131 590.14 756.174 590.167 756.221 590.185C756.269 590.203 756.319 590.211 756.37 590.21C770.583 589.843 786.487 589.41 804.08 588.91C807.26 588.82 808.91 592.06 809.77 594.83ZM381.25 604C384.1 603.97 385.86 605.42 385.85 608.15C385.837 621.47 385.62 632.09 385.2 640.01C384.18 659.243 380.437 677.35 373.97 694.33C373.817 694.717 373.867 695.077 374.12 695.41C375.667 697.417 377.437 699.333 379.43 701.16C387.577 708.633 396.557 715.217 406.37 720.91C429.297 734.21 450.8 746.023 470.88 756.35C476.147 759.057 481.303 761.34 486.35 763.2C487.557 763.647 488.72 763.533 489.84 762.86C507.52 752.207 525.103 740.497 542.59 727.73C568.15 709.06 593.95 687.48 603.51 656.03C606.237 647.05 607.41 638.37 607.03 629.99C605.943 606.09 605.143 581.977 604.63 557.65C603.53 505.237 602.317 452.797 600.99 400.33C600.985 400.15 600.911 399.978 600.785 399.851C600.658 399.725 600.488 399.653 600.31 399.65C590.59 399.557 580.15 399.567 568.99 399.68C560.717 399.753 554.077 399.327 549.07 398.4C529.82 394.81 513.92 383.53 499.61 370.73C490.68 362.74 482.57 359.27 471.36 365.19C459.05 371.69 447.8 380.42 436.18 387.32C426.307 393.167 415.537 397.51 403.87 400.35C396.717 402.09 390.08 402.94 383.96 402.9C373.427 402.827 362.603 402.787 351.49 402.78C350.917 402.78 350.627 403.067 350.62 403.64C350.11 469.97 349.36 535.94 348.46 601.98C348.453 602.74 348.827 603.18 349.58 603.3C352.447 603.753 355.587 603.997 359 604.03C366.42 604.097 373.837 604.087 381.25 604ZM400.93 395.76V396.03C400.931 396.06 400.938 396.09 400.951 396.117C400.965 396.144 400.984 396.167 401.007 396.186C401.03 396.204 401.057 396.217 401.085 396.222C401.113 396.228 401.142 396.228 401.17 396.22C413.337 393.153 423.747 389.147 432.4 384.2C442.5 378.43 452.26 370.72 462.78 364.86C464.467 363.92 464.347 363.513 462.42 363.64C456.24 364.04 450.487 366.083 445.16 369.77C430.95 379.6 417.66 389.77 400.96 395.65C400.94 395.657 400.93 395.693 400.93 395.76ZM330.02 408.7C329.954 408.724 329.896 408.765 329.852 408.818C329.808 408.871 329.779 408.934 329.77 409C329.57 410.313 329.457 411.63 329.43 412.95C329.137 426.73 328.943 441.61 328.85 457.59C328.83 459.74 329.31 461.6 328.99 463.77C328.77 465.257 328.657 466.803 328.65 468.41C328.563 483.437 328.477 498.193 328.39 512.68C328.38 515.36 328.77 518.02 328.56 520.68C328.427 522.387 328.35 524.123 328.33 525.89C328.077 548.197 327.833 570.27 327.6 592.11C327.593 593.177 327.633 594.257 327.72 595.35C327.76 595.823 327.99 596.17 328.41 596.39C332.85 598.69 337.543 600.607 342.49 602.14C343.217 602.367 343.617 602.1 343.69 601.34C343.883 599.427 343.99 597.48 344.01 595.5C344.77 532.32 345.443 468.273 346.03 403.36C346.032 403.266 346.01 403.173 345.967 403.09C345.924 403.006 345.862 402.935 345.785 402.881C345.707 402.828 345.618 402.794 345.525 402.784C345.432 402.773 345.337 402.785 345.25 402.82L330.02 408.7ZM304.34 458.71C304.345 458.94 304.44 459.159 304.605 459.319C304.769 459.48 304.99 459.57 305.22 459.57L323.25 459.5C323.482 459.5 323.704 459.409 323.869 459.246C324.033 459.083 324.127 458.862 324.13 458.63L324.81 407.69C324.813 407.572 324.792 407.455 324.748 407.345C324.704 407.235 324.639 407.135 324.556 407.051C324.473 406.967 324.374 406.901 324.264 406.856C324.155 406.811 324.038 406.789 323.92 406.79L304.14 406.88C304.024 406.881 303.91 406.905 303.804 406.951C303.698 406.996 303.601 407.062 303.521 407.145C303.44 407.227 303.376 407.325 303.333 407.432C303.29 407.54 303.269 407.654 303.27 407.77L304.34 458.71ZM725.93 456.5C725.929 456.624 725.952 456.747 725.999 456.861C726.046 456.976 726.115 457.08 726.202 457.168C726.29 457.255 726.394 457.324 726.509 457.371C726.623 457.418 726.746 457.441 726.87 457.44L752.3 457.18C752.543 457.177 752.776 457.08 752.948 456.908C753.12 456.736 753.217 456.503 753.22 456.26L753.71 407.49C753.711 407.366 753.688 407.243 753.641 407.129C753.594 407.014 753.525 406.91 753.438 406.822C753.35 406.735 753.246 406.666 753.131 406.619C753.017 406.572 752.894 406.549 752.77 406.55L727.34 406.8C727.097 406.803 726.864 406.9 726.692 407.072C726.52 407.244 726.423 407.477 726.42 407.72L725.93 456.5ZM269.94 458.82C269.945 459.089 270.056 459.345 270.249 459.532C270.442 459.719 270.701 459.823 270.97 459.82L298.81 459.58C298.945 459.579 299.078 459.551 299.202 459.498C299.326 459.445 299.438 459.367 299.532 459.271C299.626 459.174 299.7 459.06 299.749 458.934C299.799 458.809 299.823 458.675 299.82 458.54L298.9 407.95C298.895 407.681 298.784 407.425 298.591 407.238C298.398 407.051 298.139 406.947 297.87 406.95L270.02 407.18C269.885 407.181 269.752 407.209 269.628 407.262C269.504 407.316 269.392 407.393 269.298 407.489C269.204 407.586 269.13 407.7 269.081 407.826C269.031 407.951 269.007 408.085 269.01 408.22L269.94 458.82ZM721.843 407.822C721.843 407.702 721.819 407.584 721.774 407.473C721.728 407.363 721.662 407.262 721.577 407.178C721.493 407.093 721.393 407.026 721.282 406.98C721.172 406.934 721.054 406.91 720.934 406.91L698.154 406.87C698.035 406.87 697.916 406.893 697.806 406.939C697.695 406.984 697.595 407.051 697.51 407.136C697.426 407.22 697.358 407.32 697.312 407.431C697.267 407.541 697.243 407.659 697.243 407.779L697.157 456.579C697.157 456.698 697.181 456.816 697.226 456.927C697.272 457.037 697.338 457.138 697.423 457.222C697.507 457.307 697.607 457.374 697.718 457.42C697.828 457.466 697.946 457.49 698.066 457.49L720.846 457.53C720.965 457.53 721.084 457.507 721.194 457.461C721.305 457.416 721.405 457.349 721.49 457.264C721.574 457.18 721.642 457.08 721.688 456.97C721.733 456.859 721.757 456.741 721.757 456.621L721.843 407.822ZM264.608 407.972C264.606 407.855 264.582 407.74 264.536 407.632C264.49 407.525 264.423 407.428 264.34 407.346C264.256 407.264 264.157 407.2 264.048 407.157C263.94 407.113 263.824 407.091 263.707 407.093L237.669 407.411C237.552 407.412 237.437 407.437 237.329 407.483C237.222 407.529 237.125 407.596 237.043 407.679C236.961 407.763 236.897 407.862 236.854 407.97C236.81 408.079 236.789 408.195 236.79 408.312L237.412 459.228C237.413 459.345 237.438 459.46 237.484 459.568C237.53 459.675 237.597 459.773 237.68 459.854C237.764 459.936 237.863 460 237.971 460.044C238.08 460.087 238.196 460.109 238.313 460.107L264.351 459.789C264.468 459.788 264.583 459.763 264.691 459.717C264.798 459.671 264.895 459.604 264.977 459.521C265.059 459.437 265.123 459.338 265.166 459.23C265.21 459.121 265.231 459.005 265.23 458.888L264.608 407.972ZM666.1 434.77C666.396 435.105 666.563 435.542 666.57 436L666.71 456.91C666.711 457.035 666.737 457.158 666.786 457.273C666.835 457.388 666.906 457.492 666.995 457.579C667.084 457.666 667.19 457.735 667.306 457.782C667.421 457.828 667.545 457.851 667.67 457.85L692.03 457.6C692.2 457.6 692.362 457.533 692.483 457.413C692.603 457.293 692.67 457.13 692.67 456.96L692.76 408.04C692.761 407.908 692.736 407.778 692.687 407.656C692.637 407.534 692.563 407.423 692.47 407.33C692.377 407.237 692.266 407.163 692.144 407.113C692.022 407.064 691.892 407.039 691.76 407.04L634.77 407.34C634.666 407.34 634.565 407.381 634.491 407.454C634.416 407.526 634.373 407.626 634.37 407.73L633.78 456.86C633.773 457.6 634.137 457.967 634.87 457.96L661.27 457.85C661.462 457.85 661.646 457.773 661.783 457.637C661.919 457.5 661.997 457.315 662 457.12C662.047 450.187 662.043 443.31 661.99 436.49C661.984 435.847 662.17 435.224 662.522 434.714C662.873 434.204 663.371 433.834 663.94 433.66C664.567 433.473 665.287 433.843 666.1 434.77ZM629.82 408.08C629.821 407.973 629.801 407.866 629.761 407.767C629.721 407.668 629.662 407.577 629.586 407.501C629.511 407.425 629.421 407.364 629.322 407.323C629.223 407.281 629.117 407.26 629.01 407.26L606.82 407.39C606.714 407.391 606.609 407.414 606.511 407.455C606.413 407.497 606.324 407.558 606.25 407.634C606.176 407.71 606.117 407.801 606.078 407.899C606.038 407.998 606.019 408.104 606.02 408.21L607.05 457.31C607.051 457.416 607.074 457.521 607.115 457.619C607.157 457.717 607.218 457.806 607.294 457.88C607.37 457.954 607.46 458.013 607.559 458.052C607.658 458.092 607.764 458.111 607.87 458.11L628.5 457.99C628.713 457.99 628.918 457.906 629.069 457.756C629.221 457.607 629.307 457.403 629.31 457.19L629.82 408.08ZM752.87 462.84C752.87 462.728 752.848 462.616 752.804 462.512C752.761 462.409 752.697 462.314 752.617 462.235C752.538 462.156 752.443 462.094 752.338 462.052C752.234 462.01 752.122 461.989 752.01 461.99L727.01 462.44C726.788 462.443 726.576 462.532 726.419 462.689C726.262 462.846 726.173 463.058 726.17 463.28L725.68 509.19C725.68 509.302 725.702 509.414 725.746 509.518C725.789 509.621 725.853 509.716 725.932 509.795C726.012 509.874 726.107 509.936 726.212 509.978C726.316 510.02 726.428 510.041 726.54 510.04L751.54 509.59C751.762 509.587 751.974 509.498 752.131 509.341C752.288 509.184 752.377 508.972 752.38 508.75L752.87 462.84ZM721.63 463.04C721.63 462.926 721.607 462.814 721.564 462.709C721.52 462.604 721.455 462.508 721.375 462.428C721.294 462.348 721.198 462.285 721.092 462.243C720.987 462.2 720.874 462.179 720.76 462.18L698.07 462.49C697.844 462.493 697.627 462.584 697.468 462.745C697.309 462.906 697.22 463.124 697.22 463.35L697.05 509.65C697.05 509.764 697.073 509.876 697.116 509.981C697.16 510.086 697.224 510.182 697.305 510.262C697.386 510.342 697.482 510.405 697.588 510.447C697.693 510.49 697.806 510.511 697.92 510.51L720.61 510.2C720.836 510.197 721.053 510.106 721.212 509.945C721.371 509.784 721.46 509.566 721.46 509.34L721.63 463.04ZM692.639 463.447C692.639 463.324 692.615 463.202 692.567 463.088C692.52 462.974 692.45 462.87 692.363 462.783C692.276 462.696 692.172 462.627 692.058 462.58C691.944 462.533 691.821 462.509 691.698 462.509L667.618 462.551C667.494 462.551 667.372 462.576 667.258 462.623C667.144 462.671 667.041 462.74 666.954 462.828C666.867 462.915 666.797 463.019 666.75 463.133C666.703 463.247 666.679 463.369 666.679 463.493L666.76 509.873C666.761 509.996 666.785 510.118 666.833 510.232C666.88 510.346 666.949 510.45 667.037 510.537C667.124 510.624 667.228 510.693 667.342 510.74C667.456 510.787 667.579 510.811 667.702 510.811L691.782 510.769C691.906 510.769 692.028 510.744 692.142 510.697C692.256 510.649 692.359 510.58 692.446 510.492C692.533 510.405 692.602 510.301 692.65 510.187C692.697 510.073 692.721 509.951 692.72 509.827L692.639 463.447ZM629.32 463.58C629.321 463.482 629.303 463.385 629.267 463.294C629.23 463.203 629.176 463.12 629.107 463.05C629.038 462.981 628.956 462.925 628.866 462.887C628.775 462.849 628.678 462.83 628.58 462.83L607.97 462.9C607.873 462.901 607.777 462.922 607.688 462.96C607.598 462.999 607.517 463.054 607.45 463.124C607.382 463.193 607.328 463.276 607.292 463.366C607.256 463.456 607.239 463.553 607.24 463.65L608.29 511.12C608.291 511.217 608.312 511.313 608.35 511.402C608.389 511.492 608.444 511.573 608.514 511.64C608.583 511.708 608.666 511.762 608.756 511.798C608.846 511.834 608.943 511.851 609.04 511.85L627.84 511.79C628.035 511.79 628.221 511.713 628.36 511.577C628.498 511.44 628.577 511.255 628.58 511.06L629.32 463.58ZM662.36 463.73C662.36 463.467 662.256 463.216 662.07 463.03C661.884 462.844 661.633 462.74 661.37 462.74L634.63 462.83C634.369 462.83 634.119 462.933 633.933 463.116C633.748 463.3 633.643 463.549 633.64 463.81L633.1 510.54C633.099 510.673 633.124 510.804 633.174 510.927C633.225 511.049 633.299 511.16 633.393 511.254C633.488 511.347 633.6 511.42 633.723 511.47C633.846 511.519 633.977 511.543 634.11 511.54L661.39 511.07C661.649 511.065 661.896 510.958 662.077 510.773C662.258 510.588 662.36 510.339 662.36 510.08V463.73ZM324.13 465.34C324.13 465.077 324.026 464.826 323.84 464.64C323.654 464.454 323.403 464.35 323.14 464.35L305.48 464.48C305.349 464.481 305.22 464.509 305.1 464.56C304.979 464.612 304.87 464.687 304.779 464.781C304.688 464.874 304.617 464.986 304.569 465.107C304.521 465.229 304.497 465.359 304.5 465.49L305.56 515.42C305.565 515.681 305.673 515.929 305.86 516.111C306.048 516.292 306.299 516.393 306.56 516.39L322.81 516.27C323.073 516.27 323.324 516.166 323.51 515.98C323.696 515.794 323.8 515.543 323.8 515.28L324.13 465.34ZM300.277 465.757C300.273 465.404 300.129 465.067 299.876 464.821C299.624 464.575 299.284 464.439 298.931 464.443L271.273 464.781C271.099 464.783 270.926 464.82 270.766 464.888C270.605 464.957 270.46 465.057 270.338 465.182C270.216 465.307 270.12 465.455 270.055 465.617C269.99 465.779 269.958 465.952 269.96 466.127L270.562 515.463C270.567 515.816 270.711 516.153 270.964 516.399C271.216 516.645 271.556 516.781 271.909 516.777L299.567 516.439C299.741 516.437 299.914 516.4 300.074 516.332C300.235 516.263 300.38 516.163 300.502 516.038C300.624 515.913 300.72 515.765 300.785 515.603C300.85 515.441 300.882 515.268 300.88 515.093L300.277 465.757ZM265.495 465.832C265.493 465.674 265.46 465.518 265.398 465.374C265.336 465.229 265.246 465.098 265.133 464.988C265.02 464.877 264.887 464.791 264.741 464.732C264.594 464.674 264.438 464.644 264.28 464.646L238.822 464.958C238.504 464.961 238.2 465.092 237.978 465.319C237.756 465.547 237.633 465.854 237.637 466.172L238.245 515.948C238.247 516.106 238.28 516.262 238.342 516.406C238.404 516.551 238.494 516.682 238.607 516.793C238.72 516.903 238.853 516.989 238.999 517.048C239.146 517.106 239.302 517.136 239.46 517.134L264.918 516.823C265.236 516.819 265.54 516.688 265.762 516.461C265.984 516.233 266.107 515.926 266.103 515.608L265.495 465.832ZM752.18 515.4C752.181 515.278 752.158 515.157 752.112 515.044C752.065 514.931 751.997 514.829 751.91 514.743C751.823 514.657 751.72 514.59 751.607 514.544C751.493 514.499 751.372 514.477 751.25 514.48L726.81 515.04C726.574 515.045 726.349 515.142 726.183 515.31C726.017 515.478 725.923 515.704 725.92 515.94L725.41 559.59C725.409 559.712 725.432 559.833 725.478 559.946C725.525 560.059 725.593 560.161 725.68 560.247C725.767 560.333 725.87 560.401 725.983 560.446C726.097 560.491 726.218 560.513 726.34 560.51L750.77 559.95C751.006 559.945 751.231 559.848 751.397 559.68C751.563 559.512 751.657 559.286 751.66 559.05L752.18 515.4ZM721.43 516.01C721.431 515.884 721.407 515.758 721.36 515.641C721.312 515.524 721.241 515.418 721.152 515.328C721.062 515.239 720.956 515.168 720.839 515.12C720.722 515.073 720.596 515.049 720.47 515.05L698.12 515.4C697.871 515.403 697.634 515.503 697.458 515.678C697.282 515.854 697.183 516.092 697.18 516.34L696.87 560.09C696.87 560.216 696.895 560.34 696.943 560.456C696.992 560.572 697.062 560.677 697.152 560.765C697.241 560.854 697.347 560.923 697.463 560.971C697.58 561.018 697.704 561.041 697.83 561.04L720.18 560.69C720.428 560.687 720.666 560.588 720.842 560.412C721.018 560.236 721.117 559.999 721.12 559.75L721.43 516.01ZM692.61 516.47C692.61 516.341 692.584 516.213 692.534 516.094C692.484 515.975 692.411 515.867 692.319 515.777C692.227 515.687 692.117 515.616 691.997 515.568C691.877 515.52 691.749 515.497 691.62 515.5L667.84 515.94C667.586 515.945 667.345 516.05 667.167 516.231C666.989 516.412 666.89 516.656 666.89 516.91L666.9 560.78C666.9 560.909 666.926 561.037 666.976 561.156C667.026 561.275 667.099 561.383 667.191 561.473C667.283 561.563 667.393 561.634 667.513 561.682C667.633 561.73 667.761 561.753 667.89 561.75L691.67 561.32C691.924 561.315 692.165 561.21 692.343 561.029C692.521 560.848 692.62 560.604 692.62 560.35L692.61 516.47ZM632.7 561.69C632.699 561.798 632.719 561.904 632.76 562.004C632.801 562.103 632.861 562.194 632.938 562.269C633.014 562.345 633.105 562.404 633.205 562.444C633.305 562.484 633.412 562.503 633.52 562.5L661.54 562.03C661.747 562.025 661.944 561.94 662.089 561.792C662.235 561.645 662.317 561.447 662.32 561.24L662.58 516.82C662.581 516.712 662.561 516.606 662.52 516.506C662.479 516.407 662.419 516.316 662.342 516.241C662.266 516.165 662.175 516.106 662.075 516.066C661.975 516.026 661.868 516.007 661.76 516.01L633.74 516.48C633.533 516.485 633.336 516.57 633.191 516.718C633.045 516.865 632.963 517.063 632.96 517.27L632.7 561.69ZM609.34 562.08C609.341 562.195 609.365 562.309 609.411 562.415C609.456 562.52 609.523 562.616 609.605 562.696C609.688 562.776 609.786 562.839 609.893 562.881C610 562.922 610.115 562.943 610.23 562.94L627.24 562.67C627.464 562.665 627.677 562.574 627.835 562.415C627.994 562.257 628.085 562.044 628.09 561.82L628.71 517.36C628.711 517.244 628.689 517.129 628.646 517.022C628.602 516.914 628.537 516.817 628.455 516.735C628.373 516.653 628.276 516.588 628.168 516.544C628.061 516.501 627.946 516.479 627.83 516.48L609.34 516.67C609.225 516.671 609.111 516.695 609.005 516.741C608.9 516.787 608.804 516.853 608.724 516.935C608.644 517.018 608.581 517.116 608.539 517.223C608.498 517.33 608.477 517.445 608.48 517.56L609.34 562.08ZM323.72 522.06C323.721 521.951 323.701 521.844 323.66 521.743C323.62 521.642 323.56 521.551 323.483 521.474C323.407 521.397 323.316 521.335 323.216 521.293C323.116 521.252 323.008 521.23 322.9 521.23L306.61 521.29C306.501 521.29 306.394 521.312 306.294 521.353C306.194 521.395 306.103 521.457 306.027 521.534C305.95 521.611 305.89 521.702 305.849 521.803C305.809 521.904 305.789 522.011 305.79 522.12L306.51 571.72C306.511 571.829 306.534 571.936 306.577 572.035C306.62 572.135 306.683 572.225 306.761 572.301C306.839 572.376 306.931 572.435 307.032 572.474C307.133 572.514 307.241 572.533 307.35 572.53L322.47 572.17C322.682 572.165 322.884 572.078 323.033 571.926C323.183 571.775 323.267 571.572 323.27 571.36L323.72 522.06ZM271.21 572.51C271.211 572.598 271.23 572.685 271.265 572.766C271.3 572.846 271.35 572.92 271.413 572.981C271.476 573.042 271.551 573.09 271.633 573.123C271.715 573.155 271.802 573.171 271.89 573.17L301.62 572.74C301.708 572.739 301.795 572.72 301.876 572.685C301.956 572.65 302.03 572.6 302.091 572.537C302.152 572.474 302.2 572.399 302.233 572.317C302.265 572.235 302.281 572.148 302.28 572.06L301.25 521.98C301.249 521.892 301.23 521.805 301.195 521.724C301.16 521.644 301.11 521.57 301.047 521.509C300.984 521.448 300.909 521.4 300.827 521.367C300.745 521.335 300.658 521.319 300.57 521.32L271.43 521.74C271.342 521.741 271.255 521.76 271.174 521.795C271.094 521.83 271.02 521.88 270.959 521.943C270.898 522.006 270.85 522.081 270.817 522.163C270.785 522.245 270.769 522.332 270.77 522.42L271.21 572.51ZM266.17 522.83C266.167 522.572 266.063 522.325 265.879 522.144C265.696 521.962 265.448 521.86 265.19 521.86L239.47 521.96C239.34 521.96 239.212 521.986 239.093 522.036C238.973 522.085 238.865 522.159 238.773 522.251C238.682 522.343 238.61 522.452 238.562 522.572C238.513 522.692 238.489 522.82 238.49 522.95L239.21 573.11C239.211 573.24 239.238 573.368 239.289 573.487C239.34 573.606 239.415 573.713 239.508 573.804C239.601 573.894 239.711 573.965 239.831 574.012C239.952 574.06 240.08 574.083 240.21 574.08L265.93 573.43C266.188 573.425 266.434 573.318 266.614 573.132C266.793 572.947 266.893 572.698 266.89 572.44L266.17 522.83ZM750.67 590.48C750.857 590.475 751.036 590.397 751.166 590.262C751.297 590.128 751.37 589.948 751.37 589.76L751.43 565.4C751.43 565.304 751.411 565.208 751.373 565.12C751.336 565.031 751.281 564.951 751.212 564.884C751.143 564.817 751.061 564.764 750.972 564.729C750.882 564.694 750.786 564.677 750.69 564.68L726.34 565.3C726.153 565.305 725.974 565.383 725.844 565.518C725.713 565.652 725.64 565.832 725.64 566.02L725.58 590.38C725.58 590.476 725.599 590.572 725.637 590.66C725.674 590.749 725.729 590.829 725.798 590.896C725.867 590.963 725.949 591.016 726.038 591.051C726.128 591.086 726.224 591.103 726.32 591.1L750.67 590.48ZM697.22 591.31C697.22 591.388 697.236 591.466 697.266 591.538C697.296 591.61 697.34 591.676 697.396 591.731C697.452 591.786 697.518 591.829 697.591 591.858C697.664 591.887 697.742 591.901 697.82 591.9L720.46 591.45C720.615 591.447 720.762 591.384 720.871 591.274C720.979 591.163 721.04 591.015 721.04 590.86L720.86 566.23C720.857 566.075 720.794 565.928 720.684 565.819C720.573 565.711 720.425 565.65 720.27 565.65L697.62 565.92C697.542 565.92 697.464 565.936 697.392 565.966C697.32 565.996 697.254 566.04 697.199 566.096C697.144 566.152 697.101 566.218 697.072 566.291C697.043 566.364 697.029 566.442 697.03 566.52L697.22 591.31ZM692.56 566.7C692.56 566.622 692.544 566.545 692.514 566.473C692.484 566.402 692.439 566.337 692.383 566.283C692.327 566.229 692.261 566.186 692.188 566.158C692.115 566.13 692.038 566.117 691.96 566.12L667.95 566.7C667.719 566.705 667.499 566.801 667.337 566.967C667.175 567.133 667.082 567.357 667.08 567.59C667.053 576.357 667.087 585.12 667.18 593.88C667.18 594.333 667.237 594.787 667.35 595.24C667.483 595.753 667.807 595.94 668.32 595.8C671.4 594.97 674.54 592.94 677.69 592.97C682.75 593.017 687.503 592.77 691.95 592.23C692.343 592.183 692.54 591.96 692.54 591.56L692.56 566.7ZM632.03 623.42C632.03 623.515 632.049 623.61 632.086 623.698C632.123 623.786 632.176 623.866 632.244 623.933C632.312 624 632.393 624.053 632.481 624.088C632.57 624.124 632.665 624.141 632.76 624.14L662.11 623.46C662.205 623.459 662.298 623.439 662.385 623.401C662.472 623.364 662.55 623.31 662.616 623.242C662.682 623.174 662.734 623.094 662.769 623.006C662.804 622.918 662.821 622.825 662.82 622.73L662.51 567.65C662.51 567.555 662.491 567.46 662.454 567.372C662.417 567.284 662.363 567.204 662.296 567.137C662.228 567.07 662.147 567.018 662.059 566.982C661.97 566.946 661.875 566.929 661.78 566.93L633.24 567.38C633.052 567.383 632.873 567.458 632.741 567.591C632.608 567.723 632.533 567.903 632.53 568.09L632.03 623.42ZM269.19 585.5C268.979 585.584 268.751 585.615 268.526 585.592C268.3 585.569 268.084 585.492 267.894 585.368C267.705 585.243 267.548 585.074 267.438 584.876C267.327 584.678 267.266 584.457 267.26 584.23L267.09 579.24C267.085 579.079 267.048 578.92 266.98 578.774C266.913 578.628 266.818 578.497 266.699 578.388C266.581 578.28 266.442 578.197 266.291 578.144C266.14 578.091 265.979 578.069 265.82 578.08C256.867 578.667 248.41 578.967 240.45 578.98C240.306 578.98 240.164 579.009 240.032 579.064C239.9 579.12 239.78 579.201 239.679 579.303C239.579 579.406 239.499 579.527 239.446 579.661C239.393 579.794 239.367 579.937 239.37 580.08L239.67 604.39C239.672 604.464 239.691 604.537 239.725 604.603C239.759 604.669 239.808 604.727 239.868 604.771C239.928 604.815 239.997 604.846 240.07 604.859C240.143 604.873 240.218 604.87 240.29 604.85C245.637 603.343 250.92 600.717 256.14 596.97C261.073 593.43 265.963 589.987 270.81 586.64C272.51 585.46 273.52 584.05 274.96 582.68C280.55 577.37 293.24 578.73 300.26 578.9C304.02 578.993 307.347 580.237 310.24 582.63C314.38 586.05 318.323 589.337 322.07 592.49C322.169 592.574 322.29 592.628 322.419 592.645C322.547 592.663 322.679 592.643 322.796 592.588C322.914 592.534 323.014 592.446 323.084 592.337C323.153 592.227 323.19 592.1 323.19 591.97V577.48C323.19 577.073 322.987 576.877 322.58 576.89C309.44 577.343 295.42 577.587 280.52 577.62C277.9 577.63 275.16 577.97 272.52 578.18C272.301 578.2 272.097 578.302 271.949 578.464C271.801 578.627 271.719 578.84 271.72 579.06C271.72 581.29 271.66 584.52 269.19 585.5ZM292.58 583.38C287.08 583 280.93 583.33 276.48 586.63C273.24 589.03 269.823 591.763 266.23 594.83C259.99 600.157 252.98 604.6 245.2 608.16C245.143 608.187 245.094 608.23 245.059 608.283C245.025 608.336 245.006 608.398 245.005 608.462C245.004 608.525 245.021 608.588 245.054 608.642C245.086 608.697 245.133 608.741 245.19 608.77C245.517 608.93 245.863 608.997 246.23 608.97C258.51 608.003 269.78 603.427 280.04 595.24C284.26 591.87 288.22 587.81 292.87 584.36C293.657 583.773 293.56 583.447 292.58 583.38ZM670.63 599.82C670.408 599.862 670.208 599.981 670.065 600.155C669.923 600.328 669.846 600.546 669.85 600.77C670.02 614.21 670.47 627.77 670.56 641.25C670.813 681.47 671.443 724.64 672.45 770.76C672.51 773.553 673.593 775.477 675.7 776.53C675.831 776.596 675.977 776.626 676.123 776.619C676.27 776.611 676.412 776.566 676.535 776.488C676.659 776.409 676.761 776.3 676.83 776.171C676.899 776.042 676.933 775.897 676.93 775.75C676.73 767.383 676.487 758.387 676.2 748.76C675.593 728.353 675.37 703.523 675.53 674.27C675.603 662.11 675.053 646.107 673.88 626.26C673.6 621.527 673.583 612.73 673.83 599.87C673.837 599.437 673.627 599.26 673.2 599.34L670.63 599.82ZM698.63 618.72C698.37 619.107 698.323 619.52 698.49 619.96C698.637 620.347 698.733 620.74 698.78 621.14C699.287 625.447 699.747 629.987 700.16 634.76C703.74 675.773 707.407 718.8 711.16 763.84C711.46 767.44 711.76 771.213 712.06 775.16C712.087 775.533 712.28 775.77 712.64 775.87C715.087 776.55 715.873 778.06 715 780.4C714.95 780.531 714.935 780.673 714.956 780.811C714.977 780.95 715.033 781.082 715.118 781.193C715.204 781.305 715.317 781.394 715.447 781.451C715.577 781.508 715.719 781.532 715.86 781.52C758.88 777.74 801.37 772.867 843.33 766.9C843.411 766.888 843.485 766.844 843.535 766.779C843.585 766.714 843.609 766.632 843.6 766.55C839.013 720.797 835.14 674.86 831.98 628.74C831.373 619.873 830.733 611.177 830.06 602.65C830.049 602.486 830.005 602.325 829.931 602.178C829.858 602.031 829.756 601.899 829.631 601.791C829.507 601.684 829.362 601.602 829.206 601.55C829.049 601.498 828.884 601.478 828.72 601.49C820.307 602.097 812.153 602.647 804.26 603.14C784.12 604.4 759.12 605.373 729.26 606.06C719.127 606.293 708.51 606.35 697.41 606.23C696.923 606.23 696.747 606.46 696.88 606.92C697.08 607.63 697.47 608.35 697.61 609.05C698.043 611.257 698.307 613.66 698.4 616.26C698.413 616.74 698.527 617.237 698.74 617.75C698.873 618.09 698.837 618.413 698.63 618.72ZM687.65 608.14C687.697 608.18 687.752 608.209 687.811 608.225C687.871 608.241 687.933 608.243 687.994 608.232C688.054 608.22 688.112 608.195 688.161 608.159C688.211 608.122 688.251 608.075 688.28 608.02C688.633 607.367 688.733 606.703 688.58 606.03C688.507 605.737 688.323 605.557 688.03 605.49C687.65 605.41 687.307 605.483 687 605.71C686.547 606.037 686.453 606.457 686.72 606.97C686.96 607.423 687.27 607.813 687.65 608.14ZM692.36 605.74C692.359 605.7 692.348 605.662 692.328 605.628C692.308 605.593 692.28 605.565 692.246 605.544C692.213 605.523 692.174 605.511 692.135 605.509C692.095 605.506 692.056 605.514 692.02 605.53L690.67 606.18C690.283 606.36 690.19 606.643 690.39 607.03C690.61 607.443 690.97 607.723 691.47 607.87C692.09 608.043 692.393 607.807 692.38 607.16L692.36 605.74ZM210.15 659.05C210.45 690.54 221.55 720.75 244.51 742.59C253.36 751 265.51 758.73 277.59 760.82C279.17 761.093 279.253 760.847 277.84 760.08C275.2 758.667 272.8 757.123 270.64 755.45C249.07 738.75 234.06 715.64 227.91 689.08C225.437 678.373 224.14 667.513 224.02 656.5C223.867 643.08 223.843 628.927 223.95 614.04C223.95 613.83 223.868 613.63 223.722 613.481C223.575 613.333 223.377 613.25 223.17 613.25L211.5 613.16C210.853 613.153 210.523 613.473 210.51 614.12C210.13 629.433 210.01 644.41 210.15 659.05ZM631.38 667.55C631.378 667.653 631.398 667.755 631.438 667.85C631.479 667.944 631.539 668.029 631.614 668.099C631.69 668.169 631.779 668.222 631.877 668.255C631.974 668.288 632.078 668.3 632.18 668.29L662.67 665.31C662.851 665.29 663.018 665.203 663.139 665.066C663.259 664.929 663.324 664.752 663.32 664.57L663.05 629.11C663.049 629.013 663.028 628.918 662.99 628.829C662.951 628.74 662.895 628.66 662.826 628.593C662.756 628.526 662.673 628.474 662.583 628.439C662.493 628.404 662.397 628.387 662.3 628.39L632.71 629.19C632.522 629.195 632.342 629.273 632.21 629.407C632.078 629.541 632.002 629.722 632 629.91L631.38 667.55ZM691.94 643.76C692.033 643.645 692.155 643.556 692.293 643.504C692.432 643.453 692.582 643.44 692.728 643.466C692.873 643.493 693.009 643.558 693.12 643.656C693.231 643.753 693.314 643.879 693.36 644.02C694.007 646.047 693.31 646.91 691.27 646.61C690.637 646.517 690.33 646.787 690.35 647.42L690.6 655.11C690.604 655.221 690.632 655.33 690.681 655.429C690.731 655.529 690.801 655.616 690.887 655.686C690.973 655.756 691.074 655.807 691.181 655.835C691.288 655.864 691.401 655.869 691.51 655.85C693.097 655.597 694.413 656.057 695.46 657.23C695.647 657.443 695.88 657.577 696.16 657.63C696.253 657.649 696.349 657.646 696.441 657.622C696.533 657.598 696.618 657.553 696.689 657.491C696.76 657.429 696.815 657.351 696.85 657.264C696.885 657.177 696.898 657.083 696.89 656.99L695.16 637.66C695.155 637.613 695.138 637.569 695.112 637.53C695.085 637.492 695.049 637.461 695.008 637.441C694.966 637.421 694.921 637.412 694.876 637.415C694.83 637.419 694.787 637.434 694.75 637.46C693.677 638.187 692.423 638.397 690.99 638.09C690.477 637.983 690.227 638.19 690.24 638.71L690.35 643.51C690.363 644.01 690.62 644.24 691.12 644.2C691.453 644.173 691.727 644.027 691.94 643.76ZM278.73 661.87C278.73 660.374 278.136 658.94 277.078 657.882C276.02 656.824 274.586 656.23 273.09 656.23C271.594 656.23 270.16 656.824 269.102 657.882C268.044 658.94 267.45 660.374 267.45 661.87C267.45 663.366 268.044 664.8 269.102 665.858C270.16 666.916 271.594 667.51 273.09 667.51C274.586 667.51 276.02 666.916 277.078 665.858C278.136 664.8 278.73 663.366 278.73 661.87ZM305.58 661.83C305.58 660.342 304.989 658.915 303.937 657.863C302.885 656.811 301.458 656.22 299.97 656.22C298.482 656.22 297.055 656.811 296.003 657.863C294.951 658.915 294.36 660.342 294.36 661.83C294.36 663.318 294.951 664.745 296.003 665.797C297.055 666.849 298.482 667.44 299.97 667.44C301.458 667.44 302.885 666.849 303.937 665.797C304.989 664.745 305.58 663.318 305.58 661.83ZM331.54 661.86C331.54 660.338 330.935 658.878 329.859 657.801C328.782 656.725 327.322 656.12 325.8 656.12C324.278 656.12 322.818 656.725 321.741 657.801C320.665 658.878 320.06 660.338 320.06 661.86C320.06 663.382 320.665 664.842 321.741 665.919C322.818 666.995 324.278 667.6 325.8 667.6C327.322 667.6 328.782 666.995 329.859 665.919C330.935 664.842 331.54 663.382 331.54 661.86ZM648.92 675.88C650.38 675.627 651.75 675.767 653.03 676.3C656.783 677.867 660.78 679.52 665.02 681.26C665.064 681.278 665.112 681.285 665.16 681.28C665.207 681.275 665.253 681.259 665.292 681.232C665.332 681.205 665.364 681.169 665.386 681.127C665.409 681.085 665.42 681.038 665.42 680.99L665.37 671.05C665.37 670.563 665.127 670.333 664.64 670.36C655.16 670.907 645.813 671.773 636.6 672.96C635.367 673.12 635.337 673.41 636.51 673.83C640.13 675.137 643.653 676.85 647.08 678.97C647.16 679.021 647.252 679.051 647.347 679.058C647.442 679.064 647.537 679.047 647.624 679.007C647.71 678.967 647.786 678.906 647.842 678.83C647.899 678.754 647.936 678.664 647.95 678.57L648.28 676.54C648.333 676.167 648.547 675.947 648.92 675.88ZM697.18 675C696.593 675.473 695.927 675.74 695.18 675.8C694.86 675.827 694.7 675.997 694.7 676.31L694.69 678.15C694.687 678.245 694.704 678.341 694.74 678.432C694.776 678.523 694.83 678.607 694.9 678.68L697.08 680.96C697.7 681.607 698.023 681.48 698.05 680.58C698.117 678.073 698.043 675.433 697.83 672.66C697.79 672.14 697.52 671.95 697.02 672.09L696.14 672.34C695.984 672.384 695.846 672.478 695.748 672.607C695.65 672.736 695.596 672.894 695.595 673.056C695.594 673.219 695.645 673.377 695.742 673.507C695.838 673.638 695.974 673.734 696.13 673.78C696.543 673.907 696.903 674.12 697.21 674.42C697.249 674.459 697.279 674.505 697.299 674.556C697.319 674.607 697.327 674.662 697.324 674.717C697.322 674.771 697.307 674.825 697.282 674.874C697.257 674.923 697.223 674.966 697.18 675ZM690.65 675.37C690.237 675.897 689.997 676.483 689.93 677.13C689.922 677.215 689.931 677.301 689.957 677.383C689.983 677.464 690.025 677.539 690.082 677.604C690.138 677.669 690.207 677.721 690.284 677.758C690.361 677.795 690.445 677.816 690.53 677.82L691.47 677.86C691.937 677.887 692.18 677.667 692.2 677.2C692.227 676.513 692.007 675.897 691.54 675.35C691.233 675.003 690.937 675.01 690.65 675.37ZM646.18 756.82C646.21 756.834 646.243 756.841 646.276 756.839C646.309 756.837 646.341 756.827 646.368 756.81C646.395 756.793 646.417 756.769 646.432 756.741C646.446 756.713 646.452 756.682 646.45 756.65C646.043 737.337 645.69 718.53 645.39 700.23C645.317 695.437 645.42 690.713 645.7 686.06C645.72 685.747 645.583 685.53 645.29 685.41L627.52 678.22C627.147 678.067 626.92 678.187 626.84 678.58C626.753 678.967 626.71 679.353 626.71 679.74C626.45 703.353 626.45 726.077 626.71 747.91C626.713 748.049 626.756 748.184 626.835 748.296C626.913 748.408 627.023 748.493 627.15 748.54C633.583 751.027 639.927 753.787 646.18 756.82ZM656.173 683.502C656.208 683.445 656.131 683.324 655.959 683.166C655.788 683.007 655.536 682.824 655.259 682.656C654.983 682.489 654.704 682.35 654.484 682.272C654.264 682.194 654.121 682.181 654.086 682.238C654.052 682.295 654.129 682.416 654.301 682.574C654.472 682.733 654.724 682.916 655 683.084C655.277 683.251 655.556 683.39 655.776 683.468C655.996 683.546 656.139 683.559 656.173 683.502ZM656.14 690.01L650.59 687.81C650.47 687.763 650.41 687.803 650.41 687.93C650.21 711.403 650.537 734.76 651.39 758C651.443 759.513 652.03 760.497 653.15 760.95C653.233 760.984 653.323 760.998 653.412 760.989C653.502 760.981 653.587 760.951 653.662 760.901C653.737 760.852 653.799 760.785 653.842 760.706C653.885 760.628 653.909 760.54 653.91 760.45C654.07 747.29 654.503 734.207 655.21 721.2C655.77 710.88 655.83 700.5 656.32 690.29C656.322 690.231 656.306 690.172 656.274 690.122C656.242 690.072 656.195 690.033 656.14 690.01ZM666 712.51C665.82 707.217 665.757 701.487 665.81 695.32C665.811 695.033 665.719 694.752 665.548 694.519C665.378 694.285 665.137 694.111 664.86 694.02L662.16 693.13C661.353 692.87 660.933 693.163 660.9 694.01C660.46 706.23 659.907 718.363 659.24 730.41C658.94 735.783 658.74 741.197 658.64 746.65C658.533 752.077 658.423 757.527 658.31 763C658.307 763.076 658.324 763.152 658.359 763.218C658.394 763.285 658.446 763.341 658.51 763.38L667.13 768.89C667.23 768.95 667.277 768.923 667.27 768.81C667.01 748.67 666.587 729.903 666 712.51ZM696.38 708.64C695.013 708.647 693.807 708.317 692.76 707.65C691.9 707.11 691.463 707.347 691.45 708.36L691.31 717.7C691.29 718.867 691.847 719.587 692.98 719.86L702.24 722.12C702.727 722.233 702.94 722.033 702.88 721.52L700.13 698.09C700.083 697.677 699.857 697.523 699.45 697.63L695.87 698.58C695.543 698.667 695.217 698.667 694.89 698.58L692.06 697.78C691.46 697.613 691.173 697.84 691.2 698.46L691.41 703.4C691.418 703.608 691.481 703.811 691.592 703.988C691.702 704.164 691.857 704.31 692.041 704.409C692.225 704.509 692.432 704.56 692.642 704.556C692.852 704.553 693.058 704.496 693.24 704.39C694.413 703.703 695.54 703.563 696.62 703.97C696.913 704.083 697.087 704.293 697.14 704.6L697.6 707.18C697.632 707.359 697.625 707.542 697.578 707.717C697.532 707.893 697.447 708.056 697.331 708.195C697.215 708.334 697.069 708.446 696.905 708.523C696.741 708.6 696.561 708.64 696.38 708.64ZM410.66 728.57C403.83 724.21 396.71 720.57 390.25 715.85C383.95 711.25 378.017 706.277 372.45 700.93C371.743 700.25 371.177 700.353 370.75 701.24L369.28 704.3C368.84 705.213 369.057 705.93 369.93 706.45C383.35 714.357 397.267 721.983 411.68 729.33C411.88 729.43 411.907 729.393 411.76 729.22C411.44 728.86 411.06 728.83 410.66 728.57Z" fill="#000000"/>
<path d="M319.32 360.151L319.22 360.151C317.95 360.146 316.917 361.172 316.912 362.443L316.827 386.762C316.823 388.033 317.849 389.066 319.119 389.07L319.219 389.071C320.49 389.075 321.523 388.049 321.527 386.779L321.612 362.459C321.617 361.189 320.591 360.155 319.32 360.151Z" fill="#000000"/>
<path d="M305.096 361.021L304.996 361.021C303.819 361.023 302.867 361.978 302.869 363.154L302.911 386.734C302.913 387.911 303.868 388.863 305.044 388.861L305.144 388.86C306.321 388.858 307.273 387.903 307.271 386.727L307.229 363.147C307.227 361.97 306.272 361.018 305.096 361.021Z" fill="#000000"/>
<path d="M499.19 518.25C499.383 518.777 499.76 519.037 500.32 519.03L507.16 518.92C507.623 518.912 508.084 518.996 508.514 519.168C508.944 519.34 509.336 519.596 509.667 519.921C509.997 520.246 510.26 520.633 510.439 521.061C510.618 521.488 510.71 521.947 510.71 522.41L510.67 606.2C510.67 607.37 510.205 608.491 509.378 609.318C508.551 610.145 507.43 610.61 506.26 610.61L433.02 610.59C431.921 610.59 430.867 610.153 430.089 609.375C429.311 608.597 428.873 607.542 428.87 606.44L428.84 522.23C428.84 520.277 429.817 519.263 431.77 519.19L438.06 518.96C438.327 518.953 438.583 518.85 438.781 518.67C438.98 518.49 439.107 518.245 439.14 517.98C439.247 517.16 439.303 516.307 439.31 515.42C439.41 506.27 438.43 495.6 440.83 487.11C444.19 475.23 454.11 465.12 467.02 465.06C477.227 465.007 485.383 469.127 491.49 477.42C500.12 489.14 499.07 502.19 498.87 516.26C498.863 516.967 498.97 517.63 499.19 518.25ZM479.15 474.18C475.56 474.37 472.97 478.45 475.58 481.57C481.11 488.18 484.56 495.59 484.3 504.3C484.16 508.82 488.77 513.18 492.74 508.72C493.76 507.567 494.263 506.293 494.25 504.9C494.163 497.793 492.79 491.23 490.13 485.21C488.6 481.77 483.7 473.94 479.15 474.18ZM461.3 485.38C456.38 489.18 455.62 493.31 455.66 499.64C455.7 505.46 455.703 511.567 455.67 517.96C455.669 518.091 455.693 518.221 455.743 518.342C455.792 518.463 455.864 518.574 455.956 518.667C456.049 518.76 456.158 518.833 456.279 518.884C456.4 518.934 456.529 518.96 456.66 518.96L478.71 519C479.343 519.007 479.663 518.693 479.67 518.06C479.75 513.087 479.707 507.9 479.54 502.5C479.387 497.667 477.95 493.09 475.23 488.77C472.28 484.08 466.18 481.61 461.3 485.38ZM470.74 559.98C472.01 558.29 473.8 556.86 474.64 554.89C477.12 549.04 472.23 542.87 466.06 543.49C459.93 544.11 456.23 550.98 459.93 556.26C460.697 557.347 461.56 558.403 462.52 559.43C463.059 560.002 463.36 560.76 463.36 561.55C463.373 565.363 463.333 569.163 463.24 572.95C463.15 576.49 466.99 578.48 469.43 575.13C469.781 574.649 469.974 574.068 469.98 573.47L470.13 561.8C470.136 561.144 470.35 560.506 470.74 559.98Z" fill="#000000"/>
<path d="M690.27 618.301C690.73 618.941 691.02 619.651 691.14 620.431C691.158 620.548 691.133 620.667 691.071 620.768C691.009 620.869 690.913 620.944 690.8 620.981C688.673 621.647 686.607 621.791 684.6 621.411C684.273 621.351 684.063 621.161 683.97 620.841C683.537 619.341 683.533 617.901 683.96 616.521C684.1 616.081 684.393 615.801 684.84 615.681C686.447 615.247 688.093 615.227 689.78 615.621C690.307 615.741 690.497 616.064 690.35 616.591L690.11 617.441C690.07 617.587 690.063 617.741 690.091 617.89C690.118 618.039 690.18 618.18 690.27 618.301Z" fill="#000000"/>
<path d="M802.315 626.005L717.936 622.321C716.612 622.263 715.491 623.289 715.433 624.614L715.432 624.653C715.374 625.978 716.4 627.098 717.725 627.156L802.104 630.84C803.429 630.898 804.549 629.871 804.607 628.547L804.608 628.507C804.666 627.183 803.64 626.062 802.315 626.005Z" fill="#000000"/>
<path d="M690.21 630.991C689.903 629.551 689.79 628.104 689.87 626.651C689.875 626.568 689.896 626.487 689.932 626.413C689.968 626.338 690.019 626.272 690.08 626.217C690.141 626.162 690.212 626.12 690.29 626.093C690.367 626.067 690.449 626.056 690.53 626.061C691.217 626.101 691.62 626.454 691.74 627.121C692.033 628.714 691.543 630.271 690.27 631.791C690.117 631.978 690.06 631.954 690.1 631.721C690.12 631.608 690.15 631.498 690.19 631.391C690.23 631.258 690.237 631.124 690.21 630.991Z" fill="#000000"/>
<path d="M718.08 645.521C716.927 645.488 716.13 644.734 715.69 643.261C715.483 642.581 715.747 641.868 716.48 641.121C716.668 640.93 716.895 640.782 717.146 640.687C717.396 640.592 717.663 640.552 717.93 640.571C737.59 641.938 757.66 642.691 778.14 642.831C778.463 642.834 778.781 642.905 779.073 643.04C779.364 643.174 779.622 643.369 779.83 643.611C780.503 644.404 780.727 645.224 780.5 646.071C780.403 646.446 780.183 646.778 779.875 647.015C779.568 647.252 779.189 647.381 778.8 647.381C757.867 647.301 740.61 646.828 727.03 645.961C723.943 645.761 720.96 645.614 718.08 645.521Z" fill="#000000"/>
<path d="M519.528 647.865L422.226 645.997C420.89 645.971 419.786 647.033 419.76 648.37L419.759 648.43C419.733 649.766 420.796 650.87 422.132 650.896L519.434 652.764C520.77 652.79 521.874 651.727 521.9 650.391L521.901 650.331C521.927 648.995 520.864 647.891 519.528 647.865Z" fill="#000000"/>
<path d="M514.727 666.768L420.914 667.914C419.589 667.93 418.527 669.018 418.543 670.343L418.544 670.383C418.56 671.709 419.648 672.77 420.973 672.754L514.786 671.607C516.111 671.591 517.173 670.504 517.157 669.178L517.156 669.138C517.14 667.813 516.052 666.752 514.727 666.768Z" fill="#000000"/>
<path d="M790.045 682.472L717.623 680.829C716.342 680.8 715.28 681.815 715.251 683.096L715.249 683.216C715.22 684.497 716.234 685.559 717.515 685.588L789.937 687.231C791.218 687.26 792.28 686.245 792.309 684.964L792.311 684.845C792.341 683.564 791.326 682.502 790.045 682.472Z" fill="#000000"/>
<path d="M510.384 687.987L421.755 686.594C420.391 686.573 419.268 687.661 419.246 689.025L419.245 689.085C419.224 690.449 420.312 691.572 421.676 691.594L510.305 692.986C511.669 693.008 512.792 691.919 512.814 690.555L512.815 690.495C512.836 689.131 511.748 688.008 510.384 687.987Z" fill="#000000"/>
<path d="M854.72 730.16C855.487 730.12 855.874 729.717 855.88 728.95C856 718.377 856.187 707.674 856.44 696.84C856.474 695.474 857.284 694.577 858.87 694.15C859.637 693.944 860.39 694.624 861.13 696.19C861.242 696.42 861.297 696.677 861.29 696.94L860.49 728.91C860.488 729.034 860.51 729.157 860.556 729.272C860.602 729.387 860.67 729.491 860.757 729.578C860.844 729.665 860.948 729.733 861.062 729.778C861.176 729.823 861.298 729.845 861.42 729.84L898.99 728.54C899.359 728.527 899.725 728.599 900.06 728.75C901.434 729.37 902.114 730.117 902.1 730.99C902.074 732.63 901.237 733.477 899.59 733.53C887.464 733.93 875.434 734.357 863.5 734.81C862.767 734.837 862.037 734.914 861.31 735.04C861.134 735.073 860.971 735.155 860.84 735.277C860.708 735.4 860.615 735.557 860.57 735.73C859.9 738.27 856.88 738.58 855.87 736.27C855.704 735.87 855.404 735.647 854.97 735.6L849.24 734.95C848.314 734.844 847.84 734.327 847.82 733.4L847.78 732C847.754 731 848.24 730.474 849.24 730.42L854.72 730.16Z" fill="#000000"/>
<path d="M170.79 748.05C173.357 748.177 176.037 748.184 178.83 748.07C191.597 747.564 205.077 747.084 219.27 746.63C219.835 746.61 220.39 746.777 220.85 747.104C221.309 747.432 221.647 747.901 221.81 748.44C221.857 748.587 221.877 748.734 221.87 748.88C221.817 750.574 220.943 751.45 219.25 751.51L171.08 753.2C170.911 753.207 170.75 753.274 170.627 753.39C170.504 753.506 170.427 753.662 170.41 753.83L170.05 757.18C170.031 757.364 169.971 757.541 169.874 757.697C169.777 757.853 169.645 757.984 169.49 758.08C168.53 758.667 167.527 758.734 166.48 758.28C165.98 758.067 165.707 757.69 165.66 757.15L165.37 753.92C165.355 753.748 165.273 753.588 165.143 753.474C165.012 753.361 164.843 753.302 164.67 753.31L122.05 754.71C121.525 754.726 121.015 754.542 120.621 754.197C120.227 753.852 119.98 753.37 119.93 752.85C119.89 752.49 119.887 752.134 119.92 751.78C120.027 750.507 120.717 749.85 121.99 749.81L164.72 748.39C164.876 748.385 165.023 748.32 165.131 748.208C165.24 748.096 165.3 747.946 165.3 747.79L165.24 701.92C165.24 700.674 165.85 699.917 167.07 699.65C167.217 699.617 167.363 699.61 167.51 699.63C169.043 699.83 169.817 700.704 169.83 702.25L170.16 747.39C170.16 747.81 170.37 748.03 170.79 748.05Z" fill="#000000"/>
<path d="M779.248 700.498L718.273 701.243C717.041 701.258 716.055 702.269 716.07 703.5L716.075 703.88C716.09 705.112 717.1 706.098 718.332 706.083L779.307 705.338C780.539 705.323 781.525 704.312 781.51 703.081L781.505 702.701C781.49 701.469 780.48 700.483 779.248 700.498Z" fill="#000000"/>
<path d="M697.379 714.27L695.942 714.178C695.468 714.147 695.059 714.506 695.028 714.98L694.918 716.677C694.888 717.151 695.247 717.56 695.721 717.59L697.158 717.683C697.632 717.714 698.041 717.355 698.072 716.881L698.181 715.184C698.212 714.71 697.853 714.301 697.379 714.27Z" fill="#000000"/>
<path d="M698.81 729.201L699.11 730.451C699.158 730.645 699.161 730.848 699.12 731.045C699.079 731.241 698.995 731.426 698.873 731.585C698.751 731.744 698.595 731.874 698.416 731.965C698.237 732.056 698.04 732.106 697.84 732.11L696.28 732.141C696.102 732.144 695.926 732.113 695.76 732.048C695.595 731.983 695.444 731.886 695.316 731.762C695.189 731.639 695.087 731.491 695.018 731.327C694.948 731.164 694.911 730.988 694.91 730.81L694.9 729.24C694.899 729.039 694.944 728.839 695.032 728.657C695.119 728.475 695.246 728.315 695.404 728.19C695.561 728.064 695.745 727.975 695.942 727.93C696.139 727.885 696.343 727.885 696.54 727.93L697.8 728.22C698.043 728.274 698.266 728.394 698.444 728.567C698.622 728.74 698.749 728.96 698.81 729.201Z" fill="#000000"/>
<path d="M726.28 753.95C726.434 754.041 726.604 754.1 726.781 754.124C726.958 754.148 727.138 754.136 727.31 754.09C727.483 754.043 727.644 753.962 727.785 753.853C727.925 753.743 728.043 753.606 728.13 753.45L732.71 745.39C732.996 744.887 733.422 744.477 733.936 744.211C734.451 743.945 735.032 743.833 735.61 743.89C737.817 744.11 740.043 744.207 742.29 744.18C763.99 743.907 785.553 743.28 806.98 742.3C808.327 742.24 809.353 742.82 810.06 744.04C810.173 744.24 810.207 744.447 810.16 744.66C810.023 745.349 809.685 745.971 809.2 746.424C808.716 746.878 808.113 747.137 807.49 747.16C784.09 748.02 760.64 748.687 737.14 749.16C736.831 749.166 736.53 749.26 736.272 749.43C736.013 749.599 735.808 749.839 735.68 750.12C734.09 753.53 730.67 760.07 726.13 759.24C722.7 758.61 719.91 753.45 718.57 750.59C718.143 749.67 717.747 748.73 717.38 747.77C716.06 744.277 716.423 742.304 718.47 741.85C718.881 741.759 719.312 741.823 719.679 742.029C720.047 742.236 720.325 742.571 720.46 742.97C721.773 746.79 723.277 750.024 724.97 752.67C725.317 753.21 725.753 753.637 726.28 753.95Z" fill="#000000"/>
<path d="M398.194 742.652L351.851 744.513C350.715 744.559 349.83 745.517 349.876 746.654L349.905 747.393C349.951 748.53 350.91 749.415 352.046 749.369L398.389 747.508C399.526 747.462 400.41 746.504 400.365 745.367L400.335 744.627C400.289 743.491 399.331 742.606 398.194 742.652Z" fill="#000000"/>
<path d="M702.09 762.01C702.71 763.777 702.767 765.434 702.26 766.98C702.196 767.178 702.071 767.35 701.902 767.472C701.733 767.594 701.529 767.66 701.32 767.66C700.36 767.654 699.403 767.61 698.45 767.53C694.71 767.21 693.13 762.17 696.2 759.91C698.51 758.21 701.22 759.55 702.09 762.01Z" fill="#000000"/>
<path d="M685.132 766.808C685.09 767.442 685.476 767.983 685.994 768.018C686.512 768.052 686.966 767.566 687.008 766.933C687.05 766.299 686.664 765.757 686.146 765.723C685.628 765.688 685.174 766.174 685.132 766.808Z" fill="#000000"/>
<path d="M666.31 783.75C666.117 785.484 665.15 786.34 663.41 786.32C655.323 786.234 647.187 786.15 639 786.07C637.08 786.057 635.86 785.28 635.34 783.74C635.253 783.487 635.25 783.217 635.33 782.93C635.69 781.737 636.493 781.13 637.74 781.11C642.04 781.05 646.38 781.034 650.76 781.06C655.35 781.1 660.15 780.32 664.57 781.06C665.903 781.28 666.497 782.064 666.35 783.41L666.31 783.75Z" fill="#000000"/>
</g>
<defs>
<clipPath id="clip0_93_3575">
<rect width="1024" height="1024" fill="none"/>
</clipPath>
</defs>
</svg>
