<svg width="1024" height="644" viewBox="0 226 1024 644" fill="none" xmlns="http://www.w3.org/2000/svg">
<g clip-path="url(#clip0_93_7242)">
<rect width="1024" height="1024" fill="none"/>
<path d="M398.65 243.63C403.66 238.52 410.99 236.13 418.05 236.24C426.07 236.62 433.71 239.56 440.78 243.18C444.63 245.1 448.49 247.4 452.88 247.75C457.33 248.21 461.58 246.41 465.99 246.23C474.3 245.85 482.43 249.93 487.67 256.28C491.9 261.25 493.98 267.78 498.81 272.28C503.76 276.9 510.23 279.39 515.45 283.67C522.48 289.07 528.51 296.91 529.27 305.99C529.38 318.27 524.42 331.03 514.62 338.76C512.28 340.69 509.5 341.93 506.6 342.72C504.7 363.55 502.52 384.54 496.4 404.63C492.78 415.76 487.46 426.71 478.85 434.84C475.65 438.03 471.36 439.74 467.05 440.83C452.97 444.53 438.04 445.73 423.67 442.97C423.81 447.84 423.8 452.72 423.95 457.59C428.12 459.42 431.79 462.2 435.97 464.02C443.35 467.56 451.53 469.79 457.89 475.17C462.79 479.05 466.15 484.46 468.84 490.02C487.72 529.57 506.16 569.32 525.19 608.79C526.07 611.18 528.3 614.75 525.65 616.77C518.16 622.12 509.1 624.46 500.4 627.05C500.61 629.34 500.65 631.9 502.27 633.74C504.78 635.55 508.01 635.68 510.96 636.22C518.21 637.47 525.49 638.61 532.85 638.98C554.51 578.84 576.15 518.68 597.6 458.46C598.16 456.81 598.96 454.93 601.1 455.29C619.37 454.62 637.66 454.35 655.94 453.84C660.98 453.59 666.02 454.44 671.07 454.02C695.62 453.38 720.17 452.62 744.73 452.1C754.64 452.07 764.54 451.69 774.45 451.46C771.47 446.8 768.79 441.96 765.91 437.24C763.45 432.99 760.42 428.82 759.88 423.78C760.91 424.78 761.99 425.78 762.78 427.01C767.78 435.06 772.4 443.39 778.06 451C781.41 452.04 785.26 451.16 788.79 451.07C789.17 449.55 789.35 447.89 790.48 446.7C791.09 447.78 791.66 448.9 792.19 450.04L792.54 450.78C797.68 450.72 802.83 450.73 807.99 450.74C812.56 450.79 817.49 449.92 821.64 452.35C825.12 453.68 829.39 453.84 831.92 456.94C836.8 462.48 838.94 469.7 841.95 476.3C841.47 459.74 840.53 442.79 834.07 427.31C834.68 427.31 835.9 427.3 836.51 427.3C844.47 443.59 844.25 462.24 844.7 479.95C846.71 469.86 847.83 459.62 848.47 449.37C849.09 449.26 850.32 449.03 850.94 448.92C850.63 453.92 850.23 458.91 849.85 463.9C849.14 475.82 843.66 487.18 845.34 499.27C847.87 488.01 850.99 476.86 854.7 465.93C857.12 459.42 859.84 453.03 862.83 446.76C866.4 439.99 863.93 432.13 863.69 424.91C864.52 424.87 865.37 424.83 866.22 424.8C865.95 428.77 866.03 432.81 867.07 436.68C874.5 422.8 881.93 408.88 890.93 395.94C893.43 392.63 895.27 388.45 899.26 386.64C898.8 389.06 897.53 391.16 896.12 393.12C890.53 401.02 885.43 409.24 880.51 417.56C885.15 414.45 889.92 411.29 895.39 409.86C894.74 410.99 894.26 412.34 893 412.94C886.41 417.11 878.27 420.35 874.9 427.95C868.84 439.6 863.31 451.54 858.64 463.83C856.53 469.28 854.74 474.84 853.12 480.46C850.05 490.8 847.84 501.37 846.17 512.03C844.54 519.86 844.82 527.88 844.83 535.83C844.83 537.61 844.81 539.4 844.8 541.2C848.44 541.21 852.08 541.2 855.73 541.14C856.2 539.86 856.7 538.59 857.17 537.31C860.92 530.32 858.91 522.38 860.25 514.91C860.6 512.44 861.01 509.98 861.22 507.5C860.31 506.59 860.49 505.73 861.97 505.41C863.69 500.58 864.39 495.34 866.98 490.86C868.35 491.03 868.93 491.85 868.27 493.13C865.23 503.21 861.13 513.48 862.15 524.21C867.56 513.31 873.99 502.89 881.76 493.5C886.13 488.26 890.31 482.8 895.5 478.33C896.32 477.43 897.59 478.11 898.62 477.94C896.69 481.72 893.4 484.49 890.71 487.68C887.33 491.66 883.88 495.59 880.84 499.84C885.06 498.29 889.36 495.39 893.98 496.09C896.04 495.96 893.9 497.98 893.26 498.23C887.46 500.5 881.31 502.44 876.51 506.56C873.35 509.58 871.28 513.51 869.22 517.31C866.2 523.13 863.03 528.93 860.95 535.17C860.27 537.17 859.57 539.17 858.85 541.16C864.61 541.37 870.38 540.96 876.14 541.23C878.88 541.48 880.23 544.58 880.24 547.02C879.7 567.6 878.21 588.15 877.35 608.73C882.63 609.5 881.26 615.82 880.39 619.47C899.57 619.24 918.77 619.66 937.96 619.65C941.58 619.18 944.76 622.35 944.56 625.94C945.21 659.97 945.73 694.01 945.84 728.06C950.6 731.4 952.99 737.29 952.86 743C952.64 779.36 952.98 815.73 952.77 852.08C952.9 855.1 949.5 856.13 947.05 856.06C915.72 857.42 884.38 858.95 853.05 860.11C850.5 858.71 848.32 856.76 845.98 855.07C844.42 855.8 842.84 856.6 841.08 856.58C812.7 857.68 784.34 859.2 755.95 860.17C752.27 860.14 748.51 861.16 744.99 859.65C714.74 852.81 684.34 846.61 654.03 840.03C650.81 839.28 647.48 838.85 644.47 837.45C642.93 836.51 643.14 834.54 643.1 833.03C643.12 798.19 643.03 763.36 643.21 728.53C621.15 728.79 599.09 728.62 577.04 728.88C582.29 731.17 587.03 735.72 586.89 741.87C586.65 778.61 586.79 815.36 586.75 852.1C587.06 854.15 585.89 856.39 583.57 856.28C553.39 857.31 523.19 857.64 493 857.98C488.88 858.97 486.69 854.59 483.68 852.67C483.12 854.12 482.7 855.66 481.92 857.03C475.37 858.05 468.66 857.61 462.05 857.81C444.02 858.53 425.98 858.43 407.95 858.77C406.38 858.55 405.29 859.87 404.06 860.57C402.47 859.75 400.76 859.14 398.96 859.29C372.28 859.25 345.61 859.58 318.93 859.54C314.62 859.94 311.57 856.33 308.2 854.27C307.87 855.89 307.54 857.55 307.18 859.17C301.82 859.94 296.39 859.54 291 859.74C266.67 859.92 242.34 860.42 218 860.56C213.64 860.42 209.18 861.06 204.92 859.81C181.46 855.02 158.01 850.19 134.5 845.65C125.09 843.63 115.52 842.23 106.26 839.58C105.88 815.04 106.23 790.5 106.11 765.96C106.21 751.38 105.92 736.79 106.23 722.22C112.17 721.47 118.19 721.85 124.17 721.85C124.23 718.24 124.07 714.61 124.64 711.03C127.22 710.93 129.83 710.8 132.39 711.24C132.54 711.77 132.83 712.84 132.98 713.37C131.19 712.58 129.29 712.15 127.39 711.77C127 715.55 126.64 719.33 126.27 723.11C136.83 724.64 147.46 725.74 158.08 726.8C158.13 726.48 158.22 725.83 158.27 725.5C159.33 726.66 160.68 727.56 162.31 727.52C170.93 727.81 179.43 729.63 188.06 729.95C188.75 725.89 188.4 721.67 187.38 717.71C176.5 715.48 165.34 715.99 154.31 715.31C148.56 715.03 142.81 714.45 137.06 714.45C136.51 714.67 135.41 715.12 134.87 715.34C134.67 715.03 134.27 714.42 134.07 714.11C133.98 712.31 134.01 710.22 136.51 711.1C136.48 711.49 136.4 712.27 136.36 712.66C136.51 712.49 136.79 712.16 136.94 711.99C138.16 710.59 140.35 711.57 141.96 711.39C157.49 712.24 173.08 712.39 188.54 714.13C189.13 715.13 189.74 716.14 190.35 717.15C190.78 716.42 191.64 714.96 192.07 714.23C203.05 714.22 214.02 715.15 225.01 715.17C269.96 715.58 314.94 716.39 359.86 714.69C359.66 718.89 359.96 723.1 359.42 727.29C355.86 724.71 359.52 720.52 357.53 717.2C356.53 717.69 355.54 718.18 354.55 718.69C354.59 719.66 354.66 721.59 354.7 722.55C353.37 721.62 353.24 720.18 353.39 718.71C352.3 719.48 352.38 720.78 352.35 721.98C352.91 722.68 354.03 724.08 354.59 724.78C354.05 724.84 352.97 724.97 352.44 725.03L353.06 723.01L351.46 723.74C351.3 722.98 350.96 721.46 350.8 720.7C350.59 721.11 350.16 721.91 349.95 722.32C349.43 721.32 348.87 720.37 348.31 719.42C339.86 719.39 331.45 720.25 323 719.94C315.13 720.56 307.2 719.77 299.36 720.88C297.12 720.89 294.89 720.99 292.67 721.23C292.13 720.8 291.6 720.37 291.07 719.96C291 720.27 290.87 720.91 290.81 721.22C289.83 721.29 288.86 721.37 287.9 721.45C287.62 721.17 287.06 720.59 286.78 720.31C280.59 720.6 274.38 719.39 268.24 720.44C263.97 719.33 259.48 719.59 255.12 719.77C250.47 719.47 245.8 719.29 241.14 719.44C239.35 719.37 237.9 720.5 236.46 721.38C236.33 720.96 236.08 720.11 235.96 719.69C235.4 720.27 234.86 720.86 234.31 721.46C233.63 720.83 232.96 720.22 232.28 719.61C227.55 721.21 222.68 719.91 217.91 719.27C217.16 718.95 216.42 718.64 215.66 718.37L215.28 718.8C212.12 722.54 208.96 726.34 206.45 730.57C205.85 729.18 205.2 727.82 204.55 726.47C204.84 725.71 205.44 724.2 205.73 723.44C205.28 723.32 204.37 723.06 203.92 722.93C204.1 722.49 204.47 721.62 204.66 721.18C204.05 721.53 202.82 722.25 202.21 722.61L202.77 720.81C201.19 720.23 199.67 719.53 198.21 718.71C197.88 718.35 197.2 717.62 196.87 717.26C196.2 718.41 195.54 719.59 194.89 720.77C194 719.35 193.1 717.94 192.19 716.55C189.51 720.92 191.59 726.04 191.01 730.8C196 730.22 200.88 731.59 205.84 731.89L207.76 732.08L207.44 730.58C209.08 730.88 210.7 731.27 212.34 731.62C225.13 732.93 238.01 731.85 250.83 731.99C259.19 732.84 267.61 732.73 275.98 732.17C279.75 731.83 283.52 733.11 287.26 732.14C293.73 732.07 300.26 732.67 306.69 731.66C309.68 731.2 312.75 730.97 315.73 731.63C322.75 733.03 329.91 731.67 336.99 732.4C345.68 732.35 354.39 732.52 363.08 732.22C364.61 732.47 365.71 730.24 364.78 729.1C363.57 726.45 362.63 723.7 362.09 720.85L361.84 719.69C361.38 717.9 361.75 716.06 361.86 714.27C386.88 713.62 411.92 714.03 436.95 713.84C531.29 713.96 625.62 712.59 719.95 712.06C740.63 711.83 761.32 711.61 782 711.9C785.71 711.95 789.43 711.89 793.14 711.63C777.78 708.78 762.38 706.18 746.93 703.89C738 702.49 729.08 700.52 720.01 700.58C655.68 703.53 591.36 706.91 526.99 709.18C474.66 708.16 422.3 708.85 369.95 708.56C365.6 708.44 361.15 708.9 356.93 707.61C358.09 704.27 362.45 703.34 362.82 699.46C360.41 699.24 357.99 699.09 355.58 698.84C357.77 698.25 360.02 697.4 362.32 697.92C370.04 699.32 377.91 698.57 385.71 698.76C388.02 698.81 390.35 699.27 392.66 698.86C392.91 697.48 393.09 696.11 393.27 694.74C392.76 694.59 391.73 694.27 391.22 694.11L391.1 693.98L391.07 693.8C392.59 690.3 392.55 686.46 392.63 682.72C389.05 682.69 385.48 682.64 381.92 682.51C385.71 682.37 389.5 682.15 393.25 681.49L394.23 681.34C397.48 684.12 395.82 688.91 396.09 692.63C407.78 693.24 419.21 696.23 430.92 696.7C457.75 698.08 484.67 694.08 511.46 697.19C512.54 695.1 513.5 692.95 514.36 690.77C507.8 689.07 501.24 687.33 494.46 686.82C488.4 686.04 482.23 686.18 476.23 684.99C476.37 684.31 476.65 682.93 476.79 682.25C484.93 682.68 493.09 683.29 501.17 684.4C505.94 685.03 510.45 686.96 515.23 687.48C516.65 684.77 517.42 681.76 518.26 678.84C509.71 675.9 500.87 673.92 491.93 672.59C490.06 672.62 490.49 670.59 490.38 669.4C500.57 669.11 510.04 673.73 519.92 675.4C519.99 674.62 520.11 673.06 520.18 672.28C515.67 670.5 510.5 670.12 506.33 667.81C507.22 665.41 510.11 665.8 512.1 666.26C515.33 667.22 518.54 668.27 521.71 669.42C522.57 666.98 523.59 664.6 524.42 662.15C512.89 661.79 501.48 659.86 489.95 659.58C470.98 658.7 452 659.96 433.03 659.84C423.66 660.11 414.93 656.25 406.03 653.96C388.09 649.21 369.86 645.75 351.77 641.71C338.73 638.5 325.77 634.92 313.03 630.64C305.16 628.12 297.25 625.05 288.84 625.32C271.38 625.34 253.37 624.04 236.5 629.45C235.42 635.8 235.94 642.61 233.85 648.69C222.05 649.24 210.23 649.26 198.42 649.69C190.58 650.04 182.73 649.41 174.89 649.88C173.96 646.01 173.75 642.04 173.34 638.11C172.41 625.59 171.44 613.07 171.24 600.52C171.06 587.68 171.23 574.85 171.09 562.01C170.78 550.7 170.42 539.37 170.88 528.06C171.26 520.95 171.83 513.57 175.11 507.13C177.12 503.42 181.4 502.05 185.14 500.78C208.54 494.35 232.76 491.91 256.88 489.96L256.14 488.34C234.19 489.12 212.3 492.19 190.89 497.14C185.09 498.59 178.6 499.85 174.39 504.45C170.8 509.54 169.79 515.89 169.16 521.95C168.3 533.27 168.49 544.64 168.86 555.98C169.34 580.02 168.59 604.11 170.48 628.11C171.05 635.44 171.79 642.74 172.47 650.06C169.69 650.44 166.91 650.69 164.11 650.86C162.56 611.25 162.94 571.58 164.27 531.97C164.89 522.69 165.13 513.12 168.5 504.33C171.47 496.88 179.58 493.42 186.91 491.83C211.32 486.71 236.26 485.01 261.01 482.46C263.85 480.52 266.34 478.03 269.47 476.49C279.16 471.25 290.39 470.9 301.03 469.1C311 467.43 321.14 466.05 330.64 462.47C334.62 460.71 338.57 458.84 342.8 457.7C346.5 456.89 348.14 452.99 351.36 451.3C354.71 448.86 358.96 448.49 362.66 446.94C364.11 432.54 364.51 418.06 365.31 403.61C357.3 401.18 354.64 392.57 352.48 385.42C347.96 370.68 342.82 356.15 337.53 341.68C335.38 335.34 332.81 329.09 331.69 322.47C329.05 306.02 336.83 288.88 349.73 278.69C360.02 270.59 373.01 264.99 386.32 265.91C380.53 260.39 372.7 257.26 364.72 257.1C364.84 256.65 365.09 255.77 365.21 255.33C371.07 254.35 376.85 257.14 382.11 259.46C380.57 255.39 381.61 251.02 382.2 246.87C382.22 245.62 382.86 244.8 384.12 244.41C384.01 248.6 383.3 252.81 383.92 256.99C384.64 260.37 387.32 262.81 389.63 265.2C390.01 257.25 393.02 249.34 398.65 243.63ZM459.86 344.03C458.07 347.3 453.76 346.32 451.05 344.87C440.33 339.2 430.52 331.55 422.79 322.17C421.94 328.58 419.68 334.77 415.9 340.04C408.06 351.13 396.52 358.69 386.12 367.12C384.78 364.63 385.15 361.67 384.1 359.08C381.12 352.88 373.25 348.78 366.6 351.53C360.64 354.54 358.61 361.78 358.8 368.01C358.46 374.26 361.61 380.71 367.15 383.79C369.29 385.15 372.83 384.86 373.16 388.06C371.76 388.1 370.37 388.13 368.98 388.13C368.17 409.1 367.31 430.09 365.4 450.99C364.57 458.64 369.13 465.51 374.28 470.7C382.72 478.93 394.19 482.67 404.26 488.33C409.79 485.96 416.47 484.13 419.52 478.43C421.73 473.75 421.97 468.28 421.03 463.26C417.37 461.79 413.96 459.72 411 457.12C403.79 450.79 397.27 443.5 392.78 434.96C391.7 432.86 390.6 430.51 391.22 428.09C393.32 426.05 395.96 428.22 398.03 429.18C405.35 433.42 412.98 437.34 421.23 439.41C434.98 442.6 449.42 442 463.12 438.85C468.64 437.52 474.5 435.77 478.34 431.3C490.24 418.32 495.14 400.77 498.28 383.85C501.02 370.45 502.1 356.81 503.44 343.23C492.04 345.18 480.56 340.24 472 332.94C467.73 329.56 464.37 325.25 460.58 321.38C456.93 328.43 461.93 336.65 459.86 344.03ZM351.27 455.31C346.92 458.79 345.39 464.61 345.22 469.96C345.07 477.61 348.92 484.65 353.57 490.47C358.98 497.02 364.86 503.24 371.56 508.49C375.31 511.44 380.23 513.48 385.05 512.6C388.14 511.95 388.74 508.34 389.94 505.92C392.09 499.74 396.04 494.45 400.32 489.6C392.56 486.38 385.02 482.54 378 477.93C369 471.77 361.57 461.77 362.05 450.42C358.1 451.05 354.28 452.61 351.27 455.31ZM750.94 456.98C701.68 458.37 652.4 459.17 603.14 460.25C598.39 471.99 594.74 484.14 590.16 495.94C566.74 561.77 542.9 627.45 519.29 693.21C517.83 697.67 515.36 701.87 514.9 706.61C515.3 706.35 516.1 705.85 516.49 705.59C519.44 699.55 521.17 692.98 523.68 686.75C546.25 623.61 569.16 560.6 591.66 497.45C596.22 485.7 599.82 473.57 604.64 461.94C616.44 461.81 628.24 461.4 640.04 461.21C691.04 460.5 742.01 458.85 793 458.07C805.03 457.26 817.22 458.46 829.15 456.56C826.3 455.35 823.13 455.6 820.12 455.55C797.05 455.85 774 456.69 750.94 456.98ZM830.44 457.5C827.99 463.7 825.87 470.02 823.38 476.2C820.82 482.15 818.7 488.28 816.44 494.35L816.25 494.33C814.91 498.78 812.99 503.01 811.31 507.33C812.11 510.29 813.98 512.87 815.35 515.61C818.51 521.12 820.73 527.08 823.24 532.89C824.67 535.66 824.64 539.78 827.71 541.28C827.83 536.68 827.55 532.07 826.89 527.52C826.32 521.9 824.66 516.44 822.83 511.12C822.3 510.16 822.73 509.15 822.97 508.2C823.41 508.46 824.29 508.96 824.73 509.21C829.01 519.29 830.87 530.31 831.03 541.21C834.57 541.21 838.12 541.19 841.67 541.2C842.07 522.78 842.84 504.3 841.79 485.89C838.92 476.12 834.98 466.61 830.44 457.5ZM325.93 467.11C312.21 470.92 297.99 472.22 284 474.64C275.77 476 267.71 479.75 262.33 486.27C255.58 494.58 253.71 505.47 250.66 515.45C241.93 549.11 234.89 583.2 228.88 617.44C237.89 615.94 246.9 614.25 256.05 613.99C264.38 613.35 272.73 613.9 281.07 614.17C290.7 614.52 300.22 616.94 309.87 616.31C311.26 590.64 310.69 564.85 311.92 539.19C315.31 537.85 314.63 541.98 314.69 544.05C314.41 567.03 313.53 590 313.26 612.99C313.11 615.03 313.33 618.01 310.99 618.91C306.59 620.2 301.97 618.97 297.54 618.5C297.56 619.41 297.6 621.21 297.61 622.12C301.84 624.23 306.44 625.37 310.91 626.86C321.84 630.4 332.84 633.77 343.98 636.63C365.82 642.36 388.21 645.74 409.93 651.93C417.5 654.03 424.97 657.03 432.93 657.1C444.87 657.25 456.79 656.39 468.73 656.43C467.76 647.06 467.63 637.64 467.33 628.23C457.25 629.18 447.08 629 437 628.23C433.19 627.7 429.19 627.96 425.58 626.47C422.99 625.43 422.72 622.37 422.77 619.97C422.93 606.97 423.26 593.96 423 580.96C422.93 577.63 422.1 574.25 422.9 570.96C423.57 571.16 424.92 571.55 425.6 571.75C426.54 569.89 427.31 566.99 429.93 567.12C441.8 567.07 453.67 567.34 465.55 567.31C465.52 555.92 464.45 544.57 463.92 533.21C464.59 533.22 465.94 533.23 466.61 533.24C468.11 544.48 468.22 555.85 468.82 567.16C471.69 567.55 475.87 565.99 477.74 568.91C478.26 574.28 476.95 579.65 476.81 585.03C476.49 597.4 475.73 609.75 475.6 622.12C475.86 624.67 473.42 625.94 471.53 626.97C472.64 627.37 473.8 627.61 475 627.56C484.13 627.44 493.17 625.85 501.98 623.52C509.84 621.26 517.73 618.61 524.63 614.12C520.61 607.61 517.8 600.44 514.44 593.59C500.14 563.53 485.94 533.44 471.75 503.34C467.88 495.42 464.73 486.92 458.88 480.2C451.7 472.29 440.75 470.33 431.63 465.57C436.85 475.58 440.15 486.68 440.74 497.98C441.08 503.31 439.84 509.07 436.02 513.01C433.4 515.55 429.85 517.61 426.07 517.23C423.73 517.04 421.98 515.22 420.74 513.4C415.5 505.66 411.41 497 404.65 490.4C401.37 494.24 397.57 497.75 395.32 502.36C393.37 505.85 392.49 509.88 390.15 513.15C387.51 516.42 382.8 516.01 379.07 515.57C371.27 514.09 365.66 508.02 360.19 502.76C353.49 495.76 346.44 488.43 343.35 479.02C341.26 473.06 341.73 466.58 343.56 460.63C337.46 462.19 332 465.48 325.93 467.11ZM424.52 462.68C425.05 468.58 425.35 474.97 422.2 480.25C419.47 485.32 414.04 488.11 408.66 489.49C414.33 496.02 418.47 503.67 423.13 510.91C424.28 512.57 425.69 514.87 428.1 514.07C433.28 512.5 436.97 507.33 437.19 501.97C437.81 492.15 435.02 482.48 431.57 473.4C429.67 469.59 428.15 465.21 424.52 462.68ZM799.6 538.5L799.32 538.31C789.09 565.21 778.66 592.03 768.35 618.89C778.16 619.34 787.99 619.16 797.8 619.03C797.45 616.69 796.94 614.31 797.37 611.96C797.83 609.95 800.25 610.14 801.79 609.88C801.19 588.94 800.92 568 800.61 547.06C800.26 542.44 805.3 541.2 808.86 540.74C813.38 541.53 818.05 541.04 822.63 540.99C818.98 531.01 814.57 521.31 809.76 511.85C806.1 520.62 802.65 529.51 799.6 538.5ZM803.81 546.95C803.87 568.04 804.15 589.15 805.11 610.22C828.05 610.34 851.01 608.67 873.95 609.41C875.5 589.97 876.22 570.46 876.91 550.98C876.85 549.05 877.25 547.01 876.54 545.2C875.74 543.97 874.16 544.32 872.96 544.22C851.6 544.21 830.25 544.13 808.9 544.14C807.01 544.19 803.74 544.38 803.81 546.95ZM685.48 560.63C680.04 561.79 675.73 566.53 674.92 572.01C673.68 579.22 679.58 586.59 686.9 586.85C695.58 587.63 703.28 578.35 700.53 569.98C699.04 563.45 691.95 559.22 685.48 560.63ZM428.74 574.99C428.79 577.03 424.61 576.97 425.98 579.28C428.28 579.84 430.7 579.62 433.06 579.72C446.8 579.77 460.57 580.21 474.3 579.39C474.72 576.34 474.96 573.26 474.9 570.18C459.73 570.35 444.56 570.09 429.4 569.78C429.14 571.51 428.98 573.25 428.74 574.99ZM425.86 582.45C426.02 595.65 425.56 608.88 425.93 622.08C426.32 624.98 429.89 624.58 432.02 625C445.35 626.04 459.23 627.75 472.23 623.77C473.32 610.09 473.07 596.3 474.11 582.6C458.03 582.83 441.94 582.77 425.86 582.45ZM800.2 613.18C800.2 614.87 800.23 616.57 800.27 618.28C823.15 619.26 846.08 618.24 868.99 618.71C871.76 618.66 874.61 619.05 877.34 618.39C878.39 616.47 878.63 614.27 878.44 612.13C874.96 612.41 871.5 611.75 868.03 611.88C845.42 612.32 822.81 613.06 800.2 613.18ZM767.14 622.16C762.43 635.04 757.21 647.73 752.36 660.56C751.46 663.18 751.09 665.98 751.29 668.75C772.14 669.98 793.15 670.09 814.08 670.47C815.87 670.49 818.44 670.95 818.69 673.17C819.08 678.47 818.93 683.82 818.81 689.13C818.9 690.72 817.73 692.47 815.98 692.29C794.49 692.55 772.98 692.16 751.49 692.52C751.46 695.59 751.4 698.66 751.6 701.73C770.13 704.37 788.52 708.01 807.05 710.65C808.82 710.97 810.82 711.91 811 713.96C811.48 717.28 811.45 720.85 810.27 724.04C809.23 726.46 806.3 726.74 804.01 726.77C776.31 727.42 748.6 727.19 720.9 727.58C728.79 729.69 736.99 730.42 744.96 732.25C749.86 733.49 754.93 733.25 759.94 733.27C784.8 733.2 809.65 732.54 834.51 732.22C834.36 730.35 834.21 728.49 834.09 726.63C841.24 725.97 846.62 733.44 846.87 739.98C847.27 753.98 847.09 768 847.07 782.01C847.1 804.72 847.2 827.44 846.99 850.14C847.36 852.79 850.34 853.75 852.18 855.27C850.8 816.53 851.78 777.76 851.93 739.02C851.9 737.05 852.23 733.73 854.93 733.93C882.33 733.47 909.74 733.5 937.15 733.06C936.81 730.69 936.65 728.29 936.99 725.92C938.73 725.79 940.48 725.72 942.25 725.71C942.32 714.69 942.06 703.68 942.06 692.66C921.01 692.45 899.96 692.51 878.92 692.59C877.36 692.49 874.78 692.67 874.68 690.53C874.22 685.69 874.5 680.81 874.43 675.96C874.4 673.77 874.34 670.48 877.39 670.65C898.85 669.84 920.36 669.58 941.83 668.68C941.35 653.57 941.96 638.39 940.69 623.33C930.81 622.6 920.89 623.12 911 622.91C891.51 623.35 872.02 623.34 852.53 623.6C851.92 628.02 852.15 632.48 852.09 636.93C851.97 656.94 852.15 676.96 852.16 696.97C852.28 709.31 852.02 721.66 852.86 733.98C849.68 734.75 848.63 731.58 849.06 729.02C848.6 695.35 848.67 661.68 848.63 628.01C848.57 625.74 848.83 623.48 849.56 621.33C843.38 621.91 837.16 621.56 830.96 621.68C809.69 621.89 788.41 621.99 767.14 622.16ZM470.5 639.81C471.07 645.24 471.22 650.72 471.88 656.15C482.58 656.69 493.38 656.36 504.06 657.62C511.25 658.04 518.41 659.22 525.63 658.84C527.72 653.21 529.34 647.39 531.99 641.99C523.31 641.33 514.69 639.99 506.14 638.37C503.24 637.97 500.64 636.5 498.81 634.22C489.68 637.45 480.07 638.7 470.5 639.81ZM740.43 693.36C739.11 697.27 734.62 697.73 731.12 698.03C736.89 699.02 742.63 700.21 748.41 701.22C748.43 691.09 748.29 680.95 748.65 670.83C745.41 678.14 743.05 685.81 740.43 693.36ZM751.46 672.09C751.43 674.35 751.42 676.62 751.43 678.9C772.94 679.35 794.47 679.2 815.99 679.19C815.88 677.34 816.12 675.42 815.56 673.65C813.72 673.32 811.85 673.29 810.01 673.27C790.49 673.24 770.98 672.29 751.46 672.09ZM877.81 673.66C877.7 675.45 877.63 677.26 877.56 679.08C899.04 679.16 920.54 679.38 942.01 678.79C941.98 676.62 941.96 674.46 941.92 672.3C920.55 672.46 899.18 673.54 877.81 673.66ZM751.57 689.24C771.4 689.59 791.23 689.07 811.06 689.29C812.58 689.17 814.26 689.52 815.7 688.84C815.98 686.67 815.93 684.48 815.96 682.31C794.58 682.27 773.19 681.81 751.81 682C751.18 684.34 751.59 686.83 751.57 689.24ZM877.81 682.26C877.76 684.58 877.77 686.9 877.81 689.23C899.18 689.06 920.56 689.27 941.93 688.92C941.98 686.69 942 684.46 942.02 682.23C920.61 682.03 899.21 682.11 877.81 682.26ZM396.16 695.38C396.04 696.08 395.81 697.48 395.69 698.18C401.21 698.33 406.74 698.22 412.23 697.59C406.95 696.39 401.53 696.01 396.16 695.38ZM489.99 699.61C489.88 701.03 489.79 702.46 489.72 703.89C493.52 703.74 497.32 703.87 501.13 703.97C501.28 702.48 501.41 700.99 501.53 699.51C497.68 699.74 493.83 699.61 489.99 699.61ZM594.98 715.8C543.66 716.7 492.32 716.49 440.99 716.66C415.96 716.95 390.92 716.3 365.9 717.02C365.84 719.81 365.77 722.61 365.68 725.41C404.79 726.59 443.92 726.66 483.04 726.39C537.34 726.39 591.64 726.25 645.94 725.78C689.62 725.32 733.29 724.57 776.98 724.35C786.91 724.08 796.9 724.62 806.79 723.59C808.8 721.06 808.17 717.53 808.34 714.54C782.58 714.71 756.81 714.53 731.04 714.7C685.69 714.98 640.34 715.6 594.98 715.8ZM108.76 724.59C108.87 762.11 108.74 799.63 108.78 837.16C123.08 841.09 137.8 843.28 152.24 846.67C170.61 850.05 188.8 854.31 207.15 857.83C207.74 848.92 207.34 839.98 207.39 831.06C207.31 799.1 207.56 767.14 207.21 735.19C205.15 734.83 203.1 734.46 201.03 734.2C178.97 732.1 156.99 729.23 134.95 726.94C126.22 726.15 117.58 724.18 108.76 724.59ZM383.94 728.32C388.6 731.33 394.53 731.91 398.84 735.6C396.91 735.84 394.98 735.96 393.05 735.89C368.11 735.03 343.15 735.16 318.21 735.67C317.97 740.49 318.17 745.35 318.38 750.18C346.52 750.11 374.67 750.48 402.81 750.21C402.43 745.14 402.4 739.9 400.8 735.04C396.62 730.29 390.09 728.44 383.94 728.32ZM646.19 728.47C646.17 764 645.92 799.53 646.21 835.06C652.67 837.07 659.4 837.99 665.98 839.56C693.04 845.28 720.05 851.21 747.1 856.97C746.55 816.56 746.97 776.14 747.42 735.74C736.94 733.74 726.42 731.93 715.95 729.89C711.32 729.07 706.76 727.64 702.02 727.83C683.41 728.03 664.81 728.45 646.19 728.47ZM467.89 729.19C471.31 730.61 474.43 732.69 477.91 734.02C475.37 731.25 471.94 728.25 467.89 729.19ZM476.43 728.72C478.15 730.9 480.18 732.9 481.31 735.49C483.53 740.34 483.46 745.8 483.65 751.03C483.87 782.33 484.3 813.63 484.17 844.94C483.69 848.77 486.86 851.56 489.69 853.55C489.84 814.67 490.06 775.77 489.78 736.91C487.41 731.88 481.77 729.21 476.43 728.72ZM568.86 729.34C572.77 731.78 577.43 732.79 581.09 735.71C579.03 731.35 573.59 728.68 568.86 729.34ZM838.28 730.68C837.68 733.17 835.76 735.52 832.94 735.18C820.98 735.48 809.02 735.53 797.07 735.78C781.49 735.68 765.91 736.5 750.33 736.15C750.35 740.51 750.25 744.88 750.36 749.25C781.58 748.4 812.81 748.08 844.03 747.12C844.67 741.11 843.73 734.27 838.28 730.68ZM945.66 731.87C944.12 734.75 941.32 736.61 937.97 736.38C910.28 736.74 882.57 736.45 854.9 737.12C854.94 741.05 854.92 745 855.1 748.94C886.69 748.14 918.28 747.32 949.88 746.72C950.06 741.54 949.45 735.74 945.66 731.87ZM209.83 735.19C210.28 740.2 209.89 745.22 210.13 750.24C241.68 750.48 273.23 750.42 304.77 750.4C304.73 745.77 304.89 741.14 304.89 736.52C273.22 735.01 241.5 736.33 209.83 735.19ZM402.95 735.76C405.78 740.12 405.15 745.41 405.46 750.35C430.37 750.17 455.3 750.9 480.2 750.42C480.15 746.28 480.89 741.98 479.52 737.99C478.96 736.62 477.4 736.3 476.08 736.26C451.72 735.24 427.32 735.25 402.95 735.76ZM308.96 736.16C308.24 747.78 308.57 759.45 308.22 771.09C307.86 782.25 309.09 793.5 307.76 804.61C308.98 809 308.12 813.58 308.33 818.07C308.53 828.76 308.31 839.46 309 850.14C310.52 851.63 312.18 852.98 313.96 854.17C314.8 845.46 314.15 836.7 314.23 827.96C314.29 803.61 314.22 779.25 314.09 754.9C313.78 748.94 313.68 742.97 313.82 737.01C312.19 736.72 310.58 736.44 308.96 736.16ZM493.07 736.28C493.27 740.97 493.28 745.66 493.15 750.36C523.47 750.15 553.81 751.12 584.12 750.43C584.02 746.87 584.3 743.29 583.71 739.77C583.47 738.42 582.58 737.15 581.17 736.92C576.46 736.82 571.75 736.81 567.05 736.59C542.4 735.57 517.73 736.11 493.07 736.28ZM854.87 751.9C854.78 787.02 853.96 822.18 855.25 857.27C877.16 856.2 899.09 855.52 921 854.45C930.59 853.96 940.22 853.91 949.78 852.79C950.02 818.44 949.63 784.07 949.86 749.72C944.23 749.73 938.61 749.83 932.98 749.85C906.95 750.85 880.9 750.98 854.87 751.9ZM750.22 752.2C749.87 787.32 749.37 822.46 750.2 857.58C771.47 856.69 792.75 855.93 814.01 854.93C823.97 854.22 833.99 854.5 843.9 853.17C844.22 849.46 844.14 845.74 844.16 842.02C844.11 811.42 844.12 780.81 843.94 750.21C812.7 750.8 781.44 751.19 750.22 752.2ZM210.05 753.13C210.31 788.14 209.95 823.16 210.19 858.17C241.75 857.49 273.33 857.13 304.9 856.42C304.88 822.21 304.91 788.01 304.73 753.81C273.18 753.2 241.6 753.06 210.05 753.13ZM318.46 753.4C318.43 787.82 318.4 822.24 318.58 856.66C346.66 856.29 374.74 855.67 402.82 855.61C402.91 821.47 402.95 787.32 402.78 753.19C374.67 753.12 346.57 753.28 318.46 753.4ZM405.6 753.18C405.73 787.32 406.3 821.46 406.39 855.6C431.03 855.15 455.67 855.27 480.29 854.29C480.85 847.53 480.28 840.74 480.48 833.97C480.3 807.04 480.58 780.12 480.3 753.2C455.4 753.24 430.5 753.09 405.6 753.18ZM493.51 753.78C493.33 787.55 493.69 821.33 493.09 855.1C506.74 855.36 520.39 854.88 534.04 854.73C550.59 854.26 567.15 854.29 583.7 853.53C583.92 851.36 584.13 849.19 584.12 847.02C584.02 826.69 584.25 806.36 583.91 786.03C583.79 775.14 584.45 764.24 583.9 753.36C553.77 753.31 523.64 753.66 493.51 753.78Z" fill="#0055CC" style="cursor: pointer;"/>
<path d="M435.26 354.15C437.39 350.58 442.52 351 446.02 352.08C446.24 354.95 443.25 355.33 441.12 355.64C439.1 355.86 436.38 356.35 435.26 354.15Z" fill="#0055CC" style="cursor: pointer;"/>
<path d="M480.15 353.88C483.1 352.34 486.59 354.29 489.32 355.64C491.07 356.14 490.53 358.81 488.91 358.72C486.55 358.56 484.27 357.83 482.04 357.08C480.33 356.98 479.64 355.39 480.15 353.88Z" fill="#0055CC" style="cursor: pointer;"/>
<path d="M367.32 356.44C369.04 354.8 371.65 354.97 373.14 356.84C376.09 360.14 379.74 364.09 378.79 368.88C375.85 369.41 372.89 369.75 369.92 370.04C371.89 373.23 374.81 376.07 375.54 379.87L374.88 380.83C374.57 380.76 373.93 380.64 373.61 380.58C371.18 376.88 368.92 373.05 366.84 369.14C369.63 366.92 373.22 366.7 376.62 366.29C374.75 362.06 371.51 358.45 367.32 356.44Z" fill="#0055CC" style="cursor: pointer;"/>
<path d="M439.22 364.22C442.14 361.88 444.56 366.4 444.4 368.94C444.76 371.88 443.13 377.78 439.1 375.77C435.85 372.99 436.63 367.25 439.22 364.22Z" fill="#0055CC" style="cursor: pointer;"/>
<path d="M482.4 365.489C483.63 364.229 485.84 364.989 486.66 366.369C488.59 369.479 488.28 373.959 485.67 376.609C484.53 377.619 482.67 377.509 481.78 376.239C479.17 373.239 480.03 368.359 482.4 365.489Z" fill="#0055CC" style="cursor: pointer;"/>
<path d="M468.62 373.01C467.76 371.41 468.39 369.85 470.12 369.28C471.55 372.88 472.79 376.66 475.24 379.73C477.09 382.24 479.61 384.11 481.64 386.46C482.88 387.02 481.63 389.49 480.5 388.46C475.1 384.71 470.87 379.19 468.62 373.01Z" fill="#0055CC" style="cursor: pointer;"/>
<path d="M475.67 394.59C477.99 393.89 479.28 391.65 481.01 390.11C483.64 393.6 479.47 396.44 476.43 397.28C473.35 398.22 468.99 397.58 467.89 394.09C470.48 394.16 473.11 395.47 475.67 394.59Z" fill="#0055CC" style="cursor: pointer;"/>
<path d="M432.81 402.19C431.88 401.31 430.62 398.73 432.8 398.54C435.14 400.73 437.23 403.33 440.24 404.66C444.81 407.13 450.07 407.36 455.08 408.2C454.57 411.28 451.26 410.26 449.03 410.04C443.03 409.18 436.87 406.86 432.81 402.19Z" fill="#0055CC" style="cursor: pointer;"/>
<path d="M863.68 410.1C864.37 410.6 865.54 410.93 865.5 412.01C865.77 415.62 865.66 419.24 865.83 422.86C865.16 423.49 864.51 424.13 863.86 424.77C863.88 419.87 863.69 414.99 863.68 410.1Z" fill="#0055CC" style="cursor: pointer;"/>
<path d="M683.36 563.44C688.39 560.92 695.57 562.75 698.02 568.05C699.87 571.37 700.04 575.55 697.95 578.81C694.75 585.09 685.11 587.21 680.25 581.66C674.75 576.54 676.78 566.64 683.36 563.44Z" fill="#0055CC" style="cursor: pointer;"/>
<path d="M281.04 650.58C309.75 650.45 338.48 649.73 367.16 651.14C370.24 651.1 371.01 654.49 371.18 656.94C371.67 664.38 371.91 671.88 371.41 679.34C362.13 679.25 352.88 678.43 343.6 678.14C343.84 677.81 344.33 677.15 344.57 676.82C349.43 678.21 354.36 676.05 359.26 676.98C362.55 677.51 366.27 678.18 368.79 675.41C368.43 674.88 367.73 673.82 367.38 673.29C366.95 671.6 366.63 669.9 366.37 668.2C366.61 667.69 367.1 666.67 367.34 666.15C368.08 664.64 368.43 662.99 368.84 661.38C367.95 660.46 367.07 659.55 366.18 658.66C365.91 658.4 365.38 657.89 365.11 657.63C354.1 657.3 343.08 657.54 332.08 657.62C332.14 657.15 332.27 656.21 332.33 655.74C335.29 656.39 338.32 656.59 341.36 656.48C341.37 655.79 341.38 654.4 341.39 653.71C323.25 653.48 305.1 653.56 286.95 653.58C283.51 653.58 280.01 653.28 276.64 654.12C276.27 654.21 275.52 654.37 275.14 654.46C272.5 653.61 269.86 652.59 267.07 652.45C262.48 652.15 257.69 653.11 253.34 651.14C262.55 650.39 271.81 650.73 281.04 650.58ZM341.44 653.72C341.52 654.34 341.68 655.59 341.76 656.22C345.17 657.03 348.58 655.33 351.99 656.06C354.64 656.7 357.34 656.44 359.95 655.76C362.34 656.55 364.83 656.35 367.06 655.15C366.54 654.84 365.51 654.21 365 653.9C357.16 653.5 349.29 653.66 341.44 653.72Z" fill="#0055CC" style="cursor: pointer;"/>
<path d="M212.67 651.88C223.72 651.82 234.76 651.36 245.8 651.2C246.98 651.63 248.14 652.13 249.3 652.64C238.58 653.93 227.74 653.14 216.97 653.32C215.78 653.28 214.67 653.56 213.65 654.16L213.49 653.95C213.28 653.43 212.88 652.4 212.67 651.88Z" fill="#0055CC" style="cursor: pointer;"/>
<path d="M152.32 655.32C163.25 652.77 174.58 652.24 185.76 651.87L185.3 653.46C182.17 656.06 177.78 655.27 174.02 655.94C169.33 656.83 164.13 655.28 159.88 657.95C159.58 658.11 158.98 658.43 158.67 658.59C158.61 659.24 158.47 660.55 158.4 661.2C157.75 661.3 156.46 661.48 155.81 661.57C156.55 661.57 158.03 661.58 158.77 661.59L158.73 663.23C157.97 663.31 156.45 663.47 155.69 663.55C156.41 663.56 157.86 663.57 158.58 663.58L158.57 664.67C157.64 664.7 155.78 664.76 154.85 664.79C154.59 668.61 153.51 672.3 152.25 675.9C152.1 675.49 151.79 674.69 151.64 674.29C151.66 667.96 151.35 661.6 152.32 655.32Z" fill="#0055CC" style="cursor: pointer;"/>
<path d="M287.14 662.76L287.93 662.77C289.65 664.71 285.4 664.66 287.14 662.76Z" fill="#0055CC" style="cursor: pointer;"/>
<path d="M341.24 664.479C341.56 664.759 341.56 664.759 341.24 664.479Z" fill="#0055CC" style="cursor: pointer;"/>
<path d="M349.04 665.96C349.14 666.09 349.33 666.36 349.42 666.49C349.27 667.91 349.12 669.34 348.98 670.77C348.62 670.73 347.91 670.64 347.55 670.6C347.71 669.73 348.01 668 348.17 667.14C348.39 666.84 348.82 666.25 349.04 665.96Z" fill="#0055CC" style="cursor: pointer;"/>
<path d="M353.32 671.19C352.69 669.79 352.95 668.82 354.1 668.28C354.76 669.68 354.5 670.65 353.32 671.19Z" fill="#0055CC" style="cursor: pointer;"/>
<path d="M358.88 668.11L359.08 667.86C359.06 669.14 359.77 671.71 357.92 672C357.47 670.6 357.78 669.3 358.88 668.11Z" fill="#0055CC" style="cursor: pointer;"/>
<path d="M365.39 668.94L365.79 668.93C366.35 669.88 367.05 672.59 365.48 672.75C364.88 671.5 364.86 670.23 365.39 668.94Z" fill="#0055CC" style="cursor: pointer;"/>
<path d="M335.99 669.88C336.48 670.53 336.48 670.53 335.99 669.88Z" fill="#0055CC" style="cursor: pointer;"/>
<path d="M126.4 676.23C131.98 675.29 137.59 676.66 143.18 676.95C141.99 677.5 140.8 678.08 139.77 678.91C139.26 683.48 139.84 688.15 138.71 692.68C138.1 692.9 136.86 693.34 136.24 693.56C133.23 693.6 130.24 693.25 127.24 693.05C126.49 687.49 125.59 681.83 126.4 676.23ZM127.26 677.94C127.3 682.21 130.81 685.06 132.61 688.63C133.89 688.54 135.18 688.44 136.46 688.35C136.71 686.33 136.26 684.37 135.35 682.58C134.35 680.8 134.31 677.91 131.71 677.76C131.88 680.64 132.79 683.39 133.64 686.13C131.03 683.78 129.4 680.66 127.26 677.94Z" fill="#0055CC" style="cursor: pointer;"/>
<path d="M322.95 681.47C325.03 681.06 327.12 680.68 329.23 680.42C338.77 680.26 348.3 680.91 357.84 681.14C357.01 681.52 356.32 682.46 355.3 682.34C347.26 682.3 339.22 681.68 331.2 682.2C328.43 682.3 325.67 681.89 322.95 681.47Z" fill="#0055CC" style="cursor: pointer;"/>
<path d="M312.55 697.89C323.02 696.86 333.57 697.09 344.07 697.45C342.98 697.82 341.89 698.19 340.8 698.55C331.39 698.44 321.96 698.23 312.55 697.89Z" fill="#0055CC" style="cursor: pointer;"/>
<path d="M132.9 698.08C135.03 696.69 137.65 697.57 140.01 697.5C155.67 698.01 171.32 698.94 186.98 699.19C188.85 698.65 189.1 702.66 186.96 701.85C169 701.57 151.05 700.47 133.11 699.77C133.06 699.34 132.95 698.5 132.9 698.08Z" fill="#0055CC" style="cursor: pointer;"/>
<path d="M191.89 701.8C192.39 700.33 193.51 699.72 195.03 700.03C243.7 700.26 292.32 702.73 340.99 703.1C343.14 703.37 346.82 702.2 346.22 705.8C296.79 705.27 247.4 703.13 197.98 702.62C195.92 702.58 193.87 702.33 191.89 701.8Z" fill="#0055CC" style="cursor: pointer;"/>
<path d="M131.81 706.16C133.87 704.53 136.53 704.93 138.97 704.9C144.35 705.01 149.74 705.06 155.11 705.47C165.98 706.33 176.91 706.08 187.77 707.2C187.87 707.8 188.09 709 188.19 709.6C172.82 709.2 157.44 708.15 142.05 707.85C138.59 707.71 134.91 708.02 131.81 706.16Z" fill="#0055CC" style="cursor: pointer;"/>
<path d="M191.5 709.8C191.64 708.22 192.49 707.57 194.04 707.87C219.02 707.86 243.99 708.5 268.96 708.94C297.19 709.48 325.44 709.49 353.66 710.15C353.81 710.85 354.11 712.24 354.26 712.94C312.17 712.25 270.08 711.84 228 710.86C215.83 710.64 203.64 710.56 191.5 709.8Z" fill="#0055CC" style="cursor: pointer;"/>
<path d="M197.59 720.65L198.58 720.6C198.29 721.04 197.71 721.91 197.42 722.35C197.46 721.92 197.55 721.08 197.59 720.65Z" fill="#0055CC" style="cursor: pointer;"/>
<path d="M199.27 721.65C199.77 721.96 199.77 721.96 199.27 721.65Z" fill="#0055CC" style="cursor: pointer;"/>
<path d="M199.76 722.34C200.31 722.61 201.42 723.17 201.97 723.45C201.72 724.61 200.65 725.27 199.7 725.84C199.62 725.17 199.44 723.81 199.35 723.14L199.76 722.34Z" fill="#0055CC" style="cursor: pointer;"/>
<path d="M522.51 806.7C532.35 806.26 542.23 806.33 552.09 806.19C554.36 805.92 556.82 807.38 556.67 809.89C556.68 815.57 557.05 821.31 556.47 826.98C556.11 829.55 553.05 829.95 550.96 829.72C542.27 829.23 533.57 829.69 524.88 829.67C522.22 829.76 519.35 827.97 519.1 825.16C518.73 820.43 518.91 815.68 518.92 810.95C518.68 808.77 520.32 806.81 522.51 806.7ZM524.07 809.68C521.94 809.28 521.87 811.33 521.66 812.82C531.81 812.88 541.96 812.6 552.11 812.52C552.13 817.3 551.78 822.12 552.29 826.88L552.95 827.48L553.75 826.8C554.59 821.15 553.78 815.35 554.07 809.64C544.11 808.82 534.06 809.9 524.07 809.68Z" fill="#0055CC" style="cursor: pointer;"/>
<path d="M776.5 806.87C787.35 806.65 798.22 806.34 809.08 806.14C812.28 805.9 814.33 809.13 814.86 811.91C815.38 816.24 815.1 820.67 814.31 824.96C813.62 828.4 810.78 831.78 807.02 831.68C796.98 831.54 786.94 831.76 776.9 831.72C774.37 831.85 772.06 829.7 772.3 827.11C772.19 822.04 772.16 816.97 772.26 811.9C772.14 809.45 773.91 806.93 776.5 806.87ZM775.47 809.72C774.83 813.23 775.04 816.81 775.11 820.37C776.77 820.02 778.46 819.7 780.15 819.37C780.12 817.83 780.12 816.31 780.14 814.79C784.09 814.04 785.92 817.74 787.64 820.56C787.82 822.94 784.8 823.7 783.05 824.27C783.43 823.45 784.18 821.8 784.56 820.98C783.89 819.82 783.21 818.67 782.52 817.56C780.15 818.75 782.15 819.92 783.36 821.06C778.8 821.44 783.96 823.41 782.49 825.53C779.68 826.83 779.18 824.66 779.2 822.45C777.83 822.33 776.49 822.23 775.16 822.15C775.19 824.23 774.77 826.41 775.5 828.43C776.85 829.21 778.46 829.07 779.97 829.11C786.32 828.99 792.67 829.14 799.03 829.06C802.72 828.98 806.52 829.42 810.09 828.23C812.24 823.13 812.63 817.37 811.79 811.95C811.38 808.62 807.49 808.89 805 808.93C795.16 809.41 785.3 809.23 775.47 809.72Z" fill="#0055CC" style="cursor: pointer;"/>
<path d="M880.55 806.77C891.63 805.93 902.81 806.37 913.92 805.65C917.27 805.03 920.19 807.7 920.7 810.89C921.08 814.57 920.8 818.29 920.64 821.99C920.43 824.75 920.14 827.9 917.95 829.89C916.06 831.56 913.4 831.67 911.02 831.63C901.39 831.52 891.75 831.58 882.12 831.56C879.52 831.71 877.63 829.41 877.55 826.98C877.15 822.32 877.4 817.63 877.41 812.97C877.47 810.65 878.04 807.58 880.55 806.77ZM880.6 809.52C880.1 812.86 880.07 816.25 880.25 819.63C881.94 819.59 883.67 819.74 885.37 819.45C885.56 817.92 885.59 816.37 885.72 814.86C886.54 814.93 888.19 815.08 889.02 815.16C889.43 816.3 889.83 817.45 890.24 818.62C890.83 818.92 892.01 819.51 892.6 819.8C892.45 820.62 892.14 822.27 891.99 823.09C890.46 822.86 888.96 822.6 887.47 822.3C887.12 823.62 886.77 824.94 886.41 826.27C885.2 825.27 885.11 823.67 884.83 822.27C883.23 822.26 881.63 822.2 880.06 822.17C880.38 824.5 879.42 828.83 883.01 828.77C892.67 828.94 902.35 828.83 912.02 828.93C913.71 828.87 916.28 828.9 916.86 826.84C918.07 822.69 917.56 818.26 917.88 813.99C918.25 811.55 917.04 807.96 913.94 808.61C902.83 808.85 891.69 808.78 880.6 809.52Z" fill="#0055CC" style="cursor: pointer;"/>
<path d="M458.2 807.37C460.33 807.72 460.92 810.14 460.76 811.99C460.66 817 461.08 822.04 460.57 827.03C460.21 829.63 457.14 829.99 455.04 829.81C445.81 829.39 436.56 829.75 427.34 829.51C424.42 829.53 422.86 826.64 423.18 824.02C423.38 819.36 422.88 814.64 423.53 810.02C424.37 807.3 427.77 807.81 430.01 807.64C439.4 807.7 448.82 806.9 458.2 807.37ZM426.47 810.67C426.3 811.7 426.14 812.74 426 813.8C436.02 813.96 446.04 813.47 456.05 813.31C456.15 817.83 455.78 822.39 456.24 826.9L456.94 827.5L457.81 826.93C458.35 821.39 458.04 815.78 457.83 810.23C447.38 809.99 436.92 810.59 426.47 810.67Z" fill="#0055CC" style="cursor: pointer;"/>
<path d="M249.639 809.1C256.409 808.73 263.189 808.92 269.969 808.63C272.629 808.29 275.699 809.97 275.879 812.86C276.289 817.25 276.08 821.69 275.89 826.1C276.07 828.82 273.76 831.5 270.95 831.31C262.3 831.59 253.649 831.35 244.999 831.52C242.799 831.6 239.919 831.39 239.029 828.99C237.869 825.1 238.549 820.96 238.279 816.97C238.259 814.42 237.619 810.82 240.519 809.54C243.459 808.7 246.609 809.33 249.639 809.1ZM240.539 815.24C251.379 814.9 262.259 815.51 273.079 814.56C272.799 813.36 272.89 811.21 270.98 811.62C261.21 811.6 251.429 811.89 241.649 811.8C241.269 812.94 240.899 814.08 240.539 815.24Z" fill="#0055CC" style="cursor: pointer;"/>
<path d="M360.96 808.04C365.3 807.94 369.66 807.6 374.01 807.87C376.48 808.19 378.31 810.5 378.49 812.92C378.79 817.3 378.79 821.73 378.48 826.12C378.32 828.8 375.77 831.19 373.05 830.92C364.35 830.91 355.65 830.85 346.95 831.08C344.33 831.32 341.28 829.94 340.97 827.05C340.6 822.38 340.77 817.67 340.76 812.99C340.63 810.58 342.69 808.45 345.08 808.41C350.36 808.12 355.66 808.23 360.96 808.04ZM344.45 811.59C344.23 812.27 343.79 813.63 343.57 814.31C352.36 814.12 361.16 814.19 369.95 814.01C371.43 813.75 373.25 814.22 374.46 813.12C374.49 810.55 371.63 811.22 369.97 811.08C361.46 811.31 352.93 810.96 344.45 811.59Z" fill="#0055CC" style="cursor: pointer;"/>
<path d="M796.14 813.61C800.38 813.63 804.71 812.81 808.89 813.88C809.32 817.11 809.41 820.39 808.79 823.62C804.38 823.79 799.97 823.63 795.58 824.07C795.61 820.57 795.76 817.08 796.14 813.61ZM798.47 816.3C798.36 817.81 798.27 819.33 798.18 820.87C800.78 820.82 803.39 820.93 806 820.78C806.97 819.57 806.5 817.6 806.23 816.16C803.63 816.07 801.05 816.23 798.47 816.3Z" fill="#0055CC" style="cursor: pointer;"/>
<path d="M901.13 813.96C905.37 813.65 909.64 813.37 913.9 813.34C916.34 815.9 915.08 820.25 914.86 823.52C910.26 823.62 905.67 823.55 901.09 823.78C900.84 820.5 900.85 817.22 901.13 813.96ZM903.85 815.89C903.9 817.49 903.97 819.1 904.06 820.72C906.9 820.61 909.75 820.59 912.6 820.64C912.65 819.11 912.69 817.59 912.73 816.09C909.76 815.92 906.8 815.92 903.85 815.89Z" fill="#0055CC" style="cursor: pointer;"/>
<path d="M245.8 651.2C248.3 651.01 250.86 650.63 253.34 651.14C257.69 653.11 262.48 652.15 267.07 652.45C269.86 652.59 272.5 653.61 275.14 654.46C274.9 656.06 274.66 657.68 274.42 659.3C267.83 659.79 261.22 659.65 254.63 659.86C254.59 659.41 254.51 658.51 254.47 658.06C254.46 658.53 254.44 659.46 254.44 659.93C247.27 659.97 240.1 660.07 232.93 660.14L232.98 661C246.97 660.35 261.01 661.03 274.99 660.07C275.54 658.08 276.02 656.08 276.64 654.12C280.01 653.28 283.51 653.58 286.95 653.58C305.1 653.56 323.25 653.48 341.39 653.71C341.38 654.4 341.37 655.79 341.36 656.48C338.32 656.59 335.29 656.39 332.33 655.74C332.27 656.21 332.14 657.15 332.08 657.62C329.87 657.87 327.48 657.7 325.46 658.67C321.3 663.71 318.22 669.57 314.03 674.6C314.15 674.87 314.4 675.43 314.53 675.71C318.59 670.91 321.74 665.43 325.65 660.53C326.76 658.65 329.09 658.99 330.95 658.87C342.69 658.81 354.44 658.87 366.18 658.66C367.07 659.55 367.95 660.46 368.84 661.38C368.43 662.99 368.08 664.64 367.34 666.15C366.8 666.6 365.71 667.5 365.16 667.95C364.55 666.49 363.98 665.02 363.43 663.56L363.37 665.95C362.86 665.51 361.86 664.64 361.35 664.2C360.9 664.67 360.44 665.16 359.99 665.65L359.42 663.66C359.31 665.05 359.19 666.45 359.08 667.86L358.88 668.11C357.82 669.31 356.81 670.57 355.7 671.75C352.86 672.12 355.63 667.98 355.63 666.46L353.62 666.56C354.26 665.88 355.52 664.51 356.15 663.83C355.34 664.3 354.54 664.78 353.74 665.27C354.25 667.7 352.1 668.17 350.28 668.72C350.41 667.46 350.66 664.94 350.78 663.68C350.31 664.6 349.85 665.54 349.42 666.49C349.33 666.36 349.14 666.09 349.04 665.96C348.82 666.25 348.39 666.84 348.17 667.14C346.99 668.34 344.74 668.72 343.32 667.76C342.72 666.18 344.87 665.2 344.88 663.62C344.39 663.89 343.91 664.16 343.42 664.43C342.46 663.35 340.28 662.54 339.51 664.26C339.43 666.07 339.91 667.9 339.58 669.74C339.83 669.92 340.32 670.29 340.57 670.48C340.6 669 340.68 666.05 340.72 664.58C342.68 666.71 342.32 669.67 342.44 672.33C342.6 671.29 342.9 669.19 343.06 668.15C343.55 668.9 344.04 669.66 344.54 670.43C344.74 670.16 345.13 669.62 345.32 669.35C346.83 668.42 346.36 670.52 346.64 671.39C347.46 671.91 348.27 672.44 349.1 672.97C349.46 671.5 349.74 670.02 349.94 668.53C350.9 669.31 351.87 670.06 352.86 670.84C352.38 671.26 351.44 672.09 350.96 672.51C354.19 672.6 357.42 672.63 360.65 672.74C360.32 670.7 358.88 667.73 361.13 666.34C362.35 666.25 363.47 666.93 364.66 667.18C364.48 669.33 364.39 671.49 364.29 673.65C365.32 673.52 366.34 673.41 367.38 673.29C367.73 673.82 368.43 674.88 368.79 675.41C366.27 678.18 362.55 677.51 359.26 676.98C354.36 676.05 349.43 678.21 344.57 676.82C344.33 677.15 343.84 677.81 343.6 678.14C320.74 677.29 297.87 678.48 275.01 678.71C261.69 679.48 248.35 679.01 235.03 679.5C221.05 679.67 207.05 679.72 193.07 679.21C191.42 679.19 189.86 678.65 188.32 678.14C187.73 669.43 187.99 660.69 187.46 651.98C195.86 652.09 204.27 651.88 212.67 651.88C212.88 652.4 213.28 653.43 213.49 653.95C213.71 657.14 212.52 660.05 210.33 662.35C213.75 662.23 214.49 658.33 214.23 655.55C214.08 655.2 213.8 654.51 213.65 654.16C214.67 653.56 215.78 653.28 216.97 653.32C227.74 653.14 238.58 653.93 249.3 652.64C248.14 652.13 246.98 651.63 245.8 651.2ZM280.55 661.26C277.13 666.47 273.44 671.56 270.84 677.25C275.57 673.54 277.77 667.69 281.06 662.82C283.08 662.71 285.11 662.69 287.14 662.76C285.4 664.66 289.65 664.71 287.93 662.77C289.75 662.51 292.43 663.55 293.37 661.37C289.1 661.12 284.82 661.02 280.55 661.26ZM346.26 663.5C345.4 664.67 345.66 665.38 347.03 665.64C347.88 664.46 347.62 663.75 346.26 663.5ZM357.04 664.45C356.23 665.67 356.46 666.46 357.75 666.82C358.54 665.55 358.31 664.77 357.04 664.45ZM365.18 664.29C365.74 664.78 365.74 664.78 365.18 664.29ZM336.85 668.25L336.24 668.27C335.53 667.01 334.04 666.73 332.87 666.1C333.29 667.14 333.86 668.11 334.59 668.99C333.37 669.51 332.71 670.48 332.61 671.9C334.36 671.74 336.13 671.6 337.9 671.5C337.49 669.25 337.6 666.97 337.65 664.71C337.37 665.88 337.1 667.06 336.85 668.25ZM362.12 672.93C363.57 672.82 363.34 670.29 362.71 669.4C361.39 669.6 361.48 672.01 362.12 672.93ZM339.4 671.11C339.97 671.69 339.97 671.69 339.4 671.11Z" fill="#0055CC" style="cursor: pointer;"/>
<path d="M185.3 653.461L185.91 653.021C186.1 661.361 186.98 669.74 186.19 678.07C174.84 678.07 163.56 676.631 152.25 675.901C153.51 672.301 154.59 668.61 154.85 664.79C155.78 664.76 157.64 664.7 158.57 664.67C158.57 665.6 158.58 667.48 158.58 668.41C159.72 664.84 160.23 661.11 160.92 657.44L159.88 657.951C164.13 655.281 169.33 656.83 174.02 655.94C177.78 655.27 182.17 656.061 185.3 653.461Z" fill="#0055CC" style="cursor: pointer;"/>
<path d="M341.439 653.72C349.289 653.66 357.159 653.5 364.999 653.9C365.509 654.21 366.539 654.84 367.059 655.15C364.829 656.35 362.339 656.55 359.949 655.76C357.339 656.44 354.639 656.7 351.989 656.06C348.579 655.33 345.169 657.03 341.759 656.22C341.679 655.59 341.519 654.34 341.439 653.72Z" fill="#0055CC" style="cursor: pointer;"/>
<path d="M143.18 676.95C157.72 678.62 172.35 679.52 186.98 679.91C188.68 679.89 190.29 680.49 191.86 681.06C193.59 684.5 192.76 688.28 191.82 691.82C191.24 693.36 191.04 694.97 191.18 696.62C172.73 695.63 154.27 694.87 135.84 693.71L136.24 693.56C136.86 693.34 138.1 692.9 138.71 692.68C139.84 688.15 139.26 683.48 139.77 678.91C140.8 678.08 141.99 677.5 143.18 676.95Z" fill="#0055CC" style="cursor: pointer;"/>
<path d="M193.52 680.85C207.64 681.13 221.75 680.061 235.88 680.271C247.88 680.451 259.89 680.09 271.9 680.16C272.59 681.25 274 682.43 273.97 680.24L277.08 680.25C277.22 682.55 277.96 681.131 278.01 679.771C295.06 680.861 312.17 679.48 329.23 680.42C327.12 680.68 325.03 681.06 322.95 681.47C325.67 681.89 328.43 682.301 331.2 682.201C339.22 681.681 347.26 682.301 355.3 682.341C356.32 682.461 357.01 681.521 357.84 681.141C363.23 680.671 368.64 681.24 374.05 681.12C380.44 681.2 386.88 680.75 393.25 681.49C389.5 682.15 385.71 682.37 381.92 682.51C385.48 682.64 389.05 682.69 392.63 682.72C392.55 686.46 392.59 690.3 391.07 693.8C390.95 693.14 390.72 691.84 390.6 691.19C387.66 691.24 384.72 691.22 381.81 691.69C383.64 692.53 385.67 692.4 387.65 692.42L387.48 693.701C387.86 693.231 388.64 692.29 389.02 691.82C389.54 692.36 390.58 693.44 391.1 693.98L391.22 694.11C391.73 694.27 392.76 694.59 393.27 694.74C393.09 696.11 392.91 697.48 392.66 698.86C390.35 699.27 388.02 698.81 385.71 698.76C377.91 698.57 370.04 699.32 362.32 697.92C360.02 697.4 357.77 698.251 355.58 698.841C350.68 699.211 345.69 699.1 340.8 698.55C341.89 698.19 342.98 697.821 344.07 697.451C333.57 697.091 323.02 696.861 312.55 697.891C296.7 697.991 280.82 697.361 264.96 697.151C241.14 696.981 217.32 697.181 193.5 697.091C194.05 696.321 194.61 695.53 194.44 694.55C193.51 695.31 192.59 696.09 191.66 696.87C192.52 694.45 191.3 689.101 194.91 688.641C195.51 688.731 196.73 688.91 197.33 689C197.07 689.56 196.53 690.69 196.26 691.25C197.39 689.97 198.72 687.371 200.74 689.281C200.19 690.191 199.65 691.111 199.09 692.031C199.55 692.841 200.01 693.66 200.45 694.49C203.79 695.92 208.04 693.28 207.37 689.47C207.46 689.13 207.65 688.471 207.75 688.141C206.34 688.201 204.93 688.271 203.52 688.341C203.46 688.961 203.33 690.201 203.26 690.831C203.68 689.261 204.86 688.62 206.79 688.91C206.61 690.01 206.26 692.22 206.09 693.32C204.83 693.72 202.88 695.741 202.19 693.391C200.74 691.971 200.58 689.96 200.76 688.06C199.15 688.13 197.53 688.15 195.93 688.18C194.96 688.09 194.13 687.7 193.45 687.04C194.06 685 193.67 682.9 193.52 680.85ZM303.47 696.06C303.73 692.52 304.58 689.101 305.78 685.781C301.31 686.981 303.42 692.7 303.47 696.06ZM382.01 686.31C382.01 686.73 382 687.58 382 688C385.06 687.92 388.13 687.91 391.19 688.01C391.12 687.66 390.96 686.96 390.89 686.61C387.93 686.94 384.94 686.72 382.01 686.31Z" fill="#0055CC" style="cursor: pointer;"/>
<path d="M124.16 708.01C124.8 708.57 124.8 708.57 124.16 708.01Z" fill="#0055CC" style="cursor: pointer;"/>
<path d="M127.39 711.771C129.29 712.151 131.19 712.58 132.98 713.37C133.25 713.56 133.8 713.92 134.07 714.11C134.27 714.42 134.67 715.031 134.87 715.341C135.41 715.121 136.51 714.671 137.06 714.451C142.81 714.451 148.56 715.03 154.31 715.31C165.34 715.99 176.5 715.481 187.38 717.711C188.4 721.671 188.75 725.891 188.06 729.951C179.43 729.631 170.93 727.811 162.31 727.521C160.68 727.561 159.33 726.66 158.27 725.5C158.22 725.83 158.13 726.48 158.08 726.8C147.46 725.74 136.83 724.64 126.27 723.11C126.64 719.33 127 715.551 127.39 711.771ZM128.26 713.97C131.08 712.19 128.68 717.27 128.26 713.97Z" fill="#0055CC" style="cursor: pointer;"/>
<path d="M192.19 716.55C193.1 717.94 194 719.35 194.89 720.77C195.54 719.59 196.2 718.41 196.87 717.26C197.2 717.62 197.88 718.35 198.21 718.71L198.58 720.6L197.59 720.65C197.55 721.08 197.46 721.92 197.42 722.35C197.05 722.94 196.68 723.54 196.31 724.15C197.31 723.78 198.32 723.44 199.35 723.14C199.44 723.81 199.62 725.17 199.7 725.84C200.65 725.27 201.72 724.61 201.97 723.45C202.81 724.45 203.67 725.47 204.55 726.47C205.2 727.82 205.85 729.18 206.45 730.57C206.3 730.9 205.99 731.56 205.84 731.89C200.88 731.59 196 730.22 191.01 730.8C191.59 726.04 189.51 720.92 192.19 716.55Z" fill="#0055CC" style="cursor: pointer;"/>
<path d="M215.66 718.37C216.42 718.64 217.16 718.95 217.91 719.27C222.68 719.91 227.55 721.21 232.28 719.61C232.96 720.22 233.63 720.83 234.31 721.46C234.86 720.86 235.4 720.27 235.96 719.69C236.08 720.11 236.33 720.96 236.46 721.38C237.9 720.5 239.35 719.37 241.14 719.44C245.8 719.29 250.47 719.47 255.12 719.77C259.29 721.37 263.9 720.85 268.24 720.44C274.38 719.39 280.59 720.6 286.78 720.31C287.06 720.59 287.62 721.17 287.9 721.45C288.86 721.37 289.83 721.29 290.81 721.22C290.87 720.91 291 720.27 291.07 719.96C291.6 720.37 292.13 720.8 292.67 721.23C294.89 720.99 297.12 720.89 299.36 720.88C307.2 719.77 315.13 720.56 323 719.94C331.45 720.25 339.86 719.39 348.31 719.42C348.87 720.37 349.43 721.32 349.95 722.32L349.89 722.86C349.52 724.02 349.48 725.26 349.33 726.48C349.57 726.18 350.03 725.59 350.26 725.29C351.34 727.02 353.29 725.87 354.89 726.43C353.97 724.25 354.58 723.09 356.71 722.95C356.59 723.8 356.36 725.49 356.24 726.33C357.18 726.85 357.74 728.02 358.66 728.43C359.28 727.55 360.02 726.77 360.77 726.01C360.75 725.2 360.71 723.57 360.69 722.76C361.09 721.73 361.48 720.71 361.84 719.69L362.09 720.85C362.63 723.7 363.57 726.45 364.78 729.1C365.71 730.24 364.61 732.47 363.08 732.22C354.39 732.52 345.68 732.35 336.99 732.4C329.91 731.67 322.75 733.03 315.73 731.63C312.75 730.97 309.68 731.2 306.69 731.66C300.26 732.67 293.73 732.07 287.26 732.14C283.52 733.11 279.75 731.83 275.98 732.17C267.61 732.73 259.19 732.84 250.83 731.99C238.01 731.85 225.13 732.93 212.34 731.62C213.39 728.43 209.76 729.96 208.27 730.52C209.54 728.65 210.78 726.78 211.92 724.83C213.64 725.43 215.38 726 217.07 726.72C217.23 726.42 217.57 725.83 217.74 725.53C217.03 725.45 215.62 725.28 214.91 725.2C214.47 724.34 214.03 723.49 213.59 722.65C214.59 721.5 215.58 720.36 216.56 719.2L215.28 718.8L215.66 718.37Z" fill="#0055CC" style="cursor: pointer;"/>
<path d="M356.18 719.04C357.48 719.15 357.27 722.72 355.92 722.79C355.35 721.49 355.44 720.24 356.18 719.04Z" fill="#0055CC" style="cursor: pointer;"/>
<path d="M108.76 724.59C117.58 724.18 126.22 726.15 134.95 726.94C156.99 729.23 178.97 732.1 201.03 734.2C203.1 734.46 205.15 734.83 207.21 735.19C207.56 767.14 207.31 799.1 207.39 831.06C207.34 839.98 207.74 848.92 207.15 857.83C188.8 854.31 170.61 850.05 152.24 846.67C137.8 843.28 123.08 841.09 108.78 837.16C108.74 799.63 108.87 762.11 108.76 724.59Z" fill="#0055CC" style="cursor: pointer;"/>
<path d="M308.96 736.16C310.58 736.44 312.19 736.72 313.82 737.01C313.68 742.97 313.78 748.94 314.09 754.9C314.22 779.25 314.29 803.61 314.23 827.96C314.15 836.7 314.8 845.46 313.96 854.17C312.18 852.98 310.52 851.63 309 850.14C308.31 839.46 308.53 828.76 308.33 818.07C308.12 813.58 308.98 809 307.76 804.61C309.09 793.5 307.86 782.25 308.22 771.09C308.57 759.45 308.24 747.78 308.96 736.16Z" fill="#0055CC" style="cursor: pointer;"/>
</g>
<defs>
<clipPath id="clip0_93_7242">
<rect width="1024" height="1024" fill="none"/>
</clipPath>
</defs>
</svg>