<svg width="1024" height="676" viewBox="0 288 1024 676" fill="none" xmlns="http://www.w3.org/2000/svg">
<g clip-path="url(#clip0_93_582)">
<rect width="1024" height="1024" fill="none"/>
<path d="M931.399 298.25C932.659 297.87 935.369 297.92 935.319 299.73C933.719 305.39 933.329 311.3 932.069 317.04C925.909 347.03 916.979 376.35 909.549 406.03C906.729 417.83 903.439 429.55 901.849 441.6C899.409 463.02 901.649 484.56 901.889 506.03C901.909 508.74 902.209 511.44 902.409 514.16C900.829 514.13 899.249 514.1 897.689 514.07C897.229 511.97 896.949 509.85 896.659 507.74C895.119 508.25 893.549 508.56 891.939 508.27C891.919 510.23 891.919 512.19 891.909 514.16C889.119 513.52 886.259 513.69 883.449 513.93C883.189 512.02 882.939 510.11 882.679 508.21C874.939 511.19 865.349 509.65 859.019 515.92C862.589 517.57 865.839 520.64 869.999 520.47C882.989 520.43 895.999 520.66 908.989 519.91C918.689 519.58 928.449 519.78 938.089 518.7C936.789 521.37 933.749 522.2 931.009 522.12C910.069 522.97 889.089 523.84 868.129 523.43C868.319 525.66 871.139 529.53 868.239 530.6C868.699 530.56 869.609 530.5 870.059 530.47C872.679 547 875.589 563.47 878.119 580.01C878.519 581.63 877.839 583.18 876.059 583.35C871.689 563.08 868.789 542.53 864.899 522.17C863.189 521.59 861.479 521.03 859.769 520.5C864.659 541.88 867.319 563.76 873.309 584.88C874.109 587.72 877.489 588.3 880.029 588.15C894.819 587.88 909.639 587.76 924.399 586.56C924.189 580.66 925.669 574.9 926.539 569.11C927.759 562.3 928.859 555.47 930.199 548.68C930.559 548.63 931.299 548.51 931.669 548.46L931.169 548.11C929.679 546.85 931.189 544.55 931.169 542.93C932.839 536.02 933.299 528.6 936.099 522.08C936.579 521.97 937.529 521.75 938.009 521.64C937.759 527.48 936.009 533.18 934.899 538.92C932.619 550.95 930.459 563.01 928.679 575.13C928.449 579.57 926.759 583.72 926.079 588.08C926.009 589.72 924.209 590.15 922.909 590.32C919.289 590.84 915.559 589.84 912.049 591.05C906.729 590.64 901.419 591.48 896.099 591.41C891.389 591.89 886.659 591.24 881.959 591.79C877.429 592.02 871.519 590.95 870.529 585.64C864.089 562.44 860.109 538.61 855.719 514.95C859.149 510.68 864.769 508.29 870.179 507.69C874.059 507.36 877.869 506.26 881.799 506.42C881.329 491.31 881.779 476.15 880.209 461.1C878.109 449.12 868.629 440.78 860.219 432.88C854.119 426.95 847.919 420.96 843.219 413.81C842.039 412.36 842.699 410.47 842.789 408.83C843.609 408.84 845.239 408.85 846.049 408.86C853.169 411.64 859.809 415.55 866.079 419.9C871.709 423.86 875.989 429.36 879.879 434.96C882.759 439.65 885.629 444.51 886.889 449.93C889.149 458.79 888.109 468 887.749 477.01C887.599 483.67 887.019 490.32 887.199 496.99C887.659 501.29 888.269 505.57 888.579 509.89C888.919 503.57 888.449 497.25 888.699 490.92C888.659 475.35 892.209 459.17 886.919 444.06C883.119 435.28 877.609 427.17 870.539 420.69C863.539 415.14 855.999 410 847.449 407.19C846.939 405.91 848.499 404.12 849.909 404.61C860.149 406.11 869.289 411.49 877.709 417.23C882.719 420.59 886.349 425.57 888.719 431.08C888.559 427.3 886.619 423.96 885.359 420.49C881.319 410 880.389 398.68 876.969 388.01C873.039 374.53 865.389 362.64 858.599 350.5C855.379 345.83 852.959 340.65 850.719 335.46C850.029 332.03 848.199 327.92 850.749 324.82C851.769 323.22 853.899 323.67 855.029 324.9C867.289 337.36 876.809 352.53 882.709 368.99C885.919 378.1 888.399 387.45 890.369 396.91C891.149 400.24 891.519 403.79 893.389 406.76C892.119 415.47 890.839 424.2 890.229 432.99C889.999 442.32 890.629 451.65 890.679 460.98C891.819 475.83 891.189 490.75 891.769 505.63C893.279 506 894.809 506.43 896.329 506.85C897.359 484.83 893.479 462.96 893.389 440.95C893.619 419.3 897.829 397.93 903.239 377.04C905.669 368.03 907.449 358.83 910.529 350.01C914.459 335.39 919.799 321.17 925.049 306.95C926.309 303.58 927.979 299.9 931.399 298.25Z" fill="#0055CC"/>
<path d="M856.59 323.79C855.9 321.91 858.12 322.12 859.06 322.82C867.95 327.14 876.17 333.11 882.18 341.03C889.58 350.93 894.36 362.46 898.52 374.02C899.25 376.24 900.28 378.62 899.43 380.97C897.89 386.23 896.3 391.48 895.26 396.87C894.81 398.37 894.94 400.23 893.52 401.23C891.23 388.82 887.64 376.7 883.27 364.88C877.42 349.49 867.96 335.61 856.59 323.79Z" fill="#0055CC"/>
<path d="M249.03 404.01C261.56 395.46 275.91 389.02 290.98 386.87C291.73 388.09 292.05 389.49 292.47 390.85C293.6 391.11 294.74 391.46 295.91 391.44C307.69 391.25 319.05 395.75 328.98 401.8C333.06 404.34 337.43 406.6 340.89 410C342.35 411.09 342.58 413.3 341.75 414.85C341.22 415.84 340.64 416.8 340.08 417.78C339.49 417.65 338.33 417.4 337.75 417.27C338.19 415.8 338.66 414.36 339.11 412.91C328.64 404.49 316.49 397.4 303.06 395.19C299.08 394.32 295 395.29 291.01 394.64C289.03 394.35 288.77 392.1 288.03 390.64C278.98 392.41 270.21 395.55 262.01 399.77C254.16 403.36 246.32 408.24 242.02 416C240.13 419.58 237.37 423.03 237.43 427.28C234.62 427.33 236.17 424.35 236.4 422.91C238.55 415.55 242.74 408.53 249.03 404.01Z" fill="#0055CC"/>
<path d="M639.51 587.59C645.46 585.41 654.73 588.58 654.46 596C654.69 603.47 645.48 608 639.21 604.79C635.06 602.95 632.46 597.64 634.46 593.38C635.53 591.04 637.01 588.59 639.51 587.59Z" fill="#0055CC"/>
<path d="M935.471 306.69C936.031 310.44 935.651 314.25 935.821 318.03C935.791 330.02 936.321 342 936.141 353.98C934.411 371.24 930.541 388.2 925.701 404.83C923.221 416.54 918.051 427.42 914.991 438.96C911.871 448 909.301 457.37 909.121 466.98C909.051 472.32 907.611 477.61 908.521 482.95C908.491 474.33 910.511 465.92 911.591 457.42C914.591 443.95 919.071 430.85 923.861 417.93C926.671 409.34 928.401 400.46 931.171 391.87C932.071 389.08 932.111 386.03 933.401 383.39C934.521 383.24 935.661 383.14 936.821 383.1C937.321 398.4 937.121 413.74 937.021 429.05C933.661 441.69 925.791 452.35 920.141 463.98C916.301 471.69 912.341 479.53 910.831 488.09C910.091 493.6 910.131 499.18 910.201 504.73C914.991 504.1 919.531 506.01 924.111 507.14C928.821 508.33 933.141 510.89 936.801 514.06C938.091 515.17 937.941 516.98 938.361 518.51C937.731 518.49 936.461 518.45 935.831 518.44C934.111 515.7 931.741 513.44 928.691 512.28C923.141 510.01 917.311 507.75 911.221 507.92C911.161 510.4 911.061 512.88 910.921 515.37C908.201 514.85 903.061 516.46 903.231 512.18C906.121 511.71 902.601 509.56 903.101 508C903.571 487.02 901.301 466.02 902.981 445.07C905.471 425.33 911.441 406.27 916.001 386.95C922.111 366.12 927.371 345.04 932.331 323.9C933.931 318.27 934.381 312.42 935.471 306.69Z" fill="#0055CC"/>
<path d="M679.22 588.87C685.14 592.16 687.57 598.61 689.97 604.53C695.77 604.16 701.74 604.88 707.29 606.63C713.56 609.42 714.3 617.12 718.84 621.56C724.78 617.74 732.39 617.36 739.02 619.41C742.04 620.28 744.25 622.62 746.21 624.95C747.26 631.16 750.32 636.91 753.71 642.16C759.33 641.68 765.2 642.93 769.88 646.17C772.08 647.67 773.22 650.17 774.92 652.16C819.62 653.36 864.33 653.79 909.04 654.54C920.36 654.51 931.71 655.17 943.01 654.86C945.24 654 945.83 656.58 946.28 658.13C943.82 658.04 941.36 657.28 938.94 657.92C915.69 657.34 892.41 657.31 869.15 657.12C868.87 669.57 868.98 682.02 868.91 694.48L868.53 695.37C867.96 695.34 866.83 695.27 866.27 695.24C866.22 682.48 866.09 669.71 866.61 656.95C850.42 656.64 834.22 656.49 818.02 656.25C803.97 656.06 789.86 656.61 775.87 655.04C780.58 666.52 781.16 679.29 786.45 690.6C791.13 700.82 798.53 709.65 807.09 716.87C808.1 717.85 809.34 718.67 809.98 719.99C809.79 721.57 808.08 724.15 806.4 722.46C794.87 712.34 784.14 700.27 779.76 685.24C776.17 675.25 775.74 664.33 771.24 654.66C769.3 650.3 765.17 647.4 760.66 646.19C762.38 648.34 764.32 650.31 766.2 652.34C765.49 653.33 765.09 654.63 763.98 655.27C761.43 653.88 760.02 650.98 757.3 649.75C752.55 647.3 748.88 643.21 746.62 638.39C743.98 633.71 743.07 627.76 738.71 624.26C733.54 622.47 727.39 622.4 722.66 625.45C722.12 626.64 721.59 627.84 721.06 629.04C716.19 626.26 712.8 621.58 710.35 616.65C709.17 614.62 708.38 611.94 705.95 611.11C700.97 609.2 695.58 608.7 690.33 608.11C692.49 620.95 692.39 634.02 692.06 647C691.72 655.66 688.76 663.96 684.64 671.5C680.79 678.86 676.09 686.99 667.85 689.94C660.51 691.1 653.16 688.58 646.59 685.51C640.71 683.12 635.46 679.52 629.85 676.62C630.23 676.4 630.99 675.98 631.37 675.76C631.45 675.25 631.61 674.24 631.69 673.73C641.56 678.96 651.67 685 663.04 685.93C668.47 686.71 672.51 682.3 675.53 678.44C679.58 672.8 682.59 666.44 685.03 659.96C687.78 652.67 687.74 644.77 687.73 637.1C687.75 626.84 687.57 616.48 685.38 606.42C684.24 600.48 681.34 594.6 675.87 591.55C676.56 591.31 677.96 590.84 678.66 590.6C678.8 590.17 679.08 589.3 679.22 588.87Z" fill="#0055CC"/>
<path d="M570.97 643.96C575.49 644.76 580.07 645.38 584.68 645.03C584.78 649.53 587.12 653.51 587.73 657.89C587.69 660.15 584.84 660.74 583.04 660.79C578.05 660.82 573.02 660.77 568.1 659.92C565.91 659.56 563.69 657.22 565.13 655.01C567.2 651.39 569.24 647.75 570.97 643.96Z" fill="#0055CC"/>
<path d="M157.39 341.4C162.85 335.55 170.84 331.88 178.93 332.76C189.67 334.06 199.15 339.94 207.46 346.55C208.72 347.71 210.83 348.11 211.49 349.81C210.98 353.54 208.81 356.6 206.76 359.62C214.47 359.6 221.57 363.93 225.78 370.25C232.13 378.31 233.73 388.8 234.18 398.75C233.69 398.79 232.7 398.88 232.21 398.93C232.88 399.06 233.54 399.19 234.22 399.34C234.27 412.64 227.46 426 215.87 432.82C214.43 433.83 212.49 434.38 211.55 435.94C212.29 439.25 214.57 442.75 213.37 446.17C210.51 449.15 206.17 446.75 203.46 444.74C196.34 439.56 194.95 430.14 189.09 423.93C181.19 415.39 170.78 409.65 162.76 401.25C159.45 396.23 158.51 389.93 154.84 385.08C153.4 383.45 151.78 381.96 150.64 380.1C151.39 377.79 152.28 375.54 153.57 373.48C151.1 372.56 147.82 371.87 146.88 369.04C145.64 358.79 150.44 348.69 157.39 341.4ZM172.46 335.99C172.83 340.4 176.61 343.97 175.78 348.53C178.57 348.9 178.84 351.95 179.77 354.05C185.6 369.1 191.98 383.93 198.28 398.78C202.44 407.81 206.45 416.94 209.41 426.45C210.05 428.61 210.12 430.89 210.37 433.13C216.5 429.19 222.53 424.59 226.02 418.02C232.44 407.25 231.69 393.88 228.44 382.22C224.91 383.06 221.37 383.99 217.71 383.95C217.65 383.22 217.52 381.75 217.45 381.02C220.8 380.48 224.17 380.06 227.57 379.94C224.61 373.05 219.72 365.76 212.07 363.72C208.67 362.91 203.25 364.37 201.93 360.01C203.5 356.97 206.24 354.72 207.91 351.73C202.18 346.77 196.17 341.82 188.96 339.21C183.68 337.33 178.16 335.44 172.46 335.99ZM152.33 354.26C150.48 358.67 148.74 363.83 150.47 368.55C153.1 371.01 157.73 370.03 159.97 373.13C160.35 375.41 157.63 375.43 156.2 376.18C155.58 377.45 153.08 378.81 154.65 380.25C160.49 385.47 162.14 393.58 165.79 400.19C173.78 406.88 182.44 412.79 190.12 419.85C194.67 423.96 197.2 429.65 199.89 435.03C201.99 439.25 205.28 443.46 210.15 444.47C208.79 438.46 207.13 432.52 205.5 426.59C201.78 413.98 195.71 402.27 190.83 390.11C185.96 377.9 180.68 365.84 176.42 353.4C174.94 347.79 172.09 342.69 170.37 337.17C161.98 339.25 155.92 346.73 152.33 354.26Z" fill="#0055CC"/>
<path d="M402.48 368.89C402.99 366.1 404.5 362.43 408 362.94C421.64 363.19 435.29 363.29 448.92 363.54C453 362.67 456.93 364.66 460.97 363.47C463.98 364.09 466.98 363.99 470.01 363.6C478.27 364.38 486.57 363.62 494.83 364.5C502.53 363.4 510.31 364.51 518.05 364.28C550.69 363.83 583.33 363.92 615.97 363.87C624.91 364.16 633.95 363.18 642.82 364.47C666.85 363.82 690.89 364.85 714.92 364.21C720.27 364.08 726.05 362.47 731.13 364.75C734.67 366.71 732.99 370.86 732.89 374.02C733.92 396.34 732.77 418.68 732.82 441.01C732.47 444.35 733.66 447.86 732.25 451.04C732.46 451.51 732.88 452.46 733.09 452.93C732.31 455.6 732.34 458.34 732.75 461.08C732.42 461.42 731.76 462.1 731.43 462.44C732.15 463.49 733.1 464.57 732.81 465.98C732.52 481.4 733.03 496.89 732.71 512.27C735.07 514.09 738.19 513.69 740.99 513.99C755.47 514.68 769.99 514.16 784.48 514.48C784.48 512.93 784.47 511.38 784.5 509.85C789.91 507.58 795.05 504.42 800.95 503.58C809.65 503.46 818.36 503.49 827.06 503.16C827.03 503.82 826.96 505.14 826.93 505.79C817.79 505.63 808.51 507.07 799.48 505.55C800.13 517.32 800.08 529.14 799.98 540.92C795.51 533.3 793.89 524.47 790.88 516.25C773.64 516.01 756.37 516.71 739.16 515.94C738.83 518.34 742.87 516.81 744.49 517.52C745.31 517.29 746.13 517.06 746.97 516.83C750.55 517.68 754.25 517.33 757.9 517.35C768.6 516.84 779.31 517.3 790.02 517.29C789.87 518.81 788.4 519.35 787.05 519.27C777.78 519.46 768.53 518.8 759.27 518.69C760.34 523.89 762.35 528.85 764.6 533.64C762.29 534.7 762.38 531.59 761.6 530.26C760.56 526.49 758.2 522.99 758.2 519.01C757.22 518.95 755.25 518.83 754.27 518.76C756.28 524.33 758.97 529.68 760.19 535.51C759.14 535.02 758.5 534.23 758.27 533.15C757.23 530.11 755.95 527.16 755.14 524.05C753.09 524.97 751.67 523.92 750.44 522.32C751.23 525.27 751.99 528.27 753.23 531.09C754.77 530.26 754.84 528.58 754.47 527.09C754.81 527.93 755.1 528.81 755.34 529.71C752.95 532.21 754.25 535.27 754.82 538.22C760.56 538.23 766.3 537.74 772.04 538.05C779.54 538.32 787.07 537.75 794.55 538.62L794.07 540.01C791.1 540.78 787.98 540.45 784.95 540.45C771.62 540.32 758.28 540.41 744.96 540.64C747.63 542.68 751.07 541.53 754.14 541.54C766.07 542.05 778.02 541.59 789.96 541.78C792.82 542.1 796.61 540.18 798.69 542.93C798.53 559.92 797.58 576.9 797.85 593.89C780.58 594.55 763.3 594.14 746.04 594.48C741.9 594.54 737.75 594.57 733.64 594.09C734.03 572.39 733.49 550.67 733.94 528.96C733.97 524.08 735.24 518.6 732.62 514.18C732.31 520.11 732.96 526.03 732.58 531.96C732.49 535.7 731.59 539.39 731.7 543.14C732.44 554.43 732.34 565.75 732.1 577.06C720.77 578.02 709.38 577.31 698.04 577.81C682.73 578.42 667.4 577.52 652.12 578.46C657.04 579.24 661.93 581.06 666.98 580.32C688.63 580.35 710.31 579.93 731.95 580.18C731.91 580.86 731.85 582.24 731.82 582.93C711.15 583.25 690.47 583.06 669.8 583.3C672.71 585.53 676.22 586.77 679.22 588.87C679.08 589.3 678.8 590.17 678.66 590.6C677.96 590.84 676.56 591.31 675.87 591.55C668.46 587.05 660.34 583.79 651.91 581.82C643.5 579.84 634.74 578.25 626.11 579.66C619.09 580.94 612.78 584.44 606.3 587.24C598.45 590.58 591 594.86 582.91 597.64C578.79 599.08 574.36 598.89 570.07 598.9C552.73 598.97 535.52 595.53 518.17 596.73C501.78 596.11 485.36 596 468.96 596.26C466.66 596.55 465.19 594.5 463.52 593.32C454.97 585.59 443.22 582.57 431.95 582.09C417.08 581.86 402.21 584.77 388.47 590.45C383.79 592.27 379.16 595.17 373.93 594.27C369.81 599.64 366.71 605.68 363.53 611.62C360.21 618.3 356.24 624.72 354.03 631.89C353.48 633.71 352.76 635.48 351.72 637.09C352.45 647.52 355.03 658.68 362.98 666.08C372.08 675.13 385.51 678.51 398.04 677.43C405.85 676.4 413.89 674.95 420.62 670.62C428.66 665.43 436.38 659.42 445.57 656.34C454.54 653.13 464.72 650.46 473.94 654.26C480.19 656.74 483.32 663.85 482.55 670.29C503.32 670.58 524.1 670.94 544.88 671.25C557.14 671.1 569.37 672 581.63 671.67C581.85 668.07 583.61 664.42 587.12 663.03C594.32 659.58 601.95 663.92 609.19 665.05C617.44 665.36 624.6 669.96 631.69 673.73C631.61 674.24 631.45 675.25 631.37 675.76C630.99 675.98 630.23 676.4 629.85 676.62C624.87 673.98 620.02 671.09 614.8 668.97C613.86 671.89 612.25 674.86 612.64 678.02C612.74 680.13 613.45 682.8 611.51 684.35C607.1 687.42 602.78 692.4 596.78 690.71C611.11 704.34 621.15 721.93 636.35 734.73C645.92 742.74 655.56 751.05 667.12 756.08C673.12 758.9 680.02 759.59 685.57 763.4C692.27 767.54 694.59 775.55 699.11 781.59C698.64 782 697.7 782.83 697.23 783.24C697.72 784.1 698.23 784.98 698.75 785.87C698.3 785.92 697.39 786.02 696.94 786.07C691.42 778.79 688.54 768.38 679.28 764.85C674.24 762.29 669.83 767.13 664.96 767.84C649.44 771.31 632.44 770.86 617.9 763.93C610.9 760.74 604.62 756.13 599.01 750.92C590.95 743.26 585.85 732.78 576.68 726.27C569.64 722.65 561.54 724.89 554 724.06C540.55 724.01 527.09 723.51 513.63 723.44C513.77 731.03 513.91 738.62 513.83 746.21C513.09 744.97 512.3 743.77 511.57 742.57C511.43 736.19 511.33 729.81 511.37 723.43C499.22 722.91 487.03 723.64 474.89 722.61C469.49 722.48 464.02 722.88 458.73 721.55C444.33 726.26 433.59 737.6 422.55 747.46C418.62 750.5 415.08 754.24 410.41 756.15C403.63 762.46 394.61 765.71 385.91 768.47C377.58 771.16 368.4 771.32 360.61 775.53C360.1 774.16 359.6 772.8 359.11 771.46C365.11 768.37 372.04 768.1 378.1 765.13C393.16 758.23 406.08 747.34 417.15 735.14C423.82 727.92 429.28 719.68 434.18 711.18C438.09 704.64 441.45 697.39 447.71 692.7C454.03 688.15 461.99 686.31 468.06 681.41C465.76 681.84 463.4 683.04 461.07 682.08C457.1 681.12 454.13 677.15 454.63 673.05C455.06 668.41 458.32 664.66 461.57 661.6C463.96 659.23 467.42 658.64 470.04 656.64C466.74 655.97 463.35 655.54 460.01 655.96C451 657.46 442.22 660.59 434.54 665.59C427.42 669.93 421.14 675.95 412.98 678.35C401.07 681.84 388.13 682.66 376.22 678.7C363.15 674.62 352.31 663.37 349.61 649.82C348.53 644.53 347.13 638.72 349.41 633.56C352 625.96 355.61 618.78 359.24 611.65L358.96 610.96C349.99 610.07 340.73 608.99 331.89 611.4C324.5 613.73 319.01 620.44 317.24 627.87C315.91 632.43 314.52 637.52 310.49 640.48C305.47 644.1 299.14 644.97 293.73 647.81C290.08 649.54 287.1 652.3 284.13 654.96C284.07 654.33 283.95 653.06 283.89 652.43C282.71 652.76 281.55 653.1 280.39 653.45C282.62 649.96 286.19 647.65 289.56 645.38C295.28 641.66 302.46 641.1 308.05 637.16C310.69 635.4 311.7 632.29 312.71 629.46C287.21 629.59 261.67 629.75 236.15 629.71C236.48 628.67 236.81 627.63 237.15 626.6C262.52 626.53 287.89 626.28 313.25 626.36C315.67 619.27 319.59 612.08 326.61 608.68C330.57 606.2 335.29 605.99 339.82 606.11C347 605.15 354.17 606.63 361.25 607.68C364.7 602.14 367.32 595.98 371.91 591.23C372.6 591.26 374 591.33 374.69 591.37C380.79 587.97 387.66 586.34 393.95 583.39C386.53 582.7 379.06 583.01 371.62 582.8C371.62 581.9 371.64 581.01 371.65 580.12C376.42 580.18 381.2 580.32 385.97 580.1C387.15 577.4 389.04 575.12 390.94 572.91C395.32 567.88 399.65 562.72 402.98 556.93C403.73 548.39 402.04 539.77 403.38 531.26C402.56 527.54 402.69 523.71 402.85 519.93C402.81 495.33 402.62 470.71 402.47 446.11C402.19 444.39 402.49 442.69 402.92 441.02C401.95 437.73 402.95 434.35 402.58 431C402.77 423.84 402.06 416.67 402.64 409.52C402.47 404.06 401.6 398.4 403.05 393.06C402.12 391.09 402.63 388.95 402.59 386.88C402.56 380.88 402.5 374.89 402.48 368.89ZM475.94 374.16C467.3 374.87 458.59 374.45 449.95 375.16C444.98 376.07 439.93 375.26 434.94 375.86C428.9 375.58 422.92 376.72 416.89 376.06C416.46 385.37 417 394.69 416.9 404.01C416.56 418.72 417.09 433.43 416.73 448.13C416.33 448.56 415.55 449.42 415.16 449.85L416.83 449.48C416.71 464.8 416.72 480.13 416.67 495.45L415.18 495.39C415.55 495.71 416.31 496.35 416.69 496.67C416.33 501.77 417.03 506.91 416.39 511.99C416.64 512.48 417.13 513.46 417.37 513.95C417.04 514.9 416.71 515.85 416.38 516.82C420.66 516.85 424.96 516.99 429.23 516.65C429.06 517.14 428.72 518.11 428.55 518.6C428.22 518.57 427.56 518.5 427.23 518.46L426.86 519.35C424.36 519.52 421.86 519.6 419.37 519.78C419.46 519.41 419.66 518.66 419.75 518.29C419.22 519.59 417.83 519.91 416.72 520.5C416.8 522.71 415.65 525.35 417.56 527.1C417 528.43 416.45 529.77 415.9 531.11C417.02 533.22 417.06 535.64 417.38 537.96C419.04 534.94 420.41 531.76 422.25 528.84C422.89 529.65 423.53 530.47 424.17 531.3C423.44 532.23 422.7 533.17 421.98 534.11C422.79 534.2 424.43 534.37 425.24 534.46C424.7 536.74 421.02 534.59 421.24 536.75C421.62 536.91 422.4 537.24 422.79 537.41C422.25 538.99 422.36 542.07 419.91 541.71C419.57 540.44 423.42 538.12 421.1 537.77C419.83 538.77 419.23 540.62 417.46 540.86C417.87 541.44 418.29 542.03 418.72 542.64C417.93 543.6 417.16 544.59 416.39 545.58C416.79 545.83 417.6 546.33 418 546.57C417.99 544.45 418.88 543.24 420.67 542.94C419.57 545.38 418.19 547.69 417.2 550.19C416.03 555.41 417.9 560.69 417.65 565.97C444.41 565.93 471.2 566.68 497.98 566.1C506.38 566.36 514.79 565.42 523.18 566.1C533.1 565.86 543.03 566.64 552.94 566.24C563.93 565.71 574.94 566.73 585.9 565.87C602.66 565.79 619.43 565.7 636.19 565.46C642.15 565.68 648.15 564.8 654.07 565.83C667.38 565.73 680.84 566.48 694.12 565.19C697.34 566.16 700.65 564.99 703.93 565.23C707.65 565.41 711.34 564.86 715.06 564.8C715.44 560.92 715.19 556.99 716.01 553.17C714.66 546.37 717.48 538.89 715.66 532.5C692.53 531.98 669.37 531.81 646.23 531.25C645.9 534.08 646.02 537.15 644.48 539.67C643.18 541.37 640.78 540.72 638.96 540.88C635.53 540.62 631.87 541.97 628.64 540.39C625.52 538.27 626.14 534.18 626.01 530.94C620.28 530.4 614.47 529.73 609.04 527.77C605.18 525.99 604.19 521.42 601.72 518.34C591.1 519.35 580.36 518.03 569.79 519.37C569.71 518.34 569.92 517.4 570.43 516.54C570.75 516.35 571.39 515.97 571.71 515.78C581.41 515.93 591.12 515.8 600.82 515.42C598.06 507.22 596.16 498.67 596.12 489.99C596.16 487.26 595.7 484.37 596.94 481.82C594.03 472.88 595.07 463.25 597.52 454.35C598.2 453.02 598.33 450.97 600.02 450.5C606.37 450.4 612.73 450.45 619.06 449.88C651.19 447.5 683.43 445.76 715.66 446.51C716.97 443.5 716.35 440.14 716.35 436.97C716.33 425.64 716.46 414.31 716.6 402.98C717.54 394.06 716.88 385.07 717.33 376.07C713.49 374.02 709.11 375.43 705.13 374.08C698.83 375.04 692.47 373.95 686.15 374.31C676.1 374.06 666.01 374.89 656 373.75C654.38 374 652.8 374.6 651.15 374.4C644.1 374.09 637.04 374.43 629.99 374.29C625.71 374.25 621.06 375.52 617.09 373.43C616.55 373.68 615.47 374.17 614.93 374.41C605.66 374.13 596.38 374.04 587.11 374.21C582.46 373.25 577.64 373.8 572.92 374.09C540.6 373.27 508.22 374.56 475.94 374.16ZM666.03 450.29C644.3 451.07 622.66 453.64 600.92 454.18C597.65 463.72 596.71 474.61 600.9 484.03C603.77 489.06 608.14 492.93 612.33 496.81C613.1 501.25 612.32 505.81 613.03 510.25C612.12 509.9 611.21 509.56 610.31 509.23C609.81 505.49 609.98 501.71 609.84 497.96C608.82 496.39 607.09 495.5 605.7 494.3C603.13 492.42 601.36 489.74 599.12 487.52C599.09 498.89 601.73 510.27 606.5 520.59C607.38 522.18 608.2 524.22 610.02 524.92C611.18 525.24 612.35 525.55 613.53 525.85C613.43 526.04 613.23 526.44 613.13 526.63C621.55 528.79 630.35 528.75 638.99 528.82C663.33 528.81 687.67 529.61 712.01 529.66C713.4 529.53 714.93 529.85 716.26 529.26C716.46 526.62 716.34 523.96 716.39 521.31C711.83 521.18 707.29 520.88 702.74 520.81C702.5 520.17 702.02 518.89 701.79 518.25C706.65 518.14 711.52 518.16 716.39 518.46C716.39 508.3 716.26 498.14 716.38 487.98C716.63 477.65 715.78 467.26 716.62 456.96C716.04 454.46 716.2 451.89 716.09 449.35C703.21 449.52 690.35 449.51 677.49 449.71C675.66 450.15 673.8 450.16 672.07 449.39C670.14 450.19 668.09 450.44 666.03 450.29ZM412.25 504.09C415.2 502.46 412.52 507.38 412.25 504.09ZM736.43 518.02C738.42 526.06 739.03 534.48 742.14 542.21C742.99 541.25 743.56 540.11 744.21 539.02C747.49 537.52 751.21 538.47 754.69 538.18C752.64 534.72 752.03 530.75 750.93 526.95C750.03 528.22 749.63 529.73 749.35 531.24C749.04 530.15 749.27 528.22 747.78 528.03C748.15 526.66 749.56 526.61 750.61 526.04C749.94 523.91 749.11 521.84 748.25 519.79C749.48 521.06 751.2 522.92 751.86 520.08L751.09 522.23C751.82 522.29 753.27 522.42 754 522.48C753.9 521.58 753.71 519.78 753.61 518.88C748.7 518.99 743.79 518.73 738.88 518.76C742.11 524.24 743.28 530.61 744.94 536.67C744.7 536.82 744.22 537.12 743.99 537.27C741.58 535.22 742.29 531.1 740.59 528.4C739.51 524.89 739.48 520.45 736.43 518.02ZM628.71 530.81C627.69 533.22 627.45 536.66 630.08 538.13C633.99 538.93 638.06 538.22 642.03 538.06C643.84 536.49 643.75 533.57 643.91 531.32C638.84 531.23 633.77 531.07 628.71 530.81ZM399.56 567.63C399.42 571.83 396.08 575.15 393.32 577.99C393.47 577.04 393.77 575.13 393.92 574.18C392.53 574.88 392.38 576.21 392.53 577.58C391.7 578.34 390.93 579.17 390.22 580.06C397.12 580.06 404.26 581.26 410.97 579.12C414.43 578.09 418.09 578.3 421.66 578.21C421.65 578.05 421.64 577.73 421.63 577.57C415.55 577.06 408.7 580.33 403.18 576.88C401.51 572.76 402.84 568.23 403.37 564.01C401.69 564.7 400.73 566.34 399.56 567.63ZM634.14 567.02C633.63 568.68 634.18 569.24 635.78 568.7C636.28 567.04 635.74 566.48 634.14 567.02ZM397.33 570.39C397.88 571.01 397.88 571.01 397.33 570.39ZM395.16 572.51C398.48 572.58 393.5 575.56 395.16 572.51ZM436.99 578.49C441.27 578.91 445.51 579.76 449.81 580.07C454.58 579.24 459.35 580.61 464.13 580.06C477.1 580.49 490.08 580.13 503.07 580.16C508.88 579.57 514.7 580.19 520.53 580.32C520.64 580.05 520.85 579.52 520.96 579.25C514.95 579.53 508.96 578.83 502.99 578.27C497.67 578.11 492.34 578.44 487.02 577.99C470.36 578.6 453.63 577.57 436.99 578.49ZM590.73 579.27C591.67 579.98 592.75 580.28 593.95 580.16C600.74 580.03 607.59 581.18 614.3 579.61C613.17 578.5 611.48 578.9 610.08 578.81C603.63 579.06 597.14 578.43 590.73 579.27ZM389.23 579.16C389.86 579.7 389.86 579.7 389.23 579.16ZM455.26 583.09C459.03 585.04 462.83 587.04 466 589.93C467.49 591.06 468.87 592.97 471 592.54C479.06 592.08 487.13 592.28 495.2 592.15C498.02 591.34 495.88 586.95 498.31 585.59C499.88 584.73 501.57 584.1 503.19 583.35C487.22 583.07 471.23 583.39 455.26 583.09ZM588.19 667.94C588.52 668.3 589.17 669.02 589.5 669.38C595.14 672.35 601.23 674.68 606.22 678.75C607.88 679.97 607.96 682.15 608.55 683.96C610.71 681.84 609.54 678.34 607.29 676.79C603.3 673.98 598.84 671.95 594.66 669.48C592.72 668.28 590.5 667.52 588.19 667.94Z" fill="#0055CC"/>
<path d="M743.49 519.53C745.93 521.8 745.44 525.7 747.78 528.03C747.99 530.78 748.66 533.49 748.82 536.25C747.88 534.08 747.38 531.77 747.02 529.45C745.53 526.27 743.97 523.05 743.49 519.53Z" fill="#0055CC"/>
<path d="M807.01 576.07C809.57 574.4 813.09 576.25 813.7 579.13C814.75 581.9 812.05 585.3 809.12 584.79C805.12 584.35 803.67 578.28 807.01 576.07Z" fill="#0055CC"/>
<path d="M408.28 595.28C409.47 592.18 413.19 591.69 416.07 591.43C420.33 591.26 424.76 591.63 428.74 593.3C430.25 593.77 430.78 595.54 430.52 596.99C429.26 603.08 426.98 608.87 424.64 614.61C417.47 614.74 410.11 614.73 403.09 613.15C403.65 606.92 405.88 601 408.28 595.28Z" fill="#0055CC"/>
<path d="M572.6 610.97C579.9 609.16 588.06 610.36 594.23 614.78C598.45 617.76 601.07 622.89 600.77 628.09C600.07 633.25 596.79 638.04 592.04 640.28C584.17 644.23 574.15 644.59 566.38 640.19C566.11 644.01 562.22 645.79 560.5 648.91C559.33 648.61 558.23 648.16 557.45 647.22C559.69 644.45 561.25 640.48 564.99 639.47C559.88 636.23 557.9 629.75 558.98 623.99C560.51 617.41 566.44 612.99 572.6 610.97Z" fill="#0055CC"/>
<path d="M376.93 612.99C382.94 612.13 389.08 612.67 395.09 613.37C396.79 613.77 398.82 613.69 400.19 614.9C400.93 618.37 399.17 621.73 398.29 625.03C397.18 627.9 396.89 631.3 394.81 633.67C388.35 634.96 381.63 633.74 375.09 633.52C371.26 633.42 371.88 628.47 372.28 625.87C373.42 621.49 373.79 616.49 376.93 612.99Z" fill="#0055CC"/>
<path d="M425.43 616.32C426.26 614.59 428.5 615.57 429.99 615.33C438.32 615.26 446.64 615.61 454.96 616.07C456.9 616.39 459.53 616.27 460.76 618.1C461.21 623.84 459.84 629.49 458.05 634.91C451.84 636.61 445.27 635.48 438.91 635.57C433.28 635.1 427.46 635.78 421.98 634.23C420 633.69 420.8 631.28 421.13 629.91C422.46 625.37 422.68 620.32 425.43 616.32Z" fill="#0055CC"/>
<path d="M648.27 616.42C653.25 615.13 660.11 616.57 661.96 622.04C664.17 627.81 659.09 634.6 652.98 634.44C648.27 634.84 643.29 631.98 642.24 627.19C640.83 622.71 644.35 618.22 648.27 616.42Z" fill="#0055CC"/>
<path d="M866.22 695.58C866.84 695.62 868.09 695.68 868.71 695.72L869.05 696.47C868.52 708.17 868.98 719.94 869.31 731.66C875.56 736.06 879.65 742.87 882.19 749.96C883.71 754.47 885.74 759.47 890.41 761.54C895.89 763.95 901.5 766.84 905.21 771.72C910.01 777.26 909.21 785.11 910.17 791.91C920.11 791.66 930.05 791.98 940 791.86C941.68 791.75 943.36 792.06 945.04 792.37C944.78 792.85 944.27 793.8 944.02 794.28C932.76 794.57 921.49 794.32 910.24 794.64C910.11 798.06 910.07 801.5 909.38 804.87C908.19 809.37 911.13 813.95 915.03 816.06C921.06 820.84 928.9 821.99 935.59 825.51C938.67 827.14 941.73 828.82 944.85 830.42C943.3 842.55 942.56 854.76 942.43 867C942.18 891.57 940.32 916.17 941.74 940.73C926.23 939.36 910.64 938.6 895.09 939.58C887.71 939.62 880.43 940.98 873.04 940.83C845.37 940.96 817.7 940.26 790.04 940.62C781.03 940.37 771.93 941.2 763 940.26C757.44 941.4 751.72 940.64 746.09 940.81C708.07 941.46 670.06 942.38 632.06 943.45C627.97 943.13 625.54 947.06 621.74 947.35C621.3 944.44 623.25 941.87 625.98 941.09C631.12 939.47 636.61 939.24 641.97 939.32C677.25 938.83 712.52 937.57 747.8 937.34C740.5 928.85 736.34 918.15 733.44 907.47C731.8 899.31 729.87 891.01 730.63 882.64C730.11 882.37 729.06 881.81 728.54 881.54C727.72 879.14 727.11 876.54 725.36 874.63C721.86 870.55 716.7 868.57 712.3 865.69C698.79 857.32 688.38 841.69 690.82 825.29C672.87 825.78 654.91 825.7 636.97 825.96C634.89 826.44 634.41 824.43 634.58 822.82C644.04 823.29 653.52 822.29 663 822.63C666.33 822.8 669.8 821.78 673.04 822.95C679.22 821.58 685.67 822.82 691.95 821.77C694.56 813.11 702.24 807.54 709.84 803.44C707.95 801.22 705.99 798.99 704.88 796.26C706.19 796.85 707.46 797.48 708.77 798.11C708.81 796.55 707.64 795.45 706.9 794.23C706.69 793.72 706.29 792.69 706.08 792.17C709.99 794.81 712.46 798.96 715.98 802.06C722.93 798.28 730.87 797.04 738.07 793.86C745.83 791.1 752.47 786.05 758.33 780.38C764.95 773.29 771.65 765.79 780.55 761.53C785.31 758.95 790.98 757.91 794.96 754.02C797.13 751.49 799.27 748.93 801.21 746.21C804.32 741.74 804.22 736.07 805.93 731.06C808.16 722.93 815.62 716.79 823.82 715.36C832.71 713.15 841.85 716.16 849.59 720.51C855.13 723.75 861.2 726.01 866.55 729.59C866.27 718.26 866.11 706.92 866.22 695.58Z" fill="#0055CC"/>
<path d="M127.95 704.93C127.46 702.72 129.76 702.67 131.29 702.41C132.07 732.6 129.93 762.75 129.43 792.92C136.76 793.04 144.1 792.83 151.43 792.84C152.85 795.47 156.12 795.52 158.63 796.4C163.55 797.87 168.57 799.14 173.17 801.48C171.79 801.81 170.41 802.17 169.03 802.53C172.62 804.2 177.04 807.93 180.79 804.6C182.32 806.36 184.45 807.39 186.37 808.68C190.87 811.55 195.2 814.98 200.47 816.37C209.37 818.39 217.64 822.41 225.94 826.13C247.29 835.51 267.65 847.05 287.07 859.92C294.52 861.75 302.21 863.26 309.03 866.99C313.91 870.04 315.58 876.06 316.39 881.41C317.52 892.56 315.38 904.16 309.98 913.99C306.26 921.88 299.78 928.05 294.02 934.47C305.58 930.46 317.99 930.8 330.06 930.56C350.1 930.69 370.05 932.65 390.01 934.25C396.72 934.88 403.48 935.02 410.14 936.08C411.71 938.45 408.56 938.84 406.94 938.57C395.31 938.03 383.71 936.98 372.1 936.07C363.19 935.59 354.28 935.13 345.39 934.38C333.91 934.44 322.39 933.96 310.94 935.05C308.29 935.52 305.67 936.18 302.96 935.75C296.73 937.4 289.86 938.4 284.85 942.82C283.35 943.92 282.05 945.54 280.15 945.93C276.96 943.78 275.92 939.42 272.32 937.65C268.02 934.71 262.73 936.85 257.97 936.7C241.31 936.68 225.08 932.25 208.51 931.12C202.05 930.29 195.49 930.49 189.07 929.53C184.8 930.16 180.5 929.41 176.21 929.45C147.49 929.92 118.81 927.94 90.11 927.83C89.64 904.37 89.16 880.89 88.94 857.43C96.08 856.94 103.12 854.83 109.33 851.29C116.72 845.31 121.64 836.29 122.68 826.9C113.7 826.45 104.71 826.26 95.72 825.95C95.65 825.52 95.51 824.66 95.44 824.23L95.35 825.7C92.36 825.37 86.89 827.13 86.71 822.52C92.09 821.94 97.4 823.37 102.77 823.27C109.75 823.17 116.72 823.96 123.7 823.59C126.18 820.97 126.11 817.07 127.55 813.93C129.38 810.31 130.47 806.31 132.87 803C134.58 800.28 137.68 799 139.88 796.77C121.91 795.62 103.86 796.76 85.87 796.09C85.33 795.15 85.83 794.04 85.83 793.06C93.87 793.4 101.9 793.29 109.94 793.16C115.72 792.88 121.65 793.81 127.32 792.32C126.44 790 127.5 787.59 126.94 785.25C128.02 758.49 128.28 731.7 127.95 704.93Z" fill="#0055CC"/>
<path d="M494.54 375.49L495.95 375.14C496.16 375.61 496.58 376.56 496.8 377.03C498.27 391.4 496.77 405.9 497.66 420.3C496.9 419.99 495.39 419.37 494.63 419.05C494.9 404.53 494.95 390.02 494.54 375.49Z" fill="#0055CC"/>
<path d="M465.06 399.28C467.26 399.42 469.26 398.51 471.13 397.46C474.72 399.61 474.31 404.29 474.78 407.91C474.35 408.08 473.48 408.42 473.04 408.58C471.18 406.64 471.72 403.37 470.95 400.88C467.55 401.33 464.35 402.79 460.91 402.88C461.57 401.1 462.92 399.19 465.06 399.28Z" fill="#0055CC"/>
<path d="M211.46 482.1C212.03 482.09 213.15 482.05 213.72 482.03C213.93 485.95 212.98 490.04 214.49 493.78C214.13 496.94 214.13 500.13 214.05 503.31C211.88 503.04 211.8 500.73 211.68 499.04C210.85 493.4 212.39 487.76 211.46 482.1Z" fill="#0055CC"/>
<path d="M404.04 706.91C407.26 707.78 407.65 712.02 407.77 714.85C406.07 712.46 404.13 709.98 404.04 706.91Z" fill="#0055CC"/>
<path d="M399.37 709.11C401.28 711.56 402.48 714.47 403.32 717.45C400.24 716.36 398.74 712.09 399.37 709.11Z" fill="#0055CC"/>
<path d="M452.7 376.39C453.2 376.63 454.2 377.1 454.7 377.34C455.74 380.39 455.33 383.79 455.56 386.98C455.42 398.18 455.94 409.38 455.75 420.58C468.72 420.48 481.68 419.76 494.63 419.05C495.39 419.37 496.9 419.99 497.66 420.3C496.66 421.11 495.51 421.91 494.14 421.79C480.48 422.21 466.85 423.51 453.18 423.8C453 408 453.56 392.17 452.7 376.39Z" fill="#0055CC"/>
<path d="M465.1 379.51C465.52 379.71 466.34 380.11 466.75 380.31C467.17 385.13 467.27 390.13 465.18 394.61C468.61 396.86 472.41 389.08 474.78 393.9C472.18 397.02 467.38 395.96 464.65 398.91C462.18 397.92 459.52 394.65 461.94 392.28C462.52 392.25 463.69 392.19 464.27 392.16C465.18 388.01 464.66 383.71 465.1 379.51Z" fill="#0055CC"/>
<path d="M147.21 426.35C149.78 424.66 151.62 428.19 153.4 429.6C155.06 431.86 158.16 433.21 158.99 435.94C157.37 438.41 155.14 435.28 153.64 434.27C151.3 431.92 147.55 429.91 147.21 426.35Z" fill="#0055CC"/>
<path d="M472.42 381.37C473.1 381.25 474.48 381.01 475.16 380.89C475.65 383.63 475.27 386.41 474.68 389.1C477.14 391.53 480.05 393.75 481.31 397.09C477.8 398.13 476.16 394.83 474.46 392.49C471.86 389.39 472.88 385.07 472.42 381.37Z" fill="#0055CC"/>
<path d="M218.26 392.48C220.4 391.93 222.66 391.96 224.85 392.19C225.91 396.58 219.89 395.26 217.35 395.67C217.62 394.59 217.63 393.42 218.26 392.48Z" fill="#0055CC"/>
<path d="M241.7 422.64C250.43 416.17 261.29 413.48 271.93 412.36C284.78 411.21 298 412.09 310.1 416.87C318.19 420.33 326.48 423.94 332.89 430.15C342.19 437.04 350.1 445.82 355.87 455.86C357.73 445.85 355.58 435.19 350.46 426.44C348.52 423.52 346.12 419.16 341.9 420.88C341.87 420.12 341.8 418.61 341.77 417.85C343.56 417.84 345.35 417.84 347.14 417.85H347.84C356.79 426.93 360.36 440.36 359.52 452.84C359.27 457.61 358.23 464.34 352.55 465.27C343.33 466.41 333.97 465.12 325.03 462.79C318.27 460.68 310.63 458.47 306.67 452.06C302.9 455.14 297.88 457.15 293.02 455.69C287.5 454.56 283.53 450.39 279.42 446.9C277.78 448.81 276.12 452.53 272.99 451C265.03 448.13 257.81 443.18 252.16 436.89C248.77 433.18 246.35 428.73 243.1 424.9C242.39 426.22 241.82 427.67 240.68 428.7C234.81 434.46 230.41 441.58 227.08 449.06C221.92 461.37 220.47 474.81 219.19 487.98C219.33 489.55 218.45 492.59 220.96 492.64C223.56 474.37 236.11 459.31 250.57 448.69C253.12 447.02 255.38 444.3 258.65 444.25C258.7 444.62 258.79 445.36 258.83 445.73C255.51 448.83 251.53 451.15 248.16 454.21C236.89 463.89 226.87 476.53 225.02 491.72C228.88 491.43 232.74 491.63 236.61 491.78C236.47 492.46 236.2 493.82 236.07 494.5C232.35 495.02 228.52 493.57 224.89 494.79C224.46 496.32 224.87 497.52 226.13 498.4C230.04 498.05 234.09 497.88 237.9 498.97C239.18 500.28 237.59 502.19 236.07 501.73C233.68 501.82 231.28 501.66 228.9 501.5C227.96 500.13 226.74 499 225.4 498.04C223.99 498.68 223.04 501.12 221.35 500.8C220.37 498.23 221.44 495.35 220.17 492.86C218.27 495.85 219.38 499.62 219.26 502.95C218.5 502.91 216.98 502.81 216.21 502.76C216.04 499.77 216.02 496.73 215.2 493.83C216.52 486.64 216.29 479.24 217.82 472.07C220 457.77 224.07 443.02 233.92 431.99C236.79 429.1 238.79 425.48 241.7 422.64ZM245.34 423.35C249.15 426.42 251.13 431.06 254.53 434.51C259.8 440 266.21 444.41 273.16 447.47C274.64 445.52 275.76 443.31 277.39 441.49C279.31 440.08 280.87 442.71 282.16 443.82C286.12 448.5 291.37 453.85 298.08 452.82C302.07 452.26 304.18 448.2 307.84 447.08C309.88 449.06 310.5 452.26 313.09 453.79C320.11 458.52 328.61 460.48 336.9 461.56C342.56 462.26 348.55 463.08 353.97 460.77C354.05 457.87 352.73 455.24 351.2 452.88C347.41 447.12 342.6 442.11 337.5 437.5C325.09 425.02 308.39 417.03 290.94 414.87C275.41 413.66 259.02 415.38 245.34 423.35ZM240.19 426.27C240.72 426.77 240.72 426.77 240.19 426.27Z" fill="#0055CC"/>
<path d="M143.029 415.43C147.209 414.08 151.679 412.53 156.039 414.04C169.939 418.88 182.519 428.11 190.279 440.71C191.249 442.65 192.759 446.54 189.559 447.22C187.989 441.87 184.619 437.28 180.799 433.31C175.569 427.97 169.479 423.39 162.609 420.39C157.989 418.46 153.069 415.43 147.919 417.36C143.389 418.91 138.099 420.08 135.029 424.05C132.819 427.41 138.559 427.61 139.229 430.11C139.239 432.68 135.959 432.77 134.119 432.27C131.899 432.06 129.249 430.36 127.379 432.36C121.369 437.41 119.359 445.42 118.579 452.91C119.379 458.22 125.209 459.41 128.779 462.31C130.429 463.22 128.579 466.53 127.099 465.08C124.809 464.04 122.639 462.01 119.999 462.27C115.609 464.61 113.449 469.51 111.989 474.03C109.279 482.03 109.369 490.59 109.739 498.92C109.919 502.75 112.099 506.05 113.719 509.41C114.549 511.31 116.359 512.42 118.059 513.45C120.069 508.67 122.039 503.88 124.279 499.2C129.319 488.21 133.599 476.69 140.929 466.95C148.439 457.24 158.319 449.06 169.939 444.84C175.919 442.63 182.979 442.46 188.429 446.15C188.809 446.57 189.569 447.41 189.949 447.83C187.059 450.93 183.349 447.1 180.069 446.81C173.499 446.72 167.329 449.47 161.819 452.8C155.059 456.76 149.079 461.97 144.039 467.96C136.659 476.88 132.329 487.75 127.379 498.09C124.999 503.59 122.099 508.87 119.969 514.48C125.749 515.78 131.769 517.52 137.669 515.79C150.149 513.57 159.099 500.43 157.649 488.06C158.919 483.77 163.169 487.21 165.879 487.46C169.709 485.24 172.159 481.35 175.249 478.27C182.059 469.84 187.339 460.06 190.059 449.53C192.909 450.35 194.659 452.86 196.389 455.07C203.149 464.44 206.299 475.8 208.229 487.05C209.419 492.17 210.169 497.48 209.539 502.74C209.009 503.9 207.319 503.3 206.309 503.68C206.309 500.83 206.419 497.99 206.399 495.15C205.229 495.67 204.059 496.2 202.899 496.73C203.139 498.87 203.649 501.03 203.249 503.19C202.559 503.19 201.199 503.18 200.519 503.18C200.109 501.24 199.949 499.27 199.679 497.32C199.119 497.32 197.989 497.33 197.429 497.33C196.889 499.12 197.199 501.37 195.729 502.76C193.289 502.29 193.969 499.07 193.509 497.25C193.019 497.26 192.029 497.28 191.539 497.29C191.329 498.96 191.129 500.63 190.909 502.31C188.369 501.93 188.489 498.92 187.659 497.07C184.739 498.3 180.749 496.71 178.629 499.42C177.859 499.37 177.119 499.14 176.399 498.75C171.989 499.89 167.379 501.08 163.899 504.19C163.969 504.85 164.119 506.19 164.189 506.85C170.199 509.18 176.739 508.27 183.019 508.6C189.699 508.9 196.369 508.15 203.049 508.31C203.199 508.71 203.509 509.52 203.659 509.92C203.639 509.43 203.589 508.44 203.569 507.95C212.679 507.39 221.789 506.9 230.899 506.36C238.469 505.64 246.489 504.36 252.869 499.94C247.629 497.46 242.279 494.6 236.309 494.8C236.469 494.1 236.799 492.72 236.969 492.02C244.079 491.88 252.689 493.93 256.299 500.84C255.109 504.03 254.329 507.36 253.909 510.74C253.499 510.77 252.689 510.83 252.279 510.86C252.649 510.98 253.389 511.21 253.759 511.33C249.879 534.12 245.349 556.82 242.039 579.71C285.239 579.48 328.449 579.94 371.649 580.12C371.639 581.01 371.619 581.9 371.619 582.8C328.299 582.49 284.959 582.27 241.659 582.63C240.079 588.17 240.699 594.23 238.559 599.6C222.749 600.91 206.889 602.49 191.009 602.3C188.019 602 183.969 602.74 182.159 599.69C179.859 595.61 179.789 590.75 178.259 586.39C178.089 586.29 177.749 586.08 177.579 585.98C166.569 593.35 156.099 601.48 145.059 608.82C135.959 614.94 126.729 620.85 117.819 627.24C128.519 627.52 139.239 626.97 149.949 627.14C179.009 626.64 208.079 626.78 237.149 626.6C236.809 627.63 236.479 628.67 236.149 629.71C191.979 630.03 147.809 629.13 103.669 630.53C103.669 629.48 103.679 628.43 103.689 627.39C107.099 627.55 110.509 627.6 113.919 627.8C114.609 624.94 117.849 624.44 119.889 622.84C138.989 609.35 158.239 596.05 176.979 582.08C171.699 557.1 165.779 532.22 161.059 507.11C160.039 503.78 162.389 500.67 165.229 499.21C171.009 495.92 177.769 495.1 184.229 494.12C182.769 489.41 179.909 485.09 176.879 481.23C173.149 485.72 168.899 491.86 162.159 490.61C160.009 498.86 157.499 507.97 150.309 513.31C143.649 518.82 134.439 520.69 126.029 519.08C120.729 517.89 114.539 517.01 111.469 511.94C109.299 519.94 107.209 529.72 99.0594 533.76C93.8594 535.94 89.4794 530.93 87.3494 526.8C86.6494 523.84 86.8794 520.76 86.9694 517.76C88.2994 517.74 90.2494 517.43 90.9094 518.96C92.7494 521.96 90.3994 526.18 93.1494 528.78C94.3394 529.95 96.0794 531.72 97.9094 530.72C100.809 528.67 102.849 525.63 104.689 522.65C107.429 518.21 107.709 512.91 109.329 508.07C107.199 503.01 106.959 497.46 106.869 492.05C106.839 481.8 108.329 471.07 114.339 462.48C115.839 461.77 117.409 461.12 118.599 459.92C117.329 458.36 115.429 457.2 114.679 455.29C115.019 453.21 115.549 451.16 115.909 449.09C112.759 447.61 108.799 446.22 105.849 448.95C110.339 451.95 114.109 456.74 114.089 462.36C111.359 458.01 108.769 453.53 105.119 449.86C97.7394 455.51 92.8794 463.69 88.9394 471.95C88.4394 472.03 87.4494 472.2 86.9494 472.28C86.8494 468.19 89.5294 464.9 91.3394 461.46C94.5394 455.54 99.2894 450.72 103.669 445.68C101.649 445.05 99.6294 444.4 97.5594 443.94C97.5494 443.15 97.5194 441.56 97.4994 440.77C100.509 441.42 103.269 442.8 105.919 444.33C107.639 444.2 109.319 443.52 111.059 443.7C112.799 444.44 114.389 445.46 116.019 446.39C117.999 440.5 120.439 434.42 125.229 430.23C127.009 428.55 129.509 428.23 131.849 428.07C130.689 425.46 131.549 422.48 133.569 420.56C136.259 418.12 139.639 416.62 143.029 415.43ZM191.599 454.21C189.999 460.65 187.379 466.93 183.519 472.35C184.909 473.7 186.569 474.93 187.269 476.82C189.619 482.36 191.259 488.18 193.449 493.79C193.939 493.92 194.919 494.17 195.409 494.3C195.329 494.95 195.159 496.23 195.069 496.88C195.959 495.44 197.029 494.03 198.749 493.56C195.739 485 192.039 476.69 187.199 469C187.569 469.05 188.289 469.17 188.649 469.23C194.729 476.5 199.059 485.07 202.439 493.88C203.519 493.46 204.589 493.05 205.659 492.64C203.539 479.17 200.999 464.73 191.599 454.21ZM178.099 479.72C182.129 483.75 185.449 488.65 187.349 494.04C187.969 493.98 189.199 493.86 189.819 493.8C188.319 486.97 186.049 480.3 183.359 473.85C181.459 475.67 179.909 477.81 178.099 479.72ZM227.959 510.2C212.999 510.42 198.099 511.98 183.129 511.81C177.169 511.8 171.079 512.25 165.269 510.58C167.839 525.47 171.379 540.19 174.549 554.97C177.649 568.72 180.719 582.48 184.319 596.11C184.809 598.47 187.789 598.17 189.459 599.33C189.809 599.17 190.509 598.86 190.849 598.7C193.909 599.19 196.999 599.44 200.099 599.23C209.439 598.71 218.789 598.19 228.129 597.6C230.789 596.96 233.439 596.55 236.129 596.77C237.749 588.73 238.869 580.58 240.059 572.46C240.499 572.5 241.389 572.57 241.829 572.6C241.399 572.54 240.529 572.42 240.099 572.36C243.659 549.89 247.829 527.52 251.759 505.12C244.179 508.1 236.159 510.21 227.959 510.2Z" fill="#0055CC"/>
<path d="M91.0097 627.25C94.8697 627.54 98.7297 627.49 102.58 626.95C102.41 628.14 102.23 629.34 102.04 630.54C96.7297 630.4 91.4196 630.51 86.1096 630.36L85.6396 627.7C87.5096 629.63 88.8797 626.5 91.0097 627.25Z" fill="#0055CC"/>
<path d="M87.0805 440.27C90.1805 440.6 93.2905 440.36 96.3905 440.13C96.3305 441.28 96.2905 442.44 96.2405 443.6C93.8605 443.08 91.1205 443.85 88.9105 442.79L88.5305 442.34C88.5005 442.75 88.4505 443.58 88.4205 443.99C85.6805 444.79 86.9705 441.55 87.0805 440.27Z" fill="#0055CC"/>
<path d="M210.5 449.02C214.03 449.95 212.97 454.13 213.45 456.89C214.42 464.97 213.4 473.15 214.34 481.21C213.35 481.25 212.38 481.3 211.4 481.36C212.36 470.6 211.64 459.75 210.5 449.02Z" fill="#0055CC"/>
<path d="M127.56 454.48C127.42 453.29 127.34 451.9 128.87 451.66C130.95 452.38 132.43 454.02 133.2 456.04C131.11 456.99 129.14 455.79 127.56 454.48Z" fill="#0055CC"/>
<path d="M173.17 501.91C176.86 500.49 180.89 501.02 184.75 500.59C186.36 502.37 183.79 504.1 182.1 503.76C179.12 503.73 175.21 504.77 173.17 501.91Z" fill="#0055CC"/>
<path d="M827.55 503.21C829.99 503.02 832.45 503.29 834.75 504.18C835.43 510.41 835.1 516.7 835.18 522.96C834.84 530.62 835.73 538.47 833.63 545.95C833.53 557.32 833.74 568.68 833.54 580.05C833.84 584.66 833.56 589.28 832.73 593.82C827.11 593.92 821.52 594.24 815.92 593.88C810.5 594.51 805.01 592.87 799.68 594.39C799.09 585.26 799.9 576.1 799.84 566.96C800.29 559.66 799.88 552.32 800.52 545.04C800.77 542.99 803.61 544.1 804.99 543.94C813.68 544.85 822.37 543.07 831.05 543.68C831.39 537.93 831.83 532.19 831.6 526.43C831.16 526.62 830.29 526.99 829.85 527.18C829.65 531.74 825.26 534.61 821.49 536.3C817.86 537.2 813.87 536.88 810.39 535.52C804.39 532.29 802.27 524.1 805.12 518.08C807.95 511.46 816.48 508.71 822.99 511.16C826.31 512.78 829.58 515.45 830.49 519.21C831.33 521.66 829.96 524.61 831.94 526.69C831.76 519.72 831.77 512.75 832.15 505.79C830.34 505.71 825.31 506.86 827.55 503.21ZM814.49 514.51C810.33 515.59 807.04 519.73 807.09 524.05C807.55 527.45 809.51 530.68 812.43 532.53C818.36 535.17 826.24 531.46 827.33 524.91C827.95 518.2 821.07 512.23 814.49 514.51ZM806.36 574.33C802.23 577.36 803.09 585.36 808.44 586.41C812.34 587.35 815.3 583.44 815.8 579.99C815.29 575.8 810.39 571.69 806.36 574.33ZM822.2 574.19C818.15 576.34 817.47 582.04 820.93 585.07C824.94 588.99 831.64 583.82 830.8 578.97C829.83 575.52 825.77 572.21 822.2 574.19Z" fill="#0055CC"/>
<path d="M610.31 509.23C611.21 509.56 612.12 509.9 613.03 510.25C613.58 513.18 614.26 516.08 614.96 518.98C622.95 518.02 631.019 518.43 639.049 518.18C659.959 517.99 680.879 517.22 701.789 518.25C702.019 518.89 702.5 520.17 702.74 520.81C690.17 520.68 677.6 520.72 665.03 520.71C651.03 520.87 637.049 521.52 623.049 521.34C620.689 521.37 618.239 521.16 615.979 521.96C614.899 523.07 614.26 524.5 613.53 525.85C612.35 525.55 611.18 525.24 610.02 524.92C610.86 523.7 611.679 522.47 612.539 521.26C611.649 517.28 610.7 513.3 610.31 509.23Z" fill="#0055CC"/>
<path d="M523.34 517.09C530.22 515.4 537.56 516.6 544.64 516.19C544.54 516.46 544.35 517 544.25 517.27C545.5 516.16 547.06 515.8 548.73 515.89C548.5 517.06 548.27 518.25 548.04 519.44C538.04 518.87 528.01 519.44 518 519.35C490.66 519.67 463.31 519.97 435.97 519.61C434.18 519.64 432.46 520.19 430.73 520.61C430.6 521.22 430.35 522.44 430.22 523.05C429.07 523.51 427.94 523.99 426.81 524.5C427.9 524.62 429 524.73 430.1 524.84C429.13 525.23 428.16 525.62 427.21 526.03C428.25 528.58 427.1 531 425.5 533.02C425.17 532.59 424.5 531.73 424.17 531.3C423.53 530.47 422.89 529.65 422.25 528.84C423.96 525.77 425.53 522.61 426.86 519.35L427.23 518.46C427.56 518.5 428.22 518.57 428.55 518.6C428.72 518.11 429.06 517.14 429.23 516.65C434.49 516.17 439.77 516.84 445.04 516.79C458.36 517.37 471.68 517.12 485 516.89C497.4 516.88 509.79 516.73 522.18 516.26C522.47 516.47 523.05 516.88 523.34 517.09ZM425.2 530.64C426.5 530.98 427.35 528.86 426.75 527.88C425.44 527.39 424.51 529.67 425.2 530.64Z" fill="#0055CC"/>
<path d="M549.21 516.01C555.67 515.93 562.15 516.16 568.61 515.63L569.14 516.15C569.27 517.23 569.23 518.31 569.01 519.4C562.77 518.28 556.39 519.35 550.1 519.44C549.78 518.29 549.48 517.15 549.21 516.01Z" fill="#0055CC"/>
<path d="M813.341 516.43C817.041 515.2 822.131 515.32 824.381 519.05C827.281 523.09 825.38 529.25 820.93 531.27C817.56 531.98 813.441 531.71 811.031 528.97C807.261 525.51 808.461 518.18 813.341 516.43Z" fill="#0055CC"/>
<path d="M507.36 655.26C509.79 653.82 513.16 654.97 515.96 654.76C518.25 654.34 520.53 656.59 518.82 658.72C515.63 660.22 511.98 658.94 508.76 658.19C507.23 658.09 506.84 656.47 507.36 655.26Z" fill="#0055CC"/>
<path d="M255.9 655.76C258.52 655.41 261.16 655.52 263.8 655.5C264.18 656.56 264.56 657.63 264.95 658.71C261.94 658.89 258.92 658.8 255.92 659.09C255.91 658.25 255.9 656.59 255.9 655.76Z" fill="#0055CC"/>
<path d="M822.26 576.27C825.99 573.66 831.01 578.94 828.41 582.52C827.06 585.2 822.73 585.35 821.21 582.76C819.57 580.78 820.13 577.64 822.26 576.27Z" fill="#0055CC"/>
<path d="M835.12 578.84C842.7 578.69 850.26 579.42 857.84 579.11C861.27 579.27 864.88 578.6 868.17 579.86C868.13 580.32 868.04 581.24 867.99 581.7C857.09 582.01 846.19 581.74 835.29 581.85C835.25 581.09 835.16 579.59 835.12 578.84Z" fill="#0055CC"/>
<path d="M928.96 581.8C929.17 580.73 929.39 579.67 929.63 578.62C932.44 579.1 935.3 579.2 938.16 579.09C938.15 579.8 938.12 581.2 938.11 581.91C935.06 581.91 932 581.93 928.96 581.8Z" fill="#0055CC"/>
<path d="M611.48 605.75C617.78 603.62 626.87 607.42 626.56 615.02C626.35 623.89 613.53 627.48 608.13 620.89C603.71 616.36 605.86 608.18 611.48 605.75Z" fill="#0055CC"/>
<path d="M509.24 619.43C513.04 618.82 517.23 618.31 520.87 619.9C521.92 621.14 520.45 623.01 519.06 623.03C516.08 623.37 512.989 623.52 510.049 622.86C508.379 622.75 508.14 620.28 509.24 619.43Z" fill="#0055CC"/>
<path d="M746.7 624.9C751.05 623.86 755.58 624.45 760.01 624.38C812.71 624.03 865.42 625.05 918.11 624.89C918.22 625.7 918.44 627.31 918.55 628.12C898.32 628.17 878.1 628.28 857.9 627.85C822.6 627.56 787.31 627.75 752.01 627.67C750.14 627.45 745.47 628.12 746.7 624.9Z" fill="#0055CC"/>
<path d="M918.63 625.18C926.29 625.22 933.96 624.94 941.62 625.28C941.69 626.01 941.83 627.48 941.9 628.21C934.3 628.38 926.68 627.87 919.09 628.4C918.92 627.32 918.77 626.25 918.63 625.18Z" fill="#0055CC"/>
<path d="M397.5 634.72C401.54 633.57 405.92 634.2 410.08 634.43C412.53 634.85 415.68 634.76 417.26 637C416.48 642.4 415.4 647.75 413.76 652.97C412.79 657.98 412.46 663.25 409.75 667.75C409.1 669.25 407.17 668.97 405.86 669.26C401.29 669.6 396.77 668.34 392.19 668.7C390.86 668.26 388.76 667.93 388.83 666.12C389.6 657.9 391.83 649.89 393.91 641.92C394.71 639.39 395.12 636.3 397.5 634.72Z" fill="#0055CC"/>
<path d="M589.88 641.69C591.43 640.23 592.61 642.57 593.39 643.59C594.57 645.81 596.9 648.15 596 650.84C594.72 651.25 593.78 650.9 593.19 649.79C591.77 647.26 590.04 644.66 589.88 641.69Z" fill="#0055CC"/>
<path d="M280.39 653.45C281.55 653.1 282.71 652.76 283.89 652.43C283.95 653.06 284.07 654.33 284.13 654.96C277.85 662.18 273.77 670.95 269.52 679.44C265.98 686.26 262.63 693.19 258.83 699.88C255.79 705.53 252.06 710.82 249.66 716.79C243.05 733.19 231.91 747.23 220.45 760.5C211.07 771.13 201.06 781.18 191.83 791.95C187.85 795.91 184.89 800.77 180.79 804.6C177.04 807.93 172.62 804.2 169.03 802.53C170.41 802.17 171.79 801.81 173.17 801.48C174.6 801.84 176.11 803.41 177.6 802.7C179.53 800.75 181.08 798.46 182.8 796.33C174.75 796.72 166.69 796.33 158.63 796.4C156.12 795.52 152.85 795.47 151.43 792.84C162.94 792.26 174.48 793.17 185.96 792.12C190.86 787.56 194.95 781.93 199.67 777.07C218.23 757.41 237.84 737.36 247.69 711.66C258.53 694.61 266.28 675.87 276.47 658.48C272.63 658.67 268.79 658.69 264.95 658.71C264.56 657.63 264.18 656.56 263.8 655.5C268.85 655.37 273.91 655.52 278.94 655.04C279.3 654.65 280 653.86 280.35 653.46L280.39 653.45Z" fill="#0055CC"/>
<path d="M458.049 936.69C486.299 936.3 514.589 935.86 542.809 937.33C558.539 938.39 574.299 938.93 589.979 940.59C600.369 941.64 611.109 942.11 620.849 946.25C620.819 946.93 620.749 948.29 620.719 948.97C615.689 948.79 610.999 946.74 606.049 946.11C590.769 943.72 575.309 942.79 559.909 941.85C521.319 939.37 482.629 939.78 443.989 940.69C441.199 940.49 437.659 941.72 435.399 939.7C434.359 936.91 438.259 937.43 439.879 937.22C445.959 937.36 451.989 937.01 458.049 936.69Z" fill="#0055CC"/>
<path d="M482.33 654.73C485.92 654.51 489.56 654.31 493.13 654.87L493.69 655.82C493.59 656.4 493.38 657.56 493.27 658.14C489.58 658.81 485.7 659.09 482.03 658.17C482.12 657.01 482.22 655.87 482.33 654.73Z" fill="#0055CC"/>
<path d="M635.49 707.03C637.1 704.16 638.13 700.46 640.99 698.63C641.46 698.76 642.4 699 642.87 699.12C642.98 704.02 639.54 708.21 636.67 711.9C634.91 710.88 634.45 708.74 635.49 707.03Z" fill="#0055CC"/>
<path d="M86.0098 656.67C96.2898 655.82 106.68 656.74 116.99 655.99C123.79 656.29 130.6 655.53 137.39 656.16C146.24 655.58 155.11 656.16 163.96 655.89C194.61 656.31 225.25 655.98 255.9 655.76C255.9 656.59 255.91 658.25 255.92 659.09C199.22 660.53 142.5 658.89 85.7998 659.42C85.8498 658.73 85.9498 657.36 86.0098 656.67Z" fill="#0055CC"/>
<path d="M127 664.35C126.97 662.04 126.59 658.57 130.18 659.54C130.27 667.01 131.62 674.56 130.69 682C131.68 688.73 131.22 695.57 131.27 702.36C130.43 702.46 128.73 702.66 127.89 702.76C127.83 690 127.77 677.24 127.11 664.49H128.9C128.43 664.46 127.48 664.39 127 664.35Z" fill="#0055CC"/>
<path d="M511.57 742.57C512.3 743.77 513.09 744.97 513.83 746.21C514.08 761.72 513.55 777.26 514.12 792.77C532.44 792.46 550.75 792.74 569.07 792.67C613.11 792.51 657.15 792.36 701.19 792.18C699.78 790.13 698.36 788.1 696.94 786.07C697.39 786.02 698.3 785.92 698.75 785.87C698.23 784.98 697.72 784.1 697.23 783.24C697.7 782.83 698.64 782 699.11 781.59C701.36 785.16 703.75 788.64 706.08 792.17C706.29 792.69 706.69 793.72 706.9 794.23C707.64 795.45 708.81 796.55 708.77 798.11C707.46 797.48 706.19 796.85 704.88 796.26C702.36 795.23 699.57 795.53 696.92 795.47C620.98 795.79 545.03 795.69 469.09 796.11C425.82 796.47 382.55 795.89 339.28 796.52C334.07 805.79 328.92 815.16 323.06 824.04C351.74 823.72 380.43 823.71 409.11 823.68C415.15 823.48 421.2 824.14 427.23 823.5C427.21 824.55 427.19 825.61 427.18 826.68C391.63 826.63 356.08 826.97 320.52 827.38C314.07 837.37 307.38 847.21 301.36 857.47C300.06 859.43 298.66 862.88 295.77 861.06C294.58 859.28 296.37 857.5 297.09 855.95C302.4 847.62 307.74 839.32 313.13 831.06C319.2 822.07 325.42 813.15 330.66 803.65C334.66 796.78 337.97 789.25 344.03 783.88C348.81 779.47 353.54 774.86 359.11 771.46C359.6 772.8 360.1 774.16 360.61 775.53C353.43 780.12 347.3 786.11 341.58 792.37C398.13 792.31 454.68 792.45 511.23 792.74C511.96 776.03 511.4 759.29 511.57 742.57Z" fill="#0055CC"/>
<path d="M427.86 823.4C433.89 824.22 439.98 823.64 446.04 823.75C463.01 823.87 479.98 823.64 496.95 823.72C499.63 823.72 502.35 823.23 504.98 824.07C508.26 823.13 511.67 823.67 515.02 823.58C554.75 823.08 594.44 823.84 634.16 822.76C634.22 823.55 634.36 825.13 634.42 825.91C605.26 826.41 576.07 826.15 546.95 826.91C533.3 826.39 519.61 827.02 505.94 826.74C479.88 826.98 453.79 826.16 427.74 826.77C427.77 825.63 427.81 824.51 427.86 823.4Z" fill="#0055CC"/>
<path d="M265.25 955.42C266.83 953.24 269.19 949.77 272.21 951.93C272.01 952.56 271.61 953.83 271.41 954.47C260.37 968.26 253.2 984.88 248.7 1001.87C248.07 1001.82 246.8 1001.71 246.16 1001.66C246.53 993.89 249.77 986.56 252.54 979.39C256.04 971.04 260.21 962.95 265.25 955.42Z" fill="#0055CC"/>
<path d="M620.96 961.02C619.9 959.1 621.75 956.57 623.81 958.11C625.31 960.89 625.92 964.03 626.43 967.13C627.12 971.57 628.17 976.03 627.62 980.56C627.03 980.59 625.86 980.65 625.27 980.68C623.25 974.25 623.34 967.36 620.96 961.02Z" fill="#0055CC"/>
</g>
<defs>
<clipPath id="clip0_93_582">
<rect width="1024" height="1024" fill="none"/>
</clipPath>
</defs>
</svg>
