<svg width="1024" height="797" viewBox="0 83 1024 797" fill="none" xmlns="http://www.w3.org/2000/svg">
<g clip-path="url(#clip0_93_1593)">
<rect width="1024" height="1024" fill="none"/>
<path d="M724.077 166.326C723.825 169.608 724.691 172.351 726.013 172.452C727.334 172.554 728.611 169.976 728.863 166.694C729.116 163.412 728.249 160.669 726.927 160.567C725.606 160.466 724.33 163.044 724.077 166.326Z" fill="black"/>
<path d="M734.03 167.952L733.591 167.922C732.764 167.866 732.049 168.49 731.992 169.317L731.756 172.789C731.699 173.615 732.324 174.331 733.15 174.387L733.589 174.417C734.416 174.474 735.131 173.849 735.188 173.023L735.424 169.551C735.481 168.724 734.856 168.009 734.03 167.952Z" fill="black"/>
<path d="M626.056 201.677C626.662 202.954 627.679 203.74 628.328 203.432C628.977 203.124 629.011 201.839 628.404 200.562C627.798 199.285 626.78 198.499 626.132 198.807C625.483 199.115 625.449 200.4 626.056 201.677Z" fill="black"/>
<path d="M613.695 213.117C614.203 214.758 615.333 215.865 616.22 215.591C617.106 215.317 617.413 213.764 616.905 212.123C616.397 210.482 615.267 209.375 614.38 209.649C613.494 209.924 613.187 211.476 613.695 213.117Z" fill="black"/>
<path d="M451.329 236.645C451.692 239.989 453.451 242.541 455.258 242.344C457.064 242.148 458.234 239.278 457.871 235.935C457.507 232.591 455.749 230.039 453.942 230.236C452.136 230.432 450.966 233.302 451.329 236.645Z" fill="black"/>
<path d="M420.22 564.23L392.79 546.31C392.277 545.977 392.093 546.107 392.24 546.7C393.433 551.587 394.34 556.353 394.96 561C395.06 561.76 395.483 562.24 396.23 562.44L418.69 568.4C422.67 569.38 427.14 570.41 430.75 572.33C433.27 573.68 434.22 579.31 434.28 581.57C434.46 588.31 432.677 595.473 428.93 603.06C428.27 604.4 427.39 605.02 425.84 604.55C422.62 603.56 419.58 602.55 416.3 601.89C411.22 600.863 406.197 599.563 401.23 597.99C401.082 597.942 400.924 597.932 400.771 597.961C400.619 597.99 400.475 598.057 400.355 598.155C400.235 598.254 400.141 598.381 400.082 598.525C400.024 598.669 400.002 598.825 400.02 598.98C401.56 613.753 401.923 627.807 401.11 641.14C400.79 646.43 399.11 652.81 396.54 657.89C390.553 669.75 381.127 677.567 368.26 681.34C367.92 681.44 367.76 681.67 367.78 682.03C367.96 685.12 369.37 687.68 369.95 690.67C370.817 695.083 371.817 699.527 372.95 704C374.75 711.11 376.03 718.46 377.68 725.47C380.067 735.677 382.35 746.273 384.53 757.26C385.17 760.48 385.22 763.73 385.97 767.04C386.22 768.16 386.29 769.2 385.54 770.15C382.44 774.11 378.07 776.99 373.61 778.86C370.88 780 362.92 781.67 361.03 778.42C360.01 776.67 360.35 774.56 359.54 772.7C358.71 770.78 358.71 768.82 357.62 767.01C357.247 766.403 356.973 765.76 356.8 765.08C354.64 756.767 352.45 748.053 350.23 738.94C347.717 728.62 345.78 719.787 344.42 712.44C344.18 711.12 343.833 709.863 343.38 708.67C343.302 708.455 343.288 708.225 343.34 708.01L343.58 707.12C343.651 706.822 343.619 706.508 343.49 706.23C342.43 704.003 341.807 701.687 341.62 699.28C341.52 697.91 340.98 696.65 340.41 695.4C340.379 695.331 340.368 695.254 340.379 695.179C340.39 695.104 340.421 695.034 340.471 694.976C340.52 694.918 340.585 694.876 340.657 694.854C340.729 694.831 340.807 694.83 340.88 694.85C351.53 697.83 360.38 691.99 366.26 683.42C366.44 683.167 366.44 682.91 366.26 682.65L366.06 682.36C365.967 682.22 365.867 682.213 365.76 682.34C362.907 685.713 359.687 688.473 356.1 690.62C351.84 693.18 344.51 695.59 340.47 692.74C340.15 692.513 339.963 692.203 339.91 691.81L339.46 688.33C339.407 687.93 339.18 687.76 338.78 687.82C332.18 688.86 325.67 688.62 319.13 689.53C316.417 689.903 313.643 689.943 310.81 689.65C310.283 689.597 310.073 689.83 310.18 690.35L310.94 693.95C311.002 694.25 310.975 694.562 310.861 694.846C310.747 695.131 310.552 695.376 310.3 695.55C306.31 698.34 299.89 701.55 294.89 700.36C291.617 699.593 288.42 698.48 285.3 697.02C285.027 696.893 284.887 696.677 284.88 696.37L284.73 689.44C284.727 689.275 284.669 689.115 284.563 688.987C284.458 688.858 284.313 688.768 284.15 688.73C277.357 687.217 270.85 684.037 264.63 679.19C244.1 663.18 241.62 632.1 240.53 608.46C239.463 585.32 238.21 562.943 236.77 541.33C236.423 536.143 236.357 527.95 236.57 516.75C236.743 507.477 237.653 499.143 239.3 491.75C241.7 481.02 248.82 474.94 259.24 472.37C270.647 469.543 282.97 468.3 296.21 468.64C296.377 468.644 296.543 468.607 296.692 468.532C296.842 468.458 296.971 468.347 297.067 468.211C297.164 468.075 297.226 467.917 297.247 467.751C297.269 467.585 297.249 467.416 297.19 467.26C296.39 465.173 296.22 462.927 296.68 460.52C296.793 459.927 296.567 459.523 296 459.31C274.09 451.01 254.99 437.29 245.11 415.52C241.323 407.173 238.55 398.2 236.79 388.6C235.537 381.753 235.233 375.247 235.88 369.08C239.36 335.99 256.43 308.65 286.86 294C295.293 289.947 303.783 286.907 312.33 284.88C324.26 282.05 335.83 282.24 347.85 284.93C360.877 287.857 373.61 293.333 386.05 301.36C402.9 312.24 416.62 330.02 423.87 348.06C426.517 354.64 428.257 361.06 429.09 367.32C432.01 389.33 426.65 410.23 413.77 427.95C401.73 444.523 385.67 456.263 365.59 463.17C358.283 465.683 349.87 466.947 340.35 466.96C340.197 466.96 340.12 467.033 340.12 467.18V467.5C340.12 467.56 340.15 467.593 340.21 467.6C346.697 467.86 352.82 470.16 358.58 474.5C366.69 480.6 371.63 488.1 376.65 497.03C377.31 498.2 378.34 498.84 379.41 499.54C403.583 515.227 425.28 529.437 444.5 542.17C444.85 542.401 445.115 542.739 445.257 543.136C445.4 543.532 445.411 543.965 445.29 544.37C442.983 552.003 440.69 559.313 438.41 566.3C437.803 568.153 436.93 569.867 435.79 571.44C435.466 571.896 434.979 572.211 434.429 572.32C433.879 572.43 433.308 572.326 432.83 572.03L420.22 564.23ZM378.25 452.52C378.657 452.293 378.627 452.15 378.16 452.09C369.81 451 362.84 448.6 355.95 443.33C328.77 422.52 321.22 382.09 324.2 349.73C326.44 325.29 339.79 298.63 367.57 297.84C368.95 297.807 369.013 297.5 367.76 296.92C351.43 289.38 332.57 285.59 315.04 289.43C303.787 291.897 292.917 296.117 282.43 302.09C262.65 313.35 249.24 331.88 243.59 353.94C237.657 377.113 240.857 399.393 253.19 420.78C257.117 427.587 261.943 433.257 267.67 437.79C289.503 455.083 314.367 463.233 342.26 462.24C355.467 461.773 367.463 458.533 378.25 452.52ZM386.54 313.43C398.253 324.163 407.783 336.18 415.13 349.48C415.917 350.907 416.503 350.827 416.89 349.24C416.997 348.78 416.883 348.023 416.55 346.97C415.677 344.263 414.493 341.747 413 339.42C405.813 328.213 396.89 318.033 386.23 308.88C384.77 307.633 383.203 306.67 381.53 305.99C381.434 305.95 381.33 305.935 381.226 305.944C381.123 305.953 381.022 305.986 380.934 306.042C380.845 306.097 380.77 306.173 380.716 306.263C380.661 306.353 380.628 306.455 380.62 306.56C380.56 307.413 380.843 308.133 381.47 308.72C383.19 310.34 384.88 311.91 386.54 313.43ZM400.471 375.792C401.317 375.72 402.133 375.382 402.87 374.799C403.608 374.216 404.254 373.398 404.771 372.393C405.288 371.388 405.666 370.215 405.883 368.94C406.1 367.666 406.152 366.316 406.036 364.967C405.921 363.618 405.639 362.297 405.209 361.078C404.778 359.86 404.206 358.768 403.526 357.866C402.845 356.963 402.07 356.267 401.243 355.818C400.417 355.369 399.556 355.175 398.709 355.248C397.863 355.32 397.047 355.658 396.309 356.241C395.572 356.824 394.926 357.642 394.409 358.647C393.892 359.652 393.514 360.825 393.297 362.099C393.08 363.374 393.028 364.724 393.144 366.073C393.259 367.422 393.54 368.743 393.971 369.962C394.402 371.18 394.974 372.272 395.654 373.174C396.335 374.077 397.11 374.773 397.937 375.222C398.763 375.671 399.624 375.865 400.471 375.792ZM371.582 383.674C372.433 383.609 373.252 383.23 373.991 382.561C374.731 381.892 375.376 380.945 375.892 379.773C376.407 378.602 376.782 377.23 376.994 375.735C377.207 374.24 377.253 372.652 377.131 371.061C376.884 367.848 375.964 364.82 374.573 362.641C373.183 360.463 371.437 359.314 369.718 359.446C368.867 359.511 368.048 359.889 367.309 360.559C366.569 361.228 365.923 362.175 365.408 363.347C364.893 364.518 364.518 365.89 364.306 367.385C364.093 368.88 364.047 370.468 364.169 372.059C364.416 375.272 365.336 378.3 366.726 380.479C368.117 382.657 369.863 383.806 371.582 383.674ZM383.82 436.16C378.993 436.567 374.67 434.193 370.85 429.04C370.784 428.952 370.694 428.884 370.59 428.844C370.486 428.803 370.372 428.791 370.26 428.81C369.84 428.89 369.547 429.107 369.38 429.46C369.113 430.007 369.16 430.527 369.52 431.02C374.83 438.2 384.5 441.56 391.8 434.6C391.89 434.51 391.946 434.391 391.959 434.265C391.972 434.139 391.94 434.014 391.87 433.91L391.63 433.55C391.33 433.11 390.96 433.033 390.52 433.32C387.84 435.06 385.607 436.007 383.82 436.16ZM332.41 473.3C332.343 474.033 331.943 474.413 331.21 474.44L299.08 475.87C298.772 475.884 298.47 475.779 298.236 475.577C298.002 475.374 297.853 475.089 297.82 474.78L297.6 472.55C297.547 472.057 297.273 471.823 296.78 471.85C281.37 472.62 269.13 473.16 256.43 477.13C256.311 477.163 256.202 477.227 256.114 477.314C256.027 477.402 255.963 477.511 255.93 477.63C255.863 477.843 255.887 478.03 256 478.19C256.16 478.41 256.377 478.513 256.65 478.5C260.843 478.38 265.103 478.327 269.43 478.34C277.35 478.38 285.11 477.63 293.06 476.94C296.693 476.627 300.22 476.48 303.64 476.5C318.9 476.6 335.36 477.2 350.13 474.48C351.01 474.32 351.03 474.087 350.19 473.78C345.19 471.96 339.57 470.75 333.33 470.15C332.917 470.11 332.69 470.293 332.65 470.7L332.41 473.3ZM362 587.46C368.93 578.68 374.53 569.41 376.01 558.13C376.017 558.075 376.036 558.022 376.064 557.974C376.092 557.927 376.129 557.885 376.173 557.853C376.216 557.82 376.266 557.797 376.319 557.784C376.372 557.772 376.427 557.77 376.48 557.78C381.9 558.667 386.85 559.867 391.33 561.38C391.413 561.407 391.502 561.412 391.588 561.395C391.674 561.377 391.754 561.338 391.82 561.281C391.887 561.223 391.937 561.15 391.967 561.068C391.997 560.985 392.005 560.896 391.99 560.81C388.45 540.87 384.46 521.62 376.16 503.21C371.46 492.78 364.34 482.47 354.73 476.51C354.584 476.419 354.414 476.375 354.242 476.384C354.07 476.393 353.906 476.454 353.77 476.56C351.97 477.947 349.847 478.807 347.4 479.14C332.83 481.13 318.08 480.61 303.63 480.79C297.557 480.87 291.077 481.15 284.19 481.63C274.77 482.29 265.85 482.543 257.43 482.39C256.137 482.363 254.83 482.197 253.51 481.89C249.46 480.94 245.42 483.6 244.29 487.53C241.963 495.637 240.6 503.64 240.2 511.54C239.64 522.56 239.82 534.71 240.74 547.99C242.307 570.57 243.543 592.203 244.45 612.89C244.77 620.323 245.63 628.317 247.03 636.87C247.078 637.153 247.226 637.409 247.447 637.591C247.667 637.773 247.945 637.868 248.23 637.86C284.977 636.787 320.82 635.877 355.76 635.13C366.307 634.903 377.22 634.393 388.5 633.6C391.467 633.393 394.53 633.367 397.69 633.52C398.05 633.54 398.233 633.367 398.24 633C398.487 621.373 397.96 609.657 396.66 597.85C396.624 597.549 396.499 597.266 396.301 597.038C396.103 596.809 395.841 596.646 395.55 596.57C389.857 595.103 383.743 593.54 377.21 591.88C372.077 590.573 367.04 589.2 362.1 587.76C362.07 587.752 362.042 587.736 362.019 587.715C361.997 587.693 361.98 587.666 361.97 587.637C361.96 587.607 361.957 587.575 361.963 587.545C361.968 587.514 361.981 587.485 362 587.46ZM428.53 600.5C428.523 600.427 428.487 600.443 428.42 600.55C428.28 600.763 428.297 600.797 428.47 600.65C428.489 600.631 428.504 600.608 428.514 600.582C428.525 600.557 428.53 600.529 428.53 600.5ZM275.51 643.81C275.99 643.63 276.34 643.77 276.56 644.23C279.1 649.45 281.807 654.24 284.68 658.6C294 672.72 308.96 680.54 325.21 684.01C330.117 685.063 334.747 685.347 339.1 684.86C346.927 683.993 354.527 682.7 361.9 680.98C373.3 678.33 384.29 672.63 390.8 662.61C394.467 656.963 396.597 651.943 397.19 647.55C397.65 644.083 397.933 640.073 398.04 635.52C398.047 635.173 397.88 635.02 397.54 635.06C376.907 637.48 361.413 638.867 351.06 639.22C329.553 639.96 308.027 640.477 286.48 640.77C273.453 640.95 260.717 640.767 248.27 640.22C248.198 640.217 248.126 640.231 248.06 640.26C247.993 640.288 247.934 640.332 247.887 640.387C247.84 640.441 247.806 640.506 247.788 640.576C247.769 640.646 247.766 640.719 247.78 640.79C250.79 656.76 258.56 672.4 272.79 680.4C279.323 684.073 286.69 686.293 294.89 687.06C299.48 687.49 303.79 687.93 308.48 687.35C312.38 686.87 316.31 686.613 320.27 686.58C322.143 686.567 322.17 686.337 320.35 685.89C297.883 680.43 282.75 666.643 274.95 644.53C274.907 644.41 274.913 644.279 274.965 644.164C275.017 644.05 275.113 643.962 275.23 643.92L275.51 643.81ZM379.089 768.649C379.261 768.602 379.415 768.492 379.54 768.326C379.665 768.16 379.761 767.942 379.82 767.683C379.88 767.423 379.903 767.129 379.887 766.816C379.872 766.503 379.819 766.178 379.731 765.859C379.643 765.54 379.522 765.233 379.375 764.957C379.228 764.68 379.058 764.439 378.874 764.247C378.69 764.055 378.496 763.915 378.303 763.837C378.111 763.759 377.923 763.743 377.751 763.79C377.579 763.838 377.425 763.948 377.3 764.114C377.174 764.28 377.079 764.498 377.02 764.757C376.96 765.017 376.937 765.311 376.952 765.624C376.968 765.937 377.021 766.262 377.109 766.581C377.197 766.9 377.318 767.207 377.465 767.483C377.612 767.76 377.782 768.001 377.966 768.193C378.15 768.385 378.344 768.524 378.536 768.603C378.729 768.681 378.917 768.697 379.089 768.649Z" fill="black"/>
<path d="M731.72 852.43C727.833 853.47 723.256 853.8 717.99 853.42C710.336 852.873 700.586 852.676 688.74 852.83C687.086 852.85 686.13 853.613 685.87 855.12L679.86 860.74C678.94 861.373 677.956 861.943 676.91 862.45C676.21 862.79 675.18 863.026 673.82 863.16C672.74 863.266 671.693 863.516 670.68 863.91C666.393 864.67 662.083 864.826 657.75 864.38C657.18 864.32 656.18 864.98 655.28 864.93C650.366 864.656 644.79 864.453 638.55 864.32C633.623 864.213 630.043 861.87 627.81 857.29C626.99 855.616 627.013 853.923 627.88 852.21C629.486 849.023 632.29 847.45 636.29 847.49C641.79 847.543 647.58 847.606 653.66 847.68C654.24 847.693 654.52 847.41 654.5 846.83C654.25 836.31 652.71 825.58 651.33 815.3C649.24 799.79 646.33 784.4 643.63 768.75C643.536 768.216 643.733 768.07 644.22 768.31C651.18 771.72 658 774.63 665.64 776.78C668.513 777.593 671.24 777.97 673.82 777.91C674.16 777.896 674.386 778.05 674.5 778.37C675.08 780.016 675.566 781.61 675.96 783.15C680.226 799.856 683.476 815.863 685.71 831.17C685.776 831.583 686.016 831.79 686.43 831.79L702.79 831.77C702.844 831.768 702.897 831.753 702.945 831.728C702.992 831.702 703.033 831.665 703.063 831.621C703.094 831.577 703.113 831.527 703.119 831.474C703.125 831.422 703.119 831.369 703.1 831.32C701.193 826.273 699.786 821.083 698.88 815.75C698.61 814.19 697.91 812.83 697.16 811.45C697 811.156 696.963 810.846 697.05 810.52C697.156 810.126 697.163 809.736 697.07 809.35C696.11 805.356 695.053 801.433 693.9 797.58C693.25 795.42 693.56 793.26 692.24 791.31C691.36 790.01 691.93 788.67 691.44 787.27C690.246 783.863 689.376 780.34 688.83 776.7C688.818 776.623 688.826 776.545 688.855 776.473C688.884 776.401 688.931 776.338 688.993 776.291C689.054 776.244 689.127 776.214 689.204 776.205C689.281 776.196 689.359 776.208 689.43 776.24C698.03 779.95 707.33 780.3 715.94 775.98C716.061 775.92 716.195 775.886 716.33 775.882C716.465 775.877 716.6 775.902 716.725 775.954C716.849 776.007 716.96 776.085 717.051 776.185C717.142 776.284 717.21 776.402 717.25 776.53C721.81 790.783 725.843 804.9 729.35 818.88C730.216 822.34 731.016 826.046 731.75 830C732.27 832.813 732.136 835.286 731.35 837.42C727.51 847.78 719.43 848.15 709.76 848.29C702.206 848.403 694.763 848.516 687.43 848.63C687.216 848.636 687.106 848.743 687.1 848.95L687.08 849.23C687.074 849.332 687.106 849.433 687.171 849.513C687.236 849.592 687.328 849.645 687.43 849.66C689.016 849.88 690.316 849.96 691.33 849.9C700.956 849.333 711.743 849.293 723.69 849.78C726.276 849.886 728.59 849.13 730.63 847.51C734.75 844.24 733.82 834.87 732.96 830.21C732.02 825.07 731.026 820.256 729.98 815.77C726.446 800.63 722.396 785.426 717.83 770.16C717.656 769.586 717.426 769.03 717.14 768.49C716.493 767.263 716.156 767.34 716.13 768.72L716.03 773.27C716.023 773.683 715.833 773.98 715.46 774.16C708.38 777.5 700.446 777.713 691.66 774.8C687.66 773.48 688.12 770.07 688.45 766.75C689.19 759.37 690.07 752.38 691.57 744.81C694.263 731.21 696.96 717.566 699.66 703.88C700 702.16 700.99 700.98 700.61 699.13C700.543 698.836 700.606 698.57 700.8 698.33L701.02 698.04C701.226 697.786 701.343 697.5 701.37 697.18C701.596 694.9 702.183 692.586 703.13 690.24C703.263 689.913 703.453 689.873 703.7 690.12C708.48 694.94 714.336 697.496 721.27 697.79C724.39 697.93 727.6 696.78 730.61 695.77C731.296 695.543 731.636 695.793 731.63 696.52C731.61 697.873 731.203 698.83 730.41 699.39C730.076 699.63 730.033 699.916 730.28 700.25L730.95 701.16C731.047 701.29 731.108 701.444 731.127 701.605C731.147 701.766 731.123 701.93 731.06 702.08C730.893 702.493 730.546 702.726 730.02 702.78C729.899 702.794 729.785 702.84 729.689 702.914C729.592 702.987 729.517 703.085 729.471 703.197C729.425 703.31 729.41 703.432 729.428 703.552C729.445 703.672 729.494 703.785 729.57 703.88C730.17 704.626 730.186 705.45 729.62 706.35C729.388 706.703 729.295 707.13 729.36 707.55C729.72 709.98 728.51 711.69 728.38 714.14C728.286 715.753 728.026 717.396 727.6 719.07C727.186 720.656 726.863 722.223 726.63 723.77C725.67 730.103 724.293 736.566 722.5 743.16C721.96 745.16 722.276 745.306 723.45 743.6C735.43 726.086 740.44 706.34 738.48 684.36C738.478 684.349 738.475 684.34 738.47 684.331C738.465 684.322 738.459 684.315 738.451 684.309C738.443 684.303 738.435 684.299 738.426 684.298C738.417 684.296 738.408 684.297 738.4 684.3C736.34 684.833 734.39 685.516 732.55 686.35C732.456 686.396 732.4 686.47 732.38 686.57C732.04 688.836 731.916 691.15 732.01 693.51C732.03 693.903 731.85 694.16 731.47 694.28C724.776 696.36 718.07 696.003 711.35 693.21C707.463 691.59 704.72 689.41 703.12 686.67C703.027 686.508 702.898 686.37 702.744 686.266C702.589 686.161 702.414 686.094 702.23 686.07L693.54 684.91C692.886 684.823 692.546 685.11 692.52 685.77C692.39 688.55 692.49 693.55 689 694.32C679.33 696.43 669.66 691.82 662.48 684.63C662.213 684.363 662.13 684.046 662.23 683.68L663.64 678.62C663.69 678.43 663.665 678.228 663.569 678.058C663.474 677.888 663.316 677.763 663.13 677.71C645.29 672.63 631.84 655.09 629.84 636.86C629.053 629.626 628.896 620.973 629.37 610.9C629.856 600.76 630.406 592.273 631.02 585.44C631.042 585.185 631.157 584.947 631.343 584.772C631.53 584.597 631.774 584.496 632.03 584.49L632.97 584.47C633.556 584.456 633.853 584.746 633.86 585.34L633.89 589.56L632.39 623.39C632.343 624.503 632.876 625.086 633.99 625.14C654.65 626.053 675.58 626.943 696.78 627.81C712.266 628.436 724.59 628.563 733.75 628.19C746.21 627.676 760.433 626.306 776.42 624.08C776.78 624.033 776.973 623.83 777 623.47C778.95 599.85 779.19 576.46 780.69 550.05C781.343 538.61 781.38 526.346 780.8 513.26C780.653 509.813 780.416 506.486 780.09 503.28C779.956 501.98 779.74 500.713 779.44 499.48C778.66 496.28 778.68 493.1 777.92 489.91C777.28 487.23 776.47 484.48 775.49 481.66C775.332 481.206 775.021 480.822 774.61 480.574C774.199 480.326 773.714 480.229 773.24 480.3C767.786 481.086 762.116 481.486 756.23 481.5C727.29 481.553 700.933 480.57 677.16 478.55C675.44 478.403 673.693 478.223 671.92 478.01C670.16 477.8 668.82 476.87 667.06 476.85C666.713 476.85 666.403 476.96 666.13 477.18C649.27 490.96 643.09 512.96 638.51 533.27C637.656 537.043 637.123 540.52 636.91 543.7C636.84 544.62 636.64 545.72 636.31 546.62C636.023 547.393 636.246 547.59 636.98 547.21L699.99 514.14C700.109 514.077 700.242 514.048 700.376 514.057C700.51 514.065 700.64 514.111 700.75 514.188C700.861 514.265 700.95 514.371 701.006 514.494C701.062 514.618 701.084 514.755 701.07 514.89C700.023 524.056 702.406 532.55 708.22 540.37C708.686 540.99 709.29 541.186 710.03 540.96L710.28 540.88C710.409 540.841 710.526 540.773 710.624 540.681C710.722 540.588 710.797 540.474 710.842 540.348C710.888 540.222 710.903 540.086 710.887 539.953C710.871 539.819 710.824 539.692 710.75 539.58C702.97 528.03 699.09 513.63 709.98 502.78C717.73 495.05 731.11 497.58 735.57 507.34C740.19 517.43 735.88 530.53 728.25 537.75C727.75 538.223 727.516 538.803 727.55 539.49C728.316 554.25 728.95 568.836 729.45 583.25C729.943 597.323 729.56 611.06 728.3 624.46C728.226 625.18 727.84 625.62 727.14 625.78C726.94 625.826 726.756 625.806 726.59 625.72C725.67 625.233 725.213 624.52 725.22 623.58C725.35 608.36 725.63 593.04 725.37 578.04C725.156 565.533 724.98 553.356 724.84 541.51C724.838 541.417 724.81 541.326 724.76 541.248C724.71 541.169 724.639 541.106 724.556 541.065C724.472 541.024 724.379 541.006 724.286 541.014C724.194 541.022 724.105 541.055 724.03 541.11C721.516 542.95 719.086 544.043 716.74 544.39C713.36 544.89 710.73 545.03 707.48 546.73C684.193 558.93 660.786 570.876 637.26 582.57L634.5 583.49C634.152 583.604 633.776 583.601 633.431 583.479C633.085 583.358 632.79 583.126 632.59 582.82C627.5 575.06 624.81 564.92 624.04 555.8C623.933 554.566 624.473 553.666 625.66 553.1C628.08 551.946 630.4 550.673 632.62 549.28C632.826 549.153 632.95 548.97 632.99 548.73L634.27 541.01C634.273 541 634.273 540.99 634.27 540.981C634.268 540.971 634.262 540.963 634.255 540.956C634.247 540.95 634.238 540.946 634.228 540.945C634.218 540.944 634.209 540.945 634.2 540.95L612.08 553.92C610.833 554.653 610.93 554.963 612.37 554.85C614.503 554.683 616.916 554.296 619.61 553.69C619.822 553.642 620.041 553.639 620.254 553.681C620.467 553.722 620.669 553.808 620.846 553.933C621.024 554.057 621.173 554.218 621.283 554.403C621.394 554.589 621.465 554.795 621.49 555.01C622.71 565.22 624.6 574.68 630.14 583.46C630.194 583.547 630.226 583.646 630.232 583.748C630.238 583.85 630.219 583.953 630.175 584.045C630.131 584.138 630.064 584.218 629.981 584.278C629.898 584.339 629.801 584.377 629.7 584.39C609.086 586.836 588.54 589.21 568.06 591.51C565.26 591.83 562.52 592.18 561.42 588.82C558.466 579.806 558.873 570.94 562.64 562.22C562.786 561.88 562.72 561.586 562.44 561.34C557.7 557.146 552.8 553.04 547.74 549.02C544.6 546.526 541.693 544.64 539.02 543.36C538.877 543.291 538.719 543.26 538.561 543.27C538.403 543.28 538.25 543.331 538.117 543.417C537.984 543.504 537.876 543.623 537.803 543.764C537.73 543.904 537.694 544.061 537.7 544.22C537.706 544.713 537.926 545.13 538.36 545.47C545.16 550.863 552.36 556.413 559.96 562.12C560.037 562.177 560.092 562.258 560.117 562.351C560.143 562.443 560.137 562.541 560.1 562.63C557.24 569.683 556.633 576.956 558.28 584.45C558.337 584.712 558.303 584.987 558.183 585.23C558.063 585.473 557.865 585.67 557.62 585.79C553.613 587.716 549.486 589.623 545.24 591.51C539.99 593.84 535.59 594.07 532.32 588.57C531.846 587.776 531.61 587.84 531.61 588.76V597.4C531.61 597.554 531.64 597.706 531.7 597.848C531.759 597.99 531.847 598.119 531.957 598.227C532.066 598.335 532.197 598.42 532.34 598.477C532.483 598.534 532.636 598.562 532.79 598.56C534.416 598.533 535.96 598.246 537.42 597.7C544.213 595.14 551.123 592.033 558.15 588.38C558.262 588.322 558.384 588.287 558.51 588.279C558.636 588.271 558.762 588.289 558.881 588.333C558.999 588.376 559.108 588.443 559.199 588.531C559.29 588.618 559.362 588.723 559.41 588.84L559.61 589.34C560.01 590.306 559.736 591.006 558.79 591.44C553.89 593.7 549.046 595.983 544.26 598.29C539.91 600.39 533.98 602.83 529.28 601.15C529.192 601.118 529.097 601.11 529.004 601.127C528.912 601.144 528.826 601.185 528.755 601.246C528.684 601.307 528.63 601.386 528.599 601.474C528.569 601.563 528.562 601.658 528.58 601.75L528.9 603.34C528.986 603.76 528.926 604.156 528.72 604.53C523.03 614.91 513.52 616.83 502.64 617.11C494.52 617.31 486.87 612.08 481.86 605.93C481.586 605.603 481.313 605.603 481.04 605.93C479.026 608.33 476.996 610.686 474.95 613C471.66 616.72 466.63 615.58 462.78 613.71C453.11 609.01 443.88 603.37 434.52 598.37C434.182 598.189 433.924 597.891 433.795 597.532C433.665 597.174 433.674 596.781 433.82 596.43C436.46 590.07 437.13 583.303 435.83 576.13C435.716 575.51 435.913 575.01 436.42 574.63L459.72 557.08C459.785 557.03 459.838 556.965 459.875 556.891C459.911 556.816 459.929 556.735 459.928 556.652C459.927 556.57 459.907 556.488 459.869 556.415C459.831 556.342 459.777 556.278 459.71 556.23L459.4 556C458.9 555.633 458.383 555.603 457.85 555.91C451.563 559.523 445.793 563.723 440.54 568.51C439.74 569.23 439.533 569.09 439.92 568.09C442.806 560.583 445.306 552.87 447.42 544.95C447.448 544.842 447.501 544.743 447.574 544.659C447.647 544.575 447.738 544.509 447.84 544.466C447.942 544.422 448.053 544.403 448.164 544.409C448.275 544.415 448.383 544.446 448.48 544.5L461.83 551.71C462.23 551.93 462.61 551.896 462.97 551.61C468.67 546.95 478.09 540.99 485.56 541.1C488.61 541.15 490.57 544.85 493.2 546.19C496.413 547.823 499.586 549.646 502.72 551.66C503.013 551.853 503.306 551.846 503.6 551.64C506.78 549.36 512.43 548.95 516.17 548.22C516.696 548.12 516.743 547.91 516.31 547.59C511.69 544.19 503.1 535.69 508.56 530.03C511.51 526.97 516.75 527.88 520.36 528.96C526.54 530.826 532.136 533.76 537.15 537.76C537.643 538.153 537.83 538.68 537.71 539.34C537.67 539.558 537.712 539.785 537.828 539.977C537.943 540.17 538.125 540.316 538.34 540.39C539.286 540.696 540.296 540.77 541.37 540.61C551.356 539.116 561.533 537.693 571.9 536.34C573.613 536.113 575.433 536.026 577.36 536.08C577.713 536.086 578.006 536.223 578.24 536.49C578.806 537.13 579.256 537.786 579.59 538.46C582.603 544.553 584.933 550.983 586.58 557.75C586.594 557.814 586.622 557.875 586.662 557.928C586.702 557.981 586.752 558.026 586.81 558.059C586.869 558.092 586.933 558.112 587 558.119C587.067 558.126 587.135 558.12 587.2 558.1L587.53 558C588.043 557.826 588.263 557.47 588.19 556.93C587.256 550.223 584.996 543.673 581.41 537.28C581.354 537.18 581.319 537.069 581.308 536.954C581.297 536.839 581.309 536.722 581.345 536.61C581.38 536.498 581.437 536.392 581.514 536.299C581.59 536.207 581.684 536.129 581.79 536.07L643.95 500.78C644.43 500.513 644.786 500.13 645.02 499.63C649.15 490.88 653.65 483.69 660.71 476.32C668.9 467.77 678.59 465.51 690.23 465.96C690.603 465.973 690.863 465.806 691.01 465.46C691.21 465.006 691.21 464.553 691.01 464.1C690.883 463.813 690.666 463.633 690.36 463.56C683.17 461.75 675.89 461.12 668.95 458.5C645.31 449.613 627.13 434.74 614.41 413.88C607.91 403.226 604.813 391.52 605.12 378.76C605.18 376.33 605.64 374 605.69 371.57C605.703 370.703 605.79 369.84 605.95 368.98C607.456 360.826 610.12 353.206 613.94 346.12C626.44 322.91 646.6 304.09 671.04 294.34C686.38 288.22 702.75 286.64 718.75 288.3C758.07 292.37 786.32 323.89 790.13 362.43C792.243 383.75 788.71 403.583 779.53 421.93C771.27 438.43 757.09 452.47 739.8 458.68C736.113 460 731.916 461.093 727.21 461.96C727.017 461.994 726.841 462.091 726.709 462.236C726.577 462.38 726.496 462.565 726.48 462.76C726.4 463.753 726.496 464.746 726.77 465.74C726.876 466.133 727.133 466.33 727.54 466.33C738.67 466.45 749.5 466.88 760.59 468.41C773.05 470.12 778.82 476.86 781.22 488.89C784.74 506.56 785.37 523.48 784.53 541.5C784.163 549.346 783.756 559.176 783.31 570.99C782.85 583.056 782.333 595.476 781.76 608.25C780.54 635.34 775.73 663.31 751.27 678.92C748.13 680.93 744.39 682.05 741 683.66C740.673 683.82 740.536 684.08 740.59 684.44C743.24 702.86 740.81 720.03 731.59 736.52C730.11 739.16 725.55 746.78 722.33 747.36C721.603 747.493 721.383 747.896 721.67 748.57C722.243 749.91 721.986 750.856 720.9 751.41C720.6 751.563 720.596 751.72 720.89 751.88C721.45 752.18 721.596 752.63 721.33 753.23C721.216 753.49 721.036 753.683 720.79 753.81C719.87 754.29 719.583 755.04 719.93 756.06C719.983 756.218 719.991 756.389 719.952 756.551C719.913 756.714 719.829 756.863 719.71 756.98L719.52 757.16C719.38 757.293 719.34 757.453 719.4 757.64C719.953 759.353 719.633 760.683 718.44 761.63C718.133 761.876 718.133 762.126 718.44 762.38C718.506 762.433 718.593 762.456 718.7 762.45C718.806 762.443 718.876 762.49 718.91 762.59C725.623 783.496 731.113 803.506 735.38 822.62C736.66 828.346 737.273 834.14 737.22 840C737.17 845.21 736.11 849.41 731.72 852.43ZM705.24 460.58C710.63 460.88 716.31 460.12 721.81 459.38C741.41 456.74 757.44 447.71 769.28 431.59C785.09 410.08 790.05 381.96 785.58 355.9C780.43 325.88 758.18 300.46 727.95 293.52C717.55 291.126 705.953 290.693 693.16 292.22C684.25 293.28 674.41 296.47 666.5 300.54C665.333 301.14 665.403 301.506 666.71 301.64C693.48 304.33 701.33 329.48 700.9 352.66C700.62 367.75 698.34 383.37 693.69 397.46C686.67 418.72 669.4 441.66 644.28 440.14C643.553 440.093 643.483 440.29 644.07 440.73C656.63 450.13 670.443 456.223 685.51 459.01C688.53 459.563 691.36 459.916 694 460.07C696.846 460.236 699.67 460.366 702.47 460.46C703.443 460.493 704.366 460.533 705.24 460.58ZM619.96 362.55C621.01 368.39 627.67 370.26 631.16 365.01C633.746 361.116 634.703 356.44 634.03 350.98C633.616 347.633 631.703 345.883 628.29 345.73C628.184 345.726 628.081 345.695 627.992 345.639C627.902 345.583 627.829 345.505 627.778 345.411C627.728 345.317 627.702 345.212 627.704 345.104C627.706 344.997 627.736 344.892 627.79 344.8C635.07 332.61 644.72 321.47 655.94 312.13C656.073 312.016 656.167 311.862 656.206 311.691C656.246 311.52 656.23 311.341 656.16 311.18L656 310.82C655.937 310.677 655.844 310.549 655.725 310.447C655.607 310.345 655.467 310.271 655.316 310.23C655.164 310.189 655.005 310.181 654.85 310.209C654.695 310.237 654.548 310.299 654.42 310.39C650.886 312.936 647.436 315.936 644.07 319.39C633.823 329.903 625.513 341.936 619.14 355.49C617.373 359.243 616.006 363.03 615.04 366.85C614.97 367.123 615.001 367.412 615.128 367.667C615.254 367.922 615.467 368.124 615.73 368.24C615.89 368.313 616.083 368.31 616.31 368.23C616.91 368.023 617.31 367.62 617.51 367.02L619.02 362.48C619.42 361.28 619.733 361.303 619.96 362.55ZM657.294 374.037C658.164 374.15 659.067 373.946 659.95 373.437C660.833 372.928 661.68 372.124 662.443 371.07C663.205 370.016 663.868 368.734 664.393 367.296C664.918 365.858 665.296 364.293 665.504 362.69C665.712 361.087 665.747 359.477 665.607 357.953C665.466 356.429 665.153 355.02 664.685 353.806C664.217 352.593 663.604 351.599 662.88 350.881C662.156 350.163 661.335 349.735 660.465 349.622C659.595 349.509 658.693 349.713 657.809 350.222C656.926 350.731 656.079 351.536 655.317 352.589C654.554 353.643 653.892 354.925 653.366 356.363C652.841 357.801 652.464 359.366 652.255 360.969C652.047 362.572 652.012 364.182 652.153 365.706C652.293 367.231 652.607 368.64 653.074 369.853C653.542 371.067 654.156 372.061 654.88 372.779C655.604 373.497 656.424 373.924 657.294 374.037ZM636.24 417.1C636.127 416.983 635.977 416.909 635.813 416.889C635.65 416.869 635.483 416.904 635.34 416.99C634.973 417.21 634.816 417.476 634.87 417.79C634.99 418.503 635.296 419.12 635.79 419.64C643.53 427.69 655.09 423.58 660.69 415.36C660.764 415.251 660.799 415.12 660.79 414.988C660.781 414.856 660.728 414.73 660.64 414.63L660.35 414.3C660.288 414.228 660.211 414.171 660.125 414.133C660.038 414.095 659.944 414.076 659.849 414.078C659.753 414.08 659.66 414.102 659.573 414.144C659.487 414.186 659.411 414.246 659.35 414.32C655.123 419.566 650.073 421.99 644.2 421.59C641.613 421.416 638.96 419.92 636.24 417.1ZM691.04 473.18L691.07 470.24C691.07 470.049 690.999 469.866 690.871 469.726C690.743 469.587 690.567 469.502 690.38 469.49C683.613 468.983 676.53 470.216 669.13 473.19C668.723 473.35 668.703 473.55 669.07 473.79C670.11 474.476 671.263 474.853 672.53 474.92C694.836 476.106 714.653 476.85 731.98 477.15C745.126 477.383 757.953 477.283 770.46 476.85C770.597 476.845 770.727 476.788 770.827 476.691C770.926 476.593 770.988 476.461 771 476.32C771.02 476.073 770.93 475.88 770.73 475.74C768.203 474.02 765.153 472.9 761.58 472.38C752.24 471.026 742.46 470.14 732.24 469.72C730.726 469.653 729.22 469.666 727.72 469.76C727.373 469.786 727.183 469.97 727.15 470.31L726.92 472.52C726.887 472.846 726.729 473.147 726.479 473.359C726.229 473.572 725.907 473.679 725.58 473.66C721.886 473.446 718.07 473.416 714.13 473.57C706.756 473.85 699.403 474.06 692.07 474.2C691.935 474.202 691.8 474.178 691.675 474.128C691.549 474.078 691.435 474.003 691.339 473.908C691.243 473.812 691.167 473.699 691.116 473.574C691.064 473.449 691.038 473.315 691.04 473.18ZM713.76 509.77C716.18 507.16 718.97 505.72 722.54 505.08C722.973 505.006 723.173 504.75 723.14 504.31C723.093 503.67 722.643 503.273 721.79 503.12C721.056 502.993 720.35 503.066 719.67 503.34L716.84 504.49C716.193 504.756 715.603 505.116 715.07 505.57C712.583 507.69 711.66 509.09 712.3 509.77C712.786 510.283 713.273 510.283 713.76 509.77ZM532.12 541.73C532.185 541.776 532.259 541.809 532.337 541.825C532.416 541.841 532.497 541.841 532.576 541.824C532.655 541.807 532.73 541.774 532.796 541.727C532.862 541.68 532.918 541.619 532.96 541.55L533.11 541.31C533.456 540.743 533.37 540.253 532.85 539.84C527.483 535.52 521.72 532.713 515.56 531.42C514.633 531.22 513.78 531.293 513 531.64C511.793 532.173 511.83 532.596 513.11 532.91C519.69 534.523 526.026 537.463 532.12 541.73ZM484.19 544.91L484 544.65C483.693 544.216 483.286 544.076 482.78 544.23C476.273 546.21 470.516 549.416 465.51 553.85C465.407 553.941 465.339 554.064 465.315 554.2C465.292 554.336 465.314 554.477 465.38 554.6L465.52 554.87C465.567 554.959 465.632 555.038 465.712 555.1C465.792 555.163 465.884 555.207 465.983 555.231C466.081 555.255 466.184 555.257 466.283 555.238C466.383 555.219 466.477 555.178 466.56 555.12C471.74 551.533 477.56 548.336 484.02 545.53C484.077 545.506 484.127 545.469 484.168 545.422C484.209 545.376 484.238 545.32 484.255 545.261C484.271 545.201 484.274 545.139 484.262 545.078C484.251 545.017 484.226 544.96 484.19 544.91ZM490.69 548.76C489.21 553.94 485.88 557.61 481.64 560.75C481.542 560.823 481.463 560.918 481.409 561.027C481.355 561.137 481.327 561.258 481.329 561.38C481.331 561.502 481.362 561.622 481.42 561.73C481.477 561.837 481.559 561.93 481.66 562C486.253 565.186 491.12 568.35 496.26 571.49C498.76 573.01 500.746 573.736 502.22 573.67C508.233 573.403 514.993 572.626 522.5 571.34C523.48 571.173 523.566 570.8 522.76 570.22C513.44 563.56 504.093 556.913 494.72 550.28C493.713 549.573 492.63 548.95 491.47 548.41C491.396 548.375 491.316 548.356 491.235 548.355C491.153 548.354 491.073 548.37 490.999 548.404C490.924 548.437 490.858 548.486 490.805 548.548C490.752 548.609 490.712 548.682 490.69 548.76ZM506.82 553.56C506.18 553.653 506.063 553.95 506.47 554.45C507.143 555.283 507.843 555.95 508.57 556.45C514.236 560.33 520.02 564.336 525.92 568.47C525.949 568.491 525.984 568.503 526.02 568.505C526.057 568.507 526.093 568.498 526.124 568.481C526.156 568.463 526.181 568.436 526.198 568.404C526.215 568.372 526.223 568.336 526.22 568.3L524.98 551.43C524.975 551.366 524.957 551.304 524.927 551.247C524.898 551.191 524.857 551.141 524.807 551.101C524.758 551.06 524.7 551.031 524.639 551.013C524.577 550.996 524.513 550.991 524.45 551L506.82 553.56ZM486.99 581.71C490.24 583.04 493 584.39 492.21 588.63C491.48 592.52 491.67 599.06 495.15 601.26C497.82 602.93 500.01 597.88 500.45 596.13C501.95 590.203 501.923 584.29 500.37 578.39C500.176 577.65 499.743 577.083 499.07 576.69C492.69 572.976 486.43 568.98 480.29 564.7C479.303 564.013 479.003 564.24 479.39 565.38C481.596 571.886 483.766 578.286 485.9 584.58C486.413 586.086 487.27 587.763 488.47 589.61C488.556 589.736 488.666 589.766 488.8 589.7L489.13 589.54C489.222 589.494 489.294 589.415 489.329 589.318C489.365 589.221 489.361 589.114 489.32 589.02L486.37 582.36C486.331 582.27 486.32 582.172 486.337 582.076C486.354 581.98 486.399 581.891 486.465 581.822C486.532 581.752 486.617 581.704 486.711 581.684C486.804 581.664 486.901 581.673 486.99 581.71ZM495.95 605.42C491.69 605.5 489.183 602.023 488.43 594.99C488.423 594.904 488.388 594.824 488.329 594.762C488.27 594.7 488.191 594.66 488.107 594.65C488.022 594.639 487.936 594.658 487.863 594.704C487.791 594.749 487.737 594.819 487.71 594.9C486.803 597.306 485.586 599.59 484.06 601.75C483.86 602.023 483.85 602.303 484.03 602.59C488.73 610.276 495.02 614 502.9 613.76C508.79 613.58 521.31 612.15 524.21 605.47C526.156 600.976 527.183 596.42 527.29 591.8C527.416 586.613 527.423 581.403 527.31 576.17C527.303 575.763 527.096 575.576 526.69 575.61L504.48 577.61C504.106 577.643 503.963 577.846 504.05 578.22C505.88 585.96 505.79 595.2 501.45 601.99C500.016 604.236 498.183 605.38 495.95 605.42ZM726.29 633.14C726.303 635.84 726.013 638.52 725.42 641.18C722.14 655.98 713.96 673.32 700.6 681.26C699.473 681.933 699.553 682.403 700.84 682.67C702.91 683.1 705.1 682.88 707.17 683.07C715.27 683.79 720.55 683.936 723.01 683.51C726.47 682.9 730.31 682.81 733.52 682.04C749.253 678.26 760.836 669.02 768.27 654.32C772.516 645.926 775.22 636.826 776.38 627.02C776.453 626.393 776.183 626.146 775.57 626.28C758.93 629.846 742.676 631.953 726.81 632.6C726.463 632.613 726.29 632.793 726.29 633.14ZM679.4 678.92C685.266 679.993 690.646 680.84 695.54 681.46C695.762 681.485 695.987 681.461 696.197 681.391C696.408 681.32 696.6 681.203 696.76 681.05C699.9 678.03 703.25 675.15 706.04 671.65C712.166 663.936 716.956 655.606 720.41 646.66C722.116 642.226 723.646 637.64 725 632.9C725.007 632.87 725.008 632.84 725.002 632.81C724.996 632.781 724.984 632.753 724.965 632.729C724.947 632.705 724.924 632.685 724.897 632.671C724.87 632.658 724.84 632.65 724.81 632.65C695.87 632.19 667.46 630.526 639.58 627.66C637.42 627.44 635.4 626.86 633.27 626.79C633.167 626.787 633.064 626.805 632.968 626.845C632.873 626.884 632.786 626.944 632.715 627.019C632.643 627.094 632.588 627.184 632.553 627.282C632.517 627.381 632.503 627.485 632.51 627.59C632.743 630.556 632.896 633.446 632.97 636.26C633.06 639.41 633.84 642.52 634.56 645.54C637.52 657.94 648.93 668.46 660.69 673.3C663.596 674.493 666.703 675.603 670.01 676.63C672.996 677.556 676.126 678.32 679.4 678.92ZM694.913 770.191C695.261 770.277 695.663 770.081 696.03 769.648C696.397 769.215 696.699 768.58 696.871 767.882C697.042 767.184 697.068 766.48 696.944 765.926C696.819 765.373 696.554 765.013 696.206 764.928C695.858 764.843 695.457 765.038 695.09 765.471C694.723 765.904 694.42 766.54 694.249 767.238C694.077 767.936 694.051 768.639 694.176 769.193C694.3 769.747 694.566 770.106 694.913 770.191ZM642.025 853.746C642.018 853.574 641.9 853.409 641.678 853.26C641.456 853.111 641.136 852.981 640.734 852.877C640.332 852.774 639.858 852.699 639.337 852.656C638.817 852.614 638.261 852.606 637.7 852.631C637.14 852.656 636.587 852.715 636.072 852.805C635.558 852.894 635.092 853.012 634.701 853.151C634.311 853.291 634.003 853.449 633.796 853.618C633.589 853.786 633.486 853.962 633.494 854.133C633.502 854.305 633.62 854.47 633.842 854.619C634.063 854.768 634.384 854.899 634.785 855.002C635.187 855.106 635.662 855.181 636.182 855.223C636.703 855.265 637.259 855.274 637.819 855.248C638.379 855.223 638.932 855.164 639.447 855.075C639.962 854.985 640.427 854.868 640.818 854.728C641.209 854.589 641.516 854.43 641.723 854.262C641.931 854.093 642.033 853.918 642.025 853.746Z" fill="black"/>
<path d="M880.861 322.899L880.634 322.773C879.574 322.18 878.233 322.559 877.641 323.62L875.211 327.967C874.618 329.027 874.998 330.368 876.058 330.961L876.285 331.087C877.346 331.68 878.686 331.301 879.279 330.24L881.708 325.893C882.301 324.832 881.922 323.492 880.861 322.899Z" fill="black"/>
<path d="M888.944 330.963L888.794 330.863C887.774 330.183 886.396 330.458 885.716 331.478L881.621 337.618C880.94 338.638 881.216 340.017 882.236 340.697L882.386 340.797C883.406 341.477 884.784 341.202 885.464 340.181L889.559 334.042C890.239 333.022 889.964 331.643 888.944 330.963Z" fill="black"/>
<path d="M705.74 380.56C704.726 387.906 702.836 395.37 700.07 402.95C699.77 403.763 699.193 404.116 698.34 404.01C697.933 403.963 697.586 403.683 697.3 403.17C697.208 403.006 697.152 402.825 697.135 402.639C697.118 402.453 697.14 402.266 697.2 402.09C703.28 383.74 704.51 365.12 704.5 344.84C704.5 344.585 704.601 344.341 704.781 344.161C704.961 343.981 705.205 343.88 705.46 343.88L706.06 343.87C706.626 343.87 706.933 344.153 706.98 344.72C707.926 355.78 707.513 367.726 705.74 380.56Z" fill="black"/>
<path d="M320.17 392.7C316.223 379.94 314.68 367.133 315.54 354.28C315.613 353.153 315.977 352.187 316.63 351.38C316.97 350.967 317.48 351.017 318.16 351.53C318.332 351.662 318.468 351.836 318.557 352.037C318.646 352.237 318.685 352.458 318.67 352.68C317.69 364.6 318.757 377.303 321.87 390.79C322.03 391.49 321.97 392.153 321.69 392.78C321.55 393.087 321.257 393.227 320.81 393.2C320.665 393.191 320.527 393.138 320.413 393.049C320.298 392.96 320.214 392.838 320.17 392.7Z" fill="black"/>
<path d="M774.77 375.78C774.77 378.921 774.151 382.032 772.949 384.934C771.747 387.836 769.985 390.473 767.764 392.694C765.542 394.915 762.906 396.677 760.003 397.879C757.101 399.081 753.991 399.7 750.85 399.7C747.708 399.7 744.598 399.081 741.696 397.879C738.794 396.677 736.157 394.915 733.936 392.694C731.715 390.473 729.953 387.836 728.75 384.934C727.548 382.032 726.93 378.921 726.93 375.78C726.93 369.436 729.45 363.352 733.936 358.866C738.422 354.38 744.506 351.86 750.85 351.86C757.194 351.86 763.278 354.38 767.764 358.866C772.25 363.352 774.77 369.436 774.77 375.78ZM747.86 359.6C747.983 359.522 748.087 359.418 748.165 359.294C748.242 359.171 748.292 359.032 748.309 358.888C748.326 358.743 748.311 358.596 748.264 358.458C748.218 358.32 748.141 358.194 748.04 358.09C747.86 357.897 747.62 357.773 747.32 357.72C746.74 357.607 746.193 357.69 745.68 357.97C741.173 360.397 738.08 364.123 736.4 369.15C736.133 369.937 736.26 370.657 736.78 371.31C737.026 371.617 737.346 371.757 737.74 371.73C737.896 371.719 738.045 371.66 738.168 371.562C738.291 371.464 738.382 371.331 738.43 371.18C739.89 366.487 743.033 362.627 747.86 359.6Z" fill="black"/>
<path d="M297.27 378.59C297.27 384.968 294.736 391.086 290.226 395.596C285.716 400.106 279.598 402.64 273.22 402.64C270.062 402.64 266.934 402.018 264.016 400.809C261.098 399.601 258.447 397.829 256.214 395.596C253.981 393.363 252.209 390.711 251.001 387.794C249.792 384.876 249.17 381.748 249.17 378.59C249.17 372.212 251.704 366.094 256.214 361.584C260.724 357.074 266.841 354.54 273.22 354.54C279.598 354.54 285.716 357.074 290.226 361.584C294.736 366.094 297.27 372.212 297.27 378.59ZM277.23 361.9C277.297 362.547 277.593 363.06 278.12 363.44C281.64 365.96 284.327 369.283 286.18 373.41C286.587 374.317 287.233 374.553 288.12 374.12C288.213 374.073 288.283 374.003 288.33 373.91C288.663 373.243 288.687 372.537 288.4 371.79C286.873 367.877 284.44 364.68 281.1 362.2C280.78 361.96 280.446 361.75 280.1 361.57C278.053 360.49 277.097 360.6 277.23 361.9Z" fill="black"/>
<path d="M318.81 524C318.05 524.007 317.996 524.207 318.65 524.6L372.65 556.52C372.868 556.649 373.052 556.83 373.184 557.048C373.317 557.266 373.394 557.514 373.41 557.77C373.97 566.52 366.31 578.39 360.66 585.51C360.42 585.813 360.081 586.021 359.703 586.096C359.325 586.171 358.934 586.109 358.6 585.92C334.226 572.24 309.506 557.947 284.44 543.04C283.4 542.42 282.25 542 281.02 542.09C274.98 542.53 271.23 540.32 266.4 537.41C266.359 537.384 266.312 537.369 266.263 537.368C266.215 537.368 266.167 537.38 266.125 537.405C266.083 537.43 266.05 537.467 266.028 537.51C266.005 537.553 265.996 537.602 266 537.65C267.626 564.043 269.52 591.077 271.68 618.75C272.06 623.603 272.266 628.107 272.3 632.26C272.3 632.573 272.146 632.76 271.84 632.82C271.606 632.867 271.383 632.843 271.17 632.75C270.59 632.483 270.236 632.037 270.11 631.41C268.356 622.763 267.133 614.873 266.44 607.74C264.4 586.66 263.036 563.76 262.35 539.04C262.31 537.52 262.67 536 262.58 534.51C262.56 534.166 262.434 533.84 262.22 533.58C255.41 525.39 251.5 513.56 255.45 503.3C258.8 494.6 268.36 491.28 276.6 494.32C285.8 497.72 291.183 504.407 292.75 514.38C293.576 519.68 292.656 524.63 289.99 529.23C288.023 532.61 285.983 535.35 283.87 537.45C283.715 537.603 283.616 537.805 283.589 538.022C283.562 538.239 283.608 538.46 283.72 538.65C283.94 539.03 284.27 539.293 284.71 539.44C284.926 539.509 285.157 539.516 285.376 539.459C285.595 539.402 285.794 539.285 285.95 539.12C293.21 531.42 297.55 522.14 294.46 511.4C294.24 510.627 294.48 510.44 295.18 510.84L312.71 520.9C312.971 521.05 313.265 521.127 313.56 521.12C324.233 520.873 335.296 520.763 346.75 520.79C347.923 520.79 349.113 520.927 350.32 521.2C350.78 521.3 350.99 521.577 350.95 522.03C350.939 522.19 350.873 522.342 350.765 522.461C350.656 522.581 350.51 522.661 350.35 522.69C340.02 524.48 329.34 523.85 318.81 524ZM274.02 502.02C275.973 503.013 278.29 505.013 280.97 508.02C281.012 508.068 281.065 508.106 281.125 508.128C281.185 508.151 281.25 508.158 281.314 508.149C281.379 508.14 281.44 508.115 281.493 508.077C281.547 508.039 281.59 507.988 281.62 507.93L281.78 507.6C282.053 507.073 282.03 506.56 281.71 506.06C279.05 501.853 275.633 499.177 271.46 498.03C270.833 497.863 270.253 497.963 269.72 498.33C269.5 498.483 269.336 498.687 269.23 498.94C269.181 499.055 269.157 499.179 269.157 499.304C269.158 499.429 269.184 499.553 269.233 499.668C269.283 499.782 269.355 499.886 269.445 499.972C269.536 500.059 269.643 500.126 269.76 500.17C271.253 500.717 272.673 501.333 274.02 502.02Z" fill="black"/>
<path d="M152.764 637.63L152.683 637.57C152.075 637.12 151.217 637.248 150.767 637.857L148.15 641.394C147.7 642.002 147.828 642.86 148.436 643.31L148.517 643.369C149.125 643.819 149.983 643.691 150.433 643.083L153.05 639.546C153.5 638.938 153.372 638.08 152.764 637.63Z" fill="black"/>
<path d="M862.29 654.5C862.796 655.986 862.7 657.536 862 659.15C861.893 659.385 861.697 659.568 861.456 659.66C861.214 659.752 860.946 659.745 860.71 659.64C858.17 658.46 858.73 655.07 860.94 653.94C861.064 653.878 861.2 653.844 861.338 653.839C861.476 653.835 861.614 653.86 861.742 653.913C861.87 653.966 861.985 654.046 862.079 654.147C862.174 654.248 862.246 654.368 862.29 654.5Z" fill="black"/>
<path d="M872.491 665.849L872.311 665.85C871.615 665.853 871.053 666.419 871.055 667.114L871.064 669.694C871.067 670.39 871.633 670.952 872.329 670.95L872.509 670.949C873.204 670.947 873.767 670.381 873.764 669.685L873.755 667.105C873.753 666.409 873.187 665.847 872.491 665.849Z" fill="black"/>
<path d="M673.93 768.84C674.183 770.7 674.18 772.58 673.92 774.48C673.766 775.56 673.157 775.996 672.09 775.79C662.72 773.98 653.98 769.91 644.94 765.98C644.593 765.829 644.297 765.579 644.091 765.263C643.885 764.946 643.777 764.577 643.78 764.2C643.81 761.31 643.86 758.48 644.35 755.62C644.936 752.166 645.53 749.086 646.13 746.38C650.53 726.433 655.48 706.416 660.98 686.33C661.002 686.253 661.045 686.184 661.103 686.13C661.162 686.075 661.234 686.038 661.312 686.022C661.39 686.005 661.471 686.01 661.546 686.036C661.622 686.062 661.689 686.109 661.74 686.17C668.63 694.44 678.99 698.55 689.67 695.95C689.83 695.91 689.999 695.915 690.157 695.966C690.314 696.016 690.455 696.109 690.564 696.235C690.672 696.361 690.744 696.515 690.772 696.68C690.799 696.845 690.781 697.014 690.72 697.17C689.886 699.203 689.243 701.176 688.79 703.09C685.736 715.91 682.683 728.516 679.63 740.91C678.7 744.71 678.12 748.56 677.02 752.3C676.587 753.76 676.257 755.28 676.03 756.86C675.503 760.473 674.82 764.1 673.98 767.74C673.894 768.103 673.877 768.476 673.93 768.84ZM651.258 762.069C651.438 762.117 651.635 762.098 651.836 762.011C652.037 761.925 652.239 761.774 652.431 761.566C652.623 761.359 652.8 761.099 652.953 760.802C653.106 760.505 653.231 760.176 653.322 759.835C653.413 759.493 653.467 759.146 653.482 758.812C653.497 758.479 653.473 758.165 653.409 757.89C653.346 757.614 653.246 757.383 653.114 757.208C652.982 757.033 652.822 756.918 652.642 756.87C652.461 756.822 652.265 756.842 652.064 756.928C651.862 757.015 651.66 757.166 651.469 757.373C651.277 757.581 651.1 757.841 650.947 758.138C650.794 758.435 650.668 758.763 650.578 759.105C650.487 759.446 650.432 759.794 650.417 760.127C650.402 760.461 650.427 760.774 650.49 761.05C650.554 761.325 650.654 761.557 650.786 761.732C650.917 761.907 651.078 762.021 651.258 762.069Z" fill="black"/>
<path d="M594.278 693.289C593.413 696.12 593.576 698.68 594.643 699.006C595.71 699.332 597.276 697.301 598.142 694.471C599.007 691.64 598.844 689.08 597.777 688.754C596.71 688.428 595.144 690.458 594.278 693.289Z" fill="black"/>
<path d="M288.1 766.29C288.633 766.823 288.853 766.713 288.76 765.96C287.9 759.21 286.67 752.09 286.32 745.06C285.787 734.647 285.467 724.503 285.36 714.63C285.353 714.443 285.28 714.12 285.14 713.66C285.053 713.353 285.027 713.043 285.06 712.73L285.5 708.52C285.533 708.193 285.477 707.88 285.33 707.58C285.123 707.153 285.11 706.737 285.29 706.33C285.457 705.95 285.547 705.553 285.56 705.14C285.627 702.827 285.477 700.65 285.11 698.61C285.099 698.537 285.109 698.461 285.139 698.394C285.17 698.326 285.219 698.268 285.281 698.227C285.343 698.186 285.415 698.163 285.489 698.162C285.564 698.161 285.637 698.181 285.7 698.22C295.43 704.52 301.16 704.08 310.22 696.87C310.322 696.789 310.442 696.735 310.571 696.713C310.699 696.692 310.831 696.704 310.953 696.748C311.076 696.792 311.185 696.867 311.27 696.965C311.355 697.064 311.414 697.183 311.44 697.31C311.74 698.763 311.78 700.25 311.56 701.77C311.507 702.15 311.58 702.5 311.78 702.82C312.26 703.56 312.47 704.363 312.41 705.23C312.39 705.583 312.453 705.923 312.6 706.25C313.113 707.41 313.347 708.543 313.3 709.65C313.267 710.403 313.38 711.157 313.64 711.91C314.213 713.59 314.45 715.297 314.35 717.03C314.33 717.39 314.4 717.73 314.56 718.05C314.9 718.71 314.963 719.403 314.75 720.13C314.637 720.503 314.63 720.88 314.73 721.26C315.117 722.773 315.393 724.293 315.56 725.82C316.9 737.773 317.91 749.65 318.59 761.45C318.63 762.19 318.463 763.05 318.09 764.03C317.97 764.35 317.97 764.67 318.09 764.99C318.63 766.443 319.067 767.957 319.4 769.53C319.68 770.863 319.227 771.853 318.04 772.5C312.95 775.28 307.41 777.44 301.44 777.05C298.16 776.83 295.043 776.437 292.09 775.87C289.33 775.33 289.93 773 289.85 770.99C289.84 770.814 289.792 770.642 289.71 770.485C289.627 770.328 289.511 770.19 289.37 770.08C288.35 769.29 287.19 768.96 286.19 768.03C274.91 757.58 271.58 744.03 273.29 728.88C274.723 716.16 276.457 703.207 278.49 690.02C278.503 689.942 278.532 689.867 278.575 689.801C278.619 689.735 278.675 689.679 278.742 689.637C278.808 689.596 278.883 689.569 278.96 689.559C279.038 689.549 279.116 689.556 279.19 689.58L279.56 689.69C279.654 689.72 279.737 689.777 279.798 689.854C279.858 689.931 279.894 690.023 279.9 690.12C280.027 692.5 280 694.783 279.82 696.97C279.033 706.47 278.123 715.417 277.09 723.81C276.07 732.037 275.9 738.603 276.58 743.51C277.787 752.23 281.627 759.823 288.1 766.29ZM304.894 770.042C305.014 770.031 305.129 769.975 305.232 769.879C305.335 769.783 305.424 769.647 305.494 769.481C305.563 769.315 305.613 769.121 305.639 768.91C305.665 768.699 305.667 768.475 305.646 768.252C305.624 768.028 305.579 767.809 305.513 767.607C305.447 767.405 305.362 767.224 305.262 767.074C305.161 766.924 305.048 766.809 304.929 766.734C304.81 766.659 304.686 766.626 304.566 766.638C304.446 766.649 304.331 766.705 304.228 766.801C304.125 766.897 304.036 767.033 303.967 767.199C303.897 767.365 303.847 767.559 303.821 767.77C303.795 767.981 303.793 768.205 303.814 768.428C303.836 768.652 303.881 768.871 303.947 769.073C304.013 769.275 304.098 769.456 304.198 769.606C304.299 769.756 304.412 769.872 304.531 769.946C304.65 770.021 304.774 770.054 304.894 770.042Z" fill="black"/>
<path d="M345.68 854.98L345.93 855.74C344.963 858.74 342.86 861.39 339.62 863.69C339.013 863.843 338.146 864.02 337.02 864.22C333.42 864.853 330.01 865.333 326.79 865.66C323.076 866.026 315.706 866.026 304.68 865.66C302.9 865.6 301.143 865.373 299.41 864.98C297.636 864.58 295.95 864.156 294.35 863.71C292.603 862.39 291.04 861.183 289.66 860.09C288.646 859.29 288.026 858.093 287.8 856.5L287.36 854.94C286.753 851.986 286.756 848.943 287.37 845.81C287.56 844.84 287.38 843.94 287.46 842.96C288.746 827.086 290.146 810.926 291.66 794.48C291.766 793.32 291.73 792.156 291.55 790.99C291.31 789.43 291.74 788.13 291.4 786.55C290.773 783.57 290.363 780.593 290.17 777.62C290.165 777.56 290.174 777.499 290.197 777.443C290.22 777.388 290.256 777.338 290.302 777.299C290.348 777.26 290.403 777.233 290.461 777.219C290.52 777.205 290.581 777.205 290.64 777.22C299.12 779.34 307.08 780.64 314.86 776.13C316.39 775.24 317.69 774.07 319.02 772.96C319.44 772.613 319.7 772.706 319.8 773.24C321.273 781.033 322.3 788.033 322.88 794.24C323.02 795.793 322.9 799.38 322.52 805C321.446 820.753 320.333 835.563 319.18 849.43C319.178 849.466 319.184 849.502 319.198 849.536C319.211 849.57 319.231 849.6 319.257 849.625C319.283 849.65 319.313 849.668 319.346 849.68C319.38 849.691 319.415 849.694 319.45 849.69C326.383 848.763 333.123 848.5 339.67 848.9C341.78 849.02 343.25 850.45 344.22 852.23C344.753 853.19 345.24 854.106 345.68 854.98ZM338.28 856.26L338.32 854.56C338.322 854.472 338.308 854.385 338.276 854.303C338.245 854.222 338.198 854.147 338.137 854.084C338.077 854.02 338.004 853.97 337.924 853.935C337.844 853.9 337.757 853.881 337.67 853.88L335.94 853.85C334.35 853.816 332.823 853.89 331.693 854.055C330.563 854.22 329.922 854.463 329.91 854.73L329.89 855.73C329.884 855.863 330.034 855.998 330.332 856.127C330.63 856.256 331.07 856.377 331.626 856.483C332.183 856.589 332.845 856.678 333.575 856.744C334.305 856.811 335.088 856.853 335.88 856.87L337.61 856.9C337.783 856.902 337.951 856.837 338.076 856.717C338.201 856.597 338.275 856.433 338.28 856.26Z" fill="black"/>
<path d="M417.86 860.6C417.353 860.907 416.903 861.487 416.51 862.34C413.637 863.993 410.487 865.1 407.06 865.66C403.56 866.227 399.957 866.843 396.25 867.51C393.81 867.95 391.11 867.5 388.44 867.92C386.867 868.167 384.58 868.207 381.58 868.04C374.42 867.653 368.427 866.81 363.6 865.51L361.65 864.03C360.157 861.41 359.633 858.99 360.08 856.77C360.48 854.77 360.63 853.057 360.53 851.63C360.51 851.35 360.557 851.08 360.67 850.82C361.19 849.66 361.16 848.6 360.58 847.64C360.507 847.52 360.472 847.381 360.481 847.243C360.49 847.105 360.542 846.975 360.63 846.87L360.85 846.61C361.03 846.397 361.117 846.153 361.11 845.88L361 841.1C360.993 840.747 361.06 840.41 361.2 840.09C361.24 839.99 361.28 839.89 361.32 839.79C361.373 839.643 361.387 839.497 361.36 839.35C361.133 837.95 361.18 836.583 361.5 835.25C361.585 834.924 361.567 834.582 361.45 834.27C361.06 833.16 361.61 832.34 361.65 831.21C361.923 823.523 362.197 815.57 362.47 807.35C362.517 805.957 362.513 804.557 362.46 803.15C362.407 801.73 362.42 800.323 362.5 798.93C362.58 797.657 362.543 796.477 362.39 795.39C362.1 793.31 362.58 791.43 362.24 789.41C362.08 788.463 361.95 787.5 361.85 786.52C361.823 786.233 361.863 785.96 361.97 785.7C362.35 784.82 362.313 783.847 361.86 782.78C361.806 782.651 361.788 782.509 361.809 782.37C361.83 782.231 361.888 782.1 361.978 781.992C362.067 781.884 362.185 781.802 362.317 781.756C362.45 781.71 362.593 781.701 362.73 781.73C371.81 783.69 379.56 779.43 385.62 772.82C385.69 772.745 385.778 772.69 385.876 772.661C385.973 772.631 386.077 772.628 386.177 772.651C386.276 772.674 386.368 772.724 386.442 772.794C386.516 772.864 386.571 772.952 386.6 773.05C387.16 774.983 387.613 776.873 387.96 778.72C389.453 786.553 390.193 793.687 390.18 800.12C390.18 802.15 390.86 804.1 390.36 806.27C390.15 807.21 390.58 808.21 390.6 809.16C390.867 822.633 390.573 836.05 389.72 849.41C389.68 850.057 389.987 850.367 390.64 850.34C396.6 850.107 402.86 849.947 409.42 849.86C413.6 849.807 416.75 851.453 418.87 854.8C419.05 855.08 419.127 855.387 419.1 855.72C418.98 857.307 418.567 858.933 417.86 860.6ZM410.86 856.356C410.867 856.166 410.836 855.976 410.77 855.798C410.704 855.619 410.603 855.456 410.473 855.316C410.344 855.177 410.188 855.064 410.015 854.985C409.841 854.906 409.654 854.861 409.464 854.854L404.387 854.668C404.197 854.661 404.007 854.692 403.829 854.758C403.65 854.824 403.487 854.925 403.347 855.055C403.208 855.185 403.095 855.34 403.016 855.513C402.937 855.687 402.892 855.874 402.885 856.064L402.88 856.204C402.873 856.394 402.904 856.584 402.97 856.762C403.036 856.941 403.137 857.105 403.267 857.244C403.397 857.384 403.552 857.496 403.726 857.575C403.899 857.655 404.086 857.699 404.276 857.706L409.353 857.892C409.543 857.899 409.733 857.869 409.911 857.802C410.09 857.736 410.253 857.635 410.393 857.505C410.532 857.376 410.645 857.22 410.724 857.047C410.803 856.874 410.848 856.687 410.855 856.496L410.86 856.356Z" fill="black"/>
<path d="M451.74 854.999L451.18 855.899L420.87 855.599C420.65 855.599 420.543 855.489 420.55 855.269V855.009C420.55 854.963 420.573 854.939 420.62 854.939L451.74 854.999Z" fill="black"/>
<path d="M448.91 860.37C450.023 860.336 450.73 860.503 451.03 860.87C451.336 861.25 451.246 861.456 450.76 861.49C448.506 861.636 446.003 861.633 443.25 861.48C442.916 861.46 442.61 861.37 442.33 861.21C442.003 861.016 442.026 860.883 442.4 860.81C442.86 860.723 443.053 860.513 442.98 860.18L448.91 860.37Z" fill="black"/>
<path d="M450.19 869.54L451.19 869.88C451.877 870.113 451.87 870.327 451.17 870.52L450.27 870.77L443.99 870.87L441.88 870.45C441.427 870.357 441.427 870.26 441.88 870.16L443.31 869.84L450.19 869.54Z" fill="black"/>
</g>
<defs>
<clipPath id="clip0_93_1593">
<rect width="1024" height="1024" fill="none"/>
</clipPath>
</defs>
</svg>
