<svg width="1024" height="774" viewBox="0 83 1024 774" fill="none" xmlns="http://www.w3.org/2000/svg">
<g clip-path="url(#clip0_93_3110)">
<rect width="1024" height="1024" fill="none"/>
<path d="M746.2 254.09C758.3 255.46 767.36 247.52 770.57 235.92C770.89 234.767 771.643 234.1 772.83 233.92C773.763 233.787 774.577 234.617 775.27 236.41C775.453 236.873 775.494 237.381 775.39 237.87C772.52 251.63 760.86 261.42 746.61 259.58C744.803 259.353 743.653 258.453 743.16 256.88C742.987 256.327 743.123 255.763 743.57 255.19C744.243 254.33 745.12 253.963 746.2 254.09Z" fill="black"/>
<path d="M605.01 538.38C605.504 538.4 605.954 538.527 606.36 538.76C606.627 538.914 606.784 539.144 606.83 539.45C606.99 540.537 607.027 541.637 606.94 542.75C605.6 559.76 601.18 573.88 594.26 588.83C591.5 594.784 588.37 599.997 584.87 604.47C580.65 609.844 575.917 614.577 570.67 618.67C569.864 619.304 569.15 620.03 568.53 620.85C567.58 622.1 565.9 622.39 564.64 623.29C560.16 626.48 554.68 630.62 549.01 629.66C548.957 629.652 548.902 629.655 548.85 629.669C548.798 629.684 548.75 629.71 548.709 629.745C548.668 629.78 548.635 629.824 548.613 629.873C548.591 629.923 548.58 629.976 548.58 630.03L548.57 756.71C548.57 756.761 548.59 756.809 548.626 756.845C548.662 756.88 548.71 756.9 548.76 756.9C643.227 756.46 737.697 755.927 832.17 755.3C833.257 755.294 834.157 755.427 834.87 755.7C838.36 757.03 836.78 761.73 833 761.75C738.147 762.297 643.467 762.85 548.96 763.41C548.687 763.41 548.55 763.547 548.55 763.82L548.58 769.74C548.584 770.128 548.507 770.513 548.356 770.869C548.204 771.225 547.981 771.546 547.7 771.81C545.16 774.21 542.77 775.074 540.53 774.4C540.037 774.254 539.557 774.294 539.09 774.52C537.897 775.1 537.02 775.39 536.46 775.39C530.654 775.37 524.827 775.25 518.98 775.03C513.21 774.81 507.43 775.3 502.07 773.32C499.17 772.24 499.85 766.94 499.82 764.4C499.819 764.284 499.795 764.168 499.749 764.061C499.703 763.953 499.636 763.856 499.552 763.774C499.469 763.692 499.37 763.628 499.262 763.584C499.153 763.541 499.037 763.519 498.92 763.52L307.94 764.48C307.56 764.48 307.37 764.674 307.37 765.06L307.3 804.25C307.3 804.63 307.494 804.817 307.88 804.81C323.06 804.49 339.394 804.33 356.88 804.33C358.64 804.33 360.67 806.49 359.63 808.5C359.231 809.27 358.63 809.917 357.892 810.37C357.153 810.823 356.306 811.065 355.44 811.07C333.634 811.244 312.26 811.48 291.32 811.78C290.653 811.787 290.008 811.536 289.52 811.08C288.387 810.027 287.934 809.13 288.16 808.39C288.66 806.764 289.71 805.887 291.31 805.76C294.224 805.54 297.64 805.544 301.56 805.77C302.094 805.797 302.284 805.557 302.13 805.05C301.85 804.12 301.61 803.04 301.61 802.08C301.557 790.347 301.514 778.17 301.48 765.55C301.48 764.79 301.1 764.414 300.34 764.42C252.947 764.654 206.667 764.9 161.5 765.16C155.33 765.19 156.25 758.81 160.89 758.78C207.73 758.52 254.444 758.3 301.03 758.12C301.128 758.12 301.222 758.081 301.292 758.012C301.361 757.943 301.4 757.849 301.4 757.75L301.38 660.78C301.38 660.36 301.17 660.154 300.75 660.16C285.49 660.247 270.41 660.234 255.51 660.12C242.17 660.02 231.53 652.04 227.72 640.01C225.8 633.92 225.15 622.66 229.27 616.8C229.57 616.38 229.46 616.16 228.94 616.14C224.594 615.96 220.784 614.92 217.51 613.02C196.48 600.83 205.48 567.67 227.48 562.01C227.934 561.89 228.01 561.654 227.71 561.3C218.59 550.43 220.86 534.05 229.15 523.17C232.6 518.62 239.08 514.77 244.81 517.04C244.868 517.062 244.931 517.069 244.992 517.061C245.053 517.052 245.111 517.029 245.161 516.992C245.211 516.955 245.251 516.906 245.277 516.85C245.303 516.794 245.314 516.732 245.31 516.67C244.7 506.11 247.58 494.02 255.54 486.85C263.6 479.59 277.48 479.95 283.61 489.51C283.652 489.576 283.71 489.63 283.779 489.666C283.848 489.702 283.925 489.72 284.004 489.717C284.082 489.714 284.159 489.69 284.227 489.649C284.295 489.607 284.351 489.549 284.39 489.48C286.28 486.11 288.48 482.91 291.52 480.45C303.18 471.05 318.82 477.98 323.32 491.64C324.08 493.947 324.76 496.327 325.36 498.78C325.38 498.864 325.419 498.941 325.474 499.007C325.529 499.073 325.599 499.126 325.678 499.161C325.756 499.197 325.843 499.215 325.93 499.213C326.017 499.211 326.102 499.189 326.18 499.15C329.62 497.417 333.047 496.03 336.46 494.99C336.807 494.89 336.864 494.7 336.63 494.42C334.584 491.94 332.714 489.287 331.02 486.46C318.42 465.434 313.807 442.627 317.18 418.04C319.91 398.14 329.82 376.09 345.72 364.09C346.007 363.877 346.1 363.597 346 363.25C345 360.017 344.32 356.734 343.96 353.4C337.64 294.53 384.37 246.23 444.04 255.11C459.97 257.48 475.54 265.01 485.72 277.87C485.786 277.956 485.87 278.025 485.967 278.072C486.064 278.119 486.17 278.143 486.279 278.142C486.387 278.141 486.494 278.115 486.591 278.066C486.689 278.018 486.774 277.947 486.84 277.86C514.41 241.68 559.07 226.32 602.89 237.8C628.937 244.614 649.89 259.604 665.75 282.77C677.04 299.26 681.45 317.46 686.22 336.7C686.32 337.114 686.577 337.367 686.99 337.46C719.69 344.62 741.15 372.82 747.42 404.92C760.02 469.47 707.76 534.59 642.33 537.1C630.737 537.547 618.547 537.81 605.76 537.89C605.48 537.89 605.21 537.947 604.95 538.06C604.477 538.26 604.497 538.367 605.01 538.38ZM565.1 389.01C563.487 388.657 562.68 387.654 562.68 386C562.667 362.58 562.69 339.36 562.75 316.34C562.79 300.35 573.24 288.63 589.89 288.62C613.537 288.6 637.36 288.607 661.36 288.64C661.433 288.642 661.505 288.624 661.568 288.588C661.631 288.551 661.682 288.497 661.717 288.432C661.752 288.368 661.769 288.294 661.766 288.22C661.763 288.145 661.74 288.073 661.7 288.01C644.9 262.79 622.02 247.514 593.06 242.18C552.22 234.65 513.69 251.38 489.6 284.54C487.49 287.45 484.82 287.15 482.82 284.35C472.14 269.44 454.28 261.98 436.26 260.69C384.59 257.01 344.98 300.06 349.72 351.02C350.14 355.51 351.4 359.84 352.52 364.15C352.92 365.67 352.487 366.894 351.22 367.82C334.77 379.86 324.97 401.65 322.89 421.75C320.05 449.144 326.91 472.994 343.47 493.3C361.57 515.49 388.44 529.18 416.13 530.34C422.317 530.6 429.104 530.757 436.49 530.81C488.91 531.23 540.83 531.457 592.25 531.49C605.944 531.504 619.444 531.437 632.75 531.29C640.41 531.21 647.46 530.674 653.9 529.68C683.99 525.07 711.65 503.74 727.15 478.69C748.24 444.62 749.57 401.53 725.01 369.41C714.324 355.424 700.66 346.77 684.02 343.45C682.007 343.044 680.794 341.864 680.38 339.91C677.14 324.61 673.23 309.68 666.13 295.85C665.971 295.537 665.728 295.273 665.428 295.088C665.129 294.903 664.783 294.804 664.43 294.8C636.357 294.66 610.564 294.637 587.05 294.73C576.44 294.78 568.68 305.04 568.67 315.09C568.65 338.81 568.71 362.317 568.85 385.61C568.864 387.597 567.887 388.74 565.92 389.04C565.647 389.08 565.374 389.07 565.1 389.01ZM388.83 601.5C393.66 596.63 399.66 592.66 400.19 585.23C400.93 574.99 388.62 569.86 380.53 569.05C376.87 568.68 375.18 565.79 378.03 562.91C380.47 560.444 382.597 558.044 384.41 555.71C389.06 549.73 391.95 540.81 388.7 533.68C388.054 532.26 386.96 531.257 385.42 530.67C368.37 524.18 353.73 514.39 341.38 500.58C341.16 500.334 340.9 500.27 340.6 500.39C334.767 502.65 329.15 505.224 323.75 508.11C321.57 509.27 319.75 507.79 319.62 505.52C319.04 494.97 313.86 481.15 300.25 483.78C294.46 484.9 290.38 490.9 287.7 495.9C287.107 496.994 286.337 497.867 285.39 498.52C285.07 498.741 284.707 498.892 284.325 498.966C283.943 499.039 283.55 499.033 283.17 498.948C282.79 498.863 282.432 498.7 282.117 498.47C281.802 498.239 281.538 497.947 281.34 497.61C278.45 492.69 275.52 488.97 269.14 488.9C255.12 488.75 249.89 504.32 250.97 515.88C251.18 518.11 253.09 522.27 251.6 524.11C249.7 526.44 246.48 524.5 244.21 523.99C234.63 521.83 229.38 532.27 227.86 540.08C226.31 548.1 229.25 554.38 234.49 560.13C237.73 563.7 237.11 566.99 232.19 568.23C229.35 568.94 226.38 569.54 223.84 571C209.45 579.22 204.47 603.41 224.03 609.81C226.897 610.75 229.957 611.584 233.21 612.31C235.05 612.72 236.1 614.39 235.37 616.18C232.77 622.53 231.45 629.57 233.12 636.12C235.6 645.9 243.63 652.13 253.68 653.09C256.754 653.384 259.997 653.517 263.41 653.49C275.73 653.39 288.274 653.387 301.04 653.48C301.247 653.48 301.347 653.377 301.34 653.17L301.31 614.76C301.31 614.354 301.107 614.104 300.7 614.01C291 611.744 281.957 608.17 273.57 603.29C273.204 603.077 272.814 603.02 272.4 603.12C261.38 605.8 258.51 589.09 269.26 587.63C275.4 586.8 281.16 594.69 276.58 599.71C276.524 599.772 276.482 599.845 276.458 599.924C276.435 600.004 276.429 600.088 276.443 600.169C276.456 600.25 276.488 600.327 276.536 600.393C276.585 600.459 276.648 600.513 276.72 600.55C284.42 604.584 292.534 607.707 301.06 609.92C301.103 609.933 301.149 609.935 301.193 609.926C301.237 609.917 301.278 609.898 301.314 609.87C301.35 609.842 301.379 609.805 301.399 609.764C301.419 609.722 301.43 609.677 301.43 609.63L301.37 579.75C301.37 579.37 301.184 579.184 300.81 579.19C284.07 579.32 266.45 572.71 253.72 563.11C253.4 562.87 253.06 562.844 252.7 563.03C249.6 564.624 246.757 564.677 244.17 563.19C240.75 561.23 239.29 556.26 241.08 552.76C245.59 543.96 258.69 549.09 255.61 558.54C255.464 558.974 255.577 559.327 255.95 559.6C265.277 566.4 275.527 571.06 286.7 573.58C286.782 573.597 286.868 573.59 286.946 573.56C287.024 573.53 287.092 573.479 287.141 573.412C287.19 573.345 287.218 573.265 287.221 573.183C287.224 573.101 287.203 573.02 287.16 572.95C282.767 565.71 278.87 558.22 275.47 550.48C275.336 550.178 275.135 549.909 274.883 549.694C274.63 549.48 274.332 549.324 274.01 549.24C261.76 546.06 268.95 528.63 279.9 534.21C283.307 535.95 284.92 538.667 284.74 542.36C284.567 545.84 282.847 547.73 279.58 548.03C279.506 548.037 279.435 548.062 279.373 548.103C279.31 548.143 279.259 548.199 279.222 548.263C279.186 548.328 279.166 548.401 279.164 548.475C279.162 548.55 279.178 548.624 279.21 548.69C283.37 557.124 287.877 565.59 292.73 574.09C292.99 574.537 293.377 574.777 293.89 574.81L300.69 575.27C300.789 575.277 300.889 575.264 300.983 575.231C301.076 575.198 301.162 575.146 301.235 575.079C301.308 575.011 301.367 574.93 301.407 574.839C301.448 574.748 301.469 574.65 301.47 574.55L301.73 538.34C301.737 537.93 301.618 537.529 301.39 537.19C299.17 533.82 297.3 531.55 299.01 527.2C301.79 520.13 312.07 520.13 314.99 526.99C317.07 531.9 314.25 538.02 309.09 539.14C308.744 539.214 308.57 539.427 308.57 539.78L308.39 563.96C308.391 564.047 308.411 564.132 308.451 564.209C308.49 564.286 308.547 564.352 308.617 564.402C308.686 564.452 308.766 564.484 308.851 564.496C308.935 564.508 309.02 564.499 309.1 564.47C315.294 562.337 320.907 559.287 325.94 555.32C326.005 555.27 326.049 555.197 326.062 555.117C326.075 555.037 326.056 554.956 326.01 554.89C324.124 552.13 324.03 549.377 325.73 546.63C330.07 539.64 341.45 543.79 339.34 552.02C338.414 555.667 335.897 557.677 331.79 558.05C330.91 558.13 330.02 557.69 329.15 557.7C329.025 557.703 328.901 557.733 328.787 557.789C328.674 557.844 328.572 557.923 328.49 558.02C327.85 558.814 327.124 559.514 326.31 560.12C321.164 563.954 315.35 566.777 308.87 568.59C308.444 568.71 308.227 568.994 308.22 569.44L308.03 589.2C308.03 589.6 308.227 589.79 308.62 589.77C324.43 588.98 337.57 582.27 349.36 571.8C352.247 569.234 355.23 566.51 358.31 563.63C358.584 563.37 358.63 563.074 358.45 562.74C353.41 553.48 368.75 546.88 372.46 557.02C373.154 558.934 373.014 560.81 372.04 562.65C369.607 567.25 366.117 568.62 361.57 566.76C361.237 566.62 360.95 566.684 360.71 566.95C346.6 582.31 329.79 593.13 308.42 593.78C307.994 593.794 307.78 594.014 307.78 594.44L307.65 608.98C307.65 609.137 307.711 609.287 307.82 609.398C307.929 609.508 308.076 609.57 308.23 609.57L342.93 609.63C343.153 609.633 343.371 609.567 343.555 609.442C343.739 609.317 343.881 609.138 343.96 608.93C345.33 605.45 349.78 604.21 353.14 604.45C362.57 605.14 363.42 618.49 354.09 620.39C350.604 621.097 347.81 620.157 345.71 617.57C345.117 616.837 344.327 616.487 343.34 616.52C333.014 616.84 322.537 616.847 311.91 616.54C311.484 616.527 311.42 616.67 311.72 616.97L318.51 623.84C319.217 624.554 320.03 624.7 320.95 624.28C325.697 622.107 329.347 622.827 331.9 626.44C337.48 634.35 328.86 644.04 320.41 639.92C317.157 638.34 315.734 635.477 316.14 631.33C316.23 630.41 316.83 629.68 316.93 628.81C316.955 628.593 316.93 628.372 316.858 628.166C316.785 627.96 316.666 627.773 316.51 627.62L308.07 619.4C308.036 619.366 307.992 619.343 307.945 619.333C307.897 619.324 307.848 619.329 307.802 619.348C307.757 619.367 307.717 619.399 307.688 619.441C307.66 619.482 307.643 619.53 307.64 619.58C307.394 630.94 307.35 642.084 307.51 653.01C307.517 653.39 307.707 653.577 308.08 653.57C322.414 653.47 336.64 653.447 350.76 653.5C355.134 653.514 358.29 653.1 360.23 652.26C364.49 650.42 367.297 647.34 368.65 643.02C369.61 639.98 367.76 631.58 373.93 632.97C389.02 636.38 403.41 621.8 391.46 607.5C390.56 606.427 389.654 605.377 388.74 604.35C388.391 603.951 388.205 603.434 388.222 602.905C388.239 602.376 388.456 601.873 388.83 601.5ZM445.6 561.65L442.7 538.48C442.647 538.027 442.39 537.8 441.93 537.8C426.2 537.71 411.82 538.13 396.03 533.95C395.59 533.837 395.43 534 395.55 534.44C398.34 545 393.72 555.69 386.08 563.07C385.996 563.151 385.936 563.253 385.905 563.366C385.874 563.478 385.874 563.597 385.904 563.709C385.935 563.822 385.995 563.924 386.079 564.005C386.163 564.086 386.267 564.143 386.38 564.17C398.22 566.93 409.38 577.25 405.09 590.15C403.244 595.71 399.907 599.934 395.08 602.82C394.774 603.007 394.75 603.227 395.01 603.48C398.677 607.054 400.76 611.154 401.26 615.78C403.05 632.22 390.3 640.32 375.43 640.14C375.07 640.134 374.874 640.31 374.84 640.67C373.86 651.24 365.27 660.15 354.12 660.19C338.694 660.237 323.257 660.244 307.81 660.21C307.624 660.21 307.53 660.304 307.53 660.49L307.51 757.72C307.51 757.84 307.559 757.954 307.645 758.039C307.731 758.123 307.848 758.17 307.97 758.17L499.24 757.15C499.344 757.15 499.443 757.109 499.516 757.036C499.589 756.963 499.63 756.864 499.63 756.76L499.6 629.74C499.6 628.834 499.17 628.234 498.31 627.94C491.897 625.8 485.544 622.57 479.25 618.25C471.744 613.104 465.69 606.614 461.09 598.78C458.2 593.87 455.15 588.62 453.12 583.37C450.754 577.23 448.667 570.884 446.86 564.33C446.654 563.57 446.324 562.897 445.87 562.31C445.726 562.121 445.633 561.893 445.6 561.65ZM498.93 537.99L483.02 537.93C482.6 537.924 482.394 538.13 482.4 538.55C482.547 547.07 483.347 554.81 484.8 561.77C486.87 571.65 489.22 578.79 498.83 583.21C498.909 583.247 498.996 583.263 499.083 583.257C499.169 583.25 499.254 583.222 499.327 583.174C499.401 583.127 499.462 583.061 499.504 582.984C499.546 582.906 499.569 582.819 499.57 582.73L499.52 538.58C499.52 538.187 499.324 537.99 498.93 537.99ZM548.75 538.02C548.692 538.02 548.636 538.044 548.595 538.085C548.553 538.126 548.53 538.182 548.53 538.24L548.54 583.24C548.541 583.278 548.553 583.316 548.573 583.348C548.593 583.381 548.621 583.407 548.654 583.424C548.687 583.442 548.723 583.45 548.76 583.447C548.796 583.445 548.831 583.432 548.86 583.41C551.367 581.644 553.53 579.627 555.35 577.36C556.704 575.667 557.98 572.987 559.18 569.32C561.62 561.874 563.124 556.25 563.69 552.45C564.384 547.817 564.897 543.144 565.23 538.43C565.233 538.398 565.229 538.366 565.219 538.335C565.209 538.304 565.192 538.276 565.171 538.251C565.149 538.227 565.123 538.207 565.094 538.193C565.064 538.179 565.033 538.172 565 538.17L548.75 538.02ZM603.14 538.1C602.96 538.047 602.777 538.067 602.59 538.16C602.384 538.254 602.39 538.327 602.61 538.38C603.077 538.494 603.564 538.49 604.07 538.37C604.324 538.317 604.327 538.247 604.08 538.16C603.8 538.067 603.53 538.05 603.27 538.11C603.23 538.117 603.187 538.114 603.14 538.1ZM528.68 668.06C528.507 668.347 528.454 668.65 528.52 668.97C528.94 671.17 528.29 673.18 528.34 675.44C528.48 681.7 528.44 687.964 528.22 694.23C528.17 695.65 528.63 697.02 528.44 698.32C528.307 699.287 528.244 700.247 528.25 701.2C528.277 703.767 528.337 706.24 528.43 708.62C528.48 709.94 527.73 710.78 528.38 712.03C528.56 712.37 528.654 712.73 528.66 713.11C528.827 722.957 529.3 732.977 530.08 743.17C530.107 743.464 530.194 743.744 530.34 744.01C530.6 744.484 530.724 744.45 530.71 743.91C530.62 740.5 531.62 737.1 531.84 733.57C532.054 730.17 532.284 726.89 532.53 723.73C533.524 710.917 533.967 697.324 533.86 682.95C533.847 681.457 533.89 679.987 533.99 678.54C534.09 677.047 534.104 675.56 534.03 674.08C533.864 670.68 533.78 668.954 533.78 668.9C533.26 640.02 533.07 611.14 533.21 582.26C533.22 580.83 532.84 579.63 532.94 578.24C533.007 577.254 533.02 576.257 532.98 575.25C532.614 566.777 532.187 558.637 531.7 550.83C531.694 550.697 531.627 550.604 531.5 550.55C531.407 550.51 531.3 550.54 531.18 550.64C531.094 550.714 531.044 550.807 531.03 550.92C529.77 561.647 528.914 571.504 528.46 580.49C527.92 591.377 527.71 603.934 527.83 618.16C527.84 618.82 527.56 619.32 527.57 620.01C527.87 634.89 528.184 650.097 528.51 665.63C528.517 665.904 528.58 666.164 528.7 666.41C528.95 666.97 529 667.52 528.68 668.06Z" fill="black"/>
<path d="M515.76 320.18C516.027 321.953 515.817 323.623 515.13 325.19C515.055 325.36 514.946 325.513 514.81 325.64C514.675 325.767 514.515 325.865 514.34 325.928C514.165 325.992 513.98 326.019 513.794 326.009C513.609 325.999 513.427 325.952 513.26 325.87C511.96 325.237 511.54 323.89 512 321.83C512.086 321.448 512.029 321.047 511.839 320.704C511.649 320.361 511.34 320.1 510.97 319.97C504.94 317.87 504.18 310.22 509.74 306.83C510.058 306.638 510.296 306.339 510.411 305.987C510.527 305.635 510.512 305.253 510.37 304.91C508.517 300.45 505.557 298.953 501.49 300.42C495.09 302.72 495.56 318.8 495.23 324.29C495.19 324.95 494.84 325.273 494.18 325.26L490.92 325.19C490.127 325.17 489.76 324.767 489.82 323.98C490.227 318.747 490.674 313.753 491.16 309C491.9 301.69 495.43 294.29 503.94 294.29C509.52 294.3 513.88 297.63 515.14 303.11C515.354 304.043 515.59 304.97 515.85 305.89C515.95 306.243 516.177 306.477 516.53 306.59C523.14 308.72 522.67 318.08 516.25 319.48C515.87 319.56 515.707 319.793 515.76 320.18Z" fill="black"/>
<path d="M441.9 318.06C439.84 304 426.95 297.91 414.39 303.72C414.2 303.807 413.993 303.85 413.783 303.845C413.573 303.839 413.367 303.787 413.18 303.69C411.88 303.01 411.5 301.99 412.04 300.63C413.45 297.1 421.73 296.3 424.77 296.42C436.28 296.89 444.65 304.9 446.74 316.23C447.16 318.51 447.49 322.94 444.48 323.66C444.177 323.733 443.86 323.734 443.556 323.662C443.253 323.59 442.97 323.447 442.732 323.246C442.493 323.044 442.305 322.789 442.183 322.502C442.062 322.214 442.009 321.902 442.03 321.59C442.11 320.39 442.067 319.214 441.9 318.06Z" fill="black"/>
<path d="M408.72 310.51C401.18 305.517 392.474 304.624 382.6 307.83C382.006 308.021 381.361 307.97 380.804 307.69C380.246 307.409 379.821 306.921 379.62 306.33L379.47 305.9C379.077 304.734 379.437 303.88 380.55 303.34C385.344 301.027 390.36 300.03 395.6 300.35C407.927 301.09 416.78 306.45 422.16 316.43C424.927 321.564 425.707 327.074 424.5 332.96C424.393 333.487 424.109 333.961 423.695 334.305C423.28 334.649 422.76 334.841 422.22 334.85C421.76 334.857 421.314 334.804 420.88 334.69C419.44 334.317 418.79 333.39 418.93 331.91C419.81 322.744 416.407 315.61 408.72 310.51Z" fill="black"/>
<path d="M630.73 314.68C626.98 307.23 619.13 305.31 611.72 309.14C604.5 312.88 601.077 318.793 601.45 326.88C601.517 328.4 600.807 329.33 599.32 329.67C598.56 329.843 597.82 329.297 597.1 328.03C596.916 327.714 596.803 327.359 596.77 326.99C595.62 314.95 603.93 304.5 615.68 302.58C624.487 301.133 631.027 304.267 635.3 311.98C636.154 313.52 635.79 314.683 634.21 315.47L633.76 315.69C632.414 316.357 631.404 316.02 630.73 314.68Z" fill="black"/>
<path d="M626.37 327.93C624.18 330.33 623.84 334.47 623.78 337.68C623.754 338.967 623.1 339.677 621.82 339.81C621.587 339.837 621.354 339.817 621.12 339.75C619.627 339.337 618.844 338.357 618.77 336.81C618.45 330.424 620.73 325.38 625.61 321.68C632.277 316.62 639.827 315.517 648.26 318.37C649.594 318.824 650.744 319.54 651.71 320.52C653.18 322.02 652.33 323.98 650.52 324.54C650.167 324.654 649.817 324.64 649.47 324.5C647.25 323.61 645.07 322.57 642.67 322.22C636.157 321.26 630.724 323.164 626.37 327.93Z" fill="black"/>
<path d="M401.24 331.05C395.77 324.45 389.98 320.91 381.18 324.35C380.602 324.577 379.959 324.578 379.379 324.354C378.8 324.13 378.325 323.697 378.05 323.14C377.777 322.593 377.834 322.053 378.22 321.52C378.62 320.966 379.107 320.53 379.68 320.21C388.71 315.23 399.43 319.76 404.85 327.96C405.677 329.213 405.477 330.273 404.25 331.14L403.87 331.4C402.89 332.1 402.013 331.983 401.24 331.05Z" fill="black"/>
<path d="M499.44 337.32C496.1 337.35 493.09 334.08 489.67 336.04C487.497 337.287 486.754 336.7 487.44 334.28C487.907 332.627 487.724 331.16 486.89 329.88C486.773 329.701 486.706 329.494 486.698 329.28C486.69 329.067 486.74 328.855 486.844 328.667C486.948 328.479 487.101 328.322 487.287 328.214C487.473 328.105 487.685 328.048 487.9 328.05L498.71 328.15C499.058 328.152 499.399 328.251 499.695 328.436C499.99 328.621 500.228 328.884 500.383 329.196C500.537 329.508 500.602 329.857 500.57 330.204C500.537 330.55 500.41 330.881 500.2 331.16C498.874 332.927 498.784 334.673 499.93 336.4C499.99 336.489 500.025 336.592 500.03 336.699C500.036 336.806 500.012 336.913 499.962 337.007C499.912 337.102 499.836 337.181 499.744 337.236C499.653 337.291 499.547 337.32 499.44 337.32Z" fill="black"/>
<path d="M806.35 339.24C810.77 343.03 815.09 342.75 821.31 342.02C821.492 341.998 821.678 342.016 821.854 342.073C822.03 342.13 822.192 342.225 822.33 342.351C823.077 343.031 823.577 343.857 823.83 344.83C823.889 345.054 823.894 345.288 823.846 345.514C823.797 345.74 823.696 345.951 823.55 346.131C822.704 347.197 821.574 347.867 820.16 348.141C813.65 349.381 804.59 347.58 801.21 341.27C800.27 339.51 801.06 337.62 803.01 337.11C803.384 337.017 803.724 337.09 804.03 337.33C804.817 337.95 805.59 338.587 806.35 339.24Z" fill="black"/>
<path d="M646.06 343.56C641.773 343.48 637.99 344.797 634.71 347.51C633.41 348.6 631.57 349.37 630.18 347.87C629.812 347.474 629.597 346.96 629.573 346.419C629.549 345.879 629.718 345.348 630.05 344.92C633.87 340.04 644.9 336.47 650.52 339.1C650.926 339.288 651.261 339.602 651.474 339.997C651.686 340.392 651.766 340.846 651.7 341.29C651.24 344.3 648.18 343.61 646.06 343.56Z" fill="black"/>
<path d="M465.69 467.62L467.08 493.17C467.2 495.41 466.15 496.68 463.93 496.98C463.504 497.034 463.097 497.03 462.71 496.97C461.07 496.697 460.194 495.727 460.08 494.06C459.474 485.38 459.234 476.56 459.36 467.6C459.362 467.549 459.352 467.497 459.333 467.449C459.314 467.401 459.286 467.358 459.249 467.321C459.213 467.285 459.169 467.256 459.121 467.237C459.073 467.218 459.022 467.209 458.97 467.21C455.637 467.304 452.31 467.367 448.99 467.4C445.17 467.434 442.367 467.14 440.58 466.52C433.41 464.02 428.7 457.56 428.69 449.89C428.664 433.55 428.65 417.03 428.65 400.33C428.65 400.182 428.593 400.04 428.49 399.934C428.388 399.828 428.248 399.765 428.1 399.76C421.354 399.5 414.287 399.567 406.9 399.96C406.471 399.985 406.056 400.129 405.703 400.376C405.35 400.623 405.072 400.964 404.9 401.36L400.11 412.6C399.37 414.334 398.164 414.764 396.49 413.89C396.224 413.75 395.994 413.56 395.8 413.32C394.82 412.114 394.574 410.774 395.06 409.3L398.91 397.66C399.05 397.24 398.98 396.86 398.7 396.52C397 394.41 392 387.17 394.96 384.63C395.8 383.904 396.674 383.72 397.58 384.08C397.821 384.171 398.03 384.335 398.18 384.55C399.53 386.47 400.21 389.06 401.85 390.66C404.037 392.78 406.714 393.87 409.88 393.93C415.814 394.03 421.754 394.047 427.7 393.98C428.36 393.967 428.69 393.63 428.69 392.97C428.65 381.164 428.664 369.707 428.73 358.6C428.77 351.5 434.27 344.53 441.1 342.32C443.514 341.54 446.487 341.157 450.02 341.17C479.03 341.28 507.43 341.19 536 340.74C538.02 340.707 540.37 341.1 543.05 341.92C551.47 344.48 553.12 351.08 553.04 359.59C552.947 370.964 552.937 381.12 553.01 390.06C553.05 393.77 551.19 395.28 547.64 397.57C547.334 397.764 546.997 397.837 546.63 397.79L545.47 397.62C545.024 397.554 544.8 397.75 544.8 398.21L544.81 418.54C544.81 418.94 545.004 419.187 545.39 419.28C548.91 420.14 553.15 421.65 553.1 426.05C553.007 434.524 552.96 443.16 552.96 451.96C552.96 459.22 547.91 465.58 540.77 466.72C538.417 467.1 535.69 467.284 532.59 467.27C528.27 467.25 523.787 467.3 519.14 467.42C519.007 467.427 518.94 467.497 518.94 467.63C518.84 475.77 519.324 483.44 520.39 490.64C520.98 494.67 517.55 499.93 513.39 495.62C513.15 495.367 513.01 495.064 512.97 494.71C512.697 492.29 512.524 489.97 512.45 487.75C512.264 482.29 512.134 475.654 512.06 467.84C512.054 467.46 511.864 467.274 511.49 467.28C495.977 467.427 480.864 467.377 466.15 467.13C465.824 467.13 465.67 467.294 465.69 467.62ZM532.16 359.24C532.16 356.506 531.074 353.883 529.14 351.95C527.207 350.016 524.585 348.93 521.85 348.93H446.05C443.316 348.93 440.693 350.016 438.76 351.95C436.826 353.883 435.74 356.506 435.74 359.24V450.14C435.74 452.875 436.826 455.497 438.76 457.431C440.693 459.364 443.316 460.45 446.05 460.45H521.85C524.585 460.45 527.207 459.364 529.14 457.431C531.074 455.497 532.16 452.875 532.16 450.14V359.24Z" fill="black"/>
<path d="M285.83 358C257.49 371.54 239.46 399.97 244.97 431.47C246.597 440.744 250.874 449.307 257.8 457.16C258.88 458.38 258.81 459.534 257.59 460.62L257.02 461.13C255.84 462.184 254.72 462.124 253.66 460.95C243.727 449.917 238.637 436.844 238.39 421.73C237.85 388.47 260.82 359.99 292.03 349.76C294.18 349.05 297.7 348.01 298.3 351.48C298.383 351.957 298.298 352.448 298.062 352.871C297.825 353.293 297.45 353.621 297 353.8C293.26 355.28 289.45 356.27 285.83 358Z" fill="black"/>
<path d="M609.45 359.82C607.43 359.04 605.54 359.23 603.51 358.96C601.697 358.714 601.12 357.737 601.78 356.03C601.82 355.917 601.877 355.807 601.95 355.7C602.877 354.314 604.234 353.694 606.02 353.84C616.94 354.75 624.37 363.15 626.07 373.64C626.317 375.167 625.75 376.277 624.37 376.97C623.917 377.197 623.447 377.284 622.96 377.23C622.64 377.196 622.339 377.064 622.096 376.853C621.853 376.642 621.68 376.362 621.6 376.05C619.79 368.91 616.58 362.57 609.45 359.82Z" fill="black"/>
<path d="M453.79 423.95C453.79 427.92 455.84 428.76 459.32 429.19C459.504 429.211 459.68 429.278 459.83 429.382C459.98 429.487 460.101 429.627 460.18 429.79C460.714 430.883 460.82 432.13 460.5 433.53C460.42 433.87 460.207 434.073 459.86 434.14C448.38 436.15 447.06 428.93 447.09 419.86C447.14 403.17 447.28 386.59 447.22 370.99C447.22 369.817 447.634 368.877 448.46 368.17C449.22 367.517 449.887 367.593 450.46 368.4C450.574 368.56 450.697 368.707 450.83 368.84L452.79 370.84C453.05 371.107 453.184 371.423 453.19 371.79C453.624 390.663 453.824 408.05 453.79 423.95Z" fill="black"/>
<path d="M515.31 370.271H514.83C513.538 370.271 512.49 371.318 512.49 372.611V377.731C512.49 379.023 513.538 380.071 514.83 380.071H515.31C516.603 380.071 517.65 379.023 517.65 377.731V372.611C517.65 371.318 516.603 370.271 515.31 370.271Z" fill="black"/>
<path d="M473.744 370.519L473.124 370.522C471.838 370.529 470.8 371.577 470.807 372.864L470.834 378.084C470.841 379.371 471.889 380.409 473.176 380.402L473.796 380.399C475.083 380.392 476.121 379.343 476.114 378.056L476.087 372.837C476.08 371.55 475.031 370.512 473.744 370.519Z" fill="black"/>
<path d="M495.079 389.876L494.079 389.885C492.908 389.895 491.967 390.852 491.977 392.023L492.024 397.303C492.034 398.474 492.991 399.415 494.162 399.404L495.162 399.396C496.333 399.386 497.274 398.428 497.263 397.257L497.217 391.978C497.207 390.807 496.25 389.866 495.079 389.876Z" fill="black"/>
<path d="M514.78 389.68H514.18C512.899 389.68 511.86 390.718 511.86 392V397.32C511.86 398.601 512.899 399.64 514.18 399.64H514.78C516.062 399.64 517.1 398.601 517.1 397.32V392C517.1 390.718 516.062 389.68 514.78 389.68Z" fill="black"/>
<path d="M655.98 413.19C658.287 415.683 660.39 418.256 662.29 420.91C663.084 422.016 663.037 423.09 662.15 424.13C662.017 424.29 661.864 424.43 661.69 424.55C660.204 425.63 658.847 425.483 657.62 424.11L633.64 397.2C633.423 396.957 633.131 396.793 632.811 396.735C632.49 396.677 632.159 396.728 631.87 396.88L604.02 411.38C603.403 411.701 602.72 411.866 602.03 411.86C590.237 411.78 577.95 411.713 565.17 411.66C563.224 411.653 562.234 410.746 562.2 408.94C562.2 408.846 562.19 408.763 562.17 408.69C561.67 406.956 562.33 406.073 564.15 406.04C575.43 405.866 586.6 405.793 597.66 405.82C599.007 405.826 600.277 405.51 601.47 404.87C610.97 399.743 620.177 395.033 629.09 390.74C633.67 388.53 635.84 390.35 638.83 393.6C643.237 398.4 647.307 403.04 651.04 407.52C651.134 407.633 651.267 407.708 651.413 407.73C651.558 407.753 651.707 407.72 651.83 407.64C655.844 405.093 660.214 402.573 664.94 400.08C668.46 398.22 672.49 395.75 675.91 399.67C682.604 407.343 689.464 415.5 696.49 424.14C697.717 425.646 697.687 427.126 696.4 428.58C696.254 428.746 696.084 428.876 695.89 428.97C695.271 429.255 694.57 429.324 693.894 429.167C693.217 429.01 692.602 428.635 692.14 428.1C685.474 420.373 678.75 412.52 671.97 404.54C671.57 404.066 671.11 404 670.59 404.34C665.864 407.44 661.057 410.086 656.17 412.28C655.684 412.5 655.62 412.803 655.98 413.19Z" fill="black"/>
<path d="M473.863 390.469L472.923 390.472C471.708 390.476 470.727 391.464 470.731 392.679L470.749 397.979C470.754 399.194 471.742 400.176 472.957 400.172L473.897 400.168C475.112 400.164 476.094 399.176 476.089 397.961L476.071 392.661C476.067 391.446 475.078 390.464 473.863 390.469Z" fill="black"/>
<path d="M553.11 414.3C553.284 414.086 553.384 413.866 553.41 413.64C553.544 412.633 553.454 412.613 553.14 413.58C553.067 413.806 553.057 414.046 553.11 414.3L552.58 414.84C552.508 414.913 552.417 414.965 552.317 414.989C552.217 415.014 552.112 415.011 552.014 414.98C551.916 414.949 551.828 414.891 551.76 414.814C551.693 414.736 551.648 414.641 551.63 414.54L551.18 411.96C550.92 410.48 550.614 410.47 550.26 411.93C550.047 412.803 549.93 413.763 549.91 414.81C549.91 414.859 549.9 414.907 549.881 414.952C549.862 414.997 549.834 415.038 549.798 415.072C549.762 415.105 549.72 415.131 549.674 415.148C549.628 415.165 549.579 415.173 549.53 415.17L549.22 415.16C548.58 415.133 548.24 414.8 548.2 414.16C548 410.85 546.96 402.4 549.38 399.56C552.22 396.24 559.64 394.5 559.57 401.3C559.51 406.36 559.677 411.523 560.07 416.79C560.084 416.951 560.065 417.114 560.015 417.268C559.964 417.421 559.884 417.564 559.777 417.686C559.671 417.808 559.541 417.908 559.396 417.979C559.25 418.05 559.092 418.091 558.93 418.1L558.51 418.12C557.71 418.166 557.234 417.793 557.08 417L556.15 412.04C556.117 411.86 556.01 411.796 555.83 411.85L555.52 411.96C555.441 411.985 555.372 412.037 555.327 412.108C555.281 412.179 555.261 412.265 555.27 412.35C555.424 413.716 555.18 414.873 554.54 415.82C554.459 415.941 554.349 416.041 554.22 416.11C554.091 416.179 553.947 416.215 553.8 416.215C553.654 416.215 553.51 416.179 553.381 416.11C553.252 416.041 553.142 415.941 553.06 415.82C552.654 415.22 552.67 414.713 553.11 414.3Z" fill="black"/>
<path d="M514.96 408.55H514C512.818 408.55 511.86 409.508 511.86 410.69V416.25C511.86 417.432 512.818 418.39 514 418.39H514.96C516.142 418.39 517.1 417.432 517.1 416.25V410.69C517.1 409.508 516.142 408.55 514.96 408.55Z" fill="black"/>
<path d="M495.064 408.754L494.044 408.768C492.868 408.785 491.928 409.751 491.944 410.928L492.017 416.127C492.033 417.303 493 418.244 494.176 418.227L495.196 418.213C496.373 418.197 497.313 417.23 497.296 416.053L497.224 410.854C497.207 409.678 496.24 408.737 495.064 408.754Z" fill="black"/>
<path d="M485.41 434.16C480.33 434.1 474.91 434.07 469.15 434.07C467.177 434.07 466.23 433.083 466.31 431.11L466.33 430.81C466.39 429.276 467.19 428.48 468.73 428.42C474.73 428.193 481.08 428.086 487.78 428.1C490.187 428.106 491.557 429.3 491.89 431.68C491.937 432.026 491.834 432.323 491.58 432.57L489.45 434.64C489.332 434.755 489.19 434.842 489.034 434.894C488.878 434.946 488.713 434.961 488.55 434.94C487.49 434.81 486.45 434.17 485.41 434.16Z" fill="black"/>
<path d="M615.02 486.36C614.607 486.453 614.534 486.66 614.8 486.98L620.41 493.86C621.39 495.053 621.38 496.24 620.38 497.42C619.64 498.293 618.437 498.517 616.77 498.09C616.419 498.006 616.101 497.814 615.86 497.54L606.68 487.15C606.448 486.887 606.152 486.688 605.819 486.571C605.487 486.453 605.129 486.422 604.78 486.48C594.9 488.16 585.03 488.08 576.67 482.31C576.397 482.117 576.114 482.103 575.82 482.27L557.57 492.51C555.824 493.497 554.26 493.26 552.88 491.8C552.314 491.2 552.074 490.4 552.16 489.4C552.194 489.039 552.309 488.691 552.496 488.383C552.684 488.074 552.938 487.814 553.24 487.62C558.38 484.327 564.217 481.003 570.75 477.65C570.822 477.612 570.883 477.557 570.929 477.489C570.974 477.422 571.003 477.345 571.011 477.264C571.02 477.183 571.009 477.101 570.98 477.026C570.95 476.95 570.902 476.883 570.84 476.83C566.95 473.49 564.26 465.86 563.63 461.46C562.3 452.09 562.89 441.34 562.73 431.61C562.697 429.91 563.504 428.847 565.15 428.42C565.364 428.36 565.58 428.34 565.8 428.36C567.74 428.48 568.717 429.513 568.73 431.46C568.777 437.42 568.747 443.477 568.64 449.63C568.47 459.24 569.45 466.89 575.73 473.97C575.886 474.147 576.101 474.263 576.336 474.297C576.572 474.332 576.814 474.284 577.02 474.16C581.92 471.187 586.96 468.493 592.14 466.08C593.594 465.4 594.867 465.463 595.96 466.27C597.914 467.71 599.804 469.6 601.63 471.94C604.25 475.28 606.937 478.53 609.69 481.69C610.33 482.423 611.047 482.503 611.84 481.93C615.887 478.983 620.294 476.127 625.06 473.36C629.94 470.52 632.44 474.16 635.04 477.28C640.2 483.493 645.187 489.557 650 495.47C651.067 496.783 651.05 498.08 649.95 499.36C649.57 499.8 649.1 500.15 648.54 500.41C648.058 500.634 647.515 500.692 646.994 500.576C646.474 500.461 646.005 500.177 645.66 499.77L628.37 479.16C628.077 478.813 627.76 478.79 627.42 479.09C623.87 482.24 619.62 485.3 615.02 486.36ZM583.17 478.15C583.058 478.215 582.966 478.31 582.905 478.425C582.844 478.539 582.816 478.669 582.826 478.798C582.835 478.928 582.881 479.052 582.958 479.157C583.035 479.261 583.14 479.342 583.26 479.39L587.8 481.17C587.886 481.205 587.978 481.222 588.07 481.22L599.29 480.86C599.42 480.856 599.547 480.815 599.654 480.742C599.762 480.669 599.847 480.567 599.9 480.448C599.952 480.328 599.969 480.197 599.95 480.068C599.931 479.939 599.875 479.819 599.79 479.72L593.84 472.8C593.736 472.68 593.594 472.599 593.437 472.572C593.28 472.544 593.119 472.572 592.98 472.65L583.17 478.15Z" fill="black"/>
<path d="M374.02 442.49C377.903 442.49 381.05 439.342 381.05 435.46C381.05 431.577 377.903 428.43 374.02 428.43C370.138 428.43 366.99 431.577 366.99 435.46C366.99 439.342 370.138 442.49 374.02 442.49Z" fill="black"/>
<path d="M758.77 601.71C769.13 610.97 782.55 608.49 791.29 598.6C792.364 597.394 793.587 597.26 794.96 598.2C795.419 598.509 795.757 598.965 795.919 599.493C796.081 600.021 796.057 600.588 795.85 601.1C795.437 602.127 794.87 603.037 794.15 603.83C784.07 614.92 766.1 617.19 755.13 606C754.838 605.702 754.623 605.336 754.504 604.935C754.386 604.534 754.367 604.11 754.45 603.7C754.597 602.987 754.897 602.38 755.35 601.88C756.437 600.7 757.577 600.644 758.77 601.71Z" fill="black"/>
<path d="M622.396 780.673L591.956 780.726C590.658 780.729 589.608 781.783 589.61 783.08L589.61 783.32C589.613 784.618 590.667 785.669 591.965 785.666L622.405 785.613C623.702 785.611 624.753 784.557 624.75 783.259L624.75 783.019C624.748 781.721 623.694 780.671 622.396 780.673Z" fill="black"/>
<path d="M472.65 790.2H439.55C438.252 790.2 437.2 791.252 437.2 792.55V792.63C437.2 793.928 438.252 794.98 439.55 794.98H472.65C473.948 794.98 475 793.928 475 792.63V792.55C475 791.252 473.948 790.2 472.65 790.2Z" fill="black"/>
<path d="M236.83 805.641C251.097 805.521 265.797 805.351 280.93 805.131C282.483 805.111 283.987 805.277 285.44 805.631C286.34 805.851 286.76 806.421 286.7 807.341C286.54 809.941 282.18 811.061 280.3 811.131C271.313 811.471 255.607 811.71 233.18 811.85C231.453 811.864 230.467 811.017 230.22 809.311C230.18 809.044 230.187 808.777 230.24 808.511C230.533 806.924 231.48 806.04 233.08 805.86C234.233 805.727 235.483 805.654 236.83 805.641Z" fill="black"/>
<path d="M420.155 817.47L164.078 816.13C162.361 816.121 160.961 817.506 160.952 819.223L160.952 819.263C160.943 820.981 162.328 822.38 164.045 822.389L420.122 823.73C421.84 823.739 423.239 822.354 423.248 820.637L423.248 820.597C423.257 818.879 421.872 817.479 420.155 817.47Z" fill="black"/>
<path d="M337.096 827.152L265.176 827.027C263.475 827.024 262.093 828.4 262.09 830.101L262.09 830.201C262.087 831.903 263.464 833.284 265.165 833.287L337.085 833.412C338.786 833.415 340.167 832.039 340.17 830.338L340.17 830.238C340.173 828.537 338.797 827.155 337.096 827.152Z" fill="black"/>
<path d="M696.12 842.26H663.58C662.282 842.26 661.23 843.312 661.23 844.61V844.69C661.23 845.988 662.282 847.04 663.58 847.04H696.12C697.418 847.04 698.47 845.988 698.47 844.69V844.61C698.47 843.312 697.418 842.26 696.12 842.26Z" fill="black"/>
</g>
<defs>
<clipPath id="clip0_93_3110">
<rect width="1024" height="1024" fill="none"/>
</clipPath>
</defs>
</svg>
