<svg width="1024" height="914" viewBox="0 83 1024 914" fill="none" xmlns="http://www.w3.org/2000/svg">
<g clip-path="url(#clip0_93_2809)">
<rect width="1024" height="1024" fill="none"/>
<path d="M411.88 116.08C411.931 116.03 411.991 115.99 412.058 115.963C412.124 115.936 412.195 115.923 412.267 115.924C412.339 115.925 412.409 115.94 412.475 115.969C412.541 115.997 412.6 116.038 412.65 116.09L415.5 119.07C416.235 119.836 416.839 120.67 417.178 121.388C417.518 122.106 417.565 122.65 417.31 122.9L417.16 123.04C417.032 123.163 416.833 123.21 416.576 123.178C416.318 123.145 416.006 123.035 415.658 122.853C415.31 122.671 414.932 122.421 414.546 122.117C414.161 121.813 413.774 121.46 413.41 121.08L410.55 118.1C410.452 117.997 410.4 117.858 410.404 117.716C410.407 117.574 410.467 117.439 410.57 117.34L411.88 116.08Z" fill="#000000"/>
<path d="M421.11 121.45C421.052 121.539 420.962 121.601 420.859 121.624C420.756 121.646 420.649 121.627 420.56 121.57L420.27 121.39C420.024 121.233 419.792 121.059 419.589 120.876C419.385 120.693 419.213 120.507 419.083 120.326C418.953 120.146 418.867 119.976 418.831 119.826C418.794 119.675 418.807 119.548 418.87 119.45L419.01 119.23C419.072 119.133 419.183 119.068 419.335 119.039C419.487 119.009 419.678 119.016 419.896 119.059C420.114 119.101 420.356 119.179 420.607 119.288C420.858 119.396 421.114 119.533 421.36 119.69L421.64 119.87C421.73 119.926 421.794 120.015 421.818 120.119C421.843 120.222 421.825 120.33 421.77 120.42L421.11 121.45Z" fill="#000000"/>
<path d="M422.03 125.46C422.104 125.506 422.167 125.566 422.218 125.636C422.268 125.707 422.304 125.787 422.324 125.871C422.343 125.956 422.346 126.043 422.331 126.129C422.317 126.214 422.286 126.296 422.24 126.37L422.11 126.57C421.784 127.089 421.311 127.488 420.796 127.677C420.28 127.866 419.764 127.831 419.36 127.58L419.24 127.51C418.835 127.257 418.576 126.808 418.519 126.26C418.463 125.713 418.614 125.112 418.94 124.59L419.07 124.38C419.116 124.306 419.176 124.242 419.246 124.192C419.317 124.142 419.397 124.106 419.481 124.086C419.566 124.067 419.653 124.064 419.739 124.078C419.825 124.093 419.906 124.124 419.98 124.17L422.03 125.46Z" fill="#000000"/>
<path d="M415.82 126.122L412.141 126.039C411.434 126.023 410.848 126.583 410.832 127.289L410.829 127.449C410.813 128.156 411.373 128.742 412.079 128.758L415.758 128.842C416.465 128.858 417.051 128.298 417.067 127.591L417.071 127.431C417.087 126.724 416.527 126.138 415.82 126.122Z" fill="#000000"/>
<path d="M523.19 737.531L488.25 738.111C487.837 738.117 487.624 738.327 487.61 738.741C486.917 765.427 486.174 792.071 485.38 818.671C484.8 838.181 483.12 857.771 481.56 877.191C480.21 894.171 479.71 910.891 479.09 928.051C479.037 929.557 478.904 930.987 478.69 932.341C478.63 932.707 478.414 932.894 478.04 932.901L384.14 934.391C384.102 934.392 384.064 934.386 384.028 934.372C383.992 934.357 383.959 934.336 383.932 934.309C383.905 934.282 383.884 934.249 383.87 934.213C383.856 934.178 383.849 934.139 383.85 934.101C384.2 922.281 384.81 910.311 384.85 898.091C385.05 842.977 385.084 787.757 384.95 732.431C384.95 731.891 384.71 731.497 384.23 731.251C368.99 723.361 357.7 710.841 354.35 693.631C353.09 687.137 352.494 681.021 352.56 675.281C352.674 666.154 352.964 654.567 353.43 640.521C353.95 625.041 353.6 605.817 352.38 582.851C352.1 577.504 351.44 572.481 350.4 567.781C349.134 562.047 347.977 556.647 346.93 551.581C344.864 541.587 343.2 528.377 341.94 511.951C340.814 497.331 341.127 483.084 342.88 469.211C344.147 459.197 346.687 450.274 350.5 442.441C351.48 440.431 350.84 437.921 350.88 435.701C351.014 428.054 351.447 420.427 352.18 412.821C353.17 402.491 355.98 394.071 363.08 386.211C363.354 385.911 363.41 385.574 363.25 385.201C362.85 384.281 362.38 383.311 362.18 382.331C360.927 376.264 360.244 370.154 360.13 364.001C359.817 346.721 360.29 330.641 361.55 315.761C363.04 298.181 364.65 280.761 365.9 263.031C366.9 248.821 368.35 235.291 371.91 221.841C379.77 192.081 399.4 168.211 426.49 154.481C445.33 144.941 464.09 141.051 484.93 140.461C486.92 140.401 488.84 140.641 490.84 140.441C491.7 140.361 492.57 140.331 493.45 140.351C500.437 140.551 506.34 140.884 511.16 141.351C541.3 144.291 576.69 158.251 592.74 185.631C596.8 192.551 599.967 200.821 602.24 210.441C604.587 220.394 606.437 230.424 607.79 240.531C611.044 264.904 612.737 289.081 612.87 313.061C612.91 320.707 613.03 327.364 613.23 333.031C613.71 346.931 614.067 361.344 614.3 376.271C614.38 381.431 613.52 388.851 609.86 392.661C609.62 392.914 609.584 393.197 609.75 393.511C610.38 394.651 611.43 395.511 612.08 396.641C615.887 403.201 618.61 410.044 620.25 417.171C622.997 429.064 624.39 441.394 624.43 454.161C624.49 475.951 624.87 497.771 624.9 519.741C624.9 520.107 625.04 520.174 625.32 519.941C628.46 517.327 631.15 514.524 633.39 511.531C634.324 510.277 635.54 509.087 637.04 507.961C639.64 506.001 642.284 503.757 644.97 501.231C646.97 499.351 648.764 499.497 650.35 501.671C653.937 506.611 656.974 511.287 659.46 515.701C667.467 529.927 676.197 544.464 685.65 559.311C685.877 559.671 685.824 559.984 685.49 560.251C683.93 561.531 682.554 562.977 681.36 564.591C679.5 567.091 676.87 568.751 674.34 570.461C674.074 570.634 673.857 570.854 673.69 571.121C672.37 573.207 670.757 573.434 668.85 571.801C668.317 571.341 667.81 571.371 667.33 571.891C666.33 572.991 665.22 574.021 664 574.981C652.15 584.331 639.05 592.511 625.72 599.581C625.18 599.861 624.91 600.304 624.91 600.911C624.864 611.204 624.747 620.827 624.56 629.781C624.114 651.054 624.097 670.521 624.51 688.181C624.57 690.654 624.514 693.591 624.34 696.991C623.807 707.577 619.967 716.267 612.82 723.061C611.954 723.887 611.007 724.564 609.98 725.091C609.667 725.257 609.474 725.514 609.4 725.861C609.167 727.034 609.077 728.254 609.13 729.521C609.657 742.187 610.077 753.967 610.39 764.861C610.684 774.961 610.6 789.227 610.14 807.661C610.12 808.574 610.054 809.451 609.94 810.291C609.76 811.671 610.22 812.711 610.16 814.081C609.28 832.771 608.16 851.661 608.17 870.511C608.184 891.631 608.064 911.141 607.81 929.041C607.804 929.527 607.557 929.761 607.07 929.741C604.44 929.601 601.92 928.941 599.26 928.841C591.66 928.554 584.904 928.541 578.99 928.801C563.77 929.471 548.01 929.451 532.55 929.651C532.284 929.651 532.134 929.517 532.1 929.251C531.14 920.881 530.08 911.831 529.66 903.521C528.767 885.367 528.187 867.297 527.92 849.311C527.6 827.024 526.257 789.984 523.89 738.191C523.87 737.744 523.637 737.524 523.19 737.531ZM374.47 343.071C374.044 343.051 373.827 342.827 373.82 342.401C373.634 327.927 373.56 313.137 373.6 298.031C373.674 269.517 377.994 241.287 386.56 213.341C390.92 199.127 396.447 186.854 403.14 176.521C403.195 176.441 403.216 176.343 403.2 176.247C403.183 176.152 403.129 176.067 403.05 176.011L402.84 175.861C402.807 175.841 402.777 175.844 402.75 175.871C399.317 179.991 396.257 183.827 393.57 187.381C390.43 191.541 387.584 195.977 385.03 200.691C383.84 202.881 383.09 205.171 381.85 207.301C381.004 208.761 380.274 210.364 379.66 212.111C375.174 224.917 372.41 238.277 371.37 252.191C370.05 269.771 368.76 286.701 367.08 303.951C365.72 317.931 364.85 331.897 364.47 345.851C364.457 346.411 364.71 346.791 365.23 346.991L374.22 350.461C375.04 350.774 375.427 351.367 375.38 352.241C374.814 363.081 374.56 374.017 374.62 385.051C374.62 385.357 374.736 385.652 374.946 385.876C375.155 386.101 375.443 386.238 375.75 386.261L376.56 386.321C377.38 386.381 377.8 386.001 377.82 385.181L378.59 352.751C378.61 352.077 378.944 351.831 379.59 352.011C395.637 356.504 411.907 359.197 428.4 360.091C450.667 361.304 471.2 361.604 490 360.991C512.874 360.251 535.377 359.864 557.51 359.831C574.59 359.811 591.45 359.461 608.99 359.311C609.062 359.311 609.132 359.296 609.198 359.269C609.264 359.241 609.323 359.2 609.372 359.148C609.422 359.097 609.461 359.036 609.486 358.97C609.511 358.903 609.523 358.832 609.52 358.761L607.86 289.571C607.854 289.077 607.627 288.934 607.18 289.141C597.66 293.601 586.62 295.451 576.48 296.031C555.527 297.217 534.464 297.537 513.29 296.991C501.61 296.681 499.21 289.741 497.03 279.911C494.304 267.657 493.314 253.597 494.06 237.731C494.36 231.291 494.824 225.077 495.45 219.091C495.76 216.111 496.53 212.221 499.54 210.791C502.734 209.284 506.37 208.381 510.45 208.081C526.41 206.914 543.03 206.334 560.31 206.341C565.817 206.347 571.774 206.271 578.18 206.111C584.22 205.964 590.18 205.911 596.06 205.951C596.093 205.95 596.125 205.942 596.155 205.927C596.184 205.913 596.21 205.892 596.23 205.866C596.25 205.84 596.264 205.81 596.271 205.778C596.278 205.746 596.278 205.713 596.27 205.681C591.75 189.427 582.86 176.557 569.6 167.071C549.47 152.671 523.8 145.721 498.98 145.001C496.52 144.934 493.877 144.854 491.05 144.761C489.057 144.694 487.114 144.724 485.22 144.851C483.267 144.977 481.324 145.081 479.39 145.161C463.037 145.861 447.58 149.607 433.02 156.401C422.85 161.151 414.3 166.071 407.94 175.611C400.847 186.257 395.394 197.544 391.58 209.471C382.574 237.617 377.7 265.957 376.96 294.491C376.714 304.017 376.774 320.047 377.14 342.581C377.147 343.001 376.944 343.201 376.53 343.181L374.47 343.071ZM592.8 253.741C592.094 251.401 591.63 248.824 591.41 246.011C591.324 244.857 590.724 244.437 589.61 244.751C588.277 245.131 587.894 247.324 588.46 251.331C588.567 252.071 588.737 252.797 588.97 253.511C590.29 257.481 592.45 260.131 597.24 258.851C602.99 257.311 602.55 249.321 601.14 244.651C601.085 244.461 600.982 244.288 600.84 244.148C600.698 244.008 600.523 243.906 600.33 243.851C599.764 243.684 599.17 243.654 598.55 243.761C598.104 243.834 597.89 244.094 597.91 244.541C598.03 247.371 599.24 252.741 596.82 254.741C595.51 255.821 593.35 255.551 592.8 253.741ZM519.48 256.041C519.02 261.061 513.13 261.051 513 256.681C512.94 254.474 512.884 252.271 512.83 250.071C512.828 249.825 512.764 249.583 512.646 249.367C512.527 249.151 512.357 248.967 512.15 248.831C511.69 248.524 511.234 248.394 510.78 248.441C509.547 248.567 508.914 249.247 508.88 250.481C508.74 255.411 509 263.621 515.91 263.631C517.837 263.631 519.514 262.957 520.94 261.611C524.06 258.651 523.45 252.791 522.62 249.031C522.527 248.609 522.282 248.236 521.931 247.984C521.581 247.731 521.15 247.616 520.72 247.661C519.534 247.774 518.957 248.457 518.99 249.711C519.05 251.881 519.68 253.851 519.48 256.041ZM557.65 498.201C564.424 495.381 571.494 493.197 578.86 491.651C579.154 491.588 579.416 491.426 579.602 491.192C579.788 490.959 579.887 490.668 579.88 490.371C579.647 476.324 579.507 461.444 579.46 445.731C579.447 439.391 578.88 434.887 577.76 432.221C574.49 424.431 566.14 421.201 557.42 421.391C535.72 421.871 511.934 422.401 486.06 422.981C478.714 423.141 473.45 423.764 470.27 424.851C463.21 427.244 457.57 431.551 453.35 437.771C449.69 443.141 449.14 449.891 449.55 456.001C450.8 475.111 450.31 494.741 450.66 513.561C450.662 513.658 450.682 513.754 450.721 513.843C450.759 513.932 450.815 514.013 450.884 514.081C450.954 514.149 451.036 514.202 451.126 514.238C451.217 514.274 451.313 514.292 451.41 514.291L458.44 514.211C458.577 514.209 458.712 514.235 458.838 514.286C458.964 514.337 459.079 514.413 459.175 514.509C459.272 514.605 459.349 514.719 459.401 514.844C459.453 514.97 459.48 515.105 459.48 515.241L459.6 536.051C459.602 536.168 459.579 536.284 459.535 536.393C459.49 536.501 459.424 536.6 459.34 536.683C459.256 536.766 459.156 536.831 459.046 536.876C458.937 536.92 458.819 536.942 458.7 536.941L451.62 536.831C451.547 536.829 451.474 536.843 451.405 536.87C451.337 536.896 451.274 536.937 451.221 536.988C451.169 537.039 451.126 537.1 451.097 537.167C451.068 537.235 451.052 537.307 451.05 537.381L451.04 547.441C451.04 547.495 451.052 547.548 451.076 547.596C451.1 547.644 451.135 547.687 451.178 547.72C451.222 547.752 451.273 547.775 451.327 547.786C451.381 547.796 451.437 547.795 451.49 547.781C457.55 546.061 463.984 543.794 470.79 540.981C491.984 532.201 511.187 523.467 528.4 514.781C531.05 513.451 532.43 511.061 535.03 509.451C539.997 506.397 545.107 503.617 550.36 501.111C550.539 501.024 550.739 500.99 550.936 501.013C551.133 501.036 551.318 501.115 551.47 501.241C556.104 504.941 560.01 509.591 563.19 515.191C568.357 524.297 573.227 533.037 577.8 541.411C582.207 549.484 585.987 558.151 589.14 567.411C589.222 567.651 589.211 567.914 589.11 568.147C589.008 568.38 588.823 568.567 588.59 568.671L585.5 570.021C585.257 570.128 585.049 570.304 584.904 570.527C584.758 570.751 584.681 571.013 584.68 571.281C584.807 589.954 585.174 608.544 585.78 627.051C585.89 630.431 586.19 634.381 585.43 637.761C583.01 648.461 576.06 654.797 564.58 656.771C561.567 657.291 557.557 657.577 552.55 657.631C531.664 657.851 511.184 658.224 491.11 658.751C481.18 659.021 472.53 657.871 464.35 652.421C453.52 645.211 450.82 633.401 450.97 621.171C450.977 620.704 450.757 620.531 450.31 620.651C429.18 626.311 401.58 630.411 381.81 619.961C381.57 619.834 381.454 619.907 381.46 620.181C381.6 633.614 381.857 647.067 382.23 660.541C382.56 672.541 381.59 684.871 382.92 696.561C384.22 707.971 388.4 720.501 395.62 729.721C397.207 731.741 398.754 733.001 400.26 733.501C402.734 734.321 405.53 734.751 408.65 734.791C434.404 735.084 459.18 734.754 482.98 733.801C490.027 733.521 496.647 733.361 502.84 733.321C525.28 733.187 550.607 732.787 578.82 732.121C592.2 731.801 603.114 727.091 611.56 717.991C618.45 710.551 620.18 701.281 620.01 691.391C619.577 665.377 619.564 644.524 619.97 628.831C620.197 620.164 620.307 611.857 620.3 603.911C620.29 602.071 619.67 600.471 620.08 598.661C620.354 597.454 620.5 596.194 620.52 594.881C620.874 570.854 620.854 546.391 620.46 521.491C620.354 514.897 620.297 508.234 620.29 501.501C620.27 481.574 620.037 462.597 619.59 444.571C619.51 441.317 618.82 435.214 617.52 426.261C615.987 415.687 612.54 405.874 607.18 396.821C606.894 396.327 606.494 396.207 605.98 396.461C604.56 397.161 603.047 397.634 601.44 397.881C598.38 398.347 594.794 398.631 590.68 398.731C564.867 399.344 539.05 399.944 513.23 400.531C501.157 400.797 488.914 401.074 476.5 401.361C452.907 401.907 430.43 400.967 409.07 398.541C399.224 397.421 389.014 395.441 378.44 392.601C377.02 392.221 375.767 391.677 374.68 390.971C373.86 390.431 373.024 390.347 372.17 390.721C371.704 390.927 371.24 390.927 370.78 390.721L367.14 389.061C367.006 389 366.856 388.983 366.713 389.011C366.569 389.04 366.439 389.113 366.34 389.221C362.434 393.501 359.744 398.407 358.27 403.941C355.73 413.461 355.66 423.461 355.32 433.651C355.294 434.504 355.574 434.621 356.16 434.001C359.974 429.941 364.14 427.197 368.66 425.771C368.98 425.671 369.13 425.454 369.11 425.121C368.777 416.901 369.537 408.291 371.39 399.291C371.704 397.771 372.314 396.424 373.22 395.251C373.314 395.133 373.437 395.043 373.577 394.99C373.716 394.937 373.866 394.924 374.01 394.951C375.16 395.161 376.21 396.021 375.76 397.331C372.91 405.571 372.7 415.441 372.67 424.531C372.664 424.831 372.81 424.971 373.11 424.951C393.26 423.281 407.16 440.761 413.18 457.771C417.607 470.291 420.157 483.864 420.83 498.491C421.6 515.141 423.15 531.751 425.57 548.431C425.609 548.706 425.725 548.965 425.906 549.177C426.086 549.389 426.324 549.547 426.59 549.631C432.92 551.611 439.43 550.911 446.07 549.461C446.248 549.424 446.408 549.326 446.522 549.184C446.637 549.042 446.7 548.864 446.7 548.681L446.67 532.991C446.67 532.611 446.86 532.427 447.24 532.441L454.75 532.651C454.802 532.652 454.854 532.643 454.903 532.623C454.951 532.604 454.995 532.574 455.033 532.537C455.07 532.5 455.1 532.455 455.12 532.406C455.14 532.357 455.15 532.304 455.15 532.251L455.1 519.041C455.1 518.967 455.086 518.894 455.057 518.826C455.028 518.757 454.986 518.696 454.932 518.645C454.879 518.593 454.816 518.553 454.747 518.527C454.678 518.5 454.604 518.488 454.53 518.491L447.03 518.751C446.897 518.755 446.764 518.732 446.64 518.683C446.516 518.635 446.403 518.562 446.307 518.468C446.212 518.375 446.137 518.263 446.086 518.14C446.035 518.016 446.009 517.884 446.01 517.751C446.184 498.091 445.88 477.664 445.1 456.471C444.65 444.101 447.27 434.721 457.04 427.041C461.354 423.654 465.884 421.334 470.63 420.081C473.464 419.334 478.34 418.874 485.26 418.701C502.387 418.267 519.577 417.841 536.83 417.421C540.584 417.327 544.36 417.201 548.16 417.041C552.1 416.874 555.924 416.861 559.63 417.001C569.09 417.351 577.73 421.101 581.85 430.341C582.937 432.787 583.51 436.674 583.57 442.001C583.77 458.567 583.984 474.631 584.21 490.191C584.217 490.424 584.33 490.527 584.55 490.501C588.244 490.081 592.044 489.674 595.95 489.281C600.39 488.831 604.76 489.421 607.32 493.451C609.82 497.381 607.92 502.861 604.15 505.151C602.124 506.391 600.017 507.287 597.83 507.841C591.624 509.407 585.814 511.114 580.4 512.961C578.867 513.487 577.444 514.154 576.13 514.961C575.49 515.354 575.317 515.897 575.61 516.591L576.21 518.041C576.334 518.334 576.568 518.566 576.862 518.688C577.156 518.809 577.486 518.81 577.78 518.691C586.174 515.257 594.734 512.594 603.46 510.701C609.8 509.321 615.33 510.431 615.86 517.971C615.954 519.191 615.604 520.264 614.81 521.191C614.711 521.303 614.64 521.437 614.602 521.583C614.564 521.729 614.56 521.882 614.59 522.031C614.85 523.341 615.91 524.001 616.11 525.371C616.39 527.337 616.354 529.197 616 530.951C615.96 531.149 615.877 531.336 615.758 531.499C615.639 531.663 615.487 531.8 615.31 531.901C614.89 532.141 614.577 532.474 614.37 532.901C614.21 533.234 614.264 533.531 614.53 533.791C617.07 536.171 617.534 539.101 615.92 542.581C615.787 542.874 615.814 543.147 616 543.401C616.95 544.701 617.89 545.791 618.05 547.481C618.41 551.214 616.63 553.777 612.71 555.171C607.39 557.064 601.364 559.311 594.63 561.911C594.416 561.991 594.18 561.986 593.969 561.897C593.759 561.807 593.591 561.641 593.5 561.431C585.894 543.624 576.737 526.234 566.03 509.261C563.604 505.414 560.774 501.921 557.54 498.781C557.498 498.741 557.467 498.692 557.45 498.637C557.432 498.582 557.429 498.523 557.44 498.466C557.45 498.408 557.475 498.354 557.512 498.308C557.549 498.262 557.596 498.225 557.65 498.201ZM420.3 544.731C420.614 544.884 420.74 544.791 420.68 544.451C417.92 527.891 417.02 512.171 416.06 494.111C415.527 484.091 413.327 473.097 409.46 461.131C405.27 448.131 397.22 435.241 384.14 430.791C370.77 426.251 359.87 432.631 354.29 444.901C350.77 452.641 348.434 460.851 347.28 469.531C345.64 481.937 345.19 494.057 345.93 505.891C346.89 521.201 348.61 536.581 351.55 551.991C351.566 552.06 351.6 552.125 351.65 552.176C351.7 552.227 351.764 552.263 351.832 552.278C351.901 552.294 351.973 552.29 352.038 552.265C352.103 552.241 352.16 552.198 352.2 552.141C358.78 543.101 371.16 539.661 381.73 538.961C385.65 538.694 389.574 538.561 393.5 538.561C402.854 538.547 411.787 540.604 420.3 544.731ZM452.53 615.341C453.98 614.921 455.35 614.981 456.73 614.401C458.77 613.541 460.93 613.181 463.04 612.511C497.327 601.644 530.867 588.651 563.66 573.531C563.764 573.483 563.844 573.396 563.885 573.29C563.927 573.184 563.925 573.066 563.88 572.961C557.92 558.627 550.85 544.654 542.67 531.041C540.057 526.694 537.167 522.567 534 518.661C533.44 517.967 532.757 517.814 531.95 518.201C509.68 528.831 486.86 539.731 463.69 548.521C452.01 552.951 438.68 557.201 426.35 553.981C425.51 553.761 424.31 553.801 423.51 554.161C409.58 560.641 399.82 576.851 394.47 591.111C391.117 600.057 388.834 608.721 387.62 617.101C387.576 617.403 387.641 617.712 387.804 617.971C387.968 618.229 388.218 618.421 388.51 618.511C397.117 621.144 406.034 622.254 415.26 621.841C426.954 621.314 439.377 619.147 452.53 615.341ZM624.97 594.451C624.97 594.518 624.987 594.584 625.02 594.643C625.052 594.702 625.099 594.752 625.155 594.787C625.212 594.822 625.276 594.842 625.342 594.844C625.407 594.847 625.472 594.832 625.53 594.801C639.73 587.307 653.014 578.411 665.38 568.111C665.438 568.064 665.477 567.997 665.49 567.924C665.503 567.85 665.489 567.775 665.45 567.711L634.11 518.791C633.804 518.317 633.44 518.264 633.02 518.631L626.1 524.721C625.507 525.247 625.214 525.907 625.22 526.701C625.447 549.127 625.364 571.711 624.97 594.451ZM392.21 585.991C387.08 581.761 383.66 574.261 382.46 567.781C381.44 562.267 380.414 556.761 379.38 551.261C379.285 550.756 379.005 550.304 378.594 549.995C378.184 549.686 377.672 549.542 377.16 549.591C376.974 549.604 376.8 549.654 376.64 549.741C375.607 550.274 375.19 551.111 375.39 552.251C376.344 557.824 377.354 563.381 378.42 568.921C379.77 575.941 383.37 585.391 389.73 588.941C390.55 589.394 391.337 589.364 392.09 588.851C392.318 588.694 392.507 588.486 392.64 588.244C392.774 588.002 392.85 587.732 392.861 587.455C392.873 587.177 392.82 586.901 392.707 586.647C392.594 586.393 392.424 586.168 392.21 585.991ZM580.19 573.461C580.191 573.41 580.18 573.361 580.16 573.314C580.141 573.268 580.112 573.226 580.075 573.192C580.039 573.157 579.995 573.13 579.948 573.113C579.901 573.096 579.851 573.088 579.8 573.091C579.36 573.111 578.96 573.241 578.6 573.481C576.05 575.161 569.21 580.721 566.19 578.171C565.53 577.611 564.83 577.534 564.09 577.941C562.17 579.007 560.274 579.964 558.4 580.811C524.787 596.004 490.66 608.831 456.02 619.291C455.714 619.384 455.55 619.591 455.53 619.911C454.56 637.111 461.25 650.251 479.35 653.741C481.357 654.127 483.157 654.307 484.75 654.281C504.004 654.021 528.63 653.557 558.63 652.891C564.024 652.771 568.394 651.707 571.74 649.701C578.93 645.381 581.69 638.861 581.49 630.651C581.037 611.564 580.604 592.501 580.19 573.461ZM378.76 660.471C378.247 647.111 378.014 634.131 378.06 621.531C378.067 620.497 378.034 619.387 377.96 618.201C377.94 617.847 377.784 617.574 377.49 617.381C369.597 612.147 363.184 604.777 358.25 595.271C357.544 593.917 357.227 594.004 357.3 595.531C358.14 613.751 358.31 632.321 357.58 650.781C357.254 658.967 357.064 666.291 357.01 672.751C356.88 690.231 360.27 707.061 373.8 718.951C378.58 723.151 383.84 726.514 389.58 729.041C390.467 729.434 390.664 729.214 390.17 728.381C385.19 719.901 381.38 710.661 379.74 700.921C377.8 689.391 378.97 676.781 378.86 664.491C378.854 663.257 378.82 661.917 378.76 660.471ZM599.44 872.031C599.147 887.204 599.154 901.951 599.46 916.271C599.474 917.117 599.557 917.834 599.71 918.421C599.817 918.807 600.067 918.994 600.46 918.981L602.29 918.921C602.499 918.915 602.697 918.829 602.843 918.679C602.989 918.53 603.07 918.329 603.07 918.121C602.924 899.561 602.94 880.604 603.12 861.251C603.134 859.684 602.484 858.884 601.17 858.851C600.887 858.842 600.606 858.915 600.364 859.06C600.121 859.206 599.925 859.417 599.8 859.671C592.107 875.177 584.667 891.327 577.48 908.121C577.054 909.107 577.18 910.021 577.86 910.861C578.307 911.414 579.13 911.334 580.33 910.621C580.656 910.426 580.911 910.132 581.06 909.781C586.76 896.894 592.587 884.237 598.54 871.811C599.167 870.504 599.467 870.577 599.44 872.031ZM472.86 879.821C472.69 881.551 472.2 883.211 472.11 884.951C471.45 898.377 470.647 911.341 469.7 923.841C469.67 924.227 469.793 924.61 470.044 924.907C470.294 925.205 470.652 925.392 471.04 925.431L471.4 925.471C471.667 925.497 471.935 925.469 472.191 925.389C472.446 925.308 472.682 925.178 472.886 925.004C473.089 924.83 473.256 924.618 473.375 924.378C473.494 924.139 473.564 923.878 473.58 923.611C474.707 905.071 475.85 887.017 477.01 869.451C477.064 868.604 476.75 867.857 476.07 867.211C475.937 867.085 475.779 866.989 475.606 866.928C475.434 866.868 475.251 866.843 475.069 866.858C474.887 866.872 474.71 866.924 474.551 867.01C474.391 867.097 474.251 867.216 474.14 867.361C473.387 868.327 472.71 869.387 472.11 870.541C464.844 884.554 457.717 898.847 450.73 913.421C450.05 914.834 450.4 915.901 451.78 916.621C452.059 916.767 452.382 916.806 452.688 916.73C452.994 916.655 453.261 916.47 453.44 916.211C454.627 914.497 455.67 912.701 456.57 910.821C461.35 900.841 466.627 890.464 472.4 879.691C472.78 878.977 472.934 879.021 472.86 879.821Z" fill="#000000"/>
<path d="M423.58 243.111C423.635 243.122 423.692 243.122 423.747 243.109C423.801 243.097 423.853 243.073 423.898 243.039C423.942 243.004 423.979 242.961 424.005 242.911C424.032 242.861 424.047 242.807 424.05 242.751C424.603 234.584 425.347 226.267 426.28 217.801C428.373 198.694 436.27 182.784 449.97 170.071C450.957 169.157 452.01 169.067 453.13 169.801L453.76 170.211C453.924 170.319 454.064 170.461 454.169 170.628C454.273 170.795 454.341 170.982 454.368 171.177C454.394 171.372 454.379 171.571 454.322 171.759C454.266 171.948 454.169 172.122 454.04 172.271C453.027 173.417 451.94 174.491 450.78 175.491C449.633 176.477 448.563 177.644 447.57 178.991C445.53 181.771 443.25 184.231 441.33 187.171C432.87 200.171 430.15 216.261 429.6 231.791C429.594 231.976 429.641 232.159 429.735 232.319C429.829 232.478 429.966 232.607 430.13 232.691C445.49 240.641 447.7 257.911 445.68 273.771C444.69 281.601 442.01 287.871 435.29 292.701C431.31 295.554 426.54 296.824 420.98 296.511C402.21 295.461 389.13 284.281 386.98 265.171C386.14 257.681 387.37 247.051 392 240.881C396.313 235.127 401.753 231.734 408.32 230.701C408.707 230.641 408.933 230.417 409 230.031C409.93 224.361 410.18 218.741 411.16 213.031C413.407 199.904 418.107 187.901 425.26 177.021C428.033 172.807 430.993 169.124 434.14 165.971C434.382 165.723 434.687 165.549 435.02 165.471C436.027 165.224 436.77 165.374 437.25 165.921C438.183 166.974 438.18 168.024 437.24 169.071C424.94 182.751 417.617 198.687 415.27 216.881C414.19 225.241 413.487 233.087 413.16 240.421C413.154 240.582 413.205 240.74 413.304 240.867C413.403 240.993 413.543 241.08 413.7 241.111L423.58 243.111ZM403.34 274.481C410.49 282.401 426.05 280.84 428.69 269.521C430.76 260.651 428.06 250.841 418.54 247.931C410.56 245.491 401.41 248.721 399.69 257.701C398.6 263.391 399.33 270.031 403.34 274.481Z" fill="#000000"/>
<path d="M415.402 272.359C413.384 272.593 411.338 271.858 409.714 270.317C408.089 268.775 407.02 266.554 406.74 264.14C406.461 261.727 406.995 259.32 408.225 257.448C409.454 255.577 411.279 254.394 413.297 254.161C415.315 253.927 417.361 254.662 418.986 256.203C420.61 257.745 421.68 259.966 421.959 262.38C422.238 264.793 421.704 267.2 420.475 269.072C419.245 270.943 417.421 272.126 415.402 272.359ZM414.716 268.522C415.704 268.439 416.606 267.812 417.223 266.78C417.84 265.747 418.122 264.394 418.007 263.017C417.949 262.335 417.796 261.668 417.556 261.054C417.316 260.44 416.993 259.891 416.607 259.438C416.22 258.985 415.777 258.637 415.303 258.414C414.829 258.191 414.333 258.097 413.844 258.138C412.855 258.221 411.953 258.848 411.336 259.88C410.719 260.913 410.437 262.266 410.553 263.643C410.61 264.325 410.763 264.992 411.003 265.606C411.244 266.22 411.566 266.769 411.953 267.222C412.339 267.675 412.782 268.023 413.256 268.246C413.73 268.469 414.226 268.563 414.716 268.522Z" fill="#000000"/>
<path d="M555.6 310.7C558.57 310.11 562.46 309.89 563.93 313.12C565.65 316.9 562 320.05 558.41 320.3C555.036 320.534 551.96 320.53 549.18 320.29C545.75 320 542.6 316.32 544.57 312.92C546.98 308.75 551.97 311.43 555.6 310.7Z" fill="#000000"/>
<path d="M580.116 316.459L579.716 316.46C577.6 316.464 575.889 318.182 575.892 320.297L575.909 329.677C575.912 331.792 577.63 333.504 579.745 333.5L580.145 333.499C582.261 333.496 583.972 331.778 583.969 329.663L583.952 320.283C583.949 318.167 582.231 316.456 580.116 316.459Z" fill="#000000"/>
<path d="M702.17 498.7C702.81 498.87 703.48 498.84 704.13 499.09C710.89 501.68 709.63 509.19 704.3 512.52C704.215 512.574 704.144 512.648 704.093 512.735C704.042 512.823 704.012 512.921 704.008 513.022C704.003 513.123 704.022 513.224 704.064 513.316C704.107 513.408 704.17 513.488 704.25 513.55C708.96 517.13 707.7 522.45 703.48 525.56C703.127 525.827 703.044 526.16 703.23 526.56C704.02 528.27 705.09 529.91 704.62 531.87C704.04 534.25 702.707 536.21 700.62 537.75C700.327 537.97 700.277 538.237 700.47 538.55C703.237 543.05 702.774 546.934 699.08 550.2C696.9 552.14 693.57 553.44 690.83 554.82C689.944 555.274 689.24 555.077 688.72 554.23C679.86 539.71 671.177 524.914 662.67 509.84C660.12 505.33 657.11 501.1 653.61 497.28C653.508 497.171 653.452 497.026 653.456 496.876C653.46 496.726 653.522 496.584 653.63 496.48L668.77 481.56C669.035 481.302 669.261 481.005 669.44 480.68C678.894 463.547 688.097 446.48 697.05 429.48C697.977 427.72 699.16 426.164 700.6 424.81C700.847 424.584 701.137 424.494 701.47 424.54C711.95 426.074 722.444 427.3 732.95 428.22C733.219 428.244 733.48 428.321 733.718 428.446C733.957 428.571 734.168 428.742 734.34 428.95C734.512 429.157 734.641 429.396 734.72 429.654C734.799 429.912 734.826 430.182 734.8 430.45L733.67 442.11C733.617 442.644 733.45 443.162 733.18 443.63L701.79 497.8C701.524 498.267 701.65 498.567 702.17 498.7ZM731.045 432.143C731.05 432.108 731.047 432.072 731.037 432.038C731.027 432.004 731.011 431.972 730.989 431.944C730.967 431.916 730.94 431.893 730.909 431.876C730.878 431.859 730.843 431.848 730.808 431.844L704.683 428.821C704.611 428.813 704.54 428.833 704.484 428.877C704.428 428.922 704.392 428.987 704.383 429.058L703.335 438.118C703.331 438.153 703.334 438.188 703.344 438.223C703.353 438.257 703.37 438.289 703.392 438.316C703.414 438.344 703.441 438.367 703.472 438.385C703.503 438.402 703.537 438.413 703.572 438.417L729.698 441.44C729.769 441.448 729.841 441.427 729.897 441.383C729.953 441.339 729.989 441.274 729.997 441.202L731.045 432.143ZM662.54 501.95C662.56 502.597 662.727 503.154 663.04 503.62C663.514 504.32 663.957 504.304 664.37 503.57C667.45 498.137 671.19 491.097 675.59 482.45C679.844 474.084 684.997 464.717 691.05 454.35C695.08 447.43 701.93 439.86 700.76 431.29C700.674 430.63 700.47 430.594 700.15 431.18L663.21 499.17C662.737 500.037 662.514 500.964 662.54 501.95ZM695.28 454.63C690.514 462.33 685.894 470.5 681.42 479.14C676.38 488.874 671.317 498.244 666.23 507.25C665.93 507.777 666.02 508.214 666.5 508.56C666.704 508.711 666.946 508.801 667.198 508.822C667.451 508.844 667.704 508.794 667.93 508.68C677.124 504.087 686.78 500.807 696.9 498.84C697.367 498.747 697.717 498.49 697.95 498.07C707.724 480.304 717.764 462.817 728.07 445.61C728.111 445.545 728.134 445.47 728.137 445.393C728.14 445.315 728.123 445.238 728.088 445.169C728.054 445.099 728.002 445.039 727.937 444.994C727.873 444.949 727.798 444.92 727.72 444.91L703.08 442.03C702.935 442.016 702.788 442.044 702.658 442.111C702.529 442.179 702.422 442.283 702.35 442.41C700.07 446.63 697.714 450.704 695.28 454.63Z" fill="#000000"/>
<path d="M555.4 430.44H548.54C547.684 430.44 546.99 431.134 546.99 431.99V432.15C546.99 433.006 547.684 433.7 548.54 433.7H555.4C556.256 433.7 556.95 433.006 556.95 432.15V431.99C556.95 431.134 556.256 430.44 555.4 430.44Z" fill="#000000"/>
<path d="M566.85 440.43C565.53 438.41 564.05 436.58 562.41 434.94C561.69 434.21 561.39 433.01 562.13 432.18C562.356 431.92 562.636 431.843 562.97 431.95C565.57 432.79 568.03 435.94 569.2 438.2C569.56 438.9 569.483 439.547 568.97 440.14L568.62 440.54C567.98 441.287 567.39 441.25 566.85 440.43Z" fill="#000000"/>
<path d="M723.563 433.26L711.897 432.137C711.325 432.082 710.817 432.501 710.762 433.072L710.622 434.526C710.567 435.097 710.986 435.605 711.557 435.66L723.223 436.784C723.795 436.839 724.303 436.42 724.358 435.848L724.498 434.395C724.553 433.823 724.134 433.315 723.563 433.26Z" fill="#000000"/>
<path d="M716.283 450.478L703.313 449.594C702.189 449.517 701.215 450.366 701.139 451.49L701.102 452.029C701.025 453.153 701.874 454.127 702.998 454.203L715.968 455.087C717.092 455.164 718.066 454.315 718.142 453.191L718.179 452.652C718.256 451.528 717.407 450.555 716.283 450.478Z" fill="#000000"/>
<path d="M710.63 460.982L696.317 460.107C695.413 460.052 694.635 460.74 694.58 461.644L694.473 463.381C694.418 464.285 695.106 465.062 696.01 465.118L710.323 465.993C711.227 466.048 712.005 465.36 712.06 464.456L712.167 462.719C712.222 461.815 711.534 461.038 710.63 460.982Z" fill="#000000"/>
<path d="M706.89 472.27C707.188 472.281 707.47 472.409 707.674 472.626C707.878 472.843 707.988 473.132 707.98 473.43V473.58C707.967 474.069 707.849 474.55 707.632 474.996C707.416 475.442 707.105 475.844 706.718 476.179C706.331 476.514 705.874 476.776 705.376 476.95C704.877 477.123 704.345 477.205 703.81 477.19L692.59 476.87C691.512 476.839 690.49 476.418 689.748 475.7C689.005 474.982 688.603 474.026 688.63 473.04V472.89C688.634 472.742 688.667 472.596 688.728 472.46C688.788 472.325 688.875 472.202 688.982 472.1C689.09 471.998 689.217 471.918 689.355 471.865C689.494 471.812 689.642 471.786 689.79 471.79L706.89 472.27Z" fill="#000000"/>
<path d="M696.74 487.969L682.172 487.002C680.987 486.923 679.963 487.82 679.884 489.005L679.857 489.404C679.779 490.589 680.675 491.613 681.86 491.692L696.428 492.659C697.613 492.738 698.637 491.841 698.716 490.656L698.742 490.257C698.821 489.072 697.924 488.048 696.74 487.969Z" fill="#000000"/>
<path d="M450.101 523.258L444.702 523.183C444.16 523.175 443.716 523.608 443.708 524.149L443.694 525.169C443.686 525.71 444.119 526.155 444.66 526.162L450.059 526.238C450.601 526.245 451.045 525.813 451.053 525.272L451.067 524.252C451.075 523.71 450.642 523.266 450.101 523.258Z" fill="#000000"/>
<path d="M328.45 934.441C326.24 937.291 323.3 939.801 319.49 939.851C311.164 939.944 303.224 940.044 295.67 940.151C295.4 940.154 295.132 940.089 294.891 939.961C294.651 939.834 294.444 939.648 294.29 939.421C293.977 938.954 293.847 938.484 293.9 938.011C294.06 936.624 294.837 935.911 296.23 935.871C303.97 935.651 311.517 935.511 318.87 935.451C323.22 935.411 324.5 929.381 329.09 929.291C338.784 929.097 349.84 929.077 362.26 929.231C363.66 929.251 364.36 929.961 364.36 931.361V932.131C364.36 933.277 363.787 933.851 362.64 933.851L329.84 933.761C329.267 933.761 328.804 933.987 328.45 934.441Z" fill="#000000"/>
<path d="M647.28 962.08C645.753 962.64 645.803 962.92 647.43 962.92C664.45 962.934 680.83 962.997 696.57 963.11C707.28 963.19 719.03 963.85 730.28 964.12C731.12 964.14 731.923 964.254 732.69 964.46C733.73 964.74 734.93 964.29 736.08 964.34C762.8 965.58 793.15 966.18 821.75 967.49C827.67 967.76 840.17 968.67 843.41 973.04C843.749 973.498 843.909 974.065 843.859 974.634C843.809 975.203 843.554 975.735 843.14 976.13C839.71 979.37 831.1 980.2 825.57 980.84C818.337 981.68 805.813 982.25 788 982.55C764.993 982.944 740.743 983.274 715.25 983.54C708.843 983.607 702.177 983.73 695.25 983.91C677.257 984.39 659.09 984.757 640.75 985.01C607.717 985.47 574.13 985.954 539.99 986.46C525.67 986.667 512.507 986.91 500.5 987.19C494.007 987.344 487.403 987.414 480.69 987.4C446.45 987.354 411.897 986.854 377.03 985.9C347.97 985.1 321.04 983.42 292.55 979.47C287.66 978.8 282.54 978.35 277.51 977.79C275.337 977.544 273.327 977.38 271.48 977.3C258.193 976.74 245.55 976.617 233.55 976.93C206.33 977.644 181.927 978.3 160.34 978.9C158.367 978.954 156.347 978.884 154.28 978.69C152.37 978.51 150.6 978.95 148.68 978.93C137.72 978.857 126.377 978.284 114.65 977.21C114.316 977.184 113.992 977.067 113.71 976.87C112.557 976.077 112.077 975.334 112.27 974.64C112.53 973.68 113.007 973.177 113.7 973.13C178.433 968.857 244.683 965.92 312.45 964.32C329.53 963.92 346.137 963.52 362.27 963.12C370.137 962.927 377.933 962.85 385.66 962.89C385.925 962.89 386.18 962.785 386.367 962.598C386.555 962.41 386.66 962.156 386.66 961.89C386.687 955.764 387.097 949.61 387.89 943.43C388.204 941.01 389.57 939.774 391.99 939.72C420 939.13 448 938.46 476 938.07C477.707 938.05 479.303 938.387 480.79 939.08C489.87 943.334 498.747 947.587 507.42 951.84C511.173 953.687 512.983 956.757 512.85 961.05C512.837 961.464 513.037 961.664 513.45 961.65L535.03 961.2C535.63 961.187 535.9 960.88 535.84 960.28C535.1 952.94 534.507 945.86 534.06 939.04C533.873 936.154 535.35 934.71 538.49 934.71C558.87 934.71 580.08 933.87 600.78 933.66C602.427 933.64 604.067 933.6 605.7 933.54C609.307 933.42 612.677 933.817 615.81 934.73C625.323 937.51 635.797 940.91 647.23 944.93C649.72 945.81 658.35 949.56 656.92 953.27C655.23 957.65 651.79 960.43 647.28 962.08Z" fill="#000000"/>
</g>
<defs>
<clipPath id="clip0_93_2809">
<rect width="1024" height="1024" fill="none"/>
</clipPath>
</defs>
</svg>
