<svg width="1024" height="624" viewBox="0 242 1024 624" fill="none" xmlns="http://www.w3.org/2000/svg">
<g clip-path="url(#clip0_93_27)">
<rect width="1024" height="1024" fill="none"/>
<path d="M588.94 486.61C588.953 486.364 589.387 486.18 590.24 486.06C596.22 485.194 601.687 484.754 606.64 484.74C622.91 484.69 639.52 485.82 655.14 489.13C658.84 489.917 660.747 492.077 660.86 495.61C661.22 506.637 661.503 518.147 661.71 530.14C661.717 530.5 661.897 530.68 662.25 530.68L707.47 530.65C707.523 530.65 707.576 530.639 707.625 530.618C707.674 530.597 707.719 530.566 707.756 530.527C707.794 530.488 707.823 530.441 707.842 530.39C707.862 530.339 707.871 530.285 707.87 530.23C705.977 484.537 703.98 438.957 701.88 393.49C700.787 369.837 699.983 345.34 699.47 320C699.38 315.6 699.28 312.46 703.37 309.82C706.237 307.96 709.35 306.517 712.71 305.49C722.29 302.544 732.433 300.72 743.14 300.02C758.02 299.054 772.427 299.37 786.36 300.97C794.02 301.85 823.5 306.23 823.46 317.28C823.227 390.867 822.557 461.76 821.45 529.96C821.449 530.036 821.462 530.111 821.49 530.181C821.517 530.252 821.558 530.316 821.61 530.37C821.662 530.424 821.725 530.467 821.793 530.496C821.862 530.525 821.935 530.54 822.01 530.54L961.96 530.91C963.467 530.91 964.297 531.66 964.45 533.16C964.503 533.754 964.33 534.297 963.93 534.79C963.789 534.962 963.611 535.101 963.408 535.196C963.206 535.291 962.985 535.34 962.76 535.34L821.73 535.83C821.587 535.83 821.449 535.887 821.348 535.988C821.247 536.09 821.19 536.227 821.19 536.37C821.097 544.977 820.87 553.58 820.51 562.18C820.27 568.03 819.39 574.39 816.65 579.57C811.56 589.21 798.14 591.38 787.63 591.86C785.19 591.97 782.87 592.83 780.39 593.15C769.257 594.604 758.94 595.74 749.44 596.56C749.247 596.574 749.147 596.484 749.14 596.29L749.13 596C749.13 595.867 749.193 595.79 749.32 595.77L760.18 594.01C760.234 594.001 760.282 593.972 760.317 593.93C760.352 593.888 760.371 593.835 760.37 593.78C760.37 593.6 760.29 593.467 760.13 593.38C760.017 593.321 759.892 593.28 759.76 593.26C758.333 593.027 757.07 592.977 755.97 593.11C751.023 593.71 746.003 594.3 740.91 594.88C737.02 595.32 733.55 596.2 729.56 595.77C729.393 595.757 729.317 595.667 729.33 595.5L729.35 595.17C729.363 594.997 729.457 594.91 729.63 594.91C732.77 594.937 735.343 594.38 737.35 593.24C738.483 592.594 738.41 592.4 737.13 592.66C731.957 593.727 726.5 594.07 720.76 593.69C720.16 593.65 719.897 593.34 719.97 592.76C719.995 592.546 720.092 592.347 720.244 592.195C720.397 592.042 720.596 591.946 720.81 591.92C723.443 591.58 726.01 591.014 728.51 590.22C729.017 590.06 729.023 589.884 728.53 589.69C726.803 588.997 725.217 589.27 723.77 590.51C723.483 590.757 723.15 590.874 722.77 590.86C717.523 590.72 712.74 590.887 708.42 591.36C703.52 591.9 698.907 592.097 694.58 591.95C693.6 591.917 692.92 591.447 692.54 590.54C692.367 590.107 692.207 589.674 692.06 589.24C691.713 588.18 692.1 587.64 693.22 587.62L699 587.55C699.113 587.55 699.19 587.497 699.23 587.39L699.39 586.99C699.43 586.89 699.397 586.844 699.29 586.85C695.77 586.95 692.25 586.22 688.75 586.69C684.503 587.264 680.04 587.744 675.36 588.13C675.087 588.15 674.98 588.027 675.04 587.76L675.1 587.49C675.193 587.044 675.463 586.787 675.91 586.72C686.87 584.99 699.58 583 710.93 582.78C711.283 582.774 711.367 582.62 711.18 582.32C709.62 579.727 708.813 576.874 708.76 573.76C708.58 562.307 708.397 550.027 708.21 536.92C708.207 536.689 708.113 536.467 707.949 536.304C707.784 536.142 707.562 536.05 707.33 536.05L662.31 536.06C662.235 536.06 662.16 536.075 662.091 536.104C662.022 536.133 661.959 536.175 661.907 536.228C661.854 536.282 661.814 536.345 661.787 536.414C661.76 536.483 661.747 536.556 661.75 536.63C662.043 547.024 661.903 559.934 661.33 575.36C661.13 580.77 655.52 582.82 651.2 584.17C649.84 584.59 649.823 585.06 651.15 585.58C721.737 613.107 790.56 640.457 857.62 667.63C859.01 668.19 862.26 669.41 862.42 671.14C862.513 672.174 862.043 672.714 861.01 672.76C850.63 673.267 840.357 674.054 830.19 675.12C775.903 680.787 721.977 690.964 668.41 705.65C666 706.31 663.43 706.4 661.08 707.14C588.093 730.087 514.457 753.334 440.17 776.88C435.837 778.254 431.6 779.66 427.46 781.1C426.987 781.26 426.52 781.234 426.06 781.02C424.787 780.414 423.527 779.834 422.28 779.28C405.34 771.767 388.483 764.257 371.71 756.75C320.797 733.957 271.2 709.307 222.92 682.8C210.493 675.98 196.73 668.327 181.63 659.84C181.17 659.587 180.697 659.384 180.21 659.23C179.87 659.124 179.53 659.11 179.19 659.19C176.67 659.77 174.27 659.997 171.99 659.87C170.63 659.79 170.593 659.527 171.88 659.08C173.62 658.48 175.493 658.05 177.5 657.79C177.613 657.777 177.667 657.714 177.66 657.6L177.63 657.33C177.63 657.264 177.597 657.23 177.53 657.23C171.643 657.104 165.91 657.367 160.33 658.02C159.807 658.085 159.275 657.961 158.83 657.67L158.52 657.48C158.073 657.194 158.107 656.98 158.62 656.84C163.12 655.66 167.693 654.934 172.34 654.66C172.573 654.647 172.687 654.524 172.68 654.29L172.67 653.95C172.67 653.864 172.623 653.82 172.53 653.82C168.157 653.767 163.857 654.107 159.63 654.84C157.29 655.25 155.52 653.91 153.18 654.12C150.893 654.32 148.64 654.287 146.42 654.02C146.04 653.974 145.79 653.77 145.67 653.41C145.403 652.617 145.653 652.097 146.42 651.85C149.88 650.737 153.74 649.854 158 649.2C158.027 649.194 158.04 649.177 158.04 649.15L158.07 648.88C158.09 648.72 158.02 648.65 157.86 648.67C147.873 649.797 137.863 649.887 127.83 648.94C127.463 648.907 127.287 648.704 127.3 648.33L127.32 647.99C127.34 647.63 127.527 647.467 127.88 647.5C135.467 648.207 143.32 648.38 151.44 648.02C153 647.96 154.37 647.42 155.94 647.55C158.153 647.73 160.35 647.877 162.53 647.99C162.543 647.99 162.55 647.984 162.55 647.97L162.59 647.67C162.59 647.63 162.57 647.607 162.53 647.6C160.697 647.167 158.813 646.797 156.88 646.49C155.487 646.264 154.08 646.35 152.66 646.75C150.26 647.42 148.01 646.45 145.54 646.64C141.76 646.927 138.213 646.39 134.9 645.03C133.953 644.644 132.97 644.327 131.95 644.08C131.877 644.06 131.837 644.014 131.83 643.94C131.823 643.84 131.853 643.76 131.92 643.7C131.96 643.667 132.01 643.647 132.07 643.64C133.077 643.56 133.967 643.84 134.74 644.48C135.02 644.707 135.333 644.857 135.68 644.93C139.053 645.644 142.417 645.834 145.77 645.5C147.87 645.29 149.7 645.78 151.75 645.59C151.817 645.584 151.85 645.547 151.85 645.48V645.47C151.85 645.397 151.817 645.354 151.75 645.34C150.39 645.067 149.07 644.934 147.79 644.94C143.49 644.98 138.49 644.79 134.53 643.3C133.05 642.75 131.25 643.55 129.59 643.42C126.53 643.2 123.463 643.177 120.39 643.35C120.057 643.37 119.903 643.214 119.93 642.88L119.95 642.56C119.967 642.386 120.047 642.225 120.174 642.107C120.302 641.988 120.467 641.922 120.64 641.92C127.373 641.82 134.487 641.377 141.98 640.59C145.43 640.23 148.62 640.67 152.02 641.4C152.08 641.414 152.123 641.39 152.15 641.33V641.32C152.197 641.207 152.163 641.124 152.05 641.07C149.11 639.7 145.51 638.42 143.94 635.39C143.886 635.285 143.854 635.17 143.848 635.051C143.842 634.933 143.86 634.815 143.903 634.704C143.945 634.594 144.011 634.494 144.095 634.41C144.179 634.327 144.279 634.262 144.39 634.22C160.857 628.02 177.563 622.28 194.51 617C236.67 603.867 280.007 595.304 324.52 591.31C330.853 590.737 337.417 590.297 344.21 589.99C360.497 589.237 377.73 588.48 395.91 587.72C402.3 587.45 408.34 585.96 414.57 584.58C451.503 576.367 490.627 568.227 531.94 560.16C547.03 557.22 560.84 555.57 575.54 557.37C575.967 557.424 576.147 557.237 576.08 556.81C575.087 550.377 574.63 543.794 574.71 537.06C574.717 536.4 574.39 536.07 573.73 536.07L471.26 536.3C471.114 536.301 470.974 536.354 470.864 536.449C470.754 536.545 470.681 536.676 470.66 536.82C465.25 575.71 421.02 577.54 391.04 577.73C385.467 577.764 380.433 578.087 375.94 578.7C368.227 579.74 360.527 580.54 352.84 581.1C352.779 581.106 352.717 581.098 352.659 581.078C352.601 581.058 352.548 581.026 352.503 580.984C352.458 580.941 352.422 580.89 352.397 580.832C352.372 580.775 352.36 580.713 352.36 580.65L352.35 580.38C352.35 580.007 352.533 579.837 352.9 579.87C356.033 580.124 359.107 579.647 362.12 578.44C362.26 578.387 362.283 578.3 362.19 578.18L361.98 577.89C361.917 577.81 361.834 577.75 361.74 577.716C361.646 577.683 361.545 577.677 361.45 577.7C356.777 578.96 353.623 579.65 351.99 579.77C344.843 580.284 337.69 580.81 330.53 581.35C329.463 581.43 329.437 581.307 330.45 580.98C332.557 580.287 334.84 579.934 337.3 579.92C338.3 579.91 339.09 579.38 340.03 579.18C340.523 579.08 340.563 578.884 340.15 578.59C339.863 578.39 339.56 578.307 339.24 578.34C332.947 578.994 326.657 579.647 320.37 580.3C316.843 580.667 314.143 580.81 312.27 580.73C311.757 580.704 311.38 580.464 311.14 580.01L311.02 579.78C311.001 579.741 310.991 579.697 310.991 579.653C310.992 579.609 311.003 579.566 311.023 579.527C311.044 579.488 311.073 579.454 311.109 579.429C311.145 579.403 311.186 579.387 311.23 579.38L321.26 578.01C321.493 577.977 321.55 577.86 321.43 577.66L321.27 577.37C321.257 577.357 321.243 577.354 321.23 577.36C318.61 577.84 315.77 578.35 313.08 578.26C305.86 578 298.627 577.907 291.38 577.98C290.367 577.994 290.14 577.577 290.7 576.73L291.19 575.99C291.459 575.585 291.831 575.261 292.268 575.052C292.705 574.842 293.189 574.755 293.67 574.8C296.117 575.027 298.477 574.83 300.75 574.21C302.47 573.74 304.06 574.2 305.82 574.13C306.947 574.084 306.96 573.934 305.86 573.68C303.87 573.23 300.36 571.91 298.49 573.01C298.163 573.21 297.81 573.3 297.43 573.28C293.19 573.06 289.287 573.51 285.72 574.63C284.067 575.15 282.56 575.014 281.2 574.22C281.112 574.168 281.04 574.093 280.992 574.003C280.944 573.913 280.921 573.812 280.926 573.71C280.931 573.608 280.964 573.51 281.021 573.425C281.078 573.34 281.157 573.273 281.25 573.23C283.19 572.35 284.63 571.934 285.57 571.98C287.837 572.1 287.877 572.457 285.69 573.05C285.377 573.137 284.72 573.317 283.72 573.59C283.647 573.61 283.617 573.66 283.63 573.74V573.75C283.643 573.83 283.69 573.864 283.77 573.85C285.69 573.644 287.51 573.257 289.23 572.69C290.61 572.237 292.767 572.027 295.7 572.06C295.74 572.06 295.76 572.04 295.76 572L295.78 571.71C295.793 571.59 295.74 571.52 295.62 571.5C293.033 571.054 290.48 571.28 287.96 572.18C287.653 572.294 287.393 572.224 287.18 571.97C286.773 571.497 286.257 571.277 285.63 571.31C279.077 571.664 272.847 572.047 266.94 572.46C266.68 572.474 266.543 572.35 266.53 572.09L266.51 571.8C266.483 571.467 266.633 571.287 266.96 571.26C271.82 570.807 276.697 570.397 281.59 570.03C285.82 569.72 289.77 568.58 294.01 569.33C294.203 569.364 294.283 569.287 294.25 569.1C294.243 569.067 294.243 569.034 294.25 569C294.263 568.96 294.25 568.93 294.21 568.91C280.59 562.957 272.24 552.707 269.16 538.16C269.102 537.879 268.948 537.628 268.725 537.449C268.502 537.27 268.224 537.175 267.94 537.18C252.82 537.4 238.017 537.417 223.53 537.23C222.25 537.21 220.84 537.087 219.3 536.86C218.787 536.78 218.74 536.897 219.16 537.21C220.84 538.45 221.98 539.83 221.99 542.06C222.037 551.354 221.907 560.697 221.6 570.09C221.56 571.39 221.107 572.53 220.24 573.51C213.65 580.99 200.95 584.26 191.11 584.82C179.69 585.467 167.97 585.99 155.95 586.39C154.57 586.437 153.157 586.424 151.71 586.35C148.41 586.197 145.083 586.067 141.73 585.96C136 585.77 130.66 587.15 124.9 587.14C124.573 587.14 124.28 587.044 124.02 586.85C123.887 586.757 123.807 586.63 123.78 586.47C123.713 586.124 123.85 585.907 124.19 585.82C127.657 584.907 130.957 583.88 134.09 582.74C135.57 582.207 137.183 581.93 138.93 581.91C139.003 581.91 139.007 581.897 138.94 581.87C137.793 581.464 136.643 581.387 135.49 581.64C133.31 582.114 131.073 582.66 128.78 583.28C124.9 584.33 120.83 584.26 116.84 584.72C116.635 584.745 116.427 584.711 116.241 584.621C116.055 584.532 115.898 584.391 115.79 584.215C115.682 584.039 115.626 583.836 115.629 583.63C115.633 583.423 115.696 583.222 115.81 583.05C117.023 581.184 118.527 580.317 120.32 580.45C120.567 580.47 120.793 580.414 121 580.28C121.62 579.874 122.357 579.657 123.21 579.63C123.81 579.604 123.83 579.484 123.27 579.27C122.99 579.164 122.703 579.15 122.41 579.23C122.077 579.317 121.813 579.36 121.62 579.36C113.633 579.347 105.27 579.257 96.5299 579.09C96.3445 579.087 96.1632 579.035 96.005 578.938C95.8468 578.841 95.7172 578.704 95.6299 578.54C95.3899 578.107 95.3666 577.717 95.5599 577.37C95.7666 576.997 96.0566 576.914 96.4299 577.12C97.1599 577.53 98.1099 577.78 98.9399 577.79C108.693 577.95 118.713 577.94 129 577.76C129.66 577.754 129.697 577.594 129.11 577.28C128.263 576.834 127.347 576.61 126.36 576.61C116.387 576.597 106.57 576.177 96.9099 575.35C96.7432 575.337 96.6666 575.247 96.6799 575.08L96.6899 574.8C96.6966 574.734 96.7332 574.7 96.7999 574.7C102.567 574.867 108.443 574.837 114.43 574.61C116.023 574.55 117.517 574.744 118.91 575.19C120.343 575.65 121.97 575.784 123.79 575.59C124.217 575.544 124.233 575.437 123.84 575.27C123.027 574.917 122.237 574.814 121.47 574.96C121.15 575.02 120.83 575.007 120.51 574.92C118.557 574.36 116.567 574.07 114.54 574.05C108.67 573.99 102.84 573.57 96.9799 573.22C96.6132 573.2 96.3732 573.014 96.2599 572.66C96.1932 572.434 96.0499 572.24 95.8299 572.08C95.6879 571.964 95.5078 571.9 95.3199 571.9L92.3799 571.86C92.1332 571.854 91.9699 571.734 91.8899 571.5C91.8366 571.327 91.8299 571.15 91.8699 570.97C91.9499 570.657 92.1532 570.487 92.4799 570.46C101.367 569.76 110.203 569.357 118.99 569.25C119.563 569.244 119.697 568.997 119.39 568.51C119.25 568.284 119.15 568.034 119.09 567.76C119.01 567.407 118.967 567.06 118.96 566.72C118.767 556.867 118.963 547.41 119.55 538.35C119.577 537.957 119.393 537.764 119 537.77L75.7399 537.83C75.4621 537.83 75.1935 537.733 74.9813 537.555C74.7692 537.378 74.627 537.132 74.5799 536.86C74.5466 536.66 74.5366 536.464 74.5499 536.27C74.5746 535.985 74.7046 535.719 74.915 535.524C75.1254 535.328 75.4014 535.216 75.6899 535.21L120.79 534.61C121.592 534.597 122.38 534.395 123.09 534.02C136.07 527.15 151.44 525.81 165.98 525.18C167.24 525.127 168.01 525.774 168.29 527.12C168.483 528.027 169.043 528.457 169.97 528.41C184.6 527.69 199.9 527.62 213.63 533.18C214.65 533.594 215.717 533.79 216.83 533.77C235.137 533.43 252.32 533.214 268.38 533.12C268.453 533.119 268.526 533.103 268.593 533.075C268.661 533.046 268.722 533.004 268.773 532.952C268.824 532.9 268.864 532.839 268.891 532.771C268.918 532.704 268.931 532.632 268.93 532.56C268.57 492.54 268.09 450.87 267.49 407.55C267.41 402.24 272.25 398.66 276.95 397.55C277.258 397.473 277.523 397.284 277.69 397.02C278.157 396.287 278.543 395.51 278.85 394.69C281.643 387.237 284.347 379.77 286.96 372.29C286.997 372.188 287.061 372.097 287.145 372.028C287.23 371.959 287.332 371.914 287.44 371.899C287.548 371.884 287.658 371.898 287.758 371.94C287.859 371.983 287.946 372.052 288.01 372.14L302.51 392.69C302.69 392.943 302.954 393.122 303.255 393.196C303.557 393.269 303.874 393.232 304.15 393.09C304.97 392.67 305.587 391.98 306 391.02C314 372.687 321.883 354.557 329.65 336.63C329.95 335.95 330.23 335.437 330.49 335.09C330.665 334.856 330.896 334.67 331.162 334.548C331.428 334.425 331.719 334.371 332.011 334.39C332.303 334.409 332.586 334.5 332.833 334.656C333.081 334.811 333.286 335.026 333.43 335.28L363.31 388.12C363.329 388.156 363.357 388.186 363.392 388.208C363.427 388.229 363.466 388.241 363.507 388.242C363.548 388.243 363.588 388.233 363.624 388.213C363.659 388.194 363.689 388.165 363.71 388.13L375.65 368.06C375.738 367.913 375.863 367.791 376.012 367.705C376.162 367.62 376.33 367.575 376.502 367.574C376.674 367.573 376.843 367.616 376.993 367.7C377.144 367.783 377.27 367.904 377.36 368.05L390.71 389.99C390.778 390.098 390.872 390.187 390.984 390.25C391.095 390.313 391.221 390.347 391.35 390.35C401.27 390.424 411.663 390.994 422.53 392.06C422.778 392.086 423.029 392.031 423.245 391.903C423.461 391.776 423.631 391.582 423.73 391.35C438.837 355.59 453.48 319.61 467.66 283.41C468.367 281.604 469.443 280.56 470.89 280.28C471.283 280.207 471.473 279.974 471.46 279.58C471.427 278.034 471.663 276.587 472.17 275.24C473.957 270.434 475.87 265.384 477.91 260.09C478.95 257.397 480.05 255.174 481.21 253.42C484.64 248.24 492.43 247.01 498.03 249.71C505.33 253.24 506.8 260.21 503.7 267.8C500.94 274.54 498.407 280.05 496.1 284.33C495.807 284.884 495.407 285.357 494.9 285.75C494.825 285.809 494.763 285.881 494.717 285.964C494.671 286.047 494.642 286.138 494.632 286.232C494.622 286.326 494.631 286.421 494.658 286.512C494.685 286.603 494.73 286.687 494.79 286.76C495.323 287.407 495.44 288.124 495.14 288.91C494.41 290.83 493.32 292.64 492.51 294.56C478.263 328.634 464.097 362.417 450.01 395.91C449.986 395.966 449.976 396.028 449.98 396.088C449.984 396.149 450.002 396.208 450.034 396.261C450.065 396.314 450.108 396.358 450.159 396.391C450.211 396.424 450.269 396.444 450.33 396.45C457.063 397.124 463.197 398.537 468.73 400.69C470.69 401.45 472.63 403.07 472.59 405.32C471.963 446.647 471.343 488.364 470.73 530.47C470.727 530.565 470.744 530.66 470.779 530.748C470.814 530.836 470.866 530.917 470.934 530.985C471.001 531.053 471.081 531.107 471.17 531.144C471.258 531.181 471.354 531.2 471.45 531.2L574.28 530.71C574.64 530.71 574.823 530.53 574.83 530.17C574.917 520.817 575.03 511.234 575.17 501.42C575.22 497.75 575.78 492.89 578.67 490.31C578.923 490.084 578.973 489.82 578.82 489.52C577.94 487.807 576.993 486.147 575.98 484.54C563.02 464 549.947 443.35 536.76 422.59C535.48 420.58 532.61 416.69 534.11 414.42C536.29 411.11 542.17 407.94 544.38 413.36C545.187 415.32 546.217 417.26 547.47 419.18C549.04 421.59 549.4 424.28 550.85 426.63C562.857 445.964 575.3 466.017 588.18 486.79C588.62 487.497 588.873 487.437 588.94 486.61ZM485.85 252.7C483.29 254.347 482.873 256.297 484.6 258.55C487.68 262.57 494.1 264.42 498.81 263.28C502.443 262.407 503.397 260.307 501.67 256.98C498.7 251.26 491.36 249.16 485.85 252.7ZM482.03 259.1C481.997 259.057 481.952 259.023 481.902 259.002C481.851 258.981 481.795 258.973 481.74 258.98C481.685 258.987 481.632 259.009 481.586 259.042C481.541 259.075 481.504 259.119 481.48 259.17C478.927 264.797 476.553 270.697 474.36 276.87C473.913 278.137 473.76 279.44 473.9 280.78C473.94 281.14 474.103 281.434 474.39 281.66C477.26 283.91 489 290.96 491.99 285.69C496.01 278.617 499.15 271.99 501.41 265.81C501.53 265.47 501.417 265.35 501.07 265.45C493.317 267.564 486.97 265.447 482.03 259.1ZM715.27 307.36C711.603 308.434 708.227 309.947 705.14 311.9C704.72 312.167 704.753 312.354 705.24 312.46C708.2 313.094 711.113 313.52 713.98 313.74C741.72 315.92 770.227 316.49 799.5 315.45C806.033 315.224 812.37 314.737 818.51 313.99C819.33 313.89 819.393 313.617 818.7 313.17C810.22 307.67 798.72 305.28 788.74 303.94C775.207 302.134 760.597 301.644 744.91 302.47C734.337 303.03 724.457 304.66 715.27 307.36ZM791.97 392.13C800.08 393.19 815.37 395.67 819.24 403.63C819.76 404.697 820.03 404.637 820.05 403.45C820.51 374.677 820.687 346.14 820.58 317.84C820.58 317.685 820.547 317.532 820.483 317.391C820.419 317.25 820.325 317.124 820.209 317.022C820.093 316.92 819.956 316.844 819.808 316.799C819.66 316.753 819.503 316.74 819.35 316.76C815.857 317.214 812.433 317.517 809.08 317.67C783.073 318.884 756.13 318.787 728.25 317.38C719.843 316.954 711.493 316.147 703.2 314.96C702.82 314.907 702.623 315.07 702.61 315.45C702.43 322.397 702.447 329.184 702.66 335.81C703.307 355.67 703.987 376.084 704.7 397.05C704.702 397.104 704.719 397.155 704.748 397.2C704.778 397.244 704.819 397.28 704.868 397.304C704.917 397.327 704.971 397.337 705.026 397.333C705.081 397.329 705.134 397.311 705.18 397.28C709.34 394.394 714.34 392.417 720.18 391.35C729.493 389.644 739.05 388.857 748.85 388.99C762.923 389.184 777.297 390.23 791.97 392.13ZM705.76 403.69C709.587 404.877 713.433 405.697 717.3 406.15C738.7 408.684 760.463 409.85 782.59 409.65C794.837 409.544 806.23 408.23 816.77 405.71C817.53 405.53 817.717 405.1 817.33 404.42C813.59 397.77 798.33 395.29 791.27 394.35C772.723 391.877 755.173 390.917 738.62 391.47C731.17 391.72 706.36 393.81 705.07 402.59C704.983 403.15 705.213 403.517 705.76 403.69ZM270.41 410.08C270.91 446.66 271.53 484.04 271.64 518.75C271.673 529.984 271.903 536.64 272.33 538.72C274.65 549.99 280.56 557.72 289.95 563.62C292.743 565.374 295.25 566.64 297.47 567.42C308.897 571.447 320.99 573.734 333.75 574.28C356.61 575.26 379.65 575.07 402.5 574.91C412.073 574.837 421.773 573.67 431.6 571.41C447.82 567.67 461.57 558.78 466.43 542.85C467.437 539.537 467.96 534.637 468 528.15C468.167 499.424 468.58 467.627 469.24 432.76C469.373 425.687 469.437 418.107 469.43 410.02C469.429 409.95 469.41 409.881 469.375 409.82C469.34 409.759 469.291 409.708 469.232 409.672C469.173 409.636 469.105 409.616 469.037 409.614C468.968 409.612 468.9 409.628 468.84 409.66C460.11 414.25 449.38 415.78 438.45 416.65C410.77 418.844 381.78 419.467 351.48 418.52C334.12 417.97 317.75 417.41 300.61 416.09C290.91 415.35 279.53 414.49 271.05 409.7C270.984 409.663 270.91 409.645 270.834 409.645C270.759 409.646 270.685 409.667 270.62 409.706C270.556 409.744 270.502 409.799 270.465 409.865C270.428 409.931 270.409 410.005 270.41 410.08ZM546.61 421.44C546.04 420.03 544.93 417.48 542.98 417.98C538.15 419.2 539.45 423.26 541.71 425.96C541.783 426.048 541.873 426.12 541.974 426.171C542.076 426.222 542.188 426.252 542.302 426.257C542.416 426.263 542.529 426.245 542.636 426.204C542.742 426.163 542.839 426.101 542.92 426.02L546.39 422.55C546.53 422.408 546.626 422.227 546.665 422.03C546.704 421.832 546.685 421.628 546.61 421.44ZM808.34 428.16C807.533 443.614 806.85 459.287 806.29 475.18C805.75 490.287 805.72 506.217 806.2 522.97C806.207 523.265 806.32 523.548 806.519 523.766C806.717 523.984 806.987 524.124 807.28 524.16L807.66 524.21C808.327 524.297 808.663 524.007 808.67 523.34L809.14 427.99C809.14 427.877 809.08 427.817 808.96 427.81H808.71C808.477 427.804 808.353 427.92 808.34 428.16ZM581.26 501.48C596.947 502.054 613.36 501.88 630.5 500.96C634.5 500.74 638.347 500.54 642.04 500.36C642.133 500.36 642.2 500.314 642.24 500.22C642.287 500.114 642.253 500.057 642.14 500.05C628.187 499.71 613.003 499.417 596.59 499.17C590.87 499.084 585.1 498.66 579.28 497.9C578.58 497.814 578.227 498.12 578.22 498.82C578.12 506.6 578.097 514.03 578.15 521.11C578.21 529.18 577.48 537.46 577.58 545.6C577.58 545.747 577.653 545.82 577.8 545.82H577.81C577.923 545.82 577.983 545.764 577.99 545.65C578.217 539.17 578.627 532.87 579.22 526.75C580.03 518.48 580.49 510.25 580.86 501.84C580.862 501.79 580.875 501.741 580.896 501.696C580.918 501.651 580.948 501.611 580.985 501.577C581.022 501.544 581.066 501.518 581.113 501.501C581.16 501.485 581.21 501.478 581.26 501.48ZM653.19 500.31C652.997 500.73 653.083 501.077 653.45 501.35C653.522 501.404 653.608 501.437 653.697 501.447C653.787 501.456 653.877 501.442 653.96 501.406C654.042 501.369 654.113 501.311 654.166 501.238C654.218 501.165 654.251 501.08 654.26 500.99C654.287 500.63 654.16 500.347 653.88 500.14C653.825 500.1 653.763 500.072 653.696 500.058C653.629 500.045 653.561 500.046 653.495 500.062C653.429 500.078 653.367 500.109 653.315 500.152C653.262 500.195 653.219 500.249 653.19 500.31ZM651.67 508.48L651.36 508.44C651.313 508.434 651.29 508.454 651.29 508.5C651.023 526.307 650.583 544.26 649.97 562.36C649.964 562.572 650.022 562.78 650.136 562.957C650.25 563.134 650.416 563.271 650.61 563.35L650.92 563.47C651.207 563.584 651.357 563.49 651.37 563.19C652.523 544.444 652.687 526.277 651.86 508.69C651.853 508.564 651.79 508.494 651.67 508.48ZM641.03 510.82C640.997 510.934 641.077 511.18 641.27 511.56C641.31 511.642 641.374 511.71 641.453 511.757C641.531 511.803 641.622 511.826 641.713 511.821C641.804 511.817 641.892 511.786 641.966 511.733C642.04 511.679 642.097 511.605 642.13 511.52C642.297 511.094 642.36 510.83 642.32 510.73C641.807 509.537 641.377 509.567 641.03 510.82ZM582.208 530.979C582.283 530.978 582.353 530.716 582.414 530.208C582.475 529.701 582.527 528.957 582.565 528.021C582.603 527.084 582.628 525.972 582.637 524.749C582.646 523.526 582.641 522.215 582.62 520.891C582.578 518.218 582.478 515.656 582.341 513.767C582.204 511.879 582.043 510.819 581.892 510.821C581.817 510.823 581.747 511.084 581.686 511.592C581.624 512.1 581.573 512.843 581.535 513.78C581.497 514.717 581.472 515.828 581.463 517.052C581.453 518.275 581.459 519.586 581.48 520.909C581.522 523.582 581.622 526.145 581.759 528.033C581.895 529.921 582.057 530.981 582.208 530.979ZM637.83 540.06C637.937 542.14 638.127 542.147 638.4 540.08C639.22 533.8 639.533 527.08 639.34 519.92C639.339 519.872 639.328 519.824 639.307 519.781C639.286 519.737 639.255 519.698 639.217 519.667C639.179 519.636 639.135 519.613 639.087 519.599C639.039 519.586 638.989 519.583 638.94 519.59L638.6 519.64C638.473 519.66 638.403 519.734 638.39 519.86C637.67 526.854 637.483 533.587 637.83 540.06ZM590.055 520.563C590.056 520.491 590.042 520.42 590.014 520.353C589.987 520.286 589.947 520.225 589.896 520.174C589.845 520.122 589.785 520.081 589.718 520.053C589.652 520.025 589.58 520.011 589.508 520.01L589.468 520.01C589.396 520.01 589.324 520.024 589.257 520.051C589.191 520.078 589.13 520.119 589.078 520.169C589.027 520.22 588.986 520.281 588.958 520.347C588.93 520.414 588.916 520.485 588.915 520.557L588.865 530.217C588.864 530.289 588.878 530.361 588.905 530.428C588.933 530.495 588.973 530.556 589.024 530.607C589.074 530.658 589.135 530.699 589.201 530.727C589.268 530.755 589.339 530.77 589.412 530.77L589.452 530.77C589.524 530.771 589.595 530.757 589.662 530.729C589.729 530.702 589.79 530.662 589.841 530.611C589.893 530.56 589.934 530.5 589.962 530.433C589.99 530.367 590.004 530.295 590.005 530.223L590.055 520.563ZM173.05 554.95C173.33 554.957 173.597 554.95 173.85 554.93C174.277 554.89 174.423 554.667 174.29 554.26L165.88 528.25C165.848 528.151 165.785 528.064 165.701 528.003C165.616 527.942 165.514 527.909 165.41 527.91C155.09 528.03 145.23 529.304 135.83 531.73C132.34 532.63 119.77 536.65 122.34 542.04C125.3 548.25 138.83 551.94 145.36 552.81C153.773 553.924 163.003 554.637 173.05 554.95ZM632.347 547.808C632.431 547.81 632.519 547.574 632.607 547.113C632.694 546.652 632.779 545.975 632.856 545.121C632.933 544.267 633.002 543.253 633.057 542.137C633.113 541.02 633.154 539.823 633.18 538.614C633.205 537.404 633.214 536.207 633.205 535.089C633.196 533.971 633.17 532.955 633.129 532.099C633.087 531.242 633.031 530.563 632.963 530.098C632.895 529.634 632.817 529.394 632.733 529.392C632.649 529.39 632.561 529.627 632.473 530.088C632.386 530.549 632.301 531.226 632.224 532.079C632.146 532.933 632.078 533.947 632.023 535.064C631.967 536.18 631.925 537.378 631.9 538.587C631.875 539.796 631.866 540.994 631.875 542.112C631.884 543.23 631.909 544.246 631.951 545.102C631.992 545.958 632.049 546.638 632.117 547.102C632.185 547.567 632.263 547.807 632.347 547.808ZM185.3 555.03C193.027 554.257 200.963 552.304 209.11 549.17C211.86 548.12 220.96 543.64 218.26 539.98C217.207 538.554 215.953 537.46 214.5 536.7C201.42 529.84 185.04 530.35 170.31 530.95C169.823 530.97 169.653 531.214 169.8 531.68L177.64 556.1C177.701 556.292 177.715 556.496 177.681 556.694C177.646 556.893 177.565 557.08 177.444 557.241C177.322 557.401 177.164 557.531 176.983 557.617C176.801 557.704 176.601 557.746 176.4 557.74C166.333 557.394 156.853 556.757 147.96 555.83C138.63 554.86 129.89 552.3 122.39 546.82C121.923 546.48 121.7 546.597 121.72 547.17C121.86 551.877 121.827 557.02 121.62 562.6C121.24 572.91 137.34 577.57 145.56 579.2C159.347 581.927 173.863 582.987 189.11 582.38C197.063 582.06 204.42 580.257 211.18 576.97C213.97 575.62 218.87 572.46 218.96 568.91C219.153 561.757 219.277 554.304 219.33 546.55C219.33 546.49 219.313 546.431 219.28 546.38C219.247 546.329 219.201 546.289 219.145 546.265C219.09 546.24 219.029 546.233 218.969 546.242C218.91 546.252 218.854 546.279 218.81 546.32C217.45 547.58 216.12 548.92 214.45 549.68C204.863 554.034 195.233 556.42 185.56 556.84C185.404 556.849 185.251 556.796 185.133 556.693C185.016 556.59 184.943 556.446 184.93 556.29L184.86 555.57C184.827 555.244 184.973 555.064 185.3 555.03ZM627.64 568.13L628.58 568.14C628.639 568.14 628.696 568.117 628.739 568.076C628.782 568.035 628.807 567.979 628.81 567.92L628.86 563.95C628.89 561.458 628.907 558.991 628.907 556.689C628.908 554.387 628.894 552.296 628.865 550.535C628.836 548.775 628.794 547.38 628.74 546.43C628.685 545.48 628.621 544.994 628.55 545H628.23C628.087 545.011 627.925 547.01 627.781 550.558C627.637 554.107 627.521 558.916 627.46 563.93L627.41 567.9C627.41 567.961 627.434 568.02 627.477 568.063C627.52 568.106 627.579 568.13 627.64 568.13ZM531.36 563.06C490.58 571 450.017 579.54 409.67 588.68C408.983 588.84 408.94 589.104 409.54 589.47C410.113 589.824 410.71 590.13 411.33 590.39C498.1 627.2 579.55 661.81 664.69 701.04C666.11 701.7 667.28 702.94 668.98 702.48C687.533 697.42 706.27 692.667 725.19 688.22C756.157 680.947 787.533 675.24 819.32 671.1C829.193 669.814 839.377 668.814 849.87 668.1C850.557 668.054 850.593 667.867 849.98 667.54C848.26 666.63 846.28 666.12 844.42 665.36C822.727 656.527 802.143 648.25 782.67 640.53C731.383 620.204 681.233 600.367 632.22 581.02C615.83 574.55 599.58 568.47 582.92 561.79C581.007 561.024 578.93 560.494 576.69 560.2C565.543 558.727 554.127 559 542.44 561.02C538.807 561.647 535.113 562.327 531.36 563.06ZM817.04 564.95C799.86 576.17 778.87 578.19 758.24 576.34C742.08 574.89 725.15 571.72 711.61 563.62C711.27 563.42 711.1 563.517 711.1 563.91C711.08 568.21 711.313 572.387 711.8 576.44C712.06 578.62 713.15 580.59 715.08 581.71C725.21 587.57 738.3 589.45 750.23 590.06C764.117 590.78 777.51 590.544 790.41 589.35C797.7 588.67 806.07 587.2 811.5 582.15C815.77 578.18 817.03 571.06 817.61 565.3C817.657 564.787 817.467 564.67 817.04 564.95ZM119.87 572.03V571.59C119.87 571.571 119.866 571.551 119.858 571.533C119.851 571.515 119.84 571.498 119.826 571.484C119.812 571.47 119.796 571.459 119.777 571.452C119.759 571.444 119.74 571.44 119.72 571.44H119.58C113.551 571.377 107.767 571.355 103.496 571.38C99.2243 571.404 96.813 571.473 96.7899 571.57C96.7787 571.619 97.36 571.673 98.5003 571.73C99.6406 571.787 101.318 571.846 103.435 571.902C105.552 571.959 108.068 572.013 110.839 572.06C113.61 572.108 116.58 572.149 119.58 572.18H119.72C119.74 572.18 119.759 572.176 119.777 572.169C119.796 572.161 119.812 572.15 119.826 572.136C119.84 572.122 119.851 572.106 119.858 572.088C119.866 572.069 119.87 572.05 119.87 572.03ZM297 571.77C296.593 571.857 296.573 572 296.94 572.2C297.367 572.44 297.837 572.51 298.35 572.41C298.77 572.324 298.793 572.174 298.42 571.96C298 571.714 297.527 571.65 297 571.77ZM313.04 574.53L292.35 575.73C292.19 575.738 292.039 575.809 291.931 575.926C291.822 576.044 291.764 576.2 291.77 576.36V576.71C291.777 576.89 291.867 576.977 292.04 576.97C299.33 576.95 306.27 576.98 313.15 575.27C315.743 574.624 315.707 574.377 313.04 574.53ZM116.31 575.49C116.437 575.584 116.56 575.587 116.68 575.5C116.715 575.473 116.742 575.437 116.759 575.396C116.776 575.355 116.783 575.31 116.778 575.266C116.773 575.222 116.757 575.18 116.731 575.144C116.705 575.108 116.67 575.079 116.63 575.06C116.537 575.02 116.443 575.024 116.35 575.07C116.311 575.087 116.278 575.113 116.254 575.147C116.229 575.181 116.214 575.222 116.21 575.264C116.206 575.306 116.213 575.35 116.231 575.389C116.248 575.429 116.276 575.464 116.31 575.49ZM346.954 577.478C346.939 577.406 346.867 577.346 346.744 577.303C346.62 577.259 346.447 577.232 346.234 577.223C346.02 577.214 345.771 577.223 345.501 577.25C345.23 577.278 344.943 577.322 344.656 577.382C344.37 577.441 344.089 577.514 343.829 577.597C343.57 577.679 343.338 577.769 343.145 577.862C342.953 577.955 342.805 578.049 342.709 578.138C342.613 578.227 342.571 578.31 342.586 578.382C342.601 578.454 342.672 578.514 342.796 578.558C342.919 578.602 343.093 578.629 343.306 578.638C343.519 578.647 343.768 578.637 344.039 578.61C344.31 578.583 344.597 578.538 344.884 578.479C345.17 578.419 345.451 578.346 345.711 578.264C345.97 578.181 346.202 578.091 346.394 577.998C346.587 577.905 346.735 577.812 346.831 577.722C346.927 577.633 346.969 577.55 346.954 577.478ZM125.53 579.61C125.297 579.657 125.297 579.7 125.53 579.74C126.103 579.834 126.75 579.857 127.47 579.81C127.837 579.784 127.84 579.727 127.48 579.64C126.88 579.5 126.23 579.49 125.53 579.61ZM120.22 582.07C119.98 582.064 119.793 582.177 119.66 582.41C119.487 582.724 119.57 582.824 119.91 582.71L122.25 581.89C122.306 581.875 122.354 581.839 122.385 581.789C122.416 581.74 122.426 581.68 122.415 581.623C122.404 581.566 122.371 581.515 122.323 581.481C122.276 581.447 122.218 581.433 122.16 581.44C121.7 581.474 121.253 581.627 120.82 581.9C120.633 582.02 120.433 582.077 120.22 582.07ZM126.1 581.56C126.04 581.56 125.993 581.587 125.96 581.64C125.907 581.747 125.94 581.807 126.06 581.82C126.227 581.834 126.377 581.794 126.51 581.7C126.552 581.676 126.584 581.638 126.601 581.593C126.618 581.548 126.619 581.498 126.603 581.452C126.588 581.407 126.558 581.368 126.517 581.342C126.476 581.316 126.428 581.305 126.38 581.31C126.267 581.317 126.197 581.38 126.17 581.5C126.163 581.54 126.14 581.56 126.1 581.56ZM125.14 581.84C125.067 581.854 125.007 581.89 124.96 581.95C124.78 582.184 124.857 582.194 125.19 581.98C125.39 581.854 125.373 581.807 125.14 581.84ZM140.29 582.05C140.29 582.05 140.323 582.054 140.39 582.06C140.43 582.067 140.437 582.054 140.41 582.02C140.363 581.967 140.317 581.96 140.27 582C140.23 582.034 140.237 582.05 140.29 582.05ZM143.95 581.86C143.874 581.891 143.807 581.941 143.755 582.004C143.702 582.067 143.667 582.141 143.651 582.221C143.635 582.301 143.639 582.383 143.663 582.459C143.688 582.536 143.731 582.605 143.79 582.66C144.123 582.98 144.54 583.037 145.04 582.83C145.111 582.802 145.175 582.757 145.225 582.699C145.275 582.64 145.31 582.57 145.327 582.495C145.343 582.42 145.342 582.342 145.321 582.268C145.301 582.194 145.263 582.126 145.21 582.07C144.897 581.73 144.477 581.66 143.95 581.86ZM117.79 582.88C117.55 582.794 117.483 582.867 117.59 583.1C117.608 583.136 117.636 583.166 117.669 583.185C117.703 583.205 117.742 583.214 117.78 583.21C118.093 583.184 118.28 583.037 118.34 582.77C118.36 582.684 118.327 582.634 118.24 582.62C118.133 582.607 118.057 582.664 118.01 582.79C117.963 582.89 117.89 582.92 117.79 582.88ZM717.991 586.712C717.992 586.677 717.985 586.642 717.973 586.609C717.96 586.576 717.941 586.545 717.916 586.52C717.892 586.494 717.862 586.474 717.83 586.459C717.797 586.445 717.762 586.437 717.727 586.436L700.451 586.044C700.38 586.043 700.31 586.07 700.259 586.119C700.207 586.169 700.177 586.237 700.175 586.308L700.169 586.588C700.168 586.624 700.174 586.659 700.187 586.692C700.2 586.725 700.219 586.755 700.244 586.781C700.268 586.806 700.298 586.827 700.33 586.841C700.362 586.856 700.397 586.863 700.433 586.864L717.708 587.256C717.78 587.258 717.849 587.231 717.901 587.181C717.953 587.132 717.983 587.064 717.984 586.992L717.991 586.712ZM692.96 589.29L693.07 591.05C693.071 591.069 693.076 591.087 693.084 591.103C693.093 591.12 693.104 591.134 693.118 591.146C693.132 591.159 693.148 591.168 693.165 591.174C693.183 591.179 693.201 591.182 693.22 591.18L693.39 591.17C697.392 590.925 701.353 590.66 705.045 590.39C708.737 590.119 712.086 589.849 714.901 589.594C717.716 589.339 719.94 589.105 721.445 588.906C722.949 588.706 723.706 588.544 723.67 588.43L723.65 588.15C723.604 587.92 720.381 587.894 714.687 588.077C708.994 588.261 701.293 588.64 693.27 589.13L693.1 589.14C693.081 589.14 693.062 589.144 693.044 589.152C693.026 589.159 693.01 589.171 692.997 589.185C692.984 589.199 692.974 589.215 692.968 589.234C692.961 589.252 692.959 589.271 692.96 589.29ZM148.8 635.81C166.033 646.81 183.917 657.54 202.45 668C273.27 707.987 346.097 743.697 420.93 775.13C422.86 775.94 424.66 777.24 426.65 777.8C427.01 777.9 427.367 777.9 427.72 777.8C432.4 776.4 437.26 774.9 442.3 773.3C513.953 750.52 584.077 728.377 652.67 706.87C654.257 706.377 655.89 705.97 657.57 705.65C658.95 705.384 659.003 704.957 657.73 704.37C655.14 703.17 652.42 702.3 649.82 701.1C626.72 690.45 603.67 679.65 580.41 669.37C542.57 652.65 504.457 635.967 466.07 619.32C446.66 610.91 427.59 602.29 407.91 593.56C406.07 592.747 404.107 591.8 402.02 590.72C401.482 590.445 400.883 590.311 400.28 590.33C383.053 590.937 365.957 591.66 348.99 592.5C299.263 594.96 250.583 603.284 202.95 617.47C186.137 622.477 168.92 628.204 151.3 634.65C150.527 634.93 149.72 635.164 148.88 635.35C148.487 635.437 148.46 635.59 148.8 635.81ZM156.04 644.37L156.09 643.55C156.091 643.534 156.089 643.517 156.084 643.501C156.078 643.485 156.07 643.471 156.058 643.459C156.047 643.447 156.034 643.437 156.018 643.43C156.003 643.424 155.987 643.42 155.97 643.42L152.81 643.24C148.236 642.976 143.843 642.765 140.581 642.65C137.319 642.536 135.451 642.529 135.38 642.63L135.37 642.89C135.325 642.941 135.742 643.018 136.595 643.116C137.448 643.215 138.721 643.334 140.339 643.465C141.957 643.596 143.888 643.738 146.019 643.881C148.15 644.024 150.438 644.167 152.75 644.3L155.91 644.48C155.926 644.482 155.942 644.48 155.957 644.475C155.972 644.47 155.986 644.462 155.998 644.452C156.01 644.442 156.02 644.43 156.027 644.415C156.034 644.401 156.039 644.386 156.04 644.37ZM158.62 645.88C158.8 645.9 158.977 645.904 159.15 645.89C159.21 645.884 159.21 645.874 159.15 645.86C158.983 645.834 158.807 645.84 158.62 645.88ZM155.45 653.7L155.51 653.94C155.511 653.948 155.514 653.956 155.518 653.963C155.522 653.969 155.528 653.975 155.534 653.98C155.541 653.985 155.548 653.988 155.556 653.99C155.564 653.992 155.572 653.992 155.58 653.99C160.407 652.677 165.163 652.29 169.85 652.83C170.43 652.897 170.47 652.777 169.97 652.47C168.777 651.744 167.6 651.424 166.44 651.51C163.347 651.744 159.743 652.377 155.63 653.41C155.477 653.45 155.417 653.547 155.45 653.7ZM173.97 654.96C173.797 654.84 173.603 654.8 173.39 654.84C173.143 654.887 173.14 654.944 173.38 655.01C174.093 655.197 174.29 655.18 173.97 654.96Z" fill="#0055CC"/>
<path d="M763.128 335.539C763.635 337.701 765.668 339.073 767.668 338.604C769.668 338.135 770.879 336.002 770.372 333.841C769.865 331.679 767.832 330.307 765.832 330.776C763.832 331.245 762.621 333.378 763.128 335.539Z" fill="#0055CC"/>
<path d="M728.73 358.5C732.795 358.5 736.09 355.205 736.09 351.14C736.09 347.075 732.795 343.78 728.73 343.78C724.665 343.78 721.37 347.075 721.37 351.14C721.37 355.205 724.665 358.5 728.73 358.5Z" fill="#0055CC"/>
<path d="M750.171 349.712C750.333 351.555 751.801 352.932 753.452 352.788C755.102 352.643 756.31 351.032 756.148 349.189C755.987 347.346 754.518 345.969 752.868 346.113C751.217 346.257 750.01 347.869 750.171 349.712Z" fill="#0055CC"/>
<path d="M788.14 362.87C790.316 362.87 792.08 361.106 792.08 358.93C792.08 356.754 790.316 354.99 788.14 354.99C785.964 354.99 784.2 356.754 784.2 358.93C784.2 361.106 785.964 362.87 788.14 362.87Z" fill="#0055CC"/>
<path d="M773.87 364C773.63 362.973 773.95 362.083 774.83 361.33C775.035 361.156 775.28 361.036 775.544 360.98C775.807 360.925 776.08 360.936 776.338 361.012C776.596 361.088 776.831 361.228 777.022 361.418C777.212 361.608 777.353 361.842 777.43 362.1C777.77 363.26 778.32 364.31 779.08 365.25C779.254 365.465 779.341 365.738 779.322 366.013C779.304 366.287 779.181 366.544 778.98 366.73C777.54 368.083 775.727 368.517 773.54 368.03C773.213 367.957 773.01 367.76 772.93 367.44C772.67 366.393 772.893 365.544 773.6 364.89C773.867 364.644 773.957 364.347 773.87 364Z" fill="#0055CC"/>
<path d="M762.76 367.55C764.262 367.55 765.48 366.333 765.48 364.83C765.48 363.328 764.262 362.11 762.76 362.11C761.258 362.11 760.04 363.328 760.04 364.83C760.04 366.333 761.258 367.55 762.76 367.55Z" fill="#0055CC"/>
<path d="M771.111 378.735C770.389 380.42 771.083 382.335 772.662 383.012C774.241 383.688 776.106 382.871 776.828 381.185C777.551 379.5 776.856 377.585 775.278 376.909C773.699 376.232 771.834 377.05 771.111 378.735Z" fill="#0055CC"/>
<path d="M967.997 573.237L886.422 572.383C885.919 572.378 885.508 572.781 885.502 573.283L885.502 573.343C885.497 573.846 885.9 574.258 886.402 574.263L967.978 575.117C968.48 575.123 968.892 574.719 968.897 574.217L968.898 574.157C968.903 573.654 968.5 573.243 967.997 573.237Z" fill="#0055CC"/>
<path d="M623.268 587.988L533.649 612.001C533.116 612.144 532.799 612.693 532.942 613.226L532.947 613.245C533.09 613.779 533.639 614.096 534.172 613.953L623.791 589.939C624.324 589.796 624.641 589.248 624.498 588.715L624.493 588.695C624.35 588.162 623.801 587.845 623.268 587.988Z" fill="#0055CC"/>
<path d="M935.572 593.629L888.027 594.791C887.574 594.803 887.216 595.179 887.227 595.631L887.228 595.671C887.239 596.124 887.615 596.482 888.068 596.471L935.613 595.309C936.066 595.298 936.424 594.922 936.413 594.469L936.412 594.429C936.401 593.976 936.025 593.618 935.572 593.629Z" fill="#0055CC"/>
<path d="M647.33 601.283L555.533 626.052C554.967 626.204 554.633 626.786 554.785 627.351L554.791 627.37C554.943 627.936 555.525 628.27 556.09 628.118L647.887 603.349C648.453 603.196 648.787 602.615 648.635 602.049L648.629 602.03C648.477 601.465 647.895 601.13 647.33 601.283Z" fill="#0055CC"/>
<path d="M662.488 610.488L638.848 617C638.358 617.135 638.07 617.641 638.205 618.131L638.221 618.189C638.356 618.679 638.863 618.967 639.352 618.832L662.992 612.32C663.482 612.185 663.77 611.679 663.635 611.189L663.619 611.131C663.484 610.641 662.977 610.353 662.488 610.488Z" fill="#0055CC"/>
<path d="M512.127 615.375C511.737 618.047 513.003 620.444 514.954 620.729C516.905 621.014 518.803 619.078 519.193 616.406C519.582 613.733 518.317 611.336 516.366 611.052C514.415 610.767 512.517 612.703 512.127 615.375Z" fill="#0055CC"/>
<path d="M455.416 618.341L278.662 665.041C278.336 665.128 278.142 665.461 278.228 665.787L278.238 665.826C278.324 666.151 278.658 666.346 278.983 666.26L455.738 619.559C456.064 619.473 456.258 619.139 456.172 618.813L456.162 618.775C456.076 618.449 455.742 618.255 455.416 618.341Z" fill="#0055CC"/>
<path d="M611.506 624.453L590.71 630.22C590.2 630.361 589.9 630.89 590.042 631.401L590.053 631.44C590.194 631.951 590.723 632.25 591.234 632.108L612.029 626.341C612.54 626.2 612.84 625.671 612.698 625.16L612.687 625.121C612.546 624.61 612.017 624.311 611.506 624.453Z" fill="#0055CC"/>
<path d="M693.618 624.272L602.223 648.762C601.652 648.915 601.313 649.501 601.466 650.072L601.471 650.091C601.624 650.662 602.211 651.001 602.782 650.848L694.177 626.359C694.748 626.206 695.087 625.619 694.934 625.048L694.929 625.029C694.776 624.458 694.189 624.119 693.618 624.272Z" fill="#0055CC"/>
<path d="M539.468 629.936C539.691 632.167 541.511 633.812 543.533 633.61C545.555 633.409 547.014 631.436 546.792 629.205C546.569 626.974 544.749 625.329 542.727 625.531C540.704 625.732 539.245 627.705 539.468 629.936Z" fill="#0055CC"/>
<path d="M477.965 631.819L297.121 680.954C296.732 681.059 296.502 681.46 296.608 681.849L296.619 681.888C296.724 682.277 297.125 682.507 297.514 682.401L478.359 633.267C478.748 633.161 478.977 632.76 478.872 632.371L478.861 632.332C478.755 631.943 478.354 631.714 477.965 631.819Z" fill="#0055CC"/>
<path d="M560.413 638.643C559.767 640.657 560.786 642.785 562.689 643.397C564.593 644.008 566.66 642.871 567.307 640.857C567.953 638.843 566.934 636.715 565.031 636.103C563.127 635.492 561.06 636.629 560.413 638.643Z" fill="#0055CC"/>
<path d="M717.577 637.411L632.808 660.125C632.221 660.282 631.873 660.885 632.03 661.472L632.035 661.492C632.192 662.078 632.795 662.427 633.382 662.269L718.152 639.555C718.739 639.398 719.087 638.795 718.93 638.208L718.925 638.189C718.767 637.602 718.164 637.254 717.577 637.411Z" fill="#0055CC"/>
<path d="M497.569 642.724L465.283 651.435C464.835 651.556 464.57 652.017 464.691 652.465L464.701 652.504C464.822 652.952 465.283 653.217 465.731 653.096L498.017 644.385C498.465 644.264 498.73 643.803 498.609 643.355L498.598 643.316C498.478 642.868 498.016 642.603 497.569 642.724Z" fill="#0055CC"/>
<path d="M583.831 650.439C583.591 652.613 584.986 654.55 586.945 654.767C588.905 654.983 590.688 653.396 590.928 651.222C591.168 649.048 589.774 647.111 587.814 646.894C585.855 646.678 584.071 648.265 583.831 650.439Z" fill="#0055CC"/>
<path d="M737.147 648.09L708.491 655.822C707.964 655.965 707.651 656.508 707.794 657.036L707.82 657.132C707.962 657.66 708.505 657.973 709.033 657.83L737.689 650.099C738.216 649.956 738.529 649.413 738.386 648.885L738.36 648.788C738.218 648.26 737.675 647.948 737.147 648.09Z" fill="#0055CC"/>
<path d="M432.6 661.92C428.22 663.914 423.903 665.407 419.65 666.4C404.003 670.074 389.25 673.95 375.39 678.03C375.203 678.084 375.06 678.027 374.96 677.86L374.8 677.58C374.726 677.454 374.756 677.357 374.89 677.29C375.87 676.81 376.94 676.19 377.98 675.88C397.226 670.214 416.54 664.827 435.92 659.72C436.286 659.627 436.453 659.767 436.42 660.14L436.4 660.48C436.393 660.594 436.333 660.664 436.22 660.69C434.906 661.017 433.7 661.427 432.6 661.92Z" fill="#0055CC"/>
<path d="M354.26 708.76C354.006 708.833 353.893 708.74 353.92 708.48L353.99 707.78C354.016 707.547 354.14 707.397 354.36 707.33C363.233 704.643 371.743 702.163 379.89 699.89C427.276 686.697 475.763 673.4 525.35 660C525.656 659.92 525.846 660.037 525.92 660.35L526 660.69C526.113 661.197 525.92 661.517 525.42 661.65C468.426 676.937 411.373 692.64 354.26 708.76Z" fill="#0055CC"/>
<path d="M612.747 664.385C612.265 666.632 613.389 668.777 615.258 669.178C617.126 669.579 619.031 668.082 619.513 665.836C619.995 663.589 618.87 661.443 617.002 661.043C615.133 660.642 613.228 662.139 612.747 664.385Z" fill="#0055CC"/>
<path d="M679.261 663.567L661.802 668.343C661.285 668.485 660.981 669.018 661.122 669.535L661.128 669.554C661.269 670.071 661.803 670.375 662.319 670.234L679.778 665.458C680.294 665.316 680.599 664.783 680.457 664.266L680.452 664.247C680.311 663.73 679.777 663.426 679.261 663.567Z" fill="#0055CC"/>
<path d="M259.172 670.708C258.919 673.002 260.347 675.043 262.361 675.265C264.376 675.488 266.214 673.808 266.468 671.513C266.721 669.219 265.293 667.178 263.279 666.956C261.264 666.733 259.425 668.413 259.172 670.708Z" fill="#0055CC"/>
<path d="M636.095 676.61C637.056 679.063 639.378 680.447 641.28 679.702C643.183 678.956 643.946 676.363 642.985 673.91C642.024 671.458 639.702 670.074 637.799 670.819C635.897 671.565 635.134 674.158 636.095 676.61Z" fill="#0055CC"/>
<path d="M645.53 770.96C640.763 769.767 635.753 768.097 630.5 765.95C629 765.344 627.696 764.614 626.59 763.76C626.337 763.565 626.168 763.281 626.116 762.968C626.064 762.654 626.133 762.333 626.31 762.07C628.08 759.44 630.45 756.97 632.99 755.17C642.79 748.21 653.04 742.23 663.74 737.23C668.34 735.08 673.24 733.93 678.14 732.66C755.04 712.7 831.983 692.727 908.97 672.74C910.14 672.44 911.24 672.34 912.11 673.37C912.405 673.724 912.802 673.978 913.246 674.096C913.691 674.215 914.16 674.192 914.59 674.03C916.816 673.197 919.283 672.834 921.99 672.94C929.22 673.23 935.26 675.5 936.04 683.8C936.75 691.45 934.76 701.24 928.23 706.01C926.616 707.184 925.203 707.074 923.99 705.68C923.783 705.44 923.606 705.46 923.46 705.74C923.13 706.37 923.2 707.18 922.73 707.73C921.19 709.53 916.84 709.29 914.53 710.02C914.196 710.127 913.933 710.327 913.74 710.62C908.1 718.98 900.31 722.49 891.28 724.9C881.766 727.434 873.09 730.007 865.25 732.62C858.92 734.74 852.79 736.08 846.41 737.57C843.963 738.144 841.373 738.8 838.64 739.54C829.786 741.934 819.95 744.504 809.13 747.25C800.523 749.437 790.45 752.277 778.91 755.77C772.99 757.57 766.543 759.35 759.57 761.11C744.563 764.91 729.373 768.94 714 773.2C713.801 773.258 713.59 773.264 713.387 773.217C713.184 773.17 712.996 773.071 712.84 772.93L712.6 772.72C712.558 772.683 712.528 772.636 712.51 772.583C712.493 772.53 712.489 772.473 712.501 772.419C712.512 772.364 712.537 772.314 712.574 772.272C712.61 772.23 712.657 772.198 712.71 772.18C720.396 769.627 728.166 767.1 736.02 764.6C744.62 761.87 753.63 759.79 762.56 757.09C775.173 753.284 788.326 749.52 802.02 745.8C805.3 744.907 808.753 743.83 812.38 742.57C812.606 742.497 812.756 742.347 812.83 742.12C812.851 742.058 812.854 741.992 812.839 741.929C812.824 741.865 812.792 741.807 812.746 741.759C812.7 741.712 812.641 741.678 812.577 741.661C812.512 741.643 812.444 741.643 812.38 741.66C799.02 745.43 784.67 748.49 771 752.66C759.253 756.247 747.053 759.827 734.4 763.4C728.46 765.074 713.803 769.53 690.43 776.77C690.381 776.786 690.329 776.79 690.278 776.782C690.227 776.773 690.178 776.754 690.137 776.723C690.095 776.693 690.061 776.654 690.037 776.608C690.013 776.562 690 776.512 690 776.46L689.99 776.13C689.97 775.67 690.176 775.36 690.61 775.2C700.876 771.427 711.293 768.007 721.86 764.94C744.76 758.3 765.58 752.394 784.32 747.22C792.12 745.067 801.2 742.774 811.56 740.34C811.595 740.332 811.628 740.317 811.657 740.296C811.686 740.275 811.71 740.248 811.729 740.217C811.748 740.187 811.76 740.152 811.765 740.117C811.771 740.081 811.769 740.045 811.76 740.01C811.726 739.87 811.636 739.804 811.49 739.81C810.15 739.844 808.826 740.014 807.52 740.32C802.46 741.507 797.6 742.72 792.94 743.96C782.94 746.627 772.336 749.367 761.13 752.18C737.023 758.234 712.233 764.587 686.76 771.24C682 772.487 677.036 773.947 671.87 775.62C666.536 777.347 661.516 778.64 656.81 779.5C648.023 781.12 638.726 782.937 628.92 784.95C628.62 785.017 628.5 784.897 628.56 784.59L628.62 784.3C628.658 784.102 628.755 783.92 628.897 783.778C629.04 783.635 629.222 783.538 629.42 783.5C632.56 782.887 635.54 782.057 638.36 781.01C639.26 780.677 639.236 780.577 638.29 780.71C628.123 782.177 617.903 784.297 607.63 787.07C607.423 787.124 607.29 787.047 607.23 786.84C607.116 786.46 607.21 786.134 607.51 785.86C608.03 785.394 608.526 785.087 609 784.94C623.306 780.414 637.133 776.427 650.48 772.98C651.193 772.794 651.18 772.687 650.44 772.66C646.52 772.51 642.54 774.04 638.82 775.04C636.64 775.627 634.393 776.147 632.08 776.6C626.686 777.647 621.473 778.957 616.44 780.53C616.293 780.578 616.134 780.57 615.993 780.507C615.851 780.445 615.736 780.332 615.67 780.19C615.403 779.617 615.563 779.224 616.15 779.01C626.183 775.35 635.97 772.764 645.51 771.25C645.97 771.177 645.976 771.08 645.53 770.96ZM924.66 703.65C928.78 698.71 930.44 693.247 929.64 687.26C928.81 681.12 924.19 675.58 917.37 676.36C917.285 676.369 917.204 676.401 917.136 676.454C917.069 676.506 917.017 676.576 916.987 676.656C916.957 676.736 916.949 676.822 916.966 676.906C916.982 676.99 917.022 677.068 917.08 677.13C923.97 684.78 924.71 693.99 924.09 703.87C924.043 704.617 924.17 704.647 924.47 703.96C924.516 703.854 924.58 703.75 924.66 703.65ZM910.9 707.31C908.61 704.01 906.26 701.54 901.82 701.93C898.27 702.23 894.32 703 891.87 705.82C890.096 707.86 888.083 709.2 885.83 709.84C867.616 715.02 848.233 720.337 827.68 725.79C823.52 726.9 816.14 728.68 815.37 733.51C815.361 733.557 815.365 733.605 815.38 733.65C815.395 733.695 815.421 733.735 815.456 733.767C815.491 733.799 815.534 733.822 815.58 733.833C815.626 733.844 815.674 733.843 815.72 733.83L910.56 708.24C911.12 708.094 911.233 707.784 910.9 707.31ZM815.77 741.16C815.876 741.947 816.313 742.244 817.08 742.05C840.08 736.264 863.883 729.837 888.49 722.77C896.61 720.43 903.54 718.62 908.96 712.25C909.586 711.517 909.433 711.274 908.5 711.52L816.25 736.09C815.503 736.29 815.18 736.774 815.28 737.54L815.77 741.16ZM666.03 739.18C653.81 744.71 640.42 752.45 629.81 761.65C629.759 761.695 629.719 761.753 629.696 761.817C629.672 761.881 629.665 761.95 629.675 762.017C629.685 762.085 629.712 762.149 629.753 762.204C629.794 762.258 629.848 762.302 629.91 762.33C640.063 767.064 650.733 770.114 661.92 771.48C664.3 771.767 667.766 771.91 672.32 771.91C673.88 771.91 674.64 771.02 675.32 769.79C677.553 765.764 678.326 761.424 677.64 756.77C676.68 750.25 673.17 742.95 667.54 739.29C667.319 739.146 667.065 739.061 666.801 739.041C666.537 739.022 666.272 739.07 666.03 739.18ZM661.43 775.32C655.41 776.86 649.52 778.47 643.67 780.04C643.556 780.074 643.51 780.147 643.53 780.26V780.27C643.556 780.384 643.63 780.434 643.75 780.42C652.45 779.194 660.93 777.41 669.19 775.07C670.236 774.777 670.216 774.624 669.13 774.61C666.5 774.57 664.05 774.65 661.43 775.32ZM640.25 780.89C640.483 780.91 640.71 780.907 640.93 780.88C640.932 780.88 640.935 780.879 640.937 780.877C640.939 780.875 640.94 780.873 640.94 780.87C640.94 780.868 640.939 780.865 640.937 780.863C640.935 780.861 640.932 780.86 640.93 780.86C640.71 780.827 640.483 780.837 640.25 780.89Z" fill="#0055CC"/>
<path d="M550.6 673.935L378.631 721.627C378.194 721.748 377.939 722.199 378.06 722.636L378.07 722.674C378.191 723.111 378.643 723.366 379.08 723.245L551.049 675.554C551.486 675.433 551.741 674.981 551.62 674.545L551.61 674.506C551.489 674.07 551.037 673.814 550.6 673.935Z" fill="#0055CC"/>
<path d="M372.321 677.649L332.254 688.535C331.934 688.622 331.745 688.952 331.832 689.271L331.842 689.31C331.929 689.63 332.259 689.819 332.579 689.732L372.646 678.846C372.966 678.759 373.155 678.429 373.068 678.109L373.057 678.071C372.97 677.751 372.641 677.562 372.321 677.649Z" fill="#0055CC"/>
<path d="M280.789 684.852C282.019 687.194 284.467 688.331 286.257 687.391C288.046 686.452 288.5 683.791 287.271 681.449C286.041 679.107 283.593 677.97 281.803 678.909C280.014 679.849 279.56 682.509 280.789 684.852Z" fill="#0055CC"/>
<path d="M303.389 696.473C302.893 698.659 304.062 700.789 306.001 701.23C307.939 701.67 309.914 700.255 310.411 698.068C310.907 695.881 309.738 693.752 307.8 693.311C305.861 692.871 303.886 694.286 303.389 696.473Z" fill="#0055CC"/>
<path d="M533.21 695.649L508.614 702.378C508.129 702.511 507.844 703.011 507.976 703.496L507.992 703.554C508.125 704.039 508.625 704.324 509.11 704.191L533.706 697.463C534.191 697.33 534.476 696.83 534.344 696.345L534.328 696.287C534.195 695.802 533.695 695.517 533.21 695.649Z" fill="#0055CC"/>
<path d="M492.553 707.469L483.422 710.019C483.098 710.109 482.908 710.446 482.999 710.77L483.015 710.828C483.106 711.152 483.442 711.342 483.767 711.251L492.897 708.702C493.222 708.611 493.412 708.275 493.321 707.95L493.305 707.893C493.214 707.568 492.878 707.379 492.553 707.469Z" fill="#0055CC"/>
<path d="M330.992 712.038C330.914 714.284 332.542 716.165 334.628 716.237C336.714 716.31 338.469 714.548 338.548 712.302C338.626 710.055 336.998 708.175 334.912 708.102C332.826 708.03 331.071 709.792 330.992 712.038Z" fill="#0055CC"/>
<path d="M465.762 714.944L420.657 727.199C420.418 727.264 420.276 727.511 420.341 727.751L420.425 728.06C420.49 728.3 420.737 728.441 420.977 728.376L466.082 716.122C466.322 716.056 466.464 715.809 466.398 715.569L466.315 715.26C466.249 715.021 466.002 714.879 465.762 714.944Z" fill="#0055CC"/>
<path d="M356.837 724.466C356.311 726.674 357.283 728.798 359.007 729.208C360.732 729.619 362.556 728.162 363.082 725.954C363.608 723.746 362.637 721.623 360.912 721.212C359.188 720.801 357.363 722.258 356.837 724.466Z" fill="#0055CC"/>
<path d="M229.207 726.988L116.093 728.173C115.574 728.178 115.157 728.603 115.163 729.123L115.163 729.163C115.169 729.682 115.594 730.098 116.113 730.093L229.227 728.908C229.746 728.903 230.162 728.477 230.157 727.958L230.157 727.918C230.151 727.399 229.726 726.983 229.207 726.988Z" fill="#0055CC"/>
<path d="M787.9 756.78L750.47 766.47C750.25 766.524 750.117 766.44 750.07 766.22L750.02 765.94C749.987 765.788 750.014 765.629 750.096 765.496C750.178 765.364 750.309 765.268 750.46 765.23C764.14 761.757 776.55 758.37 787.69 755.07C792.903 753.524 797.96 752.07 802.86 750.71C814.573 747.47 826.317 744.15 838.09 740.75C847.57 738.02 857.63 735.8 867.59 733.39C875.177 731.557 884.607 729.737 895.88 727.93C896.2 727.877 896.367 728.01 896.38 728.33L896.4 728.7C896.407 728.88 896.32 728.994 896.14 729.04C894.32 729.494 892.343 729.9 890.21 730.26C881.397 731.747 874.42 733.4 869.28 735.22C864.01 737.08 859.05 739.21 853.52 740.64C838.66 744.49 823.66 748.81 808.92 752.56C802.687 754.147 796.537 755.88 790.47 757.76C789.91 757.934 789.507 757.76 789.26 757.24C789.207 757.127 789.133 757.04 789.04 756.98C788.693 756.74 788.313 756.674 787.9 756.78ZM869.01 734.06L808.18 751.04C808.161 751.045 808.143 751.053 808.128 751.065C808.113 751.077 808.1 751.092 808.09 751.108C808.081 751.125 808.075 751.144 808.073 751.163C808.072 751.183 808.074 751.202 808.08 751.22L808.22 751.72C808.329 751.821 811.606 751.032 817.337 749.524C823.067 748.017 830.788 745.913 838.82 743.67L838.99 743.62C846.971 741.392 854.621 739.205 860.295 737.529C865.968 735.854 869.213 734.824 869.33 734.66L869.19 734.16C869.185 734.142 869.177 734.124 869.165 734.109C869.154 734.093 869.139 734.08 869.122 734.071C869.105 734.062 869.086 734.056 869.067 734.054C869.048 734.052 869.028 734.054 869.01 734.06Z" fill="#0055CC"/>
<path d="M383.542 739.532C384.296 741.549 386.442 742.611 388.336 741.903C390.229 741.195 391.152 738.986 390.398 736.968C389.644 734.951 387.497 733.889 385.604 734.597C383.711 735.305 382.787 737.514 383.542 739.532Z" fill="#0055CC"/>
<path d="M245.78 756.11C255.66 756.27 266.15 756.44 277.25 756.62C277.883 756.627 278.24 756.667 278.32 756.74C279.4 757.687 279.22 758.157 277.78 758.15C249.21 758.01 222.01 758.11 194.76 757.53C168.72 756.977 142.057 756.46 114.77 755.98C114.357 755.974 114.15 755.764 114.15 755.35L114.14 755.03C114.14 754.948 114.174 754.869 114.234 754.811C114.294 754.753 114.375 754.72 114.46 754.72C143.64 754.934 172.463 755.124 200.93 755.29C215.73 755.37 230.71 755.86 245.78 756.11Z" fill="#0055CC"/>
<path d="M287.8 777.08H95.84C95.3484 777.08 94.95 777.478 94.95 777.97V778.27C94.95 778.762 95.3484 779.16 95.84 779.16H287.8C288.291 779.16 288.69 778.762 288.69 778.27V777.97C288.69 777.478 288.291 777.08 287.8 777.08Z" fill="#0055CC"/>
<path d="M655.132 785.72C656.818 785.23 658.091 784.506 657.974 784.103C657.856 783.7 656.394 783.77 654.708 784.26C653.021 784.75 651.749 785.474 651.866 785.877C651.983 786.28 653.445 786.21 655.132 785.72Z" fill="#0055CC"/>
<path d="M767.76 808.96C733.767 809.827 700.013 810.147 666.5 809.92C618.253 809.594 570.173 809.14 522.26 808.56C522.211 808.56 522.162 808.55 522.117 808.531C522.072 808.512 522.032 808.483 521.998 808.448C521.964 808.412 521.938 808.37 521.921 808.324C521.905 808.278 521.897 808.229 521.9 808.18L521.92 807.9C521.933 807.731 522.009 807.574 522.133 807.458C522.257 807.343 522.421 807.28 522.59 807.28C548.597 807.467 571.317 807.534 590.75 807.48C649.61 807.314 708.72 807.384 768.08 807.69C768.293 807.69 768.397 807.794 768.39 808L768.38 808.33C768.373 808.744 768.167 808.954 767.76 808.96Z" fill="#0055CC"/>
<path d="M612.86 836.62H439.36C438.918 836.62 438.56 836.978 438.56 837.42V837.44C438.56 837.882 438.918 838.24 439.36 838.24H612.86C613.302 838.24 613.66 837.882 613.66 837.44V837.42C613.66 836.978 613.302 836.62 612.86 836.62Z" fill="#0055CC"/>
<path d="M515.108 857.044L439.628 857.176C439.081 857.177 438.639 857.621 438.64 858.168L438.64 858.208C438.641 858.754 439.085 859.197 439.632 859.196L515.112 859.064C515.658 859.063 516.101 858.619 516.1 858.073L516.1 858.033C516.099 857.486 515.655 857.043 515.108 857.044Z" fill="#0055CC"/>
</g>
<defs>
<clipPath id="clip0_93_27">
<rect width="1024" height="1024" fill="none"/>
</clipPath>
</defs>
</svg>
