<svg width="1024" height="943" viewBox="0 0 1024 943" fill="none" xmlns="http://www.w3.org/2000/svg">
<g clip-path="url(#clip0_93_3232)">
<rect width="1024" height="1024" fill="none"/>
<path d="M920.66 0L920.76 47.5C920.762 47.653 920.824 47.7991 920.932 47.9073C921.041 48.0155 921.187 48.0774 921.34 48.08C929.2 48.21 939.92 46 939.91 57.89C939.876 89.7967 939.89 120.873 939.95 151.12C939.96 155.04 945.59 156.51 948.42 157.8C950.04 158.547 951.59 159.38 953.07 160.3C974.71 173.77 989.04 196.97 990.77 222.72C990.781 222.896 990.756 223.073 990.696 223.238C990.637 223.404 990.544 223.556 990.424 223.685C990.304 223.813 990.159 223.915 989.999 223.985C989.838 224.055 989.665 224.09 989.49 224.09L874.49 224.16C873.65 224.16 873.273 224.577 873.36 225.41C879.613 285.963 885.63 346.057 891.41 405.69C891.415 405.771 891.452 405.848 891.513 405.904C891.574 405.959 891.655 405.99 891.74 405.99C921.28 405.963 951.33 405.967 981.89 406C996.06 406.01 996.2 426.13 982.36 426.13C893.4 426.123 804.976 426.11 717.09 426.09C704.18 426.09 703.89 405.79 718.94 406.02C723.153 406.08 727.103 406.17 730.79 406.29C731.236 406.303 731.446 406.087 731.42 405.64C731.346 404.227 731.28 402.847 731.22 401.5C730.8 391.83 734.21 381.53 739.34 373.11C746.57 361.24 757.83 355.11 769.99 349.21C770.49 348.97 770.74 348.57 770.74 348.01L770.66 267.44C770.66 267.199 770.754 266.967 770.923 266.797C771.092 266.626 771.321 266.53 771.56 266.53L791.52 266.48C792.333 266.48 792.723 266.073 792.69 265.26L791.44 236.18C791.426 235.903 791.469 235.625 791.567 235.365C791.664 235.105 791.814 234.867 792.006 234.666C792.199 234.464 792.431 234.304 792.688 234.195C792.944 234.086 793.22 234.03 793.5 234.03L830.33 234.01C831.41 234.01 831.99 234.55 832.07 235.63C836.21 292.563 840.203 349.337 844.05 405.95C844.056 406.023 844.093 406.06 844.16 406.06L849.29 406.07C849.331 406.07 849.371 406.062 849.409 406.045C849.447 406.029 849.481 406.005 849.509 405.975C849.537 405.945 849.559 405.91 849.573 405.871C849.587 405.832 849.592 405.791 849.59 405.75C845.33 345.88 840.72 291.04 836.05 224.5C835.99 223.627 836.056 222.777 836.25 221.95C836.336 221.577 836.56 221.333 836.92 221.22C839.47 220.41 842.49 220.83 845.2 220.96C845.7 220.98 845.986 220.743 846.06 220.25C850.27 192.16 868.06 166.81 894.52 155.31C896.55 154.43 897.97 152.39 897.96 150.18C897.866 119.507 897.863 88.6033 897.95 57.47C897.98 46.03 909.62 48.24 917.03 48.12C917.141 48.12 917.248 48.0758 917.327 47.997C917.405 47.9182 917.45 47.8114 917.45 47.7V0H920.66ZM852.84 405.83C852.85 405.961 852.909 406.083 853.005 406.172C853.102 406.261 853.228 406.31 853.36 406.31L887.69 406.13C887.761 406.129 887.832 406.113 887.898 406.083C887.963 406.053 888.022 406.01 888.07 405.957C888.118 405.903 888.154 405.84 888.176 405.772C888.199 405.704 888.207 405.632 888.2 405.56L870.06 224.4C870.047 224.271 869.987 224.151 869.891 224.064C869.795 223.977 869.669 223.929 869.54 223.93L839.64 223.79C839.568 223.79 839.497 223.804 839.431 223.833C839.365 223.862 839.306 223.904 839.257 223.956C839.208 224.009 839.171 224.071 839.147 224.139C839.123 224.206 839.114 224.278 839.12 224.35L852.84 405.83ZM803.17 405.44C803.18 405.64 803.267 405.828 803.412 405.966C803.557 406.104 803.75 406.18 803.95 406.18L840.13 406.22C840.237 406.22 840.344 406.198 840.443 406.155C840.541 406.113 840.63 406.05 840.704 405.971C840.777 405.892 840.833 405.799 840.868 405.697C840.904 405.595 840.918 405.487 840.91 405.38L829 237.82C828.984 237.624 828.896 237.44 828.751 237.307C828.606 237.173 828.416 237.099 828.22 237.1H795.23C795.124 237.1 795.019 237.121 794.922 237.163C794.824 237.205 794.736 237.266 794.663 237.342C794.59 237.419 794.534 237.51 794.497 237.609C794.46 237.709 794.444 237.814 794.45 237.92L803.17 405.44ZM783.93 392.55C784.35 392.55 784.556 392.76 784.55 393.18L784.47 405.46C784.47 405.953 784.716 406.197 785.21 406.19L790.01 406.18C790.47 406.18 790.7 405.95 790.7 405.49L790.64 393.32C790.633 392.713 790.936 392.397 791.55 392.37L792.47 392.33C792.594 392.325 792.718 392.345 792.834 392.389C792.95 392.433 793.056 392.501 793.146 392.588C793.236 392.675 793.307 392.779 793.356 392.895C793.405 393.01 793.43 393.134 793.43 393.26L793.47 405.76C793.47 405.862 793.49 405.962 793.53 406.056C793.57 406.149 793.628 406.234 793.702 406.305C793.776 406.375 793.863 406.431 793.959 406.468C794.054 406.505 794.157 406.523 794.26 406.52L799.04 406.36C799.633 406.34 799.916 406.033 799.89 405.44C799.683 400.347 799.456 395.283 799.21 390.25C797.363 352.65 795.246 312.56 792.86 269.98C792.849 269.762 792.755 269.556 792.597 269.405C792.439 269.254 792.228 269.17 792.01 269.17L773.99 269.22C773.636 269.22 773.46 269.397 773.46 269.75L773.62 405.72C773.62 406.033 773.776 406.19 774.09 406.19H781.25C781.67 406.19 781.88 405.98 781.88 405.56L781.94 393.29C781.94 392.777 782.196 392.523 782.71 392.53L783.93 392.55ZM734.4 405.41C734.42 405.632 734.521 405.838 734.684 405.988C734.847 406.138 735.059 406.221 735.28 406.22H770.23C770.289 406.22 770.347 406.208 770.402 406.186C770.456 406.163 770.506 406.13 770.548 406.088C770.59 406.046 770.623 405.997 770.645 405.942C770.668 405.888 770.68 405.829 770.68 405.77L770.72 352.49C770.72 352.456 770.711 352.422 770.695 352.392C770.678 352.362 770.654 352.337 770.625 352.319C770.596 352.301 770.563 352.29 770.529 352.289C770.494 352.287 770.46 352.295 770.43 352.31C766.016 354.51 761.586 356.957 757.14 359.65C741.51 369.14 732.86 387.19 734.4 405.41ZM989.54 416.08C989.54 414.213 988.798 412.422 987.478 411.102C986.157 409.782 984.367 409.04 982.5 409.04H717.62C715.753 409.04 713.962 409.782 712.642 411.102C711.321 412.422 710.58 414.213 710.58 416.08V416.26C710.58 418.127 711.321 419.918 712.642 421.238C713.962 422.558 715.753 423.3 717.62 423.3H982.5C984.367 423.3 986.157 422.558 987.478 421.238C988.798 419.918 989.54 418.127 989.54 416.26V416.08Z" fill="#000000"/>
<path d="M915.57 637.82C915.216 638.26 915.306 638.384 915.84 638.19C918.706 637.15 921.56 636.174 924.4 635.26C925.693 634.84 926.94 634.214 928.14 633.38C928.309 633.26 928.506 633.181 928.713 633.152C928.92 633.122 929.131 633.142 929.33 633.21C930.163 633.497 930.49 634.004 930.31 634.73C930.203 635.144 930.03 635.527 929.79 635.88C917.656 654.1 907.826 673.337 900.3 693.59C896.86 702.844 894.716 712.6 893.87 722.86C893.861 722.963 893.874 723.066 893.905 723.164C893.937 723.262 893.988 723.352 894.055 723.43C894.122 723.508 894.204 723.572 894.295 723.619C894.387 723.665 894.487 723.693 894.59 723.7C911.07 724.84 927.013 725.99 942.42 727.15C948.77 727.63 952.26 734.29 949.95 739.96C931.036 786.374 911.343 835.164 890.87 886.33C890.832 886.425 890.818 886.527 890.829 886.628C890.84 886.729 890.876 886.826 890.933 886.91C890.991 886.994 891.068 887.062 891.158 887.11C891.248 887.157 891.348 887.181 891.45 887.18L978.16 887.11C978.446 887.11 978.721 887.219 978.927 887.414C979.134 887.61 979.257 887.877 979.27 888.16L979.32 889.14C979.36 890.034 978.93 890.484 978.03 890.49C949.62 890.6 920.52 890.53 891.75 890.55C890.843 890.55 889.916 890.63 888.97 890.79C888.821 890.816 888.68 890.869 888.555 890.948C888.429 891.027 888.322 891.13 888.24 891.25C885.84 894.744 882.576 897.484 878.45 899.47C876.363 900.477 872.876 901.214 867.99 901.68C800.483 908.174 733.353 914.584 666.6 920.91C663.28 921.23 659.83 921.07 656.5 920.95C571.206 917.99 484.12 914.824 395.24 911.45C394.66 911.424 394.09 911.35 393.53 911.23C391.903 910.884 391.35 909.917 391.87 908.33C393.07 904.63 395.56 902.114 399.34 900.78C401 900.187 404.143 899.967 408.77 900.12C448.07 901.414 486.55 902.557 524.21 903.55C527.95 903.65 528 903.27 524.36 902.41C512.693 899.644 500.5 895.907 487.78 891.2C487.006 890.914 485.413 890.757 483 890.73C472.16 890.597 461.166 890.534 450.02 890.54C388.06 890.554 326.32 890.574 264.8 890.6C264.353 890.6 264.136 890.824 264.15 891.27L264.26 895.27C264.262 895.362 264.283 895.453 264.321 895.537C264.358 895.621 264.412 895.696 264.479 895.76C264.546 895.823 264.624 895.872 264.71 895.905C264.796 895.938 264.888 895.953 264.98 895.95C267.1 895.904 269.18 896.154 271.22 896.7C271.589 896.804 271.916 897.029 272.15 897.34C272.663 898.027 272.993 898.767 273.14 899.56C273.22 899.947 273.456 900.154 273.85 900.18C282.15 900.747 289.653 901.584 296.36 902.69C321.106 906.784 346.216 910.99 371.69 915.31C372.643 915.47 373.55 915.694 374.41 915.98C374.743 916.087 374.946 916.31 375.02 916.65C375.553 919.084 375.57 921.427 375.07 923.68C374.996 924.02 374.79 924.23 374.45 924.31C371.25 925.07 367.836 925.197 364.21 924.69C364.136 924.677 364.093 924.707 364.08 924.78V924.79C364.053 924.937 364.113 925.024 364.26 925.05C369.32 926.03 374.163 927.464 378.79 929.35C378.987 929.431 379.166 929.552 379.315 929.705C379.464 929.858 379.58 930.041 379.655 930.241C379.73 930.441 379.763 930.654 379.752 930.867C379.741 931.081 379.685 931.289 379.59 931.48C378.67 933.3 376.7 932.92 374.92 932.93C308.3 933.3 234.74 933.05 175 933.38C171.973 933.4 169.1 933.07 166.38 932.39C143.373 926.677 120.41 920.94 97.4897 915.18C96.1763 914.847 95.7463 914.04 96.1996 912.76C96.393 912.214 96.7797 911.93 97.3597 911.91C109.206 911.537 121.566 911.114 134.44 910.64C134.49 910.639 134.54 910.626 134.586 910.603C134.631 910.579 134.671 910.547 134.702 910.507C134.733 910.467 134.756 910.421 134.767 910.371C134.779 910.322 134.78 910.27 134.77 910.22C134.29 907.754 134.16 905.317 134.38 902.91C134.397 902.729 134.477 902.56 134.607 902.431C134.736 902.301 134.907 902.22 135.09 902.2C156.63 900.16 178.78 899.97 200.29 899.83C200.489 899.828 200.682 899.755 200.834 899.623C200.986 899.491 201.087 899.31 201.12 899.11C201.97 894.04 207.63 895.04 211.34 894.93C211.76 894.917 211.963 894.7 211.95 894.28L211.83 891.24C211.816 890.867 211.623 890.68 211.25 890.68L69.1197 890.56C67.8263 890.56 67.2497 889.914 67.3897 888.62L67.4297 888.34C67.4689 887.991 67.6344 887.669 67.8944 887.435C68.1544 887.201 68.4909 887.071 68.8396 887.07L140.07 887.16C140.289 887.164 140.505 887.102 140.691 886.983C140.878 886.864 141.027 886.693 141.12 886.49C153.893 858.33 168.82 831.28 185.9 805.34C196.253 789.62 207.373 775.034 219.26 761.58C220.253 760.454 221.316 759.387 222.45 758.38C222.823 758.047 222.8 757.744 222.38 757.47C211.22 750.16 201.54 741.71 194.85 730.23C193.89 728.57 193.29 726.88 194.12 725C196.593 719.427 199.083 714.16 201.59 709.2C222.13 668.62 244.336 627.55 268.21 585.99C278.31 568.41 288.393 551.48 298.46 535.2C306.733 521.827 313.81 511.25 319.69 503.47C321.496 501.084 323.843 498.68 326.73 496.26C333.303 490.767 339.786 485.34 346.18 479.98C346.285 479.893 346.367 479.782 346.42 479.656C346.472 479.53 346.494 479.393 346.484 479.256C346.473 479.12 346.43 478.987 346.358 478.869C346.286 478.752 346.187 478.653 346.07 478.58C340.656 475.274 336.643 470.804 334.03 465.17C333.363 463.73 332.506 462.41 331.46 461.21C321.96 450.26 323.33 434.56 331.41 422.95C336.123 416.184 342.003 410.274 349.05 405.22C355.776 400.4 362.86 395.274 370.3 389.84C382.733 380.76 392.846 369.894 400.64 357.24C404.486 351.007 408.283 343.517 412.03 334.77C418.91 318.69 425.81 302.09 435.65 287.74C438.083 284.194 440.426 280.52 442.68 276.72C460.67 246.4 493.77 227.62 528.57 224.46C560.576 221.554 589.616 229.277 615.69 247.63C633.54 260.2 647.78 278.26 655.86 298.36C657.48 302.4 658.67 306.67 661.52 310.01C663.56 312.384 665.523 314.447 667.41 316.2C674.983 323.234 681.08 329.247 685.7 334.24C693.94 343.14 701.75 357.7 697.67 369.87C696.37 373.76 693.17 378.04 689.21 378.9C688.943 378.954 688.706 379.047 688.5 379.18C688.386 379.255 688.299 379.364 688.25 379.492C688.202 379.619 688.194 379.759 688.23 379.89C689.05 382.98 690.26 387.12 689.09 390.08C686.96 395.45 681.28 394.73 677.64 391.57C677.286 391.27 677.02 391.334 676.84 391.76C673.226 400.447 666.43 405.254 656.45 406.18C653.843 406.42 651.166 406.214 648.42 405.56C648.186 405.505 647.941 405.527 647.721 405.622C647.502 405.718 647.318 405.882 647.2 406.09C641.226 416.597 635.453 427.21 629.88 437.93C629.21 439.21 627.89 440.4 628.03 441.86C628.21 443.814 628.523 445.73 628.97 447.61C631.05 456.29 633.096 465.08 635.11 473.98C638.41 488.59 640.52 506.43 628.67 516.85C627.15 518.19 625.736 519.707 624.43 521.4C621.1 525.72 617.08 528.3 612.2 530.79C611.306 531.244 610.54 531.91 609.9 532.79C600.68 545.37 584.49 550.73 569.46 547.06C564.48 545.84 559.666 543.854 555.02 541.1C553.713 540.32 552.476 539.16 551.31 537.62C551.168 537.432 550.983 537.281 550.77 537.18C550.558 537.079 550.324 537.031 550.09 537.04C547.856 537.12 545.583 537.12 543.27 537.04C527.22 536.49 512.17 525.41 510.19 508.82C510.185 508.771 510.165 508.724 510.133 508.686C510.101 508.648 510.057 508.621 510.009 508.609C509.96 508.597 509.909 508.6 509.863 508.618C509.817 508.636 509.777 508.669 509.75 508.71C507.663 511.844 505.366 514.727 502.86 517.36C499.56 520.82 499.59 525.88 496.82 529.83C488.55 541.61 468.16 539.13 460.77 527.84C460.516 527.454 460.216 527.414 459.87 527.72C458.23 529.174 456.45 530.307 454.53 531.12C444.55 535.347 435.53 534.337 427.47 528.09C427.418 528.051 427.356 528.028 427.291 528.022C427.226 528.016 427.161 528.028 427.103 528.057C427.045 528.086 426.996 528.131 426.962 528.186C426.928 528.242 426.91 528.305 426.91 528.37C426.95 532.41 424.6 535.44 420.45 534.94C414.15 534.2 410.8 527.62 410.49 521.71C410.484 521.639 410.46 521.57 410.419 521.511C410.378 521.452 410.321 521.405 410.256 521.375C410.19 521.346 410.118 521.334 410.047 521.342C409.975 521.35 409.907 521.377 409.85 521.42C393.66 534.02 368.7 522.86 368.67 502.12C368.67 501.7 368.466 501.43 368.06 501.31C357.986 498.417 352.27 491.974 350.91 481.98C350.75 480.827 350.226 480.627 349.34 481.38C341.933 487.654 334.603 493.88 327.35 500.06C324.936 502.114 322.733 504.464 320.74 507.11C315.6 513.944 308.666 524.46 299.94 538.66C271.653 584.7 243.823 634.137 216.45 686.97C210.543 698.364 204.803 710.044 199.23 722.01C198.556 723.45 197.966 724.904 197.46 726.37C197.331 726.741 197.283 727.134 197.319 727.522C197.356 727.91 197.475 728.285 197.67 728.62C204.4 740.17 214.56 748.81 225.74 755.85C242.74 766.55 263.79 775.21 283.67 783.03C283.87 783.11 283.956 783.04 283.93 782.82C281.136 758.114 280.296 733.18 281.41 708.02C282.95 673.427 285.856 640.077 290.13 607.97C290.303 606.677 291.013 606.217 292.26 606.59L292.55 606.68C293.45 606.947 293.836 607.547 293.71 608.48C289.616 638.7 286.796 669.117 285.25 699.73C283.94 725.43 283.99 749.14 286.28 773.75C288.1 793.24 292.63 814.15 303.82 829.78C304.78 831.114 306.09 832.174 307.75 832.96C313.203 835.52 318.613 837.607 323.98 839.22C336.913 843.114 351.583 846.16 367.99 848.36C368.193 848.389 368.401 848.348 368.579 848.243C368.757 848.137 368.895 847.974 368.97 847.78C375.336 831.247 383.003 816.21 391.97 802.67C398.76 792.42 408.27 781.65 419.61 777.38C419.693 777.349 419.767 777.296 419.822 777.226C419.878 777.156 419.913 777.072 419.924 776.984C419.935 776.895 419.922 776.805 419.886 776.724C419.85 776.642 419.793 776.572 419.72 776.52L390.67 756.15C390.335 755.912 390.061 755.597 389.87 755.233C389.679 754.868 389.576 754.463 389.57 754.05L387.73 596.23C387.727 595.885 387.861 595.552 388.103 595.305C388.344 595.057 388.674 594.916 389.02 594.91L389.57 594.9C390.543 594.894 391.033 595.374 391.04 596.34L391.32 627.13C391.319 627.344 391.391 627.551 391.523 627.718C391.656 627.886 391.842 628.003 392.05 628.05L449.47 640.97C449.68 641.016 449.878 641.105 450.052 641.231C450.226 641.357 450.373 641.518 450.482 641.704C450.592 641.89 450.663 642.096 450.69 642.31C450.717 642.525 450.7 642.743 450.64 642.95L436.53 691.76C436.455 692.019 436.283 692.238 436.05 692.372C435.817 692.507 435.541 692.545 435.28 692.48C421.26 689.06 406.883 685.764 392.15 682.59C392.116 682.584 392.082 682.586 392.049 682.594C392.016 682.602 391.985 682.618 391.96 682.639C391.934 682.66 391.913 682.686 391.899 682.716C391.886 682.745 391.879 682.778 391.88 682.81C392.16 705.11 392.45 727.464 392.75 749.87C392.763 750.85 392.846 751.837 393 752.83C393.053 753.164 393.21 753.437 393.47 753.65C394.61 754.59 395.79 755.487 397.01 756.34C409.756 765.174 422.43 773.81 435.03 782.25C436.983 783.557 438.12 785.317 438.44 787.53C438.465 787.703 438.555 787.859 438.691 787.965C438.828 788.071 438.999 788.12 439.17 788.1L467.85 784.87C468.13 784.844 468.31 784.694 468.39 784.42L504.62 658.57C504.706 658.25 504.636 657.964 504.41 657.71C504.196 657.47 503.92 657.357 503.58 657.37C503.466 657.373 503.352 657.354 503.246 657.313C503.139 657.271 503.042 657.209 502.96 657.13C501.746 655.97 501.173 654.597 501.24 653.01C501.406 648.91 503.436 646.72 507.33 646.44C507.71 646.414 507.95 646.217 508.05 645.85L523.25 592.45C523.516 591.504 524.116 591.19 525.05 591.51L525.41 591.63C526.216 591.91 526.503 592.46 526.27 593.28L482.62 746.55C482.39 747.356 482.377 748.205 482.58 749.01C484.94 758.557 487.98 768.31 491.7 778.27C495.22 787.704 500.223 796.527 506.71 804.74C507.936 806.294 509.44 807.307 511.22 807.78C528.88 812.474 546.906 817.257 565.3 822.13C565.369 822.148 565.441 822.149 565.51 822.132C565.58 822.116 565.645 822.083 565.699 822.036C565.754 821.989 565.797 821.93 565.825 821.863C565.853 821.796 565.865 821.723 565.86 821.65C564.27 801.56 572.54 782.04 589.53 771.14C594.623 767.867 600.013 765.784 605.7 764.89C606.1 764.824 606.153 764.654 605.86 764.38C600.62 759.48 594.973 754.637 588.92 749.85C587.87 749.01 587.11 747.52 586.91 746.1C586.356 742.107 585.973 739.49 585.76 738.25C575.566 679.024 565.776 621.594 556.39 565.96C556.276 565.327 555.903 565.077 555.27 565.21C545.68 567.22 539.21 572.92 534.95 581.49C534.812 581.765 534.601 581.993 534.34 582.15C532.726 583.157 531.823 582.67 531.63 580.69C531.597 580.383 531.653 580.075 531.79 579.8C536.823 569.734 544.553 563.767 554.98 561.9C555.386 561.827 555.556 561.587 555.49 561.18L552.73 544.47C552.671 544.131 552.712 543.777 552.85 543.45C553.27 542.457 553.846 541.934 554.58 541.88C554.928 541.855 555.273 541.96 555.547 542.175C555.82 542.39 556.003 542.698 556.06 543.04C569.353 622.16 580.886 689.357 590.66 744.63C590.826 745.564 591.41 746.467 592.41 747.34C600.69 754.527 608.54 761.43 615.96 768.05C617.98 769.85 623.06 774.11 621.8 777.21C621.62 777.644 621.73 777.987 622.13 778.24C632.75 784.94 642.816 791.294 652.33 797.3C655.496 799.3 660.436 801.777 667.15 804.73C667.57 804.917 667.683 804.804 667.49 804.39C665.54 800.2 664.66 795.22 663.33 790.78C663.076 789.934 662.626 789.81 661.98 790.41C660.2 792.077 658.993 792.1 658.36 790.48C654.08 779.474 649.463 768.57 644.51 757.77C644.424 757.586 644.381 757.384 644.386 757.18C644.391 756.977 644.443 756.777 644.538 756.597C644.633 756.417 644.768 756.261 644.933 756.142C645.098 756.023 645.289 755.944 645.49 755.91C647.803 755.524 649.996 754.88 652.07 753.98C652.39 753.847 652.526 753.607 652.48 753.26C652.033 749.854 651.106 746.297 649.7 742.59C648.49 739.43 651.17 738.18 653.58 737.43C657.346 736.25 660.703 735.427 663.65 734.96C664.286 734.859 664.938 734.997 665.479 735.348C666.02 735.699 666.412 736.238 666.58 736.86C673.68 763.447 680.35 788.377 686.59 811.65C687.16 813.78 687.62 815.87 689.85 816.82C694.256 818.714 698.363 820.667 702.17 822.68C702.224 822.708 702.283 822.724 702.344 822.729C702.405 822.733 702.466 822.725 702.523 822.705C702.58 822.686 702.632 822.655 702.676 822.614C702.72 822.574 702.756 822.525 702.78 822.47C717.413 790.044 731.62 758.39 745.4 727.51C748.26 721.11 751.41 716.63 757.77 715.1C759.903 714.587 762.286 714.447 764.92 714.68C773.24 715.42 780.76 715.964 787.48 716.31C787.68 716.32 787.879 716.285 788.062 716.209C788.245 716.133 788.409 716.017 788.54 715.87C801.69 701.57 812.26 684.35 820.43 666.52C822.603 661.767 824.393 657.027 825.8 652.3C825.862 652.09 825.994 651.908 826.174 651.783C826.354 651.657 826.571 651.597 826.79 651.61C832.036 651.964 838.25 651.694 845.43 650.8C855.63 649.527 865.813 647.754 875.98 645.48C876.182 645.437 876.37 645.344 876.528 645.21C876.685 645.075 876.806 644.904 876.88 644.71C878.39 640.78 879.77 635.57 884.5 634.59C892.546 632.917 900.12 631.164 907.22 629.33C910.42 628.504 913.713 627.794 917.1 627.2C917.341 627.159 917.589 627.172 917.825 627.24C918.06 627.308 918.277 627.429 918.458 627.593C918.64 627.757 918.781 627.96 918.871 628.187C918.962 628.413 918.999 628.657 918.98 628.9C918.726 632.294 917.59 635.267 915.57 637.82ZM435.78 292.61C435.606 292.71 435.466 292.85 435.36 293.03C431.366 299.744 427.716 306.514 424.41 313.34C418.57 325.42 413.02 339.49 406.61 351.91C397.53 369.53 383.99 383.51 367.92 394.96C354.15 404.77 339.53 414.59 332.06 429.17C328.04 437.024 327.32 445.214 329.9 453.74C329.926 453.84 329.993 453.88 330.1 453.86L330.38 453.8C330.42 453.794 330.436 453.77 330.43 453.73C327.66 434.47 338.55 420.63 353.3 410.16C366.85 400.54 381.02 391.87 392.45 379.55C401.32 370 407.89 357.91 413.35 345.83C421.676 327.384 429.29 309.76 436.19 292.96C436.396 292.454 436.26 292.337 435.78 292.61ZM529.48 398.89C551.05 394.45 566 378.93 570.57 357.59C570.583 357.504 570.55 357.45 570.47 357.43H570.46C570.413 357.417 570.383 357.434 570.37 357.48C564.656 375.914 553.066 388.93 535.6 396.53C533.64 397.39 531.44 397.83 529.42 398.67C528.673 398.977 528.693 399.05 529.48 398.89ZM623.6 402.86C620.82 401.774 618.19 400.744 615.71 399.77C602.096 394.437 591.25 385.884 583.17 374.11C579.69 369.037 577.22 363.497 575.76 357.49C575.74 357.404 575.686 357.37 575.6 357.39H575.59C575.463 357.417 575.413 357.497 575.44 357.63C580.52 382.61 599.54 397.52 623.51 403.15C624.883 403.47 624.913 403.374 623.6 402.86ZM492.81 429.83C492.794 430.219 492.624 430.585 492.338 430.849C492.051 431.113 491.671 431.254 491.28 431.24C488.326 431.127 485.416 430.75 482.55 430.11C482.176 430.024 481.96 430.17 481.9 430.55C480.17 442.13 478.97 453.86 479.41 465.7C480.13 485.02 478.78 506 466.19 521.6C465.988 521.851 465.877 522.162 465.875 522.484C465.873 522.805 465.981 523.118 466.18 523.37C468.88 526.81 472.46 529.024 476.92 530.01C483.01 531.35 491.87 529.22 494.79 522.87C496.15 519.917 497.64 517.48 499.26 515.56C506.786 506.64 515.236 496.9 524.61 486.34C524.638 486.309 524.659 486.272 524.673 486.232C524.686 486.191 524.691 486.149 524.687 486.107C524.683 486.065 524.671 486.024 524.651 485.986C524.631 485.949 524.603 485.916 524.57 485.89C521.41 483.417 518.623 480.604 516.21 477.45C515.443 476.457 515.47 475.48 516.29 474.52C516.663 474.087 517.213 473.894 517.94 473.94C518.35 473.972 518.73 474.158 519 474.46C537.45 495.06 567.36 498.58 590.65 484.48C597.823 480.134 603.55 475.004 607.83 469.09C616.44 457.22 623.03 444.4 629.32 431.46C631.706 426.554 634.333 421.797 637.2 417.19C637.285 417.052 637.343 416.898 637.369 416.738C637.395 416.577 637.388 416.414 637.35 416.256C637.312 416.099 637.243 415.951 637.146 415.821C637.05 415.691 636.929 415.582 636.79 415.5C634.23 414.007 632.1 414.104 630.4 415.79C629.17 417.02 627.48 416.89 626.48 415.36C625.76 414.26 625.763 413.16 626.49 412.06C628.79 408.6 635.81 406.62 639.02 410.5C639.082 410.578 639.163 410.639 639.255 410.678C639.347 410.716 639.447 410.731 639.547 410.721C639.646 410.711 639.741 410.677 639.824 410.621C639.906 410.565 639.974 410.489 640.02 410.4C640.473 409.54 640.773 408.647 640.92 407.72C641 407.234 640.793 406.98 640.3 406.96C632.426 406.647 627.316 406.327 624.97 406C601.08 402.71 576.3 385.27 573.65 359.45C573.616 359.137 573.563 359.134 573.49 359.44C568.02 382.9 552.66 398.24 529 402.31C527.606 402.55 525.183 402.747 521.73 402.9C521.356 402.914 521.103 403.097 520.97 403.45L499.36 459.71C499.164 460.226 498.823 460.674 498.38 461C496.733 462.214 495.306 462.487 494.1 461.82C492.573 460.974 492.013 459.7 492.42 458C495.94 443.29 501.09 429.19 505.21 414.75C509.11 401.07 507.31 387.18 494.1 379.36C488.51 376.05 480.63 375.74 474.91 378.55C464.99 383.437 461.096 391.424 463.23 402.51C465.35 413.544 471.2 421.184 480.78 425.43C483.313 426.557 486.906 427.327 491.56 427.74C492.453 427.82 492.88 428.307 492.84 429.2L492.81 429.83ZM515.181 404.164C515.208 404.086 515.203 404.001 515.168 403.927C515.132 403.853 515.068 403.796 514.991 403.769L514.802 403.703C514.725 403.675 514.639 403.68 514.565 403.716C514.491 403.751 514.434 403.815 514.407 403.893L505.258 430.017C505.231 430.095 505.236 430.18 505.272 430.254C505.307 430.328 505.371 430.385 505.448 430.412L505.637 430.478C505.715 430.505 505.8 430.501 505.874 430.465C505.948 430.429 506.005 430.366 506.032 430.288L515.181 404.164ZM630.65 509.15C636.23 499.6 634.23 485.5 632.05 474.81C630.036 464.977 627.916 455.447 625.69 446.22C625.516 445.52 625.27 445.494 624.95 446.14C623.08 449.89 624.28 455.36 625.35 459.8C629.06 475.22 635.56 493.46 630.33 509.01C629.963 510.09 630.07 510.137 630.65 509.15ZM514.38 507.82C514.26 507.314 514.1 506.814 513.9 506.32C513.56 505.467 513.436 505.497 513.53 506.41C514.603 517.63 520.38 525.477 530.86 529.95C530.926 529.977 530.98 529.96 531.02 529.9L531.15 529.66C531.156 529.647 531.153 529.64 531.14 529.64C522.48 524.42 516.9 518.17 514.38 507.82ZM391.87 631.02C391.793 631.004 391.713 631.005 391.637 631.023C391.56 631.042 391.489 631.077 391.429 631.128C391.368 631.178 391.319 631.241 391.287 631.312C391.254 631.384 391.238 631.462 391.24 631.54L391.77 679.02C391.771 679.136 391.811 679.249 391.884 679.339C391.956 679.43 392.057 679.494 392.17 679.52L433.83 689.08C433.959 689.111 434.096 689.091 434.212 689.024C434.327 688.957 434.412 688.848 434.45 688.72L447.37 644.07C447.389 644.002 447.394 643.93 447.385 643.86C447.376 643.79 447.352 643.722 447.315 643.661C447.279 643.6 447.23 643.547 447.172 643.506C447.115 643.465 447.049 643.435 446.98 643.42L391.87 631.02ZM912.52 647.3C900.4 650.187 888.316 653.054 876.27 655.9C875.063 656.187 873.83 656.304 872.57 656.25C872.19 656.237 871.91 656.06 871.73 655.72C870.916 654.167 870.316 652.537 869.93 650.83C869.763 650.084 869.306 649.79 868.56 649.95C855.453 652.75 842.226 654.317 828.88 654.65C828.683 654.656 828.493 654.722 828.336 654.838C828.178 654.954 828.061 655.116 828 655.3C825.933 661.494 823.386 667.557 820.36 673.49C816.426 681.21 812.26 688.544 807.86 695.49C802.873 703.37 797.756 710.224 792.51 716.05C792.461 716.106 792.43 716.174 792.418 716.247C792.406 716.32 792.414 716.395 792.442 716.463C792.47 716.531 792.516 716.591 792.576 716.634C792.636 716.678 792.706 716.704 792.78 716.71C821.726 718.53 853.11 720.697 886.93 723.21C888.123 723.297 889.33 723.304 890.55 723.23C890.89 723.21 891.07 723.027 891.09 722.68C891.603 713.18 893.606 703.49 897.1 693.61C903.393 675.797 912.4 657.58 924.12 638.96C924.566 638.247 924.39 638.024 923.59 638.29C920.77 639.25 918.093 640.114 915.56 640.88C913.15 641.6 913.61 644.66 913.18 646.62C913.106 646.987 912.886 647.214 912.52 647.3ZM683.04 813.85C683.546 814.377 683.706 814.287 683.52 813.58L665.7 745.53C665.665 745.4 665.603 745.279 665.517 745.175C665.43 745.071 665.322 744.988 665.2 744.931C665.078 744.873 664.945 744.844 664.81 744.844C664.675 744.844 664.542 744.873 664.42 744.93C661.353 746.384 658.16 747.137 654.84 747.19C654.799 747.192 654.759 747.203 654.724 747.222C654.688 747.241 654.657 747.268 654.633 747.3C654.609 747.333 654.592 747.37 654.585 747.41C654.577 747.45 654.579 747.491 654.59 747.53C659.603 765.57 664.736 783.917 669.99 802.57C670.57 804.6 671.33 806.49 673.38 807.48C677.13 809.29 680.1 810.78 683.04 813.85ZM471.5 785.37C470.94 787.43 470.89 788.32 468.45 788.6C462.136 789.347 455.52 789.94 448.6 790.38C446.826 790.494 446.796 790.777 448.51 791.23L500.86 804.9C501.84 805.16 502.033 804.88 501.44 804.06C491.18 789.9 485.23 773.17 480.65 756.05C480.41 755.137 480.153 755.134 479.88 756.04C476.88 766.18 474.086 775.957 471.5 785.37ZM648.71 757.64C647.823 757.86 647.576 758.384 647.97 759.21C652.343 768.45 656.35 778.027 659.99 787.94C660.183 788.467 660.55 788.65 661.09 788.49C661.696 788.31 661.896 787.43 661.69 785.85C661.603 785.197 661.473 784.554 661.3 783.92L654.05 757.77C653.803 756.864 653.223 756.524 652.31 756.75L648.71 757.64ZM583.04 818.8C583.038 818.843 583.047 818.885 583.064 818.923C583.082 818.961 583.108 818.995 583.142 819.021C583.175 819.047 583.213 819.065 583.255 819.074C583.296 819.083 583.339 819.081 583.38 819.07C583.826 818.944 584.253 818.757 584.66 818.51C597.913 810.477 611.85 802.167 626.47 793.58C629.81 791.62 633.416 790.894 637.29 791.4C637.41 791.414 637.42 791.39 637.32 791.33C631.746 788.117 626.236 784.64 620.79 780.9C620.096 780.427 619.343 780.287 618.53 780.48C615.15 781.28 611.87 782 608.69 782.64C597.62 784.89 589.17 794.06 585.61 804.67C584.17 808.95 583.313 813.66 583.04 818.8ZM626.38 850.04C627.04 849.24 627.846 849.047 628.8 849.46C640.573 854.547 651.996 859.627 663.07 864.7C666.33 866.19 670.84 868.34 674.25 866.59C676.063 865.657 677.526 864.437 678.64 862.93C679.006 862.424 678.953 861.97 678.48 861.57C672.533 856.59 666.576 851.737 660.61 847.01C655.46 842.92 650.97 840.43 645.15 838.62C640.816 837.28 636.52 835.934 632.26 834.58C631.871 834.457 631.533 834.212 631.3 833.88C630.24 832.334 630.47 831.264 631.99 830.67C632.442 830.49 632.941 830.476 633.4 830.63C638.033 832.197 642.696 833.757 647.39 835.31C657.78 838.74 666.03 846.23 674.24 853.16C677.67 856.06 681.45 858.52 685.57 860.33C685.726 860.4 685.904 860.405 686.065 860.343C686.226 860.281 686.357 860.158 686.43 860L690.17 851.94C690.343 851.56 690.3 851.21 690.04 850.89C685.86 845.67 681.566 840.487 677.16 835.34C674.333 832.054 671.303 829.687 668.07 828.24C658.27 823.874 647.943 819.634 637.09 815.52C636.658 815.355 636.303 815.036 636.094 814.624C635.885 814.211 635.837 813.736 635.96 813.29L636.03 813.03C636.403 811.637 637.263 811.204 638.61 811.73C645.296 814.344 652.776 817.414 661.05 820.94C669.52 824.56 675 827 680.53 833.55C684.303 838.017 687.93 842.417 691.41 846.75C691.449 846.799 691.499 846.838 691.556 846.864C691.613 846.89 691.675 846.902 691.737 846.899C691.799 846.896 691.858 846.878 691.911 846.847C691.964 846.816 692.008 846.773 692.04 846.72C693.17 844.99 694.69 842.58 693.91 840.43C690.23 830.31 684.59 816.55 674.42 811.79C665.233 807.49 655.62 803.217 645.58 798.97C642.246 797.557 638.806 796.3 635.26 795.2C633.24 794.57 631.13 794.73 629.29 795.84C613.55 805.314 597.79 814.734 582.01 824.1C579.596 825.534 577.166 826.744 574.72 827.73C574.42 827.85 574.116 827.87 573.81 827.79C527.656 815.89 481.9 803.93 436.54 791.91C435.46 791.624 434.333 791.674 433.16 792.06C420.54 796.22 412.23 805.54 405.38 816.91C399.493 826.677 394.28 837.274 389.74 848.7C389.653 848.914 389.723 849.034 389.95 849.06C404.323 850.734 418.75 852.15 433.23 853.31C473.896 856.57 514.56 859.537 555.22 862.21C562.4 862.677 569.073 863.26 575.24 863.96C590.633 865.7 605.89 867.52 621.01 869.42C630.556 870.62 641.03 871.594 652.43 872.34C656.01 872.57 658.53 871.87 661.06 869.33C661.46 868.937 661.426 868.58 660.96 868.26C658.913 866.874 656.536 865.604 653.83 864.45C644.796 860.577 635.816 856.704 626.89 852.83C626.623 852.717 626.393 852.531 626.227 852.294C626.061 852.057 625.965 851.779 625.95 851.49C625.91 850.917 626.053 850.434 626.38 850.04ZM690 820.61C689.931 820.574 689.854 820.56 689.777 820.571C689.701 820.581 689.629 820.615 689.573 820.668C689.517 820.721 689.478 820.79 689.464 820.866C689.449 820.942 689.458 821.02 689.49 821.09L696.06 836.22C696.088 836.287 696.136 836.344 696.196 836.383C696.256 836.423 696.327 836.444 696.4 836.444C696.472 836.444 696.543 836.423 696.603 836.383C696.664 836.344 696.711 836.287 696.74 836.22L700.97 826.43C701.008 826.344 701.012 826.246 700.98 826.156C700.949 826.067 700.884 825.993 700.8 825.95L690 820.61ZM449.41 858.18C449.405 858.13 449.382 858.083 449.345 858.048C449.308 858.013 449.26 857.993 449.21 857.99L424.6 855.88C424.213 855.847 424.026 856.027 424.04 856.42L425.22 886.56C425.225 886.713 425.289 886.858 425.399 886.965C425.509 887.071 425.657 887.13 425.81 887.13L478.08 887.14C479.106 887.147 479.16 886.92 478.24 886.46C467.25 881.04 457.08 873.52 450.98 862.98C450.086 861.44 449.563 859.84 449.41 858.18ZM604.8 873.19C605.426 872.85 606.07 872.604 606.73 872.45C609.136 871.89 609.113 871.474 606.66 871.2C598.586 870.3 589.566 869.287 579.6 868.16C572.07 867.31 563.7 869.08 555.68 869.9C540.453 871.474 524.79 873.444 508.69 875.81C508.503 875.839 508.311 875.804 508.146 875.71C507.981 875.615 507.852 875.467 507.78 875.29L507.56 874.78C507.326 874.214 507.513 873.884 508.12 873.79C521.553 871.737 535.09 869.947 548.73 868.42C553.96 867.84 559.31 867.89 564.47 866.97C565.656 866.757 565.646 866.594 564.44 866.48C553.92 865.5 543.393 864.684 532.86 864.03C513.45 862.83 493.98 860.72 474.57 860.21C467.583 860.024 460.413 859.907 453.06 859.86C453.004 859.861 452.95 859.876 452.902 859.905C452.854 859.933 452.815 859.975 452.787 860.024C452.76 860.074 452.746 860.13 452.746 860.187C452.747 860.244 452.762 860.3 452.79 860.35C464.37 879.78 487.58 888.72 508.81 895.04C518.016 897.78 527.583 900.587 537.51 903.46C538.332 903.699 539.188 903.814 540.05 903.8C583.163 903.44 623.98 903.214 662.5 903.12C668.14 903.11 672.09 896.63 673.52 891.32C673.646 890.827 673.456 890.574 672.95 890.56C640.91 889.96 609.28 890.507 578.06 892.2C567.96 892.754 558.17 893.77 548.69 895.25C548.17 895.33 547.903 895.11 547.89 894.59L547.87 893.74C547.863 893.566 547.922 893.395 548.035 893.262C548.148 893.129 548.306 893.043 548.48 893.02C562.533 891.094 575.636 889.854 587.79 889.3C613.983 888.107 642.833 887.64 674.34 887.9C674.78 887.9 675.083 887.7 675.25 887.3L680.12 875.68C680.26 875.347 680.16 875.12 679.82 875C676.066 873.68 672.143 872.19 668.05 870.53C667.216 870.19 666.38 870.077 665.54 870.19C665.22 870.237 664.97 870.394 664.79 870.66C662.43 874.114 659.423 875.824 655.77 875.79C647.59 875.72 638.89 875.4 630.63 875.97C614.88 877.05 599.37 877.81 583.55 879.57C574.523 880.577 563.793 881.887 551.36 883.5C550.466 883.614 549.563 883.734 548.65 883.86C548.556 883.873 548.461 883.867 548.37 883.844C548.279 883.82 548.194 883.778 548.119 883.721C548.045 883.665 547.983 883.594 547.936 883.513C547.89 883.432 547.861 883.343 547.85 883.25L547.79 882.7C547.77 882.523 547.821 882.345 547.931 882.204C548.041 882.064 548.203 881.973 548.38 881.95C551.833 881.524 555.223 881.054 558.55 880.54C568.236 879.047 582.906 877.414 602.56 875.64C603.58 875.547 604.56 875.48 605.5 875.44C612.27 875.17 619.19 874.26 626.06 874.06C627.293 874.027 627.31 873.867 626.11 873.58C620.17 872.17 613.42 873.18 607.22 874.08C606.36 874.207 605.566 874.124 604.84 873.83C604.777 873.804 604.723 873.76 604.684 873.705C604.644 873.649 604.621 873.584 604.617 873.517C604.613 873.45 604.628 873.384 604.66 873.326C604.692 873.268 604.741 873.221 604.8 873.19ZM683.31 863.87C680.4 865.09 678.97 868.12 675.75 869.08C675.136 869.26 675.116 869.497 675.69 869.79C677.43 870.657 679.216 871.3 681.05 871.72C681.174 871.748 681.305 871.733 681.419 871.676C681.534 871.62 681.626 871.526 681.68 871.41L684.75 864.88C684.883 864.587 684.84 864.32 684.62 864.08C684.28 863.72 683.843 863.65 683.31 863.87ZM346.73 916.72C346.743 917.18 346.98 917.38 347.44 917.32C350.626 916.874 354.166 916.834 358.06 917.2C358.213 917.214 358.303 917.144 358.33 916.99V916.98C358.356 916.86 358.31 916.784 358.19 916.75C354.04 915.62 350.06 914.66 345.76 913.97C329.646 911.35 313.06 908.647 296 905.86C289.393 904.774 282.353 903.94 274.88 903.36C274.173 903.307 273.786 903.63 273.72 904.33C273.52 906.32 272.88 908.96 270.42 909.2C268.746 909.36 267.246 909.307 265.92 909.04C264.446 908.747 264.386 908.274 265.74 907.62C266.606 907.2 267.553 906.907 268.58 906.74C268.94 906.68 269.216 906.497 269.41 906.19C270.34 904.72 270.23 902.07 270.16 900.42C270.146 899.987 269.923 899.764 269.49 899.75L261.11 899.52C260.683 899.507 260.47 899.287 260.47 898.86L260.53 879.91C260.53 879.49 260.32 879.277 259.9 879.27L216.13 878.48C216.078 878.479 216.026 878.488 215.977 878.507C215.929 878.526 215.885 878.555 215.847 878.591C215.81 878.627 215.78 878.671 215.76 878.719C215.74 878.767 215.73 878.818 215.73 878.87L215.68 897.97C215.68 898.088 215.656 898.205 215.611 898.314C215.565 898.423 215.498 898.521 215.414 898.603C215.33 898.686 215.231 898.75 215.122 898.792C215.013 898.835 214.896 898.854 214.78 898.85L205.73 898.55C205.056 898.524 204.706 898.847 204.68 899.52L204.5 904.98C204.496 905.082 204.512 905.184 204.548 905.28C204.583 905.375 204.638 905.463 204.707 905.537C204.777 905.612 204.861 905.672 204.954 905.713C205.047 905.755 205.148 905.778 205.25 905.78L256.04 907.13C256.366 907.137 256.556 907.307 256.61 907.64C256.67 908.06 256.65 908.484 256.55 908.91C256.45 909.29 256.206 909.474 255.82 909.46C237.813 908.927 220.4 908.437 203.58 907.99C200.8 907.92 201.24 904.23 201.01 902.34C200.987 902.161 200.9 901.997 200.766 901.878C200.631 901.76 200.458 901.697 200.28 901.7C182.826 901.727 164.553 902.13 145.46 902.91C145.093 902.93 144.913 903.124 144.92 903.49C144.926 903.884 145.196 904.134 145.73 904.24C156.05 906.287 167.323 909.247 179.55 913.12C183.263 914.3 187.82 915.46 193.22 916.6C197.093 917.42 201.253 917.847 205.7 917.88C220.326 917.98 235.453 918.277 251.08 918.77C257.573 918.97 264.293 918.944 271.24 918.69C288.44 918.064 305.636 917.624 322.83 917.37C326.21 917.317 330.016 917.437 334.25 917.73C335.583 917.824 335.73 917.46 334.69 916.64C334.41 916.42 334.226 916.164 334.14 915.87C334.092 915.707 334.091 915.533 334.138 915.369C334.184 915.205 334.275 915.057 334.401 914.943C334.527 914.828 334.683 914.751 334.851 914.721C335.018 914.69 335.191 914.707 335.35 914.77C336.996 915.417 338.223 916.337 339.03 917.53C339.116 917.657 339.203 917.654 339.29 917.52C339.843 916.62 340.683 916.134 341.81 916.06C342.083 916.047 342.323 916.127 342.53 916.3L343.7 917.3C344.04 917.587 344.273 917.517 344.4 917.09C344.566 916.524 344.826 916.014 345.18 915.56C345.261 915.451 345.38 915.376 345.515 915.351C345.65 915.325 345.791 915.35 345.91 915.42C346.43 915.734 346.703 916.167 346.73 916.72ZM193.22 920.41C193.173 919.917 193.096 919.437 192.99 918.97C192.91 918.59 192.68 918.35 192.3 918.25C184.133 916.097 175.38 913.6 166.04 910.76C159.25 908.7 152.2 907.45 145.46 905.19C145.086 905.07 144.77 904.857 144.51 904.55C144.31 904.31 144.06 904.214 143.76 904.26C142.446 904.46 141.016 904.314 139.47 903.82C139.43 903.807 139.403 903.82 139.39 903.86L139.25 904.27C139.19 904.424 139.24 904.53 139.4 904.59C145.473 906.73 151.61 908.747 157.81 910.64C159.94 911.29 162.13 911.57 164.2 912.27C165.653 912.757 167.16 913.174 168.72 913.52C176.58 915.287 184.23 917.28 191.67 919.5C192.243 919.674 192.656 920.007 192.91 920.5C193.183 921.04 193.286 921.01 193.22 920.41ZM192.73 921.52C190.88 920.95 189.11 920.14 187.2 919.69C175.253 916.87 163.46 913.904 151.82 910.79C147.01 909.51 142.48 907.76 137.74 906.31C137.12 906.117 136.846 906.344 136.92 906.99L137.12 908.61C137.161 908.93 137.293 909.231 137.501 909.477C137.708 909.724 137.982 909.905 138.29 910C144.05 911.8 149.336 913.317 154.15 914.55C163.676 916.984 176.293 920.074 192 923.82C192.706 923.987 193.03 923.71 192.97 922.99C192.956 922.81 192.996 922.644 193.09 922.49C193.39 922.01 193.27 921.687 192.73 921.52ZM171.64 930.47C172.065 930.563 172.498 930.61 172.93 930.61C226.37 930.59 286.976 930.42 354.75 930.1C360.543 930.074 365.95 930.14 370.97 930.3C372.923 930.367 372.966 930.114 371.1 929.54C362.66 926.96 353.26 926.68 344.55 926.75C324.63 926.897 303.75 927.09 281.91 927.33C265.003 927.517 237.616 927.424 199.75 927.05C196.483 927.017 193.456 926.667 190.67 926C179.27 923.28 163.93 919.464 144.65 914.55C140.096 913.39 135.626 912.937 131.24 913.19C123.046 913.657 115.063 913.854 107.29 913.78C104.33 913.747 104.29 914.074 107.17 914.76C123.116 918.54 139.56 922.614 156.5 926.98C161.053 928.154 166.1 929.317 171.64 930.47ZM322.88 919.43C322.686 919.264 322.456 919.177 322.19 919.17C318.61 919.037 314.646 919.054 310.3 919.22C295.706 919.767 281.246 920.187 266.92 920.48C260.72 920.614 254.04 920.567 246.88 920.34C230.906 919.84 215.446 919.554 200.5 919.48C199.48 919.48 197.636 919.26 194.97 918.82C194.941 918.815 194.911 918.817 194.883 918.825C194.855 918.834 194.83 918.849 194.809 918.87C194.789 918.891 194.773 918.916 194.765 918.944C194.756 918.972 194.754 919.002 194.76 919.03L194.99 920.29C195.03 920.49 195.153 920.597 195.36 920.61C203.68 920.984 212.03 921.167 220.41 921.16C236.82 921.14 253.03 921.9 269.74 921.65C281.913 921.464 293.76 921.394 305.28 921.44C305.84 921.44 306.316 921.24 306.71 920.84C307.076 920.474 307.39 920.517 307.65 920.97C307.836 921.31 308.116 921.43 308.49 921.33C309.363 921.104 310.093 921.374 310.68 922.14C310.933 922.474 310.853 922.684 310.44 922.77C309.313 922.997 308.15 923.114 306.95 923.12C291.636 923.22 276.58 923.31 261.78 923.39C242.59 923.5 222.15 922.7 204.01 922.84C201.17 922.86 198.333 922.764 195.5 922.55C195.206 922.524 195.043 922.657 195.01 922.95L194.85 924.46C194.823 924.734 194.946 924.87 195.22 924.87C228.486 925.03 251.586 925.074 264.52 925C283.726 924.894 308.043 924.377 337.47 923.45C337.916 923.437 338.123 923.207 338.09 922.76L337.81 919.29C337.756 918.684 337.503 918.58 337.05 918.98C336.916 919.094 336.763 919.18 336.59 919.24C336.17 919.374 335.743 919.43 335.31 919.41C331.61 919.277 327.896 919.16 324.17 919.06C323.96 919.05 323.68 919.2 323.56 919.36C323.36 919.627 323.133 919.65 322.88 919.43ZM359 922.51C359.613 922.43 359.983 921.877 360.11 920.85C360.19 920.19 360.363 920.164 360.63 920.77C360.83 921.23 360.913 921.717 360.88 922.23C360.875 922.287 360.884 922.344 360.906 922.397C360.928 922.449 360.962 922.496 361.005 922.534C361.049 922.572 361.101 922.599 361.157 922.614C361.213 922.629 361.272 922.631 361.33 922.62C361.436 922.594 361.53 922.544 361.61 922.47C361.783 922.317 361.99 922.237 362.23 922.23L370.92 922.03C371.706 922.017 372.1 921.614 372.1 920.82V919.69C372.1 919.084 371.796 918.787 371.19 918.8L359.27 919.1C358.851 919.112 358.447 919.256 358.115 919.511C357.783 919.766 357.539 920.119 357.42 920.52C356.64 923.17 358.16 923.41 359.97 924.59C360.156 924.71 360.36 924.707 360.58 924.58C360.9 924.394 360.876 924.304 360.51 924.31C359.41 924.33 358.906 923.73 359 922.51ZM342.4 923.5C342.567 923.582 342.752 923.621 342.938 923.616C343.124 923.611 343.306 923.562 343.469 923.471C343.631 923.381 343.77 923.253 343.873 923.098C343.976 922.943 344.04 922.765 344.06 922.58L344.27 920.61C344.316 920.19 344.136 919.91 343.73 919.77C342.516 919.357 341.516 919.38 340.73 919.84C340.436 920.02 340.303 920.28 340.33 920.62C340.436 921.934 341.126 922.894 342.4 923.5ZM349.42 921.15C349.68 921.19 349.866 921.317 349.98 921.53C350.313 922.157 350.723 922.79 351.21 923.43C351.256 923.49 351.32 923.514 351.4 923.5L351.87 923.4C352.29 923.314 352.346 923.12 352.04 922.82C351.586 922.36 351.306 921.817 351.2 921.19C351.106 920.637 351.25 920.567 351.63 920.98C352.176 921.567 352.516 922.254 352.65 923.04C352.666 923.136 352.702 923.227 352.755 923.309C352.808 923.39 352.877 923.46 352.959 923.514C353.04 923.568 353.131 923.605 353.228 923.624C353.324 923.642 353.423 923.641 353.52 923.62C354.233 923.467 354.956 923.557 355.69 923.89C356.196 924.124 356.293 924.01 355.98 923.55L355.78 923.24C355.586 922.954 355.323 922.864 354.99 922.97C354.503 923.124 354.153 922.974 353.94 922.52C353.626 921.84 353.56 921.154 353.74 920.46C353.826 920.107 353.69 919.92 353.33 919.9L347.97 919.62C347.817 919.612 347.664 919.64 347.524 919.702C347.383 919.764 347.26 919.86 347.163 919.98C347.067 920.1 347 920.241 346.968 920.392C346.936 920.544 346.94 920.701 346.98 920.85L347.56 923.03C347.666 923.424 347.923 923.64 348.33 923.68L348.7 923.72C349.213 923.767 349.456 923.534 349.43 923.02C349.41 922.5 349.306 922.007 349.12 921.54C349 921.24 349.1 921.11 349.42 921.15ZM345.74 922.24C345.893 921.574 345.9 920.907 345.76 920.24C345.653 919.72 345.506 919.71 345.32 920.21C345.006 921.07 344.973 921.924 345.22 922.77C345.286 923.004 345.426 923.184 345.64 923.31C345.913 923.457 346.196 923.527 346.49 923.52C346.52 923.524 346.55 923.516 346.572 923.497C346.595 923.479 346.608 923.451 346.609 923.42C346.61 923.405 346.608 923.39 346.603 923.375C346.597 923.361 346.59 923.347 346.579 923.335C346.559 923.31 346.53 923.294 346.5 923.29C346.233 923.25 346.013 923.094 345.84 922.82C345.736 922.647 345.701 922.44 345.74 922.24ZM355.79 920.98C355.776 920.42 355.686 920.137 355.52 920.13C355.32 920.117 355.203 920.207 355.17 920.4C355.076 920.84 355.173 921.11 355.46 921.21C355.497 921.225 355.537 921.231 355.577 921.226C355.616 921.222 355.654 921.208 355.687 921.185C355.72 921.162 355.746 921.131 355.764 921.096C355.782 921.06 355.791 921.02 355.79 920.98ZM339.574 923.26C339.603 923.261 339.632 923.236 339.659 923.186C339.687 923.137 339.712 923.065 339.734 922.973C339.756 922.881 339.774 922.772 339.787 922.652C339.8 922.533 339.808 922.404 339.81 922.274C339.814 922.011 339.795 921.759 339.756 921.573C339.718 921.387 339.664 921.281 339.605 921.28C339.576 921.28 339.547 921.305 339.52 921.354C339.492 921.404 339.467 921.476 339.445 921.568C339.423 921.659 339.405 921.768 339.392 921.888C339.379 922.008 339.372 922.137 339.37 922.267C339.366 922.529 339.385 922.782 339.423 922.968C339.461 923.154 339.516 923.259 339.574 923.26Z" fill="#000000"/>
<path d="M857.536 241.31L856.979 241.359C856.175 241.431 855.583 242.14 855.654 242.943L864.579 342.946C864.651 343.749 865.36 344.342 866.163 344.27L866.721 344.221C867.524 344.149 868.117 343.44 868.045 342.637L859.12 242.634C859.049 241.831 858.34 241.238 857.536 241.31Z" fill="#000000"/>
<path d="M814.633 253.833L814.373 253.847C813.573 253.887 812.958 254.568 812.998 255.368L818.406 362.111C818.446 362.911 819.127 363.526 819.927 363.486L820.187 363.473C820.986 363.432 821.602 362.751 821.561 361.951L816.154 255.208C816.114 254.408 815.432 253.793 814.633 253.833Z" fill="#000000"/>
<path d="M984.23 288.13C984.21 289.31 984.787 289.816 985.96 289.65C988.467 289.296 989.713 290.34 989.7 292.78C989.58 314.186 989.573 334.716 989.68 354.37C989.68 355.363 989.26 356.053 988.42 356.44C988.08 356.6 987.857 356.863 987.75 357.23L982.88 373.92C982.853 374.014 982.806 374.102 982.742 374.177C982.678 374.252 982.598 374.312 982.508 374.354C982.418 374.396 982.32 374.418 982.22 374.419C982.12 374.42 982.022 374.399 981.93 374.36C981.497 374.166 981.217 373.836 981.09 373.37C979.697 368.256 978.29 363.256 976.87 358.37C976.44 356.88 975.15 355.59 975.15 354.04C975.183 333.36 975.163 312.586 975.09 291.72C975.089 291.453 975.14 291.19 975.241 290.944C975.342 290.697 975.49 290.473 975.678 290.285C975.866 290.096 976.089 289.946 976.335 289.844C976.58 289.742 976.844 289.69 977.11 289.69L980.03 289.7C980.215 289.7 980.392 289.626 980.525 289.496C980.658 289.365 980.735 289.187 980.74 289C980.81 285.12 980.53 281.1 978.53 277.65C975.923 273.156 971.747 270.886 966 270.84C961.733 270.8 956.77 270.796 951.11 270.83C950.19 270.836 949.76 270.383 949.82 269.47L949.86 268.93C949.927 267.963 950.443 267.463 951.41 267.43C956.73 267.236 961.793 267.25 966.6 267.47C978.63 268.03 984.42 276.93 984.23 288.13ZM980.42 356.31C980.326 356.309 980.233 356.329 980.148 356.37C980.063 356.41 979.988 356.47 979.928 356.543C979.869 356.617 979.826 356.704 979.804 356.797C979.782 356.889 979.781 356.986 979.8 357.08C980.173 358.866 980.79 360.676 981.65 362.51C981.997 363.256 982.297 363.24 982.55 362.46L984.31 357.02C984.337 356.935 984.343 356.845 984.329 356.758C984.314 356.671 984.279 356.588 984.227 356.517C984.174 356.445 984.105 356.388 984.026 356.348C983.946 356.309 983.859 356.289 983.77 356.29L980.42 356.31Z" fill="#000000"/>
<path d="M483.47 389.04C479.33 386.41 474.77 389.53 473.51 393.61C472.603 396.517 472.587 399.913 473.46 403.8C473.497 403.959 473.498 404.124 473.463 404.283C473.428 404.442 473.358 404.592 473.257 404.721C473.157 404.85 473.029 404.956 472.882 405.03C472.736 405.104 472.574 405.145 472.41 405.15H472.08C470.92 405.183 470.193 404.64 469.9 403.52C468.03 396.41 469.75 387.19 477.95 385.09C483.45 383.69 488.81 387.37 491.85 391.75C494.81 396.017 496.523 400.507 496.99 405.22C497.11 406.433 496.607 407.273 495.48 407.74L495.19 407.86C493.897 408.407 493.21 407.977 493.13 406.57C492.73 399.33 489.64 392.95 483.47 389.04Z" fill="#000000"/>
<path d="M597.29 408.59C595.26 405.45 590.89 404.59 588.02 407.21C587.763 407.442 587.463 407.621 587.136 407.736C586.809 407.851 586.463 407.899 586.117 407.879C585.771 407.858 585.432 407.769 585.12 407.616C584.808 407.464 584.529 407.251 584.3 406.99C582.09 404.46 585.64 401.27 587.82 400.51C592.86 398.76 600.95 400.39 602.09 406.73C602.176 407.204 602.122 407.693 601.933 408.135C601.745 408.578 601.431 408.955 601.03 409.22C599.79 410.04 598.15 409.92 597.29 408.59Z" fill="#000000"/>
<path d="M482.919 408.55C481.726 409.043 481.063 409.923 480.929 411.19C480.589 414.4 485.079 416.39 487.539 416.83C488.026 416.91 488.339 417.187 488.479 417.66C489.006 419.4 488.693 420.787 487.539 421.82C487.4 421.945 487.233 422.035 487.053 422.083C486.872 422.132 486.683 422.138 486.499 422.1C482.719 421.307 479.833 419.303 477.839 416.09C473.649 409.33 481.809 400.77 488.429 406.67C489.649 407.757 490.203 409.12 490.089 410.76C490.071 411.014 489.988 411.259 489.848 411.473C489.708 411.686 489.516 411.861 489.289 411.98C486.919 413.24 485.949 410.36 484.879 409.05C484.649 408.767 484.333 408.565 483.98 408.475C483.627 408.385 483.255 408.411 482.919 408.55Z" fill="#000000"/>
<path d="M578.997 424.23C576.703 428.439 576.961 433.006 579.575 434.431C582.188 435.856 586.167 433.599 588.462 429.39C590.757 425.182 590.498 420.614 587.885 419.189C585.271 417.764 581.292 420.021 578.997 424.23Z" fill="#000000"/>
<path d="M626 435.98C624.61 437.85 623.12 441.67 620.19 441.17C611.71 439.72 617.54 429.94 621.11 426.95C622.336 425.923 623.86 425.59 625.68 425.95C625.838 425.981 625.989 426.045 626.123 426.136C626.257 426.227 626.371 426.344 626.46 426.48C628.487 429.64 628.333 432.806 626 435.98Z" fill="#000000"/>
<path d="M560.969 446.73C565.912 446.73 569.919 442.723 569.919 437.78C569.919 432.837 565.912 428.83 560.969 428.83C556.027 428.83 552.02 432.837 552.02 437.78C552.02 442.723 556.027 446.73 560.969 446.73Z" fill="#000000"/>
<path d="M606.659 454.94C607.632 455.146 608.116 454.753 608.109 453.76L607.969 432.28C607.965 431.779 608.152 431.295 608.492 430.928C608.832 430.56 609.3 430.335 609.799 430.3L610.309 430.26C610.495 430.248 610.681 430.273 610.856 430.335C611.032 430.397 611.193 430.495 611.329 430.621C611.466 430.747 611.575 430.9 611.651 431.07C611.727 431.24 611.767 431.424 611.769 431.61C611.829 438.93 611.833 446.103 611.779 453.13C611.759 456.25 609.689 459.39 606.259 458.86C602.533 458.286 598.973 457.67 595.579 457.01C594.153 456.73 593.766 455.94 594.419 454.64C594.906 453.66 595.999 453.166 597.699 453.16C597.835 453.16 597.96 453.163 598.06 453.168C598.159 453.173 598.228 453.181 598.259 453.19L606.659 454.94Z" fill="#000000"/>
<path d="M589.88 472.25C590.053 472.129 590.198 471.971 590.303 471.788C590.409 471.605 590.473 471.401 590.492 471.191C590.51 470.981 590.481 470.77 590.408 470.573C590.336 470.376 590.22 470.197 590.07 470.05L586.44 466.45C586.237 466.251 586.096 465.997 586.033 465.719C585.971 465.442 585.99 465.152 586.087 464.883C586.185 464.615 586.358 464.38 586.585 464.206C586.812 464.032 587.085 463.926 587.37 463.9C590.07 463.68 593.64 468.88 594.32 470.87C595.12 473.17 591.51 475.8 589.89 476.57C589.037 476.97 588.276 476.837 587.61 476.17C587.37 475.93 587.206 475.624 587.12 475.25C587.055 474.977 587.074 474.69 587.176 474.426C587.277 474.162 587.457 473.933 587.69 473.77L589.88 472.25Z" fill="#000000"/>
<path d="M384.83 569.76C379.77 555.4 369.84 538.85 353.07 537.13C352.183 537.036 351.8 536.549 351.92 535.669L351.99 535.219C352.117 534.253 352.667 533.77 353.64 533.77C355.087 533.77 356.563 533.993 358.07 534.44C373.36 539 382.74 553.97 388.01 568.31C388.403 569.37 388.07 570.1 387.01 570.5L386.67 570.62C385.763 570.96 385.15 570.673 384.83 569.76Z" fill="#000000"/>
<path d="M391.763 653.243C391.011 656.906 393.252 660.46 396.769 661.182C400.285 661.904 403.745 659.52 404.497 655.857C405.249 652.195 403.008 648.64 399.491 647.919C395.975 647.197 392.514 649.581 391.763 653.243Z" fill="#000000"/>
<path d="M909.029 654.19L878.409 661.55C878.229 661.592 878.04 661.572 877.873 661.494C877.706 661.415 877.57 661.282 877.488 661.116C877.406 660.951 877.382 660.762 877.42 660.582C877.459 660.401 877.557 660.238 877.699 660.12L879.039 659.04C879.133 658.964 879.242 658.909 879.359 658.88L909.959 651.52C910.14 651.474 910.331 651.492 910.501 651.569C910.671 651.647 910.809 651.78 910.893 651.946C910.977 652.113 911.002 652.303 910.963 652.486C910.924 652.668 910.824 652.832 910.679 652.95L909.359 654.03C909.263 654.108 909.15 654.162 909.029 654.19Z" fill="#000000"/>
<path d="M830.459 676.67C843.706 674.164 856.146 671.86 867.779 669.76C871.906 669.014 875.706 668.1 879.179 667.02C887.059 664.57 894.739 662.55 902.449 660.29C903.563 659.964 904.723 659.817 905.929 659.85C906.283 659.857 906.403 660.027 906.289 660.36C906.083 660.947 905.693 661.377 905.119 661.65C902.613 662.83 900.223 663.727 897.949 664.34C887.099 667.26 875.619 670.8 864.419 672.71C858.089 673.79 851.559 674.68 845.259 676.02C837.659 677.634 829.979 679.13 822.219 680.51C822.074 680.535 821.926 680.53 821.783 680.496C821.64 680.462 821.506 680.398 821.389 680.31C821.163 680.144 821.043 679.967 821.029 679.78C820.976 679.1 821.276 678.68 821.929 678.52C824.463 677.887 827.306 677.27 830.459 676.67Z" fill="#000000"/>
<path d="M865.928 662.938L828.207 670.339C827.676 670.443 827.33 670.958 827.434 671.489L827.441 671.528C827.546 672.059 828.061 672.405 828.592 672.301L866.313 664.901C866.844 664.797 867.19 664.281 867.086 663.75L867.078 663.711C866.974 663.18 866.459 662.834 865.928 662.938Z" fill="#000000"/>
<path d="M899.553 668.859L871.128 675.631C870.451 675.792 870.033 676.472 870.194 677.149L870.208 677.207C870.37 677.884 871.049 678.302 871.726 678.141L900.15 671.369C900.827 671.208 901.245 670.528 901.084 669.851L901.07 669.793C900.909 669.116 900.229 668.698 899.553 668.859Z" fill="#000000"/>
<path d="M850.77 678.666L815.567 686.664C815.039 686.784 814.709 687.309 814.828 687.837L814.837 687.876C814.957 688.403 815.482 688.734 816.01 688.614L851.213 680.616C851.741 680.496 852.071 679.971 851.951 679.443L851.943 679.404C851.823 678.877 851.298 678.546 850.77 678.666Z" fill="#000000"/>
<path d="M887.78 684.91L813.27 697.3C812.89 697.36 812.707 697.197 812.72 696.81L812.76 696.01C812.769 695.848 812.833 695.694 812.94 695.574C813.047 695.454 813.192 695.375 813.35 695.35C824.1 693.66 834.83 691.52 845.84 689.92C861.553 687.62 876.673 684.997 891.2 682.05C892.187 681.85 892.43 682.187 891.93 683.06C890.37 685.813 888.497 688.497 886.31 691.11C885.663 691.883 884.847 692.367 883.86 692.56L806.37 707.37C806.277 707.389 806.182 707.387 806.089 707.366C805.997 707.344 805.911 707.303 805.836 707.246C805.761 707.188 805.699 707.114 805.655 707.031C805.611 706.947 805.585 706.855 805.58 706.76L805.55 706.33C805.539 706.133 805.6 705.938 805.721 705.782C805.842 705.625 806.016 705.518 806.21 705.48C830.43 700.71 854.73 696.22 879.63 691.35C884.08 690.48 885.99 688.8 888.02 685.25C888.042 685.212 888.052 685.169 888.05 685.125C888.048 685.082 888.033 685.04 888.008 685.004C887.983 684.968 887.948 684.941 887.908 684.924C887.867 684.907 887.823 684.902 887.78 684.91Z" fill="#000000"/>
<path d="M578.244 872.992L538.665 877.362C538.143 877.419 537.767 877.889 537.825 878.41L537.867 878.788C537.924 879.309 538.394 879.685 538.915 879.628L578.495 875.258C579.016 875.201 579.392 874.731 579.335 874.21L579.293 873.832C579.235 873.31 578.766 872.934 578.244 872.992Z" fill="#000000"/>
<path d="M667.49 883.4C652.76 883.12 638.87 883.28 624.66 883.93C624.273 883.95 624.033 883.774 623.94 883.4C623.8 882.84 624 882.464 624.54 882.27C625.16 882.057 625.816 881.927 626.51 881.88C640.303 881.06 653.76 880.93 666.88 881.49C667.094 881.497 667.3 881.566 667.47 881.69C667.943 882.004 668.156 882.39 668.11 882.85C668.07 883.224 667.863 883.407 667.49 883.4Z" fill="#000000"/>
<path d="M587.408 882.912L566.041 885.12C565.585 885.167 565.254 885.575 565.301 886.031L565.34 886.409C565.387 886.865 565.795 887.196 566.251 887.149L587.617 884.941C588.073 884.894 588.405 884.486 588.358 884.03L588.319 883.652C588.271 883.196 587.864 882.865 587.408 882.912Z" fill="#000000"/>
<path d="M325.309 920.85C325.503 920.69 325.576 920.734 325.529 920.98C325.356 921.894 324.793 922.43 323.839 922.59C323.286 922.684 323.226 922.554 323.659 922.2L325.309 920.85Z" fill="#000000"/>
<path d="M341.888 921.793C342.095 922.299 342.475 922.623 342.736 922.516C342.996 922.409 343.039 921.912 342.832 921.406C342.624 920.9 342.245 920.577 341.984 920.684C341.724 920.791 341.681 921.287 341.888 921.793Z" fill="#000000"/>
<path d="M312.869 921.41C313.516 921.777 314.169 921.74 314.829 921.3C314.934 921.229 315.057 921.189 315.183 921.184C315.31 921.179 315.435 921.209 315.545 921.272C315.655 921.334 315.746 921.426 315.807 921.537C315.868 921.648 315.896 921.774 315.889 921.9C315.849 922.694 315.439 923.06 314.659 923C313.806 922.94 312.886 922.804 311.899 922.59C311.86 922.583 311.823 922.566 311.792 922.542C311.76 922.517 311.735 922.485 311.717 922.448C311.7 922.412 311.691 922.371 311.691 922.33C311.692 922.288 311.701 922.248 311.719 922.21L311.989 921.67C312.028 921.594 312.082 921.526 312.148 921.471C312.214 921.416 312.291 921.375 312.373 921.35C312.456 921.326 312.542 921.319 312.628 921.329C312.713 921.339 312.795 921.367 312.869 921.41Z" fill="#000000"/>
<path d="M330.311 922.006C330.345 922.341 330.488 922.601 330.631 922.587C330.774 922.572 330.862 922.289 330.828 921.954C330.794 921.618 330.651 921.358 330.508 921.373C330.365 921.387 330.277 921.671 330.311 922.006Z" fill="#000000"/>
<path d="M332.22 921.54C332.232 921.496 332.255 921.456 332.288 921.425C332.32 921.393 332.361 921.371 332.405 921.361C332.449 921.351 332.495 921.353 332.538 921.367C332.582 921.381 332.62 921.406 332.65 921.44C332.897 921.733 333 922.074 332.96 922.46C332.927 922.82 332.78 922.87 332.52 922.61C332.213 922.303 332.113 921.947 332.22 921.54Z" fill="#000000"/>
<path d="M358.999 922.51C358.373 922.39 358.039 922.09 357.999 921.61C357.979 921.336 358.096 921.25 358.349 921.35C358.729 921.496 358.946 921.883 358.999 922.51Z" fill="#000000"/>
<path d="M327.53 921.78C327.51 921.434 327.623 921.384 327.87 921.63C328.023 921.79 328.106 921.97 328.12 922.17C328.16 922.77 328.02 922.817 327.7 922.31C327.6 922.144 327.543 921.967 327.53 921.78Z" fill="#000000"/>
<path d="M320.04 922.07C320.22 921.89 320.427 921.774 320.66 921.72C320.699 921.71 320.74 921.708 320.779 921.715C320.819 921.722 320.857 921.737 320.89 921.76C320.923 921.783 320.951 921.813 320.972 921.847C320.993 921.882 321.006 921.92 321.01 921.96C321.05 922.36 320.877 922.607 320.49 922.7C320.29 922.747 320.127 922.687 320 922.52C319.873 922.36 319.887 922.21 320.04 922.07Z" fill="#000000"/>
</g>
<defs>
<clipPath id="clip0_93_3232">
<rect width="1024" height="1024" fill="none"/>
</clipPath>
</defs>
</svg>
