<svg width="1024" height="510" viewBox="0 212 1024 510" fill="none" xmlns="http://www.w3.org/2000/svg">
<g clip-path="url(#clip0_93_5370)">
<rect width="1024" height="1024" fill="none"/>
<path d="M294 222.14C302.29 222.36 310.59 223.02 318.9 222.91C325.67 221.88 332.49 223.09 339.29 222.84C341.59 224.22 344.32 222.96 346.83 223.16C349.26 222.72 352.31 224.4 354.13 222.11C357.2 223.46 360.6 223.34 363.88 223.22C370.28 223.45 376.67 223.01 383.04 222.38C389.95 222.12 396.91 222.6 403.69 223.96C404.07 223.5 404.81 222.58 405.19 222.12C408.38 225.26 412.8 223.24 416.69 223.53C422.78 223.61 428.87 223.59 434.97 223.79C440.31 223.57 445.65 223.89 450.94 224.74C451.32 224.43 452.1 223.82 452.49 223.52C458.39 225.48 464.96 222.78 470.55 225.79C472.08 226.56 473.8 225.89 475.41 225.73C475.87 225.92 476.8 226.29 477.26 226.47C477.35 226.02 477.54 225.11 477.64 224.66C480.82 226.47 484.57 225.71 488.04 225.61C493.92 224.68 499.79 226.15 505.68 226.21C510 226.13 514.26 227.02 518.48 227.86C519.06 227.47 520.2 226.71 520.77 226.32C524.42 228.36 528.89 226 532.89 227.08C541.44 227.25 550.1 227.23 558.53 228.87C558.89 228.35 559.63 227.32 560 226.8C560.59 227.51 561.2 228.23 561.81 228.95C568.99 228.23 576.42 230.96 583.4 228.9C583.8 229.2 584.58 229.79 584.97 230.08C592.92 230.6 600.91 230.44 608.87 230.9C613.35 230.93 617.76 232.16 622.25 231.68C624.64 232.07 627.05 232.36 629.48 232.01C629.61 232.64 629.86 233.92 629.99 234.55L630.12 232.6C631.04 232.64 631.97 232.68 632.91 232.71C638.1 233.78 643.59 233.82 648.84 233.03C654.07 234.75 659.72 234.3 665.03 235.78C665.32 235.51 665.9 234.97 666.19 234.7C666.62 235.01 667.46 235.64 667.89 235.95C673.92 236.1 679.95 236.37 685.97 236.89C691.19 236.25 696.51 236.31 701.67 237.46C702.09 237.24 702.92 236.81 703.34 236.6C713.12 238.12 723.09 236.56 732.85 238.08C733.97 237.69 735.07 237.27 736.17 236.81C736.55 236.94 737.29 237.18 737.67 237.3C741.54 236.64 745.86 236.76 748.75 233.57C748.81 234.34 748.94 235.87 749 236.64C749.15 235.84 749.46 234.26 749.62 233.46C751.12 235.62 753.38 238.15 752.48 241C751.1 245.77 751.09 250.81 749.4 255.51C748.13 264 747.73 272.63 746.69 281.16C746.48 286.81 746.3 292.48 745.14 298.03C745.53 300.14 744.83 302.2 744.51 304.27C743.83 318.64 740.33 332.67 738.75 346.95C737.78 356.84 736.77 366.73 734.64 376.45C735.82 377.68 737.02 378.91 738.27 380.08C738.78 380.08 739.79 380.08 740.3 380.08C741.79 384.12 745.53 386.61 748.34 389.69C751.24 392.84 754.72 395.34 758.08 397.96C762.27 402.61 767.23 406.5 772.2 410.26C774.95 410.11 778.07 410.73 778.34 414.07C777.84 419.21 776.94 424.37 775.75 429.41C775.42 429.47 774.77 429.58 774.44 429.64C774.68 430.14 775.18 431.15 775.42 431.65C775.01 440.13 773.16 448.47 773.05 456.97C772.98 459.61 771.8 462.21 772.77 464.83C772.64 467.6 772.1 470.38 772.55 473.2C770.26 494.5 772.81 515.85 773.84 537.17C774.08 549.05 774.7 560.95 773.83 572.83C773.36 575.56 775.02 578.15 774.11 580.88C774.39 588.27 775.38 595.79 774.36 603.2C774.24 605.81 775.82 608.49 774.3 610.96C774.52 616.64 774.76 622.32 774.63 628C775.08 630.87 773.74 633.72 774.58 636.56C774.88 637.79 774.52 639.03 774.31 640.25C774.43 641.73 774.5 643.22 774.48 644.71C774.28 651.97 776.67 659.43 774.75 666.54C773.05 669.36 776.5 672.62 773.76 675.15C773.71 677.15 774.11 679.12 774.84 681C773 684.1 773.9 687.79 774.78 691.06C774.86 702.67 774.25 714.38 776.04 725.9C776.35 727.95 776.3 730.04 776.29 732.12C828.39 732.99 880.5 732.13 932.61 732.64C932.6 734.01 932.6 735.37 932.62 736.76C890.97 736.5 849.32 736.77 807.67 736.57C797.4 736.6 787.12 736.5 776.85 736.82C775.41 738.11 773.92 739.36 772.35 740.5C771.74 740.04 770.52 739.11 769.91 738.65C762.11 738.87 754.36 737.93 746.6 737.25C746.15 737.63 745.23 738.38 744.77 738.75C744.39 738.32 743.63 737.44 743.25 737C741.15 737.05 739.07 737.18 737.01 737.46C729.98 736.89 722.81 736.71 715.85 738.02C715.43 737.92 714.57 737.74 714.14 737.65C704.39 738.51 694.6 739.13 684.8 738.67C677.88 738.33 670.94 739.03 664.03 738.58C659.33 738.2 654.74 739.7 650.05 739.62C643.04 740.23 635.95 739.35 628.99 740.53C621.2 740.29 613.38 740.94 605.63 741.65C605.27 741.46 604.57 741.08 604.22 740.89C597.03 741.51 589.74 741.65 582.58 740.65C569.86 740.06 557.14 739.06 544.39 739.4C531.61 740.06 518.81 739.88 506.03 740.36C501.99 740.41 497.85 740.28 494.01 738.87C480.32 738.65 466.64 738.88 452.95 738.9C443.6 738.24 434.34 740.16 425.01 740.55C414.11 740.02 403.26 741.64 392.36 741.12C391.8 741.26 390.67 741.54 390.11 741.69C388.42 741.7 386.73 741.84 385.07 742.1C384.54 741.85 383.48 741.35 382.95 741.1C375.32 742.07 367.61 741.54 359.99 740.72C345.7 739.96 331.37 738.94 317.06 739.79C307.34 739.81 297.61 740.15 287.92 739.33C278.97 738.76 270.01 739.22 261.06 738.97C258.4 739.01 255.85 740.04 253.19 739.87C252.03 739.05 251.18 737.88 250.23 736.87C237.32 736.67 224.41 736.76 211.5 736.72C171.74 736.87 131.97 736.81 92.2001 736.83C92.1601 735.41 92.1301 734 92.0901 732.6C145.39 732.73 198.69 732.84 251.99 732.31C251.59 727.58 251.31 722.84 251.54 718.1C251.5 704.98 250.96 691.86 251.28 678.74C250.79 668.84 250.02 658.91 250.37 649C249.97 647.05 250.05 645.07 250.32 643.12C250.04 634.13 250.76 625.15 250.68 616.15C251.13 607.8 250.47 599.43 250.79 591.07C250.13 577.07 251.88 563.11 251.39 549.11C251.92 539.05 250.68 529.01 251.46 518.96C250.49 515.39 251.95 511.76 251.31 508.17C251.28 494.45 252.1 480.75 251.83 467.02C252.42 458.68 251.54 450.29 252.35 441.99C252 436.03 251.67 430.04 252.02 424.08C251.65 418.64 250.2 411.86 254.58 407.61C257.84 405.67 261.14 403.8 264.02 401.3C268.29 398.9 271.17 393.2 276.71 393.87C277.43 392.57 278.06 391.11 279.53 390.51C283.34 388.39 286.99 385.99 290.99 384.23C292.47 361.3 291.79 338.28 291.47 315.32C291.3 309.56 291.78 303.81 292.14 298.08C291.74 286.73 294.46 275.46 293.09 264.13C292.38 256.34 293.67 248.49 292.71 240.75C295.9 235.9 291.5 230.91 290.89 226.01C291.47 224.44 292.47 222.93 294 222.14ZM349.64 228.73C347.14 229.93 344.47 228.19 341.92 228.98C338.14 230.25 334.1 230.32 330.15 230.24C324.44 229 318.6 230.17 312.83 229.66C310.82 229.4 309.04 230.5 307.14 230.9C304.71 230.77 302.29 230.41 299.86 230.48C299.1 234.71 299.68 239.01 299.26 243.26C299.21 246.48 298.77 249.75 299.68 252.9C298.01 256.18 298.87 259.88 299.19 263.35C298.7 266.42 298.24 269.73 299.95 272.52C299.73 273.09 299.28 274.22 299.05 274.79C300.51 282.52 298.48 290.38 298.8 298.18C298.04 302.78 297.86 307.52 298.68 312.13C298.54 312.86 298.28 314.3 298.15 315.02C298.29 324.11 299.18 333.37 297.42 342.35C297.62 343.01 298.03 344.34 298.23 345C297.98 345.48 297.48 346.45 297.23 346.94C297.69 353.79 297.27 360.68 296.72 367.51C296.8 368.97 296.83 370.43 296.93 371.89C296.51 375.82 296.24 379.83 297.22 383.71C296.3 388.09 295.15 392.52 295.79 397.03C294.61 402.22 296.32 407.75 294.22 412.73C294.55 414.55 294.53 416.42 294.24 418.26C295.57 424.93 294.48 431.83 295.14 438.6C303.18 444.61 311.81 449.85 319.43 456.4C321.42 457.5 323.37 458.67 325.09 460.19C325.19 460.65 325.4 461.56 325.5 462.02C330.71 464.06 334.78 468.26 338.64 472.21C340.79 473.91 343.12 475.36 345.31 477.03C346.29 477.57 347.28 478.13 348.26 478.69C349.84 480.2 351.66 481.41 353.53 482.53C355.98 484.27 358.34 486.13 360.48 488.25C363.35 490.11 366.58 491.66 368.56 494.58C373.68 496.44 376.38 501.48 381.12 503.9C387.03 507.92 391.72 513.5 397.88 517.14C398.73 517.7 399.58 518.26 400.44 518.81C401.73 519.66 402.89 520.7 404 521.79C405.08 522.22 406.16 522.67 407.23 523.15C408.27 526.54 411.94 527.75 414.64 529.55C417.2 531.21 419.92 528.56 422.61 528.6C428.7 529.05 434.73 530.65 440.87 530.14C447.61 530.04 454.39 530.44 461.02 531.63C462 531.4 463 531.18 464 530.99C469.98 531.72 476 530.2 481.98 531.15C491.39 530.03 500.88 530.74 510.33 530.44C509.32 531.72 508.45 533.09 507.58 534.46C504.96 534.96 502.3 533.88 499.74 534.76C494.69 536.21 489.36 535.56 484.25 536.58C482.48 535.91 480.64 536.07 478.87 536.6C475.24 535.97 471.58 537.34 467.96 536.64C465.59 536.24 463.18 536.39 460.8 536.25C447.22 537.4 433.71 535.02 420.13 534.8C425.84 539.9 432.58 543.66 438.31 548.74C439.76 549.92 441.56 550.51 443.26 551.25C444.38 552.94 445.95 554.25 447.7 555.26C451.21 557.34 453.46 561.04 457.17 562.84C460.05 564.16 461.32 567.4 464.12 568.89C467.6 570.78 469.7 575.22 474.13 574.94C475.03 576.1 475.96 577.25 476.92 578.38C481.79 575.09 486 570.77 491.54 568.55C509.77 559.84 533.73 564.12 546.88 579.74C552.63 576.29 557.28 571.28 563.28 568.22C570.35 564.19 576.29 558.43 583.51 554.68C586.7 550.19 592.35 548.83 596.32 545.26C597.56 544.24 598.65 543 600.11 542.28C603.96 540.59 606.78 537.33 609.38 534.13C616.6 531.46 621.71 525.19 628.57 521.85C631.67 518.41 635.66 516.02 639.35 513.28C642.89 510.75 646.18 507.76 650.32 506.24C656.31 501.61 662.19 496.84 668.53 492.69C675.65 486.23 684.16 481.61 691.4 475.31C701.85 467.52 712.93 460.67 722.72 451.98C722.36 449.98 721.98 447.95 722.22 445.92C723.07 438.66 723.68 431.38 724.73 424.16C725.34 415.63 727.66 407.22 727.36 398.66C729.66 394.61 728.54 389.78 729.63 385.41C731.35 378.12 731.8 370.63 732.76 363.22C733.62 352.73 735.3 342.32 736.35 331.85C738.04 323.49 739.1 315.02 740.29 306.58C740.72 300.06 742.38 293.72 742.04 287.13C743.67 272.04 744.72 256.89 746.91 241.86C737.41 244.07 727.59 242.89 717.99 244.13C712 243.48 706.03 242.77 699.99 243.15C694.03 243.6 688.06 242.44 682.14 243.24C679.76 241.96 677.05 241.77 674.51 242.65C673.06 242.16 671.66 241.31 670.09 241.4C665.03 241.61 660.08 240.37 655.11 239.66C642.1 236.81 628.7 238.46 615.55 236.95C614.92 237.11 613.64 237.44 613 237.6C609.91 236.01 606.28 237.61 603.32 235.74C600.57 235.82 597.82 236 595.1 235.59C593.06 236.19 591 236.04 589.17 234.92C584.41 235.16 579.58 234.83 574.89 234.08C574.43 234.27 573.53 234.65 573.08 234.84C569.82 233.66 566.29 234.53 562.96 233.77C562.41 233.89 561.33 234.13 560.79 234.25C560.33 233.91 559.41 233.23 558.95 232.89C558.13 233.45 557.31 234.01 556.51 234.57C552.23 233.09 547.63 232.72 543.14 232.81C526.46 231.42 509.61 233.33 493 230.94C483.01 230.58 473.01 231.16 463.04 231.29C459.18 230.28 455.14 231.17 451.31 230.12C445.3 231.35 439.19 228.25 433.34 230.44C428.15 228.63 422.47 229.2 417.11 229.61C414.93 229.25 412.73 228.64 410.52 229.08C407.11 229.88 403.49 228.34 400.27 230.06C399.1 229.61 397.93 229.16 396.77 228.72C396.35 229.07 395.52 229.77 395.1 230.12C390.94 228.29 386.32 228.62 381.92 228.03C377.2 227.15 372.49 228.55 367.76 228.09C367.25 228.66 366.74 229.24 366.24 229.82C363.92 228.45 361.34 227.73 358.64 227.86C357.85 228.29 357.06 228.72 356.28 229.15C354.17 228.18 351.83 227.7 349.64 228.73ZM258.24 416.71C257.63 419.13 256.53 421.42 256.06 423.87C256.93 442.91 256.19 461.96 255.88 481C255 484.31 256.36 487.68 255.92 491.04C255.23 498.63 256.05 506.29 254.75 513.82C255.88 516.74 254.83 519.87 255.26 522.9C255.28 535.69 256.24 548.5 255.66 561.27C256.17 564.16 255.85 567.06 255.16 569.88C255.81 572 256.67 574.22 255.17 576.23C256.5 584.06 255.54 592.06 255.76 599.96C256.05 610.47 254.92 621.01 255.81 631.51C255.79 632.98 255.54 634.44 255.21 635.88C255.31 645.59 255.23 655.31 255.91 665C256.1 666.93 255.04 668.67 254.53 670.47C255 670.86 255.93 671.63 256.4 672.02C256.05 673.4 255.67 674.78 255.26 676.16C257.12 684.62 256.15 693.39 256.72 701.99C257.25 712.01 256.69 722.09 257.7 732.08C259.25 732.55 260.8 733.04 262.35 733.54C264.33 733.25 266.33 733.13 268.33 733.1L268.47 732.34C274.53 733.03 280.65 732.06 286.73 732.7C300.05 734.51 313.52 733.66 326.91 734.12C332.89 733.29 338.9 733.76 344.91 733.78C354.29 735.38 363.9 734.17 373.25 736.05C386.75 736.83 400.31 734.79 413.81 735.97C414.32 735.73 415.33 735.25 415.84 735C427.21 735.35 438.62 734.2 449.95 733.61C454.09 733.21 458.28 733.39 462.36 734.28C472.83 733.29 483.35 733.58 493.84 733.85C498.46 730.79 504.05 733.18 509.07 733.54C520.34 734.43 531.66 733.91 542.95 733.84C546.25 734.13 549.62 734.31 552.85 733.39C556.92 733.78 561.02 733.75 565.11 733.66C569.91 734.1 574.73 735.27 579.58 734.65C585.82 734.88 591.98 735.88 598.21 736.22C603.8 735.59 609.48 736.34 615.01 735.39C620.98 735.59 626.96 734.75 632.94 735.37C642.91 733.85 653.15 735.15 663.13 733.42C664.39 733.57 665.66 733.71 666.93 733.83C673.63 732.94 680.43 733.28 687.2 733.11C687.62 732.87 688.47 732.37 688.9 732.13C694.5 734.68 700.24 731.32 705.97 731.69C711.42 731.92 716.94 730.86 722.3 732.25C727.24 731.58 732.18 730.31 737.22 730.93C742.49 731.7 747.7 730.01 752.98 730.23C757.03 730.47 761.02 731.29 765.07 731.62C766.56 731.75 767.88 731.29 769.01 730.25C765.39 728.67 761.51 727.45 758.49 724.8C755.53 722.06 751.63 720.77 748.54 718.24C742.84 714.02 736.29 710.36 732.33 704.31C727.12 702.97 724.05 698.12 720.32 694.64C717.8 691.07 713.53 689.48 710.82 686.12C707.45 682.17 703.05 679.33 699.39 675.7C693.83 670.19 687.52 665.47 682.3 659.63C677.94 654.68 672.7 650.64 667.98 646.07C660.79 638.93 653.44 631.9 647.15 623.94C644.08 621.25 642.27 617.37 638.75 615.21C637.29 613 635.64 610.96 633.62 609.27C632.06 607.07 631.26 604.07 628.19 603.55C626.44 598.99 621.75 596.88 619.14 592.92C611.97 586.79 606.38 579.11 599.99 572.24C594.27 568.61 589.13 564.1 584.93 558.77C580.07 561.51 575.36 564.51 571.16 568.21C563.34 571.85 556.61 577.35 549.47 582.11C560.69 597.14 562.42 618.63 553.23 635.06C546.71 646.33 535.52 654.96 522.76 657.82C508.84 661.16 493.32 657.93 482.22 648.78C474.37 642.55 468.5 633.8 465.98 624.07C462.13 609.81 465.34 593.97 474.15 582.16C465.08 574.75 454.14 569.73 445.8 561.4C445.12 563.89 443.22 566.78 440.19 565.72C435.1 564.92 436.02 556.79 440.97 556.46C431.95 551.68 424.75 544.24 416.53 538.28C409.59 533.35 403.25 527.72 396.53 522.55C374.6 505.79 352.98 488.63 331.16 471.74C315.82 460.41 300.49 449.07 285 437.97C276.45 430.43 267.61 423.22 258.24 416.71ZM760.59 429.66C757.52 432.29 754.44 435.26 750.39 436.23C747.41 441.43 741.44 443.43 737.03 447.08C733.46 450.92 729.12 453.95 724.73 456.76C721.67 458.61 719.76 461.86 716.46 463.35C711.9 465.64 708.69 469.81 704.3 472.35C695.84 476.46 689.49 483.69 681.42 488.43C678.49 490.06 676.56 492.96 673.6 494.56C669.41 496.94 665.91 500.25 662.19 503.25C660.19 504.96 657.55 505.85 655.87 507.93C653.46 511.16 649.11 511.69 646.17 514.26C641.83 518.01 636.23 520.15 632.61 524.75C629.7 525.5 627.79 527.85 625.48 529.57C617.81 534.89 610.01 540.1 602.97 546.22C599.25 548.49 595.28 550.51 592.32 553.79C599.33 560.16 604.08 568.57 611.06 574.96C614.58 578.47 618.22 581.85 621.31 585.77C625.76 589.32 628.82 594.18 632.89 598.11C635.15 600.29 636.34 603.85 639.78 604.45C640.44 606.23 641.26 608.01 642.69 609.33C653.78 618.95 661.87 631.41 672.45 641.53C675.32 644.27 678.12 647.1 680.52 650.27C682.45 651.73 684.47 653.05 686.44 654.46C686.77 654.2 687.44 653.68 687.77 653.42C686.61 657.25 690.6 659.75 692.98 662.03C698.71 666.24 702.86 672.17 708.66 676.31C710.76 679.32 713.94 681.12 717.03 682.96C718.96 683.99 719.31 686.7 721.45 687.46C722.73 688.17 724.34 688.57 725.1 689.97C727.49 694.14 732.24 696.09 734.86 700.12C740.83 703.92 745.75 709.18 750.33 714.55C751.38 714.69 752.44 714.83 753.52 714.99C754.46 716.54 755.4 718.19 757.02 719.16C760.83 721.96 764.36 725.65 769.2 726.54C768.36 708.02 769.1 689.43 769.06 670.89C769.61 663.92 769.19 656.91 769.82 649.96C768.75 647.34 769.85 644.6 769.73 641.91C770.07 636.59 768.71 631.34 769.21 626.03C768.89 617.02 768.54 607.99 769.18 598.98C768.95 591.92 769.83 584.82 768.76 577.8C769.41 571.15 769.25 564.45 769.4 557.78C769.84 546.14 768.56 534.54 768.52 522.92C766.07 506.41 767.51 489.69 767.18 473.08C768.64 463.14 767.12 452.93 769 442.99C769.52 435.36 770.51 427.78 771.17 420.17C767.56 423.25 764.1 426.48 760.59 429.66ZM501.39 569.65C491.93 572.01 483.25 577.6 477.48 585.5C470.41 594.58 467.61 606.61 469.09 617.95C470.87 630.76 478.8 642.56 490.04 648.98C498.95 654.52 510 656.12 520.24 654.12C530.79 651.83 540.63 645.71 546.79 636.76C552.47 628.72 555.61 618.8 554.86 608.93C554.12 596.6 547.98 584.58 538.03 577.17C527.75 569.4 513.9 566.59 501.39 569.65Z" fill="#0055CC"/>
<path d="M814.22 246.16C816.99 245.29 819.49 243.76 822.16 242.62C825.28 242.61 828.38 243.61 831.51 243.04C832.9 245 834.71 246.76 835.62 249.03C835.31 252.69 835.92 256.81 833.95 260.07C830.11 263.94 825.64 267.12 820.97 269.9C816.48 272.54 812.08 275.8 806.79 276.54C804.23 276.83 801.66 277.04 799.14 277.49C796.99 274.63 793.43 272 794.19 267.96C795.25 263.65 798.6 260.48 800.53 256.58C801.76 253.79 804.98 252.95 807.43 251.56C810.13 250.32 811.2 246.91 814.22 246.16ZM817.34 251.2C809.42 255.1 805.55 263.56 800.72 270.46C806.39 271.68 811.14 267.77 816.26 266.16C820.43 263.77 824.47 261.13 828.57 258.6C831.59 256.86 831.64 251.91 828.52 250.24C824.95 248.43 820.7 249.44 817.34 251.2Z" fill="#0055CC"/>
<path d="M396.27 284.06C402.86 282.78 409.47 280.98 416.26 281.94C423.38 282.4 430.22 285.77 435.2 290.84C436.66 293 438.5 294.88 440.04 296.98C441.62 301.43 444.43 305.43 444.96 310.22C447.17 320.08 444.6 330.06 443.44 339.87C441.25 347.27 438.3 355.11 431.77 359.79C427.14 363.04 421.75 365.97 415.98 366.05C411.5 365.52 410.91 360.45 410.32 356.91C407.31 360.39 405.38 364.92 401.18 367.23C394.43 372.2 385.01 373.16 377.5 369.42C373.96 367.59 373.82 363.33 373.69 359.87C373.76 354.5 376.21 349.57 376.71 344.28C377.01 339.7 379.69 335.79 380.65 331.38C381.4 327.49 384.82 325.06 386.82 321.84C388.79 318.83 392.39 317.49 394.29 314.44C394.54 314.91 394.8 315.38 395.08 315.85C395.52 315.29 396.41 314.18 396.85 313.62C399.17 313.55 401.05 312.06 403.1 311.17C404.8 311.82 406.49 311.4 408.07 310.63C408.86 311.21 409.66 311.8 410.46 312.38C410.94 310.24 411.52 308.12 412.38 306.09C415.45 305.52 417.63 308.29 418.11 311.04C419.65 315.38 416.88 319.57 416.8 323.9C416.66 329.7 416.47 335.5 415.78 341.26C416.54 346.53 416.8 351.86 417.21 357.17C420.63 357.47 424.25 356.45 426.4 353.62C431.58 347.95 433.97 340.47 435.15 333.03C438.28 322.57 437.02 311.02 431.93 301.4C430.11 299.59 428.39 297.63 427.54 295.16C425.01 293.99 422.84 292.25 420.69 290.51C416.82 289.34 412.96 286.25 408.81 288.01C406.88 288.6 404.88 288 402.92 288.11C396.34 288.81 389.93 291.52 385.15 296.16C379.46 300.49 375.59 306.59 370.74 311.74C368.8 314.49 366.84 317.23 364.87 319.96C362.61 324.02 360.63 328.22 358.17 332.16C358.52 336.66 355.24 340.3 354.52 344.61C353.22 352.3 350.98 360.22 353.12 367.99C355.5 376.34 360.32 383.73 365.55 390.57C370.45 393.28 375.71 395.58 379.97 399.28C382.59 399.21 385.27 399.01 387.8 399.88C395.69 399.33 404.15 400.09 411.53 396.75C415.82 392.93 421.11 390.65 426.02 387.82C429.41 383.86 431.51 378.91 434.97 374.97C437.19 373.1 439.47 371.2 442.23 370.2C443.37 373.76 442.65 377.69 441.3 381.08C438.12 386 433.11 389.59 427.85 392.04C424.3 397.55 417.91 400.95 411.59 402.18C408.09 405.17 403.34 405.47 398.98 406C394.53 406.06 390 407.58 385.64 406.09C385.01 406.28 383.75 406.68 383.12 406.87C379.87 405.32 376.02 406.02 372.89 404.19C369.78 402.39 366.12 401.83 363.09 399.86C357.39 396.61 354.07 390.75 350.39 385.57C347.7 381.87 346.2 377.46 345.07 373.08C344.54 368.12 345.05 363.08 344.08 358.18C344.45 354.41 345.86 350.71 345.16 346.89C346.69 343.62 347.31 340.07 347.84 336.53C348.35 332.75 350.78 329.68 352.43 326.35C353.93 323.51 354.53 320.16 356.81 317.77C359.83 314.36 361.4 309.86 364.83 306.8C367.2 304.53 369.68 302.34 371.74 299.77C375.28 295.04 381.02 292.77 385.33 288.97C386.6 288.47 387.86 287.96 389.15 287.5C389.38 287.27 389.84 286.83 390.08 286.6C392.2 285.92 394.27 285.07 396.27 284.06ZM399.47 318.12C395.86 321.74 391.92 325.49 390.31 330.49C387.21 338.78 384.32 347.21 383.22 356.01C383.74 359.15 386.28 361.37 387.39 364.28C390.15 364.27 393.37 364.72 395.56 362.64C399.02 359.35 401.79 355.42 404.27 351.36C406.12 348.46 406.93 345.01 408.99 342.22C410.18 336.5 409.18 330.65 409.87 324.9C408.11 322.5 407.46 319.55 406.25 316.87C403.99 317.32 401.74 317.76 399.47 318.12Z" fill="#0055CC"/>
<path d="M821.49 342.451C825.94 339.921 831.23 339.991 835.92 338.101C840.51 339.501 845.34 339.091 850.05 339.591C854.48 338.471 858.53 341.171 862.67 342.331C866.21 344.281 869.35 347.261 871.04 350.991C868.1 353.471 869.76 358.301 866.47 360.451C863.87 362.021 860.95 363.141 857.96 363.611C850.74 363.331 843.63 361.941 836.62 360.301C829.99 360.731 824.61 356.041 819.17 352.921C819.6 349.421 818.29 344.971 821.49 342.451ZM825.92 349.301C835.53 356.081 847.58 357.061 858.86 358.551C860.38 358.311 861.83 357.721 863.29 357.231C863.15 354.651 863.53 351.541 861.34 349.681C857.35 346.401 851.99 345.541 847.02 344.901C839.65 344.091 832.89 347.611 825.92 349.301Z" fill="#0055CC"/>
<path d="M268.14 717.891C270.96 716.121 274.41 718.931 274.26 721.971C274.72 725.761 268.78 727.041 266.85 724.141C265.2 722.211 266.1 719.161 268.14 717.891Z" fill="#0055CC"/>
<path d="M829.39 292.54C834.47 291.27 839.75 291.34 844.95 291.51C849.33 293.46 853.75 296.44 855.67 301.02C854.26 304.1 854.28 307.71 852.52 310.61C849.65 313.47 845.59 314.74 841.73 315.59C836.9 316.22 832.05 315.23 827.23 315.09C823.36 315.11 819.97 312.99 816.66 311.27C814.96 310.3 812.63 308.68 813.6 306.42C814.29 303.63 813.47 299.92 816.34 298.16C820.24 295.42 824.84 293.83 829.39 292.54ZM832.62 297.94C827.58 299.62 822.53 301.57 818.15 304.64C821.98 307.27 826.31 309.53 831.09 309.45C836.01 309.38 841.04 311.16 845.87 309.64C849.39 308.42 849.68 303.23 847.19 300.88C843.36 297.29 837.54 296.33 832.62 297.94Z" fill="#0055CC"/>
<path d="M289.18 701.281C292.27 699.441 296.22 702.541 295.47 705.971C295.14 709.411 290.16 710.341 288.18 707.771C286.26 705.941 286.8 702.421 289.18 701.281Z" fill="#0055CC"/>
<path d="M468.43 357.79C469.81 356.94 471.07 355.11 472.89 355.52C479.12 356.94 485.67 356.23 491.81 358.18C493.48 358.92 495.13 358.3 496.46 357.2C499.67 358.47 503.16 358.69 506.56 358.35C510.66 358.73 514.78 358.89 518.9 358.91C527.1 360.79 535.63 360.72 544.01 360.59C549.05 361.21 554.12 360.62 559.17 361.03C565.66 361.16 572.15 362.57 578.65 361.61C583.18 362.26 587.79 362.14 592.3 363C606.81 365.29 621.54 364.36 636.15 365.09C651.39 365.13 666.65 365.46 681.77 367.45C683.06 367.77 684.5 368.96 683.52 370.38C678.49 372.9 672.98 371.17 667.66 371.69C651.03 370.5 634.36 370.82 617.69 371.09C611.45 371.59 605.25 368.86 599.01 370.46C596.44 368.25 593.13 370.09 590.24 369.01C585.55 367.72 580.56 368.61 575.92 367.09C572.86 365.88 570.09 369.11 567.02 368.01C562.74 366.82 558.25 367.28 553.93 366.41C546.61 366.4 539.31 365.39 532.01 365.82C529.37 365.23 526.66 364.3 524.08 365.65C521.17 363.33 517.61 365.01 514.32 364.32C506.56 363.28 498.64 364.39 490.95 362.92C484.95 363.98 478.94 362.31 472.93 362.18C470.37 362.26 469.38 359.67 468.43 357.79Z" fill="#0055CC"/>
<path d="M473.19 386.47C475.74 385.9 478.41 385.85 480.9 384.95C488.33 387.8 496.43 387.37 504.21 388.4C513.5 388.93 522.73 390.26 531.99 391.1C546.98 391.36 561.96 391.23 576.94 391.86C585.83 391.62 594.64 393.32 603.52 392.74C611.68 393.51 619.94 392.87 628.04 394.25C629.6 394.45 631.19 394.23 632.76 394.11C633.18 394.3 634.02 394.66 634.44 394.84C644.13 395.26 653.74 396.54 663.46 396.54C667.62 397.63 671.99 397.23 676.2 397.98C678.62 398.52 678.57 401.19 678.21 403.15C676.08 403.11 673.97 403.03 671.86 402.83C671.37 403 670.38 403.35 669.88 403.52C668.8 403.22 667.72 402.91 666.65 402.61C666.28 402.69 665.55 402.85 665.18 402.93C655.58 401.31 645.89 399.96 636.13 400.06C626.33 398.97 616.44 399.64 606.65 398.67C606.26 398.95 605.49 399.49 605.11 399.77C604.22 399.39 603.31 399.06 602.4 398.79C586.01 397.36 569.51 397.79 553.07 397.16C546.76 397.21 540.48 396.13 534.16 396.47C521.28 396.65 508.47 394.47 495.71 392.91C488.87 392.79 481.99 392.95 475.2 392.04C472.73 391.76 471.41 388.21 473.19 386.47Z" fill="#0055CC"/>
<path d="M365.1 456.02C364.88 453.33 368.2 453.42 370 452.89C374.74 455.08 379.97 455.45 385.08 456.02C397.98 457.25 411 457.71 423.92 457.76C432.85 458.15 441.71 456.93 450.64 457.09C456.25 456.63 461.89 456.68 467.5 456.16C474.97 458 482.54 455.3 490.05 456.7C498.95 456.81 507.88 456.44 516.78 456.79C520.66 457.39 524.63 457.84 528.54 457.11C532.05 457.06 535.55 457.49 539.07 457.26C539.46 457.51 540.23 458.01 540.61 458.26C546.98 457.06 553.36 460.06 559.68 458.58C567.58 459.59 575.6 458.99 583.54 459.62C590.63 460.34 597.85 459.09 604.84 460.85C605.37 460.28 605.92 459.72 606.47 459.16C606.8 459.59 607.47 460.46 607.81 460.9C612.34 460.24 616.68 462.34 621.18 461.64C627.79 461.6 634.42 462.71 641.03 461.75C643.12 461.09 644.04 463.62 644.55 465.19C644.15 466.88 642.64 467.95 641.64 469.28C635.67 468.76 629.7 466.8 623.72 467.57C616.62 465.62 609.12 465.52 601.8 465.39C590.53 466.02 579.33 463.9 568.07 464.8C560.69 465.35 553.28 465.12 545.91 465.12C542.11 463.62 537.45 462.47 533.87 465.12C530.11 461.75 524.56 462.61 520.44 464.8C519.36 464.22 518.29 463.65 517.23 463.09C511.47 462.74 505.69 462.76 499.95 462.14C497.65 462 495.32 462.89 493.11 461.91C487.77 461.59 482.38 462.24 477.14 461.09C472.2 461.37 467.25 461.67 462.31 461.27C454.4 460.52 446.53 462.38 438.64 462.12C438.17 462.32 437.23 462.72 436.76 462.92C430.81 462.4 424.79 463.17 418.86 462.23C410.56 462.38 402.25 462.05 393.94 462.21C390.27 462.04 386.54 462.16 382.95 461.33C378.15 462.47 373.39 460.58 368.79 459.38C367.3 458.83 364.57 458.15 365.1 456.02Z" fill="#0055CC"/>
<path d="M326.31 665.23C329.29 663.23 333.49 666.4 332.71 669.8C332.35 673.03 328 674.32 325.71 672.23C323.44 670.5 323.94 666.63 326.31 665.23Z" fill="#0055CC"/>
<path d="M373.14 485.02C379.02 484.07 385.02 485.5 390.96 485.36C395 485.94 399.07 486.62 403.18 486.42C404.82 487.48 406.57 486.76 408.23 486.2C408.75 486.39 409.78 486.77 410.3 486.96C422.22 486.35 434.14 486.44 446.07 486.18C447.47 486.01 448.83 486.33 450.1 486.94C457.43 486.4 464.75 487.86 472.09 488.03C486.39 488.31 500.68 489.33 515 489.15C522.69 490.21 530.58 488.54 538.24 490.19C539.01 489.8 539.78 489.42 540.56 489.05C544.51 489.59 548.48 489.09 552.43 488.8C558.26 489.37 564.12 488.99 569.97 489.14C572.72 489.73 575.66 489.84 578.05 488.1C582.52 491.26 587.99 489.35 593.01 489.68C599.8 489.39 606.63 489.57 613.4 490.16C613.83 489.87 614.69 489.29 615.12 489C615.56 489.29 616.43 489.86 616.86 490.15C621.57 491 626.41 491.67 631.19 490.88C633.71 490.11 634.7 493.85 633.46 495.45C630 496.29 626.35 496.28 622.81 496.12C621.95 496.43 621.1 496.75 620.25 497.07C617.91 495.86 615.25 496 612.72 495.75C605.27 496.23 597.96 492.93 590.52 494.54C585.25 492.69 579.59 493.99 574.17 493.27C562.81 493.54 551.42 494.29 540.05 494.92C538.26 494.86 536.5 495.12 534.84 495.77C529.56 494.61 524.07 495.89 518.77 494.62C515.58 495.86 512.18 494.93 508.88 495.17C504.18 495.55 499.43 495.33 494.8 494.5C493.98 494.7 493.17 494.9 492.36 495.12C485.91 493.73 479.14 492.85 472.51 493.16C463.3 493.07 454.12 491.3 444.89 492.08C440.95 492.33 437 492.03 433.06 492.15C428.48 492.66 423.87 492.91 419.27 492.7C410.46 493.19 401.59 493.21 392.84 492.01C386.09 489.72 378.98 489.14 371.93 488.57C372.36 487.45 371.39 485.17 373.14 485.02Z" fill="#0055CC"/>
<path d="M381.4 612.05C383.89 610.44 387.42 612.23 387.79 615.11C388.54 618.31 384.24 621.15 381.56 619.37C378.77 617.99 378.86 613.67 381.4 612.05Z" fill="#0055CC"/>
<path d="M526.41 530.89C530.69 530.72 534.94 531.36 539.21 531.52C538.93 532.04 538.36 533.09 538.07 533.61C534.97 534.03 531.81 535.52 528.72 534.27C526.84 533.45 524.9 533.98 523.08 534.65C518.72 533.54 514.27 534.93 509.87 534.26C509.3 534.31 508.15 534.41 507.58 534.46C508.45 533.09 509.32 531.72 510.33 530.44C515.69 529.85 521.05 530.73 526.41 530.89Z" fill="#0055CC"/>
<path d="M420.06 575.09C422.8 573.62 426.18 576.09 426.24 579.02C426.71 582.46 422.05 584.47 419.52 582.49C416.82 580.89 417.15 576.28 420.06 575.09Z" fill="#0055CC"/>
<path d="M402.37 592.36C405.3 591.05 408.82 593.92 408.32 597.05C408.06 600.51 402.96 601.69 400.88 599.07C399.13 597.04 399.77 593.35 402.37 592.36Z" fill="#0055CC"/>
<path d="M364.42 629.24C367.19 627.37 371.05 629.93 370.9 633.12C370.98 636.18 367.04 638.12 364.5 636.57C361.85 635.08 361.67 630.74 364.42 629.24Z" fill="#0055CC"/>
<path d="M345.37 648.35C348.36 647.01 351.96 649.93 351.31 653.14C350.78 656.43 346.05 657.66 343.89 655.17C342.03 653.14 342.67 649.32 345.37 648.35Z" fill="#0055CC"/>
<path d="M308.44 682.599C311.87 680.869 315.93 685.58 313.67 688.7C312.49 690.56 309.75 691.759 307.83 690.229C304.77 688.719 305.37 683.739 308.44 682.599Z" fill="#0055CC"/>
</g>
<defs>
<clipPath id="clip0_93_5370">
<rect width="1024" height="1024" fill="none"/>
</clipPath>
</defs>
</svg>
