<svg width="1024" height="834" viewBox="0 142 1024 834" fill="none" xmlns="http://www.w3.org/2000/svg">
<g clip-path="url(#clip0_93_6338)">
<rect width="1024" height="1024" fill="none"/>
<path d="M735.93 536.95C737.363 537.81 737.727 538.994 737.02 540.5C736.333 541.954 735.213 543.597 733.66 545.43C729.913 549.83 724.92 554.83 718.68 560.43C710.91 567.41 703.97 572.36 693.78 573.07C692.28 573.177 691.037 572.987 690.05 572.5C689.843 572.398 689.659 572.254 689.51 572.077C689.362 571.899 689.252 571.693 689.187 571.472C689.122 571.25 689.104 571.017 689.134 570.788C689.163 570.559 689.24 570.338 689.36 570.14C690.76 567.8 692.65 566.43 694.66 564.68C705.707 555.034 716.713 547.047 727.68 540.72C732.04 538.214 734.233 536.95 734.26 536.93C734.553 536.73 734.55 536.624 734.25 536.61L718.79 535.92C718.531 535.908 718.278 535.994 718.08 536.16C709.32 543.474 699.667 549.08 689.12 552.98C685.89 554.18 681.77 555.11 678.55 555.85C678.197 555.93 678.033 556.147 678.06 556.5C678.413 562.154 678.407 565.63 678.04 566.93C677.627 568.397 676.68 569.034 675.2 568.84C674.918 568.801 674.662 568.659 674.48 568.44C673.633 567.434 672.917 566.297 672.33 565.03C671.11 562.41 669.92 560.14 668.76 558.22C668.587 557.927 668.33 557.79 667.99 557.81C651.97 558.69 637.08 557.61 622.32 551.71C622.053 551.604 621.92 551.694 621.92 551.98L622.23 693.72C622.228 693.753 622.236 693.787 622.252 693.816C622.269 693.845 622.294 693.868 622.323 693.883C622.353 693.898 622.387 693.904 622.42 693.9C622.453 693.896 622.484 693.882 622.51 693.86C628.95 689.107 636.12 685.813 644.02 683.98C644.333 683.907 644.417 683.73 644.27 683.45C640.93 676.77 636.82 667.62 636.93 660.83C636.957 658.844 637.86 657.437 639.64 656.61C639.796 656.537 639.965 656.497 640.138 656.494C640.31 656.491 640.481 656.523 640.64 656.59C641.44 656.93 642.167 657.45 642.82 658.15C649.06 664.85 652.87 670.62 658.96 679.49C659.133 679.737 659.37 679.89 659.67 679.95C662.07 680.384 664.537 680.453 667.07 680.16C667.417 680.12 667.597 679.927 667.61 679.58L668.43 657.97C668.432 657.937 668.424 657.904 668.408 657.875C668.391 657.846 668.366 657.822 668.336 657.807C668.306 657.793 668.273 657.787 668.24 657.791C668.206 657.795 668.175 657.809 668.15 657.83C665.16 660.5 663.19 658.63 660.24 656.45C650.42 649.2 646.26 640.18 645.39 627.93C644.983 622.237 645.083 617.177 645.69 612.75C645.883 611.384 646.467 610.254 647.44 609.36C647.779 609.049 648.224 608.879 648.684 608.882C649.144 608.886 649.586 609.064 649.92 609.38C650.733 610.147 651.79 611.597 653.09 613.73C660.023 625.103 665.077 637.28 668.25 650.26C668.537 651.434 668.723 651.417 668.81 650.21C669.357 642.65 670.307 634.124 671.66 624.63C673.233 613.604 675.71 599.79 679.09 583.19C679.457 581.39 680.443 580.677 682.05 581.05C682.117 581.064 682.15 581.07 682.15 581.07C683.75 581.41 684.42 582.287 684.16 583.7C682.82 591.04 681.37 597.95 680.23 605.57C678.41 617.717 676.273 631.634 673.82 647.32C672.83 653.62 673.26 660.26 672.86 666.22C672.827 666.693 672.643 671.214 672.31 679.78C672.303 680.074 672.437 680.23 672.71 680.25L683.2 680.93C683.333 680.941 683.466 680.921 683.59 680.872C683.713 680.824 683.822 680.748 683.91 680.65C686.803 677.364 689.877 674.614 693.13 672.4C695.437 670.834 697.333 670.983 698.82 672.85C699.04 673.13 699.16 673.443 699.18 673.79C699.36 677.263 698.3 680.5 696 683.5C695.909 683.62 695.847 683.759 695.818 683.906C695.79 684.054 695.795 684.206 695.835 684.351C695.875 684.496 695.947 684.63 696.047 684.743C696.146 684.855 696.271 684.943 696.41 685C702.717 687.574 706.037 688.93 706.37 689.07C721.397 695.41 733.69 705.417 743.25 719.09C749.443 727.944 754.133 737.573 757.32 747.98C759.873 756.327 762.173 765.177 764.22 774.53C765.387 779.864 767.267 785.26 769.86 790.72C770.467 792 770.897 791.944 771.15 790.55C771.83 786.804 772.213 782.78 772.3 778.48C772.813 752.02 764.467 728.814 747.26 708.86C744.82 706.034 741.44 702.567 737.12 698.46C736.127 697.52 736.13 696.66 737.13 695.88C737.157 695.86 737.177 695.844 737.19 695.83C737.334 695.637 737.527 695.485 737.758 695.385C737.989 695.285 738.251 695.239 738.53 695.249C738.808 695.26 739.096 695.326 739.375 695.445C739.653 695.564 739.917 695.733 740.15 695.94C751.337 705.954 760.06 717.48 766.32 730.52C774.033 746.6 777.263 764.094 776.01 783C775.683 787.94 775.063 792.17 774.15 795.69C774.087 795.932 774.081 796.184 774.131 796.429C774.181 796.673 774.287 796.903 774.44 797.1C777.047 800.42 780.127 803.66 783.68 806.82C788.65 811.25 792.09 813.7 794.68 818.15C799.39 826.25 798.58 837.59 795.8 846.11C793.06 854.504 788.997 862.43 783.61 869.89C783.588 869.92 783.574 869.955 783.571 869.992C783.567 870.029 783.574 870.066 783.591 870.1C783.608 870.133 783.633 870.161 783.665 870.18C783.696 870.2 783.733 870.21 783.77 870.21L825.44 870.15C825.479 870.149 825.517 870.137 825.55 870.116C825.582 870.095 825.608 870.065 825.625 870.03C825.642 869.994 825.648 869.955 825.644 869.916C825.639 869.878 825.624 869.841 825.6 869.81C824.033 867.97 822.867 866.56 822.1 865.58C820.1 863.02 818.22 859.99 820.25 857.16C820.415 856.93 820.624 856.735 820.865 856.586C821.107 856.437 821.375 856.338 821.654 856.294C821.933 856.25 822.219 856.263 822.493 856.331C822.767 856.399 823.024 856.521 823.25 856.69C824.777 857.83 826.117 859.1 827.27 860.5C827.27 860.5 829.18 862.83 833 867.49C833.227 867.77 833.347 867.73 833.36 867.37C833.527 862.95 833.78 858.93 834.12 855.31C835.28 843.004 839.613 831.48 847.12 820.74C848.093 819.354 849.137 818.897 850.25 819.37C850.45 819.457 850.63 819.53 850.79 819.59C851.983 820.05 852.2 820.8 851.44 821.84C841.373 835.554 836.947 851.327 838.16 869.16C838.164 869.222 838.186 869.281 838.223 869.331C838.261 869.38 838.312 869.418 838.37 869.439C838.428 869.46 838.491 869.464 838.552 869.45C838.612 869.436 838.667 869.405 838.71 869.36C842.65 865.414 846.847 862.004 851.3 859.13C852.027 858.664 852.88 858.53 853.86 858.73C854.627 858.89 855.11 859.414 855.31 860.3C855.637 861.74 855.19 863.064 853.97 864.27C852.463 865.75 850.727 867.264 848.76 868.81C847.66 869.677 847.81 870.11 849.21 870.11L947.97 870.19C948.274 870.191 948.575 870.25 948.853 870.363C949.13 870.476 949.378 870.641 949.579 870.847C949.779 871.052 949.928 871.293 950.015 871.553C950.101 871.812 950.123 872.084 950.08 872.35C950.08 872.377 950.07 872.4 950.05 872.42C949.672 872.84 949.266 873.182 948.866 873.418C948.467 873.654 948.084 873.778 947.75 873.78L98.2499 873.71C97.1299 873.71 96.6799 873.173 96.8999 872.1C96.9132 872.06 96.9199 872.01 96.9199 871.95C96.9999 870.764 97.6999 870.174 99.0199 870.18L150.59 870.23C150.626 870.23 150.661 870.223 150.694 870.209C150.727 870.194 150.757 870.173 150.781 870.147C150.806 870.121 150.824 870.09 150.836 870.056C150.848 870.022 150.853 869.986 150.85 869.95C149.16 851.74 152.48 831.54 162.29 816.07C169.59 804.56 182.84 799.36 195.97 796.92C208.297 794.633 218.69 794.297 227.15 795.91C227.215 795.923 227.282 795.922 227.346 795.907C227.411 795.891 227.471 795.862 227.524 795.822C227.576 795.781 227.619 795.729 227.649 795.67C227.68 795.611 227.697 795.546 227.7 795.48C227.727 794.987 227.767 792.754 227.82 788.78C228.12 765.02 227.857 743.26 227.03 723.5C226.55 712.074 226.033 700.65 225.48 689.23C225.087 681.177 224.673 674.524 224.24 669.27C223.153 656.07 222.14 645.647 221.2 638C219.36 623.054 217.563 609.904 215.81 598.55C215.197 594.557 214.57 591.3 213.93 588.78C212.523 583.214 211.35 577.847 210.41 572.68C208.21 560.58 204.55 548.074 199.43 535.16C197.503 530.307 195.11 525.467 192.25 520.64C191.517 519.387 191.763 518.434 192.99 517.78C192.997 517.78 193.023 517.767 193.07 517.74C194.337 517.147 195.307 517.417 195.98 518.55C200.08 525.517 203.27 532.534 205.55 539.6C205.81 540.407 205.933 540.387 205.92 539.54C205.907 538.854 206.013 538.08 206.24 537.22C208.95 526.88 214.03 517.91 220.36 508.1C225.667 499.874 231.85 491.067 238.91 481.68C239.843 480.434 240.9 480.11 242.08 480.71C242.529 480.938 242.884 481.315 243.083 481.778C243.282 482.24 243.313 482.758 243.17 483.24C240.083 493.7 237.377 503.39 235.05 512.31C233.977 516.417 231.967 520.067 229.02 523.26C227.187 525.254 223.06 529.717 216.64 536.65C215.633 537.737 213.603 539.367 210.55 541.54C209.417 542.347 208.3 542.557 207.2 542.17C206.847 542.05 206.723 542.167 206.83 542.52C209.463 551.34 211.55 558.734 213.09 564.7C214.043 568.36 214.783 571.977 215.31 575.55C215.483 576.704 215.75 576.724 216.11 575.61C221.06 560.2 228.76 545.71 241.1 535.38C242.667 534.074 244.32 533.03 246.06 532.25C246.387 532.11 246.707 532.114 247.02 532.26C248.59 533 249.35 534.35 249.06 536.21C246.49 552.55 240.66 568.53 228.68 580.17C225.8 582.97 222.433 585.067 218.58 586.46C218.395 586.526 218.239 586.656 218.142 586.827C218.045 586.997 218.012 587.197 218.05 587.39C219.983 597.377 221.613 607.63 222.94 618.15C223.1 619.377 223.193 621.01 223.22 623.05C223.233 623.944 223.377 623.967 223.65 623.12C229.39 605.33 236.89 588.43 248.6 573.87C249.587 572.644 250.84 571.527 252.36 570.52C252.768 570.252 253.263 570.149 253.744 570.232C254.225 570.316 254.656 570.58 254.95 570.97C255.603 571.83 255.887 572.847 255.8 574.02C255.007 584.847 253.797 594.657 252.17 603.45C251.01 609.724 247.95 615.307 242.99 620.2C239.297 623.847 235.19 627.247 230.67 630.4C228.73 631.754 226.987 632.613 225.44 632.98C225.093 633.06 224.94 633.277 224.98 633.63C227.173 653.957 228.443 667.197 228.79 673.35C229.757 690.483 230.51 705.074 231.05 717.12C232.077 740 232.373 764.967 231.94 792.02C231.913 793.554 231.957 794.72 232.07 795.52C232.117 795.84 232.3 796.047 232.62 796.14C234.7 796.74 236.17 795.877 237.03 793.55C239.17 787.757 242.297 780.813 246.41 772.72C253.35 759.053 263.36 748.08 276.44 739.8C277.827 738.92 278.923 739.167 279.73 740.54C279.81 740.667 279.85 740.747 279.85 740.78C279.919 741.191 279.86 741.616 279.68 742.004C279.5 742.391 279.208 742.724 278.84 742.96C264.653 752.054 254.037 764.57 246.99 780.51C243.883 787.537 242.037 791.724 241.45 793.07C240.837 794.484 241.14 794.717 242.36 793.77C246.88 790.25 250.51 786.5 253.25 782.52C263.08 768.22 271.79 755.93 285.31 748.29C292.477 744.243 300.123 741.757 308.25 740.83C313.743 740.204 318.93 740.944 323.81 743.05C323.88 743.08 323.957 743.092 324.033 743.085C324.11 743.078 324.183 743.051 324.246 743.009C324.31 742.966 324.362 742.908 324.397 742.84C324.433 742.772 324.451 742.697 324.45 742.62C324.377 627.314 324.393 531.857 324.5 456.25C324.513 445.084 327.31 435.594 332.89 427.78C333.44 427.02 334.4 426.11 334.97 425.21C335.047 425.089 335.088 424.95 335.09 424.807C335.092 424.664 335.054 424.523 334.98 424.4C330.56 417.12 327.697 409.98 326.39 402.98C323.09 385.294 325.57 368.994 333.83 354.08C344.58 334.66 365.04 320.52 387.66 320.98C387.762 320.981 387.864 320.957 387.955 320.911C388.047 320.864 388.125 320.797 388.185 320.713C388.245 320.63 388.284 320.534 388.299 320.432C388.313 320.331 388.304 320.227 388.27 320.13C385.63 312.41 383.627 305.12 382.26 298.26C377.307 273.427 382.62 251.237 398.2 231.69C403.807 224.657 410.637 218.417 418.69 212.97C437.87 199.984 459.3 194.32 482.98 195.98C483.313 196.007 483.457 195.854 483.41 195.52C479.55 168.29 485.79 142.51 504.55 122.63C519.39 106.904 537.393 98.3269 558.56 96.9002C565.247 96.4535 571.923 96.5769 578.59 97.2702C593.47 98.8302 606.747 104.084 618.42 113.03C634.067 125.03 643.873 141.257 647.84 161.71C647.893 161.99 648.057 162.087 648.33 162C661.077 157.98 672.81 158.35 683.53 163.11C698.17 169.617 707.74 181.02 712.24 197.32C712.32 197.594 712.5 197.72 712.78 197.7C736.45 196.15 759.24 203.05 777.59 217.78C798.69 234.707 810.717 256.78 813.67 284C815.69 302.647 812.64 320.727 804.52 338.24C802.88 341.76 799.85 345.86 799.05 350.05C797.857 356.304 795.84 362.037 793 367.25C792.873 367.484 792.93 367.65 793.17 367.75C804.943 372.51 814.593 379.914 822.12 389.96C834.9 406.99 839.21 429.01 835.79 450.04C833.61 463.48 828.93 476.15 821.65 487.77C805.61 513.384 782.013 528.997 750.86 534.61C747.253 535.257 742.307 535.91 736.02 536.57C735.613 536.61 735.583 536.737 735.93 536.95ZM530.87 151.5C533.77 148.11 535.36 147.47 540 146.8C540.507 146.727 540.827 146.444 540.96 145.95C541.027 145.697 541.043 145.51 541.01 145.39C540.917 145.053 540.699 144.754 540.39 144.541C540.081 144.328 539.699 144.212 539.3 144.21C534.867 144.21 531.463 145.85 529.09 149.13C528.603 149.804 528.603 150.46 529.09 151.1L529.34 151.44C529.833 152.1 530.343 152.12 530.87 151.5ZM532.45 162.85C535.75 161.01 539.393 159.77 543.38 159.13C547.987 158.39 551.557 158.05 554.09 158.11C554.268 158.115 554.445 158.081 554.608 158.012C554.771 157.943 554.915 157.841 555.03 157.712C555.144 157.584 555.227 157.433 555.27 157.272C555.313 157.11 555.317 156.942 555.28 156.78L555.15 156.21C555.073 155.874 554.887 155.574 554.626 155.364C554.365 155.154 554.044 155.047 553.72 155.06C547.873 155.287 542.287 156.09 536.96 157.47C534.36 158.144 532.173 159.13 530.4 160.43C529.693 160.944 529.673 161.57 530.34 162.31L530.62 162.63C531.113 163.184 531.723 163.257 532.45 162.85ZM537.47 174.39C539.843 173.044 542.59 172.504 545.71 172.77C546.557 172.844 547.093 172.47 547.32 171.65C547.36 171.497 547.367 171.27 547.34 170.97C547.267 170.317 546.9 169.95 546.24 169.87C541.333 169.317 537.297 170.484 534.13 173.37C532.82 174.57 530.86 176.84 531.66 178.52C531.933 179.114 532.383 179.43 533.01 179.47C533.343 179.49 533.607 179.36 533.8 179.08C535 177.31 535.85 175.31 537.47 174.39ZM672.34 219.17C672.067 218.59 671.797 216.867 671.53 214C671.437 213.034 670.967 212.824 670.12 213.37L669.64 213.67C669.376 213.838 669.159 214.081 669.009 214.377C668.858 214.672 668.78 215.011 668.78 215.36C668.773 219.374 669.99 222.404 672.43 224.45C672.554 224.555 672.701 224.631 672.858 224.672C673.015 224.714 673.18 224.72 673.34 224.69C673.74 224.617 674.04 224.444 674.24 224.17C674.32 224.06 674.365 223.92 674.371 223.765C674.376 223.61 674.341 223.446 674.27 223.29C674.19 223.11 673.547 221.737 672.34 219.17ZM665.55 239.05C666.943 240.444 668.863 241.487 671.31 242.18C671.565 242.253 671.862 242.236 672.169 242.133C672.476 242.029 672.784 241.842 673.06 241.59C673.153 241.504 673.227 241.394 673.28 241.26C673.62 240.4 673.35 239.817 672.47 239.51C670.39 238.784 668.737 237.91 667.51 236.89C666.377 235.77 665.347 234.21 664.42 232.21C664.027 231.364 663.42 231.15 662.6 231.57C662.467 231.637 662.363 231.724 662.29 231.83C662.068 232.128 661.912 232.45 661.838 232.764C661.765 233.078 661.775 233.373 661.87 233.62C662.803 235.994 664.03 237.804 665.55 239.05ZM422.59 254.4C421.503 254.954 420.1 256.05 418.38 257.69C418.205 257.856 418.106 258.099 418.099 258.376C418.091 258.653 418.177 258.948 418.34 259.21L418.52 259.49C418.767 259.884 419.09 259.9 419.49 259.54C420.87 258.287 422.263 257.19 423.67 256.25C425.183 255.477 426.823 254.794 428.59 254.2C429.097 254.027 429.24 253.737 429.02 253.33L428.86 253.04C428.711 252.77 428.497 252.553 428.253 252.423C428.009 252.294 427.75 252.261 427.52 252.33C425.247 253.03 423.603 253.72 422.59 254.4ZM441.76 261.96C440.307 264.32 439.14 267.09 438.26 270.27C438.067 270.97 438.277 271.54 438.89 271.98C439.003 272.067 439.157 272.11 439.35 272.11C439.81 272.11 440.11 271.89 440.25 271.45C441.18 268.51 442.03 265.73 443.65 263.14C445.27 260.56 447.4 258.58 449.65 256.47C449.983 256.15 450.05 255.784 449.85 255.37C449.763 255.197 449.657 255.077 449.53 255.01C448.87 254.65 448.267 254.71 447.72 255.19C445.24 257.364 443.253 259.62 441.76 261.96ZM464.44 260.7C463.167 261.28 461.803 262.25 460.35 263.61C460.166 263.78 460.004 264.028 459.874 264.339C459.743 264.65 459.647 265.018 459.59 265.42C459.577 265.547 459.663 265.714 459.85 265.92C460.243 266.347 460.653 266.364 461.08 265.97C462.44 264.72 463.77 263.29 465.35 262.49C466.93 261.7 468.87 261.49 470.68 261.14C471.253 261.034 471.483 260.694 471.37 260.12C471.317 259.847 471.237 259.677 471.13 259.61C470.771 259.417 470.417 259.276 470.089 259.197C469.761 259.118 469.465 259.102 469.22 259.15C467.26 259.504 465.667 260.02 464.44 260.7ZM781.61 272.75C782.077 272.024 781.963 271.42 781.27 270.94C781.053 270.791 780.796 270.709 780.533 270.705C780.269 270.702 780.011 270.777 779.79 270.92C778.69 271.634 778.053 273.517 777.88 276.57C777.827 277.53 778.157 278.324 778.87 278.95L779.11 279.16C779.723 279.707 780.063 279.57 780.13 278.75C780.24 277.24 780.68 274.21 781.61 272.75ZM767.41 287.59C767.697 290.537 768.3 293.337 769.22 295.99C769.342 296.336 769.557 296.632 769.825 296.821C770.092 297.011 770.393 297.082 770.67 297.02C770.683 297.014 770.8 296.974 771.02 296.9C771.216 296.834 771.38 296.697 771.481 296.515C771.583 296.332 771.614 296.117 771.57 295.91C770.917 292.937 770.42 290.067 770.08 287.3C769.8 284.52 769.653 281.61 769.64 278.57C769.639 278.357 769.56 278.152 769.42 277.995C769.28 277.838 769.087 277.74 768.88 277.72C768.653 277.7 768.533 277.687 768.52 277.68C768.236 277.68 767.958 277.814 767.739 278.058C767.519 278.301 767.374 278.636 767.33 279C767.017 281.794 767.043 284.657 767.41 287.59ZM568.87 299.47C566.717 299.99 564.5 300.96 562.22 302.38C561.653 302.727 561.36 303.234 561.34 303.9C561.327 304.207 561.35 304.41 561.41 304.51C561.837 305.277 562.393 305.5 563.08 305.18C565.8 303.914 568.013 303 569.72 302.44C571.46 302.02 573.82 301.634 576.8 301.28C577.553 301.194 577.91 300.714 577.87 299.84C577.87 299.72 577.783 299.534 577.61 299.28C577.243 298.727 576.727 298.45 576.06 298.45C573.373 298.437 570.977 298.777 568.87 299.47ZM561.2 320.94C562.287 318.107 565.693 316.164 571.42 315.11C571.57 315.083 571.713 315.026 571.841 314.942C571.968 314.858 572.078 314.75 572.163 314.623C572.247 314.496 572.306 314.353 572.335 314.203C572.363 314.054 572.362 313.899 572.33 313.75C572.297 313.584 572.267 313.477 572.24 313.43C571.86 312.744 571.347 312.42 570.7 312.46C565.76 312.747 561.963 314.614 559.31 318.06C558.363 319.28 557.81 320.317 557.65 321.17C557.45 322.23 558.08 323.17 559.12 323.38C559.271 323.411 559.429 323.397 559.572 323.34C559.716 323.283 559.84 323.186 559.93 323.06C560.603 322.114 561.027 321.407 561.2 320.94ZM446.1 324.31L455.88 320.02C455.902 320.01 455.921 319.997 455.938 319.979C455.954 319.962 455.967 319.941 455.975 319.919C455.983 319.897 455.987 319.873 455.986 319.849C455.986 319.825 455.98 319.802 455.97 319.78L455.92 319.66C455.713 319.193 455.248 318.862 454.628 318.74C454.007 318.618 453.282 318.715 452.61 319.01L447.57 321.22C446.897 321.516 446.334 321.985 446.004 322.525C445.674 323.065 445.604 323.632 445.81 324.1L445.86 324.22C445.87 324.242 445.884 324.262 445.901 324.278C445.918 324.294 445.939 324.307 445.961 324.315C445.983 324.324 446.007 324.328 446.031 324.327C446.055 324.326 446.078 324.32 446.1 324.31ZM464.76 333.09C461.887 334.024 458.89 335.677 455.77 338.05C455.243 338.444 455.03 339.014 455.13 339.76C455.163 340.02 455.43 340.207 455.93 340.32C456.17 340.374 456.387 340.324 456.58 340.17C459.28 338.077 462.273 336.41 465.56 335.17C468.833 333.897 472.173 333.137 475.58 332.89C475.827 332.87 476.023 332.76 476.17 332.56C476.463 332.147 476.537 331.83 476.39 331.61C475.963 330.99 475.423 330.71 474.77 330.77C470.863 331.09 467.527 331.864 464.76 333.09ZM676.46 338.28C679.59 338.73 680.59 340.71 682.22 343.47C682.291 343.591 682.388 343.694 682.505 343.772C682.622 343.849 682.755 343.899 682.893 343.917C683.032 343.936 683.174 343.922 683.306 343.878C683.439 343.833 683.56 343.759 683.66 343.66C683.8 343.52 683.903 343.364 683.97 343.19C684.126 342.805 684.233 342.434 684.278 342.115C684.324 341.795 684.307 341.538 684.23 341.37C682.217 337.224 679.263 335.207 675.37 335.32C670.263 335.467 666.803 338.11 664.99 343.25C664.637 344.244 664.977 344.94 666.01 345.34C666.41 345.494 666.713 345.38 666.92 345C669.06 341.05 671.46 337.57 676.46 338.28ZM652.75 341.58C651.69 343.1 650.72 346.08 652.92 346.89C653.056 346.938 653.206 346.931 653.339 346.869C653.471 346.808 653.575 346.697 653.63 346.56C654.07 345.427 654.633 344.364 655.32 343.37C656.013 342.384 656.813 341.484 657.72 340.67C657.829 340.571 657.896 340.435 657.907 340.289C657.918 340.144 657.873 340.001 657.78 339.89C656.26 338.11 653.8 340.06 652.75 341.58ZM565.36 352.79C564.38 354.87 562.73 358.23 563.23 360.3C563.383 360.934 563.777 361.144 564.41 360.93C564.571 360.878 564.716 360.786 564.83 360.663C564.944 360.541 565.023 360.391 565.06 360.23C565.6 357.977 566.36 355.81 567.34 353.73C568.32 351.644 569.503 349.674 570.89 347.82C570.99 347.689 571.054 347.532 571.075 347.365C571.096 347.198 571.074 347.028 571.01 346.87C570.77 346.244 570.357 346.074 569.77 346.36C567.86 347.3 566.33 350.72 565.36 352.79ZM373.99 379.94C372.743 381.527 372.033 382.804 371.86 383.77C371.753 384.397 371.933 384.837 372.4 385.09C372.484 385.136 372.577 385.165 372.672 385.174C372.768 385.184 372.865 385.174 372.957 385.145C373.05 385.116 373.135 385.069 373.21 385.006C373.284 384.943 373.345 384.867 373.39 384.78C374.023 383.54 374.78 382.367 375.66 381.26C376.533 380.147 377.5 379.137 378.56 378.23C378.633 378.167 378.692 378.089 378.735 378.003C378.779 377.917 378.804 377.823 378.811 377.727C378.817 377.631 378.804 377.535 378.773 377.445C378.742 377.354 378.694 377.271 378.63 377.2C378.27 376.8 377.8 376.727 377.22 376.98C376.32 377.374 375.243 378.36 373.99 379.94ZM390.93 386.16C389.737 388.174 389.127 389.687 389.1 390.7C389.093 391.027 389.15 391.277 389.27 391.45C389.463 391.744 389.747 391.82 390.12 391.68C390.334 391.595 390.528 391.465 390.688 391.3C390.848 391.134 390.971 390.937 391.05 390.72C391.503 389.44 392.047 388.267 392.68 387.2C393.313 386.14 394.087 385.107 395 384.1C395.154 383.927 395.269 383.724 395.338 383.503C395.407 383.283 395.428 383.05 395.4 382.82C395.347 382.427 395.147 382.214 394.8 382.18C394.587 382.16 394.34 382.23 394.06 382.39C393.18 382.897 392.137 384.154 390.93 386.16ZM793.58 395.34C791.733 395.834 790.147 396.66 788.82 397.82C787.49 398.97 785.67 401.47 788.1 402.68C788.387 402.82 788.657 402.744 788.91 402.45C790.39 400.75 791.35 398.94 794.33 398.13C797.32 397.33 799.06 398.41 801.19 399.13C801.557 399.257 801.83 399.187 802.01 398.92C803.5 396.65 800.67 395.41 798.94 395.08C797.207 394.747 795.42 394.834 793.58 395.34ZM774.01 404.14C773.497 406.52 773.333 408.974 773.52 411.5C773.541 411.792 773.639 412.073 773.804 412.315C773.969 412.558 774.195 412.753 774.46 412.88C774.707 413 774.89 413.064 775.01 413.07C775.723 413.097 776.08 412.75 776.08 412.03C776.087 409.37 776.31 406.91 776.75 404.65C777.15 402.377 777.827 399.997 778.78 397.51C779.04 396.844 778.83 396.394 778.15 396.16C778.037 396.12 777.843 396.114 777.57 396.14C777.277 396.165 776.997 396.265 776.756 396.432C776.516 396.599 776.324 396.826 776.2 397.09C775.12 399.377 774.39 401.727 774.01 404.14ZM551.49 410.33C550.903 410.344 550.887 410.447 551.44 410.64C565.89 415.7 576.59 429.24 579.29 444.1C579.763 446.727 580 453.364 580 464.01C579.953 682.837 580.017 803.25 580.19 825.25C580.23 830.084 579.827 834.664 578.98 838.99C577.687 845.604 574.867 851.694 570.52 857.26C565.987 863.074 560.593 867.224 554.34 869.71C553.707 869.964 553.733 870.1 554.42 870.12C560.42 870.29 564.34 870.84 568.64 868.37C576.39 863.9 581.56 858.2 585.28 850.02C587.627 844.84 589.083 839.207 589.65 833.12C589.75 832.087 589.803 826.337 589.81 815.87C589.863 712.817 589.857 593.587 589.79 458.18C589.79 452.267 589.583 447.994 589.17 445.36C588.477 440.954 587.263 436.844 585.53 433.03C580.123 421.137 571.133 413.764 558.56 410.91C556.533 410.45 554.177 410.257 551.49 410.33ZM397.67 417.35C397.95 416.924 397.837 416.704 397.33 416.69C396.057 416.664 388.863 416.654 375.75 416.66C368.343 416.66 363.063 417.12 359.91 418.04C349.877 420.974 342.217 427.274 336.93 436.94C334.337 441.68 333.037 447.287 333.03 453.76C332.903 645.507 332.957 771.017 333.19 830.29C333.217 836.523 334.863 842.333 338.13 847.72C343.303 856.253 350.383 861.84 359.37 864.48C362.697 865.453 368.527 865.94 376.86 865.94C437.933 865.927 487.907 865.9 526.78 865.86C536.4 865.854 542.863 865.337 546.17 864.31C554.45 861.75 561.037 856.73 565.93 849.25C569.89 843.184 571.87 836.354 571.87 828.76C571.857 620.38 571.833 494.964 571.8 452.51C571.79 436.55 562.58 423.43 547.38 418.33C543.427 417.004 538.113 416.414 531.44 416.56C531.053 416.567 522.653 416.624 506.24 416.73C505.807 416.73 505.71 416.91 505.95 417.27C508.597 421.184 509.837 425.247 509.67 429.46C509.26 439.6 501.05 447.2 490.75 447.21C453.53 447.25 427.033 447.28 411.26 447.3C405.63 447.31 399.35 443.63 396.42 438.46C392.54 431.64 392.957 424.604 397.67 417.35ZM446.87 425.96C445.15 425.44 443.84 425.937 442.94 427.45C441.767 429.424 440.54 430.92 439.26 431.94C439.125 432.048 439.023 432.191 438.964 432.353C438.906 432.516 438.894 432.691 438.93 432.86C439.41 435.154 440.66 436.334 442.68 436.4C444.02 436.447 449.993 436.444 460.6 436.39C461.527 436.39 462.253 436.224 462.78 435.89C463.567 435.397 464.043 434.757 464.21 433.97C464.763 431.397 463.9 429.484 461.62 428.23C460.773 427.764 460.327 427.51 460.28 427.47C458.34 425.45 459.45 422.73 456.62 421.47C454.14 420.364 451.967 420.81 450.1 422.81C448.793 424.21 447.973 425.164 447.64 425.67C447.453 425.957 447.197 426.054 446.87 425.96ZM639.58 434.7C637.64 437.32 635.33 441.17 634.35 444.54C634.11 445.374 634.363 445.987 635.11 446.38L635.38 446.53C635.511 446.599 635.655 446.641 635.803 446.651C635.95 446.662 636.097 446.641 636.235 446.591C636.372 446.541 636.496 446.462 636.599 446.36C636.702 446.258 636.78 446.136 636.83 446C638.157 442.44 639.87 439.264 641.97 436.47C644.03 433.657 646.57 431.097 649.59 428.79C649.705 428.704 649.8 428.593 649.868 428.466C649.935 428.338 649.975 428.197 649.983 428.051C649.992 427.905 649.969 427.758 649.917 427.62C649.865 427.482 649.784 427.356 649.68 427.25L649.46 427.04C648.867 426.44 648.207 426.374 647.48 426.84C644.54 428.76 641.52 432.09 639.58 434.7ZM657.07 441.62C654.96 445.23 653.31 449.45 653.05 453.52C653.025 453.893 653.124 454.26 653.328 454.547C653.531 454.834 653.825 455.021 654.15 455.07L654.54 455.13C655.193 455.224 655.56 454.98 655.64 454.4C656.16 450.53 657.52 446.4 659.49 443.03C661.47 439.67 664.41 436.47 667.53 434.12C667.997 433.767 668.03 433.33 667.63 432.81L667.39 432.5C667.189 432.239 666.883 432.073 666.533 432.034C666.183 431.995 665.814 432.087 665.5 432.29C662.07 434.51 659.2 438.01 657.07 441.62ZM678.34 449.65C675.9 453.11 673.417 457.65 670.89 463.27C670.788 463.494 670.754 463.794 670.791 464.145C670.827 464.496 670.933 464.889 671.1 465.29C671.24 465.637 671.56 465.834 672.06 465.88C672.297 465.901 672.536 465.847 672.743 465.728C672.95 465.608 673.117 465.427 673.22 465.21C675.507 460.237 678.067 455.607 680.9 451.32C683.693 447.007 686.913 442.81 690.56 438.73C690.72 438.548 690.82 438.322 690.846 438.082C690.873 437.842 690.826 437.601 690.71 437.39C690.47 436.957 690.163 436.744 689.79 436.75C689.353 436.758 688.949 436.818 688.611 436.926C688.274 437.034 688.013 437.186 687.85 437.37C683.71 441.93 680.54 446.024 678.34 449.65ZM235.62 494.49C236.133 492.757 235.867 492.627 234.82 494.1C225.18 507.65 216.61 520.51 211.09 535.03C210.81 535.764 211.01 535.954 211.69 535.6C211.743 535.567 211.937 535.377 212.27 535.03C220.577 526.284 224.833 521.787 225.04 521.54C228.12 517.86 229.947 514.93 230.52 512.75C232.06 506.89 233.76 500.804 235.62 494.49ZM668.67 511.47C668.497 510.544 668.34 510.547 668.2 511.48C666.44 523.114 665.327 530.61 664.86 533.97C664.66 535.39 664.853 537.024 665.44 538.87C668.087 547.264 670.907 554.587 673.9 560.84C674.713 562.527 675.06 562.437 674.94 560.57C673.92 544.49 671.83 528.124 668.67 511.47ZM218.86 581.36C218.829 581.489 218.836 581.624 218.882 581.749C218.927 581.873 219.009 581.981 219.116 582.059C219.223 582.138 219.351 582.182 219.483 582.188C219.616 582.193 219.747 582.159 219.86 582.09C223.6 579.844 226.653 577.22 229.02 574.22C236.987 564.107 241.96 552.45 243.94 539.25C244.007 538.804 243.863 538.717 243.51 538.99C240.197 541.557 237.017 544.874 233.97 548.94C226.71 558.627 221.673 569.434 218.86 581.36ZM728.9 544C727.327 544.954 725.17 546.387 722.43 548.3C719.983 550.007 718.547 551 718.12 551.28C710.327 556.427 702.987 562.14 696.1 568.42C695.5 568.967 695.6 569.157 696.4 568.99C701.1 568.01 705.323 566.127 709.07 563.34C714.683 559.16 721.353 552.97 729.08 544.77C729.149 544.696 729.204 544.596 729.235 544.486C729.266 544.377 729.271 544.266 729.249 544.174C729.228 544.082 729.181 544.013 729.117 543.982C729.053 543.95 728.976 543.956 728.9 544ZM251.29 578.4C251.33 578.02 251.293 577.76 251.18 577.62C251.007 577.387 250.833 577.39 250.66 577.63C239.773 592.59 231.953 609.123 227.2 627.23C227.181 627.313 227.186 627.4 227.217 627.48C227.247 627.56 227.301 627.629 227.37 627.679C227.44 627.728 227.523 627.755 227.608 627.758C227.694 627.76 227.778 627.736 227.85 627.69C232.79 624.317 237.293 620.464 241.36 616.13C244.82 612.45 246.81 608.36 247.76 603.52C249.113 596.634 250.29 588.26 251.29 578.4ZM649.26 615.35C648.993 614.95 648.853 614.99 648.84 615.47C648.647 620.283 648.757 624.97 649.17 629.53C650.143 640.297 655.103 648.79 664.05 655.01C664.135 655.067 664.234 655.099 664.337 655.103C664.439 655.108 664.541 655.084 664.631 655.034C664.72 654.985 664.795 654.912 664.846 654.823C664.897 654.734 664.922 654.633 664.92 654.53C664.793 652.464 664.347 650.1 663.58 647.44C660.013 635.1 655.24 624.403 649.26 615.35ZM643.76 664.68C642.247 662.9 641.427 661.977 641.3 661.91C640.967 661.73 640.823 661.827 640.87 662.2C641.117 664.32 641.52 666.32 642.08 668.2C644.747 677.067 648.65 684.894 653.79 691.68C656.55 695.334 659.96 698.43 664.02 700.97C664.099 701.02 664.19 701.046 664.283 701.045C664.377 701.044 664.468 701.016 664.545 700.964C664.622 700.912 664.683 700.838 664.719 700.752C664.756 700.667 664.766 700.572 664.75 700.48C663.75 694.887 661.78 689.774 658.84 685.14C654.313 678 649.287 671.18 643.76 664.68ZM674.74 705.87C677.56 703.024 679.79 700.717 681.43 698.95C687.31 692.59 691.943 685.433 695.33 677.48C696.083 675.707 695.67 675.373 694.09 676.48C685.69 682.353 679.427 690.044 675.3 699.55C674.033 702.47 673.297 705.093 673.09 707.42C673.037 708.013 673.19 708.073 673.55 707.6C673.96 707.06 674.39 706.23 674.74 705.87ZM645.3 723.94C650.84 731.614 657.687 737.704 665.84 742.21C665.87 742.23 665.905 742.241 665.941 742.241C665.976 742.242 666.012 742.233 666.044 742.214C666.075 742.196 666.102 742.169 666.121 742.137C666.139 742.104 666.149 742.068 666.15 742.03C666.137 739.337 665.41 736.747 663.97 734.26C658.69 725.147 651.557 717.857 642.57 712.39C642.13 712.124 641.437 711.844 640.49 711.55C640.308 711.492 640.114 711.486 639.929 711.532C639.744 711.579 639.576 711.677 639.443 711.814C639.311 711.952 639.22 712.124 639.181 712.31C639.141 712.497 639.155 712.691 639.22 712.87C640.453 716.344 642.48 720.034 645.3 723.94ZM686.77 717.71C684.223 721.064 681.793 723.81 679.48 725.95C679.127 726.277 678.854 726.687 678.681 727.15C678.508 727.612 678.439 728.115 678.48 728.62L678.53 729.21C678.603 730.164 679.02 730.35 679.78 729.77C682.66 727.58 688.18 722.93 688.32 719.08C688.367 717.96 687.92 717.464 686.98 717.59C686.897 717.601 686.822 717.644 686.77 717.71ZM674.11 772.7C685.563 767.127 694.46 759.174 700.8 748.84C701.7 747.367 702.253 746.054 702.46 744.9C702.5 744.675 702.476 744.443 702.389 744.23C702.303 744.018 702.158 743.835 701.972 743.702C701.785 743.569 701.565 743.492 701.336 743.479C701.107 743.466 700.88 743.519 700.68 743.63C690.473 749.324 682.18 756.97 675.8 766.57C674.633 768.33 673.85 770.204 673.45 772.19C673.323 772.804 673.543 772.974 674.11 772.7ZM680.622 786.813C680.748 786.918 680.928 786.957 681.152 786.926C681.377 786.895 681.641 786.795 681.93 786.632C682.219 786.468 682.528 786.245 682.838 785.975C683.147 785.704 683.453 785.392 683.736 785.055C684.019 784.719 684.275 784.365 684.489 784.013C684.703 783.662 684.87 783.32 684.982 783.008C685.093 782.695 685.147 782.417 685.139 782.191C685.132 781.964 685.063 781.793 684.938 781.688C684.812 781.582 684.632 781.544 684.408 781.575C684.183 781.606 683.919 781.706 683.63 781.869C683.34 782.032 683.032 782.255 682.722 782.526C682.412 782.796 682.107 783.108 681.824 783.445C681.54 783.782 681.284 784.136 681.071 784.487C680.857 784.838 680.689 785.18 680.578 785.493C680.466 785.806 680.413 786.083 680.42 786.31C680.428 786.536 680.496 786.707 680.622 786.813ZM301.07 787.33C301.317 786.55 302.147 785.37 303.56 783.79C303.78 783.537 303.837 783.25 303.73 782.93C303.583 782.53 303.253 782.24 302.74 782.06C302.413 781.947 302.1 781.98 301.8 782.16C300.127 783.16 299.01 784.513 298.45 786.22C295.303 795.86 295.847 805.33 300.08 814.63C300.275 815.06 300.596 815.421 301.001 815.666C301.406 815.91 301.876 816.027 302.35 816L302.71 815.97C302.829 815.963 302.944 815.927 303.045 815.864C303.146 815.801 303.231 815.714 303.291 815.609C303.351 815.505 303.385 815.386 303.39 815.264C303.395 815.143 303.371 815.021 303.32 814.91C298.947 805.837 298.197 796.644 301.07 787.33ZM716.3 800.77C714.847 805.03 713.817 809.024 713.21 812.75C712.923 814.544 712.827 816.197 712.92 817.71C712.967 818.53 713.397 818.967 714.21 819.02L714.72 819.06C714.837 819.067 714.954 819.053 715.065 819.017C715.176 818.981 715.278 818.924 715.365 818.851C715.453 818.778 715.524 818.688 715.574 818.589C715.625 818.489 715.654 818.381 715.66 818.27C716.033 812.777 717.203 807.27 719.17 801.75C720.997 796.19 723.447 791.127 726.52 786.56C726.583 786.469 726.626 786.366 726.647 786.256C726.668 786.146 726.666 786.032 726.642 785.921C726.618 785.809 726.572 785.702 726.506 785.606C726.441 785.51 726.357 785.426 726.26 785.36L725.83 785.07C725.157 784.617 724.55 784.7 724.01 785.32C723.01 786.46 722.073 787.827 721.2 789.42C719.393 792.733 717.76 796.517 716.3 800.77ZM628.44 815.16C627.033 819.933 626.263 825.517 626.13 831.91C626.121 832.407 626.242 832.897 626.48 833.332C626.719 833.767 627.067 834.132 627.49 834.39C627.657 834.49 627.83 834.56 628.01 834.6C628.138 834.63 628.27 834.631 628.398 834.603C628.527 834.575 628.647 834.518 628.75 834.438C628.854 834.357 628.938 834.255 628.997 834.137C629.056 834.02 629.087 833.891 629.09 833.76C629.237 826.334 630.01 820.397 631.41 815.95C632.403 811.39 634.677 805.85 638.23 799.33C638.292 799.215 638.327 799.088 638.334 798.958C638.341 798.828 638.319 798.697 638.269 798.577C638.219 798.456 638.143 798.348 638.046 798.261C637.95 798.173 637.835 798.108 637.71 798.07C637.537 798.017 637.353 797.99 637.16 797.99C636.663 798.003 636.178 798.147 635.753 798.406C635.329 798.666 634.979 799.033 634.74 799.47C631.687 805.09 629.587 810.32 628.44 815.16ZM319.02 815.61C319.39 810.46 320.41 807.53 323.56 803.66C323.673 803.52 323.783 803.257 323.89 802.87C323.957 802.61 323.98 802.38 323.96 802.18C323.944 802.043 323.893 801.912 323.811 801.801C323.729 801.689 323.62 801.601 323.493 801.546C323.367 801.49 323.228 801.469 323.09 801.483C322.953 801.498 322.822 801.549 322.71 801.63C318.643 804.557 316.57 808.93 316.49 814.75C316.483 815.45 316.827 815.94 317.52 816.22L317.82 816.34C318.567 816.64 318.967 816.397 319.02 815.61ZM641.76 815.83C639.56 820.944 638.58 826.513 638.82 832.54C638.833 832.854 638.969 833.156 639.203 833.391C639.436 833.627 639.754 833.783 640.1 833.83L640.48 833.88C641.353 833.994 641.773 833.614 641.74 832.74C641.56 827.207 642.53 821.977 644.65 817.05C646.717 812.104 649.803 807.774 653.91 804.06C654.563 803.48 654.547 802.914 653.86 802.36L653.56 802.12C653.285 801.904 652.951 801.784 652.618 801.78C652.286 801.777 651.975 801.89 651.74 802.1C647.24 806.113 643.913 810.69 641.76 815.83ZM734.72 812.25C732.487 814.284 730.333 816.97 728.26 820.31C728.169 820.456 728.107 820.619 728.078 820.788C728.05 820.958 728.055 821.131 728.093 821.298C728.131 821.465 728.201 821.623 728.3 821.762C728.399 821.902 728.525 822.02 728.67 822.11L728.91 822.26C729.583 822.687 730.123 822.58 730.53 821.94C732.303 819.207 734.393 816.697 736.8 814.41C739.173 812.09 741.757 810.097 744.55 808.43C745.21 808.05 745.337 807.514 744.93 806.82L744.79 806.58C744.619 806.281 744.336 806.063 744.002 805.973C743.668 805.883 743.311 805.929 743.01 806.1C739.597 808.047 736.833 810.097 734.72 812.25ZM619.15 819.93C619.597 818.29 620.053 816.783 620.52 815.41C620.747 814.737 620.417 814.357 619.53 814.27C619.517 814.27 619.4 814.29 619.18 814.33C618.22 814.517 617.583 815.07 617.27 815.99C615.73 820.484 615.243 825.217 615.81 830.19C615.89 830.87 616.263 831.213 616.93 831.22L617.52 831.23C617.783 831.233 618.037 831.127 618.226 830.936C618.415 830.745 618.524 830.484 618.53 830.21C618.65 824.424 618.857 820.997 619.15 819.93ZM224.52 827.4C223.667 830.66 223.77 833.91 224.83 837.15C224.966 837.559 225.233 837.913 225.59 838.16C226.07 838.487 226.42 838.604 226.64 838.51C226.835 838.429 227.005 838.316 227.119 838.191C227.233 838.066 227.283 837.938 227.26 837.83C226.65 834.5 226.12 831.27 227.04 828.14C227.95 825.01 230.14 822.58 232.45 820.1C232.527 820.021 232.553 819.885 232.524 819.718C232.495 819.551 232.412 819.364 232.29 819.19C232.157 818.997 231.8 818.907 231.22 818.92C230.784 818.934 230.366 819.089 230.03 819.36C227.397 821.52 225.56 824.2 224.52 827.4ZM239.68 832.52C238.54 834.254 237.68 836.604 237.1 839.57C236.953 840.304 237.127 840.96 237.62 841.54C237.76 841.7 237.947 841.8 238.18 841.84C238.4 841.875 238.626 841.828 238.812 841.708C238.999 841.588 239.133 841.404 239.19 841.19C240.197 837.337 241.09 834.88 241.87 833.82C242.43 832.634 244.16 830.677 247.06 827.95C247.219 827.799 247.315 827.594 247.332 827.375C247.349 827.155 247.284 826.937 247.15 826.76C247.003 826.574 246.827 826.457 246.62 826.41C245.88 826.25 245.22 826.41 244.64 826.89C242.313 828.817 240.66 830.694 239.68 832.52ZM218.3 839.68L214.1 832.96C214.071 832.917 214.027 832.887 213.977 832.876C213.927 832.865 213.874 832.874 213.83 832.9L213.76 832.94C213.513 833.095 213.309 833.314 213.161 833.586C213.013 833.858 212.924 834.176 212.898 834.524C212.872 834.871 212.91 835.24 213.01 835.61C213.11 835.98 213.269 836.344 213.48 836.68L214.68 838.61C214.891 838.947 215.148 839.251 215.438 839.502C215.727 839.754 216.043 839.95 216.368 840.078C216.692 840.206 217.018 840.265 217.327 840.25C217.636 840.234 217.923 840.146 218.17 839.99L218.23 839.95C218.274 839.923 218.307 839.88 218.32 839.829C218.333 839.779 218.326 839.725 218.3 839.68Z" fill="#0055CC"/>
<path d="M433.603 189.909L425.542 192.606C424.5 192.955 423.938 194.082 424.287 195.124L424.337 195.276C424.686 196.318 425.814 196.881 426.856 196.532L434.917 193.835C435.959 193.486 436.521 192.358 436.173 191.316L436.122 191.165C435.773 190.122 434.645 189.56 433.603 189.909Z" fill="#0055CC"/>
<path d="M380.09 230.94C378.61 232.987 377.056 235.323 375.43 237.95C368.883 248.537 364.696 259.913 362.87 272.08C362.77 272.76 362.14 273.287 360.98 273.66C360.88 273.693 360.503 273.467 359.85 272.98C359.538 272.75 359.294 272.441 359.143 272.084C358.991 271.727 358.938 271.335 358.99 270.95C359.77 265.077 361.046 259.687 362.82 254.78C366.22 245.407 370.856 236.653 376.73 228.52C382.603 220.387 389.456 213.23 397.29 207.05C401.39 203.823 406.103 200.917 411.43 198.33C411.78 198.16 412.169 198.087 412.556 198.119C412.943 198.15 413.314 198.285 413.63 198.51C414.296 198.977 414.63 199.263 414.63 199.37C414.643 200.59 414.343 201.353 413.73 201.66C402.75 207.22 393.266 214.773 385.28 224.32C383.293 226.687 381.563 228.893 380.09 230.94Z" fill="#0055CC"/>
<path d="M366.92 303.331C367.52 305.364 368.553 308.161 370.02 311.721C370.573 313.047 370.403 314.081 369.51 314.821C369.33 314.971 369.12 315.083 368.895 315.149C368.669 315.215 368.432 315.233 368.198 315.203C367.965 315.173 367.739 315.095 367.537 314.974C367.334 314.853 367.158 314.692 367.02 314.501C365.02 311.731 363.84 307.861 362.86 304.531C361.87 301.191 360.76 297.301 360.94 293.891C360.952 293.656 361.012 293.425 361.116 293.214C361.221 293.003 361.367 292.816 361.546 292.664C361.725 292.512 361.933 292.399 362.157 292.331C362.382 292.264 362.617 292.243 362.85 292.271C364.003 292.404 364.706 293.181 364.96 294.601C365.666 298.381 366.32 301.291 366.92 303.331Z" fill="#0055CC"/>
<path d="M453.59 432.17C453.713 432.166 453.833 432.125 453.934 432.053C454.035 431.98 454.111 431.88 454.155 431.765C454.198 431.65 454.205 431.525 454.176 431.407C454.146 431.288 454.082 431.181 453.99 431.1L449.25 426.81C449.197 426.763 449.154 426.705 449.123 426.642C449.092 426.578 449.073 426.51 449.069 426.44C449.064 426.37 449.073 426.301 449.096 426.236C449.118 426.171 449.154 426.111 449.2 426.06C451.12 423.91 454.61 420.9 456.7 425.06C458.293 428.214 459.727 430.077 461 430.65C461.5 430.877 461.85 431.234 462.05 431.72C462.35 432.467 462.503 432.947 462.51 433.16C462.515 433.357 462.481 433.553 462.41 433.736C462.339 433.919 462.233 434.084 462.097 434.221C461.962 434.358 461.801 434.465 461.624 434.534C461.447 434.602 461.258 434.632 461.07 434.62C457.877 434.434 452.893 434.43 446.12 434.61C445.28 434.637 444.337 434.504 443.29 434.21C443.093 434.155 442.913 434.053 442.765 433.911C442.616 433.77 442.503 433.594 442.435 433.397C442.367 433.2 442.345 432.989 442.372 432.779C442.399 432.569 442.474 432.368 442.59 432.19L445.19 428.25C445.356 428.003 445.614 427.83 445.911 427.769C446.207 427.707 446.518 427.762 446.78 427.92C448.633 429.04 449.977 430.337 450.81 431.81C450.977 432.11 451.22 432.254 451.54 432.24L453.59 432.17Z" fill="#0055CC"/>
<path d="M469.43 565.62C473.057 565.733 477.737 565.703 483.47 565.53C487.343 565.417 490.167 565.743 491.94 566.51C495.893 568.23 498.693 570.957 500.34 574.69C501.193 576.617 501.623 580.227 501.63 585.52C501.71 639.193 501.737 670.85 501.71 680.49C501.703 683.717 501.353 686.21 500.66 687.97C498.98 692.21 496.253 695.167 492.48 696.84C490.653 697.647 486.963 698.043 481.41 698.03C444.97 697.903 421.42 697.883 410.76 697.97C405.54 698.01 401.94 697.56 399.96 696.62C395.72 694.587 392.847 691.543 391.34 687.49C390.753 685.917 390.457 682.06 390.45 675.92C390.403 643.547 390.417 613.833 390.49 586.78C390.503 581.08 390.98 577.18 391.92 575.08C393.773 570.953 396.9 568.09 401.3 566.49C403.267 565.777 406.747 565.477 411.74 565.59C412.94 565.617 416.46 565.643 422.3 565.67C422.364 565.67 422.428 565.658 422.488 565.633C422.547 565.609 422.601 565.574 422.647 565.529C422.692 565.485 422.728 565.432 422.753 565.374C422.777 565.315 422.79 565.253 422.79 565.19C422.777 536.537 422.803 518.747 422.87 511.82C423.03 495.36 438.43 484.79 453.84 490.37C460.147 492.657 464.647 497.09 467.34 503.67C468.42 506.31 468.923 511.323 468.85 518.71C468.763 526.977 468.77 542.42 468.87 565.04C468.87 565.42 469.057 565.613 469.43 565.62ZM428.4 565.68L463.22 565.62C463.435 565.62 463.641 565.535 463.793 565.383C463.945 565.231 464.03 565.025 464.03 564.81L463.94 511.92C463.932 506.976 462.006 502.239 458.585 498.749C455.164 495.259 450.53 493.302 445.7 493.31H445.68C443.289 493.314 440.921 493.8 438.714 494.74C436.506 495.68 434.5 497.057 432.812 498.79C431.124 500.524 429.786 502.581 428.875 504.844C427.963 507.107 427.496 509.532 427.5 511.98L427.59 564.87C427.59 565.085 427.675 565.291 427.827 565.443C427.979 565.595 428.185 565.68 428.4 565.68ZM486.65 691.87C486.21 692.337 486.307 692.527 486.94 692.44C490.693 691.94 493.28 690.2 494.7 687.22C495.373 685.8 495.71 683.047 495.71 678.96C495.703 625.487 495.697 593.997 495.69 584.49C495.69 580.45 495.35 577.697 494.67 576.23C493.363 573.41 490.873 571.657 487.2 570.97C486.827 570.903 486.757 571.023 486.99 571.33C490.45 575.85 491.1 579.73 491.08 585.86C490.947 629.867 490.957 661.423 491.11 680.53C491.143 684.883 489.657 688.663 486.65 691.87ZM396.59 631.77C396.59 637.73 396.593 653.507 396.6 679.1C396.607 682.647 396.787 684.883 397.14 685.81C398.08 688.27 399.67 690.077 401.91 691.23C403.077 691.837 406.037 692.137 410.79 692.13C450.437 692.117 472.827 692.107 477.96 692.1C480.16 692.1 481.18 691.52 482.52 690.02C484.813 687.46 486.007 684.627 486.1 681.52C486.113 681.013 486.12 664.43 486.12 631.77C486.12 599.11 486.113 582.527 486.1 582.02C486.007 578.913 484.813 576.08 482.52 573.52C481.18 572.02 480.16 571.44 477.96 571.44C472.827 571.433 450.437 571.423 410.79 571.41C406.037 571.403 403.077 571.703 401.91 572.31C399.67 573.463 398.08 575.27 397.14 577.73C396.787 578.657 396.607 580.893 396.6 584.44C396.593 610.033 396.59 625.81 396.59 631.77Z" fill="#0055CC"/>
<path d="M586.151 508.602L584.931 508.6C584.025 508.598 583.289 509.331 583.288 510.237L583.192 564.937C583.191 565.842 583.924 566.578 584.829 566.579L586.049 566.582C586.955 566.583 587.691 565.85 587.692 564.944L587.788 510.245C587.789 509.339 587.056 508.603 586.151 508.602Z" fill="#0055CC"/>
<path d="M186.73 540.06C172.31 534.77 159.07 527.14 150.99 514.35C149.86 512.56 149.14 510.83 151.24 509.61C151.8 509.29 152.53 509.187 153.43 509.3C166.23 510.92 176.863 514.934 185.33 521.34C190.57 525.307 194.967 530.764 198.52 537.71C199.79 540.2 198.47 542.81 195.52 542.44C193.22 542.154 190.29 541.36 186.73 540.06ZM156.26 513.86C156.227 513.853 156.192 513.854 156.16 513.863C156.127 513.872 156.097 513.89 156.073 513.914C156.049 513.938 156.032 513.968 156.023 514C156.013 514.033 156.012 514.067 156.02 514.1C156.113 514.527 156.287 514.894 156.54 515.2C163.08 523.094 171.297 529.137 181.19 533.33C183.49 534.304 187.443 535.88 193.05 538.06C193.723 538.327 193.883 538.144 193.53 537.51C188.39 528.237 180.763 521.697 170.65 517.89C166.95 516.497 162.153 515.154 156.26 513.86Z" fill="#0055CC"/>
<path d="M208.06 579.41C206.08 579.97 204.08 579.28 202.11 578.54C188.91 573.54 179.947 569.957 175.22 567.79C170.553 565.643 162.357 561.33 150.63 554.85C149.957 554.477 149.393 554.01 148.94 553.45C148.3 552.65 148.377 551.837 149.17 551.01C149.917 550.223 150.7 549.887 151.52 550C158.607 550.967 166.447 551.93 175.04 552.89C179.267 553.357 182.99 554.823 186.21 557.29C192.75 562.29 199.217 567.57 205.61 573.13C207.217 574.53 208.327 576.043 208.94 577.67C209.005 577.841 209.034 578.025 209.024 578.208C209.014 578.391 208.967 578.57 208.884 578.734C208.801 578.898 208.685 579.042 208.543 579.159C208.401 579.275 208.237 579.361 208.06 579.41ZM161.58 555.34C161.333 555.307 161.307 555.367 161.5 555.52C162.713 556.513 164.453 557.61 166.72 558.81C176.913 564.21 187.533 568.903 198.58 572.89C198.596 572.897 198.613 572.897 198.629 572.892C198.646 572.887 198.659 572.876 198.668 572.861C198.676 572.846 198.679 572.829 198.676 572.812C198.673 572.795 198.663 572.78 198.65 572.77C191.923 566.943 186.297 562.44 181.77 559.26C180.23 558.18 178.607 557.537 176.9 557.33C170.88 556.623 165.773 555.96 161.58 555.34Z" fill="#0055CC"/>
<path d="M664.26 605.19C656.47 598.15 646.28 588.48 645.55 577.73C645.33 574.37 647.02 571.14 650.5 570.93C656.67 570.57 663.43 579.61 666.38 584.71C669.993 590.937 672.416 597.97 673.65 605.81C673.883 607.264 673.73 608.59 673.19 609.79C673.108 609.975 672.959 610.121 672.773 610.199C672.587 610.277 672.379 610.281 672.19 610.21C669.463 609.184 666.82 607.51 664.26 605.19ZM665.74 601.4C667.853 603.28 669.276 604.514 670.01 605.1C670.223 605.274 670.296 605.227 670.23 604.96C668.263 596.66 665.093 589.284 660.72 582.83C658.36 579.357 655.363 576.797 651.73 575.15C651.434 575.016 651.107 574.963 650.784 574.999C650.46 575.034 650.153 575.156 649.893 575.351C649.633 575.547 649.431 575.809 649.307 576.109C649.183 576.41 649.143 576.739 649.19 577.06C649.836 581.394 651.596 585.527 654.47 589.46C657.116 593.087 660.873 597.067 665.74 601.4Z" fill="#0055CC"/>
<path d="M684.35 605.46C690.33 598.167 697.396 591.364 705.55 585.05C711.53 580.424 717.893 577.034 724.64 574.88C725.44 574.627 726.283 574.527 727.17 574.58C729.94 574.75 731.39 577.65 730.38 580.02C729.44 582.227 728.156 584.237 726.53 586.05C718.356 595.13 707.973 602.654 695.38 608.62C691.26 610.574 687.256 611.587 683.37 611.66C683.075 611.664 682.784 611.599 682.52 611.468C682.256 611.338 682.027 611.147 681.851 610.911C681.675 610.674 681.558 610.4 681.509 610.109C681.46 609.819 681.481 609.521 681.57 609.24C682.06 607.67 683.49 606.51 684.35 605.46ZM687.63 607.74C687.656 607.774 687.69 607.794 687.73 607.8C687.763 607.807 687.8 607.804 687.84 607.79C700.233 602.957 711.22 595.964 720.8 586.81C722.733 584.97 724.5 582.717 726.1 580.05C726.34 579.65 726.376 579.337 726.21 579.11C726.043 578.884 725.733 578.827 725.28 578.94C722.266 579.7 719.596 580.74 717.27 582.06C705.736 588.574 695.86 597.06 687.64 607.52C687.613 607.554 687.6 607.587 687.6 607.62C687.593 607.66 687.603 607.7 687.63 607.74Z" fill="#0055CC"/>
<path d="M217.41 629.79C217.296 630.248 217.026 630.652 216.646 630.931C216.266 631.21 215.8 631.348 215.33 631.32C213.743 631.227 211.826 630.667 209.58 629.64C209.226 629.48 207.58 628.537 204.64 626.81C193.893 620.51 185.533 612.56 179.56 602.96C177.16 599.1 169.65 584.85 173.13 581.68C173.73 581.134 174.71 581.044 176.07 581.41C190.37 585.29 201.34 590.83 208.43 603.35C212.84 611.13 216.5 619.37 217.63 628.14C217.656 628.38 217.633 628.704 217.56 629.11C217.513 629.337 217.463 629.564 217.41 629.79ZM212.94 626.99C212.986 627.018 213.039 627.031 213.092 627.028C213.146 627.026 213.198 627.007 213.24 626.975C213.283 626.943 213.316 626.898 213.333 626.848C213.351 626.797 213.353 626.742 213.34 626.69C211.366 618.824 208.47 611.597 204.65 605.01C198.41 594.27 189.15 589.21 177.24 586.16C176.866 586.06 176.74 586.194 176.86 586.56C181.793 601.98 191.226 613.944 205.16 622.45C205.233 622.497 207.826 624.01 212.94 626.99Z" fill="#0055CC"/>
<path d="M437.63 606.62C451.83 606.6 455.17 627.22 441.39 631.5C441.225 631.55 441.081 631.652 440.978 631.793C440.875 631.933 440.82 632.104 440.82 632.28L440.88 644.51C440.88 644.91 441.09 645.113 441.51 645.12C444.74 645.14 450.24 644.95 452.87 647.04C453.08 647.207 453.248 647.421 453.361 647.664C453.473 647.908 453.527 648.175 453.519 648.443C453.51 648.711 453.439 648.973 453.31 649.209C453.182 649.445 453 649.647 452.78 649.8C448.9 652.49 442.25 652.4 437.7 652.41C433.16 652.41 426.51 652.52 422.62 649.85C422.399 649.698 422.216 649.496 422.087 649.261C421.958 649.026 421.885 648.764 421.876 648.495C421.866 648.227 421.919 647.96 422.031 647.716C422.143 647.472 422.31 647.258 422.52 647.09C425.14 644.99 430.65 645.16 433.88 645.13C434.3 645.123 434.506 644.92 434.5 644.52L434.53 632.29C434.529 632.113 434.472 631.941 434.367 631.8C434.263 631.66 434.116 631.558 433.95 631.51C420.16 627.27 423.44 606.64 437.63 606.62Z" fill="#0055CC"/>
<path d="M248.29 666.531C245.86 670.161 237.78 680.261 232.37 675.371C232.11 675.137 231.95 674.854 231.89 674.521C231.55 672.694 231.643 670.677 232.17 668.471C234.497 658.784 237.407 650.344 240.9 643.151C243.78 637.217 247.777 632.221 252.89 628.161C254.377 626.981 255.893 626.151 257.44 625.671C258.487 625.344 259.353 625.397 260.04 625.831C260.753 626.277 261.067 627.251 260.98 628.751C260.187 642.477 255.957 655.071 248.29 666.531ZM255.64 631.091C250.253 635.564 246.14 641.141 243.3 647.821C240.213 655.087 237.647 663.031 235.6 671.651C235.58 671.742 235.584 671.837 235.614 671.926C235.643 672.015 235.696 672.095 235.766 672.156C235.837 672.217 235.923 672.259 236.015 672.275C236.107 672.292 236.202 672.283 236.29 672.251C240.45 670.671 243.51 666.371 246 662.491C252.113 652.957 255.627 642.644 256.54 631.551C256.613 630.684 256.313 630.531 255.64 631.091Z" fill="#0055CC"/>
<path d="M719.19 633.22C711.8 645.69 701.11 655.9 688.01 661.17C682.87 663.243 678.36 662.556 674.48 659.11C674.336 658.982 674.218 658.827 674.133 658.654C674.049 658.481 674 658.292 673.989 658.1C673.978 657.907 674.005 657.715 674.068 657.533C674.132 657.351 674.231 657.183 674.36 657.04C684.04 646.366 694.52 637.623 705.8 630.81C709.58 628.523 713.153 626.91 716.52 625.97C718.993 625.283 720.397 626.22 720.73 628.78C720.857 629.787 720.343 631.266 719.19 633.22ZM683.69 658.64C696.61 655.94 709.55 642.61 716.01 630.91C716.53 629.956 716.3 629.71 715.32 630.17C705.54 634.743 696.34 640.766 687.72 648.24C683.98 651.48 680.787 654.14 678.14 656.22C678.019 656.315 677.923 656.439 677.861 656.58C677.799 656.722 677.774 656.876 677.787 657.03C677.799 657.184 677.85 657.332 677.935 657.461C678.019 657.59 678.134 657.696 678.27 657.77C680.03 658.737 681.837 659.027 683.69 658.64Z" fill="#0055CC"/>
<path d="M203.97 644.24C210.977 650.847 216.373 658.484 220.16 667.15C221.65 670.55 219.78 672.59 216.42 671.73C207.44 669.42 197.74 664.65 190.85 658.15C183.96 651.66 178.63 642.25 175.79 633.43C174.74 630.12 176.66 628.14 180.15 629.42C189.023 632.694 196.963 637.634 203.97 644.24ZM194.02 655.58C199.84 661.13 207.79 664.98 215.36 667.6C215.66 667.707 215.753 667.61 215.64 667.31C215.087 665.864 214.29 664.26 213.25 662.5C209.857 656.774 205.967 651.82 201.58 647.64C197.187 643.467 192.047 639.827 186.16 636.72C184.347 635.767 182.703 635.05 181.23 634.57C180.93 634.47 180.84 634.567 180.96 634.86C183.95 642.29 188.19 650.04 194.02 655.58Z" fill="#0055CC"/>
<path d="M248.07 720.56C245.81 723.35 242.63 726.98 238.77 726.28C236.263 725.827 235.35 724.16 236.03 721.28C237.216 716.28 239.546 709.207 243.02 700.06C246.46 690.98 250.65 683.09 255.59 676.39C257.083 674.357 258.963 672.386 261.23 670.48C261.683 670.1 262.433 669.887 263.48 669.84C265.19 669.77 265.91 671.57 265.84 672.98C264.86 690.81 259.36 706.65 248.07 720.56ZM261.09 676.66C261.092 676.638 261.09 676.616 261.082 676.595C261.074 676.575 261.06 676.557 261.043 676.543C261.026 676.529 261.006 676.519 260.985 676.515C260.963 676.511 260.941 676.513 260.92 676.52C260.733 676.567 260.56 676.696 260.4 676.91C254.34 684.936 249.526 693.916 245.96 703.85C243.7 710.12 241.82 715.16 240.02 720.88C239.613 722.18 239.95 722.413 241.03 721.58C242.223 720.66 243.453 719.45 244.72 717.95C254.56 706.29 260.016 692.526 261.09 676.66Z" fill="#0055CC"/>
<path d="M711.44 682.49C711.19 682.37 710.997 682.154 710.906 681.892C710.814 681.629 710.83 681.341 710.95 681.091L711.33 680.331C711.646 679.682 712.533 679.346 713.797 679.394C715.06 679.443 716.597 679.873 718.07 680.591L725.55 684.24C727.022 684.959 728.307 685.904 729.125 686.87C729.942 687.836 730.225 688.742 729.91 689.391L729.54 690.16C729.417 690.409 729.201 690.599 728.939 690.689C728.677 690.779 728.39 690.762 728.14 690.641L711.44 682.49Z" fill="#0055CC"/>
<path d="M193.09 679.9C208.21 685.87 221.36 697.1 224.9 713.48C225.213 714.927 225.137 716.427 224.67 717.98C224.516 718.483 224.202 718.922 223.776 719.23C223.351 719.539 222.836 719.7 222.31 719.69C219.72 719.65 217.97 718.75 215.64 717.88C202.667 713.047 194.06 703.917 189.82 690.49C188.94 687.71 188.15 683.79 189.33 681.02C190.02 679.39 191.7 679.35 193.09 679.9ZM205.5 691.26C201.82 688.68 197.807 686.603 193.46 685.03C193.381 685.003 193.296 684.997 193.214 685.014C193.132 685.031 193.056 685.07 192.993 685.126C192.931 685.182 192.885 685.253 192.86 685.333C192.835 685.413 192.831 685.498 192.85 685.58C194.463 692.473 197.503 698.513 201.97 703.7C204.043 706.107 206.85 708.377 210.39 710.51C213.863 712.61 217.15 714.223 220.25 715.35C220.32 715.375 220.395 715.382 220.468 715.368C220.541 715.354 220.608 715.321 220.664 715.271C220.719 715.222 220.76 715.159 220.782 715.088C220.805 715.017 220.807 714.942 220.79 714.87C218.41 704.597 213.313 696.727 205.5 691.26Z" fill="#0055CC"/>
<path d="M246.7 728.691C251.873 721.817 258.243 716.231 265.81 711.931C266.757 711.391 267.657 711.224 268.51 711.431C269.91 711.771 270.463 712.721 270.17 714.281C269.07 720.074 267.517 725.721 265.51 731.221C263.437 736.901 260.84 741.384 257.72 744.671C253.76 748.831 248.64 752.314 242.36 755.121C240.46 755.974 238.147 756.374 235.42 756.321C234.467 756.301 233.94 755.814 233.84 754.861C233.56 752.101 234.57 750.711 235.51 748.461C238.557 741.134 242.287 734.544 246.7 728.691ZM238.17 752.011C238.023 752.331 238.117 752.431 238.45 752.311C245.19 749.951 250.563 746.627 254.57 742.341C260.37 736.131 263.13 726.321 265.17 717.451C265.183 717.398 265.18 717.343 265.16 717.293C265.141 717.243 265.106 717.2 265.061 717.17C265.016 717.14 264.963 717.125 264.909 717.127C264.855 717.129 264.803 717.148 264.76 717.181C257.37 722.731 251.63 727.831 247.16 735.151C243.66 740.884 240.663 746.504 238.17 752.011Z" fill="#0055CC"/>
<path d="M196.61 742.46C192.376 737.494 189.546 731.874 188.12 725.6C187.846 724.38 188.03 723.324 188.67 722.43C188.944 722.049 189.342 721.774 189.795 721.652C190.249 721.53 190.731 721.568 191.16 721.76C194.366 723.18 198.713 724.78 204.2 726.56C210.9 728.74 216 732.39 219.97 738.39C222.376 742.024 224.283 746.134 225.69 750.72C226.69 753.99 228.33 760.3 222.32 758.89C220.606 758.484 218.266 757.487 215.3 755.9C208.39 752.22 201.4 748.08 196.61 742.46ZM192.94 727.55C196.22 736.977 202.23 744.047 210.97 748.76C212.51 749.587 216.15 751.5 221.89 754.5C221.936 754.523 221.988 754.532 222.039 754.526C222.091 754.52 222.139 754.5 222.179 754.467C222.219 754.434 222.249 754.391 222.265 754.342C222.281 754.293 222.283 754.24 222.27 754.19C220.643 748.57 218.206 743.487 214.96 738.94C209.82 731.76 200.98 729.69 193.25 727.23C193.205 727.212 193.157 727.208 193.11 727.218C193.063 727.227 193.02 727.251 192.987 727.286C192.953 727.32 192.931 727.364 192.923 727.411C192.914 727.458 192.92 727.507 192.94 727.55Z" fill="#0055CC"/>
<path d="M306.081 730.545L292.946 732.041C291.887 732.162 291.126 733.118 291.247 734.177L291.263 734.316C291.383 735.376 292.34 736.136 293.399 736.016L306.534 734.519C307.593 734.398 308.354 733.442 308.233 732.383L308.217 732.244C308.096 731.185 307.14 730.424 306.081 730.545Z" fill="#0055CC"/>
<path d="M219.12 778.121C221.72 781.447 223.07 783.774 223.17 785.101C223.39 787.847 222.23 789.181 219.69 789.101C202.717 788.574 190.01 781.201 181.57 766.981C179.99 764.321 178.75 759.271 184.26 760.201C191.77 761.471 198.11 762.511 203.58 765.181C209.447 768.047 214.627 772.361 219.12 778.121ZM218.06 785.191C218.109 785.203 218.16 785.2 218.208 785.183C218.255 785.165 218.296 785.134 218.325 785.093C218.354 785.052 218.37 785.003 218.371 784.953C218.372 784.902 218.358 784.853 218.33 784.811C214.197 777.391 208.703 772.084 201.85 768.891C196.97 766.621 191.46 765.531 185.93 764.601C185.885 764.594 185.838 764.6 185.796 764.618C185.754 764.635 185.717 764.664 185.69 764.702C185.664 764.739 185.648 764.783 185.644 764.828C185.64 764.874 185.649 764.92 185.67 764.961C190.857 774.454 198.483 780.527 208.55 783.181C211.143 783.861 214.313 784.531 218.06 785.191Z" fill="#0055CC"/>
<path d="M685.26 889.12C708.86 889.6 731.78 890.097 754.02 890.61C754.278 890.616 754.533 890.673 754.768 890.777C755.002 890.881 755.21 891.03 755.377 891.214C755.545 891.398 755.669 891.612 755.74 891.843C755.811 892.073 755.828 892.314 755.79 892.55C755.763 892.69 755.527 892.99 755.08 893.45C754.909 893.626 754.703 893.764 754.476 893.857C754.249 893.95 754.005 893.995 753.76 893.99C696.58 892.77 664.993 892.11 659 892.01C593.773 890.93 539.107 890.46 495 890.6C471.587 890.68 440.927 891.083 403.02 891.81C370.987 892.417 309.237 894.117 217.77 896.91C210.877 897.123 206.96 897.23 206.02 897.23C204.94 897.23 204.437 896.69 204.51 895.61C204.597 894.397 205.143 893.83 206.15 893.91C206.577 893.95 206.807 893.967 206.84 893.96C266.627 892.073 296.93 891.117 297.75 891.09C360.123 889.137 420.96 887.837 480.26 887.19C505.553 886.917 531.637 886.927 558.51 887.22C605.583 887.727 647.833 888.36 685.26 889.12Z" fill="#0055CC"/>
<path d="M909.345 890.858L792.407 893.103C791.474 893.121 790.732 893.892 790.75 894.825L790.752 894.965C790.77 895.899 791.541 896.641 792.475 896.623L909.413 894.377C910.346 894.359 911.088 893.588 911.07 892.655L911.068 892.515C911.05 891.582 910.279 890.84 909.345 890.858Z" fill="#0055CC"/>
<path d="M809.42 901C825.62 901.067 842.28 900.813 859.4 900.24C859.893 900.223 860.377 900.392 860.764 900.715C861.152 901.038 861.416 901.494 861.51 902C861.523 902.073 861.517 902.267 861.49 902.58C861.463 902.921 861.311 903.24 861.064 903.476C860.817 903.712 860.492 903.849 860.15 903.86C842.75 904.347 825.84 904.607 809.42 904.64C793 904.567 776.09 904.263 758.69 903.73C758.348 903.719 758.023 903.582 757.775 903.346C757.528 903.11 757.377 902.791 757.35 902.45C757.323 902.137 757.317 901.943 757.33 901.87C757.424 901.362 757.69 900.905 758.079 900.581C758.469 900.258 758.955 900.091 759.45 900.11C776.57 900.73 793.227 901.027 809.42 901Z" fill="#0055CC"/>
<path d="M640.225 904.767L634.642 905.206C633.607 905.287 632.834 906.193 632.916 907.228L632.933 907.447C633.014 908.482 633.919 909.255 634.955 909.174L640.537 908.734C641.572 908.653 642.345 907.748 642.264 906.713L642.247 906.493C642.165 905.458 641.26 904.685 640.225 904.767Z" fill="#0055CC"/>
<path d="M520.94 909.73C519.773 909.764 519.253 909.21 519.38 908.07C519.38 908.044 519.38 908.02 519.38 908C519.36 906.874 519.993 906.29 521.28 906.25C552.693 905.23 584.86 904.86 617.78 905.14C618.015 905.143 618.247 905.199 618.456 905.305C618.665 905.411 618.845 905.563 618.98 905.748C619.115 905.933 619.201 906.146 619.23 906.367C619.26 906.589 619.232 906.813 619.15 907.02L619.04 907.3C618.876 907.717 618.557 908.075 618.126 908.325C617.695 908.575 617.173 908.706 616.63 908.7C585.97 908.427 554.073 908.77 520.94 909.73Z" fill="#0055CC"/>
<path d="M508.56 906.539L489.221 906.64C488.276 906.645 487.515 907.415 487.52 908.359L487.52 908.439C487.525 909.384 488.295 910.145 489.239 910.14L508.579 910.039C509.523 910.034 510.285 909.265 510.28 908.32L510.279 908.24C510.274 907.296 509.505 906.534 508.56 906.539Z" fill="#0055CC"/>
<path d="M213.446 909.991L178.486 909.869C177.625 909.866 176.924 910.562 176.921 911.423L176.92 911.783C176.917 912.645 177.613 913.346 178.474 913.349L213.434 913.471C214.295 913.474 214.996 912.778 214.999 911.916L215.001 911.556C215.004 910.695 214.308 909.994 213.446 909.991Z" fill="#0055CC"/>
<path d="M1006.09 972.79C1006.1 972.695 1006.13 972.603 1006.18 972.524C1006.24 972.445 1006.31 972.381 1006.4 972.337C1006.48 972.293 1006.58 972.271 1006.68 972.274C1006.78 972.276 1006.87 972.302 1006.96 972.35C1007.28 972.53 1007.38 972.836 1007.26 973.27C1007.17 973.61 1006.95 973.78 1006.58 973.78C1006.19 973.78 1006.02 973.586 1006.05 973.2L1006.09 972.79Z" fill="#0055CC"/>
</g>
<defs>
<clipPath id="clip0_93_6338">
<rect width="1024" height="1024" fill="none"/>
</clipPath>
</defs>
</svg>
